<svg xmlns="http://www.w3.org/2000/svg" width="61" height="61" viewBox="0 0 61 61">
  <g id="Group_3032" data-name="Group 3032" transform="translate(-359 -217)">
    <circle id="Ellipse_582" data-name="Ellipse 582" cx="30.5" cy="30.5" r="30.5" transform="translate(359 217)" fill="#3330e4"/>
    <path id="Icon_awesome-check" data-name="Icon awesome-check" d="M9.3,24.588l-8.9-8.9a1.369,1.369,0,0,1,0-1.935l1.935-1.935a1.369,1.369,0,0,1,1.935,0l5.993,5.993L23.1,4.978a1.369,1.369,0,0,1,1.935,0l1.935,1.935a1.369,1.369,0,0,1,0,1.935L11.232,24.588A1.369,1.369,0,0,1,9.3,24.588Z" transform="translate(376 232.423)" fill="#fff"/>
  </g>
</svg>
