<svg width="32" height="32" viewBox="0 0 32 32" fill="none" xmlns="http://www.w3.org/2000/svg">
<circle cx="16" cy="16" r="15.5" fill="white" stroke="#D9D9D9"/>
<path d="M11.846 18.83H7.59L6.806 21H5.462L8.99 11.298H10.46L13.974 21H12.63L11.846 18.83ZM11.482 17.794L9.718 12.866L7.954 17.794H11.482ZM22.0356 14.098C22.0356 14.91 21.7556 15.5867 21.1956 16.128C20.6449 16.66 19.8003 16.926 18.6616 16.926H16.7856V21H15.5116V11.242H18.6616C19.7629 11.242 20.5983 11.508 21.1676 12.04C21.7463 12.572 22.0356 13.258 22.0356 14.098ZM18.6616 15.876C19.3709 15.876 19.8936 15.722 20.2296 15.414C20.5656 15.106 20.7336 14.6673 20.7336 14.098C20.7336 12.894 20.0429 12.292 18.6616 12.292H16.7856V15.876H18.6616Z" fill="#06283D"/>
</svg>
