<svg width="32" height="32" viewBox="0 0 32 32" fill="none" xmlns="http://www.w3.org/2000/svg">
<circle cx="16" cy="16" r="15.75" fill="#D9D9D9" stroke="white" stroke-width="0.5"/>
<path d="M14.142 11.242L10.46 21H8.99L5.308 11.242H6.666L9.732 19.656L12.798 11.242H14.142ZM22.0629 14.098C22.0629 14.91 21.7829 15.5867 21.2229 16.128C20.6723 16.66 19.8276 16.926 18.6889 16.926H16.8129V21H15.5389V11.242H18.6889C19.7903 11.242 20.6256 11.508 21.1949 12.04C21.7736 12.572 22.0629 13.258 22.0629 14.098ZM18.6889 15.876C19.3983 15.876 19.9209 15.722 20.2569 15.414C20.5929 15.106 20.7609 14.6673 20.7609 14.098C20.7609 12.894 20.0703 12.292 18.6889 12.292H16.8129V15.876H18.6889Z" fill="#06283D"/>
</svg>
