<svg width="32" height="32" viewBox="0 0 32 32" fill="none" xmlns="http://www.w3.org/2000/svg">
<circle cx="16" cy="16" r="15.75" fill="#D9D9D9" stroke="white" stroke-width="0.5"/>
<path d="M10.992 11.242V18.452C10.992 19.2547 10.7447 19.8987 10.25 20.384C9.75533 20.86 9.102 21.098 8.29 21.098C7.46867 21.098 6.81067 20.8553 6.316 20.37C5.82133 19.8753 5.574 19.2033 5.574 18.354H6.848C6.85733 18.83 6.97867 19.2173 7.212 19.516C7.45467 19.8147 7.814 19.964 8.29 19.964C8.766 19.964 9.12067 19.824 9.354 19.544C9.58733 19.2547 9.704 18.8907 9.704 18.452V11.242H10.992ZM20.0258 14.098C20.0258 14.91 19.7458 15.5867 19.1858 16.128C18.6352 16.66 17.7905 16.926 16.6518 16.926H14.7758V21H13.5018V11.242H16.6518C17.7532 11.242 18.5885 11.508 19.1578 12.04C19.7365 12.572 20.0258 13.258 20.0258 14.098ZM16.6518 15.876C17.3612 15.876 17.8838 15.722 18.2198 15.414C18.5558 15.106 18.7238 14.6673 18.7238 14.098C18.7238 12.894 18.0332 12.292 16.6518 12.292H14.7758V15.876H16.6518Z" fill="#06283D"/>
</svg>
