<svg width="25" height="24" viewBox="0 0 25 24" fill="none" xmlns="http://www.w3.org/2000/svg">
<circle cx="12.274" cy="12" r="12" fill="#3330E4"/>
<path d="M10.142 14.14H6.49405L5.82205 16H4.67005L7.69405 7.684H8.95405L11.966 16H10.814L10.142 14.14ZM9.83005 13.252L8.31805 9.028L6.80605 13.252H9.83005ZM18.876 10.084C18.876 10.78 18.636 11.36 18.156 11.824C17.684 12.28 16.96 12.508 15.984 12.508H14.376V16H13.284V7.636H15.984C16.928 7.636 17.644 7.864 18.132 8.32C18.628 8.776 18.876 9.364 18.876 10.084ZM15.984 11.608C16.592 11.608 17.04 11.476 17.328 11.212C17.616 10.948 17.76 10.572 17.76 10.084C17.76 9.052 17.168 8.536 15.984 8.536H14.376V11.608H15.984Z" fill="white"/>
</svg>
