<svg xmlns="http://www.w3.org/2000/svg" width="16.2" height="18" viewBox="0 0 16.2 18">
  <path id="calendar_month_FILL1_wght400_GRAD0_opsz48" d="M14.1,14.8a.884.884,0,1,1,.641-.259A.871.871,0,0,1,14.1,14.8Zm-3.6,0a.884.884,0,1,1,.641-.259A.871.871,0,0,1,10.5,14.8Zm7.2,0a.884.884,0,1,1,.641-.259A.871.871,0,0,1,17.7,14.8Zm-3.6,3.6a.884.884,0,1,1,.641-.259A.871.871,0,0,1,14.1,18.4Zm-3.6,0a.884.884,0,1,1,.641-.259A.871.871,0,0,1,10.5,18.4Zm7.2,0a.884.884,0,1,1,.641-.259A.871.871,0,0,1,17.7,18.4ZM7.35,22A1.384,1.384,0,0,1,6,20.65V6.7A1.384,1.384,0,0,1,7.35,5.35H8.813V4.72A.693.693,0,0,1,9.532,4a.739.739,0,0,1,.529.2.682.682,0,0,1,.214.517v.63h7.65V4.72a.693.693,0,0,1,.72-.72.739.739,0,0,1,.529.2.682.682,0,0,1,.214.517v.63H20.85A1.384,1.384,0,0,1,22.2,6.7V20.65A1.384,1.384,0,0,1,20.85,22Zm0-1.35h13.5V10.975H7.35Z" transform="translate(-6 -4)" fill="#878787"/>
</svg>
