<svg xmlns="http://www.w3.org/2000/svg" xmlns:xlink="http://www.w3.org/1999/xlink" viewBox="0 0 132.87 148.17"><defs><style>.cls-1,.cls-4{fill:none;}.cls-2{isolation:isolate;}.cls-3{opacity:1;}.cls-4{stroke:#3330e4;stroke-miterlimit:10;}.cls-5{fill:#3330e4;}.cls-6{fill:#fab29a;}.cls-7{fill:#dadada;}.cls-8{fill:#b3b3b3;}.cls-10,.cls-8{mix-blend-mode:multiply;}.cls-12,.cls-9{fill:#fff;}.cls-10{fill:#878787;opacity:0.5;}.cls-11{clip-path:url(#clip-path);}.cls-12{fill-rule:evenodd;}</style><clipPath id="clip-path"><path id="SVGID" class="cls-1" d="M119.43,76.85c0,14-11.31,28.16-18.05,35.38C91.5,122.8,78.92,132.06,68.54,136.4l-2.11.88-2.1-.88c-10.38-4.34-23-13.6-32.84-24.17-6.74-7.22-18-21.41-18-35.38V31.21H18.9c14.45,0,17.41-5.94,17.41-14.85V10.9H96.56v5.46c0,8.91,3,14.85,17.41,14.85h5.46Z"/></clipPath></defs><g class="cls-2"><g id="Layer_1" data-name="Layer 1"><g class="cls-3"><path class="cls-4" d="M114,27.41c-11.71,0-13.77-3.61-13.77-11.2V7.1H32.66v9.11c0,7.59-2,11.2-13.76,11.2H9.8V76.7c0,15.21,11.92,30.25,19,37.87,10.2,10.92,23.27,20.51,34.09,25l3.51,1.47,3.51-1.47c10.83-4.52,23.9-14.11,34.1-25,7.11-7.62,19-22.66,19-37.87V27.41Z"/><path class="cls-5" d="M119.43,76.85c0,14-11.31,28.16-18.05,35.38C91.5,122.8,78.92,132.06,68.54,136.4l-2.11.88-2.1-.88c-10.38-4.34-23-13.6-32.84-24.17-6.74-7.22-18-21.41-18-35.38V31.21H18.9c14.45,0,17.41-5.94,17.41-14.85V10.9H96.56v5.46c0,8.91,3,14.85,17.41,14.85h5.46Z"/><path class="cls-6" d="M61.33,91.9a3.61,3.61,0,0,0,3.25.22C66,91.28,67,90.64,67,90.64l-3.18-1.87Z"/><path class="cls-7" d="M61.33,91.9a3.61,3.61,0,0,0,3.25.22C66,91.28,67,90.64,67,90.64l-3.18-1.87Z"/><path class="cls-7" d="M85.56,80.42c-.67,1-2,2-4.86.45h0a4.25,4.25,0,0,1,.52,3.07,2.85,2.85,0,0,1-.18.54s0,0,0,0c-.84,1.9-3.41,2-4.12,1.81h0a2.34,2.34,0,0,1-.26,2.2,3.52,3.52,0,0,1-.31.43,3.09,3.09,0,0,1-3.3.91,4.18,4.18,0,0,1-1.06-.6,3.55,3.55,0,0,1-.59,1.48,2.1,2.1,0,0,1-1.75.89,7.24,7.24,0,0,1-3.69-1l-.86-.49-1.25-.76c-2.31-1.42-11.33-5.87-11.33-5.87s-1.67-1.38-3.57-2.92c-1.64-1.33-3.46-2.78-4.53-3.57l-1.8-.86-5.24-2.51-2.46-1.18-7.06-3.38,9.71-13.88,4.79,2.09,6,2.63,3.57,1.56,8.14-1.89L62,59.1l6.52,4.14L84.67,73.48l.65,2.59L86,77.49h0a1.46,1.46,0,0,1,.12.5v0A4.41,4.41,0,0,1,85.56,80.42Z"/><path class="cls-8" d="M65.09,90.1l-1.25-.76c-2.31-1.42-11.33-5.87-11.33-5.87s-1.67-1.38-3.57-2.92c-1.64-1.33-3.46-2.78-4.53-3.57l-1.8-.86-5.24-2.51,1.11-1.94,7.93,3.75s9.84,8.29,12.69,10.07S65,89.61,65,89.61Z"/><polygon class="cls-8" points="48.35 59.89 42.61 76.12 34.91 72.43 42.35 57.26 48.35 59.89"/><path class="cls-8" d="M86,77.49h0l-.64-1.42-.64-2.59L68.53,63.24h0L62,59.1l-1.95.46-1.23,1.77-5.48,7.51a3.75,3.75,0,0,0,3.94,2.1c3-.25,5.54-4.42,6.6-4.91.42-.2,2.77.64,5.69,1.87,4.31,2.38,12.71,7.07,14.5,8.27a8.17,8.17,0,0,1,2,1.82A1.46,1.46,0,0,0,86,77.49Z"/><path class="cls-8" d="M81.22,83.94c-1.69-1.19-4.54-3.13-6-4.12a4.09,4.09,0,0,1-2.08-3.7l7.56,4.75h0A4.25,4.25,0,0,1,81.22,83.94Z"/><path class="cls-8" d="M76.65,88.53l-4.38-3A5,5,0,0,1,70.37,82l6.54,4.38h0A2.34,2.34,0,0,1,76.65,88.53Z"/><path class="cls-8" d="M72,89.27a3.4,3.4,0,0,1-.59,1.48,41.06,41.06,0,0,1-3.53-2.3,3.25,3.25,0,0,1-1.5-2.52Z"/><path class="cls-9" d="M108.94,65.42l-13.58,5-5.52,2-.12.14a17.59,17.59,0,0,1-3.2,2.77c-.71.48-1.2.76-1.2.76l-.38-.49a5,5,0,0,0-1.4-1.24L81.24,73l-4.37-2.62-.81-.48-.52-.32L66.29,64a1.57,1.57,0,0,0-1.12-.19l-.19,0-2.66.92-.16,0L62,64.9a1.42,1.42,0,0,0-.45.32,1.09,1.09,0,0,0-.21.26c-2,3.21-4.15,4.22-5.75,4.41a3.82,3.82,0,0,1-.57,0,4.9,4.9,0,0,1-1.09-.12,1.1,1.1,0,0,1-.76-1.48L56.07,62a2.85,2.85,0,0,1,1.32-1.48l7.84-4.25A2.88,2.88,0,0,1,66.91,56l13.56,1.36,4.21-1.56,5.49-2,12.64-4.68L108,62.82Z"/><polygon class="cls-9" points="47.45 58.5 39.16 76.58 33.41 73.97 27.59 71.33 37.35 53.64 41.41 55.59 47.45 58.5"/><path class="cls-8" d="M66,90.59c-.64-.35-1.32-.77-2.11-1.25-2.31-1.42-11.33-5.87-11.33-5.87s-1.67-1.38-3.57-2.92a6.47,6.47,0,0,1,4.34,2.12l2.35-1.11s2.56.21,3.54,3.59l2.42-1.08a4,4,0,0,1,2,3.05s2,.69,2.27,1.92A3.76,3.76,0,0,1,66,90.59Z"/><path class="cls-9" d="M50.77,84.7a2.2,2.2,0,0,1-1.24-.21c-1.44-.67-2.8-3.29-1.71-4.06,0,0,.58-.58,2.08.32a5.49,5.49,0,0,1,1.79,1.55,2.32,2.32,0,0,1,.4,1.06A1.39,1.39,0,0,1,50.77,84.7Z"/><path class="cls-8" d="M50.77,84.7a13,13,0,0,1,.92-2.4,2.32,2.32,0,0,1,.4,1.06A1.39,1.39,0,0,1,50.77,84.7Z"/><path class="cls-9" d="M53.2,88.16a2.37,2.37,0,0,1-1.79-2.87,9.49,9.49,0,0,1,1.2-3c1.28-2,5-1.15,4.65,2.2l-1.44,3.24A4.46,4.46,0,0,1,53.2,88.16Z"/><path class="cls-9" d="M62,86.7l-1.73,3.61A3.69,3.69,0,0,1,57,89.92l-.26-.2a2.1,2.1,0,0,1-.9-2l1.44-3.24s1-2,2.83-1.53l.12,0A2.71,2.71,0,0,1,62,86.7Z"/><path class="cls-9" d="M65.18,88.66c-.19,1-1,3.37-1,3.37-.33.31-.87.65-2.36.11a2.65,2.65,0,0,1-.73-.39,2.25,2.25,0,0,1-.88-1.44l1.42-3a2,2,0,0,1,1.77-.56A2.31,2.31,0,0,1,65.18,88.66Z"/><path class="cls-8" d="M60.09,83A6.46,6.46,0,0,0,58,86c-.49,1.28-1,2.68-1.27,3.73a2.1,2.1,0,0,1-.9-2l1.44-3.24S58.3,82.54,60.09,83Z"/><path class="cls-8" d="M63.42,86.79A5.17,5.17,0,0,0,62.09,89c-.39,1.06-.73,2-1,2.8a2.25,2.25,0,0,1-.88-1.44l1.42-3A2,2,0,0,1,63.42,86.79Z"/><path class="cls-10" d="M108,62.82c-10,3.37-21.53,7.33-22.57,8a8.55,8.55,0,0,1-2.5,1l-4-2.51a6.52,6.52,0,0,0,2.3-5.21,7.91,7.91,0,0,1-3.27,4.6c-5.33-3.32-11.74-7.22-12.21-7.23a27.81,27.81,0,0,0-4.16,1.08,8.17,8.17,0,0,1-3,5.51,16.72,16.72,0,0,1-3,1.87c1.6-.19,3.72-1.2,5.75-4.41a1.09,1.09,0,0,1,.21-.26l.09-.09,0,0,.1-.07h0l.1-.06h0L62,64.9l.07,0,.08,0,.16,0L65,63.86l.09,0h0l.07,0a1.6,1.6,0,0,1,1.13.19l9.25,5.54,1.33.8L81.24,73h0l2.3,1.38a5,5,0,0,1,1.4,1.24l.38.49s.49-.28,1.2-.76a17.46,17.46,0,0,0,3.32-2.91l19.1-7Z"/><path class="cls-10" d="M95.36,70.39l-5.52,2-.12.14-5-16.79,5.49-2Z"/><polygon class="cls-9" points="104.48 69.3 98.84 71.22 92.46 73.4 85.96 54.6 92.32 52.27 96.48 50.74 104.48 69.3"/><polygon class="cls-8" points="104.48 69.3 98.84 71.22 92.32 52.27 96.48 50.74 104.48 69.3"/><polygon points="119.45 39.82 119.45 69.2 103.76 76.42 101.28 70.39 100.5 68.5 99.37 65.73 97.55 61.3 97.08 60.17 93.87 52.36 93.63 51.79 93.31 50.99 105.52 46.49 119.45 39.82"/><polygon class="cls-8" points="41.41 55.59 33.41 73.97 27.59 71.33 37.35 53.64 41.41 55.59"/><polygon points="40.49 54.19 40.09 54.95 39.52 56.03 35.84 62.97 35.27 64.04 31.65 70.87 30.67 72.73 27.61 78.49 17.26 72.44 14.82 71.02 13.43 70.2 13.43 39.26 28.77 48.53 40.49 54.19"/><circle class="cls-9" cx="50.89" cy="53.59" r="2.39"/><circle class="cls-9" cx="56.1" cy="55.51" r="1.32"/><circle class="cls-9" cx="89.45" cy="77.85" r="1.32"/><circle class="cls-9" cx="82.92" cy="51.12" r="1.02"/><path class="cls-9" d="M61.8,96.52c-.89.18-1,.33-1.22,1.22-.18-.89-.32-1-1.22-1.22.9-.17,1-.32,1.22-1.21C60.76,96.2,60.91,96.35,61.8,96.52Z"/><circle class="cls-9" cx="67.02" cy="97.01" r="2.39" transform="matrix(0.16, -0.99, 0.99, 0.16, -39.36, 147.87)"/><circle class="cls-9" cx="44" cy="81.75" r="1.9"/><circle class="cls-9" cx="78.3" cy="52.72" r="1.9"/><circle class="cls-9" cx="86.79" cy="83.44" r="2.78"/><circle class="cls-9" cx="65.85" cy="48.78" r="3.1"/><g class="cls-11"><rect class="cls-9" x="45.73" y="109.38" width="41.42" height="1.1" rx="0.36"/><path class="cls-12" d="M66.43,103.07l-18.3,5.61H84.74Zm-.2.8,12.55,4.19H76.72Z"/><path class="cls-12" d="M86.79,136.18H82.88c-1.58-.27-1.49-1.47-1.49-2.86V114.23c0-1.66,0-2.2,1.33-2.09a1.23,1.23,0,0,0,0,.19A1.34,1.34,0,1,0,84,111H48.74a1.34,1.34,0,1,0,1.34,1.34,1.23,1.23,0,0,0,0-.19c1.28-.11,1.33.43,1.33,2.09v19.09c0,1.39.09,2.59-1.49,2.86H46.08a.35.35,0,0,0-.35.35v.39a.36.36,0,0,0,.35.36H86.79a.36.36,0,0,0,.35-.36v-.39A.35.35,0,0,0,86.79,136.18Zm-34.16,0h-.56V112h.56Zm1.1,0H53.2V112h.53Zm1.11,0H54.3V112h.54Zm1.08,0h-.56V112h.56Zm1.1,0h-.53V112H57Zm4.65,0H59.16c-1.56-.27-1.48-1.42-1.49-2.8v-19.2c0-1.78.27-2.19,1.52-2.11h0a1.34,1.34,0,1,0,2.67,0h0c1.28-.11,1.33.43,1.33,2.09v19.09C63.16,134.71,63.25,135.91,61.67,136.18Zm2.73,0h-.56V112h.56Zm1.1,0H65V112h.53Zm1.11,0h-.54V112h.54Zm1.08,0h-.56V112h.56Zm1.1,0h-.53V112h.53Zm6.32-2.8c0,1.38.07,2.53-1.49,2.8H70.93c-1.56-.27-1.48-1.42-1.49-2.8v-19.2c0-1.78.27-2.19,1.52-2.11h0a1.34,1.34,0,0,0,2.68,0h0c1.25-.08,1.52.33,1.52,2.11Zm1.18,2.8h-.53V112h.53Zm1.13,0h-.56V112h.56Zm1,0h-.53V112h.53Zm1.11,0H79V112h.54Zm1.13,0h-.56V112h.56Z"/></g><path class="cls-9" d="M60.1,25.63l-2.84-4.3a.66.66,0,0,0-.23-.24,1,1,0,0,0-.39-.05h-.26a2.27,2.27,0,0,0-2.18,1.67,13.42,13.42,0,0,0-.66,4.75,12.93,12.93,0,0,0,.68,4.74,2.3,2.3,0,0,0,2.2,1.63h.2a1.28,1.28,0,0,0,.4,0,.57.57,0,0,0,.22-.22l2.86-4.41h0v4.69a21.55,21.55,0,0,1-4,.34A6.21,6.21,0,0,1,51.3,32.4a7.11,7.11,0,0,1-1.61-4.94,8.16,8.16,0,0,1,.74-3.59,5.36,5.36,0,0,1,2.18-2.36,6.86,6.86,0,0,1,3.47-.83,22.46,22.46,0,0,1,4.06.36v4.59Z"/><path class="cls-9" d="M68.65,32.49a.45.45,0,0,0,.17.2L70.21,34v0H63.67v0l1.38-1.27a.85.85,0,0,0,.17-.2.9.9,0,0,0,0-.28v-11H64.19a.73.73,0,0,0-.31.05.63.63,0,0,0-.18.25l-2.29,4.37h0v-5H72.5v5h0l-2.3-4.37a.48.48,0,0,0-.18-.25.73.73,0,0,0-.31-.05H68.62v11A.9.9,0,0,0,68.65,32.49Z"/><path class="cls-9" d="M74.26,31.16a.87.87,0,0,0,.2.41L76.13,34v0H71.7v0l1.79-2.39a2,2,0,0,0,.27-.39,2.76,2.76,0,0,0,.16-.39l2.6-8c0-.2.07-.31.07-.32a.55.55,0,0,0-.18-.33l-1.1-1.27v0H79.7L83.19,32a3.44,3.44,0,0,0,.37.76L84.35,34v0H78.82v0l.89-1.25a.38.38,0,0,0,.1-.24.84.84,0,0,0-.06-.26l-.88-2.79H74.8l-.48,1.5A.81.81,0,0,0,74.26,31.16Zm.65-2.11h3.85L76.87,23Z"/></g></g></g></svg>