<svg xmlns="http://www.w3.org/2000/svg" width="12.797" height="16" viewBox="0 0 12.797 16">
  <g id="Group_2962" data-name="Group 2962" transform="translate(-1406 -995.092)">
    <g id="Group_2961" data-name="Group 2961" transform="translate(1406 995.092)">
      <g id="pause-_1_">
        <path id="Path_4084" data-name="Path 4084" d="M53.916-511.925l-.088.075-.009.472-.009.472H52.544c-1.344,0-1.435.009-1.51.15-.025.047-.034,1.916-.034,6.38v6.314l.075.088.075.088,3.373.009,3.373.006.038.1a3.486,3.486,0,0,0,.575.822,3.062,3.062,0,0,0,2.382.941,3.11,3.11,0,0,0,2.823-2.354,2.482,2.482,0,0,0,.084-.794,2.717,2.717,0,0,0-.241-1.272,3.262,3.262,0,0,0-1.282-1.463l-.269-.156,0-4.32v-4.323l-.091-.1-.091-.1L60.49-510.9l-1.332-.009v-.46c0-.478-.013-.525-.147-.594-.05-.028-.719-.038-2.538-.038H54Zm-.1,2.069.009.488.088.075.088.075h4.961l.1-.081.094-.078.009-.475.009-.475h2.251l.009,4.042.006,4.042-.147-.025c-.084-.012-.369-.025-.635-.025a2.375,2.375,0,0,0-1.3.3,3.131,3.131,0,0,0-1.732,2.526,3.846,3.846,0,0,0,.044.944l.022.094H51.563v-11.909H53.81Zm7.48,8.168a2.474,2.474,0,0,1,1.5,1.05,2.627,2.627,0,0,1-.275,3.285,2.5,2.5,0,0,1-4.085-.66,2.666,2.666,0,0,1-.016-2.263,2.572,2.572,0,0,1,1.688-1.41A2.976,2.976,0,0,1,61.3-501.688Z" transform="translate(-51 512)" fill="#fff"/>
        <path id="Path_4085" data-name="Path 4085" d="M105.708-399.861a.3.3,0,0,0-.135.093l-.072.084v8.848l.084.077.084.077h4.151l.012-.074a4.52,4.52,0,0,1,.415-1.342,3.472,3.472,0,0,1,2.33-1.811l.208-.042.009-2.86c.006-3.176.021-2.973-.2-3.037C112.486-399.88,105.858-399.893,105.708-399.861Zm5.634,2.336a.3.3,0,0,1,0,.393l-.072.08h-4.241l-.078-.1a.249.249,0,0,1-.042-.306c.075-.174.048-.174,2.291-.164l2.074.006Zm-.006,1.371a.3.3,0,0,1,0,.405l-.072.08h-4.223l-.087-.093a.249.249,0,0,1-.057-.306c.063-.183.009-.18,2.278-.171l2.08.006Zm-.015,1.374a.286.286,0,0,1,.018.415l-.072.08h-4.223l-.087-.093a.26.26,0,0,1-.048-.325c.075-.161.042-.161,2.254-.161h2.065Zm-1.1,1.38a.342.342,0,0,1,.012.415l-.06.084H108.6c-1.529,0-1.58,0-1.637-.064a.349.349,0,0,1-.078-.306.4.4,0,0,1,.078-.145c.057-.061.108-.064,1.625-.064h1.568Z" transform="translate(-103.86 403.254)" fill="#fff"/>
      </g>
    </g>
    <path id="Icon_awesome-arrow-right" data-name="Icon awesome-arrow-right" d="M1.338,2.853,1.494,2.7a.168.168,0,0,1,.238,0L3.1,4.062a.168.168,0,0,1,0,.238L1.733,5.666a.168.168,0,0,1-.238,0L1.338,5.51a.169.169,0,0,1,0-.241l.847-.807H.169A.168.168,0,0,1,0,4.294V4.069A.168.168,0,0,1,.169,3.9H2.188l-.847-.807A.168.168,0,0,1,1.338,2.853Z" transform="translate(1414.399 1003.852)" fill="#fff" stroke="#fff" stroke-width="0.5"/>
  </g>
</svg>
