<svg xmlns="http://www.w3.org/2000/svg" width="26" height="26" viewBox="0 0 26 26">
  <g id="Group_2924" data-name="Group 2924" transform="translate(2.173 0.451)">
    <g id="Group_2766" data-name="Group 2766" transform="translate(-2.173 -0.451)">
      <rect id="Rectangle_3491" data-name="Rectangle 3491" width="26" height="26" rx="2" transform="translate(0 0)" fill="#f9faff"/>
    </g>
    <g id="file-_1_" transform="translate(0.327 515.549)">
      <path id="Path_4089" data-name="Path 4089" d="M122.2-511.951a1.483,1.483,0,0,0-.734.421,1.486,1.486,0,0,0-.428.776c-.028.129-.038,1.106-.038,3.165v2.984l.348-.014a5.811,5.811,0,0,1,2.31.414,5.764,5.764,0,0,1,1.976,1.325l.337.341h2.873c2.81,0,2.877,0,3.009.07a.549.549,0,0,1,.278.452.549.549,0,0,1-.278.452c-.132.07-.2.07-2.671.07h-2.539l.132.306a5.9,5.9,0,0,1,.438,1.583l.024.2h2.24c2.174,0,2.243,0,2.376.07a.549.549,0,0,1,.278.452.549.549,0,0,1-.278.452c-.132.066-.2.07-2.376.07H127.24l-.045.317a5.829,5.829,0,0,1-2.139,3.677l-.24.181h4.16c2.929,0,4.216-.01,4.344-.038a1.6,1.6,0,0,0,1.207-1.207c.028-.132.038-1.9.038-6.111v-5.93h-4.111l-.139-.077a.561.561,0,0,1-.205-.209,8.272,8.272,0,0,1-.066-2.184V-512l-3.833,0C123.264-511.993,122.332-511.983,122.2-511.951Zm9.652,6.351a.549.549,0,0,1,.278.452.549.549,0,0,1-.278.452c-.136.07-.195.07-4.073.07h-3.934l-.139-.077a.5.5,0,0,1-.007-.883l.136-.083h3.941C131.657-505.67,131.717-505.67,131.852-505.6Z" transform="translate(-115.343)" fill="#3330e4"/>
      <path id="Path_4090" data-name="Path 4090" d="M411-501.417v1.583h3.183l-1.583-1.583c-.87-.87-1.586-1.583-1.59-1.583S411-502.287,411-501.417Z" transform="translate(-395.256 -8.687)" fill="#3330e4"/>
      <path id="Path_4091" data-name="Path 4091" d="M5.691-269.7a4.657,4.657,0,0,0-2.835,1.384,4.585,4.585,0,0,0-1.294,2.421,6.07,6.07,0,0,0,0,1.739,4.6,4.6,0,0,0,1.294,2.421,4.59,4.59,0,0,0,2.452,1.325,6.119,6.119,0,0,0,1.746,0A4.6,4.6,0,0,0,9.469-261.7a4.588,4.588,0,0,0,1.325-2.452,6.07,6.07,0,0,0,0-1.739,5.093,5.093,0,0,0-.737-1.774,6.361,6.361,0,0,0-1.221-1.224,4.892,4.892,0,0,0-1.76-.741A7.543,7.543,0,0,0,5.691-269.7Zm.73,2.136a.466.466,0,0,1,.209.209c.063.125.07.2.07.974v.835h.487c.421,0,.508.01.626.07a.549.549,0,0,1,.278.452.549.549,0,0,1-.278.452c-.125.063-.2.07-.943.07-.769,0-.81,0-.943-.077-.268-.15-.271-.181-.271-1.5s.007-1.318.264-1.475A.473.473,0,0,1,6.422-267.562Z" transform="translate(0 -233.864)" fill="#3330e4"/>
    </g>
  </g>
</svg>
