<svg xmlns="http://www.w3.org/2000/svg" width="15.999" height="12.573" viewBox="0 0 15.999 12.573">
  <g id="cloud-computing" transform="translate(-0.128 456.867)">
    <path id="Path_4110" data-name="Path 4110" d="M7.57-456.837a5.661,5.661,0,0,0-2.434.86A5.518,5.518,0,0,0,2.911-453.1a5.71,5.71,0,0,0-.253,1.189c0,.125-.034.153-.247.2A3.105,3.105,0,0,0,.734-450.6a3.071,3.071,0,0,0-.6,1.984A3.012,3.012,0,0,0,2.4-445.883a7.045,7.045,0,0,0,1.736.078l1.492.013v-1L4.2-446.8l-1.433-.009L2.52-446.9a2.007,2.007,0,0,1-.929-.638,2.523,2.523,0,0,1-.4-.817,2.647,2.647,0,0,1,0-.889,2.025,2.025,0,0,1,1.758-1.543c.341-.031.4-.047.494-.131.153-.128.185-.222.216-.66a4.3,4.3,0,0,1,.482-1.768,4.453,4.453,0,0,1,2.947-2.331,4.494,4.494,0,0,1,4.809,1.887,4.6,4.6,0,0,1,.651,1.5c.1.366.185.454.551.529a2.44,2.44,0,0,1,1.273.673,2.494,2.494,0,0,1-1.292,4.246,11.586,11.586,0,0,1-1.336.044h-1.1v1.007l1.245-.016a8.327,8.327,0,0,0,1.477-.066,3.545,3.545,0,0,0,2.372-1.8,3.179,3.179,0,0,0,.4-1.643,4.065,4.065,0,0,0-.044-.626,3.526,3.526,0,0,0-.973-1.83,3.449,3.449,0,0,0-1.4-.857l-.253-.084-.053-.2c-.031-.109-.113-.344-.185-.522a5.492,5.492,0,0,0-3.432-3.173A5.466,5.466,0,0,0,7.57-456.837Z" transform="translate(0 0)" fill="#fff"/>
    <path id="Path_4111" data-name="Path 4111" d="M183.159-262.843a13.137,13.137,0,0,0-1.133,1.07L181-260.75l.35.35.354.354.569-.569.573-.573v4.8h1v-4.8l.579.579.579.579.35-.354.354-.35-1.032-1.036c-.569-.573-1.076-1.054-1.133-1.079A.449.449,0,0,0,183.159-262.843Z" transform="translate(-175.213 -187.908)" fill="#fff"/>
  </g>
</svg>
