<?xml version="1.0" standalone="no"?>
<!DOCTYPE svg PUBLIC "-//W3C//DTD SVG 20010904//EN"
 "http://www.w3.org/TR/2001/REC-SVG-20010904/DTD/svg10.dtd">
<svg version="1.0" xmlns="http://www.w3.org/2000/svg"
 width="148.000000pt" height="148.000000pt" viewBox="0 0 148.000000 148.000000"
 preserveAspectRatio="xMidYMid meet">
<metadata>
Created by potrace 1.14, written by Peter Selinger 2001-2017
</metadata>
<g transform="translate(0.000000,148.000000) scale(0.100000,-0.100000)"
fill="#000000" stroke="none">
<path d="M448 1413 l-48 -4 0 -73 c0 -53 -4 -77 -15 -86 -8 -7 -15 -18 -15
-24 1 -6 10 0 20 13 16 18 20 38 20 92 l0 69 39 0 c22 0 43 5 46 10 3 6 5 9 3
8 -2 -1 -24 -3 -50 -5z"/>
<path d="M510 1409 c0 -4 20 -7 45 -7 25 1 43 3 41 6 -8 7 -86 9 -86 1z"/>
<path d="M610 1409 c0 -9 118 -11 123 -2 3 4 -24 8 -59 8 -35 0 -64 -3 -64 -6z"/>
<path d="M750 1409 c0 -4 20 -7 45 -7 25 1 43 3 41 6 -8 7 -86 9 -86 1z"/>
<path d="M850 1409 c0 -9 118 -11 123 -2 3 4 -24 8 -59 8 -35 0 -64 -3 -64 -6z"/>
<path d="M990 1407 c0 -5 12 -7 28 -6 54 4 63 0 58 -24 -2 -13 0 -30 5 -38 6
-9 9 0 9 29 0 35 -3 42 -20 43 -62 4 -80 3 -80 -4z"/>
<path d="M443 1319 c-3 -106 -36 -138 -152 -148 l-76 -6 1 -245 c0 -199 3
-255 17 -300 38 -128 161 -280 321 -398 89 -65 169 -112 193 -112 17 0 134 69
203 119 80 58 191 176 244 259 74 115 80 143 82 417 0 132 -1 246 -3 253 -3 7
-25 12 -59 12 -69 0 -131 25 -149 60 -8 15 -15 53 -17 84 l-3 56 -300 0 -300
0 -2 -51z"/>
<path d="M1081 1295 c-3 -65 49 -95 164 -95 l61 0 -1 -272 c-1 -150 -5 -284
-9 -298 -14 -41 -47 -112 -72 -152 -13 -21 -20 -38 -15 -38 14 0 91 162 99
210 4 25 8 160 7 300 l0 255 -85 6 c-47 4 -92 10 -101 13 -19 8 -36 40 -42 76
-4 22 -4 21 -6 -5z"/>
<path d="M250 1210 l-85 -6 80 -1 c44 -1 89 2 100 7 11 5 13 8 5 7 -8 0 -53
-4 -100 -7z"/>
<path d="M173 1170 c1 -21 10 -18 13 5 1 8 -2 15 -6 15 -5 0 -8 -9 -7 -20z"/>
<path d="M173 1105 c1 -19 3 -32 6 -29 8 7 8 64 0 64 -3 0 -6 -16 -6 -35z"/>
<path d="M170 1045 c0 -8 2 -15 4 -15 2 0 6 7 10 15 3 8 1 15 -4 15 -6 0 -10
-7 -10 -15z"/>
<path d="M170 1005 c0 -8 4 -15 8 -15 5 0 9 7 9 15 0 8 -4 15 -9 15 -4 0 -8
-7 -8 -15z"/>
<path d="M179 978 c-6 -12 -5 -48 1 -48 4 0 7 11 6 25 -1 22 -3 30 -7 23z"/>
<path d="M177 913 c-10 -9 -9 -43 1 -43 4 0 8 11 8 25 0 28 0 28 -9 18z"/>
<path d="M173 790 c-1 -22 1 -40 5 -40 4 0 8 18 8 40 0 22 -2 40 -6 40 -3 0
-6 -18 -7 -40z"/>
<path d="M178 734 c-8 -7 0 -81 14 -124 56 -178 263 -402 470 -506 37 -19 75
-34 85 -34 43 0 312 176 313 204 0 5 -24 -11 -52 -36 -87 -73 -229 -158 -264
-158 -24 0 -142 65 -209 115 -197 147 -341 352 -348 496 -1 27 -2 49 -3 49 0
0 -3 -3 -6 -6z"/>
<path d="M1155 384 c-21 -26 -49 -57 -63 -71 -13 -13 -22 -26 -19 -29 5 -5
127 131 127 141 0 11 -10 2 -45 -41z"/>
</g>
</svg>
