<svg xmlns="http://www.w3.org/2000/svg" width="24" height="19.198" viewBox="0 0 24 19.198">
  <path id="Icon_awesome-hands-helping" data-name="Icon awesome-hands-helping" d="M18.3,7.2H12.6V9.3a2.7,2.7,0,1,1-5.4,0V4.741L4.765,6.2A2.4,2.4,0,0,0,3.6,8.258v1.774l-3,1.732A1.2,1.2,0,0,0,.161,13.4l3,5.2a1.2,1.2,0,0,0,1.639.439L8.677,16.8H13.8a2.4,2.4,0,0,0,2.4-2.4h.6A1.2,1.2,0,0,0,18,13.2V10.8h.3a.9.9,0,0,0,.9-.9V8.1A.9.9,0,0,0,18.3,7.2Zm5.539-1.4-3-5.2A1.2,1.2,0,0,0,19.2.162L15.322,2.4H11.489a2.418,2.418,0,0,0-1.271.364l-1.256.784A1.192,1.192,0,0,0,8.4,4.564V9.3a1.5,1.5,0,1,0,3,0V6h6.9a2.1,2.1,0,0,1,2.1,2.1V9.169l3-1.732A1.2,1.2,0,0,0,23.838,5.8Z" transform="translate(0.002 -0.001)" fill="#fff"/>
</svg>
