<svg xmlns="http://www.w3.org/2000/svg" xmlns:xlink="http://www.w3.org/1999/xlink" viewBox="0 0 417.14 144.24"><defs><style>.cls-1,.cls-11{fill:none;}.cls-2{isolation:isolate;}.cls-3{font-size:45.06px;fill:#06283d;font-family:Cambria-BoldItalic, Cambria;font-weight:700;font-style:italic;}.cls-4{letter-spacing:-0.01em;}.cls-5{letter-spacing:-0.01em;}.cls-6{letter-spacing:-0.01em;}.cls-7{letter-spacing:-0.02em;}.cls-8{letter-spacing:-0.01em;}.cls-9{letter-spacing:0em;}.cls-10{letter-spacing:-0.01em;}.cls-11{stroke:#3330e4;stroke-miterlimit:10;}.cls-12{fill:#3330e4;}.cls-13{fill:#fab29a;}.cls-14{fill:#dadada;}.cls-15{fill:#b3b3b3;}.cls-15,.cls-17{mix-blend-mode:multiply;}.cls-16,.cls-19{fill:#fff;}.cls-17{fill:#878787;opacity:0.5;}.cls-18{clip-path:url(#clip-path);}.cls-19{fill-rule:evenodd;}</style><clipPath id="clip-path"><path class="cls-1" d="M112.29,77.67c0,14-11.31,28.17-18.05,35.39-9.87,10.57-22.46,19.83-32.84,24.16l-2.1.88-2.11-.88c-10.38-4.34-23-13.59-32.84-24.16-6.74-7.22-18-21.42-18-35.39V32h5.46c14.45,0,17.41-5.93,17.41-14.84V11.72H89.42v5.47c0,8.91,3,14.84,17.41,14.84h5.46Z"/></clipPath></defs><g class="cls-2"><g id="Layer_1" data-name="Layer 1"><text class="cls-3" transform="translate(127.51 37.55)"><tspan class="cls-4">C</tspan><tspan x="24.2" y="0">orpo</tspan><tspan class="cls-5" x="119.16" y="0">r</tspan><tspan x="139.27" y="0">a</tspan><tspan class="cls-6" x="164.95" y="0">t</tspan><tspan x="181.03" y="0">e </tspan><tspan class="cls-7" x="0" y="46.61">T</tspan><tspan class="cls-8" x="26.27" y="46.61">r</tspan><tspan x="46.38" y="46.61">anspa</tspan><tspan class="cls-5" x="169.79" y="46.61">r</tspan><tspan x="189.9" y="46.61">en</tspan><tspan class="cls-9" x="238.75" y="46.61">c</tspan><tspan x="259.34" y="46.61">y </tspan><tspan class="cls-10" x="0" y="93.23">A</tspan><tspan x="27.13" y="93.23">ct Filing</tspan></text><path class="cls-11" d="M106.83,28.24c-11.7,0-13.76-3.61-13.76-11.21V7.93H25.53V17c0,7.6-2.06,11.21-13.77,11.21H2.66V77.52c0,15.22,11.92,30.26,19,37.87,10.2,10.92,23.27,20.52,34.1,25l3.51,1.47,3.51-1.47c10.82-4.52,23.89-14.12,34.09-25,7.11-7.61,19-22.65,19-37.87V28.24Z"/><path class="cls-12" d="M112.29,77.67c0,14-11.31,28.17-18.05,35.39-9.87,10.57-22.46,19.83-32.84,24.16l-2.1.88-2.11-.88c-10.38-4.34-23-13.59-32.84-24.16-6.74-7.22-18-21.42-18-35.39V32h5.46c14.45,0,17.41-5.93,17.41-14.84V11.72H89.42v5.47c0,8.91,3,14.84,17.41,14.84h5.46Z"/><path class="cls-13" d="M54.19,92.72s1.8,1.07,3.25.22,2.47-1.48,2.47-1.48L56.72,89.6Z"/><path class="cls-14" d="M54.19,92.72s1.8,1.07,3.25.22,2.47-1.48,2.47-1.48L56.72,89.6Z"/><path class="cls-14" d="M78.42,81.25c-.67,1-2,2-4.86.44h0a4.16,4.16,0,0,1,.52,3.07,4,4,0,0,1-.17.53s0,0,0,0c-.84,1.91-3.41,2-4.12,1.82h0a2.34,2.34,0,0,1-.26,2.2,2.26,2.26,0,0,1-.31.42,3.07,3.07,0,0,1-3.3.91,4,4,0,0,1-1.06-.59,3.4,3.4,0,0,1-.59,1.48,2.12,2.12,0,0,1-1.75.88,7.17,7.17,0,0,1-3.68-1l-.87-.5-1.24-.75c-2.32-1.42-11.34-5.87-11.34-5.87s-1.67-1.38-3.57-2.92c-1.64-1.33-3.46-2.78-4.53-3.57L35.47,77l-5.24-2.51-2.46-1.18-7.06-3.38L30.42,56l4.79,2.09,6,2.62,3.57,1.56,8.14-1.88,1.95-.46,6.52,4.13L77.54,74.3l.64,2.59.64,1.43h0a1.41,1.41,0,0,1,.12.5v0A4.44,4.44,0,0,1,78.42,81.25Z"/><path class="cls-15" d="M58,90.92l-1.25-.75c-2.31-1.42-11.33-5.87-11.33-5.87s-1.67-1.38-3.57-2.92c-1.64-1.33-3.46-2.78-4.53-3.57L35.47,77l-5.24-2.51,1.11-1.94,7.93,3.74S49.12,84.53,52,86.32s5.88,4.12,5.88,4.12Z"/><polygon class="cls-15" points="41.21 60.71 35.47 76.95 27.77 73.26 35.21 58.09 41.21 60.71"/><path class="cls-15" d="M78.82,78.32h0l-.64-1.43-.64-2.59L61.39,64.07h0l-6.52-4.14-1.95.46-1.23,1.76-5.48,7.52a3.76,3.76,0,0,0,3.94,2.1c3-.25,5.54-4.42,6.6-4.92.42-.19,2.78.64,5.69,1.88,4.31,2.38,12.71,7.06,14.5,8.26a8.18,8.18,0,0,1,2,1.83A1.46,1.46,0,0,0,78.82,78.32Z"/><path class="cls-15" d="M74.08,84.77c-1.69-1.19-4.54-3.13-6-4.13A4.06,4.06,0,0,1,66,77l7.56,4.74h0A4.16,4.16,0,0,1,74.08,84.77Z"/><path class="cls-15" d="M69.51,89.36l-4.38-3a5,5,0,0,1-1.9-3.62l6.54,4.39h0A2.34,2.34,0,0,1,69.51,89.36Z"/><path class="cls-15" d="M64.84,90.1a3.4,3.4,0,0,1-.59,1.48,37.41,37.41,0,0,1-3.52-2.31,3.24,3.24,0,0,1-1.51-2.51Z"/><path class="cls-16" d="M101.8,66.24l-13.58,5-5.52,2-.12.14a17.56,17.56,0,0,1-3.2,2.76c-.71.49-1.2.76-1.2.76l-.38-.49a5.36,5.36,0,0,0-1.4-1.24l-2.3-1.38-4.36-2.61-.82-.49-.52-.31-9.24-5.54A1.56,1.56,0,0,0,58,64.64l-.19,0-2.66.92-.15,0-.16.06a1.6,1.6,0,0,0-.45.32,1.71,1.71,0,0,0-.21.26c-2,3.22-4.15,4.23-5.75,4.42l-.57,0a4.9,4.9,0,0,1-1.09-.12A1.09,1.09,0,0,1,46,69.16l2.89-6.33a2.89,2.89,0,0,1,1.32-1.48l7.84-4.24a2.89,2.89,0,0,1,1.68-.34l13.56,1.37,4.21-1.56,5.49-2,12.64-4.67,5.16,13.76Z"/><polygon class="cls-16" points="40.31 59.33 32.02 77.41 26.28 74.8 20.45 72.15 30.21 54.47 34.27 56.42 40.31 59.33"/><path class="cls-15" d="M58.81,91.41c-.63-.34-1.32-.76-2.11-1.24-2.31-1.42-11.33-5.87-11.33-5.87s-1.67-1.38-3.57-2.92a6.43,6.43,0,0,1,4.34,2.12l2.35-1.12S51.05,82.59,52,86l2.42-1.07a4,4,0,0,1,2,3s2,.69,2.27,1.91A3.77,3.77,0,0,1,58.81,91.41Z"/><path class="cls-16" d="M43.63,85.53a2.25,2.25,0,0,1-1.23-.21c-1.45-.67-2.8-3.3-1.72-4.06,0,0,.58-.58,2.08.32a5.49,5.49,0,0,1,1.79,1.54,2.35,2.35,0,0,1,.4,1.07A1.39,1.39,0,0,1,43.63,85.53Z"/><path class="cls-15" d="M43.63,85.53a12.88,12.88,0,0,1,.92-2.41,2.35,2.35,0,0,1,.4,1.07A1.39,1.39,0,0,1,43.63,85.53Z"/><path class="cls-16" d="M46.06,89a2.36,2.36,0,0,1-1.79-2.87,9.54,9.54,0,0,1,1.2-3c1.28-2,5-1.15,4.65,2.19L48.68,88.6A4.48,4.48,0,0,1,46.06,89Z"/><path class="cls-16" d="M54.82,87.52l-1.73,3.62a3.71,3.71,0,0,1-3.25-.4,1.79,1.79,0,0,1-.26-.2,2.08,2.08,0,0,1-.9-1.94l1.44-3.25s1-2,2.83-1.52l.12,0A2.7,2.7,0,0,1,54.82,87.52Z"/><path class="cls-16" d="M58,89.49c-.18.94-1,3.36-1,3.36-.33.31-.87.66-2.36.12a3.32,3.32,0,0,1-.73-.39,2.25,2.25,0,0,1-.88-1.44l1.42-3a2.07,2.07,0,0,1,1.77-.56A2.32,2.32,0,0,1,58,89.49Z"/><path class="cls-15" d="M53,83.83a6.46,6.46,0,0,0-2.1,3c-.49,1.28-.94,2.68-1.27,3.72a2.08,2.08,0,0,1-.9-1.94l1.44-3.25S51.16,83.37,53,83.83Z"/><path class="cls-15" d="M56.28,87.61A5.34,5.34,0,0,0,55,89.78c-.39,1-.73,2-1,2.8a2.25,2.25,0,0,1-.88-1.44l1.42-3A2.07,2.07,0,0,1,56.28,87.61Z"/><path class="cls-17" d="M100.83,63.64c-10,3.37-21.54,7.33-22.58,8a8.28,8.28,0,0,1-2.5,1c-1.08-.69-2.46-1.56-4-2.5a6.56,6.56,0,0,0,2.3-5.21,7.92,7.92,0,0,1-3.28,4.6c-5.33-3.32-11.74-7.22-12.21-7.23a28,28,0,0,0-4.16,1.07,8.2,8.2,0,0,1-3,5.52,18,18,0,0,1-3,1.87c1.6-.19,3.72-1.2,5.75-4.42a1.71,1.71,0,0,1,.21-.26l.09-.08,0,0,.1-.08h0l.1-.07h0l.11-.06.08,0,.08,0,.15,0,2.66-.92.09,0h0l.07,0a1.58,1.58,0,0,1,1.14.19l9.24,5.54,1.34.8,4.36,2.61h0l2.3,1.38a5.36,5.36,0,0,1,1.4,1.24l.38.49s.49-.27,1.2-.76a17,17,0,0,0,3.32-2.9l19.1-7Z"/><path class="cls-17" d="M88.22,71.21l-5.52,2-.12.14-5-16.79,5.49-2Z"/><polygon class="cls-16" points="97.34 70.12 91.7 72.05 85.32 74.23 78.82 55.43 85.18 53.09 89.34 51.57 97.34 70.12"/><polygon class="cls-15" points="97.34 70.12 91.7 72.05 85.18 53.09 89.34 51.57 97.34 70.12"/><polygon points="112.31 40.65 112.31 70.02 96.62 77.24 94.14 71.22 93.37 69.33 92.23 66.56 90.41 62.13 89.94 61 86.73 53.18 86.5 52.61 86.17 51.81 98.38 47.32 112.31 40.65"/><polygon class="cls-15" points="34.27 56.42 26.28 74.8 20.45 72.15 30.21 54.47 34.27 56.42"/><polygon points="33.35 55.02 32.95 55.78 32.38 56.85 28.7 63.79 28.13 64.87 24.51 71.7 23.53 73.55 20.48 79.31 10.12 73.27 7.68 71.84 6.29 71.03 6.29 40.08 21.63 49.36 33.35 55.02"/><circle class="cls-16" cx="43.76" cy="54.42" r="2.39"/><circle class="cls-16" cx="48.96" cy="56.34" r="1.32"/><circle class="cls-16" cx="82.31" cy="78.67" r="1.32"/><circle class="cls-16" cx="75.78" cy="51.95" r="1.02"/><path class="cls-16" d="M54.66,97.35c-.89.18-1,.32-1.22,1.22-.17-.9-.32-1-1.21-1.22.89-.18,1-.32,1.21-1.22C53.62,97,53.77,97.17,54.66,97.35Z"/><circle class="cls-16" cx="59.88" cy="97.84" r="2.39" transform="matrix(0.16, -0.99, 0.99, 0.16, -46.19, 141.51)"/><circle class="cls-16" cx="36.86" cy="82.57" r="1.9"/><circle class="cls-16" cx="71.16" cy="53.54" r="1.9"/><circle class="cls-16" cx="79.65" cy="84.27" r="2.78"/><circle class="cls-16" cx="58.71" cy="49.61" r="3.1"/><g class="cls-18"><rect class="cls-16" x="38.59" y="110.21" width="41.42" height="1.1" rx="0.36"/><path class="cls-19" d="M59.3,103.89,41,109.5H77.6Zm-.21.81,12.56,4.18H69.58Z"/><path class="cls-19" d="M79.65,137H75.74c-1.58-.27-1.49-1.46-1.49-2.86V115.06c0-1.66,0-2.21,1.33-2.1a1.36,1.36,0,0,0,0,.2,1.34,1.34,0,1,0,1.34-1.34H41.6a1.34,1.34,0,1,0,1.34,1.34,1.36,1.36,0,0,0,0-.2c1.28-.11,1.33.44,1.33,2.1v19.08c0,1.4.09,2.59-1.49,2.86H38.94a.36.36,0,0,0-.35.36v.38a.36.36,0,0,0,.35.36H79.65a.36.36,0,0,0,.35-.36v-.38A.36.36,0,0,0,79.65,137Zm-34.16,0h-.56V112.8h.56Zm1.11,0h-.54V112.8h.54Zm1.1,0h-.53V112.8h.53Zm1.08,0h-.56V112.8h.56Zm1.1,0h-.53V112.8h.53Zm4.65,0H52c-1.56-.27-1.48-1.41-1.49-2.8V115c0-1.79.27-2.19,1.52-2.12h0a1.34,1.34,0,0,0,2.68,0h0c1.28-.11,1.33.44,1.33,2.1v19.08C56,135.54,56.11,136.73,54.53,137Zm2.73,0H56.7V112.8h.56Zm1.1,0h-.53V112.8h.53Zm1.11,0h-.53V112.8h.53Zm1.08,0H60V112.8h.56Zm1.1,0h-.53V112.8h.53ZM68,134.2c0,1.39.07,2.53-1.49,2.8H63.79c-1.56-.27-1.48-1.41-1.49-2.8V115c0-1.79.27-2.19,1.52-2.12h0a1.34,1.34,0,0,0,2.68,0h0c1.25-.07,1.52.33,1.52,2.12Zm1.18,2.8h-.53V112.8h.53Zm1.13,0h-.56V112.8h.56Zm1.06,0H70.8V112.8h.54Zm1.1,0h-.53V112.8h.53Zm1.13,0H73V112.8h.56Z"/></g><path class="cls-16" d="M53,26.46l-2.84-4.3a.53.53,0,0,0-.23-.24.93.93,0,0,0-.39-.06h-.26a2.26,2.26,0,0,0-2.17,1.67,13.22,13.22,0,0,0-.67,4.76A12.87,12.87,0,0,0,47.08,33a2.31,2.31,0,0,0,2.2,1.64h.21a1.18,1.18,0,0,0,.39,0,.53.53,0,0,0,.22-.21L53,30h0v4.69A22.49,22.49,0,0,1,49,35a6.21,6.21,0,0,1-4.86-1.78,7.13,7.13,0,0,1-1.61-4.94,8.23,8.23,0,0,1,.74-3.6,5.33,5.33,0,0,1,2.18-2.35,6.78,6.78,0,0,1,3.47-.83,23.41,23.41,0,0,1,4.06.35v4.6Z"/><path class="cls-16" d="M61.51,33.31a.63.63,0,0,0,.17.21l1.39,1.27v0H56.53v0l1.38-1.27a1.1,1.1,0,0,0,.17-.21.78.78,0,0,0,0-.28v-11H57.05a.76.76,0,0,0-.31,0,.6.6,0,0,0-.17.26l-2.3,4.37h0v-5H65.36v5h0L63,22.37a.52.52,0,0,0-.18-.26.73.73,0,0,0-.31,0H61.48V33A.85.85,0,0,0,61.51,33.31Z"/><path class="cls-16" d="M67.12,32a.9.9,0,0,0,.21.41L69,34.79v0H64.56v0l1.79-2.39c.14-.18.23-.31.28-.39s.09-.22.15-.4l2.6-7.95c.05-.2.08-.31.08-.32a.62.62,0,0,0-.19-.34l-1.1-1.27v0h4.39l3.49,11.08a3.48,3.48,0,0,0,.37.77l.79,1.25v0H71.68v0l.9-1.25a.45.45,0,0,0,.09-.25.9.9,0,0,0-.06-.26l-.88-2.78H67.66l-.48,1.49A.93.93,0,0,0,67.12,32Zm.65-2.11h3.85l-1.88-6.06Z"/></g></g></svg>