<svg xmlns="http://www.w3.org/2000/svg" xmlns:xlink="http://www.w3.org/1999/xlink" viewBox="0 0 32 32"><defs><style>.cls-1,.cls-3{fill:none;}.cls-2{isolation:isolate;}.cls-3{stroke:#3330e4;stroke-miterlimit:10;}.cls-4{fill:#3330e4;}.cls-5{fill:#fab29a;}.cls-6{fill:#dadada;}.cls-7{fill:#b3b3b3;}.cls-7,.cls-9{mix-blend-mode:multiply;}.cls-11,.cls-8{fill:#fff;}.cls-9{fill:#878787;opacity:0.5;}.cls-10{clip-path:url(#clip-path);}.cls-11{fill-rule:evenodd;}</style><clipPath id="clip-path"><path id="SVGID" class="cls-1" d="M27.87,16.62c0,3.13-2.54,6.31-4.05,7.92A23.3,23.3,0,0,1,16.47,30l-.47.2-.47-.2a23.3,23.3,0,0,1-7.35-5.41c-1.51-1.61-4-4.79-4-7.92V6.4H5.36c3.23,0,3.89-1.33,3.89-3.33V1.85h13.5V3.07c0,2,.66,3.33,3.89,3.33h1.23Z"/></clipPath></defs><g class="cls-2"><g id="Layer_1" data-name="Layer 1"><path class="cls-3" d="M26.64,5.55C24,5.55,23.56,4.74,23.56,3V1H8.44V3c0,1.7-.46,2.51-3.08,2.51h-2v11C3.32,20,6,23.36,7.58,25.06a24.2,24.2,0,0,0,7.63,5.61L16,31l.79-.33a24.2,24.2,0,0,0,7.63-5.61c1.59-1.7,4.26-5.07,4.26-8.48v-11Z"/><path class="cls-4" d="M27.87,16.62c0,3.13-2.54,6.31-4.05,7.92A23.3,23.3,0,0,1,16.47,30l-.47.2-.47-.2a23.3,23.3,0,0,1-7.35-5.41c-1.51-1.61-4-4.79-4-7.92V6.4H5.36c3.23,0,3.89-1.33,3.89-3.33V1.85h13.5V3.07c0,2,.66,3.33,3.89,3.33h1.23Z"/><path class="cls-5" d="M14.86,20a.79.79,0,0,0,.72.05l.56-.33-.72-.42Z"/><path class="cls-6" d="M14.86,20a.79.79,0,0,0,.72.05l.56-.33-.72-.42Z"/><path class="cls-6" d="M20.28,17.42c-.15.22-.46.45-1.09.1h0a.91.91,0,0,1,.12.69.56.56,0,0,1,0,.12h0a.87.87,0,0,1-.92.4h0a.56.56,0,0,1-.06.49.36.36,0,0,1-.07.1.68.68,0,0,1-.74.2.87.87,0,0,1-.24-.13.77.77,0,0,1-.13.33.46.46,0,0,1-.39.2,1.65,1.65,0,0,1-.83-.23l-.19-.12-.28-.16c-.52-.32-2.54-1.32-2.54-1.32l-.8-.65c-.37-.3-.77-.62-1-.8l-.4-.19-1.18-.57-.55-.26-1.58-.76,2.17-3.11,1.08.47,1.34.59.8.35,1.82-.42.44-.11,1.46.93,3.61,2.29.15.58.14.32h0a.26.26,0,0,1,0,.11h0A1,1,0,0,1,20.28,17.42Z"/><path class="cls-7" d="M15.7,19.58l-.28-.16c-.52-.32-2.54-1.32-2.54-1.32l-.8-.65c-.37-.3-.77-.62-1-.8l-.4-.19-1.18-.57.25-.43,1.78.84s2.2,1.85,2.84,2.25,1.31.93,1.31.93Z"/><polygon class="cls-7" points="11.95 12.82 10.67 16.46 8.94 15.63 10.61 12.23 11.95 12.82"/><path class="cls-7" d="M20.37,16.76h0l-.14-.32-.15-.58-3.61-2.29h0L15,12.64l-.44.11-.27.39-1.23,1.69a.85.85,0,0,0,.88.47c.68-.06,1.24-1,1.48-1.1a4,4,0,0,1,1.27.41c1,.54,2.85,1.59,3.25,1.86a1.86,1.86,0,0,1,.45.4A.26.26,0,0,0,20.37,16.76Z"/><path class="cls-7" d="M19.31,18.21,18,17.28a.89.89,0,0,1-.47-.82l1.69,1.06h0A.91.91,0,0,1,19.31,18.21Z"/><path class="cls-7" d="M18.29,19.23l-1-.66a1.11,1.11,0,0,1-.43-.81l1.47,1h0A.56.56,0,0,1,18.29,19.23Z"/><path class="cls-7" d="M17.24,19.4a.77.77,0,0,1-.13.33c-.23-.14-.57-.35-.79-.51a.77.77,0,0,1-.34-.57Z"/><path class="cls-8" d="M25.52,14.06l-3,1.11-1.24.45,0,0a4.14,4.14,0,0,1-.72.62l-.27.17-.09-.11a1,1,0,0,0-.31-.27l-.52-.31-1-.59-.18-.11L18,15,16,13.74a.37.37,0,0,0-.25,0h-.05l-.59.21H15l-.1.07-.05.06a1.83,1.83,0,0,1-1.29,1h-.12a.9.9,0,0,1-.25,0,.25.25,0,0,1-.17-.33l.65-1.42A.72.72,0,0,1,14,13l1.76-1a.63.63,0,0,1,.38-.07l3,.3.94-.35,1.23-.45,2.84-1,1.15,3.09Z"/><polygon class="cls-8" points="11.75 12.51 9.89 16.56 8.61 15.97 7.3 15.38 9.49 11.42 10.4 11.86 11.75 12.51"/><path class="cls-7" d="M15.89,19.7l-.47-.28c-.52-.32-2.54-1.32-2.54-1.32l-.8-.65a1.39,1.39,0,0,1,1,.47l.53-.25a1,1,0,0,1,.79.81l.55-.24a.87.87,0,0,1,.44.68s.44.15.51.43A.87.87,0,0,1,15.89,19.7Z"/><path class="cls-8" d="M12.49,18.38a.46.46,0,0,1-.27-.05c-.33-.15-.63-.74-.39-.91,0,0,.13-.13.47.07a1.44,1.44,0,0,1,.4.35.59.59,0,0,1,.09.24A.32.32,0,0,1,12.49,18.38Z"/><path class="cls-7" d="M12.49,18.38a2.65,2.65,0,0,1,.21-.54.59.59,0,0,1,.09.24A.32.32,0,0,1,12.49,18.38Z"/><path class="cls-8" d="M13,19.15a.54.54,0,0,1-.41-.64,2.36,2.36,0,0,1,.27-.66.59.59,0,0,1,1,.49l-.33.72A1,1,0,0,1,13,19.15Z"/><path class="cls-8" d="M15,18.82l-.39.81a.82.82,0,0,1-.73-.08l-.06-.05a.48.48,0,0,1-.2-.44l.33-.72s.23-.45.63-.34h0A.61.61,0,0,1,15,18.82Z"/><path class="cls-8" d="M15.72,19.26c0,.22-.22.76-.22.76s-.2.14-.53,0a.6.6,0,0,1-.16-.08.53.53,0,0,1-.2-.33l.32-.66a.47.47,0,0,1,.39-.13C15.57,18.89,15.74,19.17,15.72,19.26Z"/><path class="cls-7" d="M14.58,18a1.4,1.4,0,0,0-.47.67c-.11.28-.21.6-.29.83a.48.48,0,0,1-.2-.44l.33-.72S14.18,17.89,14.58,18Z"/><path class="cls-7" d="M15.32,18.84a1.26,1.26,0,0,0-.29.49c-.09.23-.17.46-.22.63a.53.53,0,0,1-.2-.33l.32-.66A.47.47,0,0,1,15.32,18.84Z"/><path class="cls-9" d="M25.3,13.48c-2.24.75-4.82,1.64-5.05,1.78a1.79,1.79,0,0,1-.57.22l-.89-.56a1.45,1.45,0,0,0,.52-1.16,1.78,1.78,0,0,1-.73,1c-1.2-.75-2.63-1.62-2.74-1.62a5.81,5.81,0,0,0-.93.24,1.83,1.83,0,0,1-.67,1.23,4.06,4.06,0,0,1-.67.42,1.83,1.83,0,0,0,1.29-1l.05-.06,0,0h0l0,0h0l0,0h.07l.59-.21h0a.39.39,0,0,1,.26,0L18,15l.3.18,1,.59h0l.52.31a1,1,0,0,1,.31.27l.09.11.27-.17a3.51,3.51,0,0,0,.74-.65l4.28-1.56Z"/><path class="cls-9" d="M22.48,15.17l-1.24.45,0,0-1.14-3.76,1.23-.45Z"/><polygon class="cls-8" points="24.52 14.93 23.26 15.36 21.83 15.85 20.37 11.64 21.8 11.11 22.73 10.77 24.52 14.93"/><polygon class="cls-7" points="24.52 14.93 23.26 15.36 21.8 11.11 22.73 10.77 24.52 14.93"/><polygon points="27.87 8.33 27.87 14.9 24.36 16.52 23.8 15.17 23.63 14.75 23.38 14.13 22.97 13.14 22.86 12.88 22.14 11.13 22.09 11.01 22.02 10.83 24.75 9.82 27.87 8.33"/><polygon class="cls-7" points="10.4 11.86 8.61 15.97 7.3 15.38 9.49 11.42 10.4 11.86"/><polygon points="10.19 11.54 10.1 11.72 9.97 11.96 9.15 13.51 9.02 13.75 8.21 15.28 7.99 15.7 7.31 16.98 4.99 15.63 4.44 15.31 4.13 15.13 4.13 8.2 7.57 10.28 10.19 11.54"/><circle class="cls-8" cx="12.52" cy="11.41" r="0.53"/><circle class="cls-8" cx="13.68" cy="11.84" r="0.29"/><circle class="cls-8" cx="21.15" cy="16.84" r="0.29"/><circle class="cls-8" cx="19.69" cy="10.86" r="0.23"/><path class="cls-8" d="M15,21c-.2,0-.23.08-.27.28,0-.2-.07-.24-.27-.28.2,0,.23-.07.27-.27C14.73,21,14.76,21,15,21Z"/><circle class="cls-8" cx="16.13" cy="21.13" r="0.53"/><circle class="cls-8" cx="10.98" cy="17.72" r="0.43"/><circle class="cls-8" cx="18.66" cy="11.21" r="0.43"/><circle class="cls-8" cx="20.56" cy="18.09" r="0.62"/><circle class="cls-8" cx="15.87" cy="10.33" r="0.7"/><g class="cls-10"><rect class="cls-8" x="11.36" y="23.9" width="9.27" height="0.25" rx="0.08"/><path class="cls-11" d="M16,22.49l-4.1,1.26h8.2Zm-.05.18,2.82.94H18.3Z"/><path class="cls-11" d="M20.56,29.9h-.88c-.35-.06-.33-.32-.33-.64V25c0-.37,0-.49.3-.47a.08.08,0,0,0,0,0,.3.3,0,0,0,.3.3.29.29,0,0,0,.3-.3.3.3,0,0,0-.3-.3H12a.3.3,0,0,0-.3.3.29.29,0,0,0,.3.3.3.3,0,0,0,.3-.3.08.08,0,0,0,0,0c.29,0,.3.1.3.47v4.27c0,.32,0,.58-.33.64h-.86a.09.09,0,0,0-.08.08v.09a.09.09,0,0,0,.08.08h9.12a.09.09,0,0,0,.08-.08V30A.09.09,0,0,0,20.56,29.9Zm-7.65,0h-.13V24.48h.13Zm.25,0H13V24.48h.12Zm.24,0h-.12V24.48h.12Zm.25,0h-.13V24.48h.13Zm.24,0h-.12V24.48h.12Zm1,0h-.56c-.35-.06-.33-.31-.33-.62V25c0-.4.06-.49.34-.48h0a.3.3,0,0,0,.3.3.29.29,0,0,0,.3-.3h0c.29,0,.3.1.3.47v4.27C15.27,29.58,15.29,29.84,14.93,29.9Zm.61,0h-.12V24.48h.12Zm.25,0h-.12V24.48h.12Zm.25,0h-.12V24.48H16Zm.24,0h-.12V24.48h.12Zm.25,0h-.12V24.48h.12Zm1.41-.62c0,.31,0,.56-.33.62H17c-.35-.06-.34-.31-.34-.62V25c0-.4.06-.49.34-.48h0a.29.29,0,0,0,.3.3.3.3,0,0,0,.3-.3h0c.28,0,.34.08.34.48Zm.27.62h-.12V24.48h.12Zm.25,0h-.13V24.48h.13Zm.24,0h-.12V24.48h.12Zm.24,0h-.12V24.48h.12Zm.26,0h-.13V24.48h.13Z"/></g><path class="cls-8" d="M14.58,5.15l-.63-1a.17.17,0,0,0-.06-.06h-.14a.5.5,0,0,0-.49.37,3,3,0,0,0-.15,1.07,2.68,2.68,0,0,0,.16,1.06.52.52,0,0,0,.49.37h.13l0-.05.64-1h0V7a4.91,4.91,0,0,1-.89.08,1.41,1.41,0,0,1-1.09-.4,1.61,1.61,0,0,1-.36-1.11,1.86,1.86,0,0,1,.17-.81,1.21,1.21,0,0,1,.48-.52A1.5,1.5,0,0,1,13.68,4a5.4,5.4,0,0,1,.91.08v1Z"/><path class="cls-8" d="M16.5,6.68s0,0,0,.05l.31.29H15.38l.31-.29,0-.05a.35.35,0,0,0,0-.06V4.17h-.31s0,0,0,.05l-.52,1h0V4.08h2.49V5.21h0l-.51-1s0-.05,0-.05h-.31V6.62S16.49,6.67,16.5,6.68Z"/><path class="cls-8" d="M17.75,6.39a.21.21,0,0,0,.05.09l.37.54h-1l.4-.54.06-.09,0-.09.58-1.78,0-.07s0,0-.05-.07L18,4.09h1l.78,2.48a.56.56,0,0,0,.09.17L20,7H18.77l.2-.29s0,0,0-.05a.18.18,0,0,0,0-.06L18.79,6h-.92l-.11.33A.35.35,0,0,1,17.75,6.39Zm.15-.48h.86l-.42-1.35Z"/></g></g></svg>