<svg xmlns="http://www.w3.org/2000/svg" width="18.335" height="21.867" viewBox="0 0 18.335 21.867">
  <g id="shield-_1_" transform="translate(-41.586 511.945)">
    <path id="Path_2276" data-name="Path 2276" d="M50.433-511.866a3.662,3.662,0,0,0-.534.41,9.847,9.847,0,0,1-4.045,2.245,13.458,13.458,0,0,1-3.172.428c-.607,0-.821.1-1,.449-.09.167-.09.214-.09,3.164a23.991,23.991,0,0,0,.257,5.067c.774,4.866,3.412,8.025,8.222,9.838.714.269.705.269,1.727-.137a14.7,14.7,0,0,0,3.737-2.129,13.835,13.835,0,0,0,1.873-1.937,12.468,12.468,0,0,0,2.266-5.678,23.817,23.817,0,0,0,.252-5.024c0-2.984,0-2.993-.094-3.172a.709.709,0,0,0-.475-.393,7.412,7.412,0,0,0-.859-.064,10.314,10.314,0,0,1-6.884-2.655C51.074-511.943,50.8-512.037,50.433-511.866Zm3.985,8.025c.278.3.509.556.517.573s-1.077,1.06-2.407,2.317c-2.458,2.313-2.647,2.471-2.95,2.471s-.436-.115-1.667-1.479l-1.266-1.407c-.077-.086-.064-.1.487-.586.312-.274.577-.5.594-.513s.445.449.953,1.013.949,1.03.975,1.035.983-.885,2.125-1.975,2.086-1.984,2.1-1.984S54.136-504.136,54.418-503.841Z" transform="translate(0)" fill="#fff"/>
  </g>
</svg>
