<?xml version="1.0" encoding="UTF-8"?><svg id="a" xmlns="http://www.w3.org/2000/svg" viewBox="0 0 274.04 345.62"><defs><style>.b{fill:#fff;}</style></defs><path class="b" d="M51.02,249.65c-8.65,0-16.74,.17-24.82-.07-4.33-.13-6.84-2.75-7.56-7.4-2.27-14.66-4.42-29.33-6.6-44-3.89-26.26-7.71-52.53-11.68-78.78-1.44-9.54,1.35-13.04,10.97-13.04,83.83,0,167.67,0,251.5,0,9.4,0,12.27,3.55,10.89,12.8-4.97,33.15-9.82,66.32-14.73,99.49-1.19,8.01-2.36,16.03-3.65,24.03-.62,3.87-2.99,6.63-6.9,6.78-8.32,.31-16.66,.09-25.48,.09v-4.17c0-16.47,.02-32.93,0-49.4-.02-14.5-8.17-22.93-22.61-23.84-18.41-1.17-35.9-5.06-51.29-16.23-7.52-5.46-16.32-5.55-23.87-.07-15.62,11.33-33.35,15.19-52.03,16.31-13.63,.81-22.09,9.57-22.12,23.19-.04,16.59,0,33.18,0,49.78,0,1.36,0,2.72,0,4.53Z"/><path class="b" d="M65.54,227.3c0-10.35-.02-20.7,0-31.05,.02-7.05,2.23-9.35,9.31-9.75,16.7-.95,32.88-4.05,47.77-12.09,3.28-1.77,6.37-3.9,9.47-5.98,3.28-2.19,6.54-2.35,9.72-.04,16.85,12.26,36.16,16.78,56.5,18.04,8.12,.5,10.05,2.41,10.05,10.51,0,16.96-.18,33.92,.04,50.88,.46,36.43-14.86,64.42-45.02,84.36-7.14,4.72-14.86,8.59-22.49,12.51-1.78,.91-4.63,1.27-6.37,.5-22.63-10-42.51-23.56-55.7-45.17-9.32-15.28-13.36-32.07-13.29-49.9,.03-7.61,0-15.21,0-22.82Zm71.58,61.74c1.99,0,3.99,.03,5.98,0,5.11-.09,7.21-2.55,6.47-7.66-.8-5.54-1.53-11.1-2.56-16.6-.86-4.56-.32-8.11,3.27-11.78,6.82-6.96,5.97-18.23-1.11-24.82-6.93-6.46-17.91-6.26-24.69,.44-6.78,6.7-7.4,17.83-.62,24.57,3.58,3.56,3.89,7.06,3.11,11.44-1,5.63-1.78,11.31-2.55,16.98-.66,4.89,1.48,7.34,6.35,7.43,2.12,.04,4.24,0,6.35,0Z"/><path class="b" d="M36.91,91.92H20.48c-.06-1.35-.17-2.66-.17-3.97-.01-25.94-.01-51.88,0-77.81C20.3,2.77,23.06,.06,30.53,.06c17.71,0,35.42,.08,53.12-.06,4.83-.04,8.07,1.77,10.07,6.16,1.44,3.17,3.25,6.17,4.72,9.33,4.79,10.25,12.74,14.95,24.11,14.9,39.9-.16,79.81-.07,119.71-.05,1.74,0,3.51,0,5.22,.28,3.57,.6,6.26,3.28,6.27,6.88,.08,17.95-.03,35.9-.08,53.85,0,.09-.14,.19-.38,.48h-16.16c0-5.89,0-11.59,0-17.29,0-3.49,.1-6.99-.04-10.47-.35-8.83-6.28-14.61-15.11-14.65-15.59-.06-31.18-.02-46.76-.02-40.53,0-81.06,0-121.58,0-11.14,0-16.7,5.6-16.72,16.82-.01,8.45,0,16.9,0,25.69Z"/><path class="b" d="M51.66,91.8v-27.75H222.29v27.75H51.66Z"/></svg>