<?xml version="1.0" encoding="UTF-8"?><svg id="a" xmlns="http://www.w3.org/2000/svg" viewBox="0 0 387.41 391.05"><defs><style>.b{fill:#fff;}</style></defs><path class="b" d="M358.2,383.32H177.74c.77-.63,1.53-1.28,2.32-1.87,22.61-16.98,37.9-39.04,45.51-66.27,1.96-7.02,3.03-14.29,4.56-21.7,1.27,0,2.63,0,3.98,0,29.33,0,58.65-.02,87.98,.03,3.8,0,7.23-.76,9.82-3.65,3.19-3.57,4.07-7.73,2.04-12.14-2.15-4.67-6.03-6.71-11.14-6.71-29.57,.02-59.15,.01-88.72,.01h-4.47c-1.48-15.96-5.92-30.62-12.88-44.92,16.09,0,31.55,0,47.02,0,19.59,0,39.18-.03,58.78,.02,5.25,.01,9.28-1.97,11.46-6.81,3.48-7.69-2.26-15.65-11.26-15.66-38.68-.03-77.37-.07-116.05,.09-3.65,.01-5.85-1.25-8.19-3.82-21.65-23.76-48.4-37.62-80.52-40.48-7.37-.66-14.86-.1-22.61-.1v-4.21c0-39.8,0-79.6,0-119.4C95.38,14.33,109.64,.01,130.99,0c51.66-.01,103.32,0,154.99,0,1.31,0,2.62,0,4.08,0V4.66c0,26.45,0,52.9,0,79.35,0,9.03,4.27,13.31,13.25,13.31,26.58,0,53.16,0,79.74,0h4.35v4.77c0,39.43,0,78.85,0,118.28,0,42.79,.03,85.59-.02,128.38-.02,15.18-8.67,27.68-22.42,32.58-2.21,.79-4.51,1.33-6.77,1.99Zm-117.11-224.6c27.18,0,54.37-.02,81.55,.02,5.26,0,9.25-2.04,11.39-6.89,3.41-7.71-2.35-15.57-11.37-15.58-48.01-.02-96.02-.01-144.03-.01-6.48,0-12.97-.06-19.45,.02-4.97,.07-8.6,2.45-10.53,7.02-3.21,7.61,2.46,15.39,11.25,15.4,27.06,.04,54.12,.02,81.18,.02Z"/><path class="b" d="M379.11,74.73h-66.33V8.42c21.89,21.88,44.2,44.19,66.33,66.31Z"/><path class="b" d="M104.66,181.73C46.86,181.73,0,228.59,0,286.39s46.86,104.66,104.66,104.66,104.66-46.86,104.66-104.66-46.86-104.66-104.66-104.66Zm24.76,75.3c1.47-3.6,2.97-7.18,4.46-10.78,.69-1.66,1.38-3.31,2.06-4.97,.36-.89,.92-1.53,1.95-1.12,1.05,.42,1.13,1.22,.71,2.22-2.15,5.12-4.24,10.27-6.41,15.38-.26,.62-.91,1.07-1.18,1.37-1.54,.04-2.07-.9-1.59-2.09Zm-8.93-15.87c0-.13,0-.26,0-.38,.05-.95,.5-1.57,1.49-1.54,.97,.02,1.3,.7,1.3,1.57,0,2.82,0,5.64,0,8.46h0c0,2.69,0,5.38,0,8.07,0,.95-.2,1.77-1.34,1.78-1.16,0-1.49-.77-1.48-1.8,.01-5.38,0-10.76,0-16.14Zm-14.59-.99c.94-.41,1.55,.11,1.91,.97,2.21,5.33,4.43,10.66,6.62,16,.46,1.12-.12,2.03-1.57,1.98-.25-.24-.91-.6-1.14-1.14-2.22-5.23-4.37-10.5-6.53-15.75-.36-.87-.19-1.66,.71-2.05Zm-26.95,91.22c-2.21,.62-4.44,1.2-5.87,1.58-4.05-.03-6.57-1.85-7.41-4.93-2.96-10.8-5.9-21.6-8.79-32.42-1.07-4,.96-7.4,4.93-8.51,1.69-.47,3.37-.96,5.06-1.41,3.91-1.04,7.76,1.14,8.81,5.03,2.84,10.57,5.66,21.14,8.44,31.72,1.15,4.37-.83,7.74-5.17,8.95Zm67.74-48.52c-3.91,1.07-7.85,2.05-11.94,3.11,2.33,2.03,3.64,4.46,3.27,7.49-.37,3.04-2.11,5.15-4.9,6.4,5.48,6.83,3.92,12.05-4.83,15,.49,.31,.87,.46,1.13,.72,4.17,4.08,2.78,11.24-2.8,12.96-7.26,2.24-14.59,4.33-22.25,4.91-5.54,.42-10.79-.88-16-2.49-.93-.29-1.87-.58-2.95-.92,2.14-3.27,1.62-6.59,.68-10.04-2.69-9.81-5.26-19.66-7.86-29.5-.59-2.24-1.51-4.27-3.63-5.9,1.57-.75,2.94-1.43,4.34-2.07,1.24-.57,2.52-1.06,3.77-1.63,2.74-1.25,4.17-3.39,4.03-6.41-.12-2.6-.41-5.2-.67-7.79-.44-4.36-.19-8.58,2.57-12.25,2.08-2.77,4.97-3.76,8.28-3.23,3.12,.5,4.89,2.59,5.7,5.57,1.79,6.59,3.59,13.18,5.43,19.92,2.28-.61,4.58-1.22,6.89-1.84,9.21-2.47,18.41-4.96,27.62-7.42,4.52-1.21,8.75,1.19,9.9,5.56,1.16,4.39-1.27,8.59-5.77,9.82Z"/></svg>