<?xml version="1.0" encoding="UTF-8"?><svg id="a" xmlns="http://www.w3.org/2000/svg" viewBox="0 0 408.91 408.98"><defs><style>.b{fill:#fff;}</style></defs><path class="b" d="M0,240.33C0,170.87,0,101.4,0,31.94c.21-.62,.52-1.23,.63-1.87C2.13,21.21,6.42,14.01,13.28,8.21,18.72,3.6,25.21,1.57,31.94,0,146.91,0,261.89,0,376.86,0c.22,.14,.44,.37,.67,.4,18.6,2.54,31.46,18.33,31.37,38.51-.29,65.57-.11,131.14-.11,196.71v4.71H0Zm289.71-76.78c3.36,4.1,6.49,7.86,9.56,11.67,2.86,3.56,6.5,5.33,11.09,5.23,4.12-.08,8.25-.02,12.37-.02,5.33,0,9.37-2.12,12.34-6.68,7.19-11.03,14.47-22,21.9-32.86,3.98-5.82,3.81-11.2-.14-16.95-7.15-10.41-14.2-20.9-21-31.54-3.5-5.47-7.99-7.88-14.54-7.86-38.45,.16-76.91,.03-115.37,.17-3.46,.01-5.51-1.1-7.58-3.75-13.92-17.82-32.3-28.29-54.57-31.38-44.84-6.22-85.88,24.14-93.79,68.97-8.6,48.73,28.17,95.21,77.69,97.55,28.86,1.36,52.66-9.53,70.8-32.17,2.03-2.53,3.97-3.68,7.27-3.57,7.71,.26,15.44-.1,23.15,.14,5.71,.18,9.99-1.9,13.37-6.42,2.67-3.57,5.6-6.93,8.56-10.55,3.32,4.08,6.22,7.72,9.2,11.29,6.01,7.19,14.44,7.23,20.44,.07,2.99-3.56,5.88-7.21,9.25-11.34Z"/><path class="b" d="M0,264.28H408.26c2.51,19.64-2.49,35.82-20.11,44.13-5.32,2.51-11.77,3.57-17.72,3.62-37.79,.31-75.58,.16-113.37,.16h-4.6v24.43h-95.87v-24.43h-5.09c-37.52,0-75.05-.33-112.57,.13-19.83,.24-35.07-12.48-38.24-29.43-.12-.63-.46-1.23-.69-1.84v-16.77Z"/><path class="b" d="M204.38,408.8c-30.32,0-60.65-.39-90.96,.17-14.29,.27-19.35-7.64-15.5-21.16,4.67-16.39,17.74-26.77,34.88-26.84,47.74-.2,95.49-.23,143.23,.01,19.53,.1,33.73,13.62,35.94,33.13,1,8.83-4.1,14.66-13.03,14.67-31.52,.04-63.04,.02-94.56,.02Z"/><path class="b" d="M270.27,149.45c-3.27-4.01-6.25-7.74-9.31-11.41-5.83-7-14.29-7.08-20.16-.12-4.46,5.29-8.85,10.64-13.07,16.1-1.46,1.89-3,2.57-5.36,2.53-7.98-.14-15.97,.22-23.94-.14-6.99-.32-11.84,2.26-15.55,8.22-7.58,12.19-18.51,20.2-32.12,24.82-33.65,11.41-71.51-11.32-77.18-46.49-6.55-40.56,26.81-75.19,67.28-69.57,17.34,2.41,31.37,10.91,40.95,25.6,4.6,7.05,10,9.83,18.4,9.75,37.9-.35,75.81-.12,113.72-.22,2.89,0,4.55,.89,6.07,3.31,3.88,6.19,7.98,12.25,12.15,18.25,1.26,1.81,1.29,3.08,.01,4.91-4.4,6.33-8.57,12.81-12.88,19.21-2.19,3.25-3.56,3.29-6.07,.23-4.47-5.45-8.83-10.99-13.36-16.39-6-7.15-14.44-7.03-20.42,.18-2.96,3.58-5.88,7.2-9.17,11.23Zm-173.62-17.49c-.56,19.34,15.32,35.79,35.21,36.47,19.31,.66,35.78-15.16,36.56-35.1,.76-19.39-15.46-36.19-35.4-36.68-19.36-.47-35.8,15.49-36.37,35.31Z"/><path class="b" d="M144.49,132.42c.07,6.51-5.31,12-11.83,12.07-6.51,.07-12-5.31-12.07-11.83-.07-6.51,5.31-12,11.83-12.07,6.51-.07,12,5.31,12.07,11.83Z"/></svg>