<svg xmlns="http://www.w3.org/2000/svg" width="21.397" height="21.711" viewBox="0 0 21.397 21.711">
  <g id="Group_1276" data-name="Group 1276" transform="translate(-2391.889 -5537)">
    <path id="Path_2277" data-name="Path 2277" d="M176.224,110.163a.675.675,0,0,1-.637.487h-.455a6.918,6.918,0,0,0,0,2.7h.455a.675.675,0,0,1,.637.487,6.022,6.022,0,0,0,.4.952.675.675,0,0,1-.106.8l-.323.323a7.04,7.04,0,0,0,1.907,1.907l.323-.323a.675.675,0,0,1,.8-.106,6.023,6.023,0,0,0,.952.4.675.675,0,0,1,.487.637v.455a6.92,6.92,0,0,0,2.7,0v-.455a.675.675,0,0,1,.487-.637,6.023,6.023,0,0,0,.952-.4.675.675,0,0,1,.8.106l.323.323a7.04,7.04,0,0,0,1.907-1.907l-.323-.323a.675.675,0,0,1-.106-.8,6.019,6.019,0,0,0,.4-.952.675.675,0,0,1,.637-.487h.455a6.918,6.918,0,0,0,0-2.7h-.455a.675.675,0,0,1-.637-.487,6.026,6.026,0,0,0-.4-.952.676.676,0,0,1,.106-.8l.323-.323h0a7.041,7.041,0,0,0-1.907-1.907l-.323.323a.675.675,0,0,1-.8.106,6.023,6.023,0,0,0-.952-.4.675.675,0,0,1-.487-.637v-.455a6.92,6.92,0,0,0-2.7,0v.455a.675.675,0,0,1-.487.637,6.024,6.024,0,0,0-.952.4.675.675,0,0,1-.8-.106l-.323-.323a7.04,7.04,0,0,0-1.907,1.907l.323.323h0a.675.675,0,0,1,.106.8A6.028,6.028,0,0,0,176.224,110.163ZM182,107.446a4.552,4.552,0,0,1,1.751,8.755v-3.007l.25-.25a1.061,1.061,0,1,0-.5-.5l-.353.353h0a.35.35,0,0,0-.1.248v3.375a4.549,4.549,0,0,1-.7.109v-5.3a1.051,1.051,0,1,0-.7,0v5.3a4.551,4.551,0,0,1-.7-.109v-3.375a.35.35,0,0,0-.1-.248l-.353-.353h0a1.061,1.061,0,1,0-.5.5l.25.25V116.2A4.552,4.552,0,0,1,182,107.446Z" transform="translate(2220.536 5435.857)" fill="#fff"/>
    <path id="Path_2278" data-name="Path 2278" d="M131.374,18.523l-1.008.033h0A9.771,9.771,0,0,0,122,9.912a1.4,1.4,0,0,0-2.752,0,9.807,9.807,0,0,0-8.187,7.525l.683.155h0a9.1,9.1,0,0,1,7.559-6.98,1.392,1.392,0,0,0,2.639,0,9.072,9.072,0,0,1,7.718,7.969l-1.046.035,1.469,2.71Z" transform="translate(2281.913 5528.243)" fill="#fff"/>
    <path id="Path_2279" data-name="Path 2279" d="M93.16,266.935a1.4,1.4,0,0,0,2.752,0,9.764,9.764,0,0,0,8.028-6.916l-.672-.2a9.066,9.066,0,0,1-7.412,6.416,1.392,1.392,0,0,0-2.639,0,9.089,9.089,0,0,1-7.615-7.282l.982-.075-1.556-2.594-1.141,2.8,1.014-.078a9.79,9.79,0,0,0,8.261,7.927Z" transform="translate(2308.003 5290.622)" fill="#fff"/>
  </g>
</svg>
