<?xml version="1.0" encoding="UTF-8"?><svg id="a" xmlns="http://www.w3.org/2000/svg" viewBox="0 0 419.19 512"><defs><style>.b{fill:#fff;}</style></defs><path class="b" d="M129.58,0h207.04c18.69,7.51,23.16,14.21,23.16,34.73,0,129.33,0,258.66,0,388,0,19.97-11.32,31.3-31.26,31.3-99.02,.01-198.03,.01-297.05,0-19.96,0-31.44-11.34-31.45-31.21-.03-95.83-.01-191.66,0-287.5,0-1.77,.16-3.53,.27-5.75,2.64,0,4.78,0,6.92,0,26.5,.06,53.01,.18,79.51,.17,26.18-.01,42.89-16.69,42.9-42.74,.01-29-.02-58-.03-87Zm56.51,262.96c-26.49,0-52.98,0-79.47,0-6.83,0-13.67-.17-20.49,.1-7.02,.28-12.28,5.69-12.61,12.44-.35,6.94,4.09,12.61,11.03,13.87,1.95,.35,3.97,.37,5.97,.37,63.48,.02,126.95,.02,190.43,0,1.99,0,4.02-.03,5.96-.4,6.96-1.32,11.25-6.94,10.85-13.98-.42-7.47-6.13-12.38-14.7-12.39-32.32-.04-64.64-.02-96.96-.02Zm-.68-45.77c31.65,0,63.3,0,94.95,0,2,0,4.01,.05,5.99-.18,6.58-.78,11.38-6.32,11.44-13.01,.05-6.76-4.57-12.26-11.21-13.16-2.13-.29-4.32-.26-6.48-.26-62.97-.01-125.93-.01-188.9,0-2.16,0-4.35-.02-6.48,.27-6.41,.87-11.08,6.23-11.21,12.68-.17,8.22,5.63,13.64,14.97,13.65,32.32,.06,64.63,.02,96.95,.02Zm-48.83,140.78c15.64,0,31.28,.04,46.93-.01,9.42-.03,15.35-5.21,15.42-13.3,.08-8.13-5.86-13.51-15.17-13.52-31.78-.04-63.57-.08-95.35,.09-3.01,.02-6.34,.88-8.96,2.35-5.11,2.86-7.15,9.25-5.46,14.78,1.8,5.89,6.77,9.54,13.66,9.58,16.31,.1,32.62,.03,48.92,.04Z"/><path class="b" d="M82.57,512c-11.42-3.46-20.17-10.04-22.46-22.25-1.14-6.1-.2-12.58-.2-19.71,1.76,0,3.84,0,5.92,0,88.15,0,176.3,.02,264.44-.01,22.66,0,40.4-14.18,44.75-35.85,.84-4.2,.82-8.61,.82-12.93,.04-118.79,.03-237.57,.03-356.36v-6.41c7.14,0,13.87-.85,20.31,.18,12.75,2.03,21.5,12.2,22.73,25.03,.25,2.65,.26,5.32,.26,7.99,.01,128.62,.01,257.23,.01,385.85,0,20.14-4.98,27.43-23.56,34.48H82.57Z"/><path class="b" d="M102.58,0c9.34,3.72,10.98,6.17,10.98,16.39,0,23.8,.02,47.61,0,71.41-.02,16.01-9.77,25.8-25.85,25.84-24.31,.06-48.61-.02-72.92,.04-5.95,.01-10.93-1.5-13.38-7.47-2.44-5.94-.04-10.48,4.21-14.71C34.16,63.08,62.58,34.52,91.19,6.16c2.6-2.58,6.24-4.13,9.39-6.16h2Z"/></svg>