<?xml version="1.0" encoding="UTF-8"?><svg id="a" xmlns="http://www.w3.org/2000/svg" viewBox="0 0 367.25 366.82"><defs><style>.b{fill:#fff;}</style></defs><path class="b" d="M254.83,151.7c.09,1.9,.22,3.49,.23,5.08,.01,32.69,.04,65.37,0,98.06-.01,9.85-6.55,16.59-16.35,16.61-37.06,.08-74.12,.08-111.18,0-9.59-.02-16.2-6.79-16.21-16.37-.04-47.66-.04-95.31,0-142.97,0-9.2,6.57-16.05,15.68-16.11,23.46-.14,46.92-.05,70.37-.04,.37,0,.73,.1,1.55,.23,.06,1.25,.16,2.56,.17,3.87,.01,13.72,0,27.45,.01,41.17,0,7.94,2.58,10.46,10.61,10.47,13.73,.01,27.45,0,41.18,0h3.94Zm-87.58,87.96c7.73,0,15.45,.1,23.18-.03,5.24-.09,8.55-3.27,8.62-7.87,.07-4.79-3.29-8.12-8.71-8.15-15.45-.09-30.9-.14-46.35,.09-2.24,.03-4.86,1.27-6.59,2.77-2.42,2.1-2.75,5.2-1.42,8.26,1.46,3.36,4.23,4.85,7.72,4.89,7.85,.09,15.7,.03,23.55,.04Zm.03-64.01c7.72,0,15.45-.02,23.17,.01,3.39,.01,6.09-1.14,7.73-4.23,2.97-5.6-1.03-11.63-7.87-11.66-15.32-.07-30.65-.05-45.97-.01-5.39,.01-8.98,3.19-9.05,7.84-.07,4.68,3.45,7.98,8.82,8.03,7.72,.07,15.45,.02,23.17,.02Zm.03,16.11c-7.72,0-15.45-.05-23.17,.02-5.38,.05-8.91,3.32-8.85,7.99,.06,4.64,3.67,7.87,9.02,7.88,15.2,.04,30.4,.03,45.59,0,5.71-.01,9.18-3.13,9.14-8.06-.04-4.82-3.34-7.77-8.94-7.82-7.6-.06-15.2-.02-22.8-.01Z"/><path class="b" d="M41.91,66.1l-13.19-12.49c18.64-2.08,36.78-4.11,55.49-6.21-2.05,18.54-4.07,36.74-6.08,54.95l-1.02,.63c-3.25-3.85-6.5-7.69-9.82-11.61-37.78,44.67-48.02,121.69-3.03,181.67,48.18,64.24,141.01,79.88,209.1,29.01-.21,2.53-.15,4.58-.59,6.52-3.02,13.39,7.86,23.36,20.23,20.54,.35-.08,.74-.01,1.13-.01-16.3,14.87-57.55,36.88-106.21,37.68-39.44,.65-75.8-9.7-108.17-32.3C36.01,303.95,9.63,262.1,2.02,209.22c-7.61-52.88,6.39-100.22,39.89-143.12Z"/><path class="b" d="M98.65,61.25c.31-2.68,.55-4.75,.8-6.83,1.88-15.46-3.09-21.61-19.46-22.82C112.17,10.23,146.69-.28,184.41,0c37.71,.29,72.17,11.24,103.25,32.62,83.74,57.61,106.96,176.56,42.83,261.81,4.33,4.18,8.7,8.4,13.07,12.63l-.34,1.06c-18.19,2.01-36.38,4.02-55.07,6.09,2.05-18.69,4.04-36.83,6.12-55.7,3.44,3.96,6.5,7.48,9.68,11.13,32.3-42.54,41.81-113.22,1.81-171.04-15.08-21.79-34.68-38.43-58.69-49.74-23.99-11.3-49.25-15.86-75.67-13.72-26.39,2.13-50.47,10.94-72.75,26.11Z"/><path class="b" d="M215.4,135.5v-30.26c10.06,10.15,20.16,20.34,29.99,30.26h-29.99Z"/></svg>