<?xml version="1.0" encoding="UTF-8"?><svg id="a" xmlns="http://www.w3.org/2000/svg" viewBox="0 0 99.91 104.8"><defs><style>.b{fill:#fff;}</style></defs><path class="b" d="M65.55,104.8H0V26.21H65.55V104.8ZM14.09,48.38H47.74v-2.59H14.09v2.59Zm0,36.73H47.74v-2.58H14.08v2.58Zm.02-12.13h1.16c7.88,0,15.77,0,23.65,0,.2,0,.45,.07,.61-.02,.22-.12,.51-.34,.53-.54,.07-.7,.03-1.41,.03-2.15H14.1v2.72Zm25.92-14.98H14.12v2.67h25.9v-2.67Z"/><path class="b" d="M71.29,21.8H11.55v-4.36H76.94V95.98h-5.65V21.8Z"/><path class="b" d="M94.28,4.3H34.48V0H99.91V78.55h-5.63V4.3Z"/><path class="b" d="M88.44,87.31h-5.63V13.07H23.01v-4.32H88.44V87.31Z"/></svg>