<?xml version="1.0" encoding="UTF-8"?><svg id="a" xmlns="http://www.w3.org/2000/svg" viewBox="0 0 336.9 383.33"><defs><style>.b{fill:#fff;}</style></defs><path class="b" d="M241.09,383.33c-5.57-1.21-11.23-2.13-16.71-3.69-39.21-11.13-65.01-48.49-62.61-90.44,2.22-38.88,33.05-72.99,71.99-79.66,49.34-8.46,94.91,24.58,102.24,74.12,7.08,47.86-28.12,93.52-76.3,98.99-.97,.11-1.92,.45-2.88,.68h-15.73Zm-16.75-97.96c-5.59,5.57-10.77,10.73-15.46,15.4,10.36,10.35,20.97,20.94,31.04,31,16.47-16.47,33.28-33.27,49.59-49.57-4.85-4.87-10-10.04-15.61-15.67-11.25,11.25-22.75,22.76-34.33,34.34-5.12-5.21-10.26-10.44-15.22-15.5Z"/><path class="b" d="M218.15,189.81c-68.53,19.36-103.41,103.19-59.73,168.54H.26c-.07-.96-.2-2.03-.2-3.11,0-47.16-.14-94.33,.04-141.49,.14-38.9,27-71.7,64.96-80.07,2.83-.62,4.24,.08,5.8,2.35,8.86,12.83,17.94,25.5,26.76,38.35,1.24,1.8,2.03,4.3,2.04,6.48,.13,29.57,.09,59.14,.09,88.71v4.67h22.31c.07-1.47,.2-2.91,.2-4.35,.01-29.57-.04-59.14,.1-88.71,.01-2.3,.87-4.92,2.17-6.82,8.67-12.66,17.66-25.09,26.31-37.75,1.92-2.81,3.64-3.58,6.99-2.73,29.76,7.54,49.75,25.71,60.07,54.58,.12,.35,.15,.73,.26,1.35Zm-168.93,17.59v24.42h24.41v-24.42h-24.41Z"/><path class="b" d="M177,65.91c.04,36.39-29.41,65.92-65.8,65.97-36.55,.05-66.26-29.6-66.18-66.05C45.09,29.59,74.77,.02,111.09,0c36.31-.02,65.87,29.54,65.91,65.91Z"/></svg>