<?xml version="1.0" encoding="UTF-8"?><svg id="a" xmlns="http://www.w3.org/2000/svg" viewBox="0 0 383.26 330.27"><defs><style>.b{fill:#fff;}</style></defs><path class="b" d="M383.26,117.26v184.14c-.15,.19-.39,.36-.44,.58-4.96,19.18-16.61,28.28-36.28,28.29-95.43,0-190.86,0-286.29,0-1.44,0-2.87,0-5.06,0,5.25-9.63,4.68-19.4,4.67-29.11-.02-59.13,.13-118.26-.14-177.39-.05-10.2,4.97-14.98,14.79-14.96,98.05,.21,196.1,.17,294.15,.03,6.9-.01,11.8,2.03,14.6,8.43Zm-224.23,145.77c0-3.15,.18-6.12-.04-9.07-.46-6.29-5.33-10.84-11.27-10.74-5.98,.1-10.78,4.7-10.98,11.02-.22,6.85-.24,13.72,.01,20.57,.24,6.47,4.92,10.84,11.48,10.84,46.52,.04,93.04,.04,139.56,0,6.29,0,11.14-4.36,11.42-10.56,.32-7.09,.33-14.23-.01-21.32-.29-6.17-5.63-10.76-11.47-10.55-6.14,.22-10.7,5.06-10.84,11.57-.06,2.7,0,5.41,0,8.24h-117.85Zm47.65-61.72l-.94,.44c-4.61-4.72-9.16-9.51-13.86-14.14-4.96-4.88-11.87-4.99-16.37-.42-4.55,4.61-4.37,11.33,.62,16.36,11.16,11.25,22.35,22.46,33.61,33.61,4.87,4.82,11.5,4.88,16.36,.08,11.36-11.22,22.65-22.51,33.88-33.87,4.72-4.78,4.82-11.67,.48-16.12-4.47-4.6-11.4-4.53-16.37,.3-4.21,4.08-8.29,8.3-12.45,12.42-.62,.61-1.4,1.07-2.5,1.89,0-15.98,.02-31.32,0-46.65-.01-7.66-4.48-12.6-11.27-12.56-6.7,.04-11.15,5.09-11.18,12.74-.03,6.86,0,13.72,0,20.58,0,8.45,0,16.89,0,25.34Z"/><path class="b" d="M358.99,86.48c-1.74,0-3.34,0-4.93,0-93.81,0-187.63,0-281.44,0-15.9,0-28.52,8.34-33.18,22.44-1.42,4.28-1.94,9.04-1.95,13.58-.12,62.38-.1,124.75-.05,187.13,0,4.9-.96,9.41-3.99,13.33-4.77,6.16-12.81,8.72-20.08,6.44-7.39-2.32-12.76-9.13-13.29-16.89-.09-1.37-.05-2.74-.05-4.12C0,210.34,0,112.29,0,14.23,0,3.98,3.95,.07,14.29,.07,64.94,.06,115.59,.11,166.24,0c5.53-.01,9.73,1.76,13.54,5.77,11.95,12.57,24.17,24.86,36.18,37.37,1.89,1.97,3.78,2.75,6.51,2.74,40.29-.08,80.59,.15,120.88-.19,11.15-.09,16.78,3.83,16.06,16.29-.45,7.71-.1,15.46-.12,23.2,0,.24-.11,.48-.3,1.29Z"/></svg>