<?xml version="1.0" encoding="UTF-8"?><svg id="a" xmlns="http://www.w3.org/2000/svg" viewBox="0 0 383.37 383.45"><defs><style>.b{fill:#fff;}</style></defs><path class="b" d="M0,336.29c2.53-9.6,5.31-19.13,7.52-28.8,3.46-15.2,10.5-28.03,23.82-36.61,4.65-3,9.88-5.33,15.13-7.13,19.07-6.56,38.24-12.87,57.44-19.06,5.18-1.67,9.11-4.71,10.61-9.68,2.21-7.34,3.62-14.93,5.08-22.46,.21-1.09-.91-2.73-1.84-3.7-6.87-7.14-13.48-14.59-16.98-23.94-2.02-5.37-1.14-12.14-3.97-16.81-2.9-4.79-6.75-9.04-8.22-14.62-1.77-6.73-3.38-13.51-4.93-20.3-1.57-6.88,.74-12.7,5.01-18.05,1.06-1.32,1.82-3.24,1.9-4.93,.5-10.71,.79-21.44,1.11-32.16,.28-9.41,2.85-18.24,7.24-26.46C112.89,25.37,133.32,6.74,163.19,1.47c23.63-4.17,45.96,.33,65.06,16.04,5.56,4.57,9.8,10.25,12.72,16.89,.47,1.08,1.2,2.26,2.14,2.88,10.73,7.15,15.76,17.73,16.56,30.01,.92,14.04,.7,28.16,.82,42.25,.02,2.51,.6,4.38,2.32,6.32,3.17,3.59,5.36,7.71,5.39,12.8,.01,2.57-.89,3.69-3.29,4.5-20.77,6.98-41.5,14.1-62.25,21.16-3.89,1.33-7.78,2.64-11.68,3.94-18.43,6.1-30.63,21.16-31.07,40.59-.55,24.31-.52,48.66,.24,72.96,.88,28.28,11.43,53.33,28.06,75.97,.72,.98,1.41,1.98,2.63,3.67-2.06,0-3.47,0-4.89,0-56.89,0-113.79-.09-170.68,.1-7.4,.02-12.49-2.36-15.27-9.27v-5.99Z"/><path class="b" d="M284.53,383.45c-15.36-7.24-29.91-15.82-43.12-26.55-19.08-15.49-34.65-33.68-43.37-57.04-4.04-10.83-6.28-22.04-6.32-33.62-.08-21.57-.04-43.15-.02-64.72,0-6.84,2.74-10.6,9.25-12.82,27.1-9.24,54.22-18.44,81.3-27.73,3.6-1.23,6.97-1.24,10.56,0,27.09,9.28,54.21,18.45,81.3,27.71,6.69,2.29,9.25,6.04,9.25,13.22,.02,20.7,0,41.4,0,62.1,0,28.31-10.77,52.38-29.19,73.3-17.4,19.76-38.57,34.47-62.44,45.39-.43,.2-.81,.51-1.21,.76h-5.99Zm-3.26-110.81c-2.65-2.27-5.02-4.3-7.38-6.32-2.46-2.11-4.91-4.24-7.4-6.3-7.45-6.17-17.18-5.61-23.04,1.29-5.92,6.97-5.01,16.59,2.3,22.95,8.84,7.68,17.74,15.31,26.69,22.88,8.05,6.81,17.7,5.8,24.25-2.45,4.26-5.37,8.48-10.77,12.72-16.16,10.09-12.84,20.25-25.62,30.24-38.53,7.33-9.47,3.34-22.29-7.8-25.59-6.57-1.94-12.9,.32-17.75,6.48-10.88,13.79-21.71,27.61-32.82,41.75Z"/></svg>