<?xml version="1.0" encoding="UTF-8"?><svg id="a" xmlns="http://www.w3.org/2000/svg" viewBox="0 0 408.82 359.4"><defs><style>.b{fill:#fff;}</style></defs><path class="b" d="M408.82,103.88v223.56c-.2,.49-.48,.97-.57,1.48-3.53,18.68-17.53,30.43-36.78,30.44-111.61,.05-223.23,.06-334.84,0-21.31-.01-36.55-15.19-36.57-36.45C-.02,227.65-.04,132.4,.17,37.15c.01-5.53,1.31-11.51,3.66-16.51C10.41,6.63,22.25,.17,37.53,.12,64.53,.01,91.54,.28,118.54,0c12.89-.13,23.41,4.17,32.43,13.4,17.11,17.51,34.67,34.56,51.79,52.06,4.53,4.63,9.35,6.62,15.85,6.6,50.68-.19,101.37-.09,152.06-.12,12.76,0,23.73,4.19,30.95,14.93,3.38,5.02,4.86,11.31,7.2,17.02ZM250.83,246.67c3.13,3.86,5.95,7.36,8.81,10.84,6.38,7.78,14.88,7.82,21.24,.07,2.91-3.54,5.77-7.11,8.86-10.91,2.78,3.41,5.39,6.26,7.6,9.4,3.86,5.48,8.81,8.19,15.63,7.56,3.43-.32,6.92,.01,10.37-.08,4.82-.12,8.61-2.01,11.35-6.19,7.22-11.01,14.62-21.9,21.93-32.85,4.61-6.9,4.63-10.73,.08-17.57-6.92-10.41-14.02-20.7-20.73-31.24-3.57-5.61-8.14-8.06-14.86-8.03-38.72,.18-77.44,.07-116.16,.13-2.47,0-4.01-.75-5.74-2.59-5.44-5.79-10.62-12.1-17-16.68-26.18-18.76-54.73-22.42-84.09-9.04-38.71,17.64-57.51,57.66-45.99,98.65,9.25,32.92,31.79,53.51,65.52,59.67,33.07,6.03,60.37-5.46,81.49-31.53,1.56-1.93,3.06-2.85,5.64-2.79,8.11,.19,16.24-.09,24.35,.12,5.55,.15,9.74-1.88,13.05-6.26,2.7-3.58,5.64-6.98,8.67-10.7Z"/><path class="b" d="M408.82,59.97c-7.64-4.58-15.26-9.26-24.24-10.67-4.58-.72-9.24-1.24-13.86-1.25-48.96-.09-97.93-.09-146.89,.03-3.36,0-5.66-.97-7.94-3.37-5.58-5.89-11.43-11.52-17.16-17.27-.89-.89-1.71-1.86-3.11-3.39h5c56.15,0,112.3,.27,168.45-.14,20.5-.15,36.49,12.12,39.42,31.36,.04,.25,.22,.48,.34,.72v3.99Z"/><path class="b" d="M270.29,232.57c-3.05-3.75-5.9-7.25-8.76-10.74-6.52-7.97-14.85-7.96-21.46,.06-4.23,5.13-8.28,10.41-12.64,15.42-1.04,1.19-3.01,2.17-4.57,2.21-8.51,.21-17.03,.3-25.53,.04-6.43-.2-10.8,2.47-14.14,7.82-7.68,12.3-18.59,20.51-32.34,25.18-33.67,11.44-71.46-11.19-77.25-46.39-6.66-40.49,26.73-75.22,67.2-69.66,17.34,2.38,31.38,10.89,40.98,25.56,4.59,7.02,9.93,9.89,18.37,9.81,37.91-.36,75.82-.12,113.73-.22,2.87,0,4.57,.81,6.09,3.25,3.88,6.2,7.99,12.24,12.15,18.26,1.22,1.77,1.4,3.03,.09,4.91-4.41,6.32-8.58,12.81-12.89,19.2-2.22,3.3-3.56,3.37-6.06,.33-4.47-5.45-8.83-10.99-13.35-16.4-5.98-7.15-14.51-7.08-20.44,.09-3.04,3.67-6.02,7.38-9.19,11.28Zm-173.62-17.49c-.57,19.34,15.3,35.79,35.2,36.48,19.3,.67,35.78-15.14,36.57-35.09,.76-19.39-15.44-36.19-35.39-36.68-19.36-.48-35.8,15.47-36.38,35.3Z"/><path class="b" d="M144.51,215.62c.03,6.51-5.38,11.97-11.9,12-6.51,.03-11.97-5.38-12-11.9-.03-6.51,5.38-11.97,11.9-12,6.51-.03,11.97,5.38,12,11.9Z"/></svg>