<svg id="Group_1180" data-name="Group 1180" xmlns="http://www.w3.org/2000/svg" xmlns:xlink="http://www.w3.org/1999/xlink" width="722.356" height="461.007" viewBox="0 0 722.356 461.007">
  <defs>
    <clipPath id="clip-path">
      <rect id="Rectangle_621" data-name="Rectangle 621" width="722.356" height="461.007" fill="none"/>
    </clipPath>
  </defs>
  <g id="Group_1179" data-name="Group 1179" clip-path="url(#clip-path)">
    <path id="Path_1889" data-name="Path 1889" d="M364.814,196.46l-7.805,117.885a2.383,2.383,0,0,1-2.367,2.213,2.35,2.35,0,0,1-2.352-2.348c0-.029,0-.058,0-.088L355.5,196.46Z" transform="translate(252.042 140.555)" fill="#263238"/>
    <path id="Path_1890" data-name="Path 1890" d="M364.814,196.46l-7.805,117.885a2.383,2.383,0,0,1-2.367,2.213,2.35,2.35,0,0,1-2.352-2.348c0-.029,0-.058,0-.088L355.5,196.46Z" transform="translate(252.042 140.555)" fill="none" stroke="#263238" stroke-linecap="round" stroke-linejoin="round" stroke-width="1"/>
    <path id="Path_1891" data-name="Path 1891" d="M371.231,196.46l7.805,117.885a2.362,2.362,0,0,0,4.719-.153l0-.07-3.242-117.593Z" transform="translate(265.594 140.555)" fill="#263238"/>
    <path id="Path_1892" data-name="Path 1892" d="M371.231,196.46l7.805,117.885a2.362,2.362,0,0,0,4.719-.153l0-.07-3.242-117.593Z" transform="translate(265.594 140.555)" fill="none" stroke="#263238" stroke-linecap="round" stroke-linejoin="round" stroke-width="1"/>
    <path id="Path_1893" data-name="Path 1893" d="M325.611,196.46l7.805,117.885a2.362,2.362,0,0,0,4.719-.153l0-.07-3.259-117.593Z" transform="translate(232.955 140.555)" fill="#263238"/>
    <path id="Path_1894" data-name="Path 1894" d="M325.611,196.46l7.805,117.885a2.362,2.362,0,0,0,4.719-.153l0-.07-3.259-117.593Z" transform="translate(232.955 140.555)" fill="none" stroke="#263238" stroke-linecap="round" stroke-linejoin="round" stroke-width="1"/>
    <path id="Path_1895" data-name="Path 1895" d="M312.251,196.46l-7.805,117.885a2.37,2.37,0,0,1-4.735-.189v-.034l3.259-117.593Z" transform="translate(214.425 140.555)" fill="#263238"/>
    <path id="Path_1896" data-name="Path 1896" d="M312.251,196.46l-7.805,117.885a2.37,2.37,0,0,1-4.735-.189v-.034l3.259-117.593Z" transform="translate(214.425 140.555)" fill="none" stroke="#263238" stroke-linecap="round" stroke-linejoin="round" stroke-width="1"/>
    <path id="Path_1897" data-name="Path 1897" d="M447.756,128.4s-77.881-2.916-84.468-2.916-8.114,2.916-8.114,2.916l-11.116,78.378s-34.566-9.864-41.342-8.577,3.345,50.468,3.345,50.468h39.112l.7-2.951h88.311l23.45-111.709c-1.424-5.112-9.881-5.609-9.881-5.609" transform="translate(214.903 89.773)" fill="#fff"/>
    <path id="Path_1898" data-name="Path 1898" d="M447.756,128.4s-77.881-2.916-84.468-2.916-8.114,2.916-8.114,2.916l-11.116,78.378s-34.566-9.864-41.342-8.577,3.345,50.468,3.345,50.468h39.112l.7-2.951h88.311l23.45-111.709C456.213,128.894,447.756,128.4,447.756,128.4Z" transform="translate(214.903 89.773)" fill="none" stroke="#263238" stroke-linecap="round" stroke-linejoin="round" stroke-width="1"/>
    <path id="Path_1899" data-name="Path 1899" d="M398.379,155.76s7.925,51.463-1.167,57.467c-1.407.926-9.04,5.318-16.177,4.6-5.73-.583-46.214,0-46.214,0s-5.627-10.7-6.759-18.6,7.72-41.754,7.72-41.754Z" transform="translate(234.638 111.437)" fill="#fff"/>
    <path id="Path_1900" data-name="Path 1900" d="M398.379,155.76s7.925,51.463-1.167,57.467c-1.407.926-9.04,5.318-16.177,4.6-5.73-.583-46.214,0-46.214,0s-5.627-10.7-6.759-18.6,7.72-41.754,7.72-41.754Z" transform="translate(234.638 111.437)" fill="none" stroke="#263238" stroke-linecap="round" stroke-linejoin="round" stroke-width="1"/>
    <path id="Path_1901" data-name="Path 1901" d="M361.683,171.83s-58.6,6.09-61.361,7.737-15.439,12.711-13.26,19.9-3.311,7.737,1.715,8.852,76.268,1.1,76.268,1.1" transform="translate(205.032 122.934)" fill="#37474f"/>
    <path id="Path_1902" data-name="Path 1902" d="M361.683,171.83s-58.6,6.09-61.361,7.737-15.439,12.711-13.26,19.9-3.311,7.737,1.715,8.852,76.268,1.1,76.268,1.1" transform="translate(205.032 122.934)" fill="none" stroke="#263238" stroke-linecap="round" stroke-linejoin="round" stroke-width="1"/>
    <rect id="Rectangle_598" data-name="Rectangle 598" width="139.242" height="10.396" transform="translate(513.416 327.958)" fill="#fff"/>
    <rect id="Rectangle_599" data-name="Rectangle 599" width="139.242" height="10.396" transform="translate(513.416 327.958)" fill="none" stroke="#263238" stroke-linecap="round" stroke-linejoin="round" stroke-width="1"/>
    <path id="Path_1903" data-name="Path 1903" d="M398.4,173.12H314.518s-4.409,4.975-4.975,15.439.566,12.711,8.3,15.439,76.457,1.338,76.457,1.338" transform="translate(221.37 123.857)" fill="#37474f"/>
    <path id="Path_1904" data-name="Path 1904" d="M398.4,173.12H314.518s-4.409,4.975-4.975,15.439.566,12.711,8.3,15.439,76.457,1.338,76.457,1.338" transform="translate(221.37 123.857)" fill="none" stroke="#263238" stroke-linecap="round" stroke-linejoin="round" stroke-width="1"/>
    <path id="Path_1905" data-name="Path 1905" d="M336.271,259.4l-8.783-20.808L313.1,241.318l11.013,18.561-6.347,12.711-13.724,8.972s-1.6,1.578,5.266,1.046,21.1,0,21.1,0l8.972-10.55s3.259-5.369-3.1-12.66" transform="translate(217.406 170.697)" fill="#fff"/>
    <path id="Path_1906" data-name="Path 1906" d="M336.271,259.4l-8.783-20.808L313.1,241.318l11.013,18.561-6.347,12.711-13.724,8.972s-1.6,1.578,5.266,1.046,21.1,0,21.1,0l8.972-10.55S342.635,266.689,336.271,259.4Z" transform="translate(217.406 170.697)" fill="none" stroke="#263238" stroke-linecap="round" stroke-linejoin="round" stroke-width="1"/>
    <path id="Path_1907" data-name="Path 1907" d="M326.94,256.02l.36,13.6h-2.144l-2.865-6.793Z" transform="translate(230.58 183.167)" fill="#263238"/>
    <path id="Path_1908" data-name="Path 1908" d="M326.94,256.02l.36,13.6h-2.144l-2.865-6.793Z" transform="translate(230.58 183.167)" fill="none" stroke="#263238" stroke-linecap="round" stroke-linejoin="round" stroke-width="1"/>
    <path id="Path_1909" data-name="Path 1909" d="M330.414,272.689l8.972-10.55s2.316-3.928-.875-9.589c-6.381,10.91-14.873,14.187-14.873,14.187l-8.852-2.127-10.739,7.033s-1.6,1.578,5.266,1.046,21.1,0,21.1,0" transform="translate(217.413 180.684)" fill="#263238"/>
    <path id="Path_1910" data-name="Path 1910" d="M330.414,272.689l8.972-10.55s2.316-3.928-.875-9.589c-6.381,10.91-14.873,14.187-14.873,14.187l-8.852-2.127-10.739,7.033s-1.6,1.578,5.266,1.046S330.414,272.689,330.414,272.689Z" transform="translate(217.413 180.684)" fill="none" stroke="#263238" stroke-linecap="round" stroke-linejoin="round" stroke-width="1"/>
    <path id="Path_1911" data-name="Path 1911" d="M316.512,199.277l29.42,88.946-20.877,3.705-41.171-92.634s-3.311-13.826,5.524-18.235,34.823-6.639,34.823-6.639" transform="translate(202.668 124.787)" fill="#37474f"/>
    <path id="Path_1912" data-name="Path 1912" d="M316.512,199.277l29.42,88.946-20.877,3.705-41.171-92.634s-3.311-13.826,5.524-18.235,34.823-6.639,34.823-6.639" transform="translate(202.668 124.787)" fill="none" stroke="#263238" stroke-linecap="round" stroke-linejoin="round" stroke-width="1"/>
    <path id="Path_1913" data-name="Path 1913" d="M360.033,247.4s-10.138-49.25-3.345-50.468,41.342,8.577,41.342,8.577l11.116-78.276s11.734-1.853,12.969,8.577S399.145,247.4,399.145,247.4Z" transform="translate(253.513 90.937)" fill="#263238"/>
    <path id="Path_1914" data-name="Path 1914" d="M360.033,247.4s-10.138-49.25-3.345-50.468,41.342,8.577,41.342,8.577l11.116-78.276s11.734-1.853,12.969,8.577S399.145,247.4,399.145,247.4Z" transform="translate(253.513 90.937)" fill="none" stroke="#263238" stroke-linecap="round" stroke-linejoin="round" stroke-width="1"/>
    <path id="Path_1915" data-name="Path 1915" d="M303.566,118.442l-5.232-8.577a5.54,5.54,0,0,0-4.82-2.642l-4.923.086-8.423-2.522a2.813,2.813,0,0,0-2.985.943l-.309.395,7.754,3.431-7.737,2.848-8.217-4.169a1.554,1.554,0,0,0-1.664,2.607l11.493,8.869a3.212,3.212,0,0,0,2.573.618l12.711-2.556,3.551,3.877Z" transform="translate(190.603 74.888)" fill="#fff"/>
    <path id="Path_1916" data-name="Path 1916" d="M303.566,118.442l-5.232-8.577a5.54,5.54,0,0,0-4.82-2.642l-4.923.086-8.423-2.522a2.813,2.813,0,0,0-2.985.943l-.309.395,7.754,3.431-7.737,2.848-8.217-4.169a1.554,1.554,0,0,0-1.664,2.607l11.493,8.869a3.212,3.212,0,0,0,2.573.618l12.711-2.556,3.551,3.877Z" transform="translate(190.603 74.888)" fill="none" stroke="#263238" stroke-linecap="round" stroke-linejoin="round" stroke-width="1"/>
    <path id="Path_1917" data-name="Path 1917" d="M380.733,102.44,333.61,151.725l-44.979-36.35-6.21,4.512,49.49,56.078,42.9-23.107Z" transform="translate(202.056 73.29)" fill="#fff"/>
    <path id="Path_1918" data-name="Path 1918" d="M380.733,102.44,333.61,151.725l-44.979-36.35-6.21,4.512,49.49,56.078,42.9-23.107Z" transform="translate(202.056 73.29)" fill="none" stroke="#263238" stroke-linecap="round" stroke-linejoin="round" stroke-width="1"/>
    <path id="Path_1919" data-name="Path 1919" d="M388.25,109.78l24.7,75.908-21.306.618-21.186-35.63s11.905-35.938,17.789-40.9" transform="translate(265.043 78.541)" fill="#fff"/>
    <path id="Path_1920" data-name="Path 1920" d="M388.25,109.78l24.7,75.908-21.306.618-21.186-35.63S382.366,114.738,388.25,109.78Z" transform="translate(265.043 78.541)" fill="none" stroke="#263238" stroke-linecap="round" stroke-linejoin="round" stroke-width="1"/>
    <path id="Path_1921" data-name="Path 1921" d="M388.513,103.732l26.881,13.123L392.887,179.8l2.659,17.549-63.025.1,7.514-28.27-5.146-18.115a13.888,13.888,0,0,1-.1-7.2l10.087-39.592,26.486-4.254Z" transform="translate(237.899 71.551)" fill="#fff"/>
    <path id="Path_1922" data-name="Path 1922" d="M388.513,103.732l26.881,13.123L392.887,179.8l2.659,17.549-63.025.1,7.514-28.27-5.146-18.115a13.888,13.888,0,0,1-.1-7.2l10.087-39.592,26.486-4.254Z" transform="translate(237.899 71.551)" fill="none" stroke="#263238" stroke-linecap="round" stroke-linejoin="round" stroke-width="1"/>
    <path id="Path_1923" data-name="Path 1923" d="M375.288,101.163s5.284,3.568,5.455,6.742c.086,1.87,0,5.146-.172,7.651a16.252,16.252,0,0,1-1.321,5.678l-9.521,11.493-11.013-8.7-9.143,4.666s-1.715-14.015,2.282-23.793,21.391-6.193,23.433-3.74" transform="translate(249.837 70.432)" fill="#fff"/>
    <path id="Path_1924" data-name="Path 1924" d="M375.288,101.163s5.284,3.568,5.455,6.742c.086,1.87,0,5.146-.172,7.651a16.252,16.252,0,0,1-1.321,5.678l-9.521,11.493-11.013-8.7-9.143,4.666s-1.715-14.015,2.282-23.793S373.247,98.71,375.288,101.163Z" transform="translate(249.837 70.432)" fill="none" stroke="#263238" stroke-linecap="round" stroke-linejoin="round" stroke-width="1"/>
    <path id="Path_1925" data-name="Path 1925" d="M380.633,85.852s-2.161,7.771-3.174,12.917-3.053,15.439-2.865,19.3-16.056,20.294-18.1,17.841-4.186-16.708-4.186-16.708l2.024-23.056s21.169-23.45,26.3-10.293" transform="translate(252.057 58.554)" fill="#fff"/>
    <path id="Path_1926" data-name="Path 1926" d="M380.633,85.852s-2.161,7.771-3.174,12.917-3.053,15.439-2.865,19.3-16.056,20.294-18.1,17.841-4.186-16.708-4.186-16.708l2.024-23.056S375.5,72.694,380.633,85.852Z" transform="translate(252.057 58.554)" fill="none" stroke="#263238" stroke-linecap="round" stroke-linejoin="round" stroke-width="1"/>
    <path id="Path_1927" data-name="Path 1927" d="M351.376,78.641s-2.9,4.786-2.9,6.862,1.012,6.141.841,7.325-3.053,5.146-3.431,6.484a2.366,2.366,0,0,0,1.184,2.9,22.381,22.381,0,0,1,2.041,1.184s.858,10.567,2.23,13.295,2.556,3.928,6.639,4.271,13.809-3.928,15.165-7.342,1.544-7.5,1.715-12.437-3.242-12.008-5.8-18.75-13.26-10.447-17.686-3.791" transform="translate(247.366 53.756)" fill="#fff"/>
    <path id="Path_1928" data-name="Path 1928" d="M351.376,78.641s-2.9,4.786-2.9,6.862,1.012,6.141.841,7.325-3.053,5.146-3.431,6.484a2.366,2.366,0,0,0,1.184,2.9,22.381,22.381,0,0,1,2.041,1.184s.858,10.567,2.23,13.295,2.556,3.928,6.639,4.271,13.809-3.928,15.165-7.342,1.544-7.5,1.715-12.437-3.242-12.008-5.8-18.75S355.8,71.985,351.376,78.641Z" transform="translate(247.366 53.756)" fill="none" stroke="#263238" stroke-linecap="round" stroke-linejoin="round" stroke-width="1"/>
    <path id="Path_1929" data-name="Path 1929" d="M380.14,82.26a13.089,13.089,0,1,1-13.089,13.089A13.089,13.089,0,0,1,380.14,82.26" transform="translate(262.603 58.852)" fill="#263238"/>
    <circle id="Ellipse_110" data-name="Ellipse 110" cx="13.089" cy="13.089" r="13.089" transform="translate(627.727 165.024) rotate(-80.783)" fill="none" stroke="#263238" stroke-linecap="round" stroke-linejoin="round" stroke-width="1"/>
    <path id="Path_1930" data-name="Path 1930" d="M348.991,82.109s5.266-4.546,14.736,4.494,5.867,22.112,12.2,24.822,18.046-10.842,19.4-17.6-2.71-20.774-15.353-23.484-28.133-.858-30.981,11.768" transform="translate(249.682 49.552)" fill="#263238"/>
    <path id="Path_1931" data-name="Path 1931" d="M348.991,82.109s5.266-4.546,14.736,4.494,5.867,22.112,12.2,24.822,18.046-10.842,19.4-17.6-2.71-20.774-15.353-23.484S351.839,69.483,348.991,82.109Z" transform="translate(249.682 49.552)" fill="none" stroke="#263238" stroke-linecap="round" stroke-linejoin="round" stroke-width="1"/>
    <path id="Path_1932" data-name="Path 1932" d="M349.007,79.991a7.03,7.03,0,0,1,7.977-7.7c8.577.463,9.469,14,13.981,19.419s6.776,4.512,6.776,4.512-7.668,2.247-12.643-.463-7.376-17.995-16.091-15.765" transform="translate(249.666 51.669)" fill="#263238"/>
    <path id="Path_1933" data-name="Path 1933" d="M349.007,79.991a7.03,7.03,0,0,1,7.977-7.7c8.577.463,9.469,14,13.981,19.419s6.776,4.512,6.776,4.512-7.668,2.247-12.643-.463S357.722,77.761,349.007,79.991Z" transform="translate(249.666 51.669)" fill="none" stroke="#263238" stroke-linecap="round" stroke-linejoin="round" stroke-width="1"/>
    <path id="Path_1934" data-name="Path 1934" d="M360.974,71.34a26.763,26.763,0,0,1,10.293,11.682c3.894,8.251,3.894,15.062,13.14,14.581,0,0-4.374.978-11.185-2.436S364.954,82.044,360.58,78.15a14.386,14.386,0,0,0-8.749-3.894" transform="translate(251.714 51.039)" fill="none" stroke="#fff" stroke-linecap="round" stroke-linejoin="round" stroke-width="0.5"/>
    <path id="Path_1935" data-name="Path 1935" d="M380.129,83.58s-.395,12.385-9.9,14.993" transform="translate(264.878 59.796)" fill="none" stroke="#fff" stroke-linecap="round" stroke-linejoin="round" stroke-width="0.5"/>
    <path id="Path_1936" data-name="Path 1936" d="M360.694,93.571s9.058-11.854,11.185-3-5.146,11.013-8.577,10-2.951-2.848-2.951-2.848" transform="translate(257.793 62.448)" fill="#fff"/>
    <path id="Path_1937" data-name="Path 1937" d="M360.694,93.571s9.058-11.854,11.185-3-5.146,11.013-8.577,10-2.951-2.848-2.951-2.848" transform="translate(257.793 62.448)" fill="none" stroke="#263238" stroke-linecap="round" stroke-linejoin="round" stroke-width="1"/>
    <path id="Path_1938" data-name="Path 1938" d="M361.411,150.08s-17.292,2.4-20.174,2.4-10.087,9.126-10.087,9.126h31.7Z" transform="translate(236.919 107.373)" fill="#fff"/>
    <path id="Path_1939" data-name="Path 1939" d="M361.411,150.08s-17.292,2.4-20.174,2.4-10.087,9.126-10.087,9.126h31.7Z" transform="translate(236.919 107.373)" fill="none" stroke="#263238" stroke-linecap="round" stroke-linejoin="round" stroke-width="1"/>
    <path id="Path_1940" data-name="Path 1940" d="M422.432,143.3l6.21,14a5.524,5.524,0,0,1-5.146,7.291l-74.965.429.48-10.087,58.119-9.195" transform="translate(249.353 102.523)" fill="#fff"/>
    <path id="Path_1941" data-name="Path 1941" d="M422.432,143.3l6.21,14a5.524,5.524,0,0,1-5.146,7.291l-74.965.429.48-10.087,58.119-9.195" transform="translate(249.353 102.523)" fill="none" stroke="#263238" stroke-linecap="round" stroke-linejoin="round" stroke-width="1"/>
    <path id="Path_1942" data-name="Path 1942" d="M335.06,256.02l.36,13.6h-2.144l-2.865-6.793Z" transform="translate(236.39 183.167)" fill="#263238"/>
    <path id="Path_1943" data-name="Path 1943" d="M335.06,256.02l.36,13.6h-2.144l-2.865-6.793Z" transform="translate(236.39 183.167)" fill="none" stroke="#263238" stroke-linecap="round" stroke-linejoin="round" stroke-width="1"/>
    <path id="Path_1944" data-name="Path 1944" d="M344.389,258.976l-2.762-19.8-14.375.926,4.975,19.487-6.347,12.711-13.724,8.972s-1.578,1.578,5.284,1.046,21.1,0,21.1,0l8.972-10.55s3.242-5.507-3.122-12.8" transform="translate(223.217 171.119)" fill="#fff"/>
    <path id="Path_1945" data-name="Path 1945" d="M344.389,258.976l-2.762-19.8-14.375.926,4.975,19.487-6.347,12.711-13.724,8.972s-1.578,1.578,5.284,1.046,21.1,0,21.1,0l8.972-10.55S350.754,266.267,344.389,258.976Z" transform="translate(223.217 171.119)" fill="none" stroke="#263238" stroke-linecap="round" stroke-linejoin="round" stroke-width="1"/>
    <path id="Path_1946" data-name="Path 1946" d="M338.54,272.689l8.972-10.55s2.316-3.928-.892-9.589c-6.382,10.91-14.873,14.187-14.873,14.187l-8.834-2.127-10.756,7.033s-1.578,1.578,5.284,1.046,21.1,0,21.1,0" transform="translate(223.217 180.684)" fill="#263238"/>
    <path id="Path_1947" data-name="Path 1947" d="M338.54,272.689l8.972-10.55s2.316-3.928-.892-9.589c-6.382,10.91-14.873,14.187-14.873,14.187l-8.834-2.127-10.756,7.033s-1.578,1.578,5.284,1.046S338.54,272.689,338.54,272.689Z" transform="translate(223.217 180.684)" fill="none" stroke="#263238" stroke-linecap="round" stroke-linejoin="round" stroke-width="1"/>
    <path id="Path_1948" data-name="Path 1948" d="M340.548,184.609,346.707,289.8l-19.5.463L308.161,194.7s.36-18.2,6.176-20.294,21.254.154,21.254.154" transform="translate(220.471 124.136)" fill="#37474f"/>
    <path id="Path_1949" data-name="Path 1949" d="M340.548,184.609,346.707,289.8l-19.5.463L308.161,194.7s.36-18.2,6.176-20.294,21.254.154,21.254.154" transform="translate(220.471 124.136)" fill="none" stroke="#263238" stroke-linecap="round" stroke-linejoin="round" stroke-width="1"/>
    <path id="Path_1950" data-name="Path 1950" d="M281.39,47.99l24.2,67.846s-3.191,15.353-12.8,14.718-12.162-14.084-14.718-16.005-6.4-16.64-6.4-16.64Z" transform="translate(194.371 34.334)" fill="#fff"/>
    <path id="Path_1951" data-name="Path 1951" d="M281.39,47.99l24.2,67.846s-3.191,15.353-12.8,14.718-12.162-14.084-14.718-16.005-6.4-16.64-6.4-16.64Z" transform="translate(194.371 34.334)" fill="none" stroke="#263238" stroke-linecap="round" stroke-linejoin="round" stroke-width="1"/>
    <path id="Path_1952" data-name="Path 1952" d="M257.254,40.06,217.9,54.264,233,163.383h71l15.868-109.72L277.393,40.369Z" transform="translate(155.895 28.661)" fill="#fff"/>
    <path id="Path_1953" data-name="Path 1953" d="M257.254,40.06,217.9,54.264,233,163.383h71l15.868-109.72L277.393,40.369Z" transform="translate(155.895 28.661)" fill="none" stroke="#263238" stroke-linecap="round" stroke-linejoin="round" stroke-width="1"/>
    <path id="Path_1954" data-name="Path 1954" d="M243.051,55.982l5.678,8.56-4.923,72.6,7.239,18.9,7.428-18.39-6.364-72.031,5.112-12.368-7.085-9.315Z" transform="translate(173.889 31.436)" fill="#37474f"/>
    <path id="Path_1955" data-name="Path 1955" d="M243.051,55.982l5.678,8.56-4.923,72.6,7.239,18.9,7.428-18.39-6.364-72.031,5.112-12.368-7.085-9.315Z" transform="translate(173.889 31.436)" fill="none" stroke="#263238" stroke-linecap="round" stroke-linejoin="round" stroke-width="1"/>
    <path id="Path_1956" data-name="Path 1956" d="M254.643,58.387l-10.138,7.6-6.673-19.813,4.649-10.035,20.74-.5,5.061,4.546-1.012,25.286Z" transform="translate(170.154 25.498)" fill="#fff"/>
    <path id="Path_1957" data-name="Path 1957" d="M254.643,58.387l-10.138,7.6-6.673-19.813,4.649-10.035,20.74-.5,5.061,4.546-1.012,25.286Z" transform="translate(170.154 25.498)" fill="none" stroke="#263238" stroke-linecap="round" stroke-linejoin="round" stroke-width="1"/>
    <path id="Path_1958" data-name="Path 1958" d="M262.817,37.666l-1.578,12.746-11.356,14.65-8.491-14.856V26.31s14.873,3.723,21.426,11.356" transform="translate(172.701 18.823)" fill="#fff"/>
    <path id="Path_1959" data-name="Path 1959" d="M262.817,37.666l-1.578,12.746-11.356,14.65-8.491-14.856V26.31S256.264,30.033,262.817,37.666Z" transform="translate(172.701 18.823)" fill="none" stroke="#263238" stroke-linecap="round" stroke-linejoin="round" stroke-width="1"/>
    <path id="Path_1960" data-name="Path 1960" d="M237.991,26.233c0-11.579,8.44-20.963,18.87-20.963s16.211,9.9,16.211,21.477c0,3.74-.772,10.155-1.081,13.569-.532,5.832-2.3,8.3-5.747,13.535-11.3,17.154-20.585-8.011-25.337-16.468a22.513,22.513,0,0,1-2.916-11.15" transform="translate(170.268 3.77)" fill="#fff"/>
    <path id="Path_1961" data-name="Path 1961" d="M237.991,26.233c0-11.579,8.44-20.963,18.87-20.963s16.211,9.9,16.211,21.477c0,3.74-.772,10.155-1.081,13.569-.532,5.832-2.3,8.3-5.747,13.535-11.3,17.154-20.585-8.011-25.337-16.468A22.513,22.513,0,0,1,237.991,26.233Z" transform="translate(170.268 3.77)" fill="none" stroke="#263238" stroke-linecap="round" stroke-linejoin="round" stroke-width="1"/>
    <path id="Path_1962" data-name="Path 1962" d="M255.445,19.61l1.6,11.957-5.609-.154" transform="translate(179.884 14.03)" fill="#fff"/>
    <path id="Path_1963" data-name="Path 1963" d="M255.445,19.61l1.6,11.957-5.609-.154" transform="translate(179.884 14.03)" fill="none" stroke="#263238" stroke-linecap="round" stroke-linejoin="round" stroke-width="1"/>
    <path id="Path_1964" data-name="Path 1964" d="M272.44,18.4l-26.967.12a6.3,6.3,0,0,0,1.338,6.124c1.715,1.715,8.7,1.115,9.812.669s1.715-5.352,1.715-5.352h2.007s.223,5.146,3.1,5.575,6.639.292,7.359-.223c3.191-2.144,1.63-6.913,1.63-6.913" transform="translate(175.412 13.164)" fill="#fff"/>
    <path id="Path_1965" data-name="Path 1965" d="M272.44,18.4l-26.967.12a6.3,6.3,0,0,0,1.338,6.124c1.715,1.715,8.7,1.115,9.812.669s1.715-5.352,1.715-5.352h2.007s.223,5.146,3.1,5.575,6.639.292,7.359-.223C274,23.169,272.44,18.4,272.44,18.4Z" transform="translate(175.412 13.164)" fill="none" stroke="#263238" stroke-linecap="round" stroke-linejoin="round" stroke-width="1"/>
    <path id="Path_1966" data-name="Path 1966" d="M241.955,42.734s6.073,12.437,7.514,16.743,8.577,7.668,15.8,5.266,5.266-13.089,5.266-13.089-7.668-6.553-9.092-5.146-9.109,7.668-9.589,6.227-3.825-10.052-3.825-10.052l-1.561-6.107,3.208-2.059a2.4,2.4,0,0,0,.429-3.225l-1.51-2.179a2.439,2.439,0,0,1-.395-1.853c.395-1.87,1.475-5.747,3.98-6.862,3.431-1.424,7.6.652,11.442,1.613s8.011-2.5,8.011-2.5l1.715,5.7a27.328,27.328,0,0,0,7.788-13.209C283.057,3.845,263.415.5,257.119.5s-16.28,3.431-19.161,12.454,2.3,28.168,4,29.78" transform="translate(169.632 0.358)" fill="#263238"/>
    <path id="Path_1967" data-name="Path 1967" d="M241.955,42.734s6.073,12.437,7.514,16.743,8.577,7.668,15.8,5.266,5.266-13.089,5.266-13.089-7.668-6.553-9.092-5.146-9.109,7.668-9.589,6.227-3.825-10.052-3.825-10.052l-1.561-6.107,3.208-2.059a2.4,2.4,0,0,0,.429-3.225l-1.51-2.179a2.439,2.439,0,0,1-.395-1.853c.395-1.87,1.475-5.747,3.98-6.862,3.431-1.424,7.6.652,11.442,1.613s8.011-2.5,8.011-2.5l1.715,5.7a27.328,27.328,0,0,0,7.788-13.209C283.057,3.845,263.415.5,257.119.5s-16.28,3.431-19.161,12.454S240.257,41.122,241.955,42.734Z" transform="translate(169.632 0.358)" fill="none" stroke="#263238" stroke-linecap="round" stroke-linejoin="round" stroke-width="1"/>
    <path id="Path_1968" data-name="Path 1968" d="M256.889,7.23s3.568,5.352-1.115,6.467-13.809-2.9-17.823-1.338" transform="translate(170.24 5.173)" fill="none" stroke="#fff" stroke-linecap="round" stroke-linejoin="round" stroke-width="0.5"/>
    <path id="Path_1969" data-name="Path 1969" d="M248.6,14.159s-7.342-.892-10.293,2.23" transform="translate(170.497 10.046)" fill="none" stroke="#fff" stroke-linecap="round" stroke-linejoin="round" stroke-width="0.5"/>
    <path id="Path_1970" data-name="Path 1970" d="M257.981,30.1s-5.4,2.813-8.08-.532" transform="translate(178.789 21.156)" fill="none" stroke="#fff" stroke-linecap="round" stroke-linejoin="round" stroke-width="0.5"/>
    <path id="Path_1971" data-name="Path 1971" d="M242.672,23.928s-5.3-5.832-5.3.532,1.6,6.364,4.769,8.577,4.254-.532,4.254-.532" transform="translate(169.825 15.372)" fill="#fff"/>
    <path id="Path_1972" data-name="Path 1972" d="M242.672,23.928s-5.3-5.832-5.3.532,1.6,6.364,4.769,8.577,4.254-.532,4.254-.532" transform="translate(169.825 15.372)" fill="none" stroke="#263238" stroke-linecap="round" stroke-linejoin="round" stroke-width="1"/>
    <path id="Path_1973" data-name="Path 1973" d="M330.822,354.626h.24l-.463-2.333L307.44,111.96h-71L213.091,354.609h.257L228.41,355.9s16.708-56.095,16.708-60.281,4.769-42.886,4.769-42.886l23.69-83.285,20.945,83.285s4.769,38.786,4.769,42.886,16.726,60.315,16.726,60.315l14.17-1.218h.635Z" transform="translate(152.454 80.101)" fill="#263238"/>
    <path id="Path_1974" data-name="Path 1974" d="M330.822,354.626h.24l-.463-2.333L307.44,111.96h-71L213.091,354.609h.257L228.41,355.9s16.708-56.095,16.708-60.281,4.769-42.886,4.769-42.886l23.69-83.285,20.945,83.285s4.769,38.786,4.769,42.886,16.726,60.315,16.726,60.315l14.17-1.218h.635Z" transform="translate(152.454 80.101)" fill="none" stroke="#263238" stroke-linecap="round" stroke-linejoin="round" stroke-width="1"/>
    <line id="Line_288" data-name="Line 288" x1="15.799" y2="22.558" transform="translate(438.795 206.196)" fill="none" stroke="#fff" stroke-linecap="round" stroke-linejoin="round" stroke-width="0.5"/>
    <line id="Line_289" data-name="Line 289" x1="9.589" y2="15.799" transform="translate(436.548 211.274)" fill="none" stroke="#fff" stroke-linecap="round" stroke-linejoin="round" stroke-width="0.5"/>
    <line id="Line_290" data-name="Line 290" x2="14.084" y2="15.216" transform="translate(401.021 210.159)" fill="none" stroke="#fff" stroke-linecap="round" stroke-linejoin="round" stroke-width="0.5"/>
    <line id="Line_291" data-name="Line 291" x2="20.294" y2="20.311" transform="translate(399.889 215.785)" fill="none" stroke="#fff" stroke-linecap="round" stroke-linejoin="round" stroke-width="0.5"/>
    <line id="Line_292" data-name="Line 292" x2="62.614" transform="translate(393.113 194.359)" fill="none" stroke="#fff" stroke-linecap="round" stroke-linejoin="round" stroke-width="0.5"/>
    <path id="Path_1975" data-name="Path 1975" d="M225.425,253.41s-9.04,7.119-14.255,9.075-14.959,7.153-14.959,7.153,0,3.259,8.457,3.259h33.194L237.3,253.41Z" transform="translate(140.377 181.3)" fill="#263238"/>
    <path id="Path_1976" data-name="Path 1976" d="M225.425,253.41s-9.04,7.119-14.255,9.075-14.959,7.153-14.959,7.153,0,3.259,8.457,3.259h33.194L237.3,253.41Z" transform="translate(140.377 181.3)" fill="none" stroke="#263238" stroke-linecap="round" stroke-linejoin="round" stroke-width="1"/>
    <path id="Path_1977" data-name="Path 1977" d="M237.72,262.965a323.078,323.078,0,0,1-39.764-.635l-1.715.926s0,3.259,8.457,3.259h33.194Z" transform="translate(140.399 187.681)" fill="#fff"/>
    <path id="Path_1978" data-name="Path 1978" d="M237.72,262.965a323.078,323.078,0,0,1-39.764-.635l-1.715.926s0,3.259,8.457,3.259h33.194Z" transform="translate(140.399 187.681)" fill="none" stroke="#263238" stroke-linecap="round" stroke-linejoin="round" stroke-width="1"/>
    <path id="Path_1979" data-name="Path 1979" d="M286.1,253.41s9.058,7.119,14.255,9.075,14.976,7.153,14.976,7.153,0,3.259-8.474,3.259H273.681l.6-19.487Z" transform="translate(195.802 181.3)" fill="#263238"/>
    <path id="Path_1980" data-name="Path 1980" d="M286.1,253.41s9.058,7.119,14.255,9.075,14.976,7.153,14.976,7.153,0,3.259-8.474,3.259H273.681l.6-19.487Z" transform="translate(195.802 181.3)" fill="none" stroke="#263238" stroke-linecap="round" stroke-linejoin="round" stroke-width="1"/>
    <path id="Path_1981" data-name="Path 1981" d="M273.784,262.965a323.079,323.079,0,0,0,39.764-.635l1.715.926s0,3.259-8.474,3.259H273.681Z" transform="translate(195.802 187.681)" fill="#fff"/>
    <path id="Path_1982" data-name="Path 1982" d="M273.784,262.965a323.079,323.079,0,0,0,39.764-.635l1.715.926s0,3.259-8.474,3.259H273.681Z" transform="translate(195.802 187.681)" fill="none" stroke="#263238" stroke-linecap="round" stroke-linejoin="round" stroke-width="1"/>
    <path id="Path_1983" data-name="Path 1983" d="M228.8,48.34l-26.143,69.8h25.08L237.107,99.1Z" transform="translate(144.992 34.584)" fill="#fff"/>
    <path id="Path_1984" data-name="Path 1984" d="M228.8,48.34l-26.143,69.8h25.08L237.107,99.1Z" transform="translate(144.992 34.584)" fill="none" stroke="#263238" stroke-linecap="round" stroke-linejoin="round" stroke-width="1"/>
    <path id="Path_1985" data-name="Path 1985" d="M333.028,87.586c-10.464-4.323-44.035-6.467-45.785-6.467s-56.318-4.494-60.8-5.146-9.606,9.606-9.606,9.606l23.673-.652,28.8,5.764s58.325,21.117,62.717,19.848a3.9,3.9,0,0,0,1.578-.995" transform="translate(155.137 54.332)" fill="#fff"/>
    <path id="Path_1986" data-name="Path 1986" d="M333.028,87.586c-10.464-4.323-44.035-6.467-45.785-6.467s-56.318-4.494-60.8-5.146-9.606,9.606-9.606,9.606l23.673-.652,28.8,5.764s58.325,21.117,62.717,19.848a3.9,3.9,0,0,0,1.578-.995" transform="translate(155.137 54.332)" fill="none" stroke="#263238" stroke-linecap="round" stroke-linejoin="round" stroke-width="1"/>
    <path id="Path_1987" data-name="Path 1987" d="M221.333,84.555,311.565,75.6l.652,7.668-78.087,23.69s-14.067,3.191-24.96,1.269-5.747-12.8-3.191-19.2" transform="translate(144.881 54.087)" fill="#fff"/>
    <path id="Path_1988" data-name="Path 1988" d="M221.333,84.555,311.565,75.6l.652,7.668-78.087,23.69s-14.067,3.191-24.96,1.269-5.747-12.8-3.191-19.2" transform="translate(144.881 54.087)" fill="none" stroke="#263238" stroke-linecap="round" stroke-linejoin="round" stroke-width="1"/>
    <path id="Path_1989" data-name="Path 1989" d="M266.091,75.872l17.274-.652,5.112,10.241-21.752-1.9Z" transform="translate(190.372 53.815)" fill="#fff"/>
    <path id="Path_1990" data-name="Path 1990" d="M266.091,75.872l17.274-.652,5.112,10.241-21.752-1.9Z" transform="translate(190.372 53.815)" fill="none" stroke="#263238" stroke-linecap="round" stroke-linejoin="round" stroke-width="1"/>
    <path id="Path_1991" data-name="Path 1991" d="M333.161,163.34,347.9,338.778a1.94,1.94,0,0,0,2.2,1.633q.057-.008.113-.021a1.887,1.887,0,0,0,1.424-2.024L341.6,163.391Z" transform="translate(238.357 116.86)" fill="#263238"/>
    <path id="Path_1992" data-name="Path 1992" d="M333.161,163.34,347.9,338.778a1.94,1.94,0,0,0,2.2,1.633q.057-.008.113-.021a1.887,1.887,0,0,0,1.424-2.024L341.6,163.391Z" transform="translate(238.357 116.86)" fill="none" stroke="#263238" stroke-linecap="round" stroke-linejoin="round" stroke-width="1"/>
    <path id="Path_1993" data-name="Path 1993" d="M390.891,163.34l14.787,176.021a1.922,1.922,0,0,0,2.167,1.64c.05-.007.1-.017.149-.027a1.887,1.887,0,0,0,1.424-2.024l-10.07-175.61Z" transform="translate(279.659 116.86)" fill="#263238"/>
    <path id="Path_1994" data-name="Path 1994" d="M390.891,163.34l14.787,176.021a1.922,1.922,0,0,0,2.167,1.64c.05-.007.1-.017.149-.027a1.887,1.887,0,0,0,1.424-2.024l-10.07-175.61Z" transform="translate(279.659 116.86)" fill="none" stroke="#263238" stroke-linecap="round" stroke-linejoin="round" stroke-width="1"/>
    <path id="Path_1995" data-name="Path 1995" d="M155.867,163.34l-7.7,173.911a1.923,1.923,0,0,0,1.441,2.041,1.837,1.837,0,0,0,2.235-1.321,2.125,2.125,0,0,0,.046-.257L164.358,163.34Z" transform="translate(105.997 116.86)" fill="#263238"/>
    <path id="Path_1996" data-name="Path 1996" d="M155.867,163.34l-7.7,173.911a1.923,1.923,0,0,0,1.441,2.041,1.837,1.837,0,0,0,2.235-1.321,2.125,2.125,0,0,0,.046-.257L164.358,163.34Z" transform="translate(105.997 116.86)" fill="none" stroke="#263238" stroke-linecap="round" stroke-linejoin="round" stroke-width="1"/>
    <path id="Path_1997" data-name="Path 1997" d="M102.678,163.369,94.924,336.628a1.939,1.939,0,0,0,1.458,2.041,1.855,1.855,0,0,0,2.242-1.357,2,2,0,0,0,.039-.221L111.083,163.3Z" transform="translate(67.907 116.831)" fill="#263238"/>
    <path id="Path_1998" data-name="Path 1998" d="M102.678,163.369,94.924,336.628a1.939,1.939,0,0,0,1.458,2.041,1.855,1.855,0,0,0,2.242-1.357,2,2,0,0,0,.039-.221L111.083,163.3Z" transform="translate(67.907 116.831)" fill="none" stroke="#263238" stroke-linecap="round" stroke-linejoin="round" stroke-width="1"/>
    <rect id="Rectangle_600" data-name="Rectangle 600" width="524.736" height="15.062" transform="translate(165.096 270.473)" fill="#37474f"/>
    <rect id="Rectangle_601" data-name="Rectangle 601" width="524.736" height="15.062" transform="translate(165.096 270.473)" fill="none" stroke="#263238" stroke-linecap="round" stroke-linejoin="round" stroke-width="1"/>
    <rect id="Rectangle_602" data-name="Rectangle 602" width="524.736" height="5.163" transform="translate(165.096 270.473)" fill="#263238"/>
    <rect id="Rectangle_603" data-name="Rectangle 603" width="524.736" height="5.163" transform="translate(165.096 270.473)" fill="none" stroke="#263238" stroke-linecap="round" stroke-linejoin="round" stroke-width="1"/>
    <rect id="Rectangle_604" data-name="Rectangle 604" width="131.3" height="15.062" transform="translate(558.515 270.473)" fill="#263238"/>
    <rect id="Rectangle_605" data-name="Rectangle 605" width="131.3" height="15.062" transform="translate(558.515 270.473)" fill="none" stroke="#263238" stroke-linecap="round" stroke-linejoin="round" stroke-width="1"/>
    <rect id="Rectangle_606" data-name="Rectangle 606" width="534.085" height="5.747" transform="translate(160.413 265.464)" fill="#37474f"/>
    <rect id="Rectangle_607" data-name="Rectangle 607" width="534.085" height="5.747" transform="translate(160.413 265.464)" fill="none" stroke="#263238" stroke-linecap="round" stroke-linejoin="round" stroke-width="1"/>
    <rect id="Rectangle_608" data-name="Rectangle 608" width="130.494" height="5.747" transform="translate(563.987 265.464)" fill="#263238"/>
    <rect id="Rectangle_609" data-name="Rectangle 609" width="130.494" height="5.747" transform="translate(563.987 265.464)" fill="none" stroke="#263238" stroke-linecap="round" stroke-linejoin="round" stroke-width="1"/>
    <path id="Path_1999" data-name="Path 1999" d="M163.413,174.482h71.671a1.392,1.392,0,0,0,1.287-.841l19.848-45.253a1.39,1.39,0,0,0-1.287-1.938H183.26a1.389,1.389,0,0,0-1.269.823l-19.779,45.253a1.39,1.39,0,0,0,1.2,1.956" transform="translate(115.966 90.467)" fill="#fff"/>
    <path id="Path_2000" data-name="Path 2000" d="M163.413,174.482h71.671a1.392,1.392,0,0,0,1.287-.841l19.848-45.253a1.39,1.39,0,0,0-1.287-1.938H183.26a1.389,1.389,0,0,0-1.269.823l-19.779,45.253a1.39,1.39,0,0,0,1.2,1.956Z" transform="translate(115.966 90.467)" fill="none" stroke="#263238" stroke-linecap="round" stroke-linejoin="round" stroke-width="1"/>
    <path id="Path_2001" data-name="Path 2001" d="M167.267,169.5h61.155a1.183,1.183,0,0,0,1.081-.7l16.931-38.615a1.186,1.186,0,0,0-.525-1.59,1.2,1.2,0,0,0-.556-.125H184.2a1.184,1.184,0,0,0-1.1.72l-16.9,38.649a1.183,1.183,0,0,0,1.064,1.664" transform="translate(118.835 91.913)" fill="#37474f"/>
    <path id="Path_2002" data-name="Path 2002" d="M167.267,169.5h61.155a1.183,1.183,0,0,0,1.081-.7l16.931-38.615a1.186,1.186,0,0,0-.525-1.59,1.2,1.2,0,0,0-.556-.125H184.2a1.184,1.184,0,0,0-1.1.72l-16.9,38.649a1.183,1.183,0,0,0,1.064,1.664Z" transform="translate(118.835 91.913)" fill="none" stroke="#263238" stroke-linecap="round" stroke-linejoin="round" stroke-width="1"/>
    <rect id="Rectangle_610" data-name="Rectangle 610" width="107.678" height="3.517" transform="translate(244.366 261.948)" fill="#fff"/>
    <rect id="Rectangle_611" data-name="Rectangle 611" width="107.678" height="3.517" transform="translate(244.366 261.948)" fill="none" stroke="#263238" stroke-linecap="round" stroke-linejoin="round" stroke-width="1"/>
    <rect id="Rectangle_612" data-name="Rectangle 612" width="52.201" height="3.517" transform="translate(299.861 261.948)" fill="#fff"/>
    <rect id="Rectangle_613" data-name="Rectangle 613" width="52.201" height="3.517" transform="translate(299.861 261.948)" fill="none" stroke="#263238" stroke-linecap="round" stroke-linejoin="round" stroke-width="1"/>
    <rect id="Rectangle_614" data-name="Rectangle 614" width="18.99" height="28.065" transform="translate(367.655 237.468)" fill="#fff"/>
    <rect id="Rectangle_615" data-name="Rectangle 615" width="18.99" height="28.065" transform="translate(367.655 237.468)" fill="none" stroke="#263238" stroke-linecap="round" stroke-linejoin="round" stroke-width="1"/>
    <path id="Path_2003" data-name="Path 2003" d="M226.618,160.5h-1.99a1.561,1.561,0,1,1,0-3.122h1.99a2.984,2.984,0,0,0,2.968-2.968V147.55a2.984,2.984,0,0,0-2.968-2.968h-2.556a1.561,1.561,0,0,1,0-3.122h2.556a6.089,6.089,0,0,1,6.09,6.09v6.862A6.089,6.089,0,0,1,226.618,160.5Z" transform="translate(159.186 101.206)" fill="#fff"/>
    <path id="Path_2004" data-name="Path 2004" d="M226.618,160.5h-1.99a1.561,1.561,0,1,1,0-3.122h1.99a2.984,2.984,0,0,0,2.968-2.968V147.55a2.984,2.984,0,0,0-2.968-2.968h-2.556a1.561,1.561,0,0,1,0-3.122h2.556a6.089,6.089,0,0,1,6.09,6.09v6.862A6.089,6.089,0,0,1,226.618,160.5Z" transform="translate(159.186 101.206)" fill="none" stroke="#263238" stroke-linecap="round" stroke-linejoin="round" stroke-width="1"/>
    <path id="Path_2005" data-name="Path 2005" d="M350.627,174.482H278.956a1.39,1.39,0,0,1-1.27-.841l-19.848-45.253a1.39,1.39,0,0,1,1.27-1.938h71.671a1.407,1.407,0,0,1,1.287.823l19.848,45.253a1.406,1.406,0,0,1-.746,1.844,1.429,1.429,0,0,1-.54.112" transform="translate(184.387 90.467)" fill="#fff"/>
    <path id="Path_2006" data-name="Path 2006" d="M350.627,174.482H278.956a1.39,1.39,0,0,1-1.27-.841l-19.848-45.253a1.39,1.39,0,0,1,1.27-1.938h71.671a1.407,1.407,0,0,1,1.287.823l19.848,45.253a1.406,1.406,0,0,1-.746,1.844A1.429,1.429,0,0,1,350.627,174.482Z" transform="translate(184.387 90.467)" fill="none" stroke="#263238" stroke-linecap="round" stroke-linejoin="round" stroke-width="1"/>
    <rect id="Rectangle_616" data-name="Rectangle 616" width="107.678" height="3.517" transform="translate(462.347 261.948)" fill="#fff"/>
    <rect id="Rectangle_617" data-name="Rectangle 617" width="107.678" height="3.517" transform="translate(462.347 261.948)" fill="none" stroke="#263238" stroke-linecap="round" stroke-linejoin="round" stroke-width="1"/>
    <rect id="Rectangle_618" data-name="Rectangle 618" width="74.244" height="3.517" transform="translate(462.347 261.948)" fill="#fff"/>
    <rect id="Rectangle_619" data-name="Rectangle 619" width="74.244" height="3.517" transform="translate(462.347 261.948)" fill="none" stroke="#263238" stroke-linecap="round" stroke-linejoin="round" stroke-width="1"/>
    <path id="Path_2007" data-name="Path 2007" d="M289.217,138.33a4.22,4.22,0,1,1-5.781-1.715,4.271,4.271,0,0,1,5.781,1.715" transform="translate(201.229 97.372)" fill="#fff"/>
    <path id="Path_2008" data-name="Path 2008" d="M289.217,138.33a4.22,4.22,0,1,1-5.781-1.715A4.271,4.271,0,0,1,289.217,138.33Z" transform="translate(201.229 97.372)" fill="none" stroke="#263238" stroke-linecap="round" stroke-linejoin="round" stroke-width="1"/>
    <path id="Path_2009" data-name="Path 2009" d="M99.414,64.575l5.284,52.2L128.714,186.3,120.5,191,92.3,127.36,78.212,72.723s-1.184-16.434,4.7-18.87,14.152.154,16.5,10.721" transform="translate(55.886 37.923)" fill="#fff"/>
    <path id="Path_2010" data-name="Path 2010" d="M99.414,64.575l5.284,52.2L128.714,186.3,120.5,191,92.3,127.36,78.212,72.723s-1.184-16.434,4.7-18.87S97.064,54.008,99.414,64.575Z" transform="translate(55.886 37.923)" fill="none" stroke="#263238" stroke-linecap="round" stroke-linejoin="round" stroke-width="1"/>
    <path id="Path_2011" data-name="Path 2011" d="M111.078,130.75s5.284,11.167,5.884,14.1,1.2,8.92-1.115,11.6c-2.8,3.225-5.352.738-5.352.738s-7.05-1.715-7.05-7.634-.583-14.1-.583-14.1Z" transform="translate(73.591 93.544)" fill="#fff"/>
    <path id="Path_2012" data-name="Path 2012" d="M111.078,130.75s5.284,11.167,5.884,14.1,1.2,8.92-1.115,11.6c-2.8,3.225-5.352.738-5.352.738s-7.05-1.715-7.05-7.634-.583-14.1-.583-14.1Z" transform="translate(73.591 93.544)" fill="none" stroke="#263238" stroke-linecap="round" stroke-linejoin="round" stroke-width="1"/>
    <line id="Line_293" data-name="Line 293" x2="9.898" y2="2.573" transform="translate(178.906 241.808)" fill="none" stroke="#263238" stroke-linecap="round" stroke-linejoin="round" stroke-width="1"/>
    <path id="Path_2013" data-name="Path 2013" d="M106.2,139.4l2.813,4.426s-6.553,11.2-3.036,8.268,10.087-6.5,9.5-9.435a46.631,46.631,0,0,0-3.911-8.852" transform="translate(75.076 95.733)" fill="#fff"/>
    <path id="Path_2014" data-name="Path 2014" d="M106.2,139.4l2.813,4.426s-6.553,11.2-3.036,8.268,10.087-6.5,9.5-9.435a46.631,46.631,0,0,0-3.911-8.852" transform="translate(75.076 95.733)" fill="none" stroke="#263238" stroke-linecap="round" stroke-linejoin="round" stroke-width="1"/>
    <path id="Path_2015" data-name="Path 2015" d="M92.2,24.738S86.158,18.219,72.229,22.4,55.075,48.891,55.5,60.024s11.15,23.69,7.908,29.265S48.076,107.868,49,121.883s12.54,25.08,29.265,19.968,13.929-25.577,10.6-33.057,3.723-10.687,6.038-26.95S82.367,52.116,82.367,40.5s12.008-9.744,12.008-9.744Z" transform="translate(35.022 15.026)" fill="#263238"/>
    <path id="Path_2016" data-name="Path 2016" d="M92.2,24.738S86.158,18.219,72.229,22.4,55.075,48.891,55.5,60.024s11.15,23.69,7.908,29.265S48.076,107.868,49,121.883s12.54,25.08,29.265,19.968,13.929-25.577,10.6-33.057,3.723-10.687,6.038-26.95S82.367,52.116,82.367,40.5s12.008-9.744,12.008-9.744Z" transform="translate(35.022 15.026)" fill="none" stroke="#263238" stroke-linecap="round" stroke-linejoin="round" stroke-width="1"/>
    <path id="Path_2017" data-name="Path 2017" d="M67.468,48.88c2.2,4.529,4.752,9.366,7.291,14.581C83.233,80.753,76.611,87,63.728,96.569s-9.932,21.34-6.622,23.158" transform="translate(38.822 34.971)" fill="none" stroke="#fff" stroke-linecap="round" stroke-linejoin="round" stroke-width="0.5"/>
    <path id="Path_2018" data-name="Path 2018" d="M81.143,25.85S63.851,27.325,59.425,38.356c-2.676,6.707-.618,14.221,3.328,22.97" transform="translate(41.65 18.494)" fill="none" stroke="#fff" stroke-linecap="round" stroke-linejoin="round" stroke-width="0.5"/>
    <path id="Path_2019" data-name="Path 2019" d="M64.211,87.67a10.406,10.406,0,0,0,4.169.652" transform="translate(45.939 62.723)" fill="none" stroke="#fff" stroke-linecap="round" stroke-linejoin="round" stroke-width="0.5"/>
    <path id="Path_2020" data-name="Path 2020" d="M83.859,25.18s-16.194,2.933-19.865,14.7,18.029,29.162,19.127,41.96S68.763,102.117,63.274,112.05c-3.86,6.965-3.431,14.633.635,18.492" transform="translate(43.36 18.015)" fill="none" stroke="#fff" stroke-linecap="round" stroke-linejoin="round" stroke-width="0.5"/>
    <path id="Path_2021" data-name="Path 2021" d="M113.692,163.25s-4,34.515-8.011,45.528-13,97.557-13.5,102.566,13,16.5,18.51,20.019,3,4.494-3,4.992-13-.5-16.005-6-10.018-7-10.018-7L80.67,335.36H78.663L77.17,320.35a17.3,17.3,0,0,1,1.492-10c2.5-5.507,3.431-17.017,3.431-32.593s-3-40.536-1.51-52.544S88.1,204.2,88.1,194.2s.5-25.011.5-25.011Z" transform="translate(55.075 116.796)" fill="#fff"/>
    <path id="Path_2022" data-name="Path 2022" d="M113.692,163.25s-4,34.515-8.011,45.528-13,97.557-13.5,102.566,13,16.5,18.51,20.019,3,4.494-3,4.992-13-.5-16.005-6-10.018-7-10.018-7L80.67,335.36H78.663L77.17,320.35a17.3,17.3,0,0,1,1.492-10c2.5-5.507,3.431-17.017,3.431-32.593s-3-40.536-1.51-52.544S88.1,204.2,88.1,194.2s.5-25.011.5-25.011Z" transform="translate(55.075 116.796)" fill="none" stroke="#263238" stroke-linecap="round" stroke-linejoin="round" stroke-width="1"/>
    <path id="Path_2023" data-name="Path 2023" d="M77.172,258.042a16.589,16.589,0,0,1,.635-7.7c3.1,5.249,12.008,12.368,18.87,15.2a25.03,25.03,0,0,0,11.819,1.99c.806.6,1.561,1.115,2.2,1.527,5.507,3.431,3,4.494-3,4.992s-13-.5-16.005-6-10.018-7-10.018-7l-.995,12.008H78.664Z" transform="translate(55.073 179.103)" fill="#263238"/>
    <path id="Path_2024" data-name="Path 2024" d="M77.172,258.042a16.589,16.589,0,0,1,.635-7.7c3.1,5.249,12.008,12.368,18.87,15.2a25.03,25.03,0,0,0,11.819,1.99c.806.6,1.561,1.115,2.2,1.527,5.507,3.431,3,4.494-3,4.992s-13-.5-16.005-6-10.018-7-10.018-7l-.995,12.008H78.664Z" transform="translate(55.073 179.103)" fill="none" stroke="#263238" stroke-linecap="round" stroke-linejoin="round" stroke-width="1"/>
    <path id="Path_2025" data-name="Path 2025" d="M108.254,168.134s-8.577,25.509-16.5,47.518S64.733,288.2,62.726,297.2s-3,25.526-8.577,34.034-11.013,12.506-10.018-2.5S54.149,302.71,56.139,291.2s3-53.024,10-71.534,14.513-33.52,15.439-39.026a129.074,129.074,0,0,0,.995-16.52Z" transform="translate(31.488 117.418)" fill="#fff"/>
    <path id="Path_2026" data-name="Path 2026" d="M108.254,168.134s-8.577,25.509-16.5,47.518S64.733,288.2,62.726,297.2s-3,25.526-8.577,34.034-11.013,12.506-10.018-2.5S54.149,302.71,56.139,291.2s3-53.024,10-71.534,14.513-33.52,15.439-39.026a129.074,129.074,0,0,0,.995-16.52Z" transform="translate(31.488 117.418)" fill="none" stroke="#263238" stroke-linecap="round" stroke-linejoin="round" stroke-width="1"/>
    <path id="Path_2027" data-name="Path 2027" d="M45.131,256.33a14.86,14.86,0,0,0,2.539,7.925c2.882,3.225,7.531-3.036,9.95-6.862a32.484,32.484,0,0,1-3.431,7.857c-5.507,8.491-11.013,12.506-10.018-2.5a44.988,44.988,0,0,1,.961-6.416" transform="translate(31.517 183.389)" fill="#263238"/>
    <path id="Path_2028" data-name="Path 2028" d="M45.131,256.33a14.86,14.86,0,0,0,2.539,7.925c2.882,3.225,7.531-3.036,9.95-6.862a32.484,32.484,0,0,1-3.431,7.857c-5.507,8.491-11.013,12.506-10.018-2.5A44.988,44.988,0,0,1,45.131,256.33Z" transform="translate(31.517 183.389)" fill="none" stroke="#263238" stroke-linecap="round" stroke-linejoin="round" stroke-width="1"/>
    <path id="Path_2029" data-name="Path 2029" d="M91.266,49.08s-3,2.5-5.009,19.522,10.516,70.041,10.516,70.041-21.512,35.235-26.521,52.75-8.011,83.13-8.011,83.13,10.516,4.014,32.027,5.507,33.022-4,33.022-4,.995-93.646.995-108.073,1.012-47.243,2.5-51.24,6-14.513,6-18.51-30.089-46.626-30.089-46.626Z" transform="translate(44.53 35.114)" fill="#fff"/>
    <path id="Path_2030" data-name="Path 2030" d="M91.266,49.08s-3,2.5-5.009,19.522,10.516,70.041,10.516,70.041-21.512,35.235-26.521,52.75-8.011,83.13-8.011,83.13,10.516,4.014,32.027,5.507,33.022-4,33.022-4,.995-93.646.995-108.073,1.012-47.243,2.5-51.24,6-14.513,6-18.51-30.089-46.626-30.089-46.626Z" transform="translate(44.53 35.114)" fill="none" stroke="#263238" stroke-linecap="round" stroke-linejoin="round" stroke-width="1"/>
    <path id="Path_2031" data-name="Path 2031" d="M70.222,155.607C74.168,141.883,90.5,105.379,96.331,99.1c8.869,2.951,25.045,5.867,32.267,3.705-.223,5.146-.343,24.359-.343,29.283,0,14.513-.995,108.073-.995,108.073s-11.511,5.507-33.022,4-32.027-5.507-32.027-5.507,3-65.53,8.011-83.044" transform="translate(44.508 70.9)" fill="#263238"/>
    <path id="Path_2032" data-name="Path 2032" d="M70.222,155.607C74.168,141.883,90.5,105.379,96.331,99.1c8.869,2.951,25.045,5.867,32.267,3.705-.223,5.146-.343,24.359-.343,29.283,0,14.513-.995,108.073-.995,108.073s-11.511,5.507-33.022,4-32.027-5.507-32.027-5.507S65.213,173.121,70.222,155.607Z" transform="translate(44.508 70.9)" fill="none" stroke="#263238" stroke-linecap="round" stroke-linejoin="round" stroke-width="1"/>
    <path id="Path_2033" data-name="Path 2033" d="M85.631,19.579S91,7.88,101.619,7.88s15.336,9.435,12.986,17.686,7.068,5.9,8.251,11.219-7.668,8.835-12.385,8.835-24.84-26.04-24.84-26.04" transform="translate(61.264 5.638)" fill="#263238"/>
    <path id="Path_2034" data-name="Path 2034" d="M85.631,19.579S91,7.88,101.619,7.88s15.336,9.435,12.986,17.686,7.068,5.9,8.251,11.219-7.668,8.835-12.385,8.835S85.631,19.579,85.631,19.579Z" transform="translate(61.264 5.638)" fill="none" stroke="#263238" stroke-linecap="round" stroke-linejoin="round" stroke-width="1"/>
    <path id="Path_2035" data-name="Path 2035" d="M94.671,14.764c3.156-1.715,6.862-2.951,8.577-.274,3.311,5.146-6.982,9.195-3.671,14.718s11.408,4.048,11.03,5.884-5.507,2.933-5.507,2.933" transform="translate(67.731 9.253)" fill="none" stroke="#fff" stroke-linecap="round" stroke-linejoin="round" stroke-width="0.5"/>
    <path id="Path_2036" data-name="Path 2036" d="M91.521,16.988s1.012-.875,2.522-1.938" transform="translate(65.478 10.767)" fill="none" stroke="#fff" stroke-linecap="round" stroke-linejoin="round" stroke-width="0.5"/>
    <path id="Path_2037" data-name="Path 2037" d="M121.951,41.985a5.339,5.339,0,0,1-1.715-2.161c-.858-6.33-2.71-12.557-6.21-16.057a34.021,34.021,0,0,0-19.264-9.006,13.564,13.564,0,0,0-6.364.583c-9.109,3.191-16.931,9.486-15.25,24.668C75,56.737,88.019,60.923,88.019,60.923l.926,10.293,13,6.038.463-11.15s8.817,3.705,12.008,3.242S118.606,64.7,120,58.659a45.191,45.191,0,0,0,.755-8.354l3.894-3.877c2.213-2.247.034-2.8-2.693-4.443" transform="translate(52.168 10.456)" fill="#fff"/>
    <path id="Path_2038" data-name="Path 2038" d="M121.951,41.985a5.339,5.339,0,0,1-1.715-2.161c-.858-6.33-2.71-12.557-6.21-16.057a34.021,34.021,0,0,0-19.264-9.006,13.564,13.564,0,0,0-6.364.583c-9.109,3.191-16.931,9.486-15.25,24.668C75,56.737,88.019,60.923,88.019,60.923l.926,10.293,13,6.038.463-11.15s8.817,3.705,12.008,3.242S118.606,64.7,120,58.659a45.191,45.191,0,0,0,.755-8.354l3.894-3.877C126.857,44.18,124.678,43.631,121.951,41.985Z" transform="translate(52.168 10.456)" fill="none" stroke="#263238" stroke-linecap="round" stroke-linejoin="round" stroke-width="1"/>
    <path id="Path_2039" data-name="Path 2039" d="M73.13,40.012C71.414,24.83,79.271,18.535,88.38,15.344a13.564,13.564,0,0,1,6.364-.583A36.883,36.883,0,0,1,108.674,19.6c-2.607-.532,1.836,7.136-2.247,12.008A37.956,37.956,0,0,1,93.1,42.276s-4.632-3.723-6.038,1.389-.926,8.817,2.8,9.761,5.146,0,5.146,0-2.47,5.85-6.862,8.268v-.841s-13.072-4.1-15.01-20.843" transform="translate(52.15 10.456)" fill="#263238"/>
    <path id="Path_2040" data-name="Path 2040" d="M73.13,40.012C71.414,24.83,79.271,18.535,88.38,15.344a13.564,13.564,0,0,1,6.364-.583A36.883,36.883,0,0,1,108.674,19.6c-2.607-.532,1.836,7.136-2.247,12.008A37.956,37.956,0,0,1,93.1,42.276s-4.632-3.723-6.038,1.389-.926,8.817,2.8,9.761,5.146,0,5.146,0-2.47,5.85-6.862,8.268v-.841S75.068,56.755,73.13,40.012Z" transform="translate(52.15 10.456)" fill="none" stroke="#263238" stroke-linecap="round" stroke-linejoin="round" stroke-width="1"/>
    <path id="Path_2041" data-name="Path 2041" d="M105.81,54.793l-2.487,13.518L76.8,54.3l2.5-12.506Z" transform="translate(54.947 29.898)" fill="#fff"/>
    <path id="Path_2042" data-name="Path 2042" d="M105.81,54.793l-2.487,13.518L76.8,54.3l2.5-12.506Z" transform="translate(54.947 29.898)" fill="none" stroke="#263238" stroke-linecap="round" stroke-linejoin="round" stroke-width="1"/>
    <path id="Path_2043" data-name="Path 2043" d="M86.642,116.09a55.72,55.72,0,0,0,8.337,1.132c2.179-.137,5.146-2.59,7.342-1.544s5.266,7.651,5.266,7.651,2.916,1.475,2.076,3.036-4.443,3-4.443,3-3.431,3.242-5.421,3.568-14.118-8.577-14.118-8.577Z" transform="translate(61.3 82.575)" fill="#fff"/>
    <path id="Path_2044" data-name="Path 2044" d="M86.642,116.09a55.72,55.72,0,0,0,8.337,1.132c2.179-.137,5.146-2.59,7.342-1.544s5.266,7.651,5.266,7.651,2.916,1.475,2.076,3.036-4.443,3-4.443,3-3.431,3.242-5.421,3.568-14.118-8.577-14.118-8.577Z" transform="translate(61.3 82.575)" fill="none" stroke="#263238" stroke-linecap="round" stroke-linejoin="round" stroke-width="1"/>
    <path id="Path_2045" data-name="Path 2045" d="M109.918,166.827a4.2,4.2,0,0,0-1.287-6.416L75.3,129.19l36.3-56.438A13.055,13.055,0,0,0,89.041,59.629L57.58,122.157a8.681,8.681,0,0,0-.274,12.18l.12.12c3.156,4.872,37.877,30.346,48.032,33.674a4.167,4.167,0,0,0,4.46-1.3" transform="translate(39.31 38.254)" fill="#fff"/>
    <path id="Path_2046" data-name="Path 2046" d="M109.918,166.827a4.2,4.2,0,0,0-1.287-6.416L75.3,129.19l36.3-56.438A13.055,13.055,0,0,0,89.041,59.629L57.58,122.157a8.681,8.681,0,0,0-.274,12.18l.12.12c3.156,4.872,37.877,30.346,48.032,33.674A4.167,4.167,0,0,0,109.918,166.827Z" transform="translate(39.31 38.254)" fill="none" stroke="#263238" stroke-linecap="round" stroke-linejoin="round" stroke-width="1"/>
    <path id="Path_2047" data-name="Path 2047" d="M182.694,70.285S187,83.614,187,86.2a46.921,46.921,0,0,1-.429,5.592l3.791,5.884a1.715,1.715,0,0,1-.532,2.3l-5.85,3.431s-.858,13.724-1.715,15.439-15.439,1.3-15.439,1.3l-4.735,9.023-24.531-9.452,6.45-17.652-1.338-26.641s15.062-13.312,40.021-5.146" transform="translate(98.417 48.389)" fill="#fff"/>
    <path id="Path_2048" data-name="Path 2048" d="M182.694,70.285S187,83.614,187,86.2a46.921,46.921,0,0,1-.429,5.592l3.791,5.884a1.715,1.715,0,0,1-.532,2.3l-5.85,3.431s-.858,13.724-1.715,15.439-15.439,1.3-15.439,1.3l-4.735,9.023-24.531-9.452,6.45-17.652-1.338-26.641S157.735,62.12,182.694,70.285Z" transform="translate(98.417 48.389)" fill="none" stroke="#263238" stroke-linecap="round" stroke-linejoin="round" stroke-width="1"/>
    <path id="Path_2049" data-name="Path 2049" d="M166.461,110.732s-4.271,4.014-7.479,4.289-13.638-2.144-14.444-3.208-8.011-16.039-7.754-23.261.549-17.909,8.286-21.374,20.054-2.419,26.469-6.416,16.571-7.222,21.923-.274,1.338,16.571-2.933,20.585-9.624,5.146-9.092,6.862,3.74,3.74,1.87,6.416-8.577,5.146-8.577,6.141,1.612,4.82-.257,5.352-3.757-3.74-5.627-3.74-5.85,5.163-2.384,8.629" transform="translate(97.856 40.364)" fill="#263238"/>
    <path id="Path_2050" data-name="Path 2050" d="M166.461,110.732s-4.271,4.014-7.479,4.289-13.638-2.144-14.444-3.208-8.011-16.039-7.754-23.261.549-17.909,8.286-21.374,20.054-2.419,26.469-6.416,16.571-7.222,21.923-.274,1.338,16.571-2.933,20.585-9.624,5.146-9.092,6.862,3.74,3.74,1.87,6.416-8.577,5.146-8.577,6.141,1.612,4.82-.257,5.352-3.757-3.74-5.627-3.74S163,107.266,166.461,110.732Z" transform="translate(97.856 40.364)" fill="none" stroke="#263238" stroke-linecap="round" stroke-linejoin="round" stroke-width="1"/>
    <path id="Path_2051" data-name="Path 2051" d="M148.387,80.93a13.6,13.6,0,0,0-1.956,2.848" transform="translate(104.763 57.901)" fill="none" stroke="#fff" stroke-linecap="round" stroke-linejoin="round" stroke-width="0.5"/>
    <path id="Path_2052" data-name="Path 2052" d="M181.337,64.78a17.7,17.7,0,0,1-9.778,13.861c-6.862,3.551-16.005,6.45-22.078,10.91" transform="translate(106.945 46.346)" fill="none" stroke="#fff" stroke-linecap="round" stroke-linejoin="round" stroke-width="0.5"/>
    <path id="Path_2053" data-name="Path 2053" d="M174.186,74.84s-6.09,5.146-12.608,10.447a55.538,55.538,0,0,1-14.667,8.148" transform="translate(105.106 53.544)" fill="none" stroke="#fff" stroke-linecap="round" stroke-linejoin="round" stroke-width="0.5"/>
    <path id="Path_2054" data-name="Path 2054" d="M153.831,88.5l3.431.858a11.854,11.854,0,0,0,2.59,9.04" transform="translate(110.057 63.316)" fill="#fff"/>
    <path id="Path_2055" data-name="Path 2055" d="M153.831,88.5l3.431.858a11.854,11.854,0,0,0,2.59,9.04" transform="translate(110.057 63.316)" fill="none" stroke="#263238" stroke-linecap="round" stroke-linejoin="round" stroke-width="1"/>
    <line id="Line_294" data-name="Line 294" y1="6.004" x2="24.222" transform="translate(267.868 136.6)" fill="none" stroke="#263238" stroke-linecap="round" stroke-linejoin="round" stroke-width="1"/>
    <path id="Path_2056" data-name="Path 2056" d="M166.641,79.35l5.524.24s1.9,6.244-3.843,6.965" transform="translate(119.222 56.77)" fill="none" stroke="#263238" stroke-linecap="round" stroke-linejoin="round" stroke-width="1"/>
    <path id="Path_2057" data-name="Path 2057" d="M162.343,252.635s22.3,14.084,26.229,14.084,5.884,3.534,3.928,3.928-14.1.772-22.3,1.167-13.724-.395-18.407-.395-10.19.395-12.54-.772,1.578-14.5,1.578-16.846,18.767-2.745,21.512-1.167" transform="translate(99.091 180.067)" fill="#263238"/>
    <path id="Path_2058" data-name="Path 2058" d="M162.343,252.635s22.3,14.084,26.229,14.084,5.884,3.534,3.928,3.928-14.1.772-22.3,1.167-13.724-.395-18.407-.395-10.19.395-12.54-.772,1.578-14.5,1.578-16.846S159.6,251.057,162.343,252.635Z" transform="translate(99.091 180.067)" fill="none" stroke="#263238" stroke-linecap="round" stroke-linejoin="round" stroke-width="1"/>
    <path id="Path_2059" data-name="Path 2059" d="M191.115,261.026c-8.663,2.848-22.712.978-31.152.206-6.673-.6-17.154-.738-21.426-.772-.172,2.007,0,3.534.669,3.911,2.35,1.167,7.84.772,12.54.772s10.173.789,18.407.395,20.362-.789,22.3-1.167c1.527-.309.806-2.333-1.338-3.345" transform="translate(99.07 186.343)" fill="#fff"/>
    <path id="Path_2060" data-name="Path 2060" d="M191.115,261.026c-8.663,2.848-22.712.978-31.152.206-6.673-.6-17.154-.738-21.426-.772-.172,2.007,0,3.534.669,3.911,2.35,1.167,7.84.772,12.54.772s10.173.789,18.407.395,20.362-.789,22.3-1.167C193.98,264.062,193.259,262.038,191.115,261.026Z" transform="translate(99.07 186.343)" fill="none" stroke="#263238" stroke-linecap="round" stroke-linejoin="round" stroke-width="1"/>
    <path id="Path_2061" data-name="Path 2061" d="M179.972,195.84l-17.6,88.259,3.671,9.16a18.44,18.44,0,0,1-11.133,7.514,84.356,84.356,0,0,1-15.267,1.578s-1.956-9.8-.772-10.979,1.561-5.867,1.561-5.867L150.6,196.612Z" transform="translate(99.081 140.112)" fill="#37474f"/>
    <path id="Path_2062" data-name="Path 2062" d="M179.972,195.84l-17.6,88.259,3.671,9.16a18.44,18.44,0,0,1-11.133,7.514,84.356,84.356,0,0,1-15.267,1.578s-1.956-9.8-.772-10.979,1.561-5.867,1.561-5.867L150.6,196.612Z" transform="translate(99.081 140.112)" fill="none" stroke="#263238" stroke-linecap="round" stroke-linejoin="round" stroke-width="1"/>
    <path id="Path_2063" data-name="Path 2063" d="M206.051,252.149s13.724,11.356,19.985,13.312,12.917,3.911,12.917,5.867-14.873,3.911-26.229,2.745-28.6-6.261-32.508-6.261-3.139-10.19-3.139-11.751,19.2-14.1,28.974-3.911" transform="translate(126.644 177.569)" fill="#263238"/>
    <path id="Path_2064" data-name="Path 2064" d="M206.051,252.149s13.724,11.356,19.985,13.312,12.917,3.911,12.917,5.867-14.873,3.911-26.229,2.745-28.6-6.261-32.508-6.261-3.139-10.19-3.139-11.751S196.273,241.959,206.051,252.149Z" transform="translate(126.644 177.569)" fill="none" stroke="#263238" stroke-linecap="round" stroke-linejoin="round" stroke-width="1"/>
    <path id="Path_2065" data-name="Path 2065" d="M238.831,264.735c0-.7-.875-1.407-2.264-2.11a120.893,120.893,0,0,1-33.76-.24c-11.27-1.613-20.705-3.774-25.526-4.975.412,2.11,1.218,3.808,2.813,3.808,3.911,0,21.151,5.146,32.508,6.261s26.229-.789,26.229-2.745" transform="translate(126.834 184.161)" fill="#fff"/>
    <path id="Path_2066" data-name="Path 2066" d="M238.831,264.735c0-.7-.875-1.407-2.264-2.11a120.893,120.893,0,0,1-33.76-.24c-11.27-1.613-20.705-3.774-25.526-4.975.412,2.11,1.218,3.808,2.813,3.808,3.911,0,21.151,5.146,32.508,6.261S238.831,266.691,238.831,264.735Z" transform="translate(126.834 184.161)" fill="none" stroke="#263238" stroke-linecap="round" stroke-linejoin="round" stroke-width="1"/>
    <path id="Path_2067" data-name="Path 2067" d="M183.714,173a178.653,178.653,0,0,1,35.235.789c19.968,2.35,64.586,5.146,65.358,10.19S249.69,295.017,249.69,297.744s3.122,5.489,3.911,7.05a9.066,9.066,0,0,1,.789,3.534s-9.589,10.293-17.034,13.089-13.724.172-15.267.172-1.561-10.567-.377-15.662,3.122-18.012,3.517-19.179,21.838-76.543,21.838-76.543-58.325,9.4-93.166,5.472-38.374-9.383-40.33-17.618,1.956-24.668,1.956-24.668Z" transform="translate(80.86 123.396)" fill="#37474f"/>
    <path id="Path_2068" data-name="Path 2068" d="M183.714,173a178.653,178.653,0,0,1,35.235.789c19.968,2.35,64.586,5.146,65.358,10.19S249.69,295.017,249.69,297.744s3.122,5.489,3.911,7.05a9.066,9.066,0,0,1,.789,3.534s-9.589,10.293-17.034,13.089-13.724.172-15.267.172-1.561-10.567-.377-15.662,3.122-18.012,3.517-19.179,21.838-76.543,21.838-76.543-58.325,9.4-93.166,5.472-38.374-9.383-40.33-17.618,1.956-24.668,1.956-24.668Z" transform="translate(80.86 123.396)" fill="none" stroke="#263238" stroke-linecap="round" stroke-linejoin="round" stroke-width="1"/>
    <path id="Path_2069" data-name="Path 2069" d="M152.763,187.57a25.574,25.574,0,0,1-2.642,3.225" transform="translate(107.403 134.195)" fill="none" stroke="#263238" stroke-linecap="round" stroke-linejoin="round" stroke-width="1"/>
    <path id="Path_2070" data-name="Path 2070" d="M161.122,175.29a148.22,148.22,0,0,1-7.771,16.451" transform="translate(109.713 125.409)" fill="none" stroke="#263238" stroke-linecap="round" stroke-linejoin="round" stroke-width="1"/>
    <path id="Path_2071" data-name="Path 2071" d="M163.653,177.58a41.6,41.6,0,0,1-20.362,17.154" transform="translate(102.516 127.048)" fill="none" stroke="#263238" stroke-linecap="round" stroke-linejoin="round" stroke-width="1"/>
    <path id="Path_2072" data-name="Path 2072" d="M206.981,190.845c1.338-.515,2.625-1.046,3.843-1.6" transform="translate(148.083 135.397)" fill="#fff"/>
    <path id="Path_2073" data-name="Path 2073" d="M206.981,190.845c1.338-.515,2.625-1.046,3.843-1.6" transform="translate(148.083 135.397)" fill="none" stroke="#263238" stroke-linecap="round" stroke-linejoin="round" stroke-width="1"/>
    <path id="Path_2074" data-name="Path 2074" d="M191.161,196.824a201.568,201.568,0,0,0,22.3-5.644" transform="translate(136.764 136.778)" fill="#fff"/>
    <path id="Path_2075" data-name="Path 2075" d="M191.161,196.824a201.568,201.568,0,0,0,22.3-5.644" transform="translate(136.764 136.778)" fill="none" stroke="#263238" stroke-linecap="round" stroke-linejoin="round" stroke-width="1"/>
    <path id="Path_2076" data-name="Path 2076" d="M246.848,120.957c.823-3.276,2.2-3.019,1.1-4.1-1.51-1.51-2.728.274-7.1,2.728s-8.732,5.455-8.732,5.455a4.389,4.389,0,0,1,1.081-2.453,11.683,11.683,0,0,0,1.715-6c0-1.715-1.372-1.372-1.921.274s-5.455,4.632-5.73,6-1.252,6.759-1.252,6.759c-1.561,2.35-1.561,13.312-1.561,13.312l-31.787,23.879L176.6,185.681s7.05,11.356,10.962,9.8,5.867-3.139,15.267-10.979c7.96-6.639,27.91-37.259,27.91-37.259a74.162,74.162,0,0,0,9.829-7.376,23.827,23.827,0,0,0,5.935-14.41,18.05,18.05,0,0,1,.343-4.494" transform="translate(126.347 82.597)" fill="#fff"/>
    <path id="Path_2077" data-name="Path 2077" d="M246.848,120.957c.823-3.276,2.2-3.019,1.1-4.1-1.51-1.51-2.728.274-7.1,2.728s-8.732,5.455-8.732,5.455a4.389,4.389,0,0,1,1.081-2.453,11.683,11.683,0,0,0,1.715-6c0-1.715-1.372-1.372-1.921.274s-5.455,4.632-5.73,6-1.252,6.759-1.252,6.759c-1.561,2.35-1.561,13.312-1.561,13.312l-31.787,23.879L176.6,185.681s7.05,11.356,10.962,9.8,5.867-3.139,15.267-10.979c7.96-6.639,27.91-37.259,27.91-37.259a74.162,74.162,0,0,0,9.829-7.376,23.827,23.827,0,0,0,5.935-14.41A18.05,18.05,0,0,1,246.848,120.957Z" transform="translate(126.347 82.597)" fill="none" stroke="#263238" stroke-linecap="round" stroke-linejoin="round" stroke-width="1"/>
    <path id="Path_2078" data-name="Path 2078" d="M132.126,101.442s3.019-11.322,15.851-9.058,22.644,12.831,24.908,16.605-41.514-1.51-41.514-1.51Z" transform="translate(93.988 65.882)" fill="#fff"/>
    <path id="Path_2079" data-name="Path 2079" d="M132.126,101.442s3.019-11.322,15.851-9.058,22.644,12.831,24.908,16.605-41.514-1.51-41.514-1.51Z" transform="translate(93.988 65.882)" fill="none" stroke="#263238" stroke-linecap="round" stroke-linejoin="round" stroke-width="1"/>
    <path id="Path_2080" data-name="Path 2080" d="M175.484,165.98s-2.985,3.225,0,8.3c2.041,3.517,5.644,6.21,12.54,5.026,6.45-1.132,16.142-17.154,16.142-28.425s-8.3-12.008-11.322-9.812-17.36,24.908-17.36,24.908" transform="translate(124.599 100.222)" fill="#fff"/>
    <path id="Path_2081" data-name="Path 2081" d="M175.484,165.98s-2.985,3.225,0,8.3c2.041,3.517,5.644,6.21,12.54,5.026,6.45-1.132,16.142-17.154,16.142-28.425s-8.3-12.008-11.322-9.812S175.484,165.98,175.484,165.98Z" transform="translate(124.599 100.222)" fill="none" stroke="#263238" stroke-linecap="round" stroke-linejoin="round" stroke-width="1"/>
    <path id="Path_2082" data-name="Path 2082" d="M152.522,97.311s-30.535,14.5-34.841,17.154-7.05,36.8-7.05,42.68,4.306,63.471,5.472,73.215,38.769,16.451,51.309,12.917,24.754-12.437,24.754-15.576-1.184-29.746-.395-34.841,7.822-26.624,7.822-26.624l21.374,34.1s2.247,4.186,10.19.892c11.356-4.7,12.3-22.867,12.3-22.867S230.935,156.442,227.4,145.48s-5.146-19.2-6.656-21.151-36.813-18.407-43.075-22.712a27.845,27.845,0,0,0-25.148-4.306" transform="translate(79.15 68.692)" fill="#fff"/>
    <path id="Path_2083" data-name="Path 2083" d="M152.522,97.311s-30.535,14.5-34.841,17.154-7.05,36.8-7.05,42.68,4.306,63.471,5.472,73.215,38.769,16.451,51.309,12.917,24.754-12.437,24.754-15.576-1.184-29.746-.395-34.841,7.822-26.624,7.822-26.624l21.374,34.1s2.247,4.186,10.19.892c11.356-4.7,12.3-22.867,12.3-22.867S230.935,156.442,227.4,145.48s-5.146-19.2-6.656-21.151-36.813-18.407-43.075-22.712A27.845,27.845,0,0,0,152.522,97.311Z" transform="translate(79.15 68.692)" fill="none" stroke="#263238" stroke-linecap="round" stroke-linejoin="round" stroke-width="1"/>
    <line id="Line_295" data-name="Line 295" x1="10.173" y1="14.89" transform="translate(268.486 220.04)" fill="none" stroke="#263238" stroke-linecap="round" stroke-linejoin="round" stroke-width="1"/>
    <line id="Line_296" data-name="Line 296" x1="17.926" y1="8.835" transform="translate(259.085 223.968)" fill="none" stroke="#263238" stroke-linecap="round" stroke-linejoin="round" stroke-width="1"/>
    <path id="Path_2084" data-name="Path 2084" d="M130.511,201.945,146.156,313.14a1.87,1.87,0,0,0,2.11,1.594c.058-.009.115-.019.172-.033a1.906,1.906,0,0,0,1.441-2.007L138.848,200.11Z" transform="translate(93.373 143.167)" fill="#263238"/>
    <path id="Path_2085" data-name="Path 2085" d="M130.511,201.945,146.156,313.14a1.87,1.87,0,0,0,2.11,1.594c.058-.009.115-.019.172-.033a1.906,1.906,0,0,0,1.441-2.007L138.848,200.11Z" transform="translate(93.373 143.167)" fill="none" stroke="#263238" stroke-linecap="round" stroke-linejoin="round" stroke-width="1"/>
    <path id="Path_2086" data-name="Path 2086" d="M115.235,201.69l-26.143,109.2a1.869,1.869,0,0,0,1.389,2.249c.057.014.115.024.172.033a1.853,1.853,0,0,0,2.059-1.338l30.363-105.98Z" transform="translate(63.704 144.297)" fill="#263238"/>
    <path id="Path_2087" data-name="Path 2087" d="M115.235,201.69l-26.143,109.2a1.869,1.869,0,0,0,1.389,2.249c.057.014.115.024.172.033a1.853,1.853,0,0,0,2.059-1.338l30.363-105.98Z" transform="translate(63.704 144.297)" fill="none" stroke="#263238" stroke-linecap="round" stroke-linejoin="round" stroke-width="1"/>
    <path id="Path_2088" data-name="Path 2088" d="M138.94,200.9,122.3,311.94a1.887,1.887,0,0,0,1.585,2.146c.043.007.087.012.13.015a1.87,1.87,0,0,0,1.938-1.51l21.117-108.21Z" transform="translate(87.483 143.732)" fill="#263238"/>
    <path id="Path_2089" data-name="Path 2089" d="M138.94,200.9,122.3,311.94a1.887,1.887,0,0,0,1.585,2.146c.043.007.087.012.13.015a1.87,1.87,0,0,0,1.938-1.51l21.117-108.21Z" transform="translate(87.483 143.732)" fill="none" stroke="#263238" stroke-linecap="round" stroke-linejoin="round" stroke-width="1"/>
    <path id="Path_2090" data-name="Path 2090" d="M166.331,201.96l15.645,111.195a1.87,1.87,0,0,0,2.11,1.594c.058-.009.115-.019.172-.033a1.906,1.906,0,0,0,1.441-2.007L174.617,200.09Z" transform="translate(119 143.152)" fill="#263238"/>
    <path id="Path_2091" data-name="Path 2091" d="M166.331,201.96l15.645,111.195a1.87,1.87,0,0,0,2.11,1.594c.058-.009.115-.019.172-.033a1.906,1.906,0,0,0,1.441-2.007L174.617,200.09Z" transform="translate(119 143.152)" fill="none" stroke="#263238" stroke-linecap="round" stroke-linejoin="round" stroke-width="1"/>
    <path id="Path_2092" data-name="Path 2092" d="M89.943,139.877l19.041,123.8H244.4s2.007-35.681-3.963-48.29-79.682,14.427-82.341,13.724c-1.973-.5.943-64.415,4.563-89.392A12.387,12.387,0,0,0,150.4,125.57h-48.2a12.385,12.385,0,0,0-12.4,12.373,12.171,12.171,0,0,0,.149,1.933" transform="translate(64.242 89.838)" fill="#37474f"/>
    <path id="Path_2093" data-name="Path 2093" d="M89.943,139.877l19.041,123.8H244.4s2.007-35.681-3.963-48.29-79.682,14.427-82.341,13.724c-1.973-.5.943-64.415,4.563-89.392A12.387,12.387,0,0,0,150.4,125.57h-48.2a12.385,12.385,0,0,0-12.4,12.373A12.171,12.171,0,0,0,89.943,139.877Z" transform="translate(64.242 89.838)" fill="none" stroke="#263238" stroke-linecap="round" stroke-linejoin="round" stroke-width="1"/>
    <path id="Path_2094" data-name="Path 2094" d="M219.984,215.4c-5.97-12.608-79.682,14.427-82.341,13.724-1.973-.5.943-64.415,4.563-89.392a12.008,12.008,0,1,0-23.6.12l19.041,123.8h86.3S225.954,228,219.984,215.4" transform="translate(84.697 89.833)" fill="#263238"/>
    <path id="Path_2095" data-name="Path 2095" d="M219.984,215.4c-5.97-12.608-79.682,14.427-82.341,13.724-1.973-.5.943-64.415,4.563-89.392a12.008,12.008,0,1,0-23.6.12l19.041,123.8h86.3S225.954,228,219.984,215.4Z" transform="translate(84.697 89.833)" fill="none" stroke="#263238" stroke-linecap="round" stroke-linejoin="round" stroke-width="1"/>
    <path id="Path_2096" data-name="Path 2096" d="M219.826,118.66s-2.179,2.179-5.455,6" transform="translate(153.37 84.894)" fill="#fff"/>
    <path id="Path_2097" data-name="Path 2097" d="M219.826,118.66s-2.179,2.179-5.455,6" transform="translate(153.37 84.894)" fill="none" stroke="#263238" stroke-linecap="round" stroke-linejoin="round" stroke-width="1"/>
    <path id="Path_2098" data-name="Path 2098" d="M219.14,121.24s-2.659,5.4-4.289,7.857" transform="translate(153.713 86.74)" fill="#fff"/>
    <path id="Path_2099" data-name="Path 2099" d="M219.14,121.24s-2.659,5.4-4.289,7.857" transform="translate(153.713 86.74)" fill="none" stroke="#263238" stroke-linecap="round" stroke-linejoin="round" stroke-width="1"/>
    <path id="Path_2100" data-name="Path 2100" d="M6.04,162.608c2.848,1.235,9.8,1.081,9.812,1.081s-1.492-4.546-1.63-4.82c-1.527-3.208-6.364-8.474-10.293-7.942A4.682,4.682,0,0,0,.062,156.3a4.8,4.8,0,0,0,.112.508c.652,2.71,3.431,4.735,5.867,5.8" transform="translate(0 107.951)" fill="#263238"/>
    <path id="Path_2101" data-name="Path 2101" d="M97.11,147.346c-3.946-.429-8.577,4.975-10.07,8.217-.12.274-1.561,4.872-1.492,4.872-.755.841-1.544,1.715-2.384,2.779-1.544,1.887-3.259,4.048-4.992,6.519a87.761,87.761,0,0,0-5.146,8.234,62.809,62.809,0,0,0-4.426,9.95.353.353,0,0,1,0,.12v-4.649c-.463-3.517-3.431-10.035-7.308-10.756a4.684,4.684,0,0,0-5.369,3.877,4.25,4.25,0,0,0-.051.463c-.24,2.8,1.715,5.592,3.757,7.342,2.23,1.99,8.406,3.911,8.9,4.066a80.244,80.244,0,0,0-2.607,10.893c-.395,2.127-.7,4.271-.995,6.433v-2.024c-.446-3.517-3.431-10.035-7.291-10.756a4.7,4.7,0,0,0-5.371,3.918c-.024.163-.041.326-.05.491-.223,2.8,1.715,5.592,3.774,7.359s7.222,3.534,8.577,3.963c-.1.841-.223,1.715-.326,2.487-.463,3.98-.926,7.96-1.492,11.837-.206,1.372-.446,2.71-.686,4.048v-1.715c-.463-3.517-3.431-10.035-7.308-10.756A4.7,4.7,0,0,0,49.4,218.5a4.638,4.638,0,0,0-.048.487c-.223,2.779,1.715,5.575,3.774,7.342a30.023,30.023,0,0,0,8.32,3.825c-.292,1.372-.583,2.728-.926,4.048-.257.892-.429,1.715-.738,2.642s-.566,1.715-.841,2.607c-.6,1.63-1.2,3.328-1.818,4.906-.429,1.115-.858,2.161-1.269,3.208.206-1.355.566-4.031.583-4.254a18.274,18.274,0,0,0-2.453-8.869,4.134,4.134,0,0,0,0-1.029,4.684,4.684,0,0,0-5.2-4.1,4.813,4.813,0,0,0-.582.106c-3.843,1.012-6.261,7.737-6.45,11.27,0,.206.137,2.487.24,3.928-.189-.841-.377-1.715-.583-2.5-.395-1.715-.858-3.431-1.321-5.146-.274-.875-.532-1.715-.806-2.625s-.618-1.715-.926-2.676c-.755-2.076-1.613-4.134-2.539-6.193,1.475-.36,6.725-1.715,8.835-3.311s4.323-4.254,4.306-7.05a4.683,4.683,0,0,0-4.537-4.824,4.5,4.5,0,0,0-.609.021c-3.946.429-7.376,6.707-8.08,10.173,0,.223-.292,2.762-.395,4.169-.549-1.235-1.115-2.47-1.715-3.705-1.715-3.534-3.671-7.085-5.541-10.619l-1.715-3.259c.532-.12,6.862-1.561,9.16-3.431s4.323-4.237,4.306-7.05a4.7,4.7,0,0,0-4.575-4.822,4.547,4.547,0,0,0-.571.019c-3.946.429-7.359,6.707-8.08,10.173,0,.274-.395,3.928-.429,4.872-1.235-2.384-2.453-4.786-3.551-7.188a82.484,82.484,0,0,1-3.877-10c.24,0,6.862-1.544,9.229-3.431,2.093-1.613,4.323-4.254,4.289-7.05a4.683,4.683,0,0,0-4.537-4.824,4.509,4.509,0,0,0-.609.021c-3.946.429-7.359,6.707-8.08,10.173,0,.274-.412,4.22-.429,4.94a2.079,2.079,0,0,0-.206-.6A61.616,61.616,0,0,1,16.4,178.31c-.206-1.973-.309-3.86-.377-5.712,1.252-.154,6.862-.909,9.315-2.333s4.769-3.757,5.146-6.536a4.7,4.7,0,0,0-4.512-5.335c-3.98,0-8.063,5.867-9.16,9.229,0,.189-.446,2.11-.72,3.517v-2.487c0-3,.189-5.747.377-8.165.12-1.39.257-2.642.395-3.808,1.149-.789,5.73-4.014,7.136-6.33s2.5-5.524,1.475-8.131a4.683,4.683,0,0,0-5.985-2.836,4.216,4.216,0,0,0-.465.194c-3.534,1.818-4.46,8.9-3.877,12.4,0,.292,1.39,4.923,1.441,4.889-.154,1.115-.309,2.316-.446,3.637-.24,2.436-.48,5.146-.566,8.2a85.688,85.688,0,0,0,.24,9.709,61.292,61.292,0,0,0,1.715,10.739.353.353,0,0,1,0,.12c-.618-.978-2.453-3.654-2.625-3.843-2.316-2.676-8.371-6.5-12.008-4.94a4.684,4.684,0,0,0-2.331,6.2,5.01,5.01,0,0,0,.238.456c1.355,2.453,4.58,3.671,7.2,4.048,2.951.429,9.16-1.372,9.658-1.51a83.6,83.6,0,0,0,3.757,10.43c.858,1.973,1.715,3.946,2.728,5.9-.566-.841-1.081-1.578-1.149-1.715-2.316-2.676-8.371-6.5-12.008-4.94a4.684,4.684,0,0,0-2.047,6.3,4.562,4.562,0,0,0,.28.477c1.338,2.453,4.58,3.671,7.188,4.048s7.977-1.029,9.383-1.441c.377.755.738,1.51,1.115,2.247,1.715,3.585,3.62,7.153,5.284,10.7.583,1.252,1.115,2.5,1.715,3.757L32.9,224.009c-2.316-2.676-8.371-6.484-12.008-4.94a4.7,4.7,0,0,0-2.306,6.234,4.649,4.649,0,0,0,.23.439c1.355,2.453,4.58,3.671,7.188,4.048a30.37,30.37,0,0,0,9.143-1.372c.515,1.3,1.029,2.607,1.458,3.877.292.892.618,1.715.841,2.625s.5,1.715.738,2.642c.412,1.715.841,3.431,1.2,5.146.257,1.149.48,2.264.7,3.431-.583-1.252-1.715-3.688-1.87-3.877-1.887-3-7.291-7.685-11.133-6.707a4.7,4.7,0,0,0-3.211,5.821c.045.154.1.307.158.458.961,2.625,3.963,4.323,6.484,5.146,2.8.841,8.955,0,9.727,0,.377,1.836.7,3.637,1.012,5.335,1.029,5.884,1.715,10.842,2.076,14.29a16.925,16.925,0,0,0,.189,1.715H31.512l4.357,85.034H56.214l4.357-85.034H49.438l.257-.5c1.527-3.191,3.637-7.754,5.918-13.346.738-1.715,1.475-3.654,2.213-5.61.755.154,6.862,1.39,9.692.738,2.59-.583,5.712-2.041,6.862-4.58a4.684,4.684,0,0,0-2.11-6.279,4.76,4.76,0,0,0-.48-.206c-3.757-1.269-9.486,3-11.6,5.85-.12.172-1.269,2.144-1.973,3.431l.909-2.4c.6-1.63,1.149-3.294,1.715-5.061l.772-2.625c.292-.875.48-1.818.72-2.745.5-2.144.909-4.34,1.287-6.57,1.424.515,6.553,2.3,9.195,2.11s5.953-1.149,7.479-3.431a4.7,4.7,0,0,0-1.091-6.556,4.632,4.632,0,0,0-.487-.305c-3.431-1.715-9.847,1.544-12.351,4.031-.154.172-1.715,2.161-2.607,3.277.206-1.338.412-2.676.583-4.048.5-3.928.858-7.925,1.252-11.905.12-1.218.257-2.436.377-3.654.515.189,6.553,2.436,9.521,2.23,2.625-.189,5.935-1.149,7.462-3.431a4.7,4.7,0,0,0-1.091-6.556,4.631,4.631,0,0,0-.487-.305c-3.431-1.8-9.829,1.544-12.351,4.031-.189.189-2.487,3.071-3.036,3.825.292-2.676.6-5.335,1.012-7.96a80.736,80.736,0,0,1,2.282-10.464c.24,0,6.519,2.453,9.572,2.247,2.625-.189,5.935-1.166,7.462-3.431a4.683,4.683,0,0,0-1.06-6.538,4.364,4.364,0,0,0-.518-.324c-3.431-1.818-9.829,1.527-12.351,4.031-.189.189-2.659,3.294-3.071,3.877l.154-.6a61.052,61.052,0,0,1,4.151-9.915c.909-1.715,1.87-3.431,2.83-4.975,1.132.566,6.313,3.088,9.058,3.191s6.038-.5,7.822-2.659a4.684,4.684,0,0,0-.5-6.6c-.1-.091-.214-.177-.328-.257-3.311-2.2-9.95.429-12.711,2.642-.154.12-1.561,1.51-2.556,2.539.446-.7.892-1.441,1.338-2.093,1.715-2.5,3.328-4.683,4.838-6.622.858-1.081,1.715-2.041,2.419-2.933,1.39,0,7-.206,9.452-1.355s5.146-3.225,5.712-5.953a4.685,4.685,0,0,0-3.894-6.227M53.452,253.274c-2.384,5.489-4.58,9.967-6.141,13.072l-.875,1.715h-.257a16.368,16.368,0,0,0-.274-2.007c-.48-3.431-1.235-8.474-2.419-14.393-.36-1.87-.789-3.86-1.252-5.9a52.582,52.582,0,0,0,5.421-2.556,34.3,34.3,0,0,0,7.908,5.146c-.7,1.664-1.424,3.345-2.11,4.923" transform="translate(0.106 99.523)" fill="#263238"/>
    <path id="Path_2102" data-name="Path 2102" d="M48.567,165.964s1.269-4.615,1.3-4.923c.5-3.517-.618-10.567-4.2-12.3a4.7,4.7,0,0,0-6.21,2.371q-.085.193-.154.391c-.961,2.625.257,5.85,1.715,8.08,1.715,2.676,7.548,6.381,7.548,6.381" transform="translate(27.875 106.122)" fill="#263238"/>
    <rect id="Rectangle_620" data-name="Rectangle 620" width="697.755" height="8.543" transform="translate(24.601 452.464)" fill="#263238"/>
  </g>
</svg>
