<svg xmlns="http://www.w3.org/2000/svg" width="21" height="20" viewBox="0 0 21 20">
  <g id="Group_191" data-name="Group 191" transform="translate(2.466 1.518)">
    <path id="Icon_awesome-arrow-right" data-name="Icon awesome-arrow-right" d="M3.5,3.184l.408-.408a.439.439,0,0,1,.622,0L8.1,6.344a.439.439,0,0,1,0,.622L4.528,10.536a.439.439,0,0,1-.622,0L3.5,10.129a.441.441,0,0,1,.007-.63L5.718,7.391H.441A.44.44,0,0,1,0,6.95V6.363a.44.44,0,0,1,.441-.441H5.718L3.505,3.814A.438.438,0,0,1,3.5,3.184Z" transform="translate(4.113 1.466)" fill="#fff"/>
    <g id="Path_1353" data-name="Path 1353" transform="translate(-0.466 0.482)" fill="none" stroke-linecap="round">
      <path d="M8.5,0A8.261,8.261,0,0,1,17,8a8.261,8.261,0,0,1-8.5,8A8.261,8.261,0,0,1,0,8,8.261,8.261,0,0,1,8.5,0Z" stroke="none"/>
      <path d="M 8.5 0 C 3.805580139160156 0 0 3.581720352172852 0 8 C 0 12.41827964782715 3.805580139160156 16 8.5 16 C 13.19441986083984 16 17 12.41827964782715 17 8 C 17 3.581720352172852 13.19441986083984 0 8.5 0 M 8.5 -2 C 11.28190994262695 -2 13.90324020385742 -0.9748001098632812 15.88113975524902 0.8867397308349609 C 17.89237022399902 2.779669761657715 19 5.305870056152344 19 8 C 19 10.69412994384766 17.89237022399902 13.22033023834229 15.88113975524902 15.11326026916504 C 13.90324020385742 16.97480010986328 11.28190994262695 18 8.5 18 C 5.718090057373047 18 3.096759796142578 16.97480010986328 1.118860244750977 15.11326026916504 C -0.8923702239990234 13.22033023834229 -2 10.69412994384766 -2 8 C -2 5.305870056152344 -0.8923702239990234 2.779669761657715 1.118860244750977 0.8867397308349609 C 3.096759796142578 -0.9748001098632812 5.718090057373047 -2 8.5 -2 Z" stroke="none" fill="#fff"/>
    </g>
  </g>
</svg>
