<svg id="Group_815" data-name="Group 815" xmlns="http://www.w3.org/2000/svg" xmlns:xlink="http://www.w3.org/1999/xlink" width="646.132" height="513.571" viewBox="0 0 646.132 513.571">
  <defs>
    <clipPath id="clip-path">
      <rect id="Rectangle_312" data-name="Rectangle 312" width="646.132" height="513.571" fill="none"/>
    </clipPath>
    <clipPath id="clip-path-5">
      <rect id="Rectangle_292" data-name="Rectangle 292" width="37.082" height="72.371" fill="none"/>
    </clipPath>
    <clipPath id="clip-path-6">
      <rect id="Rectangle_293" data-name="Rectangle 293" width="39.025" height="85.216" fill="none"/>
    </clipPath>
    <clipPath id="clip-path-8">
      <rect id="Rectangle_295" data-name="Rectangle 295" width="228.52" height="334.913" fill="none"/>
    </clipPath>
    <clipPath id="clip-path-10">
      <rect id="Rectangle_297" data-name="Rectangle 297" width="245.54" height="331.511" fill="none"/>
    </clipPath>
    <clipPath id="clip-path-14">
      <rect id="Rectangle_301" data-name="Rectangle 301" width="246.096" height="331.531" fill="none"/>
    </clipPath>
    <clipPath id="clip-path-16">
      <rect id="Rectangle_303" data-name="Rectangle 303" width="228.52" height="334.915" fill="none"/>
    </clipPath>
    <clipPath id="clip-path-17">
      <rect id="Rectangle_304" data-name="Rectangle 304" width="169.926" height="293.542" fill="none"/>
    </clipPath>
    <clipPath id="clip-path-18">
      <rect id="Rectangle_305" data-name="Rectangle 305" width="58.594" height="101.488" fill="none"/>
    </clipPath>
    <clipPath id="clip-path-19">
      <rect id="Rectangle_306" data-name="Rectangle 306" width="52.738" height="163.424" fill="none"/>
    </clipPath>
    <clipPath id="clip-path-20">
      <rect id="Rectangle_307" data-name="Rectangle 307" width="251.961" height="307.851" fill="none"/>
    </clipPath>
    <clipPath id="clip-path-21">
      <rect id="Rectangle_308" data-name="Rectangle 308" width="69.266" height="114.397" fill="none"/>
    </clipPath>
    <clipPath id="clip-path-22">
      <rect id="Rectangle_309" data-name="Rectangle 309" width="23.464" height="30.352" fill="none"/>
    </clipPath>
    <clipPath id="clip-path-23">
      <rect id="Rectangle_310" data-name="Rectangle 310" width="47.193" height="73.748" fill="none"/>
    </clipPath>
  </defs>
  <g id="Group_814" data-name="Group 814" clip-path="url(#clip-path)">
    <g id="Group_757" data-name="Group 757">
      <g id="Group_756" data-name="Group 756" clip-path="url(#clip-path)">
        <path id="Path_903" data-name="Path 903" d="M94.625,410.139c126.165,65.909,330.72,65.912,456.882,0s126.167-172.769,0-238.681-330.72-65.911-456.883,0-126.165,172.772,0,238.68" transform="translate(0 53.997)" fill="#f5f5f5"/>
      </g>
    </g>
    <path id="Path_904" data-name="Path 904" d="M53.763,281.084,12.747,257.4V169.445l41.017,23.681Z" transform="translate(5.64 74.979)" fill="#e0e0e0"/>
    <path id="Path_905" data-name="Path 905" d="M41.181,196.239,99.775,162.41v87.956L41.181,284.2Z" transform="translate(18.222 71.866)" fill="#ebebeb"/>
    <path id="Path_906" data-name="Path 906" d="M112.357,169.674,53.763,203.5,12.746,179.822,71.34,145.993Z" transform="translate(5.64 64.601)" fill="#f5f5f5"/>
    <path id="Path_907" data-name="Path 907" d="M45.244,196.509,92.12,169.445l1.078.623v32.58L46.32,229.711l-1.078-.623Z" transform="translate(20.019 74.979)" fill="#e0e0e0"/>
    <path id="Path_908" data-name="Path 908" d="M45.991,196.941l46.875-27.064v32.58L45.99,229.519Z" transform="translate(20.35 75.17)" fill="#f5f5f5"/>
    <g id="Group_759" data-name="Group 759">
      <g id="Group_758" data-name="Group 758" clip-path="url(#clip-path)">
        <path id="Path_909" data-name="Path 909" d="M59.3,186.621l7.971-4.6c1.036-.6,1.874-.325,1.874.61a3.747,3.747,0,0,1-1.874,2.772L59.3,190c-1.034.6-1.874.325-1.872-.609a3.75,3.75,0,0,1,1.874-2.774" transform="translate(25.412 80.402)" fill="#e0e0e0"/>
        <path id="Path_910" data-name="Path 910" d="M44.5,225.087l46.877-27.064,0,32.58,1.079.623L45.572,258.29l-1.078-.625Z" transform="translate(19.689 87.624)" fill="#e0e0e0"/>
        <path id="Path_911" data-name="Path 911" d="M45.243,225.52,92.12,198.454v32.58L45.242,258.1Z" transform="translate(20.019 87.815)" fill="#f5f5f5"/>
        <path id="Path_912" data-name="Path 912" d="M58.555,215.2l7.971-4.6c1.036-.6,1.874-.323,1.874.61a3.751,3.751,0,0,1-1.874,2.774l-7.973,4.6c-1.034.6-1.874.323-1.872-.61a3.753,3.753,0,0,1,1.874-2.774" transform="translate(25.081 93.048)" fill="#e0e0e0"/>
        <path id="Path_913" data-name="Path 913" d="M53.762,216.591,12.745,192.909V104.952l41.016,23.681Z" transform="translate(5.639 46.441)" fill="#e0e0e0"/>
        <path id="Path_914" data-name="Path 914" d="M41.179,131.746l58.6-33.829v87.958L41.181,219.7Z" transform="translate(18.222 43.328)" fill="#ebebeb"/>
        <path id="Path_915" data-name="Path 915" d="M112.356,105.181l-58.6,33.829L12.745,115.33,71.339,81.5Z" transform="translate(5.639 36.063)" fill="#f5f5f5"/>
        <path id="Path_916" data-name="Path 916" d="M45.242,132.015l46.877-27.064,1.078.623v32.58L46.32,165.217l-1.079-.623Z" transform="translate(20.019 46.44)" fill="#e0e0e0"/>
        <path id="Path_917" data-name="Path 917" d="M59.3,122.127l7.97-4.6c1.036-.6,1.874-.325,1.874.609a3.749,3.749,0,0,1-1.874,2.774l-7.973,4.6c-1.034.6-1.872.325-1.872-.609a3.753,3.753,0,0,1,1.875-2.774" transform="translate(25.411 51.864)" fill="#e0e0e0"/>
        <path id="Path_918" data-name="Path 918" d="M44.494,160.594,91.371,133.53v32.58l1.078.623L45.572,193.8l-1.079-.623Z" transform="translate(19.688 59.086)" fill="#e0e0e0"/>
        <path id="Path_919" data-name="Path 919" d="M45.242,161.026l46.875-27.064v32.58L45.241,193.6Z" transform="translate(20.019 59.278)" fill="#f5f5f5"/>
        <path id="Path_920" data-name="Path 920" d="M58.554,150.706l7.971-4.6c1.036-.6,1.874-.326,1.874.609a3.749,3.749,0,0,1-1.874,2.774l-7.973,4.6c-1.034.6-1.872.325-1.872-.609a3.753,3.753,0,0,1,1.874-2.774" transform="translate(25.081 64.51)" fill="#e0e0e0"/>
        <path id="Path_921" data-name="Path 921" d="M45.242,132.015l46.877-27.064v32.58L45.24,164.593Z" transform="translate(20.019 46.44)" fill="#e0e0e0"/>
        <path id="Path_922" data-name="Path 922" d="M101.858,120.652,76.2,105.842v28.7l25.659,14.812Z" transform="translate(33.717 46.835)" fill="#e0e0e0"/>
        <path id="Path_923" data-name="Path 923" d="M57.428,168.19v-40.6l10.059-5.826,1.66,2.444,29.3-16.915v37.212Z" transform="translate(25.412 47.478)" fill="#ebebeb"/>
        <path id="Path_924" data-name="Path 924" d="M57.428,167.671l2.928-35.521,41.017-23.68-2.928,35.52Z" transform="translate(25.412 47.997)" fill="#f5f5f5"/>
        <path id="Path_925" data-name="Path 925" d="M68.35,138.832,45.987,125.92v28.7l22.363,12.91Z" transform="translate(20.348 55.719)" fill="#ebebeb"/>
        <path id="Path_926" data-name="Path 926" d="M61.49,141.4l46.875-27.064v32.58L61.489,173.974Z" transform="translate(27.209 50.591)" fill="#f5f5f5"/>
        <path id="Path_927" data-name="Path 927" d="M74.8,131.076l7.971-4.6c1.036-.6,1.874-.325,1.874.61a3.749,3.749,0,0,1-1.874,2.772l-7.973,4.6c-1.034.6-1.872.325-1.872-.61a3.753,3.753,0,0,1,1.874-2.772" transform="translate(32.27 55.824)" fill="#e0e0e0"/>
        <path id="Path_928" data-name="Path 928" d="M61.969,133.37l-1.562-.9v32.579l1.562.9Z" transform="translate(26.73 58.617)" fill="#e0e0e0"/>
        <path id="Path_929" data-name="Path 929" d="M60.407,140.771l46.877-27.064,1.561.9L61.969,141.673Z" transform="translate(26.73 50.315)" fill="#ebebeb"/>
        <path id="Path_930" data-name="Path 930" d="M389.64,244.137l-41.017-23.68V132.5L389.64,156.18Z" transform="translate(154.264 58.63)" fill="#e0e0e0"/>
        <path id="Path_931" data-name="Path 931" d="M377.057,159.293l58.594-33.829V213.42l-58.6,33.831Z" transform="translate(166.847 55.517)" fill="#ebebeb"/>
        <path id="Path_932" data-name="Path 932" d="M448.234,132.728,389.64,166.557l-41.017-23.681,58.594-33.828Z" transform="translate(154.264 48.253)" fill="#f5f5f5"/>
        <path id="Path_933" data-name="Path 933" d="M381.12,159.563,428,132.5l1.078.623V165.7L382.2,192.765l-1.078-.623Z" transform="translate(168.644 58.63)" fill="#e0e0e0"/>
        <path id="Path_934" data-name="Path 934" d="M381.868,159.995l46.875-27.064v32.58l-46.875,27.063Z" transform="translate(168.974 58.821)" fill="#f5f5f5"/>
        <path id="Path_935" data-name="Path 935" d="M395.18,149.675l7.97-4.6c1.036-.6,1.874-.325,1.874.609a3.751,3.751,0,0,1-1.874,2.774l-7.971,4.6c-1.036.6-1.874.325-1.874-.609a3.751,3.751,0,0,1,1.875-2.774" transform="translate(174.036 64.054)" fill="#e0e0e0"/>
        <path id="Path_936" data-name="Path 936" d="M380.373,188.141l46.875-27.064v32.58l1.078.623L381.45,221.343l-1.078-.623Z" transform="translate(168.313 71.276)" fill="#e0e0e0"/>
        <path id="Path_937" data-name="Path 937" d="M381.12,188.573,428,161.509v32.58l-46.875,27.063Z" transform="translate(168.644 71.467)" fill="#f5f5f5"/>
        <path id="Path_938" data-name="Path 938" d="M394.432,178.253l7.971-4.6c1.034-.6,1.874-.325,1.874.61a3.758,3.758,0,0,1-1.874,2.774l-7.973,4.6c-1.036.6-1.874.325-1.874-.609a3.755,3.755,0,0,1,1.875-2.774" transform="translate(173.705 76.699)" fill="#e0e0e0"/>
      </g>
    </g>
    <g id="Group_767" data-name="Group 767">
      <g id="Group_766" data-name="Group 766" clip-path="url(#clip-path)">
        <path id="Path_939" data-name="Path 939" d="M116.009,295.828s.17-22.878-14.255-40.031C88.977,240.6,82.186,230.968,86.22,226.531s12.667-5.509,24.342,6.767,12.577,46.333,10.966,54.039Z" transform="translate(37.638 98.879)" fill="#ededed"/>
        <g id="Group_762" data-name="Group 762" transform="translate(105.387 362.726)" opacity="0.2">
          <g id="Group_761" data-name="Group 761">
            <g id="Group_760" data-name="Group 760" clip-path="url(#clip-path-5)">
              <path id="Path_940" data-name="Path 940" d="M104.009,323.828s.17-22.878-14.255-40.031c-12.778-15.192-19.569-24.83-15.534-29.267s12.667-5.509,24.342,6.767,12.577,46.333,10.966,54.039Z" transform="translate(-73.058 -251.457)" fill="#d4d8d7"/>
            </g>
          </g>
        </g>
        <path id="Path_941" data-name="Path 941" d="M116.3,270.138a.721.721,0,0,1-.7-.571c-5.049-23.615-18.011-36.67-25.288-42.35a.722.722,0,0,1,.887-1.138c7.433,5.8,20.668,19.126,25.811,43.187a.721.721,0,0,1-.554.857.771.771,0,0,1-.151.016" transform="translate(39.837 99.972)" fill="#fff"/>
        <path id="Path_942" data-name="Path 942" d="M121.309,295.774l-5.859,3.384a10.615,10.615,0,0,0-7.912-6.767c-6.412-1.5-13.083-1.2-17.574-6.767s.977-11.618,0-15.719-1.629-5.28-9.672-9.373-11.223-10.892-5.168-15.5,15.892-1.223,21.815,2.819c5.285,3.611,10.3,4.561,16.193,5.285s15.508,4.02,14.037,17.72a108.033,108.033,0,0,1-5.859,24.921" transform="translate(31.847 107.444)" fill="#ededed"/>
        <path id="Path_943" data-name="Path 943" d="M90.748,268.026a.721.721,0,0,1-.221-1.408c.529-.169,13.016-4.11,18.287.124a.721.721,0,0,1-.9,1.125c-4.675-3.755-16.821.085-16.942.124a.741.741,0,0,1-.221.035" transform="translate(39.836 117.168)" fill="#fff"/>
        <path id="Path_944" data-name="Path 944" d="M119.318,293.166a.721.721,0,0,1-.717-.645c-3.212-30.378-39.806-44.789-40.175-44.932a.721.721,0,0,1,.518-1.346c.377.144,37.786,14.865,41.092,46.125a.721.721,0,0,1-.642.793.676.676,0,0,1-.076,0" transform="translate(34.499 108.94)" fill="#fff"/>
        <path id="Path_945" data-name="Path 945" d="M366.448,291.82c.166-.495,6.353-32.355,0-54.945-5.825-20.711-13.3-28.355-24.026-30.04s-15.386,6.041-9.688,16.508,19.407,24.375,22.777,47.77c1.388,9.629,2.539,18,2.539,18Z" transform="translate(146.15 91.421)" fill="#e2e2e2"/>
        <g id="Group_765" data-name="Group 765" transform="translate(424.505 341.3)" opacity="0.2">
          <g id="Group_764" data-name="Group 764">
            <g id="Group_763" data-name="Group 763" clip-path="url(#clip-path-6)">
              <path id="Path_946" data-name="Path 946" d="M330.448,321.82c.166-.495,6.353-32.355,0-54.945-5.825-20.711-13.3-28.355-24.026-30.04s-15.386,6.04-9.688,16.508,19.407,24.375,22.777,47.77c1.388,9.629,2.539,18,2.539,18Z" transform="translate(-294.285 -236.604)" fill="#d6d6d6"/>
            </g>
          </g>
        </g>
        <path id="Path_947" data-name="Path 947" d="M359.936,272.07h-.04a.72.72,0,0,1-.679-.76c1.477-25.788-6.983-48.817-22.082-60.1a.722.722,0,0,1,.865-1.155c15.479,11.569,24.162,35.073,22.656,61.338a.72.72,0,0,1-.72.681" transform="translate(149.053 92.883)" fill="#fff"/>
        <path id="Path_948" data-name="Path 948" d="M373.906,304.2c-.828-5.921,2.582-14.817,10.67-16.915s11.7-6.755,8.779-11.836-2.232-9.734,5.114-11.846,13.776-5.8,9.542-13.531c-3.067-5.607-3.748-9.239,3.782-20.3,6.243-9.17,1.14-14.55-6.683-13.532s-12.645,10.317-17.528,11.886-6.024-6.761-12.472-3.039-6.05,13.261-6.255,19.908-.638,8.156-6.468,7.339-11.52.149-11.409,14.242c.1,12.1,6.552,27.066,6.552,27.066Z" transform="translate(155.306 95.633)" fill="#e2e2e2"/>
        <path id="Path_949" data-name="Path 949" d="M360,293.68a.8.8,0,0,1-.082,0,.723.723,0,0,1-.636-.8c4.062-36.344,35.252-66.99,43.383-73.208a.722.722,0,0,1,.877,1.147c-8.028,6.138-38.822,36.386-42.826,72.223a.721.721,0,0,1-.715.641" transform="translate(158.98 97.137)" fill="#fff"/>
        <path id="Path_950" data-name="Path 950" d="M369.861,245.28a.722.722,0,0,1-.252-1.4c11.637-4.33,24.818-2.289,25.374-2.2a.722.722,0,0,1,.6.827.733.733,0,0,1-.825.6c-.131-.023-13.37-2.069-24.641,2.128a.74.74,0,0,1-.252.045" transform="translate(163.343 106.697)" fill="#fff"/>
        <path id="Path_951" data-name="Path 951" d="M365.544,265.516a.718.718,0,0,1-.541-.244,42.424,42.424,0,0,1-9.5-19.717.721.721,0,0,1,1.425-.218,41.754,41.754,0,0,0,9.16,18.98.721.721,0,0,1-.541,1.2" transform="translate(157.304 108.291)" fill="#fff"/>
      </g>
    </g>
    <path id="Path_952" data-name="Path 952" d="M106.174,158.99V382.265L334.694,250.33V47.352L164.769,145.458l-5.859-16.915Z" transform="translate(46.981 20.953)" fill="#ededed"/>
    <g id="Group_772" data-name="Group 772">
      <g id="Group_771" data-name="Group 771" clip-path="url(#clip-path)">
        <g id="Group_770" data-name="Group 770" transform="translate(153.156 69.748)" opacity="0.7">
          <g id="Group_769" data-name="Group 769">
            <g id="Group_768" data-name="Group 768" clip-path="url(#clip-path-8)">
              <path id="Path_953" data-name="Path 953" d="M106.174,159.99V383.265L334.694,251.33V48.352L164.769,146.458l-5.859-16.915Z" transform="translate(-106.174 -48.352)" fill="#adb2b1"/>
            </g>
          </g>
        </g>
      </g>
    </g>
    <path id="Path_954" data-name="Path 954" d="M106.174,382.265l11.717-202.978L346.41,47.351,334.694,250.33Z" transform="translate(46.981 20.953)" fill="#e0e0e0"/>
    <path id="Path_955" data-name="Path 955" d="M106.174,381.228l17.577-199.6L352.269,49.7l-17.575,199.6Z" transform="translate(46.981 21.99)" fill="#ededed"/>
    <g id="Group_777" data-name="Group 777">
      <g id="Group_776" data-name="Group 776" clip-path="url(#clip-path)">
        <g id="Group_775" data-name="Group 775" transform="translate(149.383 65.916)" opacity="0.7">
          <g id="Group_774" data-name="Group 774">
            <g id="Group_773" data-name="Group 773" clip-path="url(#clip-path-10)">
              <path id="Path_956" data-name="Path 956" d="M103.559,377.207,121.1,177.624,349.1,45.7,331.564,245.28Z" transform="translate(-103.559 -45.696)" fill="#c9c9c9"/>
            </g>
          </g>
        </g>
      </g>
    </g>
    <path id="Path_957" data-name="Path 957" d="M130.547,173.06V396.337L359.067,264.4V61.423L189.142,159.53l-5.859-16.916Z" transform="translate(57.766 27.179)" fill="#ededed"/>
    <g id="Group_782" data-name="Group 782">
      <g id="Group_781" data-name="Group 781" clip-path="url(#clip-path)">
        <g id="Group_780" data-name="Group 780" transform="translate(188.314 88.602)" opacity="0.5">
          <g id="Group_779" data-name="Group 779">
            <g id="Group_778" data-name="Group 778" clip-path="url(#clip-path-8)">
              <path id="Path_958" data-name="Path 958" d="M130.547,173.06V396.337L359.067,264.4V61.423L189.142,159.53l-5.859-16.916Z" transform="translate(-130.547 -61.423)" fill="#d4d8d7"/>
            </g>
          </g>
        </g>
      </g>
    </g>
    <path id="Path_959" data-name="Path 959" d="M130.547,396.337l11.717-202.978L370.783,61.422,359.067,264.4Z" transform="translate(57.766 27.179)" fill="#e0e0e0"/>
    <path id="Path_960" data-name="Path 960" d="M130.547,395.3l17.577-199.6L376.642,63.768l-17.575,199.6Z" transform="translate(57.766 28.217)" fill="#e2e2e2"/>
    <g id="Group_787" data-name="Group 787">
      <g id="Group_786" data-name="Group 786" clip-path="url(#clip-path)">
        <g id="Group_785" data-name="Group 785" transform="translate(188.314 91.985)" opacity="0.5">
          <g id="Group_784" data-name="Group 784">
            <g id="Group_783" data-name="Group 783" clip-path="url(#clip-path-14)">
              <path id="Path_961" data-name="Path 961" d="M130.547,395.3l17.577-199.6L376.642,63.768l-17.575,199.6Z" transform="translate(-130.547 -63.768)" fill="#c1c1c1"/>
            </g>
          </g>
        </g>
      </g>
    </g>
    <g id="Group_813" data-name="Group 813">
      <g id="Group_812" data-name="Group 812" clip-path="url(#clip-path)">
        <path id="Path_962" data-name="Path 962" d="M294.178,376.619c-41.017-23.681-79.07-49.427-96.442-79.639l52.735-30.447Z" transform="translate(87.497 117.94)" fill="#e0e0e0"/>
        <path id="Path_963" data-name="Path 963" d="M158.979,189.477V412.754L387.5,280.817V77.839L217.575,175.945l-5.861-16.915Z" transform="translate(70.348 34.444)" fill="#ededed"/>
        <g id="Group_790" data-name="Group 790" transform="translate(229.327 112.282)" opacity="0.2">
          <g id="Group_789" data-name="Group 789">
            <g id="Group_788" data-name="Group 788" clip-path="url(#clip-path-16)">
              <path id="Path_964" data-name="Path 964" d="M158.979,189.477V412.754L387.5,280.817V77.839L217.575,175.945l-5.861-16.915Z" transform="translate(-158.979 -77.839)" fill="#d4d8d7"/>
            </g>
          </g>
        </g>
        <path id="Path_965" data-name="Path 965" d="M204.824,292.162c-.576,0-.664-.665-.664-1.062V100.656a4.806,4.806,0,0,1,2.139-3.7L371.227,1.733a1.586,1.586,0,0,1,.754-.244c.577,0,.664.665.664,1.062V192.995a4.8,4.8,0,0,1-2.139,3.7L205.578,291.918a1.592,1.592,0,0,1-.754.244" transform="translate(90.34 0.659)" fill="#fff"/>
        <path id="Path_966" data-name="Path 966" d="M372.109,2.448a1.332,1.332,0,0,1,.036.325V193.215a4.129,4.129,0,0,1-1.777,3.078L205.438,291.514a1.336,1.336,0,0,1-.3.133,1.267,1.267,0,0,1-.036-.326V100.879a4.12,4.12,0,0,1,1.777-3.078L371.81,2.579a1.274,1.274,0,0,1,.3-.131m.1-1.46a2.276,2.276,0,0,0-1.115.342L206.159,96.552a5.523,5.523,0,0,0-2.5,4.327V291.321c0,1.129.563,1.783,1.383,1.783a2.268,2.268,0,0,0,1.115-.34l164.929-95.221a5.524,5.524,0,0,0,2.5-4.327V2.772c0-1.131-.564-1.784-1.383-1.784" transform="translate(90.119 0.437)" fill="#d8d8d8"/>
        <g id="Group_793" data-name="Group 793" transform="translate(293.78)" opacity="0.7">
          <g id="Group_792" data-name="Group 792">
            <g id="Group_791" data-name="Group 791" clip-path="url(#clip-path-17)">
              <path id="Path_967" data-name="Path 967" d="M370.666,0a1.334,1.334,0,0,1,.036.325V190.767a4.129,4.129,0,0,1-1.777,3.078L204,289.066a1.335,1.335,0,0,1-.3.133,1.266,1.266,0,0,1-.036-.326V98.432a4.12,4.12,0,0,1,1.777-3.078L370.367.131a1.274,1.274,0,0,1,.3-.131M372.2,1.425a2.276,2.276,0,0,0-1.115.342L206.159,96.989a5.523,5.523,0,0,0-2.5,4.327V291.758c0,1.129.563,1.783,1.383,1.783a2.268,2.268,0,0,0,1.115-.34L371.089,197.98a5.524,5.524,0,0,0,2.5-4.327V3.21c0-1.131-.564-1.784-1.383-1.784" transform="translate(-203.661)" fill="#fff"/>
            </g>
          </g>
        </g>
        <path id="Path_968" data-name="Path 968" d="M215.848,83.649,274.442,49.82v67.659l-58.594,33.829Z" transform="translate(95.512 22.045)" fill="#d8d8d8"/>
        <g id="Group_796" data-name="Group 796" transform="translate(311.36 71.865)" opacity="0.8">
          <g id="Group_795" data-name="Group 795">
            <g id="Group_794" data-name="Group 794" clip-path="url(#clip-path-18)">
              <path id="Path_969" data-name="Path 969" d="M215.848,83.649,274.442,49.82v67.659l-58.594,33.829Z" transform="translate(-215.848 -49.82)" fill="#d8d8d8"/>
            </g>
          </g>
        </g>
        <path id="Path_970" data-name="Path 970" d="M262.957,61.546v20.3l-1.836,1.026V76.65c0-3.435-2.8-4.6-6.246-2.612L230.022,88.387c-3.45,1.992-6.246,6.39-6.246,9.825v6.219l-1.836,1.095v-20.3Z" transform="translate(98.208 27.234)" fill="#06283d"/>
        <path id="Path_971" data-name="Path 971" d="M249.858,108.645c-3.006,1.735-5.442-.087-5.442-4.071V72.017l-7.527,4.1v32.805c0,3.984-2.436,8.62-5.443,10.356L226,122.416v2.155l29.3-16.915V105.5l-5.443,3.143" transform="translate(100.006 31.867)" fill="#06283d"/>
        <path id="Path_972" data-name="Path 972" d="M264.592,59.457c0,1.868,1.679,2.415,3.749,1.22L325.3,27.792c2.07-1.194,3.748-3.678,3.748-5.546s-1.678-2.415-3.748-1.219L268.341,53.911c-2.071,1.194-3.749,3.678-3.749,5.546" transform="translate(117.081 9.024)" fill="#ededed"/>
        <path id="Path_973" data-name="Path 973" d="M264.592,73.529c0,1.868,1.679,2.415,3.749,1.22L325.3,41.864c2.07-1.194,3.748-3.678,3.748-5.546S327.369,33.9,325.3,35.1L268.341,67.983c-2.071,1.194-3.749,3.678-3.749,5.546" transform="translate(117.081 15.25)" fill="#ededed"/>
        <path id="Path_974" data-name="Path 974" d="M264.592,87.6c0,1.868,1.679,2.415,3.749,1.22L325.3,55.935c2.07-1.194,3.748-3.678,3.748-5.546s-1.678-2.415-3.748-1.22L268.341,82.054c-2.071,1.194-3.749,3.678-3.749,5.546" transform="translate(117.081 21.477)" fill="#ededed"/>
        <path id="Path_975" data-name="Path 975" d="M264.592,101.671c0,1.868,1.679,2.415,3.749,1.22L325.3,70.006c2.07-1.194,3.748-3.678,3.748-5.546s-1.678-2.415-3.748-1.22L268.341,96.125c-2.071,1.194-3.749,3.678-3.749,5.546" transform="translate(117.081 27.703)" fill="#ededed"/>
        <path id="Path_976" data-name="Path 976" d="M215.848,156.345c0,1.868,1.678,2.415,3.748,1.219L346.869,84.078c2.07-1.194,3.748-3.678,3.748-5.546s-1.678-2.415-3.748-1.22L219.6,150.8c-2.07,1.2-3.748,3.678-3.748,5.548" transform="translate(95.512 33.93)" fill="#ededed"/>
        <path id="Path_977" data-name="Path 977" d="M215.848,170.416c0,1.868,1.678,2.415,3.748,1.219L346.869,98.149c2.07-1.194,3.748-3.678,3.748-5.546s-1.678-2.415-3.748-1.219L219.6,164.869c-2.07,1.2-3.748,3.68-3.748,5.548" transform="translate(95.512 40.156)" fill="#ededed"/>
        <path id="Path_978" data-name="Path 978" d="M215.848,184.488c0,1.868,1.678,2.415,3.748,1.219L346.869,112.22c2.07-1.194,3.748-3.678,3.748-5.546s-1.678-2.415-3.748-1.22L219.6,178.941c-2.07,1.194-3.748,3.678-3.748,5.546" transform="translate(95.512 46.383)" fill="#ededed"/>
        <path id="Path_979" data-name="Path 979" d="M158.98,405.489,200,226.191,428.515,94.256,387.5,273.553Z" transform="translate(70.348 41.708)" fill="#fff"/>
        <path id="Path_980" data-name="Path 980" d="M197.735,204.794V337.772l52.736-30.448V174.349Z" transform="translate(87.497 77.149)" fill="#ddd"/>
        <g id="Group_799" data-name="Group 799" transform="translate(285.232 251.496)" opacity="0.2">
          <g id="Group_798" data-name="Group 798">
            <g id="Group_797" data-name="Group 797" clip-path="url(#clip-path-19)">
              <path id="Path_981" data-name="Path 981" d="M197.735,204.794V337.772l52.736-30.448V174.349Z" transform="translate(-197.735 -174.348)"/>
            </g>
          </g>
        </g>
        <path id="Path_982" data-name="Path 982" d="M293.638,437.041c-4.482-3.338-47.725-36.4-69.709-83.609-23.4-50.257-23.379-108.874-23.371-130.938v-.687L357.321,131.3c-.009,22.265.023,80.966,23.507,131.4,21.473,46.115,63.063,78.795,69.658,83.785Z" transform="translate(88.746 58.1)" fill="#fff"/>
        <path id="Path_983" data-name="Path 983" d="M356.322,132.932c0,23.192.452,80.8,23.575,130.457,20.75,44.564,60.22,76.62,69.013,83.4l-155.5,89.778c-6.079-4.581-47.7-37.077-69.107-83.052C200.973,303.4,200.993,244.9,201,222.876v-.27Zm1.443-2.5L199.559,221.773c0,20.752-.439,81.067,23.439,132.346,23.436,50.336,70.313,84.165,70.313,84.165l158.207-91.339s-46.877-33.831-70.314-84.167c-23.878-51.279-23.439-111.593-23.439-132.345" transform="translate(88.304 57.717)" fill="#c1c1c1"/>
        <g id="Group_802" data-name="Group 802" transform="translate(287.862 188.151)" opacity="0.7">
          <g id="Group_801" data-name="Group 801">
            <g id="Group_800" data-name="Group 800" clip-path="url(#clip-path-20)">
              <path id="Path_984" data-name="Path 984" d="M356.322,132.932c0,23.192.452,80.8,23.575,130.457,20.75,44.564,60.22,76.62,69.013,83.4l-155.5,89.778c-6.079-4.581-47.7-37.077-69.107-83.052C200.973,303.4,200.993,244.9,201,222.876v-.27Zm1.443-2.5L199.559,221.773c0,20.752-.439,81.067,23.439,132.346,23.436,50.336,70.313,84.165,70.313,84.165l158.207-91.339s-46.877-33.831-70.314-84.167c-23.878-51.279-23.439-111.593-23.439-132.345" transform="translate(-199.558 -130.434)" fill="#fff"/>
            </g>
          </g>
        </g>
        <path id="Path_985" data-name="Path 985" d="M313.337,150.864,263.3,179.751c-2.07,1.2-3.7,3.645-3.634,5.473s1.818,2.341,3.888,1.147l50.034-28.887c2.069-1.194,3.677-3.645,3.609-5.473s-1.793-2.341-3.863-1.147" transform="translate(114.902 66.471)" fill="#ededed"/>
        <path id="Path_986" data-name="Path 986" d="M314.031,164.513,264,193.4c-2.071,1.194-3.638,3.608-3.485,5.388s1.972,2.252,4.04,1.057l50.036-28.889c2.069-1.194,3.608-3.6,3.453-5.383s-1.942-2.256-4.012-1.06" transform="translate(115.272 72.505)" fill="#ededed"/>
        <path id="Path_987" data-name="Path 987" d="M315.371,177.789l-50.034,28.887c-2.07,1.194-3.564,3.566-3.318,5.291s2.138,2.157,4.208.961l50.034-28.887c2.07-1.2,3.534-3.561,3.289-5.288s-2.109-2.159-4.179-.964" transform="translate(115.931 78.372)" fill="#ededed"/>
        <path id="Path_988" data-name="Path 988" d="M317.405,190.665l-50.034,28.886c-2.07,1.2-3.488,3.524-3.148,5.2s2.308,2.056,4.379.861l50.033-28.889c2.07-1.194,3.456-3.514,3.117-5.186s-2.278-2.063-4.348-.868" transform="translate(116.896 84.062)" fill="#ededed"/>
        <path id="Path_989" data-name="Path 989" d="M320.179,203.114,270.145,232c-2.069,1.194-3.406,3.476-2.961,5.088s2.5,1.947,4.567.752l50.033-28.887c2.071-1.194,3.371-3.466,2.93-5.079s-2.462-1.955-4.534-.76" transform="translate(118.19 89.562)" fill="#ededed"/>
        <path id="Path_990" data-name="Path 990" d="M345.8,215.109,223.855,285.514c-2.07,1.2-3.316,3.424-2.755,4.969s2.709,1.823,4.778.629l121.946-70.4c2.07-1.2,3.277-3.412,2.718-4.959s-2.67-1.835-4.74-.64" transform="translate(97.777 94.859)" fill="#ededed"/>
        <path id="Path_991" data-name="Path 991" d="M350.254,226.568,228.308,296.974c-2.07,1.194-3.205,3.362-2.52,4.835s2.927,1.695,5,.5L352.731,231.9c2.07-1.194,3.182-3.352,2.5-4.825s-2.905-1.705-4.975-.511" transform="translate(99.822 99.917)" fill="#ededed"/>
        <path id="Path_992" data-name="Path 992" d="M355.719,237.491,233.773,307.9c-2.07,1.194-3.1,3.3-2.281,4.7s3.184,1.546,5.254.352L358.692,242.54c2.07-1.194,3.062-3.282,2.242-4.678s-3.145-1.567-5.215-.371" transform="translate(102.31 104.737)" fill="#ededed"/>
        <path id="Path_993" data-name="Path 993" d="M362.184,247.813,240.238,318.218c-2.07,1.194-3,3.248-2.054,4.573s3.4,1.414,5.473.219L365.6,252.6c2.07-1.194,2.967-3.224,2.022-4.547s-3.371-1.44-5.441-.244" transform="translate(105.232 109.29)" fill="#ededed"/>
        <path id="Path_994" data-name="Path 994" d="M369.526,257.632,247.581,328.039c-2.07,1.194-2.908,3.2-1.854,4.456s3.6,1.3,5.668.107L373.342,262.2c2.069-1.194,2.881-3.173,1.826-4.433s-3.572-1.326-5.642-.131" transform="translate(108.531 113.622)" fill="#ededed"/>
        <path id="Path_995" data-name="Path 995" d="M377.668,266.988,255.724,337.394c-2.071,1.194-2.826,3.149-1.67,4.351s3.778,1.2,5.848,0l121.946-70.4c2.07-1.2,2.8-3.127,1.647-4.329s-3.755-1.22-5.826-.026" transform="translate(112.178 117.749)" fill="#ededed"/>
        <path id="Path_996" data-name="Path 996" d="M386.577,275.922,264.632,346.327c-2.07,1.194-2.744,3.1-1.49,4.25s3.958,1.092,6.027-.1l121.947-70.405c2.069-1.194,2.719-3.08,1.466-4.225s-3.934-1.116-6,.079" transform="translate(116.16 121.688)" fill="#ededed"/>
        <path id="Path_997" data-name="Path 997" d="M267.267,177.948l-57.53,33.215c.64,20.835,3.016,50.91,11.736,81.181L279,259.129c-8.72-30.272-11.1-60.344-11.736-81.181" transform="translate(92.808 78.741)" fill="#ededed"/>
        <g id="Group_805" data-name="Group 805" transform="translate(302.545 256.689)" opacity="0.8">
          <g id="Group_804" data-name="Group 804">
            <g id="Group_803" data-name="Group 803" clip-path="url(#clip-path-21)">
              <path id="Path_998" data-name="Path 998" d="M267.267,177.948l-57.53,33.215c.64,20.835,3.016,50.91,11.736,81.181L279,259.129c-8.72-30.272-11.1-60.344-11.736-81.181" transform="translate(-209.737 -177.948)" fill="#ededed"/>
            </g>
          </g>
        </g>
        <path id="Path_999" data-name="Path 999" d="M233.2,200.015a9.536,9.536,0,0,0-2.811-7.306l-20.652,11.922c.169,5.506.466,11.67.962,18.3a13.493,13.493,0,0,0,7.814-1.376c8.111-3.784,14.688-13.427,14.688-21.538" transform="translate(92.808 85.273)" fill="#d8d8d8"/>
        <g id="Group_808" data-name="Group 808" transform="translate(302.545 277.982)" opacity="0.6">
          <g id="Group_807" data-name="Group 807">
            <g id="Group_806" data-name="Group 806" clip-path="url(#clip-path-22)">
              <path id="Path_1000" data-name="Path 1000" d="M233.2,200.015a9.536,9.536,0,0,0-2.811-7.306l-20.652,11.922c.169,5.506.466,11.67.962,18.3a13.493,13.493,0,0,0,7.814-1.376c8.111-3.784,14.688-13.427,14.688-21.538" transform="translate(-209.737 -192.709)" fill="#d8d8d8"/>
            </g>
          </g>
        </g>
        <path id="Path_1001" data-name="Path 1001" d="M267.353,228.727h0c-3.837-4.84-11.641-19.765-14.976-26.269a1.444,1.444,0,0,0-2.664.244c-5.763,18.491-6.243,37.868-6.243,37.868-4.625-3.66-7.95-7.3-12.211-13.593a1.273,1.273,0,0,0-2.291.4c-6.292,24.222-3.136,48.047-3.136,48.047l46.4-26.79c-1.923-6.679-3.524-13.34-4.879-19.9" transform="translate(99.579 89.24)" fill="#c9c9c9"/>
        <g id="Group_811" data-name="Group 811" transform="translate(324.618 290.914)" opacity="0.6">
          <g id="Group_810" data-name="Group 810">
            <g id="Group_809" data-name="Group 809" clip-path="url(#clip-path-23)">
              <path id="Path_1002" data-name="Path 1002" d="M267.353,228.727h0c-3.837-4.84-11.641-19.765-14.976-26.269a1.444,1.444,0,0,0-2.664.244c-5.763,18.491-6.243,37.868-6.243,37.868-4.625-3.66-7.95-7.3-12.211-13.593a1.273,1.273,0,0,0-2.291.4c-6.292,24.222-3.136,48.047-3.136,48.047l46.4-26.79c-1.923-6.679-3.524-13.34-4.879-19.9" transform="translate(-225.039 -201.674)" fill="#c9c9c9"/>
            </g>
          </g>
        </g>
      </g>
    </g>
  </g>
</svg>
