<svg id="Group_823" data-name="Group 823" xmlns="http://www.w3.org/2000/svg" xmlns:xlink="http://www.w3.org/1999/xlink" width="756.885" height="501" viewBox="0 0 756.885 501">
  <defs>
    <clipPath id="clip-path">
      <rect id="Rectangle_342" data-name="Rectangle 342" width="756.885" height="501" fill="none"/>
    </clipPath>
    <clipPath id="clip-path-3">
      <rect id="Rectangle_313" data-name="Rectangle 313" width="672.313" height="498.492" fill="none"/>
    </clipPath>
  </defs>
  <g id="Group_822" data-name="Group 822" clip-path="url(#clip-path)">
    <g id="Group_821" data-name="Group 821">
      <g id="Group_820" data-name="Group 820" clip-path="url(#clip-path)">
        <path id="Path_1003" data-name="Path 1003" d="M114.654,484.033c2.473,5.592,4.942,11.618,6.659,15.9H700.619c4.915-13.013,23.554-70.178,16.735-173.42-7.828-118.5-107.346-267.356-204.628-312.156S379.663,51.928,323.754,99.618,191.808,98.173,115.772,158.87,35.263,336.626,59.863,397.322s50.318,76.6,54.791,86.711" transform="translate(6.355 0.196)" fill="#e0e0e0"/>
        <g id="Group_819" data-name="Group 819" transform="translate(53.193)" opacity="0.7">
          <g id="Group_818" data-name="Group 818">
            <g id="Group_817" data-name="Group 817" clip-path="url(#clip-path-3)">
              <path id="Path_1004" data-name="Path 1004" d="M114.931,482.6c2.473,5.592,4.942,11.618,6.659,15.9H700.9c4.915-13.013,23.554-70.178,16.735-173.42C709.8,206.568,610.285,57.715,513,12.915S379.94,50.49,324.031,98.18s-131.946-1.445-207.982,59.252S35.54,335.188,60.14,395.884s50.318,76.6,54.791,86.711" transform="translate(-46.8 0)" fill="#fff"/>
            </g>
          </g>
        </g>
        <rect id="Rectangle_314" data-name="Rectangle 314" width="756.885" height="3.951" transform="translate(0 302.743)" fill="#263238"/>
        <line id="Line_107" data-name="Line 107" y1="153.057" transform="translate(517.13 86.065)" fill="none" stroke="#263238" stroke-linecap="round" stroke-linejoin="round" stroke-width="1"/>
        <line id="Line_108" data-name="Line 108" y1="58.515" transform="translate(517.13 246.56)" fill="none" stroke="#263238" stroke-linecap="round" stroke-linejoin="round" stroke-width="1"/>
        <line id="Line_109" data-name="Line 109" y1="41.775" transform="translate(321.247 87.427)" fill="none" stroke="#263238" stroke-linecap="round" stroke-linejoin="round" stroke-width="1"/>
        <line id="Line_110" data-name="Line 110" y1="168.434" transform="translate(321.247 136.641)" fill="none" stroke="#263238" stroke-linecap="round" stroke-linejoin="round" stroke-width="1"/>
        <line id="Line_111" data-name="Line 111" y1="33.22" transform="translate(713.407 86.065)" fill="none" stroke="#263238" stroke-linecap="round" stroke-linejoin="round" stroke-width="1"/>
        <line id="Line_112" data-name="Line 112" y1="178.352" transform="translate(713.407 126.723)" fill="none" stroke="#263238" stroke-linecap="round" stroke-linejoin="round" stroke-width="1"/>
        <line id="Line_113" data-name="Line 113" y1="217.647" transform="translate(124.969 87.428)" fill="none" stroke="#263238" stroke-linecap="round" stroke-linejoin="round" stroke-width="1"/>
        <line id="Line_114" data-name="Line 114" x2="35.944" transform="translate(702.214 197.563)" fill="none" stroke="#263238" stroke-linecap="round" stroke-linejoin="round" stroke-width="1"/>
        <line id="Line_115" data-name="Line 115" x2="478.52" transform="translate(217.909 197.563)" fill="none" stroke="#263238" stroke-linecap="round" stroke-linejoin="round" stroke-width="1"/>
        <line id="Line_116" data-name="Line 116" x2="104.249" transform="translate(107.874 197.563)" fill="none" stroke="#263238" stroke-linecap="round" stroke-linejoin="round" stroke-width="1"/>
        <line id="Line_117" data-name="Line 117" x1="2.686" y2="1.655" transform="translate(441.753 157.973)" fill="none" stroke="#263238" stroke-linecap="round" stroke-linejoin="round" stroke-width="0.5"/>
        <line id="Line_118" data-name="Line 118" x1="41.655" y2="25.671" transform="translate(448.047 130.078)" fill="none" stroke="#263238" stroke-linecap="round" stroke-linejoin="round" stroke-width="0.5"/>
        <line id="Line_119" data-name="Line 119" x1="33.373" y2="20.567" transform="translate(461.826 131.812)" fill="none" stroke="#263238" stroke-linecap="round" stroke-linejoin="round" stroke-width="0.5"/>
        <line id="Line_120" data-name="Line 120" x1="10.079" y2="6.212" transform="translate(499.695 122.83)" fill="none" stroke="#263238" stroke-linecap="round" stroke-linejoin="round" stroke-width="0.5"/>
        <line id="Line_121" data-name="Line 121" x1="2.686" y2="1.655" transform="translate(175.961 157.973)" fill="none" stroke="#263238" stroke-linecap="round" stroke-linejoin="round" stroke-width="0.5"/>
        <line id="Line_122" data-name="Line 122" x1="41.655" y2="25.671" transform="translate(182.255 130.078)" fill="none" stroke="#263238" stroke-linecap="round" stroke-linejoin="round" stroke-width="0.5"/>
        <line id="Line_123" data-name="Line 123" x1="33.373" y2="20.567" transform="translate(196.034 131.812)" fill="none" stroke="#263238" stroke-linecap="round" stroke-linejoin="round" stroke-width="0.5"/>
        <line id="Line_124" data-name="Line 124" x1="10.079" y2="6.212" transform="translate(233.902 122.83)" fill="none" stroke="#263238" stroke-linecap="round" stroke-linejoin="round" stroke-width="0.5"/>
        <line id="Line_125" data-name="Line 125" x1="2.685" y2="1.655" transform="translate(600.412 157.973)" fill="none" stroke="#263238" stroke-linecap="round" stroke-linejoin="round" stroke-width="0.5"/>
        <line id="Line_126" data-name="Line 126" x1="41.655" y2="25.671" transform="translate(606.705 130.078)" fill="none" stroke="#263238" stroke-linecap="round" stroke-linejoin="round" stroke-width="0.5"/>
        <line id="Line_127" data-name="Line 127" x1="33.373" y2="20.567" transform="translate(620.484 131.812)" fill="none" stroke="#263238" stroke-linecap="round" stroke-linejoin="round" stroke-width="0.5"/>
        <line id="Line_128" data-name="Line 128" x1="10.079" y2="6.212" transform="translate(658.352 122.83)" fill="none" stroke="#263238" stroke-linecap="round" stroke-linejoin="round" stroke-width="0.5"/>
        <line id="Line_129" data-name="Line 129" x1="78.608" y2="48.444" transform="translate(194.129 250.346)" fill="none" stroke="#263238" stroke-linecap="round" stroke-linejoin="round" stroke-width="0.5"/>
        <line id="Line_130" data-name="Line 130" x1="62.979" y2="38.812" transform="translate(220.13 253.619)" fill="none" stroke="#263238" stroke-linecap="round" stroke-linejoin="round" stroke-width="0.5"/>
        <line id="Line_131" data-name="Line 131" x1="19.021" y2="11.723" transform="translate(291.593 236.669)" fill="none" stroke="#263238" stroke-linecap="round" stroke-linejoin="round" stroke-width="0.5"/>
        <line id="Line_132" data-name="Line 132" x1="5.067" y2="3.123" transform="translate(466.334 298.855)" fill="none" stroke="#263238" stroke-linecap="round" stroke-linejoin="round" stroke-width="0.5"/>
        <line id="Line_133" data-name="Line 133" x1="78.608" y2="48.444" transform="translate(478.209 246.214)" fill="none" stroke="#263238" stroke-linecap="round" stroke-linejoin="round" stroke-width="0.5"/>
        <line id="Line_134" data-name="Line 134" x1="62.979" y2="38.812" transform="translate(504.211 249.487)" fill="none" stroke="#263238" stroke-linecap="round" stroke-linejoin="round" stroke-width="0.5"/>
        <line id="Line_135" data-name="Line 135" x1="19.021" y2="11.723" transform="translate(575.674 232.536)" fill="none" stroke="#263238" stroke-linecap="round" stroke-linejoin="round" stroke-width="0.5"/>
        <path id="Path_1005" data-name="Path 1005" d="M486.291,246.083H412.535a8.83,8.83,0,0,0-8.826,9.08l2.633,92.924-2.89,20.526H495.5l-4.336-20.526,3.945-92.8a8.83,8.83,0,0,0-8.822-9.2" transform="translate(55.109 33.613)" fill="#fff"/>
        <path id="Path_1006" data-name="Path 1006" d="M486.291,246.083H412.535a8.83,8.83,0,0,0-8.826,9.08l2.633,92.924-2.89,20.526H495.5l-4.336-20.526,3.945-92.8A8.83,8.83,0,0,0,486.291,246.083Z" transform="translate(55.109 33.613)" fill="none" stroke="#263238" stroke-linecap="round" stroke-linejoin="round" stroke-width="1"/>
        <path id="Path_1007" data-name="Path 1007" d="M482.423,251.008H415.4a8.219,8.219,0,0,0-8.019,8.619l2.393,88.208-2.627,19.483h83.642l-3.939-19.483,3.584-88.089a8.226,8.226,0,0,0-8.015-8.737" transform="translate(55.614 34.286)" fill="#fff"/>
        <path id="Path_1008" data-name="Path 1008" d="M482.423,251.008H415.4a8.219,8.219,0,0,0-8.019,8.619l2.393,88.208-2.627,19.483h83.642l-3.939-19.483,3.584-88.089A8.226,8.226,0,0,0,482.423,251.008Z" transform="translate(55.614 34.286)" fill="none" stroke="#263238" stroke-linecap="round" stroke-linejoin="round" stroke-width="1"/>
        <path id="Path_1009" data-name="Path 1009" d="M403.652,314.982l-4.7,42.632h3.974l4.7-42.632Z" transform="translate(54.495 43.024)" fill="#fff"/>
        <path id="Path_1010" data-name="Path 1010" d="M403.652,314.982l-4.7,42.632h3.974l4.7-42.632Z" transform="translate(54.495 43.024)" fill="none" stroke="#263238" stroke-linecap="round" stroke-linejoin="round" stroke-width="1"/>
        <path id="Path_1011" data-name="Path 1011" d="M484.94,314.982l4.7,42.632h-3.974l-4.7-42.632Z" transform="translate(65.697 43.024)" fill="#fff"/>
        <path id="Path_1012" data-name="Path 1012" d="M484.94,314.982l4.7,42.632h-3.974l-4.7-42.632Z" transform="translate(65.697 43.024)" fill="none" stroke="#263238" stroke-linecap="round" stroke-linejoin="round" stroke-width="1"/>
        <path id="Path_1013" data-name="Path 1013" d="M410.67,316.628h-9.857a1.292,1.292,0,0,1-1.291-1.291v-6.125a1.292,1.292,0,0,1,1.291-1.291h9.857a1.291,1.291,0,0,1,1.291,1.291v6.125a1.291,1.291,0,0,1-1.291,1.291" transform="translate(54.572 42.06)" fill="#fff"/>
        <rect id="Rectangle_315" data-name="Rectangle 315" width="12.439" height="8.707" rx="1.136" transform="translate(454.094 349.981)" fill="none" stroke="#263238" stroke-linecap="round" stroke-linejoin="round" stroke-width="1"/>
        <path id="Path_1014" data-name="Path 1014" d="M410.32,307.92h-9.155a1.642,1.642,0,0,0-1.642,1.642V314.5h12.44v-4.942a1.642,1.642,0,0,0-1.642-1.642" transform="translate(54.572 42.06)" fill="#fff"/>
        <path id="Path_1015" data-name="Path 1015" d="M410.32,307.92h-9.155a1.642,1.642,0,0,0-1.642,1.642V314.5h12.44v-4.942A1.642,1.642,0,0,0,410.32,307.92Z" transform="translate(54.572 42.06)" fill="none" stroke="#263238" stroke-linecap="round" stroke-linejoin="round" stroke-width="1"/>
        <path id="Path_1016" data-name="Path 1016" d="M488.453,316.395H478.6A1.292,1.292,0,0,1,477.3,315.1v-4.179a1.292,1.292,0,0,1,1.291-1.291h9.857a1.291,1.291,0,0,1,1.291,1.291V315.1a1.291,1.291,0,0,1-1.291,1.291" transform="translate(65.197 42.294)" fill="#fff"/>
        <rect id="Rectangle_316" data-name="Rectangle 316" width="12.439" height="6.762" rx="1.136" transform="translate(542.501 351.926)" fill="none" stroke="#263238" stroke-linecap="round" stroke-linejoin="round" stroke-width="1"/>
        <path id="Path_1017" data-name="Path 1017" d="M488.1,309.632h-9.155a1.5,1.5,0,0,0-1.642,1.276v3.837h12.44v-3.837a1.5,1.5,0,0,0-1.642-1.276" transform="translate(65.196 42.294)" fill="#fff"/>
        <path id="Path_1018" data-name="Path 1018" d="M488.1,309.632h-9.155a1.5,1.5,0,0,0-1.642,1.276v3.837h12.44v-3.837A1.5,1.5,0,0,0,488.1,309.632Z" transform="translate(65.196 42.294)" fill="none" stroke="#263238" stroke-linecap="round" stroke-linejoin="round" stroke-width="1"/>
        <path id="Path_1019" data-name="Path 1019" d="M446.988,408.755S411.22,426.82,410.5,430.794a33.692,33.692,0,0,0,0,9.033l1.264-1.264,3.432-8.13,32.155-15.174Z" transform="translate(56.027 55.833)" fill="#fff"/>
        <path id="Path_1020" data-name="Path 1020" d="M446.988,408.755S411.22,426.82,410.5,430.794a33.692,33.692,0,0,0,0,9.033l1.264-1.264,3.432-8.13,32.155-15.174Z" transform="translate(56.027 55.833)" fill="none" stroke="#263238" stroke-linecap="round" stroke-linejoin="round" stroke-width="1"/>
        <path id="Path_1021" data-name="Path 1021" d="M417.136,435.3a3.974,3.974,0,1,1-3.975-3.975,3.975,3.975,0,0,1,3.975,3.975" transform="translate(55.892 58.916)" fill="#263238"/>
        <path id="Path_1022" data-name="Path 1022" d="M417.136,435.3a3.974,3.974,0,1,1-3.975-3.975A3.975,3.975,0,0,1,417.136,435.3Z" transform="translate(55.892 58.916)" fill="none" stroke="#263238" stroke-linecap="round" stroke-linejoin="round" stroke-width="1"/>
        <path id="Path_1023" data-name="Path 1023" d="M451.826,408.755s35.768,18.065,36.49,22.039a33.694,33.694,0,0,1,0,9.033l-1.264-1.264-3.432-8.13-32.155-15.174Z" transform="translate(61.667 55.833)" fill="#fff"/>
        <path id="Path_1024" data-name="Path 1024" d="M451.826,408.755s35.768,18.065,36.49,22.039a33.694,33.694,0,0,1,0,9.033l-1.264-1.264-3.432-8.13-32.155-15.174Z" transform="translate(61.667 55.833)" fill="none" stroke="#263238" stroke-linecap="round" stroke-linejoin="round" stroke-width="1"/>
        <path id="Path_1025" data-name="Path 1025" d="M478.166,435.3a3.974,3.974,0,1,0,3.975-3.975,3.974,3.974,0,0,0-3.975,3.975" transform="translate(65.314 58.916)" fill="#263238"/>
        <path id="Path_1026" data-name="Path 1026" d="M478.166,435.3a3.974,3.974,0,1,0,3.975-3.975A3.974,3.974,0,0,0,478.166,435.3Z" transform="translate(65.314 58.916)" fill="none" stroke="#263238" stroke-linecap="round" stroke-linejoin="round" stroke-width="1"/>
        <rect id="Rectangle_317" data-name="Rectangle 317" width="5.781" height="62.865" transform="translate(504.822 405.697)" fill="#fff"/>
        <rect id="Rectangle_318" data-name="Rectangle 318" width="5.781" height="62.865" transform="translate(504.822 405.697)" fill="none" stroke="#263238" stroke-linecap="round" stroke-linejoin="round" stroke-width="1"/>
        <rect id="Rectangle_319" data-name="Rectangle 319" width="16.981" height="11.561" transform="translate(499.403 411.839)" fill="#263238"/>
        <rect id="Rectangle_320" data-name="Rectangle 320" width="16.981" height="11.561" transform="translate(499.403 411.839)" fill="none" stroke="#263238" stroke-linecap="round" stroke-linejoin="round" stroke-width="1"/>
        <path id="Path_1027" data-name="Path 1027" d="M500.808,352.422c-14.049-1.289-60.469-4.841-102.151-.025a1.815,1.815,0,0,0-.872,3.25c4.788,3.687,17.259,9.9,47.9,11.644,32.766,1.865,49.5-6.883,56.022-11.6a1.809,1.809,0,0,0-.9-3.267" transform="translate(54.236 47.801)" fill="#fff"/>
        <path id="Path_1028" data-name="Path 1028" d="M500.808,352.422c-14.049-1.289-60.469-4.841-102.151-.025a1.815,1.815,0,0,0-.872,3.25c4.788,3.687,17.259,9.9,47.9,11.644,32.766,1.865,49.5-6.883,56.022-11.6A1.809,1.809,0,0,0,500.808,352.422Z" transform="translate(54.236 47.801)" fill="none" stroke="#263238" stroke-linecap="round" stroke-linejoin="round" stroke-width="1"/>
        <path id="Path_1029" data-name="Path 1029" d="M397.749,355.616l.147.113H501.644l.07-.051a1.808,1.808,0,0,0-.909-3.256c-14.052-1.289-60.466-4.84-102.143-.025a1.811,1.811,0,0,0-.913,3.22" transform="translate(54.235 47.801)" fill="#fff"/>
        <path id="Path_1030" data-name="Path 1030" d="M397.749,355.616l.147.113H501.644l.07-.051a1.808,1.808,0,0,0-.909-3.256c-14.052-1.289-60.466-4.84-102.143-.025A1.811,1.811,0,0,0,397.749,355.616Z" transform="translate(54.235 47.801)" fill="none" stroke="#263238" stroke-linecap="round" stroke-linejoin="round" stroke-width="1"/>
        <rect id="Rectangle_321" data-name="Rectangle 321" width="13.367" height="14.09" transform="translate(501.209 458.807)" fill="#263238"/>
        <rect id="Rectangle_322" data-name="Rectangle 322" width="13.367" height="14.09" transform="translate(501.209 458.807)" fill="none" stroke="#263238" stroke-linecap="round" stroke-linejoin="round" stroke-width="1"/>
        <rect id="Rectangle_323" data-name="Rectangle 323" width="1.987" height="32.336" transform="translate(506.448 465.852)" fill="#fff"/>
        <rect id="Rectangle_324" data-name="Rectangle 324" width="1.987" height="32.336" transform="translate(506.448 465.852)" fill="none" stroke="#263238" stroke-linecap="round" stroke-linejoin="round" stroke-width="1"/>
        <rect id="Rectangle_325" data-name="Rectangle 325" width="3.501" height="8.469" transform="translate(505.677 489.756)" fill="#263238"/>
        <rect id="Rectangle_326" data-name="Rectangle 326" width="3.501" height="8.469" transform="translate(505.677 489.756)" fill="none" stroke="#263238" stroke-linecap="round" stroke-linejoin="round" stroke-width="1"/>
        <path id="Path_1031" data-name="Path 1031" d="M423.055,298.049l-8.151,32.5s-13.472,13.805-14.675,21.624S431.5,432.434,431.5,432.434l13.833-1.8-7.819-72.371,24.66-.6-.253,72.973,13.833,1.8,22.922-71.411s2.568-8.561.571-13.412c-3.839-9.322-15.184-17.019-15.184-17.019l-11.193-32.543Z" transform="translate(54.664 40.711)" fill="#fff"/>
        <path id="Path_1032" data-name="Path 1032" d="M423.055,298.049l-8.151,32.5s-13.472,13.805-14.675,21.624S431.5,432.434,431.5,432.434l13.833-1.8-7.819-72.371,24.66-.6-.253,72.973,13.833,1.8,22.922-71.411s2.568-8.561.571-13.412c-3.839-9.322-15.184-17.019-15.184-17.019l-11.193-32.543Z" transform="translate(54.664 40.711)" fill="none" stroke="#263238" stroke-linecap="round" stroke-linejoin="round" stroke-width="1"/>
        <path id="Path_1033" data-name="Path 1033" d="M428.424,416.5a65.54,65.54,0,0,1-1.562,12.851c-1.473,5.889-5.522,10.305-3.681,12.514s12.147,1.84,15.827.737,5.89-4.417,5.89-9.938-2.64-17.967-2.64-17.967Z" transform="translate(57.739 56.645)" fill="#fff"/>
        <path id="Path_1034" data-name="Path 1034" d="M428.424,416.5a65.54,65.54,0,0,1-1.562,12.851c-1.473,5.889-5.522,10.305-3.681,12.514s12.147,1.84,15.827.737,5.89-4.417,5.89-9.938-2.64-17.967-2.64-17.967Z" transform="translate(57.739 56.645)" fill="none" stroke="#263238" stroke-linecap="round" stroke-linejoin="round" stroke-width="1"/>
        <path id="Path_1035" data-name="Path 1035" d="M423.182,440.4c1.839,2.208,12.146,1.84,15.826.737s5.889-4.417,5.889-9.938a46.937,46.937,0,0,0-.492-5.733,8.083,8.083,0,0,1-6.868,5.733c-6.942,1.068-10.386.394-11.761-.057-1.736,4.263-4.077,7.479-2.593,9.259" transform="translate(57.739 58.115)" fill="#fff"/>
        <path id="Path_1036" data-name="Path 1036" d="M423.182,440.4c1.839,2.208,12.146,1.84,15.826.737s5.889-4.417,5.889-9.938a46.937,46.937,0,0,0-.492-5.733,8.083,8.083,0,0,1-6.868,5.733c-6.942,1.068-10.386.394-11.761-.057C424.039,435.4,421.7,438.617,423.182,440.4Z" transform="translate(57.739 58.115)" fill="none" stroke="#263238" stroke-linecap="round" stroke-linejoin="round" stroke-width="1"/>
        <path id="Path_1037" data-name="Path 1037" d="M468.653,416.5a65.542,65.542,0,0,0,1.562,12.851c1.473,5.889,5.522,10.305,3.681,12.514s-12.147,1.84-15.827.737-5.89-4.417-5.89-9.938,2.64-17.967,2.64-17.967Z" transform="translate(61.765 56.645)" fill="#fff"/>
        <path id="Path_1038" data-name="Path 1038" d="M468.653,416.5a65.542,65.542,0,0,0,1.562,12.851c1.473,5.889,5.522,10.305,3.681,12.514s-12.147,1.84-15.827.737-5.89-4.417-5.89-9.938,2.64-17.967,2.64-17.967Z" transform="translate(61.765 56.645)" fill="none" stroke="#263238" stroke-linecap="round" stroke-linejoin="round" stroke-width="1"/>
        <path id="Path_1039" data-name="Path 1039" d="M473.9,440.4c-1.84,2.208-12.147,1.84-15.827.737s-5.89-4.417-5.89-9.938a46.964,46.964,0,0,1,.493-5.733,8.084,8.084,0,0,0,6.868,5.733c6.942,1.068,10.387.394,11.761-.057,1.736,4.263,4.077,7.479,2.594,9.259" transform="translate(61.765 58.115)" fill="#fff"/>
        <path id="Path_1040" data-name="Path 1040" d="M473.9,440.4c-1.84,2.208-12.147,1.84-15.827.737s-5.89-4.417-5.89-9.938a46.964,46.964,0,0,1,.493-5.733,8.084,8.084,0,0,0,6.868,5.733c6.942,1.068,10.387.394,11.761-.057C473.038,435.4,475.379,438.617,473.9,440.4Z" transform="translate(61.765 58.115)" fill="none" stroke="#263238" stroke-linecap="round" stroke-linejoin="round" stroke-width="1"/>
        <path id="Path_1041" data-name="Path 1041" d="M436.678,231.392s-22.781,6.987-24.907,9.72-30.981,43.429-35.233,47.986-5.164,9.719-4.86,11.846,3.342,7.29,3.342,7.29h12.453l8.809-13.365,21.757-22.934,8.921,35.428h49.815l7.427-36.716s15.658,26.653,15.961,27.565,4.86,8.809,13.364,8.2,7.29-11.846,3.342-21.261-19.439-41.3-24-45.557-29.159-9.719-29.159-9.719Z" transform="translate(50.761 31.399)" fill="#fff"/>
        <path id="Path_1042" data-name="Path 1042" d="M436.678,231.392s-22.781,6.987-24.907,9.72-30.981,43.429-35.233,47.986-5.164,9.719-4.86,11.846,3.342,7.29,3.342,7.29h12.453l8.809-13.365,21.757-22.934,8.921,35.428h49.815l7.427-36.716s15.658,26.653,15.961,27.565,4.86,8.809,13.364,8.2,7.29-11.846,3.342-21.261-19.439-41.3-24-45.557-29.159-9.719-29.159-9.719Z" transform="translate(50.761 31.399)" fill="none" stroke="#263238" stroke-linecap="round" stroke-linejoin="round" stroke-width="1"/>
        <path id="Path_1043" data-name="Path 1043" d="M482.869,289.792s-3.963-.511,2.685-4.6,15.856-3.963,18.8-3.325,3.452,2.557,5.115,6.777.895,8.055-.9,9.845-1.534,2.557-7.544,1.023a60.068,60.068,0,0,1-14.961-6.649c-2.685-1.663-3.2-3.069-3.2-3.069" transform="translate(65.796 38.455)" fill="#fff"/>
        <path id="Path_1044" data-name="Path 1044" d="M482.869,289.792s-3.963-.511,2.685-4.6,15.856-3.963,18.8-3.325,3.452,2.557,5.115,6.777.895,8.055-.9,9.845-1.534,2.557-7.544,1.023a60.068,60.068,0,0,1-14.961-6.649C483.38,291.2,482.869,289.792,482.869,289.792Z" transform="translate(65.796 38.455)" fill="none" stroke="#263238" stroke-linecap="round" stroke-linejoin="round" stroke-width="1"/>
        <path id="Path_1045" data-name="Path 1045" d="M483.6,290.1s10.883-3.631,14.975-4.654,8.439,2.046,9.462,6.9-.511,9.462-5.753,10.614a19.291,19.291,0,0,1-13.425-2.174c-2.941-1.79-7.928-4.475-7.928-4.475Z" transform="translate(65.691 38.963)" fill="#fff"/>
        <path id="Path_1046" data-name="Path 1046" d="M483.6,290.1s10.883-3.631,14.975-4.654,8.439,2.046,9.462,6.9-.511,9.462-5.753,10.614a19.291,19.291,0,0,1-13.425-2.174c-2.941-1.79-7.928-4.475-7.928-4.475Z" transform="translate(65.691 38.963)" fill="none" stroke="#263238" stroke-linecap="round" stroke-linejoin="round" stroke-width="1"/>
        <path id="Path_1047" data-name="Path 1047" d="M474.93,289.024s-3.2,1.279-3.836,1.662-3.708,3.709-5.626,4.476-4.731.767-2.557,2.94,4.859.512,6.138-.383a12.7,12.7,0,0,1,3.709-1.919,32.259,32.259,0,0,1,3.452.511c.511.128,8.439,2.174,10.485,2.686s3.2.895,4.6-1.663-.767-6.138-2.43-7.288-13.937-1.023-13.937-1.023" transform="translate(63.123 39.478)" fill="#fff"/>
        <path id="Path_1048" data-name="Path 1048" d="M474.93,289.024s-3.2,1.279-3.836,1.662-3.708,3.709-5.626,4.476-4.731.767-2.557,2.94,4.859.512,6.138-.383a12.7,12.7,0,0,1,3.709-1.919,32.259,32.259,0,0,1,3.452.511c.511.128,8.439,2.174,10.485,2.686s3.2.895,4.6-1.663-.767-6.138-2.43-7.288S474.93,289.024,474.93,289.024Z" transform="translate(63.123 39.478)" fill="none" stroke="#263238" stroke-linecap="round" stroke-linejoin="round" stroke-width="1"/>
        <path id="Path_1049" data-name="Path 1049" d="M477.239,287.38s-4.252-1.215-4.252.3-1.215,11.542,1.518,10.632,2.734-10.935,2.734-10.935" transform="translate(64.57 39.191)" fill="#fff"/>
        <path id="Path_1050" data-name="Path 1050" d="M477.239,287.38s-4.252-1.215-4.252.3-1.215,11.542,1.518,10.632S477.239,287.38,477.239,287.38Z" transform="translate(64.57 39.191)" fill="none" stroke="#263238" stroke-linecap="round" stroke-linejoin="round" stroke-width="1"/>
        <path id="Path_1051" data-name="Path 1051" d="M476.85,287.421s-2.43,10.631-.607,10.935,3.948-7.29,4.252-9.72-2.734-2.43-3.645-1.215" transform="translate(64.959 39.151)" fill="#fff"/>
        <path id="Path_1052" data-name="Path 1052" d="M476.85,287.421s-2.43,10.631-.607,10.935,3.948-7.29,4.252-9.72S477.762,286.206,476.85,287.421Z" transform="translate(64.959 39.151)" fill="none" stroke="#263238" stroke-linecap="round" stroke-linejoin="round" stroke-width="1"/>
        <path id="Path_1053" data-name="Path 1053" d="M480.224,288.546s-2.43,10.631-.607,10.935,3.949-7.29,4.252-9.72-2.734-2.43-3.645-1.215" transform="translate(65.42 39.304)" fill="#fff"/>
        <path id="Path_1054" data-name="Path 1054" d="M480.224,288.546s-2.43,10.631-.607,10.935,3.949-7.29,4.252-9.72S481.136,287.331,480.224,288.546Z" transform="translate(65.42 39.304)" fill="none" stroke="#263238" stroke-linecap="round" stroke-linejoin="round" stroke-width="1"/>
        <path id="Path_1055" data-name="Path 1055" d="M483.856,290.73s-2.489,8.258-.622,8.495,4.045-5.664,4.357-7.552-2.8-1.887-3.735-.943" transform="translate(65.912 39.627)" fill="#fff"/>
        <path id="Path_1056" data-name="Path 1056" d="M483.856,290.73s-2.489,8.258-.622,8.495,4.045-5.664,4.357-7.552S484.79,289.787,483.856,290.73Z" transform="translate(65.912 39.627)" fill="none" stroke="#263238" stroke-linecap="round" stroke-linejoin="round" stroke-width="1"/>
        <path id="Path_1057" data-name="Path 1057" d="M372.469,288.7s.832-5.2,2.288-7.695,5.615-3.328,8.111-4.368,9.775,1.872,12.271,4.576a9.76,9.76,0,0,1,2.287,9.151c-.831,2.7-5.2,5.2-5.823,5.2s-4.575-6.447-8.319-6.863a87.491,87.491,0,0,0-10.815,0" transform="translate(50.877 37.757)" fill="#fff"/>
        <path id="Path_1058" data-name="Path 1058" d="M372.469,288.7s.832-5.2,2.288-7.695,5.615-3.328,8.111-4.368,9.775,1.872,12.271,4.576a9.76,9.76,0,0,1,2.287,9.151c-.831,2.7-5.2,5.2-5.823,5.2s-4.575-6.447-8.319-6.863A87.491,87.491,0,0,0,372.469,288.7Z" transform="translate(50.877 37.757)" fill="none" stroke="#263238" stroke-linecap="round" stroke-linejoin="round" stroke-width="1"/>
        <path id="Path_1059" data-name="Path 1059" d="M372.549,288.1s2.08-7.279,10.815-7.279,10.191,8.527,10.191,10.4-2.5,9.359-4.368,9.983-12.393,1.189-14.2.074-4.305-9.225-2.433-13.177" transform="translate(50.797 38.358)" fill="#fff"/>
        <path id="Path_1060" data-name="Path 1060" d="M372.549,288.1s2.08-7.279,10.815-7.279,10.191,8.527,10.191,10.4-2.5,9.359-4.368,9.983-12.393,1.189-14.2.074S370.677,292.05,372.549,288.1Z" transform="translate(50.797 38.358)" fill="none" stroke="#263238" stroke-linecap="round" stroke-linejoin="round" stroke-width="1"/>
        <path id="Path_1061" data-name="Path 1061" d="M390.451,295.274s1.872,1.664,6.239,2.5,7.072,1.872,4.16,2.911a15.09,15.09,0,0,1-7.279.416,19.636,19.636,0,0,1-3.536-1.039Z" transform="translate(53.276 40.332)" fill="#fff"/>
        <path id="Path_1062" data-name="Path 1062" d="M390.451,295.274s1.872,1.664,6.239,2.5,7.072,1.872,4.16,2.911a15.09,15.09,0,0,1-7.279.416,19.636,19.636,0,0,1-3.536-1.039Z" transform="translate(53.276 40.332)" fill="none" stroke="#263238" stroke-linecap="round" stroke-linejoin="round" stroke-width="1"/>
        <path id="Path_1063" data-name="Path 1063" d="M384.8,290.517s4.783,2.288,6.447,5.407a14.735,14.735,0,0,1,1.664,6.24h-8.735Z" transform="translate(52.476 39.683)" fill="#fff"/>
        <path id="Path_1064" data-name="Path 1064" d="M384.8,290.517s4.783,2.288,6.447,5.407a14.735,14.735,0,0,1,1.664,6.24h-8.735Z" transform="translate(52.476 39.683)" fill="none" stroke="#263238" stroke-linecap="round" stroke-linejoin="round" stroke-width="1"/>
        <path id="Path_1065" data-name="Path 1065" d="M385.125,288.715s-2.7-.832-3.536.624-11.646,6.239-11.854,8.319-.208,4.991,1.871,5.408,16.223.208,16.847-.208-1.664-11.231-1.664-12.063-.416-2.08-1.664-2.08" transform="translate(50.491 39.404)" fill="#fff"/>
        <path id="Path_1066" data-name="Path 1066" d="M385.125,288.715s-2.7-.832-3.536.624-11.646,6.239-11.854,8.319-.208,4.991,1.871,5.408,16.223.208,16.847-.208-1.664-11.231-1.664-12.063S386.373,288.715,385.125,288.715Z" transform="translate(50.491 39.404)" fill="none" stroke="#263238" stroke-linecap="round" stroke-linejoin="round" stroke-width="1"/>
        <line id="Line_136" data-name="Line 136" x2="1.872" y2="12.063" transform="translate(432.081 329.783)" fill="#fff"/>
        <line id="Line_137" data-name="Line 137" x2="1.872" y2="12.063" transform="translate(432.081 329.783)" fill="none" stroke="#263238" stroke-linecap="round" stroke-linejoin="round" stroke-width="1"/>
        <line id="Line_138" data-name="Line 138" x2="2.288" y2="9.775" transform="translate(426.673 332.487)" fill="#fff"/>
        <line id="Line_139" data-name="Line 139" x2="2.288" y2="9.775" transform="translate(426.673 332.487)" fill="none" stroke="#263238" stroke-linecap="round" stroke-linejoin="round" stroke-width="1"/>
        <line id="Line_140" data-name="Line 140" x2="1.872" y2="6.863" transform="translate(422.93 334.567)" fill="#fff"/>
        <line id="Line_141" data-name="Line 141" x2="1.872" y2="6.863" transform="translate(422.93 334.567)" fill="none" stroke="#263238" stroke-linecap="round" stroke-linejoin="round" stroke-width="1"/>
        <path id="Path_1067" data-name="Path 1067" d="M421.664,196.023s-6.684,23.62-6.239,30.749,20.5,16.043,32.977,17.825,29.858-12.923,31.195-17.825.891-19.163-3.565-28.967-13.369-26.738-24.064-27.184-25.847,4.9-30.3,25.4" transform="translate(56.741 23.302)" fill="#263238"/>
        <path id="Path_1068" data-name="Path 1068" d="M421.664,196.023s-6.684,23.62-6.239,30.749,20.5,16.043,32.977,17.825,29.858-12.923,31.195-17.825.891-19.163-3.565-28.967-13.369-26.738-24.064-27.184S426.121,175.523,421.664,196.023Z" transform="translate(56.741 23.302)" fill="none" stroke="#263238" stroke-linecap="round" stroke-linejoin="round" stroke-width="1"/>
        <path id="Path_1069" data-name="Path 1069" d="M440.281,225.865s-9.112,1.215-9.112,2.43-3.645,3.949-3.645,3.949l3.037,23.388L448.482,245.3l15.492,10.935.607-22.781-9.112-7.594Z" transform="translate(58.397 30.852)" fill="#fff"/>
        <path id="Path_1070" data-name="Path 1070" d="M440.281,225.865s-9.112,1.215-9.112,2.43-3.645,3.949-3.645,3.949l3.037,23.388L448.482,245.3l15.492,10.935.607-22.781-9.112-7.594Z" transform="translate(58.397 30.852)" fill="none" stroke="#263238" stroke-linecap="round" stroke-linejoin="round" stroke-width="1"/>
        <path id="Path_1071" data-name="Path 1071" d="M434.047,220.52l-.912,15.8L446.2,255.45l11.542-19.135-1.215-15.187Z" transform="translate(59.163 30.122)" fill="#fff"/>
        <path id="Path_1072" data-name="Path 1072" d="M434.047,220.52l-.912,15.8L446.2,255.45l11.542-19.135-1.215-15.187Z" transform="translate(59.163 30.122)" fill="none" stroke="#263238" stroke-linecap="round" stroke-linejoin="round" stroke-width="1"/>
        <path id="Path_1073" data-name="Path 1073" d="M429.127,207.989s9.72-7.9,15.187-10.934,8.2-11.543,8.2-11.543.912,8.505,3.95,11.847a35.119,35.119,0,0,1,5.164,8.2l1.215,2.734s.3,15.492-.3,16.4-8.2,10.024-11.542,10.632-7.289.3-9.112-1.215-10.024-7.9-10.631-10.024-2.127-16.1-2.127-16.1" transform="translate(58.616 25.34)" fill="#fff"/>
        <path id="Path_1074" data-name="Path 1074" d="M429.127,207.989s9.72-7.9,15.187-10.934,8.2-11.543,8.2-11.543.912,8.505,3.95,11.847a35.119,35.119,0,0,1,5.164,8.2l1.215,2.734s.3,15.492-.3,16.4-8.2,10.024-11.542,10.632-7.289.3-9.112-1.215-10.024-7.9-10.631-10.024S429.127,207.989,429.127,207.989Z" transform="translate(58.616 25.34)" fill="none" stroke="#263238" stroke-linecap="round" stroke-linejoin="round" stroke-width="1"/>
        <path id="Path_1075" data-name="Path 1075" d="M439.023,208.1c0,1.108-.524,2.006-1.17,2.006s-1.171-.9-1.171-2.006.524-2.006,1.171-2.006,1.17.9,1.17,2.006" transform="translate(59.648 28.15)" fill="#263238"/>
        <path id="Path_1076" data-name="Path 1076" d="M451.817,208.1c0,1.108-.524,2.006-1.17,2.006s-1.171-.9-1.171-2.006.524-2.006,1.171-2.006,1.17.9,1.17,2.006" transform="translate(61.395 28.15)" fill="#263238"/>
        <path id="Path_1077" data-name="Path 1077" d="M441.977,217.265s4.011,2.006,6.685,0" transform="translate(60.371 29.677)" fill="none" stroke="#263238" stroke-linecap="round" stroke-linejoin="round" stroke-width="1"/>
        <path id="Path_1078" data-name="Path 1078" d="M440.8,220.834s5.683,2.006,9.36-.334" transform="translate(60.21 30.119)" fill="none" stroke="#263238" stroke-linecap="round" stroke-linejoin="round" stroke-width="1"/>
        <path id="Path_1079" data-name="Path 1079" d="M434.037,205.206s1.671-3.009,6.017-2.34" transform="translate(59.286 27.697)" fill="none" stroke="#263238" stroke-linecap="round" stroke-linejoin="round" stroke-width="1"/>
        <path id="Path_1080" data-name="Path 1080" d="M449.036,203.2s2.34-1.671,5.349,1.672" transform="translate(61.335 27.698)" fill="none" stroke="#263238" stroke-linecap="round" stroke-linejoin="round" stroke-width="1"/>
        <path id="Path_1081" data-name="Path 1081" d="M280.84,346.011l11.2,84.542L276.865,432l-13.006-47.33Z" transform="translate(36.041 47.263)" fill="#fff"/>
        <path id="Path_1082" data-name="Path 1082" d="M280.84,346.011l11.2,84.542L276.865,432l-13.006-47.33Z" transform="translate(36.041 47.263)" fill="none" stroke="#263238" stroke-linecap="round" stroke-linejoin="round" stroke-width="1"/>
        <path id="Path_1083" data-name="Path 1083" d="M225.322,318.992s63.588,8.31,71.9,13.367,1.445,13.729,1.445,15.175-23.123,88.517-23.123,88.517l-16.981-3.613,7.588-79.123-16.62,1.445s-61.058-.36-70.09-3.251-10.116-18.426-8.31-24.207,1.446-7.225,1.446-7.225Z" transform="translate(23.275 43.572)" fill="#fff"/>
        <path id="Path_1084" data-name="Path 1084" d="M225.322,318.992s63.588,8.31,71.9,13.367,1.445,13.729,1.445,15.175-23.123,88.517-23.123,88.517l-16.981-3.613,7.588-79.123-16.62,1.445s-61.058-.36-70.09-3.251-10.116-18.426-8.31-24.207,1.446-7.225,1.446-7.225Z" transform="translate(23.275 43.572)" fill="none" stroke="#263238" stroke-linecap="round" stroke-linejoin="round" stroke-width="1"/>
        <path id="Path_1085" data-name="Path 1085" d="M210.8,284.789l49.408,6.021,15.465-4.58s14.979,6.45,12.786,8.459-9.888-2.541-9.888-2.541-8.665,8.894-12.088,7.263a20.728,20.728,0,0,0-7.1-1.794l-43.85,2.947Z" transform="translate(28.795 38.9)" fill="#263238"/>
        <path id="Path_1086" data-name="Path 1086" d="M210.8,284.789l49.408,6.021,15.465-4.58s14.979,6.45,12.786,8.459-9.888-2.541-9.888-2.541-8.665,8.894-12.088,7.263a20.728,20.728,0,0,0-7.1-1.794l-43.85,2.947Z" transform="translate(28.795 38.9)" fill="none" stroke="#263238" stroke-linecap="round" stroke-linejoin="round" stroke-width="1"/>
        <path id="Path_1087" data-name="Path 1087" d="M184.28,226.556s-13.006,12.646-15.536,23.484-2.167,21.677-1.806,23.123,5.058,56.361,6.142,59.613,16.258,5.058,25.29,5.058,24.567-2.89,27.458-6.142,1.446-15.535-1.083-21.316-13.007-58.53-13.729-64.672-1.084-7.225-5.419-11.923-13.73-9.393-21.317-7.225" transform="translate(22.768 30.872)" fill="#fff"/>
        <path id="Path_1088" data-name="Path 1088" d="M184.28,226.556s-13.006,12.646-15.536,23.484-2.167,21.677-1.806,23.123,5.058,56.361,6.142,59.613,16.258,5.058,25.29,5.058,24.567-2.89,27.458-6.142,1.446-15.535-1.083-21.316-13.007-58.53-13.729-64.672-1.084-7.225-5.419-11.923S191.867,224.389,184.28,226.556Z" transform="translate(22.768 30.872)" fill="none" stroke="#263238" stroke-linecap="round" stroke-linejoin="round" stroke-width="1"/>
        <path id="Path_1089" data-name="Path 1089" d="M217.829,180.748s6.5,6.865,6.5,10.477-1.446,7.949-1.084,9.033,5.419,6.5,5.419,8.31-3.252,4.336-3.252,4.336-1.806,10.477-3.252,13.006-13.006,3.252-13.006,3.252l-6.5,12.284-17.342-9.394,2.169-14.452S177,199.175,175.2,189.781s9.033-18.065,11.561-18.065a11.764,11.764,0,0,0,4.7-1.083s-1.806-2.53.361-2.89,8.671,1.445,8.671,1.445-5.781-5.781,5.058-4.335,22.04,12.283,12.284,15.9" transform="translate(23.903 22.486)" fill="#fff"/>
        <path id="Path_1090" data-name="Path 1090" d="M217.829,180.748s6.5,6.865,6.5,10.477-1.446,7.949-1.084,9.033,5.419,6.5,5.419,8.31-3.252,4.336-3.252,4.336-1.806,10.477-3.252,13.006-13.006,3.252-13.006,3.252l-6.5,12.284-17.342-9.394,2.169-14.452S177,199.175,175.2,189.781s9.033-18.065,11.561-18.065a11.764,11.764,0,0,0,4.7-1.083s-1.806-2.53.361-2.89,8.671,1.445,8.671,1.445-5.781-5.781,5.058-4.335S227.584,177.135,217.829,180.748Z" transform="translate(23.903 22.486)" fill="none" stroke="#263238" stroke-linecap="round" stroke-linejoin="round" stroke-width="1"/>
        <path id="Path_1091" data-name="Path 1091" d="M212.486,221.22a23.353,23.353,0,0,0-4.783-.844c-3.095-.281-7.6-2.531-7.6-2.531l3.376,7.033,2.245-2.986Z" transform="translate(27.333 29.756)" fill="#263238"/>
        <path id="Path_1092" data-name="Path 1092" d="M212.486,221.22a23.353,23.353,0,0,0-4.783-.844c-3.095-.281-7.6-2.531-7.6-2.531l3.376,7.033,2.245-2.986Z" transform="translate(27.333 29.756)" fill="none" stroke="#263238" stroke-linecap="round" stroke-linejoin="round" stroke-width="1"/>
        <path id="Path_1093" data-name="Path 1093" d="M217.829,180.748c9.755-3.613-1.445-14.452-12.284-15.9s-5.058,4.335-5.058,4.335-6.5-1.806-8.671-1.445-.361,2.89-.361,2.89a11.764,11.764,0,0,1-4.7,1.083c-2.529,0-13.367,8.671-11.561,18.065,1.694,8.805,11,25.545,12.165,27.609,2.136-1.134,4.084-3.193,3.371-5.57-1.084-3.613,2.529-10.477,2.529-10.477a16.311,16.311,0,0,0,3.251,3.974c1.807,1.446,2.89,0,2.89,0l-.722-5.781a30.57,30.57,0,0,1,6.864-7.587c3.975-2.89-5.058-3.252-5.781-5.781s18.065-5.419,18.065-5.419" transform="translate(23.903 22.486)" fill="#263238"/>
        <path id="Path_1094" data-name="Path 1094" d="M217.829,180.748c9.755-3.613-1.445-14.452-12.284-15.9s-5.058,4.335-5.058,4.335-6.5-1.806-8.671-1.445-.361,2.89-.361,2.89a11.764,11.764,0,0,1-4.7,1.083c-2.529,0-13.367,8.671-11.561,18.065,1.694,8.805,11,25.545,12.165,27.609,2.136-1.134,4.084-3.193,3.371-5.57-1.084-3.613,2.529-10.477,2.529-10.477a16.311,16.311,0,0,0,3.251,3.974c1.807,1.446,2.89,0,2.89,0l-.722-5.781a30.57,30.57,0,0,1,6.864-7.587c3.975-2.89-5.058-3.252-5.781-5.781S217.829,180.748,217.829,180.748Z" transform="translate(23.903 22.486)" fill="none" stroke="#263238" stroke-linecap="round" stroke-linejoin="round" stroke-width="1"/>
        <path id="Path_1095" data-name="Path 1095" d="M196.178,201.652s-3.613-6.142-6.5-4.7-1.806,11.561,1.807,11.922,5.419-.722,5.419-.722" transform="translate(25.682 26.873)" fill="#fff"/>
        <path id="Path_1096" data-name="Path 1096" d="M196.178,201.652s-3.613-6.142-6.5-4.7-1.806,11.561,1.807,11.922,5.419-.722,5.419-.722" transform="translate(25.682 26.873)" fill="none" stroke="#263238" stroke-linecap="round" stroke-linejoin="round" stroke-width="1"/>
        <path id="Path_1097" data-name="Path 1097" d="M214.892,196.1c0,1.3-.566,2.348-1.265,2.348s-1.264-1.051-1.264-2.348.566-2.348,1.264-2.348,1.265,1.051,1.265,2.348" transform="translate(29.007 26.465)" fill="#263238"/>
        <path id="Path_1098" data-name="Path 1098" d="M210.456,193.035s2.529-3.252,5.781-1.445" transform="translate(28.747 26.095)" fill="none" stroke="#263238" stroke-linecap="round" stroke-linejoin="round" stroke-width="1"/>
        <path id="Path_1099" data-name="Path 1099" d="M211.728,207.736a8.292,8.292,0,0,0,5.419,2.167" transform="translate(28.921 28.375)" fill="none" stroke="#263238" stroke-linecap="round" stroke-linejoin="round" stroke-width="1"/>
        <path id="Path_1100" data-name="Path 1100" d="M182.6,219.816l-3.613,7.225,26.736,12.284,1.806-9.394Z" transform="translate(24.448 30.025)" fill="#06283d"/>
        <path id="Path_1101" data-name="Path 1101" d="M182.6,219.816l-3.613,7.225,26.736,12.284,1.806-9.394Z" transform="translate(24.448 30.025)" fill="none" stroke="#263238" stroke-linecap="round" stroke-linejoin="round" stroke-width="1"/>
        <path id="Path_1102" data-name="Path 1102" d="M265.512,422.417l5.781,11.923s13.729,5.058,13.367,7.225-16.981,1.084-16.981,1.084-23.484-4.336-23.845-7.587,4.7-16.259,4.7-16.259Z" transform="translate(33.304 57.206)" fill="#fff"/>
        <path id="Path_1103" data-name="Path 1103" d="M265.512,422.417l5.781,11.923s13.729,5.058,13.367,7.225-16.981,1.084-16.981,1.084-23.484-4.336-23.845-7.587,4.7-16.259,4.7-16.259Z" transform="translate(33.304 57.206)" fill="none" stroke="#263238" stroke-linecap="round" stroke-linejoin="round" stroke-width="1"/>
        <path id="Path_1104" data-name="Path 1104" d="M290.607,420.394s11.561,5.419,12.646,6.142,13.729,3.974,14.812,4.335,1.446,2.89,1.446,2.89-20.594,4.336-22.039,4.336-11.561-1.084-14.09-1.084h-9.033l1.083-15.175Z" transform="translate(37.474 57.423)" fill="#fff"/>
        <path id="Path_1105" data-name="Path 1105" d="M290.607,420.394s11.561,5.419,12.646,6.142,13.729,3.974,14.812,4.335,1.446,2.89,1.446,2.89-20.594,4.336-22.039,4.336-11.561-1.084-14.09-1.084h-9.033l1.083-15.175Z" transform="translate(37.474 57.423)" fill="none" stroke="#263238" stroke-linecap="round" stroke-linejoin="round" stroke-width="1"/>
        <path id="Path_1106" data-name="Path 1106" d="M178.351,258.823s10.839,58.529,14.452,60.336,72.541-11.23,72.541-11.23l-.575-8.3-56.431-2.511s-4.7-52.749-10.116-59.253-16.619-5.781-18.787-1.083" transform="translate(24.362 31.843)" fill="#fff"/>
        <path id="Path_1107" data-name="Path 1107" d="M178.351,258.823s10.839,58.529,14.452,60.336,72.541-11.23,72.541-11.23l-.575-8.3-56.431-2.511s-4.7-52.749-10.116-59.253-16.619-5.781-18.787-1.083" transform="translate(24.362 31.843)" fill="none" stroke="#263238" stroke-linecap="round" stroke-linejoin="round" stroke-width="1"/>
        <path id="Path_1108" data-name="Path 1108" d="M254.383,292.134s16.938-4.219,19.272-4.116,14.073,8.029,14.021,9.2-3.164,1.03-3.164,1.03l-5.431-.63-5.786-1.425s-4.623,3.916-6.958,3.812a34.243,34.243,0,0,1-5.8-1.035l-5.576,1.465Z" transform="translate(34.747 39.341)" fill="#fff"/>
        <path id="Path_1109" data-name="Path 1109" d="M254.383,292.134s16.938-4.219,19.272-4.116,14.073,8.029,14.021,9.2-3.164,1.03-3.164,1.03l-5.431-.63-5.786-1.425s-4.623,3.916-6.958,3.812a34.243,34.243,0,0,1-5.8-1.035l-5.576,1.465Z" transform="translate(34.747 39.341)" fill="none" stroke="#263238" stroke-linecap="round" stroke-linejoin="round" stroke-width="1"/>
        <path id="Path_1110" data-name="Path 1110" d="M147.835,244.653l6.5-.361s16.619,48.052,18.787,66.117,1.446,33.239.361,38.3-6.865,14.813-6.865,14.813l-6.864,2.167s7.225-19.871,7.587-25.29-.571-26.922-1.083-29.625c-3.975-20.955-18.426-66.117-18.426-66.117" transform="translate(20.193 33.369)" fill="#fff"/>
        <path id="Path_1111" data-name="Path 1111" d="M147.835,244.653l6.5-.361s16.619,48.052,18.787,66.117,1.446,33.239.361,38.3-6.865,14.813-6.865,14.813l-6.864,2.167s7.225-19.871,7.587-25.29-.571-26.922-1.083-29.625C162.287,289.815,147.835,244.653,147.835,244.653Z" transform="translate(20.193 33.369)" fill="none" stroke="#263238" stroke-linecap="round" stroke-linejoin="round" stroke-width="1"/>
        <path id="Path_1112" data-name="Path 1112" d="M199.056,406.725s35.767,18.065,36.49,22.039a33.692,33.692,0,0,1,0,9.033l-1.264-1.264-3.432-8.13L198.7,413.229Z" transform="translate(27.14 55.556)" fill="#fff"/>
        <path id="Path_1113" data-name="Path 1113" d="M199.056,406.725s35.767,18.065,36.49,22.039a33.692,33.692,0,0,1,0,9.033l-1.264-1.264-3.432-8.13L198.7,413.229Z" transform="translate(27.14 55.556)" fill="none" stroke="#263238" stroke-linecap="round" stroke-linejoin="round" stroke-width="1"/>
        <path id="Path_1114" data-name="Path 1114" d="M225.4,433.269a3.974,3.974,0,1,0,3.975-3.975,3.974,3.974,0,0,0-3.975,3.975" transform="translate(30.788 58.639)" fill="#263238"/>
        <path id="Path_1115" data-name="Path 1115" d="M225.4,433.269a3.974,3.974,0,1,0,3.975-3.975A3.974,3.974,0,0,0,225.4,433.269Z" transform="translate(30.788 58.639)" fill="none" stroke="#263238" stroke-linecap="round" stroke-linejoin="round" stroke-width="1"/>
        <path id="Path_1116" data-name="Path 1116" d="M194.218,406.725s-35.767,18.065-36.49,22.039a33.692,33.692,0,0,0,0,9.033l1.264-1.264,3.433-8.13,32.155-15.174Z" transform="translate(21.501 55.556)" fill="#fff"/>
        <path id="Path_1117" data-name="Path 1117" d="M194.218,406.725s-35.767,18.065-36.49,22.039a33.692,33.692,0,0,0,0,9.033l1.264-1.264,3.433-8.13,32.155-15.174Z" transform="translate(21.501 55.556)" fill="none" stroke="#263238" stroke-linecap="round" stroke-linejoin="round" stroke-width="1"/>
        <path id="Path_1118" data-name="Path 1118" d="M164.366,433.269a3.974,3.974,0,1,1-3.975-3.975,3.974,3.974,0,0,1,3.975,3.975" transform="translate(21.366 58.639)" fill="#263238"/>
        <path id="Path_1119" data-name="Path 1119" d="M164.366,433.269a3.974,3.974,0,1,1-3.975-3.975A3.974,3.974,0,0,1,164.366,433.269Z" transform="translate(21.366 58.639)" fill="none" stroke="#263238" stroke-linecap="round" stroke-linejoin="round" stroke-width="1"/>
        <rect id="Rectangle_327" data-name="Rectangle 327" width="5.781" height="62.865" transform="translate(218.609 403.391)" fill="#fff"/>
        <rect id="Rectangle_328" data-name="Rectangle 328" width="5.781" height="62.865" transform="translate(218.609 403.391)" fill="none" stroke="#263238" stroke-linecap="round" stroke-linejoin="round" stroke-width="1"/>
        <rect id="Rectangle_329" data-name="Rectangle 329" width="16.981" height="11.561" transform="translate(212.828 409.532)" fill="#263238"/>
        <rect id="Rectangle_330" data-name="Rectangle 330" width="16.981" height="11.561" transform="translate(212.828 409.532)" fill="none" stroke="#263238" stroke-linecap="round" stroke-linejoin="round" stroke-width="1"/>
        <path id="Path_1120" data-name="Path 1120" d="M159.215,350.393c12.279-1.295,53.079-4.885,89.52.057a1.478,1.478,0,0,1,.843,2.507c-3.578,3.553-14.059,10.45-42.385,12.3-28.809,1.886-43.371-7.065-48.922-11.748a1.769,1.769,0,0,1,.943-3.119" transform="translate(21.532 47.523)" fill="#fff"/>
        <path id="Path_1121" data-name="Path 1121" d="M159.215,350.393c12.279-1.295,53.079-4.885,89.52.057a1.478,1.478,0,0,1,.843,2.507c-3.578,3.553-14.059,10.45-42.385,12.3-28.809,1.886-43.371-7.065-48.922-11.748A1.769,1.769,0,0,1,159.215,350.393Z" transform="translate(21.532 47.523)" fill="none" stroke="#263238" stroke-linecap="round" stroke-linejoin="round" stroke-width="1"/>
        <path id="Path_1122" data-name="Path 1122" d="M248.836,353.649l-.059.051H158.5l-.239-.2a1.768,1.768,0,0,1,.963-3.106c12.187-1.284,52.389-4.821,88.583-.066a1.917,1.917,0,0,1,1.03,3.322" transform="translate(21.532 47.523)" fill="#06283d"/>
        <path id="Path_1123" data-name="Path 1123" d="M248.836,353.649l-.059.051H158.5l-.239-.2a1.768,1.768,0,0,1,.963-3.106c12.187-1.284,52.389-4.821,88.583-.066A1.917,1.917,0,0,1,248.836,353.649Z" transform="translate(21.532 47.523)" fill="none" stroke="#263238" stroke-linecap="round" stroke-linejoin="round" stroke-width="1"/>
        <rect id="Rectangle_331" data-name="Rectangle 331" width="13.367" height="14.09" transform="translate(214.635 456.5)" fill="#263238"/>
        <rect id="Rectangle_332" data-name="Rectangle 332" width="13.367" height="14.09" transform="translate(214.635 456.5)" fill="none" stroke="#263238" stroke-linecap="round" stroke-linejoin="round" stroke-width="1"/>
        <rect id="Rectangle_333" data-name="Rectangle 333" width="1.987" height="32.336" transform="translate(220.778 463.545)" fill="#fff"/>
        <rect id="Rectangle_334" data-name="Rectangle 334" width="1.987" height="32.336" transform="translate(220.778 463.545)" fill="none" stroke="#263238" stroke-linecap="round" stroke-linejoin="round" stroke-width="1"/>
        <rect id="Rectangle_335" data-name="Rectangle 335" width="3.501" height="8.469" transform="translate(220.034 487.448)" fill="#263238"/>
        <rect id="Rectangle_336" data-name="Rectangle 336" width="3.501" height="8.469" transform="translate(220.034 487.448)" fill="none" stroke="#263238" stroke-linecap="round" stroke-linejoin="round" stroke-width="1"/>
        <path id="Path_1124" data-name="Path 1124" d="M182.8,358.823h7.948l5.058-48.413h-5.419Z" transform="translate(24.969 42.4)" fill="#fff"/>
        <path id="Path_1125" data-name="Path 1125" d="M182.8,358.823h7.948l5.058-48.413h-5.419Z" transform="translate(24.969 42.4)" fill="none" stroke="#263238" stroke-linecap="round" stroke-linejoin="round" stroke-width="1"/>
        <path id="Path_1126" data-name="Path 1126" d="M170.722,314.264h54.555s-3.975-7.225-6.5-7.948-43.717,0-43.717,0-4.335,1.445-4.335,7.948" transform="translate(23.319 41.797)" fill="#06283d"/>
        <path id="Path_1127" data-name="Path 1127" d="M170.722,314.264h54.555s-3.975-7.225-6.5-7.948-43.717,0-43.717,0S170.722,307.76,170.722,314.264Z" transform="translate(23.319 41.797)" fill="none" stroke="#263238" stroke-linecap="round" stroke-linejoin="round" stroke-width="1"/>
        <path id="Path_1128" data-name="Path 1128" d="M225.277,313.487H170.722a12.6,12.6,0,0,1,.134-1.806H224.21c.648,1.047,1.067,1.806,1.067,1.806" transform="translate(23.319 42.573)" fill="#fff"/>
        <path id="Path_1129" data-name="Path 1129" d="M225.277,313.487H170.722a12.6,12.6,0,0,1,.134-1.806H224.21C224.858,312.728,225.277,313.487,225.277,313.487Z" transform="translate(23.319 42.573)" fill="none" stroke="#263238" stroke-linecap="round" stroke-linejoin="round" stroke-width="1"/>
        <rect id="Rectangle_337" data-name="Rectangle 337" width="45.431" height="2.707" transform="translate(293.756 339.954)" fill="#fff"/>
        <rect id="Rectangle_338" data-name="Rectangle 338" width="45.431" height="2.707" transform="translate(293.756 339.954)" fill="none" stroke="#263238" stroke-linecap="round" stroke-linejoin="round" stroke-width="1"/>
        <path id="Path_1130" data-name="Path 1130" d="M322.687,306.37H342.5a6.566,6.566,0,0,0,6.307-8.4l-12.42-35.7a1.444,1.444,0,1,0-2.729.948l12.395,35.632a3.686,3.686,0,0,1-3.553,4.629H322.687a1.445,1.445,0,0,0,0,2.89" transform="translate(43.879 35.691)" fill="#263238"/>
        <path id="Path_1131" data-name="Path 1131" d="M322.687,306.37H342.5a6.566,6.566,0,0,0,6.307-8.4l-12.42-35.7a1.444,1.444,0,1,0-2.729.948l12.395,35.632a3.686,3.686,0,0,1-3.553,4.629H322.687a1.445,1.445,0,0,0,0,2.89Z" transform="translate(43.879 35.691)" fill="none" stroke="#263238" stroke-linecap="round" stroke-linejoin="round" stroke-width="1"/>
        <path id="Path_1132" data-name="Path 1132" d="M329.642,219.158l-21.884,83.79,2.395,1.8s27.542-21.554,27.542-39.516-4.79-45.5-4.79-45.5Z" transform="translate(42.038 29.935)" fill="#fff"/>
        <path id="Path_1133" data-name="Path 1133" d="M329.642,219.158l-21.884,83.79,2.395,1.8s27.542-21.554,27.542-39.516-4.79-45.5-4.79-45.5Z" transform="translate(42.038 29.935)" fill="none" stroke="#263238" stroke-linecap="round" stroke-linejoin="round" stroke-width="1"/>
        <path id="Path_1134" data-name="Path 1134" d="M329.642,219.158l3.263.566-22.752,85.019-2.395-1.8Z" transform="translate(42.038 29.935)" fill="#263238"/>
        <path id="Path_1135" data-name="Path 1135" d="M329.642,219.158l3.263.566-22.752,85.019-2.395-1.8Z" transform="translate(42.038 29.935)" fill="none" stroke="#263238" stroke-linecap="round" stroke-linejoin="round" stroke-width="1"/>
        <path id="Path_1136" data-name="Path 1136" d="M251.956,308.473l4.709,15.852c1.671,4.5,2.322,12.14,1.878,17.1L247.5,455.9c-.127,1.317.658,2.482,1.674,2.482a1.883,1.883,0,0,0,1.658-1.8L271.924,310h-7.731l-1.357,8.431c-.231,1.432-1.765,1.533-2.1.139l-2.613-10.736Z" transform="translate(33.805 42.048)" fill="#fff"/>
        <path id="Path_1137" data-name="Path 1137" d="M251.956,308.473l4.709,15.852c1.671,4.5,2.322,12.14,1.878,17.1L247.5,455.9c-.127,1.317.658,2.482,1.674,2.482a1.883,1.883,0,0,0,1.658-1.8L271.924,310h-7.731l-1.357,8.431c-.231,1.432-1.765,1.533-2.1.139l-2.613-10.736Z" transform="translate(33.805 42.048)" fill="none" stroke="#263238" stroke-linecap="round" stroke-linejoin="round" stroke-width="1"/>
        <path id="Path_1138" data-name="Path 1138" d="M550.93,308.473l-4.709,15.852c-1.671,4.5-2.322,12.14-1.878,17.1L555.388,455.9c.127,1.317-.658,2.482-1.673,2.482a1.883,1.883,0,0,1-1.659-1.8L530.962,310h7.731l1.357,8.431c.231,1.432,1.765,1.533,2.1.139l2.613-10.736Z" transform="translate(72.526 42.048)" fill="#fff"/>
        <path id="Path_1139" data-name="Path 1139" d="M550.93,308.473l-4.709,15.852c-1.671,4.5-2.322,12.14-1.878,17.1L555.388,455.9c.127,1.317-.658,2.482-1.673,2.482a1.883,1.883,0,0,1-1.659-1.8L530.962,310h7.731l1.357,8.431c.231,1.432,1.765,1.533,2.1.139l2.613-10.736Z" transform="translate(72.526 42.048)" fill="none" stroke="#263238" stroke-linecap="round" stroke-linejoin="round" stroke-width="1"/>
        <rect id="Rectangle_339" data-name="Rectangle 339" width="354.805" height="9.394" transform="translate(277.5 342.603)" fill="#fff"/>
        <rect id="Rectangle_340" data-name="Rectangle 340" width="354.805" height="9.394" transform="translate(277.5 342.603)" fill="none" stroke="#263238" stroke-linecap="round" stroke-linejoin="round" stroke-width="1"/>
      </g>
    </g>
  </g>
</svg>
