<svg xmlns="http://www.w3.org/2000/svg" width="46" height="46" viewBox="0 0 46 46">
  <g id="Group_1189" data-name="Group 1189" transform="translate(-6119 -4352)">
    <circle id="Ellipse_119" data-name="Ellipse 119" cx="23" cy="23" r="23" transform="translate(6119 4352)" fill="#3330e4"/>
    <path id="Icon_awesome-building" data-name="Icon awesome-building" d="M22.946,25.261H21.893v-24A1.263,1.263,0,0,0,20.63,0H2.947A1.263,1.263,0,0,0,1.684,1.263v24H.632A.632.632,0,0,0,0,25.893v1.053H23.577V25.893A.632.632,0,0,0,22.946,25.261ZM6.736,4a.632.632,0,0,1,.632-.632H9.473A.632.632,0,0,1,10.1,4V6.1a.632.632,0,0,1-.632.632H7.368A.632.632,0,0,1,6.736,6.1Zm0,5.052a.632.632,0,0,1,.632-.632H9.473a.632.632,0,0,1,.632.632v2.105a.632.632,0,0,1-.632.632H7.368a.632.632,0,0,1-.632-.632Zm2.737,7.789H7.368a.632.632,0,0,1-.632-.632V14.1a.632.632,0,0,1,.632-.632H9.473a.632.632,0,0,1,.632.632v2.105A.632.632,0,0,1,9.473,16.841Zm4,8.42H10.1V20.841a.632.632,0,0,1,.632-.632h2.105a.632.632,0,0,1,.632.632Zm3.368-9.052a.632.632,0,0,1-.632.632H14.1a.632.632,0,0,1-.632-.632V14.1a.632.632,0,0,1,.632-.632h2.105a.632.632,0,0,1,.632.632Zm0-5.052a.632.632,0,0,1-.632.632H14.1a.632.632,0,0,1-.632-.632V9.052A.632.632,0,0,1,14.1,8.42h2.105a.632.632,0,0,1,.632.632Zm0-5.052a.632.632,0,0,1-.632.632H14.1a.632.632,0,0,1-.632-.632V4a.632.632,0,0,1,.632-.632h2.105A.632.632,0,0,1,16.841,4Z" transform="translate(6130 4362)" fill="#fff"/>
  </g>
</svg>
