<svg xmlns="http://www.w3.org/2000/svg" width="59.021" height="69.87" viewBox="0 0 59.021 69.87">
  <path id="Icon_awesome-calendar-check" data-name="Icon awesome-calendar-check" d="M55.494,21.209H1.527A1.56,1.56,0,0,1,0,19.619V14.847A6.24,6.24,0,0,1,6.109,8.484h6.109V1.591A1.56,1.56,0,0,1,13.746,0h5.091a1.56,1.56,0,0,1,1.527,1.591V8.484H36.657V1.591A1.56,1.56,0,0,1,38.184,0h5.091A1.56,1.56,0,0,1,44.8,1.591V8.484h6.109a6.24,6.24,0,0,1,6.109,6.363v4.772A1.56,1.56,0,0,1,55.494,21.209ZM1.527,25.451H55.494a1.56,1.56,0,0,1,1.527,1.591V61.507a6.24,6.24,0,0,1-6.109,6.363H6.109A6.24,6.24,0,0,1,0,61.507V27.042A1.56,1.56,0,0,1,1.527,25.451ZM43.949,38.17l-3.585-3.764A1.485,1.485,0,0,0,38.2,34.4l-13.5,13.943L18.855,42.2a1.485,1.485,0,0,0-2.16-.009L13.081,45.92a1.638,1.638,0,0,0-.009,2.25L23.586,59.208a1.485,1.485,0,0,0,2.16.009l18.2-18.8a1.638,1.638,0,0,0,.009-2.25Z" transform="translate(1 1)" fill="none" stroke="#06283d" stroke-width="2"/>
</svg>
