<svg xmlns="http://www.w3.org/2000/svg" width="46" height="46" viewBox="0 0 46 46">
  <g id="Group_1190" data-name="Group 1190" transform="translate(-6119 -4287)">
    <circle id="Ellipse_117" data-name="Ellipse 117" cx="23" cy="23" r="23" transform="translate(6119 4287)" fill="#3330e4"/>
    <path id="Icon_awesome-calendar-check" data-name="Icon awesome-calendar-check" d="M22.141,8.125H.609A.609.609,0,0,1,0,7.516V5.688A2.437,2.437,0,0,1,2.438,3.25H4.875V.609A.609.609,0,0,1,5.484,0H7.516a.609.609,0,0,1,.609.609V3.25h6.5V.609A.609.609,0,0,1,15.234,0h2.031a.609.609,0,0,1,.609.609V3.25h2.438A2.437,2.437,0,0,1,22.75,5.688V7.516A.609.609,0,0,1,22.141,8.125ZM.609,9.75H22.141a.609.609,0,0,1,.609.609v13.2A2.437,2.437,0,0,1,20.313,26H2.438A2.437,2.437,0,0,1,0,23.563v-13.2A.609.609,0,0,1,.609,9.75Zm16.925,4.872L16.1,13.18a.609.609,0,0,0-.862,0L9.858,18.518,7.523,16.164a.609.609,0,0,0-.862,0L5.219,17.591a.609.609,0,0,0,0,.862L9.41,22.682a.609.609,0,0,0,.862,0l7.259-7.2a.609.609,0,0,0,0-.862Z" transform="translate(6131 4297)" fill="#fff"/>
  </g>
</svg>
