<svg xmlns="http://www.w3.org/2000/svg" xmlns:xlink="http://www.w3.org/1999/xlink" viewBox="0 0 417.14 144.24"><defs><style>.cls-1,.cls-11{fill:none;}.cls-2{isolation:isolate;}.cls-3{font-size:45.06px;fill:#FFFFFF;font-family:Cambria-BoldItalic, Cambria;font-weight:700;font-style:italic;}.cls-4{letter-spacing:-0.01em;}.cls-5{letter-spacing:-0.01em;}.cls-6{letter-spacing:-0.01em;}.cls-7{letter-spacing:-0.02em;}.cls-8{letter-spacing:-0.01em;}.cls-9{letter-spacing:0em;}.cls-10{letter-spacing:-0.01em;}.cls-11{stroke:#1363df;stroke-miterlimit:10;}.cls-12{fill:#1363df;}.cls-13{fill:#fab29a;}.cls-14{fill:#dadada;}.cls-15{fill:#b3b3b3;}.cls-15,.cls-17{mix-blend-mode:multiply;}.cls-16,.cls-19{fill:#fff;}.cls-17{fill:#878787;opacity:0.5;}.cls-18{clip-path:url(#clip-path);}.cls-19{fill-rule:evenodd;}</style><clipPath id="clip-path"><path class="cls-1" d="M110.13,77.67c0,14-11.31,28.17-18,35.39-9.87,10.57-22.46,19.83-32.84,24.16l-2.1.88L55,137.22c-10.38-4.34-23-13.59-32.83-24.16C15.45,105.84,4.14,91.64,4.14,77.67V32H9.61C24.05,32,27,26.1,27,17.19V11.72H87.26v5.47c0,8.91,3,14.84,17.41,14.84h5.46Z"/></clipPath></defs><g class="cls-2"><g id="Layer_1" data-name="Layer 1"><text class="cls-3" transform="translate(125.35 37.55)"><tspan class="cls-4">C</tspan><tspan x="24.2" y="0">orpo</tspan><tspan class="cls-5" x="119.16" y="0">r</tspan><tspan x="139.27" y="0">a</tspan><tspan class="cls-6" x="164.95" y="0">t</tspan><tspan x="181.03" y="0">e </tspan><tspan class="cls-7" x="0" y="46.61">T</tspan><tspan class="cls-8" x="26.27" y="46.61">r</tspan><tspan x="46.38" y="46.61">anspa</tspan><tspan class="cls-5" x="169.79" y="46.61">r</tspan><tspan x="189.9" y="46.61">en</tspan><tspan class="cls-9" x="238.75" y="46.61">c</tspan><tspan x="259.34" y="46.61">y </tspan><tspan class="cls-10" x="0" y="93.23">A</tspan><tspan x="27.13" y="93.23">ct Filing</tspan></text><path class="cls-11" d="M104.67,28.24C93,28.24,90.91,24.63,90.91,17V7.93H23.37V17c0,7.6-2.06,11.21-13.77,11.21H.5V77.52c0,15.22,11.93,30.26,19,37.87,10.2,10.92,23.27,20.52,34.1,25l3.51,1.47,3.51-1.47c10.82-4.52,23.89-14.12,34.09-25,7.11-7.61,19-22.65,19-37.87V28.24Z"/><path class="cls-12" d="M110.13,77.67c0,14-11.31,28.17-18,35.39-9.87,10.57-22.46,19.83-32.84,24.16l-2.1.88L55,137.22c-10.38-4.34-23-13.59-32.83-24.16C15.45,105.84,4.14,91.64,4.14,77.67V32H9.61C24.05,32,27,26.1,27,17.19V11.72H87.26v5.47c0,8.91,3,14.84,17.41,14.84h5.46Z"/><path class="cls-13" d="M52,92.72s1.8,1.07,3.25.22,2.47-1.48,2.47-1.48L54.56,89.6Z"/><path class="cls-14" d="M52,92.72s1.8,1.07,3.25.22,2.47-1.48,2.47-1.48L54.56,89.6Z"/><path class="cls-14" d="M76.26,81.25c-.66,1-2.05,2-4.86.44h0a4.16,4.16,0,0,1,.52,3.07,4,4,0,0,1-.17.53l0,0c-.84,1.91-3.41,2-4.12,1.82h0a2.36,2.36,0,0,1-.25,2.2,2.92,2.92,0,0,1-.32.42,3.07,3.07,0,0,1-3.3.91,4,4,0,0,1-1.06-.59,3.4,3.4,0,0,1-.59,1.48,2.12,2.12,0,0,1-1.75.88,7.17,7.17,0,0,1-3.68-1l-.87-.5-1.24-.75c-2.32-1.42-11.34-5.87-11.34-5.87s-1.67-1.38-3.57-2.92c-1.64-1.33-3.46-2.78-4.53-3.57L33.32,77l-5.25-2.51-2.46-1.18-7.06-3.38L28.26,56l4.79,2.09,6,2.62,3.56,1.56,8.14-1.88,2-.46,6.52,4.13L75.38,74.3,76,76.89l.64,1.43h0a1.41,1.41,0,0,1,.12.5v0A4.35,4.35,0,0,1,76.26,81.25Z"/><path class="cls-15" d="M55.79,90.92l-1.24-.75c-2.32-1.42-11.34-5.87-11.34-5.87s-1.67-1.38-3.57-2.92c-1.64-1.33-3.46-2.78-4.53-3.57L33.32,77l-5.25-2.51,1.12-1.94,7.92,3.74S47,84.53,49.8,86.32s5.88,4.12,5.88,4.12Z"/><polygon class="cls-15" points="39.05 60.71 33.31 76.95 25.61 73.26 33.05 58.09 39.05 60.71"/><path class="cls-15" d="M76.66,78.32h0L76,76.89l-.64-2.59L59.23,64.07h0l-6.52-4.14-2,.46-1.23,1.76-5.48,7.52A3.76,3.76,0,0,0,48,71.77c3-.25,5.54-4.42,6.6-4.92.42-.19,2.78.64,5.69,1.88C64.59,71.11,73,75.79,74.78,77a8.18,8.18,0,0,1,2,1.83A1.46,1.46,0,0,0,76.66,78.32Z"/><path class="cls-15" d="M71.92,84.77c-1.69-1.19-4.54-3.13-6-4.13A4.06,4.06,0,0,1,63.84,77l7.56,4.74h0A4.16,4.16,0,0,1,71.92,84.77Z"/><path class="cls-15" d="M67.36,89.36l-4.39-3a5,5,0,0,1-1.9-3.62l6.54,4.39h0A2.36,2.36,0,0,1,67.36,89.36Z"/><path class="cls-15" d="M62.68,90.1a3.4,3.4,0,0,1-.59,1.48,37.41,37.41,0,0,1-3.52-2.31,3.24,3.24,0,0,1-1.51-2.51Z"/><path class="cls-16" d="M99.64,66.24l-13.58,5-5.52,2-.11.14a17.92,17.92,0,0,1-3.21,2.76c-.71.49-1.2.76-1.2.76l-.38-.49a5.36,5.36,0,0,0-1.4-1.24l-2.3-1.38-4.36-2.61-.82-.49-.52-.31L57,64.83a1.55,1.55,0,0,0-1.13-.19l-.19,0L53,65.61l-.15,0-.16.06a1.76,1.76,0,0,0-.45.32,1.71,1.71,0,0,0-.21.26c-2,3.22-4.15,4.23-5.75,4.42l-.57,0a4.74,4.74,0,0,1-1.08-.12,1.09,1.09,0,0,1-.77-1.47l2.89-6.33a2.89,2.89,0,0,1,1.32-1.48l7.84-4.24a2.89,2.89,0,0,1,1.68-.34l13.56,1.37,4.21-1.56,5.49-2,12.64-4.67,5.16,13.76Z"/><polygon class="cls-16" points="38.15 59.33 29.86 77.41 24.12 74.8 18.29 72.15 28.05 54.47 32.11 56.42 38.15 59.33"/><path class="cls-15" d="M56.66,91.41c-.64-.34-1.33-.76-2.11-1.24-2.32-1.42-11.34-5.87-11.34-5.87s-1.67-1.38-3.57-2.92A6.43,6.43,0,0,1,44,83.5l2.35-1.12s2.56.21,3.55,3.59l2.41-1.07a4,4,0,0,1,2,3s1.95.69,2.27,1.91A4,4,0,0,1,56.66,91.41Z"/><path class="cls-16" d="M41.47,85.53a2.25,2.25,0,0,1-1.23-.21c-1.45-.67-2.8-3.3-1.72-4.06,0,0,.58-.58,2.08.32a5.66,5.66,0,0,1,1.8,1.54,2.33,2.33,0,0,1,.39,1.07A1.39,1.39,0,0,1,41.47,85.53Z"/><path class="cls-15" d="M41.47,85.53a12.17,12.17,0,0,1,.93-2.41,2.33,2.33,0,0,1,.39,1.07A1.39,1.39,0,0,1,41.47,85.53Z"/><path class="cls-16" d="M43.9,89a2.36,2.36,0,0,1-1.79-2.87,9.54,9.54,0,0,1,1.2-3c1.28-2,5-1.15,4.66,2.19L46.52,88.6A4.48,4.48,0,0,1,43.9,89Z"/><path class="cls-16" d="M52.67,87.52l-1.74,3.62a3.71,3.71,0,0,1-3.25-.4,1.79,1.79,0,0,1-.26-.2,2.08,2.08,0,0,1-.9-1.94L48,85.35s1-2,2.83-1.52l.11,0A2.71,2.71,0,0,1,52.67,87.52Z"/><path class="cls-16" d="M55.88,89.49c-.18.94-1,3.36-1,3.36-.33.31-.87.66-2.36.12a3.32,3.32,0,0,1-.73-.39,2.25,2.25,0,0,1-.88-1.44l1.42-3a2.07,2.07,0,0,1,1.77-.56A2.32,2.32,0,0,1,55.88,89.49Z"/><path class="cls-15" d="M50.8,83.83a6.38,6.38,0,0,0-2.11,3c-.48,1.28-.94,2.68-1.27,3.72a2.08,2.08,0,0,1-.9-1.94L48,85.35S49,83.37,50.8,83.83Z"/><path class="cls-15" d="M54.12,87.61a5.25,5.25,0,0,0-1.32,2.17c-.4,1-.74,2-1,2.8a2.25,2.25,0,0,1-.88-1.44l1.42-3A2.07,2.07,0,0,1,54.12,87.61Z"/><path class="cls-17" d="M98.67,63.64c-10,3.37-21.54,7.33-22.58,8a8.28,8.28,0,0,1-2.5,1c-1.08-.69-2.46-1.56-4-2.5a6.56,6.56,0,0,0,2.3-5.21,7.92,7.92,0,0,1-3.28,4.6c-5.33-3.32-11.74-7.22-12.21-7.23a28,28,0,0,0-4.16,1.07,8.21,8.21,0,0,1-3,5.52,18,18,0,0,1-3,1.87c1.6-.19,3.72-1.2,5.75-4.42a1.71,1.71,0,0,1,.21-.26l.09-.08,0,0,.1-.08h0l.1-.07h0l.11-.06.08,0,.08,0,.15,0,2.66-.92.09,0h0l.07,0a1.58,1.58,0,0,1,1.14.19l9.24,5.54,1.34.8,4.36,2.61h0l2.3,1.38a5.36,5.36,0,0,1,1.4,1.24l.38.49s.49-.27,1.2-.76a17,17,0,0,0,3.32-2.9l19.1-7Z"/><path class="cls-17" d="M86.06,71.21l-5.52,2-.11.14L75.38,56.58l5.49-2Z"/><polygon class="cls-16" points="95.19 70.12 89.54 72.05 83.16 74.23 76.66 55.43 83.02 53.09 87.19 51.57 95.19 70.12"/><polygon class="cls-15" points="95.19 70.12 89.54 72.05 83.02 53.09 87.19 51.57 95.19 70.12"/><polygon points="110.15 40.65 110.15 70.02 94.46 77.24 91.98 71.22 91.21 69.33 90.07 66.56 88.25 62.13 87.78 61 84.57 53.18 84.33 52.61 84.01 51.81 96.22 47.32 110.15 40.65"/><polygon class="cls-15" points="32.11 56.42 24.12 74.8 18.29 72.15 28.05 54.47 32.11 56.42"/><polygon points="31.19 55.02 30.79 55.78 30.22 56.85 26.54 63.79 25.97 64.87 22.35 71.7 21.37 73.55 18.32 79.31 7.96 73.27 5.52 71.84 4.13 71.03 4.13 40.08 19.47 49.36 31.19 55.02"/><circle class="cls-16" cx="41.6" cy="54.42" r="2.39"/><circle class="cls-16" cx="46.8" cy="56.34" r="1.32"/><circle class="cls-16" cx="80.15" cy="78.67" r="1.32"/><circle class="cls-16" cx="73.62" cy="51.95" r="1.02"/><path class="cls-16" d="M52.5,97.35c-.89.18-1,.32-1.22,1.22-.17-.9-.32-1-1.21-1.22.89-.18,1-.32,1.21-1.22C51.46,97,51.61,97.17,52.5,97.35Z"/><circle class="cls-16" cx="57.72" cy="97.84" r="2.39" transform="matrix(0.16, -0.99, 0.99, 0.16, -48.01, 139.38)"/><circle class="cls-16" cx="34.7" cy="82.57" r="1.9"/><circle class="cls-16" cx="69" cy="53.54" r="1.9"/><circle class="cls-16" cx="77.49" cy="84.27" r="2.78"/><circle class="cls-16" cx="56.55" cy="49.61" r="3.1"/><g class="cls-18"><rect class="cls-16" x="36.43" y="110.21" width="41.42" height="1.1" rx="0.36"/><path class="cls-19" d="M57.14,103.89l-18.3,5.61h36.6Zm-.21.81,12.56,4.18H67.42Z"/><path class="cls-19" d="M77.49,137H73.58c-1.58-.27-1.49-1.46-1.49-2.86V115.06c0-1.66,0-2.21,1.33-2.1a1.34,1.34,0,1,0,1.33-1.14H39.44a1.34,1.34,0,1,0,1.34,1.34,1.36,1.36,0,0,0,0-.2c1.28-.11,1.33.44,1.33,2.1v19.08c0,1.4.09,2.59-1.49,2.86H36.79a.36.36,0,0,0-.36.36v.38a.36.36,0,0,0,.36.36h40.7a.36.36,0,0,0,.36-.36v-.38A.36.36,0,0,0,77.49,137Zm-34.16,0h-.56V112.8h.56Zm1.11,0h-.53V112.8h.53Zm1.1,0H45V112.8h.53Zm1.08,0h-.56V112.8h.56Zm1.1,0h-.53V112.8h.53Zm4.65,0H49.86c-1.56-.27-1.48-1.41-1.49-2.8V115c0-1.79.27-2.19,1.52-2.12h0a1.34,1.34,0,0,0,2.68,0h0c1.28-.11,1.33.44,1.33,2.1v19.08C53.86,135.54,54,136.73,52.37,137Zm2.73,0h-.56V112.8h.56Zm1.11,0h-.54V112.8h.54Zm1.1,0h-.53V112.8h.53Zm1.08,0h-.56V112.8h.56Zm1.1,0H59V112.8h.53Zm6.32-2.8c0,1.39.07,2.53-1.49,2.8H61.63c-1.56-.27-1.48-1.41-1.49-2.8V115c0-1.79.27-2.19,1.52-2.12h0a1.34,1.34,0,0,0,2.68,0h0c1.25-.07,1.52.33,1.52,2.12ZM67,137h-.53V112.8H67Zm1.13,0h-.56V112.8h.56Zm1.06,0h-.53V112.8h.53Zm1.1,0h-.53V112.8h.53Zm1.13,0h-.56V112.8h.56Z"/></g><path class="cls-16" d="M50.8,26.46,48,22.16a.53.53,0,0,0-.23-.24.93.93,0,0,0-.39-.06h-.26a2.26,2.26,0,0,0-2.17,1.67,13.22,13.22,0,0,0-.67,4.76A12.63,12.63,0,0,0,44.93,33a2.29,2.29,0,0,0,2.19,1.64h.21a1.18,1.18,0,0,0,.39,0,.53.53,0,0,0,.22-.21L50.8,30h0v4.69a22.49,22.49,0,0,1-4,.33A6.21,6.21,0,0,1,42,33.23a7.13,7.13,0,0,1-1.61-4.94,8.23,8.23,0,0,1,.74-3.6,5.33,5.33,0,0,1,2.18-2.35,6.78,6.78,0,0,1,3.47-.83,23.41,23.41,0,0,1,4.06.35v4.6Z"/><path class="cls-16" d="M59.35,33.31a.71.71,0,0,0,.18.21l1.38,1.27v0H54.37v0l1.38-1.27a1.1,1.1,0,0,0,.17-.21A.78.78,0,0,0,56,33v-11H54.89a.76.76,0,0,0-.31,0,.6.6,0,0,0-.17.26l-2.3,4.37h0v-5H63.21v5h0l-2.3-4.37a.52.52,0,0,0-.18-.26.73.73,0,0,0-.31,0H59.32V33A.85.85,0,0,0,59.35,33.31Z"/><path class="cls-16" d="M65,32a.9.9,0,0,0,.21.41l1.66,2.39v0H62.4v0l1.8-2.39.27-.39c0-.09.09-.22.15-.4l2.6-7.95c0-.2.08-.31.08-.32a.62.62,0,0,0-.19-.34L66,21.73v0H70.4l3.49,11.08a3.48,3.48,0,0,0,.37.77l.79,1.25v0H69.52v0l.9-1.25a.45.45,0,0,0,.09-.25.9.9,0,0,0-.06-.26l-.87-2.78H65.5L65,31.74A.93.93,0,0,0,65,32Zm.65-2.11h3.85l-1.88-6.06Z"/></g></g></svg>