<svg xmlns="http://www.w3.org/2000/svg" width="1922.331" height="418.006" viewBox="0 0 1922.331 418.006">
  <path id="Path_1474" data-name="Path 1474" d="M1920.331,728.125h-34.324V705.286h-50.418v-7.2h-17.9V685.6h-11.824v63.679l-7.555,5.063v-68.18h-34l-6.9,5.4v35.89h-13.138V714.286H1734.26v12.488l-7.226,2.25v18.339l-8.211,3.825v-70.88H1704.7v74.03h-10.511V725.424l-5.255-2.813h-25.455l-11.332,7.651v16.089l-40.565-.45,3.777,5.288h-22.335l-13.631-10.576h-20.857V730.262H1554.1v-38.7h-43.521v46.578h-10.018V725.874h-10.675v12.263l-6.9,1.913v18.676l-7.883,3.938v-71.1H1460v74.255h-9.525v-29.14l-5.42-3.263H1419.6l-11.5,7.763v16.314h-40.893l3.777,5.4h-22.171l-13.467-10.013h-20.529v-11.7h-4.27l.657-38.815h-44.835v95.294h-8.047v3.825h-4.434v18.339h-7.554v-1.463h-3.777v-3.15h-4.27V797.654h-6.733v-5.625h-3.285v5.625h-2.463v3.825h-6.4v2.588h-2.135V799.9h-10.675v-2.25h-14.945v3.825h-2.3v4.163h-2.628v2.7h-3.942v-2.7h-3.285v-3.488h-19.051v3.488h-2.792v9.563h-11.168V798.1h-2.792v-1.8h-11.5v-2.7h-3.777V773.69h-2.792v-5.513H1115.28v5.513h-2.792v33.64h-3.12v-36.9h-9.689v22.164h-5.091V799.9H1091.3v21.264h-2.956V772.453h-9.69v12.826h-11.332V748.151h-20.364v31.615h-6.9V759.514h-14.288v-45h-11.5v-5.063h-5.091V693.81h-5.748V689.2h-2.3v-5.963H997.2v-3.375H976.342v3.375h-2.135V689.2h-1.971v4.613H967.31v15.638H963.2v40.165H931.672V731.95H917.055V671.2H891.928V731.95h-13.3v5.288h-6.4v29.477H861.053v-2.7h-5.091v-4.725h-6.733V731.95H839.047v-7.876H832.97v7.876h-3.941v7.088H819.5v2.813h-3.12v-5.513H798.154v-1.913h-6.076V731.95H777.132v5.288h-3.12v6.638h-4.106v4.613h-6.4v-3.263h-6.4v-5.738H729.506v5.738h-3.777v14.063H707.663V733.3h-4.927v-2.138h-15.93v-4.613h-5.912V695.722h-4.6v-8.213H660.858v8.213h-4.434v52.541h-4.763V691.109H637.209v33.527h-9.361v11.476h-4.434v34.2h-3.777l.821-76.055H603.214v17.664H587.448v-55.8h-31.2V704.61H545.076V674.233H522.741l.821-68.855H498.107v-9h-2.628V574.327h-9.361V558.688h-6.9v-5.4h-31.2v5.4H444.4v8.776h-4.927v6.188h-6.4v23.964h-3.777v63.229L410.08,656.12V727.9H397.27V714.286h-9.033v12.151l-7.226,2.925v18.451l-8.376,3.938V680.084H357.2v74.48H346.688V727.337l-5.091-4.613H316.8l-10.675,6.638v17.1h-37.28v4.725H246.508L233.37,740.613H212.348v-9.788h-4.434V690.772H164.065l-.493,95.938h-8.7v3.068h-4.434v18.676h-6.4v-1.238h-4.106v-3.155h-4.763v-18H128.92v-4.95h-3.613v5.594h-2.628v3.744h-5.748v2.025h-2.463v-3.825H102.643v-2.588h-13.8v3.713H86.713v3.938H84.25v2.925H80.472v-2.363H76.859v-3.825H57.48v3.825H54.36v9.783h-11V786.71h-3.12v-2.219H29.89v2.219H25.329v17.352H10.305v-2.587H0V969.288l1920.331-12.1Z" transform="translate(1 -552.288)" fill="none" stroke="#fff" stroke-linecap="round" stroke-width="2"/>
</svg>
