<svg xmlns="http://www.w3.org/2000/svg" width="1420.022" height="185.726" viewBox="285.239 2842.984 1420.022 185.726"><g data-name="Group 839"><g data-name="Group 838" transform="translate(284 2842.817)" clip-path="url(&quot;#a&quot;)"><path d="m34.793 9.952 18.84 18.588c6.685 5.27 9.29 14.235 7.513 20.056l-44.194 134.23c-.508 1.544 2.636 2.91 6.698 2.91 3.248 0 6.034-.886 6.636-2.108l84.396-171.885h-30.93l-5.432 9.886c-.922 1.68-7.06 1.798-8.42.163L59.449 9.202l-24.656.75Z" fill="#fff" fill-rule="evenodd" data-name="Path 1242"/><path d="m34.293 9.452 18.84 18.588c6.685 5.27 9.29 14.235 7.513 20.056l-44.194 134.23c-.508 1.544 2.636 2.91 6.698 2.91 3.248 0 6.034-.886 6.636-2.108l84.396-171.885h-30.93l-5.432 9.886c-.922 1.68-7.06 1.798-8.42.163L58.949 8.702l-24.656.75Z" stroke-linejoin="round" stroke-linecap="round" stroke="#263238" fill="transparent" data-name="Path 1243"/><path d="m1385.852 9.952-18.84 18.588c-6.685 5.27-9.29 14.235-7.512 20.056l44.194 134.23c.508 1.544-2.636 2.91-6.699 2.91-3.248 0-6.034-.886-6.636-2.108l-84.396-171.885h30.93l5.433 9.886c.921 1.68 7.06 1.798 8.416.163l10.455-12.59 24.655.75Z" fill="#fff" fill-rule="evenodd" data-name="Path 1244"/><path d="m1385.352 9.452-18.84 18.588c-6.685 5.27-9.29 14.235-7.512 20.056l44.194 134.23c.508 1.544-2.636 2.91-6.699 2.91-3.248 0-6.034-.886-6.636-2.108l-84.396-171.885h30.93l5.433 9.886c.921 1.68 7.06 1.798 8.416.163l10.455-12.59 24.655.75Z" stroke-linejoin="round" stroke-linecap="round" stroke="#263238" fill="transparent" data-name="Path 1245"/><path d="M703.391 185.892c-5.992 0-10.882-1.838-10.994-4.134L683.755 6.71h39.273l-8.643 175.048c-.111 2.296-5.001 4.134-10.994 4.134" fill="#fff" fill-rule="evenodd" data-name="Path 1246"/><path d="M702.891 185.392h0c-5.992 0-10.882-1.838-10.994-4.134L683.255 6.21h39.273l-8.643 175.048c-.111 2.296-5.001 4.134-10.994 4.134Z" stroke-linejoin="round" stroke-linecap="round" stroke="#263238" fill="transparent" data-name="Path 1247"/><path d="M1.739.666h1419.522v11.016H1.739V.666z" fill="#fff" fill-rule="evenodd" data-name="Rectangle 366"/><path d="M1.239.166h1419.522v11.016h0H1.239h0V.166h0z" stroke-linejoin="round" stroke-linecap="round" stroke="#263238" fill="transparent" data-name="Rectangle 367"/></g></g><defs><clipPath id="a"><path d="M0 0h1423v186.558H0V0z" data-name="Rectangle 368"/></clipPath></defs></svg>