<svg id="Group_847" data-name="Group 847" xmlns="http://www.w3.org/2000/svg" xmlns:xlink="http://www.w3.org/1999/xlink" width="112.022" height="360.376" viewBox="0 0 112.022 360.376">
  <defs>
    <clipPath id="clip-path">
      <rect id="Rectangle_374" data-name="Rectangle 374" width="112.022" height="360.376" fill="none"/>
    </clipPath>
  </defs>
  <rect id="Rectangle_372" data-name="Rectangle 372" width="102.991" height="298.8" transform="translate(0.5 61.076)" fill="#fff"/>
  <g id="Group_844" data-name="Group 844">
    <g id="Group_843" data-name="Group 843" clip-path="url(#clip-path)">
      <rect id="Rectangle_373" data-name="Rectangle 373" width="102.991" height="298.801" transform="translate(0.5 61.075)" fill="none" stroke="#263238" stroke-linecap="round" stroke-linejoin="round" stroke-width="1"/>
    </g>
  </g>
  <rect id="Rectangle_375" data-name="Rectangle 375" width="83.918" height="50.86" transform="translate(9.401 86.505)" fill="#fff"/>
  <rect id="Rectangle_376" data-name="Rectangle 376" width="83.918" height="50.86" transform="translate(9.401 86.505)" fill="none" stroke="#263238" stroke-linecap="round" stroke-linejoin="round" stroke-width="1"/>
  <rect id="Rectangle_377" data-name="Rectangle 377" width="20.344" height="17.801" transform="translate(41.188 103.035)" fill="#263238"/>
  <rect id="Rectangle_378" data-name="Rectangle 378" width="20.344" height="17.801" transform="translate(41.188 103.035)" fill="none" stroke="#263238" stroke-linecap="round" stroke-linejoin="round" stroke-width="1"/>
  <rect id="Rectangle_379" data-name="Rectangle 379" width="13.078" height="11.443" transform="translate(44.82 106.214)" fill="#fff"/>
  <rect id="Rectangle_380" data-name="Rectangle 380" width="13.078" height="11.443" transform="translate(44.82 106.214)" fill="none" stroke="#263238" stroke-linecap="round" stroke-linejoin="round" stroke-width="1"/>
  <rect id="Rectangle_381" data-name="Rectangle 381" width="83.918" height="50.86" transform="translate(9.401 146.183)" fill="#fff"/>
  <rect id="Rectangle_382" data-name="Rectangle 382" width="83.918" height="50.86" transform="translate(9.401 146.183)" fill="none" stroke="#263238" stroke-linecap="round" stroke-linejoin="round" stroke-width="1"/>
  <rect id="Rectangle_383" data-name="Rectangle 383" width="20.344" height="17.801" transform="translate(41.188 162.713)" fill="#263238"/>
  <rect id="Rectangle_384" data-name="Rectangle 384" width="20.344" height="17.801" transform="translate(41.188 162.713)" fill="none" stroke="#263238" stroke-linecap="round" stroke-linejoin="round" stroke-width="1"/>
  <rect id="Rectangle_385" data-name="Rectangle 385" width="13.078" height="11.443" transform="translate(44.82 165.892)" fill="#fff"/>
  <rect id="Rectangle_386" data-name="Rectangle 386" width="13.078" height="11.443" transform="translate(44.82 165.892)" fill="none" stroke="#263238" stroke-linecap="round" stroke-linejoin="round" stroke-width="1"/>
  <rect id="Rectangle_387" data-name="Rectangle 387" width="83.918" height="50.86" transform="translate(9.401 205.861)" fill="#fff"/>
  <rect id="Rectangle_388" data-name="Rectangle 388" width="83.918" height="50.86" transform="translate(9.401 205.861)" fill="none" stroke="#263238" stroke-linecap="round" stroke-linejoin="round" stroke-width="1"/>
  <rect id="Rectangle_389" data-name="Rectangle 389" width="20.344" height="17.801" transform="translate(41.188 222.391)" fill="#263238"/>
  <rect id="Rectangle_390" data-name="Rectangle 390" width="20.344" height="17.801" transform="translate(41.188 222.391)" fill="none" stroke="#263238" stroke-linecap="round" stroke-linejoin="round" stroke-width="1"/>
  <rect id="Rectangle_391" data-name="Rectangle 391" width="13.078" height="11.443" transform="translate(44.82 225.57)" fill="#fff"/>
  <rect id="Rectangle_392" data-name="Rectangle 392" width="13.078" height="11.443" transform="translate(44.82 225.57)" fill="none" stroke="#263238" stroke-linecap="round" stroke-linejoin="round" stroke-width="1"/>
  <rect id="Rectangle_393" data-name="Rectangle 393" width="83.918" height="50.86" transform="translate(9.401 265.539)" fill="#fff"/>
  <rect id="Rectangle_394" data-name="Rectangle 394" width="83.918" height="50.86" transform="translate(9.401 265.539)" fill="none" stroke="#263238" stroke-linecap="round" stroke-linejoin="round" stroke-width="1"/>
  <rect id="Rectangle_395" data-name="Rectangle 395" width="20.344" height="17.801" transform="translate(41.188 282.069)" fill="#263238"/>
  <rect id="Rectangle_396" data-name="Rectangle 396" width="20.344" height="17.801" transform="translate(41.188 282.069)" fill="none" stroke="#263238" stroke-linecap="round" stroke-linejoin="round" stroke-width="1"/>
  <rect id="Rectangle_397" data-name="Rectangle 397" width="13.078" height="11.443" transform="translate(44.82 285.248)" fill="#fff"/>
  <rect id="Rectangle_398" data-name="Rectangle 398" width="13.078" height="11.443" transform="translate(44.82 285.248)" fill="none" stroke="#263238" stroke-linecap="round" stroke-linejoin="round" stroke-width="1"/>
  <rect id="Rectangle_399" data-name="Rectangle 399" width="46.577" height="38.994" transform="translate(7.536 21.622)" fill="none" stroke="#263238" stroke-linecap="round" stroke-linejoin="round" stroke-width="1"/>
  <path id="Path_1254" data-name="Path 1254" d="M54.113,44.91h-22.2L22.159,22.164l-.083-.541H7.536V60.617H54.113Z" fill="#263238"/>
  <path id="Path_1255" data-name="Path 1255" d="M54.113,44.91h-22.2L22.159,22.164l-.083-.541H7.536V60.617H54.113Z" fill="none" stroke="#263238" stroke-linecap="round" stroke-linejoin="round" stroke-width="1"/>
  <rect id="Rectangle_400" data-name="Rectangle 400" width="16.248" height="20.039" transform="translate(76.318 41.119)" fill="#263238"/>
  <rect id="Rectangle_401" data-name="Rectangle 401" width="16.248" height="20.039" transform="translate(76.318 41.119)" fill="none" stroke="#263238" stroke-linecap="round" stroke-linejoin="round" stroke-width="1"/>
  <g id="Group_846" data-name="Group 846">
    <g id="Group_845" data-name="Group 845" clip-path="url(#clip-path)">
      <path id="Path_1256" data-name="Path 1256" d="M84.043,29.579s6.9-3.624,8.523-10.124S86.067.5,86.067.5s-8.124,9.207-8.124,15.706,6.1,13.373,6.1,13.373" fill="#7c7c7c"/>
      <path id="Path_1257" data-name="Path 1257" d="M84.043,29.579s6.9-3.624,8.523-10.124S86.067.5,86.067.5s-8.124,9.207-8.124,15.706S84.043,29.579,84.043,29.579Z" fill="none" stroke="#263238" stroke-linecap="round" stroke-linejoin="round" stroke-width="1"/>
      <path id="Path_1258" data-name="Path 1258" d="M79.854,37.538s1.339-8.876-3.536-12.125S60.07,23.788,60.07,23.788s2.167,13,8.124,14.082a31.28,31.28,0,0,0,11.66-.332" fill="#7c7c7c"/>
      <path id="Path_1259" data-name="Path 1259" d="M79.854,37.538s1.339-8.876-3.536-12.125S60.07,23.788,60.07,23.788s2.167,13,8.124,14.082A31.28,31.28,0,0,0,79.854,37.538Z" fill="none" stroke="#263238" stroke-linecap="round" stroke-linejoin="round" stroke-width="1"/>
      <path id="Path_1260" data-name="Path 1260" d="M92.024,34.62a15.587,15.587,0,0,1,4.333-11.374c4.874-4.874,15.164-2.166,15.164-2.166s-2.166,9.207-8.124,12.457A14.257,14.257,0,0,1,92.024,34.62" fill="#7c7c7c"/>
      <path id="Path_1261" data-name="Path 1261" d="M92.024,34.62a15.587,15.587,0,0,1,4.333-11.374c4.874-4.874,15.164-2.166,15.164-2.166s-2.166,9.207-8.124,12.457A14.257,14.257,0,0,1,92.024,34.62Z" fill="none" stroke="#263238" stroke-linecap="round" stroke-linejoin="round" stroke-width="1"/>
      <line id="Line_142" data-name="Line 142" x1="7.582" y1="9.207" transform="translate(75.235 32.454)" fill="none" stroke="#263238" stroke-linecap="round" stroke-linejoin="round" stroke-width="1"/>
      <path id="Path_1262" data-name="Path 1262" d="M84.442,12.957V43.828l13.54-15.706" fill="none" stroke="#263238" stroke-linecap="round" stroke-linejoin="round" stroke-width="1"/>
    </g>
  </g>
</svg>
