<svg xmlns="http://www.w3.org/2000/svg" width="55.244" height="69.87" viewBox="0 0 55.244 69.87">
  <path id="Icon_awesome-wpforms" data-name="Icon awesome-wpforms" d="M53.244,8.793V63.577c0,3.681-2.258,6.543-5.134,6.543H5.134C2.294,70.1,0,67.288,0,63.562V8.793C0,5.143,2.234,2.25,5.134,2.25H48.122C50.974,2.25,53.244,5.1,53.244,8.793ZM48.811,63.562V8.793a.822.822,0,0,0-.689-.878H47.016l-13.109,11.3-7.285-7.558-7.274,7.558L6.24,7.9H5.134a.822.822,0,0,0-.689.878V63.562a.822.822,0,0,0,.689.878H48.122C48.5,64.455,48.811,64.031,48.811,63.562ZM17.851,25.575v5.6H9.116v-5.6Zm0,11.269v5.65H9.116v-5.65Zm1.319-22.31,6.418-6.619H11.5ZM44.128,25.575v5.6H20.834v-5.6Zm0,11.269v5.65H20.834v-5.65ZM34.074,14.534l7.666-6.619H27.668ZM44.128,48.143v5.65H32.315v-5.65H44.128Z" transform="translate(1 -1.25)" fill="none" stroke="#06283d" stroke-width="2"/>
</svg>
