<svg xmlns="http://www.w3.org/2000/svg" width="695.29" height="417.902"><g data-name="Group 1020" clip-path="url(&quot;#a&quot;)"><g data-name="Group 1019"><g data-name="Group 1018" clip-path="url(&quot;#b&quot;)"><g data-name="Group 945"><g data-name="Group 944"><g data-name="Group 943" clip-path="url(&quot;#c&quot;)"><path d="M434.49 0h7.39" stroke-linejoin="round" stroke-linecap="round" stroke="#000" fill="transparent" data-name="Line 154"/></g></g></g><g data-name="Group 948"><g data-name="Group 947"><g data-name="Group 946" clip-path="url(&quot;#d&quot;)"><path d="M447.33 0h13.96v80h-65V0h31.19" stroke-linejoin="round" stroke-linecap="round" stroke="#000" fill="transparent" data-name="Path 1475"/></g></g></g><g data-name="Group 951"><g data-name="Group 950"><g data-name="Group 949" clip-path="url(&quot;#e&quot;)"><path d="M465.289 0h65v80h0-65 0V0h0z" stroke-linejoin="round" stroke-linecap="round" stroke="#000" fill="transparent" data-name="Rectangle 460"/></g></g></g><g data-name="Group 954"><g data-name="Group 953"><g data-name="Group 952" clip-path="url(&quot;#f&quot;)"><path d="M583.19 0h16.1v80h-65V0h41.5" stroke-linejoin="round" stroke-linecap="round" stroke="#000" fill="transparent" data-name="Path 1476"/></g></g></g><g data-name="Group 957"><g data-name="Group 956"><g data-name="Group 955" clip-path="url(&quot;#g&quot;)"><path d="M668.29 60.28V80h-65V0h65v56.03" stroke-linejoin="round" stroke-linecap="round" stroke="#000" fill="transparent" data-name="Path 1477"/></g></g></g><g data-name="Group 960"><g data-name="Group 959"><g data-name="Group 958" clip-path="url(&quot;#h&quot;)"><path d="M396.289 85h65v80h0-65 0V85h0z" stroke-linejoin="round" stroke-linecap="round" stroke="#000" fill="transparent" data-name="Rectangle 464"/></g></g></g><g data-name="Group 963"><g data-name="Group 962"><g data-name="Group 961" clip-path="url(&quot;#i&quot;)"><path d="M465.29 110.08V85h65v80h-65v-47.69" stroke-linejoin="round" stroke-linecap="round" stroke="#000" fill="transparent" data-name="Path 1478"/></g></g></g><g data-name="Group 966"><g data-name="Group 965"><g data-name="Group 964" clip-path="url(&quot;#j&quot;)"><path d="M534.289 85h65v80h0-65 0V85h0z" stroke-linejoin="round" stroke-linecap="round" stroke="#000" fill="transparent" data-name="Rectangle 467"/></g></g></g><g data-name="Group 969"><g data-name="Group 968"><g data-name="Group 967" clip-path="url(&quot;#k&quot;)"><path d="M619.56 85h48.73v80h-65V85h11.16" stroke-linejoin="round" stroke-linecap="round" stroke="#000" fill="transparent" data-name="Path 1479"/></g></g></g><g data-name="Group 972"><g data-name="Group 971"><g data-name="Group 970" clip-path="url(&quot;#l&quot;)"><path d="M396.289 170h65v80h0-65 0v-80h0z" stroke-linejoin="round" stroke-linecap="round" stroke="#000" fill="transparent" data-name="Rectangle 470"/></g></g></g><g data-name="Group 975"><g data-name="Group 974"><g data-name="Group 973" clip-path="url(&quot;#m&quot;)"><path d="M465.289 170h65v80h0-65 0v-80h0z" stroke-linejoin="round" stroke-linecap="round" stroke="#000" fill="transparent" data-name="Rectangle 472"/></g></g></g><g data-name="Group 978"><g data-name="Group 977"><g data-name="Group 976" clip-path="url(&quot;#n&quot;)"><path d="M534.289 170h65v80h0-65 0v-80h0z" stroke-linejoin="round" stroke-linecap="round" stroke="#000" fill="transparent" data-name="Rectangle 474"/></g></g></g><g data-name="Group 981"><g data-name="Group 980"><g data-name="Group 979" clip-path="url(&quot;#o&quot;)"><path d="M668.29 237.33V250h-65v-51.82" stroke-linejoin="round" stroke-linecap="round" stroke="#000" fill="transparent" data-name="Path 1480"/></g></g></g><g data-name="Group 984"><g data-name="Group 983"><g data-name="Group 982" clip-path="url(&quot;#p&quot;)"><path d="M668.29 225.42v7.23" stroke-linejoin="round" stroke-linecap="round" stroke="#000" fill="transparent" data-name="Line 155"/></g></g></g><g data-name="Group 987"><g data-name="Group 986"><g data-name="Group 985" clip-path="url(&quot;#q&quot;)"><path d="M603.29 191.37V170h65v50.74" stroke-linejoin="round" stroke-linecap="round" stroke="#000" fill="transparent" data-name="Path 1481"/></g></g></g><g data-name="Group 990"><g data-name="Group 989"><g data-name="Group 988" clip-path="url(&quot;#r&quot;)"><path d="M396.289 255h65v80h0-65 0v-80h0z" stroke-linejoin="round" stroke-linecap="round" stroke="#000" fill="transparent" data-name="Rectangle 479"/></g></g></g><g data-name="Group 993"><g data-name="Group 992"><g data-name="Group 991" clip-path="url(&quot;#s&quot;)"><path d="M465.289 255h65v80h0-65 0v-80h0z" stroke-linejoin="round" stroke-linecap="round" stroke="#000" fill="transparent" data-name="Rectangle 481"/></g></g></g><g data-name="Group 996"><g data-name="Group 995"><g data-name="Group 994" clip-path="url(&quot;#t&quot;)"><path d="M534.289 255h65v80h0-65 0v-80h0z" stroke-linejoin="round" stroke-linecap="round" stroke="#000" fill="transparent" data-name="Rectangle 483"/></g></g></g><g data-name="Group 999"><g data-name="Group 998"><g data-name="Group 997" clip-path="url(&quot;#u&quot;)"><path d="M618.71 335h-15.42v-80h65v80h-43.2" stroke-linejoin="round" stroke-linecap="round" stroke="#000" fill="transparent" data-name="Path 1482"/></g></g></g><g data-name="Group 1002"><g data-name="Group 1001"><g data-name="Group 1000" clip-path="url(&quot;#v&quot;)"><path d="M57.89 138h76.4V2h-107v136h23.37" stroke-linejoin="round" stroke-linecap="round" stroke="#000" fill="transparent" data-name="Path 1483"/><path d="M111.52 8H68.53" stroke-linejoin="round" stroke-linecap="round" stroke="#000" fill="transparent" data-name="Line 156"/><path d="M32.01 63.26V132h97.56V8h-12.52" stroke-linejoin="round" stroke-linecap="round" stroke="#000" fill="transparent" data-name="Path 1484"/><path d="M61.73 8H32.01v48.45" stroke-linejoin="round" stroke-linecap="round" stroke="#000" fill="transparent" data-name="Path 1485"/><path d="M95.77 41.4H58.29v57.2h28.55" stroke-linejoin="round" stroke-linecap="round" stroke="#000" fill="transparent" data-name="Path 1486"/><path d="M91.52 98.6h11.77V41.4h-2.84" stroke-linejoin="round" stroke-linecap="round" stroke="#000" fill="transparent" data-name="Path 1487"/></g></g></g><g data-name="Group 1005"><g data-name="Group 1004"><g data-name="Group 1003" clip-path="url(&quot;#w&quot;)"><path d="M147.46 44.9a39.83 39.83 0 1 1 0 .1z" stroke-linejoin="round" stroke-linecap="round" stroke="#000" fill="transparent" data-name="Ellipse 102"/><path d="M153.05 44.9a34.24 34.24 0 1 1 0 .1z" stroke-linejoin="round" stroke-linecap="round" stroke="#000" fill="transparent" data-name="Ellipse 103"/><path d="M177.82 55.38 187.29 45h27.83" stroke-linejoin="round" stroke-linecap="round" stroke="#000" fill="transparent" data-name="Path 1488"/></g></g></g><path d="M81.219 204.9s-13.24-7.4-14.22 9.31c-.98 16.71-3.43 154.93-3.43 154.93" stroke-linejoin="round" stroke-linecap="round" stroke-width="2" stroke="#2e353a" fill="transparent" data-name="Path 1489"/><path d="M60.129 215.68s10.79 53.95 5.89 152" stroke-linejoin="round" stroke-linecap="round" stroke-width="2" stroke="#2e353a" fill="transparent" data-name="Path 1490"/><path d="M71.789 209.25s-5.07 3.25-8-.47c-2.93-3.72 2-10.51-2.31-13.42-4.31-2.91-11.6 1.53-11.6 1.53s5.66 1.66 5.48 4.75c-.18 3.09-2.91 4.26-3.28 2.91-.37-1.35-3.06-8.15-7.65-5.32a11.37 11.37 0 0 0-5.3 7.21s10.66-1.14 11.34 2.89c.68 4.03-4.38-.7-8.8-1-4.42-.3-8.43.38-8.15 3.06a34.408 34.408 0 0 1-.42 7.06 13.18 13.18 0 0 1 8.6-3c4.85.29 4.67 3.38.26 3.12-4.41-.26-8.17 3.93-8.17 3.93s4 6.88 9.14 10.28c5.14 3.4 7 2.19 7.55-.44.55-2.63-.77-9.34 2.32-9.16 3.09.18-5.16 11.67-1.21 12.32 3.95.65 7.11-.46 8.15-3.06l1-2.6s-1.38-6.72-.78-9.34c.6-2.62 1.32.08 2 3.22.68 3.14 1.14 10.69 2.49 10.33 1.35-.36 5.66-5.87 6.68-8 1.02-2.13-5.69-8.75-5.61-10.07.08-1.32 5.25 1.19 6 2.57a34.37 34.37 0 0 1 1.58 3.19s3.22-2 3.15-8.23c-.07-6.23-4.46-4.26-4.46-4.26" fill="#3e4950" fill-rule="evenodd" data-name="Path 1491"/><g data-name="Group 1008"><g data-name="Group 1007"><g data-name="Group 1006" clip-path="url(&quot;#x&quot;)"><path d="M71.789 209.25s-5.07 3.25-8-.47c-2.93-3.72 2-10.51-2.31-13.42-4.31-2.91-11.6 1.53-11.6 1.53s5.66 1.66 5.48 4.75c-.18 3.09-2.91 4.26-3.28 2.91-.37-1.35-3.06-8.15-7.65-5.32a11.37 11.37 0 0 0-5.3 7.21s10.66-1.14 11.34 2.89c.68 4.03-4.38-.7-8.8-1-4.42-.3-8.43.38-8.15 3.06a34.408 34.408 0 0 1-.42 7.06 13.18 13.18 0 0 1 8.6-3c4.85.29 4.67 3.38.26 3.12-4.41-.26-8.17 3.93-8.17 3.93s4 6.88 9.14 10.28c5.14 3.4 7 2.19 7.55-.44.55-2.63-.77-9.34 2.32-9.16 3.09.18-5.16 11.67-1.21 12.32 3.95.65 7.11-.46 8.15-3.06l1-2.6s-1.38-6.72-.78-9.34c.6-2.62 1.32.08 2 3.22.68 3.14 1.14 10.69 2.49 10.33 1.35-.36 5.66-5.87 6.68-8 1.02-2.13-5.69-8.75-5.61-10.07.08-1.32 5.25 1.19 6 2.57a34.37 34.37 0 0 1 1.58 3.19s3.22-2 3.15-8.23c-.07-6.23-4.46-4.26-4.46-4.26" fill="#2e353a" fill-rule="evenodd" data-name="Path 1492"/></g></g></g><path d="M45.569 223.3c3.3-4.08 8.17-9.6 12.24-12.24" stroke-linejoin="round" stroke-linecap="round" stroke="#2e353a" fill="transparent" data-name="Path 1493"/><path d="M41.739 228.27s.85-1.18 2.22-2.94" stroke-linejoin="round" stroke-linecap="round" stroke="#2e353a" fill="transparent" data-name="Path 1494"/><path d="M59.969 212.07s4.9 6.94 5.81 14.08" stroke-linejoin="round" stroke-linecap="round" stroke="#2e353a" fill="transparent" data-name="Path 1495"/><path d="M54.409 216.17s1.38-.8.86 8" stroke-linejoin="round" stroke-linecap="round" stroke="#2e353a" fill="transparent" data-name="Path 1496"/><path d="M57.999 208s2.8-2.49 1.32-7.45" stroke-linejoin="round" stroke-linecap="round" stroke="#2e353a" fill="transparent" data-name="Path 1497"/><path d="m54.2 212.18-1.99-3.66" stroke-linejoin="round" stroke-linecap="round" stroke="#2e353a" fill="transparent" data-name="Line 157"/><path d="M49.999 215.91s-6.36-4.8-10.33-5" stroke-linejoin="round" stroke-linecap="round" stroke="#2e353a" fill="transparent" data-name="Path 1498"/><path d="M89.789 196.17s-.2 7.28-5.88 7.64c-5.68.36-9.2-9.12-15-6.84-5.8 2.28-6.38 12.66-6.38 12.66s5.52-4.53 8.49-2.24c2.97 2.29 2.28 5.81.68 5.25-1.6-.56-10.25-2.49-10.55 4a13.78 13.78 0 0 0 3.64 10.26s6.15-11.48 10.62-9.39c4.47 2.09-3.69 3.92-7 8.16s-5.36 8.71-2.49 10.25a41.99 41.99 0 0 1 6.79 5.23s-.78-6 2.81-10.68 6.57-2.37 3.3 1.87c-3.27 4.24-1.64 10.9-1.64 10.9s9.63.66 16.52-2.14c6.89-2.8 6.92-5.48 4.71-7.86s-9.89-5.6-7.6-8.56c2.29-2.96 8.18 13.06 11.55 9.57 3.37-3.49 4.38-7.44 2.49-10.25l-1.89-2.81s-7.67-3.2-9.89-5.59c-2.22-2.39 1-1.27 4.6.17 3.6 1.44 11.49 6.15 12 4.55.51-1.6-2-9.67-3.49-12.15-1.49-2.48-12.63-.27-13.9-1.25-1.27-.98 4.77-4.44 6.69-4.31 1.92.13 4.28.59 4.28.59s.17-4.6-6.1-8.75-7.36 1.72-7.36 1.72" fill="#3e4950" fill-rule="evenodd" data-name="Path 1499"/><g data-name="Group 1011"><g data-name="Group 1010"><g data-name="Group 1009" clip-path="url(&quot;#y&quot;)"><path d="M89.789 196.17s-.2 7.28-5.88 7.64c-5.68.36-9.2-9.12-15-6.84-5.8 2.28-6.38 12.66-6.38 12.66s5.52-4.53 8.49-2.24c2.97 2.29 2.28 5.81.68 5.25-1.6-.56-10.25-2.49-10.55 4a13.78 13.78 0 0 0 3.64 10.26s6.15-11.48 10.62-9.39c4.47 2.09-3.69 3.92-7 8.16s-5.36 8.71-2.49 10.25a41.99 41.99 0 0 1 6.79 5.23s-.78-6 2.81-10.68 6.57-2.37 3.3 1.87c-3.27 4.24-1.64 10.9-1.64 10.9s9.63.66 16.52-2.14c6.89-2.8 6.92-5.48 4.71-7.86s-9.89-5.6-7.6-8.56c2.29-2.96 8.18 13.06 11.55 9.57 3.37-3.49 4.38-7.44 2.49-10.25l-1.89-2.81s-7.67-3.2-9.89-5.59c-2.22-2.39 1-1.27 4.6.17 3.6 1.44 11.49 6.15 12 4.55.51-1.6-2-9.67-3.49-12.15-1.49-2.48-12.63-.27-13.9-1.25-1.27-.98 4.77-4.44 6.69-4.31 1.92.13 4.28.59 4.28.59s.17-4.6-6.1-8.75-7.36 1.72-7.36 1.72" fill="#2e353a" fill-rule="evenodd" data-name="Path 1500"/></g></g></g><path d="M86.349 231.29c-1.83-6.09-4-14.73-3.91-20.61" stroke-linejoin="round" stroke-linecap="round" stroke="#2e353a" fill="transparent" data-name="Path 1501"/><path d="M88.719 238.51s-.6-1.66-1.44-4.24" stroke-linejoin="round" stroke-linecap="round" stroke="#2e353a" fill="transparent" data-name="Path 1502"/><path d="M84.929 209.22s10.28-.19 18 3.77" stroke-linejoin="round" stroke-linecap="round" stroke="#2e353a" fill="transparent" data-name="Path 1503"/><path d="M85.289 217.58s.14-1.93 8.62 4.61" stroke-linejoin="round" stroke-linecap="round" stroke="#2e353a" fill="transparent" data-name="Path 1504"/><path d="M79.469 208.4s-.58-4.51-6.55-6.41" stroke-linejoin="round" stroke-linecap="round" stroke="#2e353a" fill="transparent" data-name="Path 1505"/><path d="m81.1 215.06-5.03-.5" stroke-linejoin="round" stroke-linecap="round" stroke="#2e353a" fill="transparent" data-name="Line 158"/><path d="M81.979 221.82s-9.15 3.09-12.09 6.91" stroke-linejoin="round" stroke-linecap="round" stroke="#2e353a" fill="transparent" data-name="Path 1506"/><path d="M27.789 243.63s28.92 49 28.43 123.06" stroke-linejoin="round" stroke-linecap="round" stroke-width="2" stroke="#2e353a" fill="transparent" data-name="Path 1507"/><path d="M64.449 239.57s-.93 8.39-7.51 8.26c-6.58-.13-9.76-11.39-16.68-9.33-6.92 2.06-8.56 14-8.56 14s6.8-4.71 10-1.79 2.09 6.92.29 6.13c-1.8-.79-11.58-3.81-12.54 3.66a16.002 16.002 0 0 0 3.2 12.13s8.14-12.63 13.14-9.79c5 2.84-4.63 4.16-8.8 8.75-4.17 4.59-7 9.55-3.84 11.59a49.103 49.103 0 0 1 7.34 6.68s-.33-7 4.26-12.05c4.59-5.05 7.79-2.13 3.62 2.46s-2.92 12.43-2.92 12.43 11 1.67 19.26-.91c8.26-2.58 8.51-5.67 6.18-8.63-2.33-2.96-10.88-7.39-8-10.6 2.88-3.21 8.21 15.85 12.42 12.14 4.21-3.71 5.76-8.17 3.84-11.59l-1.91-3.42s-8.55-4.42-10.88-7.39c-2.33-2.97 1.25-1.37 5.29.63s12.68 8.18 13.47 6.39c.79-1.79-1.41-11.35-2.87-14.35-1.46-3-14.52-1.47-15.89-2.76-1.37-1.29 5.92-4.67 8.13-4.33 1.644.274 3.273.635 4.88 1.08 0 0 .63-5.29-6.21-10.67s-8.71 1.28-8.71 1.28" fill="#3e4950" fill-rule="evenodd" data-name="Path 1508"/><g data-name="Group 1014"><g data-name="Group 1013"><g data-name="Group 1012" clip-path="url(&quot;#z&quot;)"><path d="M64.449 239.57s-.93 8.39-7.51 8.26c-6.58-.13-9.76-11.39-16.68-9.33-6.92 2.06-8.56 14-8.56 14s6.8-4.71 10-1.79 2.09 6.92.29 6.13c-1.8-.79-11.58-3.81-12.54 3.66a16.002 16.002 0 0 0 3.2 12.13s8.14-12.63 13.14-9.79c5 2.84-4.63 4.16-8.8 8.75-4.17 4.59-7 9.55-3.84 11.59a49.103 49.103 0 0 1 7.34 6.68s-.33-7 4.26-12.05c4.59-5.05 7.79-2.13 3.62 2.46s-2.92 12.43-2.92 12.43 11 1.67 19.26-.91c8.26-2.58 8.51-5.67 6.18-8.63-2.33-2.96-10.88-7.39-8-10.6 2.88-3.21 8.21 15.85 12.42 12.14 4.21-3.71 5.76-8.17 3.84-11.59l-1.91-3.42s-8.55-4.42-10.88-7.39c-2.33-2.97 1.25-1.37 5.29.63s12.68 8.18 13.47 6.39c.79-1.79-1.41-11.35-2.87-14.35-1.46-3-14.52-1.47-15.89-2.76-1.37-1.29 5.92-4.67 8.13-4.33 1.644.274 3.273.635 4.88 1.08 0 0 .63-5.29-6.21-10.67s-8.71 1.28-8.71 1.28" fill="#2e353a" fill-rule="evenodd" data-name="Path 1509"/></g></g></g><path d="M57.199 279.9c-1.54-7.2-3.28-17.38-2.56-24.15" stroke-linejoin="round" stroke-linecap="round" stroke="#2e353a" fill="transparent" data-name="Path 1510"/><path d="M59.289 288.45s-.54-2-1.25-5" stroke-linejoin="round" stroke-linecap="round" stroke="#2e353a" fill="transparent" data-name="Path 1511"/><path d="M57.639 254.29s11.89.76 20.48 6.06" stroke-linejoin="round" stroke-linecap="round" stroke="#2e353a" fill="transparent" data-name="Path 1512"/><path d="M57.219 264s.34-2.21 9.51 6.13" stroke-linejoin="round" stroke-linecap="round" stroke="#2e353a" fill="transparent" data-name="Path 1513"/><path d="M51.429 252.83s-.25-5.25-7-8" stroke-linejoin="round" stroke-linecap="round" stroke="#2e353a" fill="transparent" data-name="Path 1514"/><path d="m52.68 260.67-5.76-1.04" stroke-linejoin="round" stroke-linecap="round" stroke="#2e353a" fill="transparent" data-name="Line 159"/><path d="M53.049 268.55s-10.85 2.71-14.6 6.84" stroke-linejoin="round" stroke-linecap="round" stroke="#2e353a" fill="transparent" data-name="Path 1515"/><path d="M64.449 309.65s-.93 8.39-7.51 8.26c-6.58-.13-9.76-11.41-16.68-9.31-6.92 2.1-8.56 14-8.56 14s6.8-4.71 10-1.79 2.09 6.92.29 6.13c-1.8-.79-11.59-3.84-12.55 3.67a16.002 16.002 0 0 0 3.2 12.13s8.15-12.66 13.15-9.82-4.63 4.16-8.8 8.75c-4.17 4.59-7 9.55-3.84 11.59a49.101 49.101 0 0 1 7.34 6.68s-.33-7 4.26-12.05c4.59-5.05 7.79-2.13 3.62 2.46s-2.92 12.43-2.92 12.43 11 1.67 19.26-.91c8.26-2.58 8.51-5.67 6.18-8.63-2.33-2.96-10.88-7.39-8-10.6 2.88-3.21 8.21 15.85 12.42 12.14 4.21-3.71 5.76-8.17 3.84-11.59l-1.91-3.42s-8.55-4.42-10.88-7.39c-2.33-2.97 1.25-1.37 5.29.63s12.68 8.18 13.47 6.39c.79-1.79-1.41-11.35-2.87-14.35-1.46-3-14.52-1.55-15.89-2.76-1.37-1.21 5.92-4.67 8.13-4.33a47.63 47.63 0 0 1 4.88 1.08s.63-5.29-6.21-10.67-8.71 1.28-8.71 1.28" fill="#3e4950" fill-rule="evenodd" data-name="Path 1516"/><g data-name="Group 1017"><g data-name="Group 1016"><g data-name="Group 1015" clip-path="url(&quot;#A&quot;)"><path d="M64.449 309.65s-.93 8.39-7.51 8.26c-6.58-.13-9.76-11.41-16.68-9.31-6.92 2.1-8.56 14-8.56 14s6.8-4.71 10-1.79 2.09 6.92.29 6.13c-1.8-.79-11.59-3.84-12.55 3.67a16.002 16.002 0 0 0 3.2 12.13s8.15-12.66 13.15-9.82-4.63 4.16-8.8 8.75c-4.17 4.59-7 9.55-3.84 11.59a49.101 49.101 0 0 1 7.34 6.68s-.33-7 4.26-12.05c4.59-5.05 7.79-2.13 3.62 2.46s-2.92 12.43-2.92 12.43 11 1.67 19.26-.91c8.26-2.58 8.51-5.67 6.18-8.63-2.33-2.96-10.88-7.39-8-10.6 2.88-3.21 8.21 15.85 12.42 12.14 4.21-3.71 5.76-8.17 3.84-11.59l-1.91-3.42s-8.55-4.42-10.88-7.39c-2.33-2.97 1.25-1.37 5.29.63s12.68 8.18 13.47 6.39c.79-1.79-1.41-11.35-2.87-14.35-1.46-3-14.52-1.55-15.89-2.76-1.37-1.21 5.92-4.67 8.13-4.33a47.63 47.63 0 0 1 4.88 1.08s.63-5.29-6.21-10.67-8.71 1.28-8.71 1.28" fill="#2e353a" fill-rule="evenodd" data-name="Path 1517"/></g></g></g><path d="M57.199 350c-1.54-7.19-3.28-17.37-2.56-24.14" stroke-linejoin="round" stroke-linecap="round" stroke="#2e353a" fill="transparent" data-name="Path 1518"/><path d="M59.289 358.53s-.54-2-1.25-5" stroke-linejoin="round" stroke-linecap="round" stroke="#2e353a" fill="transparent" data-name="Path 1519"/><path d="M57.639 324.37s11.89.76 20.48 6.06" stroke-linejoin="round" stroke-linecap="round" stroke="#2e353a" fill="transparent" data-name="Path 1520"/><path d="M57.219 334.05s.34-2.21 9.51 6.13" stroke-linejoin="round" stroke-linecap="round" stroke="#2e353a" fill="transparent" data-name="Path 1521"/><path d="M51.429 322.91s-.25-5.25-7-8" stroke-linejoin="round" stroke-linecap="round" stroke="#2e353a" fill="transparent" data-name="Path 1522"/><path d="m52.68 330.75-5.76-1.04" stroke-linejoin="round" stroke-linecap="round" stroke="#2e353a" fill="transparent" data-name="Line 160"/><path d="M53.049 338.63s-10.85 2.71-14.6 6.84" stroke-linejoin="round" stroke-linecap="round" stroke="#2e353a" fill="transparent" data-name="Path 1523"/><path d="M39.059 301.96s18.63 44.14 20.59 65.22l-3.92-100.51" stroke-linejoin="round" stroke-linecap="round" stroke-width="2" stroke="#2e353a" fill="transparent" data-name="Path 1524"/><path d="M84.159 291.67c-24.51-4.42-24.51 75.51-24.51 75.51" stroke-linejoin="round" stroke-linecap="round" stroke-width="2" stroke="#2e353a" fill="transparent" data-name="Path 1525"/><path d="M62.589 366.69s-14.22-133.36 27-133.36" stroke-linejoin="round" stroke-linecap="round" stroke-width="2" stroke="#2e353a" fill="transparent" data-name="Path 1526"/><path d="M75.789 289.69c-3.35-3.76-10.46-3.76-14.65 5.86-4.19 9.62-.35 7.95-.35 7.95s8-2.51 13-4.18 11.72-5.86 12.13-3.35c.41 2.51-3.34 5-7.95 5.86-4.61.86-16.74 4.19-15.48 6.7 1.26 2.51 4.18 10 4.18 10a106.946 106.946 0 0 1 11.3-8.37c5.44-3.35 8.79-2.09 5.86 1.67-2.93 3.76-11.3 8-9.62 13 1.68 5 11.71 11.3 11.71 11.3s1.26-10.46 4.19-13.81c2.93-3.35 2.93.42 2.09 6.28a68.465 68.465 0 0 0-.83 7.53l11.71 4.18s4.19-6.27 6.28-8.37l2.09-2.09s-9.2-7.95-9.62-13c-.42-5.05 6.28 0 8.37.83 2.09.83 5.44 6.7 5.44 6.7s2.09-9.63 2.51-13l.42-3.35s-8.79-3.35-12.14-3.35c-3.35 0-5 2.51-5-.84 0-3.35 3.35-5.44 7.11-5 3.411.57 6.771 1.41 10.05 2.51 0 0 2.51-2.09 1.67-8.37-.84-6.28-2.93-6.28-7.95-4.6-5.02 1.68-8.37 5.44-12.14 5.44-3.77 0-1.67-4.61.84-5.86s8.79-3.77 10.05-4.19c1.26-.42-6.7-6.27-10.89-7.11-4.19-.84-9.6 2.11-9.2 6.28.75 8.85-11.8 10.56-15.18 6.75" fill="#3e4950" fill-rule="evenodd" data-name="Path 1527"/><path d="M102.289 332.28c.13 1.27.22 2.53.26 3.79" stroke-linejoin="round" stroke-linecap="round" stroke="#2e353a" fill="transparent" data-name="Path 1528"/><path d="M93.849 302.24a110.91 110.91 0 0 1 7.88 25.93" stroke-linejoin="round" stroke-linecap="round" stroke="#2e353a" fill="transparent" data-name="Path 1529"/><path d="M92.349 298.88c-2.08-4.46-3.64-7.18-3.64-7.18a12.327 12.327 0 0 0 5.44-5 13.993 13.993 0 0 1 4.19-5" stroke-linejoin="round" stroke-linecap="round" stroke="#2e353a" fill="transparent" data-name="Path 1530"/><path d="M74.069 305.93s15.06-6.27 15.06-5" stroke-linejoin="round" stroke-linecap="round" stroke="#2e353a" fill="transparent" data-name="Path 1531"/><path d="M97.499 298s6.7-3.35 12.56-3.35" stroke-linejoin="round" stroke-linecap="round" stroke="#2e353a" fill="transparent" data-name="Path 1532"/><path d="M94.989 308a57.716 57.716 0 0 0-8 8 35.906 35.906 0 0 0-5.86 9.62" stroke-linejoin="round" stroke-linecap="round" stroke="#2e353a" fill="transparent" data-name="Path 1533"/><path d="M99.589 309.7s8.79-2.51 13.4 1.67" stroke-linejoin="round" stroke-linecap="round" stroke="#2e353a" fill="transparent" data-name="Path 1534"/><path d="M116.009 253.65c-4.55-2.69-9.59-2.75-12.06-5.6-2.47-2.85 2.38-4.28 5-3.21 2.62 1.07 8.61 4.17 9.75 4.84 1.14.67.35-9.17-1.76-12.88-2.11-3.71-7.89-5.86-10.78-2.83-6.09 6.39-15.58-2-14.93-7 .65-5-4-10.37-14-7.22-10 3.15-6.28 4.9-6.28 4.9s7.11 4.35 11.67 7c4.56 2.65 12.1 5 10.48 7-1.62 2-6 .76-9.64-2.16-3.64-2.92-14.13-9.9-15.2-7.31-1.07 2.59-4.85 9.75-4.85 9.75 4.638.697 9.224 1.699 13.73 3 6.1 1.92 7.34 5.27 2.58 5.52s-13.41-3.32-16.11 1.24c-2.7 4.56-.85 16.26-.85 16.26s8.73-5.91 13.17-5.9c4.44.01 1.61 2.49-3.36 5.7a66.702 66.702 0 0 0-6.24 4.31l4.46 11.66s7.48-1 10.44-.75l3 .21s0-12.16 3.48-15.77c3.48-3.61 4.12 4.74 4.86 6.87.74 2.13-1.49 8.49-1.49 8.49s8.64-4.73 11.44-6.6l2.81-1.88s-3.24-8.84-5.43-11.36c-2.19-2.52-5.19-2.15-2.66-4.34 2.53-2.19 6.3-1 8.45 2.08a64.17 64.17 0 0 1 4.69 9.23s3.23.52 7.42-4.23c4.19-4.75 2.77-6.32-1.79-9.02m-39.6 13.4c-3.35-1.68 4.6-5 4.6-5 2.93-.44-1.22 6.67-4.6 5m5.64-15.63c-1.43-.71 2.85-2.14 2.85-2.14 6.18 1.22-1.43 2.86-2.85 2.14Z" fill="#3e4950" fill-rule="evenodd" data-name="Path 1535"/><path d="M75.819 275.07c-.87.92-1.77 1.82-2.69 2.68" stroke-linejoin="round" stroke-linecap="round" stroke="#2e353a" fill="transparent" data-name="Path 1536"/><path d="M92.989 249a110.874 110.874 0 0 1-14.41 23" stroke-linejoin="round" stroke-linecap="round" stroke="#2e353a" fill="transparent" data-name="Path 1537"/><path d="M94.539 245.69c2-4.49 3-7.45 3-7.45a12.323 12.323 0 0 0 7.36.81 13.998 13.998 0 0 1 6.54-.13" stroke-linejoin="round" stroke-linecap="round" stroke="#2e353a" fill="transparent" data-name="Path 1538"/><path d="M77.229 236.51s14.62 7.26 13.67 8.08" stroke-linejoin="round" stroke-linecap="round" stroke="#2e353a" fill="transparent" data-name="Path 1539"/><path d="M98.599 249s6.92 2.86 10.76 7.29" stroke-linejoin="round" stroke-linecap="round" stroke="#2e353a" fill="transparent" data-name="Path 1540"/><path d="M89.369 253.68a58.24 58.24 0 0 0-11.22-.79 36.13 36.13 0 0 0-11.11 1.88" stroke-linejoin="round" stroke-linecap="round" stroke="#2e353a" fill="transparent" data-name="Path 1541"/><path d="M91.119 258.25s7.66 5 7.52 11.21" stroke-linejoin="round" stroke-linecap="round" stroke="#2e353a" fill="transparent" data-name="Path 1542"/><path d="M50.979 311.64c-3.67-2.17-7.72-2.21-9.71-4.5-1.99-2.29 1.92-3.45 4-2.59 2.08.86 6.93 3.36 7.85 3.9.92.54.28-7.38-1.42-10.37-1.7-2.99-6.35-4.72-8.67-2.28-4.9 5.15-12.54-1.6-12-5.62.54-4.02-3.23-8.35-11.29-5.81-8.06 2.54-5 3.94-5 3.94s5.72 3.51 9.39 5.67c3.67 2.16 9.74 4 8.43 5.61-1.31 1.61-4.81.62-7.75-1.74-2.94-2.36-11.38-8-12.24-5.88-.86 2.12-3.9 7.85-3.9 7.85a85.464 85.464 0 0 1 11 2.45c4.91 1.54 5.91 4.23 2.08 4.44-3.83.21-10.8-2.67-13 1-2.2 3.67-.68 13.08-.68 13.08s7-4.76 10.6-4.74c3.6.02 1.29 2-2.71 4.58a53.736 53.736 0 0 0-5 3.47l3.64 9.32a68.6 68.6 0 0 1 8.4-.6l2.37.17s0-9.79 2.81-12.69c2.81-2.9 3.31 3.81 3.9 5.53.59 1.72-1.19 6.83-1.19 6.83s7-3.8 9.2-5.31l2.26-1.52s-2.6-7.1-4.37-9.14c-1.77-2.04-4.19-1.73-2.19-3.49 2-1.76 5.07-.84 6.81 1.67a52.718 52.718 0 0 1 3.77 7.43s2.6.42 6-3.4 2.28-5.09-1.39-7.26m-31.87 10.78c-2.7-1.35 3.7-4 3.7-4 2.36-.38-1.02 5.35-3.7 4m4.54-12.57c-1.15-.58 2.29-1.72 2.29-1.72 4.98.95-1.15 2.29-2.29 1.72" fill="#3e4950" fill-rule="evenodd" data-name="Path 1543"/><path d="M18.539 328.78c-.7.74-1.42 1.46-2.16 2.16" stroke-linejoin="round" stroke-linecap="round" stroke="#2e353a" fill="transparent" data-name="Path 1544"/><path d="M32.359 307.82a89.605 89.605 0 0 1-11.6 18.47" stroke-linejoin="round" stroke-linecap="round" stroke="#2e353a" fill="transparent" data-name="Path 1545"/><path d="M33.599 305.14c1.62-3.62 2.45-6 2.45-6a9.927 9.927 0 0 0 5.92.66 11.23 11.23 0 0 1 5.26-.11" stroke-linejoin="round" stroke-linecap="round" stroke="#2e353a" fill="transparent" data-name="Path 1546"/><path d="M19.669 297.75s11.77 5.84 11 6.5" stroke-linejoin="round" stroke-linecap="round" stroke="#2e353a" fill="transparent" data-name="Path 1547"/><path d="M36.869 307.79s5.57 2.31 8.66 5.87" stroke-linejoin="round" stroke-linecap="round" stroke="#2e353a" fill="transparent" data-name="Path 1548"/><path d="M29.439 311.57a46.143 46.143 0 0 0-9-.64 29.08 29.08 0 0 0-8.94 1.52" stroke-linejoin="round" stroke-linecap="round" stroke="#2e353a" fill="transparent" data-name="Path 1549"/><path d="M30.849 315.25s6.17 4 6 9" stroke-linejoin="round" stroke-linecap="round" stroke="#2e353a" fill="transparent" data-name="Path 1550"/><path d="M36.029 242.5s-4.6 3.35-7.53 0c-2.93-3.35 1.25-10-2.93-12.55-4.18-2.55-10.88 2.09-10.88 2.09s5.44 1.25 5.44 4.18c0 2.93-2.51 4.19-2.93 2.93-.42-1.26-3.35-7.53-7.54-4.6a10.779 10.779 0 0 0-4.6 7.11s10-1.67 10.88 2.1c.88 3.77-4.18-.42-8.37-.42-4.19 0-8 .84-7.53 3.35a32.802 32.802 0 0 1 0 6.69 12.448 12.448 0 0 1 8-3.34c4.6 0 4.6 2.92.42 2.92s-7.54 4.19-7.54 4.19 4.19 6.28 9.21 9.21c5.02 2.93 6.7 1.67 7.12-.84.42-2.51-1.26-8.79 1.67-8.79 2.93 0-4.18 11.3-.42 11.72 3.76.42 6.7-.84 7.54-3.35l.83-2.51s-1.67-6.28-1.25-8.79c.42-2.51 1.25 0 2.09 2.93.84 2.93 1.67 10.05 2.93 9.63 1.26-.42 5-5.86 5.86-7.95.86-2.09-5.86-8-5.86-9.21 0-1.21 5 .84 5.86 2.09a31.6 31.6 0 0 1 1.67 2.93s2.93-2.09 2.51-7.95c-.42-5.86-4.65-3.77-4.65-3.77" fill="#3e4950" fill-rule="evenodd" data-name="Path 1551"/><path d="M12.089 257.21c2.89-4 7.18-9.53 10.88-12.25" stroke-linejoin="round" stroke-linecap="round" stroke="#2e353a" fill="transparent" data-name="Path 1552"/><path d="M8.739 262.12s.74-1.16 1.94-2.91" stroke-linejoin="round" stroke-linecap="round" stroke="#2e353a" fill="transparent" data-name="Path 1553"/><path d="M25.069 245.8s5 6.28 6.27 13" stroke-linejoin="round" stroke-linecap="round" stroke="#2e353a" fill="transparent" data-name="Path 1554"/><path d="M20.039 250s1.26-.83 1.26 7.54" stroke-linejoin="round" stroke-linecap="round" stroke="#2e353a" fill="transparent" data-name="Path 1555"/><path d="M22.969 242s2.52-2.51.84-7.11" stroke-linejoin="round" stroke-linecap="round" stroke="#2e353a" fill="transparent" data-name="Path 1556"/><path d="m19.63 246.22-2.1-3.35" stroke-linejoin="round" stroke-linecap="round" stroke="#2e353a" fill="transparent" data-name="Line 161"/><path d="M15.859 250s-6.28-4.18-10-4.18" stroke-linejoin="round" stroke-linecap="round" stroke="#2e353a" fill="transparent" data-name="Path 1557"/><path d="M76.789 331.5s-4.61 3.34-7.54 0c-2.93-3.34 1.26-10.05-2.93-12.56s-10.88 2.09-10.88 2.09 5.44 1.26 5.44 4.19c0 2.93-2.51 4.18-2.93 2.93-.42-1.25-3.35-7.54-7.53-4.61a10.737 10.737 0 0 0-4.6 7.12s10-1.68 10.88 2.09c.88 3.77-4.19-.42-8.37-.42-4.18 0-7.95.84-7.54 3.35a32.9 32.9 0 0 1 0 6.7 12.454 12.454 0 0 1 8-3.35c4.6 0 4.6 2.93.41 2.93-4.19 0-7.53 4.18-7.53 4.18s4.19 6.28 9.21 9.21c5.02 2.93 6.69 1.68 7.11-.84.42-2.52-1.25-8.78 1.68-8.78 2.93 0-4.19 11.3-.42 11.71 3.77.41 6.69-.83 7.53-3.34l.84-2.52s-1.68-6.27-1.26-8.78c.42-2.51 1.26 0 2.1 2.93.84 2.93 1.67 10 2.93 9.62 1.26-.38 5-5.86 5.85-7.95.85-2.09-5.85-7.95-5.85-9.21 0-1.26 5 .84 5.85 2.09.609.947 1.17 1.925 1.68 2.93 0 0 2.93-2.09 2.51-7.95-.42-5.86-4.64-3.76-4.64-3.76" fill="#3e4950" fill-rule="evenodd" data-name="Path 1558"/><path d="M52.869 346.16c2.89-4.05 7.18-9.54 10.89-12.25" stroke-linejoin="round" stroke-linecap="round" stroke="#2e353a" fill="transparent" data-name="Path 1559"/><path d="M49.529 351.06s.74-1.16 1.94-2.9" stroke-linejoin="round" stroke-linecap="round" stroke="#2e353a" fill="transparent" data-name="Path 1560"/><path d="M65.849 334.74s5 6.28 6.28 13" stroke-linejoin="round" stroke-linecap="round" stroke="#2e353a" fill="transparent" data-name="Path 1561"/><path d="M60.829 338.93s1.26-.84 1.26 7.53" stroke-linejoin="round" stroke-linecap="round" stroke="#2e353a" fill="transparent" data-name="Path 1562"/><path d="M63.759 331s2.51-2.52.84-7.12" stroke-linejoin="round" stroke-linecap="round" stroke="#2e353a" fill="transparent" data-name="Path 1563"/><path d="m60.41 335.16-2.09-3.35" stroke-linejoin="round" stroke-linecap="round" stroke="#2e353a" fill="transparent" data-name="Line 162"/><path d="M56.649 338.93s-6.28-4.19-10-4.19" stroke-linejoin="round" stroke-linecap="round" stroke="#2e353a" fill="transparent" data-name="Path 1564"/><path d="M45.939 366.3h32.35v46.57h-32.35V366.3z" fill="#2e353a" fill-rule="evenodd" data-name="Rectangle 492"/><path d="M44.939 365.3h32.35v46.57h0-32.35 0V365.3h0z" stroke-linejoin="round" stroke-linecap="round" stroke-width="2" stroke="#2e353a" fill="transparent" data-name="Rectangle 493"/><path d="M12.39 412.37h682.9" stroke-linejoin="round" stroke-linecap="round" stroke="#2e353a" fill="transparent" data-name="Line 163"/><path d="m577.67 310.5 4.5 96" stroke-linejoin="round" stroke-linecap="round" stroke-width="6" stroke="#2e353a" fill="transparent" data-name="Line 164"/><path d="m557.48 310.5 5 96" stroke-linejoin="round" stroke-linecap="round" stroke-width="6" stroke="#2e353a" fill="transparent" data-name="Line 165"/><path d="m493.12 310.5-6.5 96" stroke-linejoin="round" stroke-linecap="round" stroke-width="6" stroke="#2e353a" fill="transparent" data-name="Line 166"/><path d="m478.41 310.5-15.5 96" stroke-linejoin="round" stroke-linecap="round" stroke-width="6" stroke="#2e353a" fill="transparent" data-name="Line 167"/><path d="m583.65 208.79.33 101.34h-91.91l3.28-101.34h88.3Z" fill="#7f7f7f" fill-rule="evenodd" data-name="Path 1565"/><path d="m583.15 208.29.33 101.34h-91.91l3.28-101.34h88.3Z" stroke-linejoin="round" stroke-linecap="round" stroke="#2e353a" fill="transparent" data-name="Path 1566"/><path d="M474.419 309.84h109.56v5.77h-109.56v-5.77z" fill="#7f7f7f" fill-rule="evenodd" data-name="Rectangle 494"/><path d="M473.919 309.34h109.56v5.77h0-109.56 0v-5.77h0z" stroke-linejoin="round" stroke-linecap="round" stroke="#2e353a" fill="transparent" data-name="Rectangle 495"/><path d="M474.419 309.84h92.8v5.77h-92.8v-5.77z" fill="#7f7f7f" fill-rule="evenodd" data-name="Rectangle 496"/><path d="M473.919 309.34h92.8v5.77h0-92.8 0v-5.77h0z" stroke-linejoin="round" stroke-linecap="round" stroke="#2e353a" fill="transparent" data-name="Rectangle 497"/><path d="M497.649 257.5s-8.51 13-9.85 22.82c-1.34 9.82.9 21 7.16 25.06a31.469 31.469 0 0 0 13.43 4.48h53.25s9.4-2.24 13.43-11.19c4.03-8.95 1.34-20.59-1.34-26.41s-4.94-10.76-4.94-10.76l-71.14-4Z" fill="#2e353a" fill-rule="evenodd" data-name="Path 1567"/><path d="M497.149 257s-8.51 13-9.85 22.82c-1.34 9.82.9 21 7.16 25.06a31.469 31.469 0 0 0 13.43 4.48h53.25s9.4-2.24 13.43-11.19c4.03-8.95 1.34-20.59-1.34-26.41s-4.94-10.76-4.94-10.76l-71.14-4Z" stroke-linejoin="round" stroke-linecap="round" stroke="#2e353a" fill="transparent" data-name="Path 1568"/><path d="M522.709 154.5s-31.33 11.64-33.12 14.77c-1.79 3.13 13.88 64.89 13.88 64.89l-8.06 25.51a354.65 354.65 0 0 0 37.15 5.83c18.79 1.79 37.14-3.58 37.14-3.58l-7.16-30 11.64-62.65s-23-10.91-28.06-12.84c-5.06-1.93-19.83-2.34-23.41-1.93" fill="#3e4950" fill-rule="evenodd" data-name="Path 1569"/><path d="M522.209 154s-31.33 11.64-33.12 14.77c-1.79 3.13 13.88 64.89 13.88 64.89l-8.06 25.51a354.65 354.65 0 0 0 37.15 5.83c18.79 1.79 37.14-3.58 37.14-3.58l-7.16-30 11.64-62.65s-23-10.91-28.06-12.84c-5.06-1.93-19.83-2.34-23.41-1.93Z" stroke-linejoin="round" stroke-linecap="round" stroke="#2e353a" fill="transparent" data-name="Path 1570"/><path d="M555.839 160.75c-4.24-1.94-8-3.63-9.72-4.28-5.06-1.93-19.83-2.38-23.41-1.93 0 0-7.68 2.85-15.65 6.11l17.89 74.45 15.66 2.23 15.23-76.58Z" fill="#3e4950" fill-rule="evenodd" data-name="Path 1571"/><path d="M555.339 160.25c-4.24-1.94-8-3.63-9.72-4.28-5.06-1.93-19.83-2.38-23.41-1.93 0 0-7.68 2.85-15.65 6.11l17.89 74.45 15.66 2.23 15.23-76.58Z" stroke-linejoin="round" stroke-linecap="round" stroke="#2e353a" fill="transparent" data-name="Path 1572"/><path d="m539.429 265.89 5.49-109.8c-5.88-1.61-18.88-2-22.21-1.55l-2.56 1 5.86 109.31c2.16.26 4.35.5 6.55.71 2.2.21 4.61.3 6.87.33" fill="#fff" fill-rule="evenodd" data-name="Path 1573"/><path d="m538.929 265.39 5.49-109.8c-5.88-1.61-18.88-2-22.21-1.55l-2.56 1 5.86 109.31c2.16.26 4.35.5 6.55.71 2.2.21 4.61.3 6.87.33Z" stroke-linejoin="round" stroke-linecap="round" stroke="#2e353a" fill="transparent" data-name="Path 1574"/><path d="M489.589 169.31s-28.64 78.77-23.72 81.45c4.92 2.68 62.21 3.58 62.21 3.58v-6.26l-38-13.88 7.61-24.61-8.1-40.28Z" fill="#3e4950" fill-rule="evenodd" data-name="Path 1575"/><path d="M489.089 168.81s-28.64 78.77-23.72 81.45c4.92 2.68 62.21 3.58 62.21 3.58v-6.26l-38-13.88 7.61-24.61-8.1-40.28Z" stroke-linejoin="round" stroke-linecap="round" stroke="#2e353a" fill="transparent" data-name="Path 1576"/><path d="M528.079 248.08s15.22-1.79 16.56-1.79c1.34 0 13.42 8.5 13.42 8.5l-30-.45.02-6.26Z" fill="#fff" fill-rule="evenodd" data-name="Path 1577"/><path d="M527.579 247.58s15.22-1.79 16.56-1.79c1.34 0 13.42 8.5 13.42 8.5l-30-.45.02-6.26Z" stroke-linejoin="round" stroke-linecap="round" stroke="#2e353a" fill="transparent" data-name="Path 1578"/><path d="M574.049 169.31s28.65 78.77 23.72 81.45c-4.93 2.68-62.2 3.58-62.2 3.58v-6.26l38-13.88-7.22-23.29 7.7-41.6Z" fill="#3e4950" fill-rule="evenodd" data-name="Path 1579"/><path d="M573.549 168.81s28.65 78.77 23.72 81.45c-4.93 2.68-62.2 3.58-62.2 3.58v-6.26l38-13.88-7.22-23.29 7.7-41.6Z" stroke-linejoin="round" stroke-linecap="round" stroke="#2e353a" fill="transparent" data-name="Path 1580"/><path d="M585.929 232c.935.004 1.868.084 2.79.24" stroke-linejoin="round" stroke-linecap="round" stroke="#2e353a" fill="transparent" data-name="Path 1581"/><path d="M573.109 233.7a67.131 67.131 0 0 1 11-1.69" stroke-linejoin="round" stroke-linecap="round" stroke="#2e353a" fill="transparent" data-name="Path 1582"/><path d="M535.569 248.08s-15.22-1.79-16.56-1.79c-1.34 0-13.43 8.5-13.43 8.5l30-.45-.01-6.26Z" fill="#fff" fill-rule="evenodd" data-name="Path 1583"/><path d="M535.069 247.58s-15.22-1.79-16.56-1.79c-1.34 0-13.43 8.5-13.43 8.5l30-.45-.01-6.26Z" stroke-linejoin="round" stroke-linecap="round" stroke="#2e353a" fill="transparent" data-name="Path 1584"/><path d="M575.619 277.02c-3.58-14.68-17.47-17.42-29.75-18.43-12.28-1.01-20.47 2.63-20.47 2.63s20 1 22.53 14.68l-8.14 19.73s-1.54 4.56 6.14 11.64" fill="#2e353a" fill-rule="evenodd" data-name="Path 1585"/><path d="M575.119 276.52c-3.58-14.68-17.47-17.42-29.75-18.43-12.28-1.01-20.47 2.63-20.47 2.63s20 1 22.53 14.68l-8.14 19.73s-1.54 4.56 6.14 11.64" stroke-linejoin="round" stroke-linecap="round" stroke="#2e353a" fill="transparent" data-name="Path 1586"/><path d="M543.019 283.07a253.482 253.482 0 0 0 4.12 28.54c3.21 15.85 17.41 73.37 18.33 75.64.92 2.27 11.45 17.21 9.62 22.64s-4.12 5-8.25.91-8.24-21.29-8.7-23.1c-.46-1.81-24.28-42.58-31.61-61.15-7.33-18.57-11.92-29-9.62-42.57 2.3-13.57 10.53-14 17-12.23 6.47 1.77 9.11 11.32 9.11 11.32" fill="#fff" fill-rule="evenodd" data-name="Path 1587"/><path d="M542.519 282.57a253.482 253.482 0 0 0 4.12 28.54c3.21 15.85 17.41 73.37 18.33 75.64.92 2.27 11.45 17.21 9.62 22.64s-4.12 5-8.25.91-8.24-21.29-8.7-23.1c-.46-1.81-24.28-42.58-31.61-61.15-7.33-18.57-11.92-29-9.62-42.57 2.3-13.57 10.53-14 17-12.23 6.47 1.77 9.11 11.32 9.11 11.32Z" stroke-linejoin="round" stroke-linecap="round" stroke="#2e353a" fill="transparent" data-name="Path 1588"/><path d="m542.66 287.9-16.13 38.65-4.32-11.5 20.45-27.15Z" fill="#2e353a" fill-rule="evenodd" data-name="Path 1589"/><path d="m542.16 287.4-16.13 38.65-4.32-11.5 20.45-27.15Z" stroke-linejoin="round" stroke-linecap="round" stroke="#2e353a" fill="transparent" data-name="Path 1590"/><path d="M575.089 409.89c1-2.93-1.63-8.64-4.39-13.62-3.33 5-6.84 4.49-9.3 3 1.56 4.77 3.5 9.61 5.44 11.53 4.13 4.08 6.42 4.53 8.25-.91" fill="#2e353a" fill-rule="evenodd" data-name="Path 1591"/><path d="M574.589 409.39c1-2.93-1.63-8.64-4.39-13.62-3.33 5-6.84 4.49-9.3 3 1.56 4.77 3.5 9.61 5.44 11.53 4.13 4.08 6.42 4.53 8.25-.91Z" stroke-linejoin="round" stroke-linecap="round" stroke="#2e353a" fill="transparent" data-name="Path 1592"/><path d="M546.429 270.5s-7.64-13.47-19.64-9.45c-12 4.02-37.6 91.75-45.65 104.28a113.869 113.869 0 0 1-6.71 9.4 49.157 49.157 0 0 1-13 1.79c-7.16 0-13.43 0-8.06 4.47 5.37 4.47 16.56 7.61 22.38 8.5 5.82.89 8.95-10.29 8.95-10.29s34.46-58.62 40.72-64.89c6.26-6.27 17.91-26.4 20.14-30.43 2.23-4.03 1.76-9.38.87-13.38" fill="#fff" fill-rule="evenodd" data-name="Path 1593"/><path d="M545.929 270s-7.64-13.47-19.64-9.45c-12 4.02-37.6 91.75-45.65 104.28a113.869 113.869 0 0 1-6.71 9.4 49.157 49.157 0 0 1-13 1.79c-7.16 0-13.43 0-8.06 4.47 5.37 4.47 16.56 7.61 22.38 8.5 5.82.89 8.95-10.29 8.95-10.29s34.46-58.62 40.72-64.89c6.26-6.27 17.91-26.4 20.14-30.43 2.23-4.03 1.76-9.38.87-13.38Z" stroke-linejoin="round" stroke-linecap="round" stroke="#2e353a" fill="transparent" data-name="Path 1594"/><path d="M484.159 380.73c-6.39.68-16.5 1.6-16.5 1.6l-3.54-5.9c-.88.05-1.79.09-2.72.09-7.16 0-13.43 0-8.06 4.47 5.37 4.47 16.56 7.61 22.38 8.5 4.46.69 7.34-5.73 8.44-8.76" fill="#2e353a" fill-rule="evenodd" data-name="Path 1595"/><path d="M483.659 380.23c-6.39.68-16.5 1.6-16.5 1.6l-3.54-5.9c-.88.05-1.79.09-2.72.09-7.16 0-13.43 0-8.06 4.47 5.37 4.47 16.56 7.61 22.38 8.5 4.46.69 7.34-5.73 8.44-8.76Z" stroke-linejoin="round" stroke-linecap="round" stroke="#2e353a" fill="transparent" data-name="Path 1596"/><path d="M513.579 119.86s-4.52 3.62-3.62 7.69c.9 4.07-1.35 10.39-4.52 11.3-3.17.91 0 5 2.26 5.42l2.26.45s2.26 11.3 4.07 12.66c1.81 1.36 8.59 0 8.59 0s2.26 14.91 5.42 19.43 5 5.42 9-.45 9-19.89 9-19.89 1.36-14.91-2.26-25.31c-3.62-10.4-17.09-23.95-30.2-11.3" fill="#fff" fill-rule="evenodd" data-name="Path 1597"/><path d="M513.079 119.36s-4.52 3.62-3.62 7.69c.9 4.07-1.35 10.39-4.52 11.3-3.17.91 0 5 2.26 5.42l2.26.45s2.26 11.3 4.07 12.66c1.81 1.36 8.59 0 8.59 0s2.26 14.91 5.42 19.43 5 5.42 9-.45 9-19.89 9-19.89 1.36-14.91-2.26-25.31c-3.62-10.4-17.09-23.95-30.2-11.3Z" stroke-linejoin="round" stroke-linecap="round" stroke="#2e353a" fill="transparent" data-name="Path 1598"/><path d="M514.279 135.1c0 1.16-.41 2.1-.92 2.1s-.92-.94-.92-2.1c0-1.16.42-2.1.92-2.1s.92.94.92 2.1" fill="#2e353a" fill-rule="evenodd" data-name="Path 1599"/><path d="M511.419 129.61s2.1-2.36 3.94.79" stroke-linejoin="round" stroke-linecap="round" stroke="#2e353a" fill="transparent" data-name="Path 1600"/><path d="M512.469 147s1.31.52 4.46-1.84" stroke-linejoin="round" stroke-linecap="round" stroke="#2e353a" fill="transparent" data-name="Path 1601"/><path d="M517.419 104.77s-9.49 3.92-7.23 12.27 15.37 15.21 19.43 22.08c4.06 6.87 3.17 14.24 0 17.18-3.17 2.94-5.42 3.44-5.42 3.44a46.727 46.727 0 0 0 22.6 5.89c13.11 0 18.46-13.53 17.55-22.36-.91-8.83-3.27-29.58-12.76-36-9.49-6.42-25.13-6.92-34.17-2.5" fill="#2e353a" fill-rule="evenodd" data-name="Path 1602"/><path d="M516.919 104.27s-9.49 3.92-7.23 12.27 15.37 15.21 19.43 22.08c4.06 6.87 3.17 14.24 0 17.18-3.17 2.94-5.42 3.44-5.42 3.44a46.727 46.727 0 0 0 22.6 5.89c13.11 0 18.46-13.53 17.55-22.36-.91-8.83-3.27-29.58-12.76-36-9.49-6.42-25.13-6.92-34.17-2.5Z" stroke-linejoin="round" stroke-linecap="round" stroke="#2e353a" fill="transparent" data-name="Path 1603"/><path d="m314.07 310.5-4.5 96" stroke-linejoin="round" stroke-linecap="round" stroke-width="6" stroke="#2e353a" fill="transparent" data-name="Line 168"/><path d="m363.07 310.5-5 96" stroke-linejoin="round" stroke-linecap="round" stroke-width="6" stroke="#2e353a" fill="transparent" data-name="Line 169"/><path d="m387.57 310.5 6.5 96" stroke-linejoin="round" stroke-linecap="round" stroke-width="6" stroke="#2e353a" fill="transparent" data-name="Line 170"/><path d="m413.57 310.5 15.5 96" stroke-linejoin="round" stroke-linecap="round" stroke-width="6" stroke="#2e353a" fill="transparent" data-name="Line 171"/><path d="m309.43 208.79 4.32 101.34h80.87l-7.93-101.34h-77.26Z" fill="#7f7f7f" fill-rule="evenodd" data-name="Path 1604"/><path d="m308.93 208.29 4.32 101.34h80.87l-7.93-101.34h-77.26Z" stroke-linejoin="round" stroke-linecap="round" stroke="#2e353a" fill="transparent" data-name="Path 1605"/><path d="M313.749 309.84h109.81v5.77h-109.81v-5.77z" fill="#7f7f7f" fill-rule="evenodd" data-name="Rectangle 498"/><path d="M313.249 309.34h109.81v5.77h0-109.81 0v-5.77h0z" stroke-linejoin="round" stroke-linecap="round" stroke="#2e353a" fill="transparent" data-name="Rectangle 499"/><path d="M358.419 309.84h65.14v5.77h-65.14v-5.77z" fill="#7f7f7f" fill-rule="evenodd" data-name="Rectangle 500"/><path d="M357.919 309.34h65.14v5.77h0-65.14 0v-5.77h0z" stroke-linejoin="round" stroke-linecap="round" stroke="#2e353a" fill="transparent" data-name="Rectangle 501"/><path d="M323.789 259.04s-4.06 36.65-2.71 41.44a12.82 12.82 0 0 0 8.79 8.91c3.72 1 55.35 0 56.78 0 8.22.16 9.86-4.06 10.14-12.33.31-9-1-40.56-1-40.56l-72 2.54Z" fill="#2e353a" fill-rule="evenodd" data-name="Path 1606"/><path d="M323.289 258.54s-4.06 36.65-2.71 41.44a12.82 12.82 0 0 0 8.79 8.91c3.72 1 55.35 0 56.78 0 8.22.16 9.86-4.06 10.14-12.33.31-9-1-40.56-1-40.56l-72 2.54Z" stroke-linejoin="round" stroke-linecap="round" stroke="#2e353a" fill="transparent" data-name="Path 1607"/><path d="M341.359 159.15s-30.33 12-29.33 14 10 60.35 10.37 62c.37 1.65 1 21 1 22.66 0 1.66 2 4.67 4 5 10.44 1.74 21.79.84 32.35 1 7.14.087 14.273.11 21.4.07 4.2 0 14 2 15.57-2.69.67-3.67.64-86 1-90s-3.66-5-8-7.33-24.33-7.67-26.33-7.67-22.03 2.96-22.03 2.96" fill="#fff" fill-rule="evenodd" data-name="Path 1608"/><path d="M340.859 158.65s-30.33 12-29.33 14 10 60.35 10.37 62c.37 1.65 1 21 1 22.66 0 1.66 2 4.67 4 5 10.44 1.74 21.79.84 32.35 1 7.14.087 14.273.11 21.4.07 4.2 0 14 2 15.57-2.69.67-3.67.64-86 1-90s-3.66-5-8-7.33-24.33-7.67-26.33-7.67-22.03 2.96-22.03 2.96Z" stroke-linejoin="round" stroke-linecap="round" stroke="#2e353a" fill="transparent" data-name="Path 1609"/><path d="m350.06 178.18 6.76 9.47-7.72 57.87 12.16 12.85 9.8-14.87-9.84-56.87 4.39-9.46-12.51-7.1-3.04 8.11Z" fill="#2e353a" fill-rule="evenodd" data-name="Path 1610"/><path d="m349.56 177.68 6.76 9.47-7.72 57.87 12.16 12.85 9.8-14.87-9.84-56.87 4.39-9.46-12.51-7.1-3.04 8.11Z" stroke-linejoin="round" stroke-linecap="round" stroke="#2e353a" fill="transparent" data-name="Path 1611"/><path d="M343.689 156.15s-4 1.33-4.33 4c-.33 2.67.67 23.67.67 23.67l13-5 5.66-1.32 14.69 2.73s-.35-12.06-2.69-18.06c-2.34-6-5-8-7-8.33-2-.33-20 2.31-20 2.31" fill="#fff" fill-rule="evenodd" data-name="Path 1612"/><path d="M343.189 155.65s-4 1.33-4.33 4c-.33 2.67.67 23.67.67 23.67l13-5 5.66-1.32 14.69 2.73s-.35-12.06-2.69-18.06c-2.34-6-5-8-7-8.33-2-.33-20 2.31-20 2.31Z" stroke-linejoin="round" stroke-linecap="round" stroke="#2e353a" fill="transparent" data-name="Path 1613"/><path d="M341.689 155.15s3.67 13.67 5 16 10 9.33 12 6.33 4-11 4.34-12c.34-1 .66-11.66.66-11.66s-16 5.68-22 1.33" fill="#fff" fill-rule="evenodd" data-name="Path 1614"/><path d="M341.189 154.65s3.67 13.67 5 16 10 9.33 12 6.33 4-11 4.34-12c.34-1 .66-11.66.66-11.66s-16 5.68-22 1.33Z" stroke-linejoin="round" stroke-linecap="round" stroke="#2e353a" fill="transparent" data-name="Path 1615"/><path d="M348.229 163.85s.37.56 5.28 2.64a21.106 21.106 0 0 0 8.48 1.88l.94-3.58.57-9.62-15.27 8.68Z" fill="#2e353a" fill-rule="evenodd" data-name="Path 1616"/><path d="M347.729 163.35s.37.56 5.28 2.64a21.106 21.106 0 0 0 8.48 1.88l.94-3.58.57-9.62-15.27 8.68Z" stroke-linejoin="round" stroke-linecap="round" stroke="#2e353a" fill="transparent" data-name="Path 1617"/><path d="M373.269 129.82s1.17-10.92 0-17.16-7.8-8.18-12.87-9c-5.07-.82-26.51 1.17-29.24 7-2.73 5.83 3.12 10.52 3.12 10.52s-3.51 2.34-1.95 5.46c1.56 3.12 3.51 7.41 3.51 7.41l2.34-9 16.37.39 6.24 1.56 6.63 8.19s3.51.78 4.68-.78 1.17-4.59 1.17-4.59" fill="#2e353a" fill-rule="evenodd" data-name="Path 1618"/><path d="M372.769 129.32s1.17-10.92 0-17.16-7.8-8.18-12.87-9c-5.07-.82-26.51 1.17-29.24 7-2.73 5.83 3.12 10.52 3.12 10.52s-3.51 2.34-1.95 5.46c1.56 3.12 3.51 7.41 3.51 7.41l2.34-9 16.37.39 6.24 1.56 6.63 8.19s3.51.78 4.68-.78 1.17-4.59 1.17-4.59Z" stroke-linejoin="round" stroke-linecap="round" stroke="#2e353a" fill="transparent" data-name="Path 1619"/><path d="M335.859 132s-3.33-3.66-3.33.34 4 8 4 8l-.67-8.34Z" stroke-linejoin="round" stroke-linecap="round" stroke="#2e353a" fill="transparent" data-name="Path 1620"/><path d="M335.839 122.41s.39 21.83 1.17 26.12c.78 4.29 10.14 15.6 12.09 15.6 1.95 0 4.67.78 7-1.17s12.09-10.92 12.87-13.65a55.176 55.176 0 0 0 1.17-8.18s6.24-3.12 5.46-7.8c-.78-4.68-3.12-5.07-4.29-3.9a42.702 42.702 0 0 0-3.12 3.9s-.78-3.9-2.34-5.46c-1.56-1.56-6.24-2.34-5.46-3.9l4.29-8.58s-7.41 6.24-14.42 7.41c-4.796.652-9.666.52-14.42-.39" fill="#fff" fill-rule="evenodd" data-name="Path 1621"/><path d="M335.339 121.91s.39 21.83 1.17 26.12c.78 4.29 10.14 15.6 12.09 15.6 1.95 0 4.67.78 7-1.17s12.09-10.92 12.87-13.65a55.176 55.176 0 0 0 1.17-8.18s6.24-3.12 5.46-7.8c-.78-4.68-3.12-5.07-4.29-3.9a42.702 42.702 0 0 0-3.12 3.9s-.78-3.9-2.34-5.46c-1.56-1.56-6.24-2.34-5.46-3.9l4.29-8.58s-7.41 6.24-14.42 7.41c-4.796.652-9.666.52-14.42-.39Z" stroke-linejoin="round" stroke-linecap="round" stroke="#2e353a" fill="transparent" data-name="Path 1622"/><path d="M343.109 133.13c0 1.09-.55 2-1.24 2s-1.24-.87-1.24-2 .56-2 1.24-2c.68 0 1.24.92 1.24 2" fill="#2e353a" fill-rule="evenodd" data-name="Path 1623"/><path d="M355.699 133.13c0 1.09-.55 2-1.24 2s-1.24-.87-1.24-2 .56-2 1.24-2c.68 0 1.24.92 1.24 2" fill="#2e353a" fill-rule="evenodd" data-name="Path 1624"/><path d="M345.909 132.12s-2.89 11.14-1.65 11.76c1.24.62 8.26-2.06 8.26-2.06" stroke-linejoin="round" stroke-linecap="round" stroke="#2e353a" fill="transparent" data-name="Path 1625"/><path d="M344.789 144.38a20.294 20.294 0 0 0-4.75 2.48c-1.85 1.44 1.45 2.68 5.78 2.68s9.91-.2 12.39-1.44c2.48-1.24.41-2.27-1.65-3.1a36.976 36.976 0 0 0-5.78-1.44s-3.99.62-5.99.82" fill="#2e353a" fill-rule="evenodd" data-name="Path 1626"/><path d="M344.289 143.88a20.294 20.294 0 0 0-4.75 2.48c-1.85 1.44 1.45 2.68 5.78 2.68s9.91-.2 12.39-1.44c2.48-1.24.41-2.27-1.65-3.1a36.976 36.976 0 0 0-5.78-1.44s-3.99.62-5.99.82Z" stroke-linejoin="round" stroke-linecap="round" stroke="#2e353a" fill="transparent" data-name="Path 1627"/><path d="M338.689 128.2s1.86-2.07 5.37-.42" stroke-linejoin="round" stroke-linecap="round" stroke="#2e353a" fill="transparent" data-name="Path 1628"/><path d="M350.039 128a6.25 6.25 0 0 1 7.43 1.24" stroke-linejoin="round" stroke-linecap="round" stroke="#2e353a" fill="transparent" data-name="Path 1629"/><path d="M312.029 173.15s-21 60-21 61-3 6.66 0 10.33 8.33 5 11.33 3.67 18.67-29 18.67-29-8-42.65-9-46" fill="#fff" fill-rule="evenodd" data-name="Path 1630"/><path d="M311.529 172.65s-21 60-21 61-3 6.66 0 10.33 8.33 5 11.33 3.67 18.67-29 18.67-29-8-42.65-9-46Z" stroke-linejoin="round" stroke-linecap="round" stroke="#2e353a" fill="transparent" data-name="Path 1631"/><path d="m313.37 194.99-1.05-3.4" stroke-linejoin="round" stroke-linecap="round" stroke="#2e353a" fill="transparent" data-name="Line 172"/><path d="m319.12 213.61-4.71-15.24" stroke-linejoin="round" stroke-linecap="round" stroke="#2e353a" fill="transparent" data-name="Line 173"/><path d="m295.729 226.17 60.34-25.67 1.33 6.33s-45.67 35.34-49 38c-3.33 2.66-4.67 4.67-9 4.67s-10-4-10-9.33a25.12 25.12 0 0 1 2.33-10" fill="#fff" fill-rule="evenodd" data-name="Path 1632"/><path d="m295.229 225.67 60.34-25.67 1.33 6.33s-45.67 35.34-49 38c-3.33 2.66-4.67 4.67-9 4.67s-10-4-10-9.33a25.12 25.12 0 0 1 2.33-10" stroke-linejoin="round" stroke-linecap="round" stroke="#2e353a" fill="transparent" data-name="Path 1633"/><path d="m348.81 203.48 2.27 5.68" stroke-linejoin="round" stroke-linecap="round" stroke="#2e353a" fill="transparent" data-name="Line 174"/><path d="M356.069 200.5s2-7.33 2.66-8.33c.66-1 4.67-3.67 6.34-5s4.33-3.67 4.66-2c.33 1.67-4 6.66-4 6.66s6.67-3.33 9-3.66a25.212 25.212 0 0 1 6.92-.36c1.67.33-.06 1.27-.25 3.69-.32 4-7.33 7.67-9.33 9.67s-14.67 5.66-14.67 5.66l-1.33-6.33Z" fill="#fff" fill-rule="evenodd" data-name="Path 1634"/><path d="M355.569 200s2-7.33 2.66-8.33c.66-1 4.67-3.67 6.34-5s4.33-3.67 4.66-2c.33 1.67-4 6.66-4 6.66s6.67-3.33 9-3.66a25.212 25.212 0 0 1 6.92-.36c1.67.33-.06 1.27-.25 3.69-.32 4-7.33 7.67-9.33 9.67s-14.67 5.66-14.67 5.66l-1.33-6.33Z" stroke-linejoin="round" stroke-linecap="round" stroke="#2e353a" fill="transparent" data-name="Path 1635"/><path d="m380.58 189.58-11.91 3.97" stroke-linejoin="round" stroke-linecap="round" stroke="#2e353a" fill="transparent" data-name="Line 175"/><path d="m380.02 193.27-10.22 3.69" stroke-linejoin="round" stroke-linecap="round" stroke="#2e353a" fill="transparent" data-name="Line 176"/><path d="m373.21 199.51-2.56.85" stroke-linejoin="round" stroke-linecap="round" stroke="#2e353a" fill="transparent" data-name="Line 177"/><path d="m365.23 191.33-3.94.24" stroke-linejoin="round" stroke-linecap="round" stroke="#2e353a" fill="transparent" data-name="Line 178"/><path d="M397.029 168.82s6.43 16.2 8 19.66c1.87 4.15 10.37 21.35 10.37 21.35l16-34.66 8.67 3.66s-13.67 43-16.67 49.34c-3 6.34-2.33 11.33-7 11-4.67-.33-19-15-19-15l-.37-55.35Z" fill="#fff" fill-rule="evenodd" data-name="Path 1636"/><path d="M396.529 168.32s6.43 16.2 8 19.66c1.87 4.15 10.37 21.35 10.37 21.35l16-34.66 8.67 3.66s-13.67 43-16.67 49.34c-3 6.34-2.33 11.33-7 11-4.67-.33-19-15-19-15l-.37-55.35Z" stroke-linejoin="round" stroke-linecap="round" stroke="#2e353a" fill="transparent" data-name="Path 1637"/><path d="m414.9 209.33-6.51 11.74" stroke-linejoin="round" stroke-linecap="round" stroke="#2e353a" fill="transparent" data-name="Line 179"/><path d="m412.36 213.7-5.39 4.25" stroke-linejoin="round" stroke-linecap="round" stroke="#2e353a" fill="transparent" data-name="Line 180"/><path d="m428.82 180.22 8.51 4.25" stroke-linejoin="round" stroke-linecap="round" stroke="#2e353a" fill="transparent" data-name="Line 181"/><path d="M431.399 175.17s-.33-9.34.67-11.34 4.66-7.33 5-8.66c.34-1.33 2-3.67 2.33-1.34a18.136 18.136 0 0 1-.33 5.34s4.33-4 4.66-5.34c.33-1.34 0-6 1.34-6s2.66 1 4 5c1.34 4 0 10.34-.67 12.67s-7.33 11.33-7.33 11.33l-1 2-8.67-3.66Z" fill="#fff" fill-rule="evenodd" data-name="Path 1638"/><path d="M430.899 174.67s-.33-9.34.67-11.34 4.66-7.33 5-8.66c.34-1.33 2-3.67 2.33-1.34a18.136 18.136 0 0 1-.33 5.34s4.33-4 4.66-5.34c.33-1.34 0-6 1.34-6s2.66 1 4 5c1.34 4 0 10.34-.67 12.67s-7.33 11.33-7.33 11.33l-1 2-8.67-3.66Z" stroke-linejoin="round" stroke-linecap="round" stroke="#2e353a" fill="transparent" data-name="Path 1639"/><path d="M448.679 155s-.57-2.27-1.13-.56c-.56 1.71-2.27 8.22-2.27 8.22s-8.8 6-8.8 7.67V172" stroke-linejoin="round" stroke-linecap="round" stroke="#2e353a" fill="transparent" data-name="Path 1640"/><path d="m399.119 396.58 7.59 10.1s10.13 2.65 10.2 3.7c.07 1.05-3.62 2.59-3.62 2.59l-9.82 1.53s-11.63-4.56-14.43-5.21c-2.8-.65-5.38.07-4.56-3.16.82-3.23 2.13-9.91 2.13-9.91l12.51.36Z" fill="#fff" fill-rule="evenodd" data-name="Path 1641"/><path d="m398.619 396.08 7.59 10.1s10.13 2.65 10.2 3.7c.07 1.05-3.62 2.59-3.62 2.59l-9.82 1.53s-11.63-4.56-14.43-5.21c-2.8-.65-5.38.07-4.56-3.16.82-3.23 2.13-9.91 2.13-9.91l12.51.36Z" stroke-linejoin="round" stroke-linecap="round" stroke="#2e353a" fill="transparent" data-name="Path 1642"/><path d="M372.419 293.15s7.77-13.85 18.59-19.26c10.82-5.41 20.28-3.39 29.06-3.39 8.78 0 23.66 1.35 25.35 3.38 1.69 2.03-46.3 122.69-46.3 122.69l-12.51-.34s9.13-40.56 10.48-50c1.35-9.44 4.7-36.85 4.7-36.85s-23.44 0-34.25-.38" fill="#2e353a" fill-rule="evenodd" data-name="Path 1643"/><path d="M371.919 292.65s7.77-13.85 18.59-19.26c10.82-5.41 20.28-3.39 29.06-3.39 8.78 0 23.66 1.35 25.35 3.38 1.69 2.03-46.3 122.69-46.3 122.69l-12.51-.34s9.13-40.56 10.48-50c1.35-9.44 4.7-36.85 4.7-36.85s-23.44 0-34.25-.38" stroke-linejoin="round" stroke-linecap="round" stroke="#2e353a" fill="transparent" data-name="Path 1644"/><path d="M326.789 274.59s.34-5.07 11.15-5.41c10.81-.34 22.31-1.35 23.66 5.07 1.35 6.42 1.69 104.78 1.69 108.16 0 3.38 1 11.49 1 11.49l-12.51 1s-16.2-54.4-18.91-66.57c-2.71-12.17-2.36-41.57-2.36-43.94" fill="#2e353a" fill-rule="evenodd" data-name="Path 1645"/><path d="M326.289 274.09s.34-5.07 11.15-5.41c10.81-.34 22.31-1.35 23.66 5.07 1.35 6.42 1.69 104.78 1.69 108.16 0 3.38 1 11.49 1 11.49l-12.51 1s-16.2-54.4-18.91-66.57c-2.71-12.17-2.36-41.57-2.36-43.94" stroke-linejoin="round" stroke-linecap="round" stroke="#2e353a" fill="transparent" data-name="Path 1646"/><path d="M364.309 393.9s4.39 14.87 5.4 16.56c1.01 1.69 1.69 2.71-1.35 4.73-3.04 2.02-9.12 3.38-12.84 2.37-3.72-1.01-4.4-7.44-3.72-12.84.41-3.257.41-6.553 0-9.81l12.51-1.01Z" fill="#fff" fill-rule="evenodd" data-name="Path 1647"/><path d="M363.809 393.4s4.39 14.87 5.4 16.56c1.01 1.69 1.69 2.71-1.35 4.73-3.04 2.02-9.12 3.38-12.84 2.37-3.72-1.01-4.4-7.44-3.72-12.84.41-3.257.41-6.553 0-9.81l12.51-1.01Z" stroke-linejoin="round" stroke-linecap="round" stroke="#2e353a" fill="transparent" data-name="Path 1648"/><path d="m160.07 310.5-15.5 96" stroke-linejoin="round" stroke-linecap="round" stroke-width="6" stroke="#2e353a" fill="transparent" data-name="Line 182"/><path d="m212.07 310.5-15.5 96" stroke-linejoin="round" stroke-linecap="round" stroke-width="6" stroke="#2e353a" fill="transparent" data-name="Line 183"/><path d="m233.57 310.5 15.5 96" stroke-linejoin="round" stroke-linecap="round" stroke-width="6" stroke="#2e353a" fill="transparent" data-name="Line 184"/><path d="m287.57 310.5 15.5 96" stroke-linejoin="round" stroke-linecap="round" stroke-width="6" stroke="#2e353a" fill="transparent" data-name="Line 185"/><path d="m137.43 208.79 22.32 101.34h72.87l-25.93-101.34h-69.26Z" fill="#7f7f7f" fill-rule="evenodd" data-name="Path 1649"/><path d="m136.93 208.29 22.32 101.34h72.87l-25.93-101.34h-69.26Z" stroke-linejoin="round" stroke-linecap="round" stroke="#2e353a" fill="transparent" data-name="Path 1650"/><path d="M159.749 309.84h137.81v5.77h-137.81v-5.77z" fill="#7f7f7f" fill-rule="evenodd" data-name="Rectangle 502"/><path d="M159.249 309.34h137.81v5.77h0-137.81 0v-5.77h0z" stroke-linejoin="round" stroke-linecap="round" stroke="#2e353a" fill="transparent" data-name="Rectangle 503"/><path d="M250.919 309.84h46.64v5.77h-46.64v-5.77z" fill="#7f7f7f" fill-rule="evenodd" data-name="Rectangle 504"/><path d="M250.419 309.34h46.64v5.77h0-46.64 0v-5.77h0z" stroke-linejoin="round" stroke-linecap="round" stroke="#2e353a" fill="transparent" data-name="Rectangle 505"/><path d="m179.399 163.5-27.67 15 14.67 90s-.67 2.33 1 3.33 6.33 1.34 6.33 1.34h54.34a10.741 10.741 0 0 0 5-3.34c1.66-2.33 1.66-3.66 1.66-6s5.67-86.66 4.67-88.33a20.425 20.425 0 0 0-2.67-3.33l-28.66-11.34-28.67 2.67Z" fill="#fff" fill-rule="evenodd" data-name="Path 1651"/><path d="m178.899 163-27.67 15 14.67 90s-.67 2.33 1 3.33 6.33 1.34 6.33 1.34h54.34a10.741 10.741 0 0 0 5-3.34c1.66-2.33 1.66-3.66 1.66-6s5.67-86.66 4.67-88.33a20.425 20.425 0 0 0-2.67-3.33l-28.66-11.34-28.67 2.67Z" stroke-linejoin="round" stroke-linecap="round" stroke="#2e353a" fill="transparent" data-name="Path 1652"/><path d="m199.13 183.82 6.52 4.48-1.82 63.12L216 264.27l9.8-14.87-15.76-62.12 4.4-9.46-12.51-7.1-2.8 13.1Z" fill="#2e353a" fill-rule="evenodd" data-name="Path 1653"/><path d="m198.63 183.32 6.52 4.48-1.82 63.12 12.17 12.85 9.8-14.87-15.76-62.12 4.4-9.46-12.51-7.1-2.8 13.1Z" stroke-linejoin="round" stroke-linecap="round" stroke="#2e353a" fill="transparent" data-name="Path 1654"/><path d="m219.729 110.83 4 12-1.66 4.67 5.33 9-3.67 2.33s2 12.34 1.34 13.34c-.66 1-14.67 2-14.67 2l-2 20-22.33-13V141.5s-7.34-27.67-5.67-30c1.67-2.33 13-7 26.67-8.67 13.67-1.67 15.66-3 16.33 1 .67 4-3.67 7-3.67 7" fill="#fff" fill-rule="evenodd" data-name="Path 1655"/><path d="m219.229 110.33 4 12-1.66 4.67 5.33 9-3.67 2.33s2 12.34 1.34 13.34c-.66 1-14.67 2-14.67 2l-2 20-22.33-13V141s-7.34-27.67-5.67-30c1.67-2.33 13-7 26.67-8.67 13.67-1.67 15.66-3 16.33 1 .67 4-3.67 7-3.67 7Z" stroke-linejoin="round" stroke-linecap="round" stroke="#2e353a" fill="transparent" data-name="Path 1656"/><path d="M223.399 103.83c-.67-4-2.67-2.66-16.33-1-13.66 1.66-25 6.34-26.67 8.67-1.67 2.33 5.67 30 5.67 30v5.34c.881.14 1.779.14 2.66 0 3.67-.66 8.67-5.66 8.67-5.66s-5 3-7 0a13.418 13.418 0 0 1-2-10c.67-3.34 5.67-2.34 5.67-.67s2 5 3.66 4.33c1.66-.67 2-8.33 2-8.33s7-4.67 7.34-7c.34-2.33-2-6-2-6l14.66-2.67s4.34-3.01 3.67-7.01" fill="#2e353a" fill-rule="evenodd" data-name="Path 1657"/><path d="M222.899 103.33c-.67-4-2.67-2.66-16.33-1-13.66 1.66-25 6.34-26.67 8.67-1.67 2.33 5.67 30 5.67 30v5.34c.881.14 1.779.14 2.66 0 3.67-.66 8.67-5.66 8.67-5.66s-5 3-7 0a13.418 13.418 0 0 1-2-10c.67-3.34 5.67-2.34 5.67-.67s2 5 3.66 4.33c1.66-.67 2-8.33 2-8.33s7-4.67 7.34-7c.34-2.33-2-6-2-6l14.66-2.67s4.34-3.01 3.67-7.01Z" stroke-linejoin="round" stroke-linecap="round" stroke="#2e353a" fill="transparent" data-name="Path 1658"/><path d="M219.569 123.67s-4-1.34-6.34 1.66" stroke-linejoin="round" stroke-linecap="round" stroke="#2e353a" fill="transparent" data-name="Path 1659"/><path d="M220.399 128.67c0 1.19-.45 2.16-1 2.16s-1-1-1-2.16c0-1.16.45-2.17 1-2.17s1 1 1 2.17" fill="#2e353a" fill-rule="evenodd" data-name="Path 1660"/><path d="M221.899 141.67s-4.33 1-6-.67" stroke-linejoin="round" stroke-linecap="round" stroke="#2e353a" fill="transparent" data-name="Path 1661"/><path d="M210.4 154.17h-7.67l6.34 10.33 1.33-10.33Z" fill="#2e353a" fill-rule="evenodd" data-name="Path 1662"/><path d="M209.9 153.67h-7.67l6.34 10.33 1.33-10.33Z" stroke-linejoin="round" stroke-linecap="round" stroke="#2e353a" fill="transparent" data-name="Path 1663"/><path d="m186.07 157.5-8.34 6.67 20.34 23.33 10.33-13.33-22.33-16.67Z" fill="#fff" fill-rule="evenodd" data-name="Path 1664"/><path d="m185.57 157-8.34 6.67L197.57 187l10.33-13.33L185.57 157Z" stroke-linejoin="round" stroke-linecap="round" stroke="#2e353a" fill="transparent" data-name="Path 1665"/><path d="m208.4 174.17 7.67 10-2.34-21-3.66-4.34-1.67 15.34Z" fill="#fff" fill-rule="evenodd" data-name="Path 1666"/><path d="m207.9 173.67 7.67 10-2.34-21-3.66-4.34-1.67 15.34Z" stroke-linejoin="round" stroke-linecap="round" stroke="#2e353a" fill="transparent" data-name="Path 1667"/><path d="m239.4 175.5 27.33 65.67-18.33 7.33-11.67-20.67 2.67-52.33Z" fill="#fff" fill-rule="evenodd" data-name="Path 1668"/><path d="m238.9 175 27.33 65.67L247.9 248l-11.67-20.67L238.9 175Z" stroke-linejoin="round" stroke-linecap="round" stroke="#2e353a" fill="transparent" data-name="Path 1669"/><path d="M219.069 240.83s24-3.66 31-5c7-1.34 12.66-.33 16 3.34s2.66 10.66 1.66 12.33c-1 1.67-10 2.33-16 2.33s-24.33-4.66-28-5.66l-3.66-1-1-6.34Z" fill="#fff" fill-rule="evenodd" data-name="Path 1670"/><path d="M218.569 240.33s24-3.66 31-5c7-1.34 12.66-.33 16 3.34s2.66 10.66 1.66 12.33c-1 1.67-10 2.33-16 2.33s-24.33-4.66-28-5.66l-3.66-1-1-6.34Z" stroke-linejoin="round" stroke-linecap="round" stroke="#2e353a" fill="transparent" data-name="Path 1671"/><path d="M241.399 250.5s9 1.33 9.67 2.33c.67 1 8 9.34 9 10.34s1.66 10.33 1.66 10.33-2.33 1.67-3 .67c-.67-1-8.33-10.67-8.33-10.67s-9.67-3.33-10.33-5.33l-.67-2 2-5.67Z" fill="#fff" fill-rule="evenodd" data-name="Path 1672"/><path d="M240.899 250s9 1.33 9.67 2.33c.67 1 8 9.34 9 10.34s1.66 10.33 1.66 10.33-2.33 1.67-3 .67c-.67-1-8.33-10.67-8.33-10.67s-9.67-3.33-10.33-5.33l-.67-2 2-5.67Z" stroke-linejoin="round" stroke-linecap="round" stroke="#2e353a" fill="transparent" data-name="Path 1673"/><path d="M151.729 178.5s16.67 76 18 76.33c1.33.33 69.67 1.34 69.67 1.34l2-5.67-56.67-14.33-3.66-50.67" fill="#fff" fill-rule="evenodd" data-name="Path 1674"/><path d="M151.229 178s16.67 76 18 76.33c1.33.33 69.67 1.34 69.67 1.34l2-5.67-56.67-14.33-3.66-50.67" stroke-linejoin="round" stroke-linecap="round" stroke="#2e353a" fill="transparent" data-name="Path 1675"/><path d="M268.069 279.03s36 8.51 38.66 10.14c2.66 1.63 1.34 7.53-.33 12.44-1.67 4.91-52.67 92.27-52.67 92.27l-7.66-2 23.33-82.78h-29.33l28-30.07Z" fill="#2e353a" fill-rule="evenodd" data-name="Path 1676"/><path d="M267.569 278.53s36 8.51 38.66 10.14c2.66 1.63 1.34 7.53-.33 12.44-1.67 4.91-52.67 92.27-52.67 92.27l-7.66-2 23.33-82.78h-29.33l28-30.07Z" stroke-linejoin="round" stroke-linecap="round" stroke="#2e353a" fill="transparent" data-name="Path 1677"/><path d="m253.729 393.88 6 13.74s8.34 6.21 8 7.2c-.34.99-4.33 1-4.33 1l-9.67-2.32s-9-8.51-11.33-10.15c-2.33-1.64-5-2-3-4.58a74.72 74.72 0 0 1 6.67-6.87l7.66 1.98Z" fill="#fff" fill-rule="evenodd" data-name="Path 1678"/><path d="m253.229 393.38 6 13.74s8.34 6.21 8 7.2c-.34.99-4.33 1-4.33 1l-9.67-2.32s-9-8.51-11.33-10.15c-2.33-1.64-5-2-3-4.58a74.72 74.72 0 0 1 6.67-6.87l7.66 1.98Z" stroke-linejoin="round" stroke-linecap="round" stroke="#2e353a" fill="transparent" data-name="Path 1679"/><path d="M167.399 271.83s-1.67 18-1.67 22.58c0 4.58 3.67 11.78 10.34 14.4 6.67 2.62 84.33 0 84.33 0l30.67 94.23 9-3.28s-11.34-102.73-11.34-105c0-2.27-1-10.47-4.33-12.11-3.33-1.64-56.33-9.49-56.33-9.49l-60.67-1.33Z" fill="#2e353a" fill-rule="evenodd" data-name="Path 1680"/><path d="M166.899 271.33s-1.67 18-1.67 22.58c0 4.58 3.67 11.78 10.34 14.4 6.67 2.62 84.33 0 84.33 0l30.67 94.23 9-3.28s-11.34-102.73-11.34-105c0-2.27-1-10.47-4.33-12.11-3.33-1.64-56.33-9.49-56.33-9.49l-60.67-1.33Z" stroke-linejoin="round" stroke-linecap="round" stroke="#2e353a" fill="transparent" data-name="Path 1681"/><path d="M300.069 399.76s17.33 2.29 19.33 2c2-.29 8.33-1.64 6.33 1.63-2 3.27-15 6.87-20.33 9.16-5.33 2.29-10.67 5.89-12.33 3.28-1.66-2.61-2-12.76-2-12.76l9-3.31Z" fill="#fff" fill-rule="evenodd" data-name="Path 1682"/><path d="M299.569 399.26s17.33 2.29 19.33 2c2-.29 8.33-1.64 6.33 1.63-2 3.27-15 6.87-20.33 9.16-5.33 2.29-10.67 5.89-12.33 3.28-1.66-2.61-2-12.76-2-12.76l9-3.31Z" stroke-linejoin="round" stroke-linecap="round" stroke="#2e353a" fill="transparent" data-name="Path 1683"/><path d="M206.399 235.83h-6.33l-6.67 7.67s-2 4.67 0 4.67 6.67 1 9.67 0 11.33-4.34 11.33-4.34a10.409 10.409 0 0 0-8-8" fill="#fff" fill-rule="evenodd" data-name="Path 1684"/><path d="M205.899 235.33h-6.33l-6.67 7.67s-2 4.67 0 4.67 6.67 1 9.67 0 11.33-4.34 11.33-4.34a10.409 10.409 0 0 0-8-8Z" stroke-linejoin="round" stroke-linecap="round" stroke="#2e353a" fill="transparent" data-name="Path 1685"/><path d="m209.73 237.17 9.34 3.66 1.33 4-6-1-4.67-6.66Z" fill="#fff" fill-rule="evenodd" data-name="Path 1686"/><path d="m209.23 236.67 9.34 3.66 1.33 4-6-1-4.67-6.66Z" stroke-linejoin="round" stroke-linecap="round" stroke="#2e353a" fill="transparent" data-name="Path 1687"/><path d="M192.529 245s8.81-7.71 11.09-8.67" stroke-linejoin="round" stroke-linecap="round" stroke="#2e353a" fill="transparent" data-name="Path 1688"/><path d="M194.139 247.18s11.7-9.87 14.12-9.87" stroke-linejoin="round" stroke-linecap="round" stroke="#2e353a" fill="transparent" data-name="Path 1689"/><path d="M198.579 248.19s8.47-7.86 12.3-8.26" stroke-linejoin="round" stroke-linecap="round" stroke="#2e353a" fill="transparent" data-name="Path 1690"/><path d="M135.509 257.08h507.55v23.37h-507.55v-23.37z" fill="#fff" fill-rule="evenodd" data-name="Rectangle 506"/><path d="M135.009 256.58h507.55v23.37h0-507.55 0v-23.37h0z" stroke-linejoin="round" stroke-linecap="round" stroke="#2e353a" fill="transparent" data-name="Rectangle 507"/><path d="M139.93 412.69h-6.84l-4.93-155.61h16.7l-4.93 155.61Z" fill="#fff" fill-rule="evenodd" data-name="Path 1691"/><path d="M139.43 412.19h-6.84l-4.93-155.61h16.7l-4.93 155.61Z" stroke-linejoin="round" stroke-linecap="round" stroke="#2e353a" fill="transparent" data-name="Path 1692"/><path d="M644.14 412.69h-6.84l-4.93-155.61h16.7l-4.93 155.61Z" fill="#fff" fill-rule="evenodd" data-name="Path 1693"/><path d="M643.64 412.19h-6.84l-4.93-155.61h16.7l-4.93 155.61Z" stroke-linejoin="round" stroke-linecap="round" stroke="#2e353a" fill="transparent" data-name="Path 1694"/><path d="M648.71 264.68H128.42v-5.5h520.65l-.36 5.5Z" fill="#2e353a" fill-rule="evenodd" data-name="Path 1695"/><path d="M648.21 264.18H127.92v-5.5h520.65l-.36 5.5Z" stroke-linejoin="round" stroke-linecap="round" stroke="#2e353a" fill="transparent" data-name="Path 1696"/><path d="M120.569 254.5h533.5v5.5h-533.5v-5.5z" fill="#fff" fill-rule="evenodd" data-name="Rectangle 508"/><path d="M120.069 254h533.5v5.5h0-533.5 0V254h0z" stroke-linejoin="round" stroke-linecap="round" stroke="#2e353a" fill="transparent" data-name="Rectangle 509"/><path d="M432.559 235.35s2.41-1 3.78-.17c1.37.83 1.72 10.47 0 13.39a5.77 5.77 0 0 1-4.12 3.09l-.34-4.64s1.54.86 2.4-2.4c.86-3.26.69-6 .17-6.18a3.706 3.706 0 0 0-1.71.34l-.18-3.43Z" fill="#3e4950" fill-rule="evenodd" data-name="Path 1697"/><path d="M432.059 234.85s2.41-1 3.78-.17c1.37.83 1.72 10.47 0 13.39a5.77 5.77 0 0 1-4.12 3.09l-.34-4.64s1.54.86 2.4-2.4c.86-3.26.69-6 .17-6.18a3.706 3.706 0 0 0-1.71.34l-.18-3.43Z" stroke-linejoin="round" stroke-linecap="round" stroke="#2e353a" fill="transparent" data-name="Path 1698"/><path d="M413.559 230.67h19.38v24.45h-19.38v-24.45z" fill="#3e4950" fill-rule="evenodd" data-name="Rectangle 510"/><path d="M413.059 230.17h19.38v24.45h0-19.38 0v-24.45h0z" stroke-linejoin="round" stroke-linecap="round" stroke="#2e353a" fill="transparent" data-name="Rectangle 511"/><path d="M150.489 235.35s-2.4-1-3.77-.17-1.72 10.47 0 13.39a5.77 5.77 0 0 0 4.12 3.09l.34-4.64s-1.54.86-2.4-2.4c-.86-3.26-.69-6-.17-6.18a3.706 3.706 0 0 1 1.71.34l.17-3.43Z" fill="#3e4950" fill-rule="evenodd" data-name="Path 1699"/><path d="M149.989 234.85s-2.4-1-3.77-.17-1.72 10.47 0 13.39a5.77 5.77 0 0 0 4.12 3.09l.34-4.64s-1.54.86-2.4-2.4c-.86-3.26-.69-6-.17-6.18a3.706 3.706 0 0 1 1.71.34l.17-3.43Z" stroke-linejoin="round" stroke-linecap="round" stroke="#2e353a" fill="transparent" data-name="Path 1700"/><path d="M150.119 230.68h19.38v24.45h-19.38v-24.45z" fill="#3e4950" fill-rule="evenodd" data-name="Rectangle 512"/><path d="M149.619 230.18h19.38v24.45h0-19.38 0v-24.45h0z" stroke-linejoin="round" stroke-linecap="round" stroke="#2e353a" fill="transparent" data-name="Rectangle 513"/><path d="M610.489 235.35s-2.4-1-3.77-.17-1.72 10.47 0 13.39a5.77 5.77 0 0 0 4.12 3.09l.34-4.64s-1.54.86-2.4-2.4c-.86-3.26-.69-6-.17-6.18a3.706 3.706 0 0 1 1.71.34l.17-3.43Z" fill="#3e4950" fill-rule="evenodd" data-name="Path 1701"/><path d="M609.989 234.85s-2.4-1-3.77-.17-1.72 10.47 0 13.39a5.77 5.77 0 0 0 4.12 3.09l.34-4.64s-1.54.86-2.4-2.4c-.86-3.26-.69-6-.17-6.18a3.706 3.706 0 0 1 1.71.34l.17-3.43Z" stroke-linejoin="round" stroke-linecap="round" stroke="#2e353a" fill="transparent" data-name="Path 1702"/><path d="M610.119 230.68h19.38v24.45h-19.38v-24.45z" fill="#3e4950" fill-rule="evenodd" data-name="Rectangle 514"/><path d="M609.619 230.18h19.38v24.45h0-19.38 0v-24.45h0z" stroke-linejoin="round" stroke-linecap="round" stroke="#2e353a" fill="transparent" data-name="Rectangle 515"/><path d="M450.529 209.8h79.1v45.03h-79.1V209.8z" fill="#2e353a" fill-rule="evenodd" data-name="Rectangle 516"/><path d="M450.029 209.3h79.1v45.03h0-79.1 0V209.3h0z" stroke-linejoin="round" stroke-linecap="round" stroke="#2e353a" fill="transparent" data-name="Rectangle 517"/><path d="M299.119 29.16h-77.65c-5.335-.011-9.669 4.305-9.68 9.64v37.03a9.66 9.66 0 0 0 9.65 9.67h9.49l-4.51 18.53 16.37-18.53h56.31a9.67 9.67 0 0 0 9.67-9.67v-37a9.67 9.67 0 0 0-9.65-9.67" fill="#2e353a" fill-rule="evenodd" data-name="Path 1703"/><path d="M275.29 44.62h18.54" stroke-linejoin="round" stroke-linecap="round" stroke="#fff" fill="transparent" data-name="Line 186"/><path d="M245.09 44.62h25.79" stroke-linejoin="round" stroke-linecap="round" stroke="#fff" fill="transparent" data-name="Line 187"/><path d="M225.57 44.62h14.72" stroke-linejoin="round" stroke-linecap="round" stroke="#fff" fill="transparent" data-name="Line 188"/><path d="M281.94 52.75h11.91" stroke-linejoin="round" stroke-linecap="round" stroke="#fff" fill="transparent" data-name="Line 189"/><path d="M259.09 52.75h20.27" stroke-linejoin="round" stroke-linecap="round" stroke="#fff" fill="transparent" data-name="Line 190"/><path d="M225.57 52.75h31.72" stroke-linejoin="round" stroke-linecap="round" stroke="#fff" fill="transparent" data-name="Line 191"/><path d="M271.62 60.88h22.23" stroke-linejoin="round" stroke-linecap="round" stroke="#fff" fill="transparent" data-name="Line 192"/><path d="M242.51 60.88h25.43" stroke-linejoin="round" stroke-linecap="round" stroke="#fff" fill="transparent" data-name="Line 193"/><path d="M225.57 60.88h14" stroke-linejoin="round" stroke-linecap="round" stroke="#fff" fill="transparent" data-name="Line 194"/><path d="M287.47 69h6.38" stroke-linejoin="round" stroke-linecap="round" stroke="#fff" fill="transparent" data-name="Line 195"/><path d="M266.83 69h16.95" stroke-linejoin="round" stroke-linecap="round" stroke="#fff" fill="transparent" data-name="Line 196"/><path d="M257.62 69h6.67" stroke-linejoin="round" stroke-linecap="round" stroke="#fff" fill="transparent" data-name="Line 197"/><path d="M229.61 69h23.22" stroke-linejoin="round" stroke-linecap="round" stroke="#fff" fill="transparent" data-name="Line 198"/><path d="M225.57 69h2.2" stroke-linejoin="round" stroke-linecap="round" stroke="#fff" fill="transparent" data-name="Line 199"/><path d="M406.459 37.5h-72.67a9.67 9.67 0 0 0-9.67 9.67v34.12a9.67 9.67 0 0 0 9.67 9.67h51.46v15.27l9.16-15.27h12.06a9.67 9.67 0 0 0 9.67-9.67V47.13c-.022-5.329-4.351-9.636-9.68-9.63" fill="#fff" fill-rule="evenodd" data-name="Path 1704"/><path d="M405.959 37h-72.67a9.67 9.67 0 0 0-9.67 9.67v34.12a9.67 9.67 0 0 0 9.67 9.67h51.46v15.27l9.16-15.27h12.06a9.67 9.67 0 0 0 9.67-9.67V46.63c-.022-5.329-4.351-9.636-9.68-9.63Z" stroke-linejoin="round" stroke-linecap="round" stroke="#2e353a" fill="transparent" data-name="Path 1705"/><path d="M385.86 52h18.54" stroke-linejoin="round" stroke-linecap="round" stroke="#2e353a" fill="transparent" data-name="Line 200"/><path d="M355.64 52h25.79" stroke-linejoin="round" stroke-linecap="round" stroke="#2e353a" fill="transparent" data-name="Line 201"/><path d="M336.12 52h14.73" stroke-linejoin="round" stroke-linecap="round" stroke="#2e353a" fill="transparent" data-name="Line 202"/><path d="M392.49 60.12h11.91" stroke-linejoin="round" stroke-linecap="round" stroke="#2e353a" fill="transparent" data-name="Line 203"/><path d="M369.64 60.12h20.27" stroke-linejoin="round" stroke-linecap="round" stroke="#2e353a" fill="transparent" data-name="Line 204"/><path d="M336.12 60.12h31.68" stroke-linejoin="round" stroke-linecap="round" stroke="#2e353a" fill="transparent" data-name="Line 205"/><path d="M382.17 68.25h22.23" stroke-linejoin="round" stroke-linecap="round" stroke="#2e353a" fill="transparent" data-name="Line 206"/><path d="M353.06 68.25h25.43" stroke-linejoin="round" stroke-linecap="round" stroke="#2e353a" fill="transparent" data-name="Line 207"/><path d="M336.12 68.25h14" stroke-linejoin="round" stroke-linecap="round" stroke="#2e353a" fill="transparent" data-name="Line 208"/><path d="M398.02 76.38h6.38" stroke-linejoin="round" stroke-linecap="round" stroke="#2e353a" fill="transparent" data-name="Line 209"/><path d="M377.38 76.38h17" stroke-linejoin="round" stroke-linecap="round" stroke="#2e353a" fill="transparent" data-name="Line 210"/><path d="M368.17 76.38h6.63" stroke-linejoin="round" stroke-linecap="round" stroke="#2e353a" fill="transparent" data-name="Line 211"/><path d="M340.16 76.38h23.22" stroke-linejoin="round" stroke-linecap="round" stroke="#2e353a" fill="transparent" data-name="Line 212"/><path d="M336.12 76.38h2.17" stroke-linejoin="round" stroke-linecap="round" stroke="#2e353a" fill="transparent" data-name="Line 213"/><path d="M506.729 17.95h-72.69a9.67 9.67 0 0 0-9.67 9.67v34.12a9.67 9.67 0 0 0 9.67 9.67h53.24l12.32 20.69-2-20.69h9.11a9.67 9.67 0 0 0 9.67-9.67V27.62a9.67 9.67 0 0 0-9.65-9.67" fill="#3e4950" fill-rule="evenodd" data-name="Path 1706"/><path d="M506.229 17.45h-72.69a9.67 9.67 0 0 0-9.67 9.67v34.12a9.67 9.67 0 0 0 9.67 9.67h53.24l12.32 20.69-2-20.69h9.11a9.67 9.67 0 0 0 9.67-9.67V27.12a9.67 9.67 0 0 0-9.65-9.67Z" stroke-linejoin="round" stroke-linecap="round" stroke="#2e353a" fill="transparent" data-name="Path 1707"/><path d="M485.35 31.35h18.55" stroke-linejoin="round" stroke-linecap="round" stroke="#2e353a" fill="transparent" data-name="Line 214"/><path d="M455.13 31.35h25.8" stroke-linejoin="round" stroke-linecap="round" stroke="#2e353a" fill="transparent" data-name="Line 215"/><path d="M435.61 31.35h14.73" stroke-linejoin="round" stroke-linecap="round" stroke="#2e353a" fill="transparent" data-name="Line 216"/><path d="M491.98 39.48h11.92" stroke-linejoin="round" stroke-linecap="round" stroke="#2e353a" fill="transparent" data-name="Line 217"/><path d="M469.14 39.48h20.26" stroke-linejoin="round" stroke-linecap="round" stroke="#2e353a" fill="transparent" data-name="Line 218"/><path d="M435.61 39.48h31.68" stroke-linejoin="round" stroke-linecap="round" stroke="#2e353a" fill="transparent" data-name="Line 219"/><path d="M481.67 47.61h22.23" stroke-linejoin="round" stroke-linecap="round" stroke="#2e353a" fill="transparent" data-name="Line 220"/><path d="M452.55 47.61h25.43" stroke-linejoin="round" stroke-linecap="round" stroke="#2e353a" fill="transparent" data-name="Line 221"/><path d="M435.61 47.61h14" stroke-linejoin="round" stroke-linecap="round" stroke="#2e353a" fill="transparent" data-name="Line 222"/><path d="M497.51 55.74h6.39" stroke-linejoin="round" stroke-linecap="round" stroke="#2e353a" fill="transparent" data-name="Line 223"/><path d="M476.88 55.74h16.95" stroke-linejoin="round" stroke-linecap="round" stroke="#2e353a" fill="transparent" data-name="Line 224"/><path d="M467.66 55.74h6.63" stroke-linejoin="round" stroke-linecap="round" stroke="#2e353a" fill="transparent" data-name="Line 225"/><path d="M439.66 55.74h23.21" stroke-linejoin="round" stroke-linecap="round" stroke="#2e353a" fill="transparent" data-name="Line 226"/><path d="M435.61 55.74h2.2" stroke-linejoin="round" stroke-linecap="round" stroke="#2e353a" fill="transparent" data-name="Line 227"/></g></g></g><defs><clipPath id="c"><path d="M0 0h8.39v1H0V0z" data-name="Rectangle 458" transform="translate(434.489)"/></clipPath><clipPath id="d"><path d="M0 0h66v81H0V0z" data-name="Rectangle 459" transform="translate(396.289)"/></clipPath><clipPath id="e"><path d="M0 0h66v81H0V0z" data-name="Rectangle 461" transform="translate(465.289)"/></clipPath><clipPath id="f"><path d="M0 0h66v81H0V0z" data-name="Rectangle 462" transform="translate(534.289)"/></clipPath><clipPath id="g"><path d="M0 0h66v81H0V0z" data-name="Rectangle 463" transform="translate(603.289)"/></clipPath><clipPath id="h"><path d="M0 0h66v81H0V0z" data-name="Rectangle 465" transform="translate(396.289 85)"/></clipPath><clipPath id="i"><path d="M0 0h66v81H0V0z" data-name="Rectangle 466" transform="translate(465.289 85)"/></clipPath><clipPath id="j"><path d="M0 0h66v81H0V0z" data-name="Rectangle 468" transform="translate(534.289 85)"/></clipPath><clipPath id="k"><path d="M0 0h66v81H0V0z" data-name="Rectangle 469" transform="translate(603.289 85)"/></clipPath><clipPath id="l"><path d="M0 0h66v81H0V0z" data-name="Rectangle 471" transform="translate(396.289 170)"/></clipPath><clipPath id="m"><path d="M0 0h66v81H0V0z" data-name="Rectangle 473" transform="translate(465.289 170)"/></clipPath><clipPath id="n"><path d="M0 0h66v81H0V0z" data-name="Rectangle 475" transform="translate(534.289 170)"/></clipPath><clipPath id="o"><path d="M0 0h66v52.82H0V0z" data-name="Rectangle 476" transform="translate(603.289 198.18)"/></clipPath><clipPath id="p"><path d="M0 0h1v8.23H0V0z" data-name="Rectangle 477" transform="translate(668.289 225.42)"/></clipPath><clipPath id="q"><path d="M0 0h66v51.74H0V0z" data-name="Rectangle 478" transform="translate(603.289 170)"/></clipPath><clipPath id="r"><path d="M0 0h66v81H0V0z" data-name="Rectangle 480" transform="translate(396.289 255)"/></clipPath><clipPath id="s"><path d="M0 0h66v81H0V0z" data-name="Rectangle 482" transform="translate(465.289 255)"/></clipPath><clipPath id="t"><path d="M0 0h66v81H0V0z" data-name="Rectangle 484" transform="translate(534.289 255)"/></clipPath><clipPath id="u"><path d="M0 0h66v81H0V0z" data-name="Rectangle 485" transform="translate(603.289 255)"/></clipPath><clipPath id="v"><path d="M0 0h108v137H0V0z" data-name="Rectangle 486" transform="translate(27.29 2)"/></clipPath><clipPath id="w"><path d="M0 0h80.66v80.66H0V0z" data-name="Rectangle 487" transform="translate(147.459 5.17)"/></clipPath><clipPath id="x"><path d="M0 0h43.151v41.31H0V0z" data-name="Rectangle 488" transform="translate(33.1 194.372)"/></clipPath><clipPath id="y"><path d="M0 0h48.617v50.342H0V0z" data-name="Rectangle 489" transform="translate(61.12 192.966)"/></clipPath><clipPath id="z"><path d="M0 0h56.004v57.041H0V0z" data-name="Rectangle 490" transform="translate(29.282 236.191)"/></clipPath><clipPath id="A"><path d="M0 0h56.014v57.04H0V0z" data-name="Rectangle 491" transform="translate(29.272 306.271)"/></clipPath><clipPath id="b"><path d="M0 0h696.289v418.402H0V0z" data-name="Rectangle 518"/></clipPath><clipPath id="a"><path d="M0 0h696.289v418.402H0V0z" data-name="Rectangle 519"/></clipPath></defs></svg>