<svg xmlns="http://www.w3.org/2000/svg" width="46" height="46" viewBox="0 0 46 46">
  <g id="Group_1192" data-name="Group 1192" transform="translate(-6112 -4129)">
    <circle id="Ellipse_115" data-name="Ellipse 115" cx="23" cy="23" r="23" transform="translate(6112 4129)" fill="#3330e4"/>
    <path id="Icon_awesome-handshake" data-name="Icon awesome-handshake" d="M21.556,4.5H17.3a1.586,1.586,0,0,0-1.071.417L11.351,9.379s-.01.015-.015.02a1.973,1.973,0,0,0-.1,2.777,2.068,2.068,0,0,0,2.782.134s.015,0,.02-.01L18,8.67a.793.793,0,0,1,1.071,1.17l-1.294,1.185,7.22,5.861a3.573,3.573,0,0,1,.392.382v-9.6L22.677,4.966A1.575,1.575,0,0,0,21.556,4.5Zm5.42,3.184v11.1a1.585,1.585,0,0,0,1.587,1.587h3.174V7.684Zm2.38,11.1a.793.793,0,1,1,.793-.793A.8.8,0,0,1,29.356,18.786ZM0,20.368H3.174A1.585,1.585,0,0,0,4.76,18.781V7.684H0ZM2.38,17.2a.793.793,0,1,1-.793.793A.8.8,0,0,1,2.38,17.2ZM24,18.122l-7.4-6.01L15.1,13.475A3.569,3.569,0,0,1,10.28,8.214L14.336,4.5H10.18a1.584,1.584,0,0,0-1.121.466L6.347,7.674v11.1h.907l4.488,4.061a3.173,3.173,0,0,0,4.463-.461l.01-.01.888.769a1.843,1.843,0,0,0,2.593-.268l1.557-1.914.268.218a1.584,1.584,0,0,0,2.231-.233l.471-.58A1.59,1.59,0,0,0,24,18.122Z" transform="translate(6119 4137.5)" fill="#fff"/>
  </g>
</svg>
