<svg xmlns="http://www.w3.org/2000/svg" width="36" height="36" viewBox="1094 4732 36 36"><g data-name="Group 934"><path d="M1112 4732c9.941 0 18 8.059 18 18s-8.059 18-18 18-18-8.059-18-18 8.059-18 18-18Z" fill="#3330e4" fill-rule="evenodd" data-name="Path 1357"/><g data-name="shield-_1_"><path d="M1111.847 4739.079c-.094.047-.334.23-.535.41a9.847 9.847 0 0 1-4.044 2.245c-.877.248-2.198.423-3.173.427-.607.005-.82.099-1.005.45-.09.166-.09.213-.09 3.163-.004 3.241.01 3.506.257 5.067.774 4.865 3.412 8.025 8.222 9.838.714.27.706.27 1.727-.137 1.386-.547 2.715-1.304 3.737-2.13.556-.448 1.441-1.363 1.873-1.936 1.159-1.54 1.89-3.37 2.266-5.678.24-1.48.257-1.791.252-5.024 0-2.984 0-2.993-.094-3.172-.11-.214-.265-.342-.474-.394-.086-.021-.47-.05-.86-.064-2.766-.094-5.045-.97-6.883-2.655-.535-.487-.809-.581-1.176-.41Zm3.985 8.025c.278.295.508.556.517.573.009.021-1.077 1.06-2.407 2.317-2.459 2.313-2.647 2.472-2.95 2.472-.308-.005-.436-.116-1.668-1.48l-1.265-1.406c-.077-.086-.065-.099.487-.586.312-.274.577-.505.594-.513.017-.005.445.449.954 1.013.509.564.949 1.03.975 1.035.03.004.983-.885 2.125-1.976 1.141-1.09 2.086-1.984 2.103-1.984.013-.004.252.24.535.535Z" fill="#fff" fill-rule="evenodd" data-name="Path 2276"/></g></g></svg>