<svg xmlns="http://www.w3.org/2000/svg" width="36" height="36" viewBox="1094 4388 36 36"><g data-name="Group 852"><path d="M1112 4388c9.941 0 18 8.059 18 18s-8.059 18-18 18-18-8.059-18-18 8.059-18 18-18Z" fill="#3330e4" fill-rule="evenodd" data-name="Path 1357"/><g data-name="multiple-users-silhouette"><path d="M1106.352 4398.057c-.33.066-.899.353-1.197.592a2.909 2.909 0 0 0-1.068 2.112c-.031.546.051.938.31 1.472.173.357.244.451.558.765.298.299.416.389.73.542.475.232.812.314 1.315.314.533 0 1.028-.122 1.416-.345.154-.09.165-.11.252-.44.172-.667.612-1.401 1.087-1.806l.22-.188-.024-.353a2.94 2.94 0 0 0-1.067-2.073c-.303-.247-.864-.522-1.217-.596-.342-.071-.978-.071-1.315.004Z" fill="#fff" fill-rule="evenodd" data-name="Path 2202"/><path d="M1116.4 4398.053c-.334.074-.899.357-1.197.596a2.993 2.993 0 0 0-1.064 1.994l-.023.24.168.113c.75.491 1.382 1.508 1.508 2.403.023.188.035.204.188.263.365.137.68.192 1.087.192.522 0 .852-.079 1.335-.314.314-.153.432-.243.73-.542.314-.314.385-.408.557-.765.26-.534.342-.926.31-1.472-.07-1.248-.894-2.288-2.111-2.67-.295-.093-1.146-.117-1.488-.038Z" fill="#fff" fill-rule="evenodd" data-name="Path 2203"/><path d="M1111.702 4401.055a3.002 3.002 0 0 0-1.837 1.119c-.247.33-.373.57-.499.962-.074.25-.09.376-.09.844 0 .604.055.836.302 1.326.84 1.664 3.07 2.124 4.49.923 1.088-.919 1.374-2.395.711-3.663-.122-.235-.255-.404-.518-.667-.396-.396-.77-.62-1.276-.765-.337-.094-.97-.134-1.283-.079Z" fill="#fff" fill-rule="evenodd" data-name="Path 2204"/><path d="M1105.013 4404.156a3.794 3.794 0 0 0-2.94 2.971c-.074.373-.078.515-.07 2.116l.012 1.715.588.17c.66.191 1.645.411 2.238.505.392.063 1.377.177 1.534.177.083 0 .087-.016.106-.816.016-.71.032-.864.122-1.205.196-.75.675-1.57 1.229-2.108.431-.42 1.17-.871 1.652-1.017.09-.027.165-.059.165-.074a.7.7 0 0 0-.122-.142c-.467-.443-.883-1.358-.961-2.12l-.028-.25-1.593.004c-1.382 0-1.637.011-1.932.074Z" fill="#fff" fill-rule="evenodd" data-name="Path 2205"/><path d="M1115.835 4404.164a3.322 3.322 0 0 0-.043.306c-.067.593-.373 1.295-.79 1.81-.14.176-.25.321-.243.33.008.003.114.046.236.09a4.5 4.5 0 0 1 2.445 2.206c.342.683.444 1.15.48 2.186.023.742.023.757.105.738.047-.008.26-.028.475-.04 1.154-.074 2.477-.376 3.29-.753l.301-.141v-1.688c0-1.543-.007-1.715-.082-2.08a3.77 3.77 0 0 0-2.956-2.976c-.31-.063-.541-.074-1.778-.074h-1.424l-.016.086Z" fill="#fff" fill-rule="evenodd" data-name="Path 2206"/><path d="M1110.54 4407.143c-.95.098-1.884.6-2.496 1.339-.287.341-.64 1.024-.758 1.464-.082.298-.086.404-.102 2.182l-.012 1.868.483.142c1.028.302 1.896.486 2.857.616.782.106 2.5.15 3.196.082 1.299-.13 2.417-.392 3.195-.753l.33-.153-.02-1.774c-.02-1.979-.032-2.077-.29-2.701-.55-1.307-1.728-2.17-3.149-2.316-.467-.047-2.783-.043-3.234.004Z" fill="#fff" fill-rule="evenodd" data-name="Path 2207"/></g></g></svg>