<svg xmlns="http://www.w3.org/2000/svg" width="36" height="36" viewBox="1094 4526 36 36"><g data-name="Group 931"><g data-name="Group 926"><path d="M1112 4526c9.941 0 18 8.059 18 18s-8.059 18-18 18-18-8.059-18-18 8.059-18 18-18Z" fill="#3330e4" fill-rule="evenodd" data-name="Path 1357"/></g><g data-name="folder"><path d="M1102.91 4536.052a1.235 1.235 0 0 0-.803.68l-.091.199-.008 5.623-.008 5.624.08-.147c.043-.084.647-1.344 1.343-2.802.695-1.463 1.335-2.798 1.419-2.973.286-.584.759-.934 1.375-1.013.17-.024 2.853-.04 6.6-.04h6.312l-.012-.966c-.012-.918-.016-.97-.103-1.14a1.441 1.441 0 0 0-.62-.605l-.203-.091-3.875-.012-3.875-.012-.72-1.001c-.512-.712-.77-1.038-.897-1.129-.342-.246-.374-.25-3.192-.246-1.875 0-2.59.016-2.722.051Z" fill="#fff" fill-rule="evenodd" data-name="Path 2200"/><path d="M1106.924 4542.395c-.5.076-.926.334-1.184.715-.068.1-.93 1.872-1.916 3.943-1.713 3.593-1.792 3.771-1.752 3.895.087.258.33.52.616.667l.274.14h15.074l.302-.152c.537-.262.485-.178 2.297-3.803 1.03-2.059 1.634-3.318 1.665-3.45.064-.302.056-.52-.035-.81-.155-.505-.553-.902-1.097-1.093-.183-.064-.672-.072-7.11-.076-3.804-.004-7.015.008-7.134.024Z" fill="#fff" fill-rule="evenodd" data-name="Path 2201"/></g></g></svg>