<svg xmlns="http://www.w3.org/2000/svg" width="36" height="36" viewBox="1094 4457 36 36"><g data-name="Group 932"><path d="M1112 4457c9.941 0 18 8.059 18 18s-8.059 18-18 18-18-8.059-18-18 8.059-18 18-18Z" fill="#3330e4" fill-rule="evenodd" data-name="Path 1357"/><g data-name="Group 1276"><path d="M1105.87 4473.02a.674.674 0 0 1-.636.487h-.455a6.918 6.918 0 0 0 0 2.697h.455a.676.676 0 0 1 .637.486c.104.329.236.647.395.953a.675.675 0 0 1-.106.795l-.323.324a7.04 7.04 0 0 0 1.907 1.907l.323-.324a.676.676 0 0 1 .796-.106c.305.16.624.291.952.396a.675.675 0 0 1 .487.637v.455a6.92 6.92 0 0 0 2.696 0v-.455a.676.676 0 0 1 .487-.637c.328-.105.647-.237.952-.396a.675.675 0 0 1 .796.106l.324.324a7.04 7.04 0 0 0 1.906-1.907l-.323-.324a.676.676 0 0 1-.106-.795c.159-.306.291-.624.396-.953a.675.675 0 0 1 .636-.486h.455a6.918 6.918 0 0 0 0-2.697h-.455a.674.674 0 0 1-.636-.487 6.026 6.026 0 0 0-.396-.952.675.675 0 0 1 .106-.796l.323-.323a7.04 7.04 0 0 0-1.906-1.907l-.324.324a.676.676 0 0 1-.796.106 6.023 6.023 0 0 0-.952-.396.675.675 0 0 1-.487-.637v-.455a6.92 6.92 0 0 0-2.696 0v.455a.677.677 0 0 1-.487.637 6.024 6.024 0 0 0-.952.396.676.676 0 0 1-.796-.106l-.323-.324a7.04 7.04 0 0 0-1.907 1.907l.323.323a.677.677 0 0 1 .106.796 6.028 6.028 0 0 0-.395.952Zm5.78-2.717a4.552 4.552 0 0 1 1.751 8.755v-3.007l.25-.25a1.06 1.06 0 1 0-.495-.495l-.353.352a.35.35 0 0 0-.102.248v3.375a4.55 4.55 0 0 1-.7.11v-5.3a1.05 1.05 0 1 0-.701 0v5.3a4.55 4.55 0 0 1-.7-.11v-3.375a.35.35 0 0 0-.103-.248l-.353-.352a1.06 1.06 0 1 0-.495.495l.25.25v3.007a4.552 4.552 0 0 1 1.751-8.755Z" fill="#fff" fill-rule="evenodd" data-name="Path 2277"/><path d="m1122.397 4473.766-1.008.033a9.771 9.771 0 0 0-8.363-8.644 1.397 1.397 0 0 0-2.752-.002 9.808 9.808 0 0 0-8.186 7.524l.683.155a9.104 9.104 0 0 1 7.56-6.98 1.392 1.392 0 0 0 2.639.002 9.072 9.072 0 0 1 7.718 7.969l-1.046.034 1.469 2.71 1.286-2.801Z" fill="#fff" fill-rule="evenodd" data-name="Path 2278"/><path d="M1110.274 4484.557a1.397 1.397 0 0 0 2.752.001 9.764 9.764 0 0 0 8.028-6.916l-.672-.199a9.064 9.064 0 0 1-7.412 6.416 1.392 1.392 0 0 0-2.639-.001 9.087 9.087 0 0 1-7.615-7.282l.982-.075-1.557-2.594-1.141 2.801 1.014-.078a9.791 9.791 0 0 0 8.26 7.927Z" fill="#fff" fill-rule="evenodd" data-name="Path 2279"/></g></g></svg>