<svg xmlns="http://www.w3.org/2000/svg" width="36" height="36" viewBox="1094 4595 36 36"><g data-name="Group 933"><path d="M1112 4595c9.941 0 18 8.059 18 18s-8.059 18-18 18-18-8.059-18-18 8.059-18 18-18Z" fill="#3330e4" fill-rule="evenodd" data-name="Path 1357"/><g data-name="Group 1277"><path d="m1106.922 4608.508-.183-4.662a.327.327 0 0 0-.207-.3c-.115-.045-.253-.045-.344.047l-.506.39-.574-1.745c-.046-.115-.115-.184-.23-.207-.115-.023-.23 0-.298.069l-1.447 1.148a.361.361 0 0 0-.115.39l1.125 3.033c.046.092.115.184.23.206.092.023.207 0 .299-.068l.55-.437 1.058 2.297a.354.354 0 0 0 .298.207h.069c.184-.07.275-.207.275-.368Z" fill="#fff" fill-rule="evenodd" data-name="Path 2280"/><path d="m1120.405 4603.226-1.447-1.149a.366.366 0 0 0-.299-.069c-.115.023-.183.115-.23.207l-.597 1.745-.505-.39a.367.367 0 0 0-.344-.046c-.115.046-.184.16-.207.299l-.184 4.662c0 .161.092.299.253.345h.069c.138 0 .252-.07.298-.207l1.057-2.297.551.437a.366.366 0 0 0 .299.068c.115-.022.184-.114.23-.206l1.125-3.032c.092-.115.046-.275-.069-.367Z" fill="#fff" fill-rule="evenodd" data-name="Path 2281"/><path d="M1114.892 4605.385a3.124 3.124 0 1 1-6.247 0 3.124 3.124 0 0 1 6.247 0" fill="#fff" fill-rule="evenodd" data-name="Path 2282"/><path d="m1113.813 4609.266-1.401 3.492-.299-2.527h.207a.23.23 0 0 0 .23-.23v-.666a.23.23 0 0 0-.23-.23h-1.103a.23.23 0 0 0-.23.23v.666c0 .115.092.23.23.23h.207l-.299 2.527-1.4-3.492c-1.402.345-2.504 1.493-2.688 2.986l-.344 2.871c-.046.368.206.735.55.804.53.115 1.058.207 1.609.276l.39 6.684c.023.528.46.941.988.941h3.054a.986.986 0 0 0 .988-.941l.39-6.707a18.1 18.1 0 0 0 1.608-.276c.368-.069.597-.436.551-.804l-.344-2.87c-.16-1.47-1.263-2.642-2.664-2.964Z" fill="#fff" fill-rule="evenodd" data-name="Path 2283"/></g></g></svg>