<svg xmlns="http://www.w3.org/2000/svg" width="854.833" height="593.084" viewBox="0 0 854.833 593.084">
  <g id="Business_merger-bro" data-name="Business merger-bro" transform="translate(-45.571 -14.202)">
    <g id="freepik--background-simple--inject-123" transform="translate(45.571 59.351)">
      <path id="Path_2284" data-name="Path 2284" d="M658.131,108.163c-137.164,56.485-262.823-81.15-400.382-55.286-68.69,12.907-127.777,60.592-165.719,117.868C51.373,232.088,30.916,312.1,57.6,383.077a183.777,183.777,0,0,0,32.139,54.088c77.8,91.519,243.094,141.627,356.332,95.077l1.569-.651c125.545-53.093,217.217,12.371,325.736-18.429,122.433-34.74,151.664-205.216,107.805-308.634-12.205-28.759-33.312-54.253-58.041-73.116C775.859,95.384,713.482,85.373,658.131,108.163Z" transform="translate(-45.571 -49.603)" fill="#eceff1"/>
      <path id="Path_2285" data-name="Path 2285" d="M658.131,108.163c-137.164,56.485-262.823-81.15-400.382-55.286-68.69,12.907-127.777,60.592-165.719,117.868C51.373,232.088,30.916,312.1,57.6,383.077a183.777,183.777,0,0,0,32.139,54.088c77.8,91.519,243.094,141.627,356.332,95.077l1.569-.651c125.545-53.093,217.217,12.371,325.736-18.429,122.433-34.74,151.664-205.216,107.805-308.634-12.205-28.759-33.312-54.253-58.041-73.116C775.859,95.384,713.482,85.373,658.131,108.163Z" transform="translate(-45.571 -49.603)" fill="#fff" opacity="0.7"/>
    </g>
    <g id="freepik--Floor--inject-123" transform="translate(122.218 583.412)">
      <ellipse id="Ellipse_130" data-name="Ellipse 130" cx="344.28" cy="11.937" rx="344.28" ry="11.937" fill="#eceff1"/>
    </g>
    <g id="freepik--Puzzle--inject-123" transform="translate(89.088 14.202)">
      <path id="Path_2286" data-name="Path 2286" d="M550.191,555.157a59.457,59.457,0,0,1-16.375-2.359c-18.123-5.216-32.572-18.2-37.7-33.9-7.831-23.951,12.881-44,15.3-46.193,5.484-5.1,11.3-12.179,8.162-17.536-45.2-10.942-66.854-10.445-121.872-6.058l-1.008.076.357-.944c4.438-11.478,11.555-29.5,20.227-49.56,14.22-32.9,15.84-65.336,4.438-88.994-1.836-3.826-3.724-5.879-5.739-6.262-3.227-.6-6.976,2.895-11.746,7.32-8.927,8.264-21.056,19.589-40.607,14.348-17.153-4.6-25.775-18.212-30-28.81-7.652-19.232-6.721-44.637,2.143-59.01,15.725-25.507,40.951-19.054,59.355-9.093,12.052,6.53,18.238,6.708,21.311,5.714a4.553,4.553,0,0,0,2.551-1.76c0-1.888-.434-20.546-7.091-67.122A429.786,429.786,0,0,0,393.54,89.209l-.331-.969,1.02.14c3.992.523,19.334,1.658,28.5,2.334l5.56.421c125.226,9.871,266.42,4.834,267.823,4.77h.918l-.293.867c-.217.65-21.413,65.374-14.7,140.862,2.946,4.349,7.652,5.1,13.837,2.1,1.173-.548,2.372-1.135,3.6-1.734,16.222-7.894,38.439-18.722,61.854,7.206,11.312,12.511,15.3,30,10.866,47.979-4.489,18.327-16.9,33.287-32.381,39.038h0c-22.191,8.226-41.9-8.813-46.142-12.843C708.5,402.549,732,502.422,732.247,503.429l.217.957-.956-.179c-.982-.179-98.317-17.855-142.52-29.448a20.051,20.051,0,0,0,1.275,3.954c.51,1.2,1.046,2.423,1.594,3.673,7.244,16.579,17.179,39.153-9.642,61.51A49.484,49.484,0,0,1,550.191,555.157ZM451.913,444.916c22.37,0,41.041,2.487,68.205,9.08h.242l.14.217c3.137,4.923.357,11.478-8.251,19.372-2.321,2.155-22.51,21.681-14.922,44.867,5,15.3,19.13,27.969,36.832,33.07,17.383,4.987,34.6,1.824,47.188-8.711,26.081-21.681,16.771-42.966,9.284-60.018-.548-1.275-1.084-2.487-1.594-3.686a20.486,20.486,0,0,1-1.5-5.229l-.127-.957.931.255c41.372,10.942,132.075,27.611,142.418,29.5-2.461-10.522-24.665-105.854-38.707-185.129l-.357-1.99,1.428,1.428c.306.293.536.536.791.765,2.245,2.257,22.523,21.681,45.428,13.174h0c15.087-5.612,27.19-20.227,31.59-38.146,4.3-17.562.446-34.626-10.573-46.818-22.778-25.214-43.6-15.062-60.349-6.912l-3.558,1.8c-8.685,4.107-13.238.8-15.534-2.7l-.089-.128v-.166c-6.377-71.062,11.963-132.636,14.462-140.658-12.333.421-147.022,4.655-267.07-4.808l-5.56-.421c-8.532-.625-22.408-1.658-27.56-2.232a431.322,431.322,0,0,1,18.084,75.105c7.027,49.114,7.1,67.275,7.1,67.453v.255a5.394,5.394,0,0,1-3.3,2.551c-3.29,1.122-9.858,1.033-22.408-5.765-17.919-9.705-42.456-16.069-57.646,8.634-8.685,14.105-9.565,38.987-2.053,57.875,4.119,10.33,12.5,23.581,29.142,28.058,18.862,5.1,30.736-5.981,39.408-14.029,5.025-4.681,8.991-8.366,12.855-7.652,2.474.472,4.591,2.678,6.657,6.963,11.555,23.989,9.935,56.8-4.425,90.052-8.443,19.5-15.393,36.985-19.844,48.565C420.425,446.026,436.991,444.916,451.913,444.916Z" transform="translate(-11.195 6.184)" fill="#263238"/>
      <path id="Path_2287" data-name="Path 2287" d="M257.434,504.647c-63.971,0-113.506-11.822-114.271-12.027l-.714-.166.268-.676c.255-.65,25.634-65.387,31-160.694-3.3-1.977-7.116,1.9-11.478,6.377l-1.645,1.7c-2.3,2.3-23.148,22.217-46.754,13.455-15.5-5.752-27.9-20.712-32.394-39.026C77.049,295.6,81,278.107,92.315,265.6c23.4-25.915,45.619-15.1,61.842-7.206,1.275.6,2.436,1.186,3.609,1.734,4.068,1.939,7.5,2.308,10.2,1.1,3.227-1.428,4.872-4.936,5.688-7.652-4.566-98.482-20.087-126.986-20.24-127.267l-.459-.791.905-.153c.548-.089,55.337-8.825,122.561-14.858,2.755-.944,6.275-2.78,7.588-6.109,1.071-2.742.536-6.147-1.607-10.126q-.918-1.722-1.913-3.52c-8.723-15.865-20.584-37.521,4.107-62.2,11.937-11.912,29.205-16.733,47.379-13.225,18.48,3.571,34.065,15.2,40.582,30.4,9.935,23.16-8.927,44.969-11.108,47.379-.523.587-1.059,1.161-1.594,1.747-3.584,3.826-6.976,7.576-6.287,10.547,43.846-1.632,80.564-.51,109.157,3.341h.383l.128.37a430.844,430.844,0,0,1,18.416,76.062c7.027,49.114,7.1,67.275,7.1,67.453v.255a5.394,5.394,0,0,1-3.3,2.551c-3.29,1.122-9.858,1.033-22.408-5.765-17.855-9.705-42.456-16.069-57.646,8.634-8.685,14.105-9.565,38.987-2.053,57.875,4.119,10.33,12.5,23.581,29.142,28.058,18.862,5.1,30.736-5.981,39.408-14.029,5.025-4.681,8.991-8.366,12.855-7.652,2.474.472,4.591,2.678,6.657,6.963,11.555,23.989,9.935,56.8-4.425,90.052h0c-8.672,20.048-15.776,37.98-20.2,49.509l-.14.37h-.408A356.369,356.369,0,0,0,382,486.358C340.255,500.31,296.179,504.647,257.434,504.647Zm-113.264-13.1c10.356,2.4,131.425,28.95,237.38-6.377a358.132,358.132,0,0,1,84.173-16.949c4.438-11.542,11.478-29.333,20.074-49.177,14.22-32.9,15.84-65.336,4.438-88.994-1.836-3.826-3.724-5.879-5.739-6.262-3.227-.6-6.976,2.9-11.746,7.32-8.927,8.264-21.056,19.589-40.607,14.348-17.153-4.6-25.775-18.212-30-28.81-7.652-19.232-6.721-44.637,2.143-59.01,15.725-25.507,40.951-19.054,59.355-9.093,12.052,6.53,18.237,6.708,21.311,5.714a4.552,4.552,0,0,0,2.551-1.76c0-1.888-.434-20.546-7.091-67.121a429.794,429.794,0,0,0-18.225-75.449c-28.568-3.826-65.247-4.91-109.042-3.265h-.459l-.153-.421c-1.441-3.826,2.372-7.92,6.377-12.294.523-.574,1.059-1.148,1.581-1.734C362.625,89.866,381,68.631,371.374,46.2c-6.377-14.807-21.541-26.17-39.65-29.665-17.753-3.431-34.6,1.275-46.231,12.881-24.04,24.066-12.83,44.344-3.9,60.656.65,1.2,1.275,2.372,1.913,3.52,2.321,4.336,2.882,8.1,1.671,11.21s-4.107,5.395-8.443,6.874h-.14c-62.607,5.624-114.45,13.582-121.681,14.717,2.551,5.254,15.84,37.125,20,127.139v.281c-1.275,4.3-3.482,7.269-6.377,8.583s-6.823.982-11.249-1.11l-3.622-1.747c-16.733-8.149-37.572-18.3-60.337,6.912-11.019,12.205-14.871,29.333-10.56,46.831C87.15,331.2,99.253,345.8,114.34,351.414c22.867,8.494,43.183-10.917,45.428-13.162l1.607-1.633c4.719-4.808,9.17-9.348,13.442-6.377l.281.2v.344c-5.127,90.435-28.185,153.526-30.927,160.757Z" transform="translate(-79.693 -14.202)" fill="#263238"/>
    </g>
    <g id="freepik--Plants--inject-123" transform="translate(94.494 504.094)">
      <path id="Path_2288" data-name="Path 2288" d="M105.039,477.376a.51.51,0,0,0,.587-.332A62.352,62.352,0,0,0,92.872,417.6a.51.51,0,0,0-.7,0,.485.485,0,0,0,0,.689,61.344,61.344,0,0,1,12.575,58.526.485.485,0,0,0,.332.612Z" transform="translate(-81.702 -393.059)" fill="#263238"/>
      <path id="Path_2289" data-name="Path 2289" d="M98.412,448.593c5.994-.446,8.29,8.927,8.06,9.093-.089,1.02-.2,2.053-.357,3.074-.281-1.352-2.716-3.724-6.887-5.484S92.7,448.8,98.412,448.593Z" transform="translate(-80.878 -384.491)" fill="#263238"/>
      <path id="Path_2290" data-name="Path 2290" d="M113.33,448.211c5.892-.217,3.239,7.461-1.352,8.66s-7.448,2.857-8.188,4c.217-1.008.408-2.028.561-3.061C104.568,457.929,107.769,448.632,113.33,448.211Z" transform="translate(-78.463 -384.593)" fill="#263238"/>
      <path id="Path_2291" data-name="Path 2291" d="M97.543,441.684c5.828-1.428,9.667,7.359,9.476,7.512.077,1.008.14,2.028.166,3.048-.51-1.275-3.3-3.163-7.652-4.17S91.944,442.857,97.543,441.684Z" transform="translate(-81.003 -386.432)" fill="#263238"/>
      <path id="Path_2292" data-name="Path 2292" d="M111.8,439.026c5.765-1.2,4.438,6.734.115,8.66s-6.849,4.03-7.384,5.28v-3.074C104.785,449.982,106.4,440.378,111.8,439.026Z" transform="translate(-78.26 -387.154)" fill="#263238"/>
      <path id="Path_2293" data-name="Path 2293" d="M95.564,435.095c5.509-2.372,10.751,5.624,10.585,5.777.242.982.472,1.964.676,2.959-.727-1.148-3.826-2.551-8.3-2.78S90.207,437.148,95.564,435.095Z" transform="translate(-81.448 -388.324)" fill="#263238"/>
      <path id="Path_2294" data-name="Path 2294" d="M108.82,430.208c5.484-2.143,5.484,5.879,1.556,8.494s-6.083,5.1-6.377,6.377c-.128-1.008-.281-2-.459-3.01C103.719,442.158,103.706,432.452,108.82,430.208Z" transform="translate(-78.532 -389.648)" fill="#263238"/>
      <path id="Path_2295" data-name="Path 2295" d="M92.468,428.887c5.1-3.265,11.555,3.762,11.478,3.941q.612,1.377,1.148,2.793c-.893-1.008-4.158-1.862-8.634-1.339S87.52,431.82,92.468,428.887Z" transform="translate(-82.178 -390.15)" fill="#263238"/>
      <path id="Path_2296" data-name="Path 2296" d="M104.394,421.947c5.1-3.035,6.377,4.9,2.959,8.124-3.265,3.29-5.1,6.045-5.242,7.384-.306-.969-.625-1.926-.969-2.882C101.384,434.6,99.713,425.02,104.394,421.947Z" transform="translate(-79.22 -392.01)" fill="#263238"/>
      <path id="Path_2297" data-name="Path 2297" d="M88.266,423.309c4.413-4.068,12.065,1.824,11.95,2.015.561.855,1.1,1.709,1.62,2.551-1.059-.842-4.425-1.148-8.762.1S83.943,427.02,88.266,423.309Z" transform="translate(-83.205 -391.842)" fill="#263238"/>
      <path id="Path_2298" data-name="Path 2298" d="M98.711,414.415c4.476-3.826,7.193,3.826,4.336,7.588-2.653,3.826-4.043,6.836-3.915,8.175-.459-.906-.944-1.8-1.441-2.691C97.933,427.475,94.655,418.254,98.711,414.415Z" transform="translate(-80.424 -394.185)" fill="#263238"/>
      <path id="Path_2299" data-name="Path 2299" d="M97.7,423.579c.153,0-2.933-8.2-6.377-11.567s-6.594-1.773-7.091.23,1.849,4.285,4.2,5.752C90.892,419.256,97.753,423.439,97.7,423.579Z" transform="translate(-83.866 -395.097)" fill="#263238"/>
      <path id="Path_2300" data-name="Path 2300" d="M97.691,423.958h0a.344.344,0,0,0,.332-.191h0a.23.23,0,0,0,0-.255c-.306-1.594-3.482-8.749-6.377-11.657a5.4,5.4,0,0,0-5.191-1.926,3.316,3.316,0,0,0-2.436,2.3c-.714,2.7,3.137,5.356,4.323,6.1,2.372,1.275,8.621,5.1,9.157,5.5A.422.422,0,0,0,97.691,423.958Zm-9.348-13.442a5.853,5.853,0,0,1,2.831,1.773c2.691,2.665,5.1,8.315,5.981,10.5-.574-.37-1.479-.931-2.908-1.8-1.836-1.122-4.272-2.551-5.573-3.227-2.245-1.4-4.5-3.558-4.03-5.382a2.717,2.717,0,0,1,1.926-1.849,3.635,3.635,0,0,1,1.773-.013Z" transform="translate(-83.931 -395.157)" fill="#263238"/>
      <path id="Path_2301" data-name="Path 2301" d="M108.331,482a.587.587,0,0,0,.8-.077,75.08,75.08,0,0,0,14.9-71.7.6.6,0,0,0-1.135.357,73.894,73.894,0,0,1-14.654,70.565.574.574,0,0,0,.064.829Z" transform="translate(-77.278 -395.147)" fill="#263238"/>
      <path id="Path_2302" data-name="Path 2302" d="M112.081,446.866c6.81,2.423,4.77,13.927,4.464,13.939-.6,1.1-1.275,2.168-1.888,3.227.344-1.632-1.186-5.433-4.923-9.387S105.7,444.328,112.081,446.866Z" transform="translate(-77.559 -385.122)" fill="#263238"/>
      <path id="Path_2303" data-name="Path 2303" d="M129.729,453.021c6.606,2.614,0,9.782-5.688,8.927-5.561-.714-9.6-.472-10.981.446.727-1.02,1.428-2.053,2.117-3.1C115.343,459.474,123.39,450.763,129.729,453.021Z" transform="translate(-75.911 -383.37)" fill="#263238"/>
      <path id="Path_2304" data-name="Path 2304" d="M114.484,438.766c7.116,1.275,7.078,12.753,6.8,12.868q-.612,1.747-1.275,3.443c0-1.633-2.1-5.1-6.479-8.341S107.737,437.325,114.484,438.766Z" transform="translate(-76.799 -387.251)" fill="#263238"/>
      <path id="Path_2305" data-name="Path 2305" d="M132.664,442.29c6.938,1.479,1.607,9.591-4.094,9.616-5.586.217-9.514,1.109-10.7,2.219q.8-1.671,1.53-3.367C119.6,450.962,126.019,441.155,132.664,442.29Z" transform="translate(-74.586 -386.247)" fill="#263238"/>
      <path id="Path_2306" data-name="Path 2306" d="M115.534,430.422c7.218,0,9.119,11.414,8.851,11.478-.191,1.2-.434,2.385-.689,3.584-.23-1.62-2.946-4.642-7.792-7.1S108.635,430.142,115.534,430.422Z" transform="translate(-76.408 -389.492)" fill="#263238"/>
      <path id="Path_2307" data-name="Path 2307" d="M133.723,431.25c7.091.293,3.188,9.157-2.41,10.126s-9.2,2.653-10.2,3.941c.344-1.173.65-2.359.944-3.545C122.245,441.937,126.938,431.237,133.723,431.25Z" transform="translate(-73.694 -389.262)" fill="#263238"/>
      <path id="Path_2308" data-name="Path 2308" d="M115.166,422.018c7.129-1.148,10.9,9.756,10.662,9.884,0,1.212,0,2.436-.089,3.647-.5-1.556-3.673-4.068-8.927-5.688S108.368,422.937,115.166,422.018Z" transform="translate(-76.397 -391.827)" fill="#263238"/>
      <path id="Path_2309" data-name="Path 2309" d="M132.762,420.122c7.04-.88,4.681,8.532-.689,10.42s-8.609,4.158-9.374,5.573c.14-1.2.255-2.423.344-3.635C123.287,432.621,126.131,421.258,132.762,420.122Z" transform="translate(-73.256 -392.342)" fill="#263238"/>
      <path id="Path_2310" data-name="Path 2310" d="M113.356,413.825c6.836-2.334,12.422,7.882,12.192,8.047.2,1.2.383,2.41.523,3.622-.752-1.454-4.311-3.418-9.693-4.145S106.763,415.853,113.356,413.825Z" transform="translate(-76.755 -394.155)" fill="#263238"/>
      <path id="Path_2311" data-name="Path 2311" d="M129.944,409.172c6.8-2.066,6.083,7.652,1.1,10.471-4.783,2.895-7.78,5.56-8.29,7.1,0-1.275-.166-2.436-.281-3.66C122.738,423.188,123.605,411.416,129.944,409.172Z" transform="translate(-73.32 -395.42)" fill="#263238"/>
      <path id="Path_2312" data-name="Path 2312" d="M123.483,418.923c.166.089.74-10.458-1.39-15.84-1.926-5.356-6.377-5.165-7.907-3.188s0,5.624,1.824,8.379C118.075,410.838,123.61,418.8,123.483,418.923Z" transform="translate(-75.774 -398.246)" fill="#263238"/>
      <path id="Path_2313" data-name="Path 2313" d="M123.362,419.31h0a.434.434,0,0,0,.459,0h0a.306.306,0,0,0,.1-.293c.446-1.913.421-11.338-1.416-15.967-.957-2.627-2.691-4.336-4.783-4.655a4.03,4.03,0,0,0-3.826,1.377c-2.092,2.653.854,7.435,1.811,8.838,2.015,2.551,7.053,9.744,7.423,10.509A.357.357,0,0,0,123.362,419.31Zm-3.826-19.347a6.9,6.9,0,0,1,2.257,3.329c1.683,4.247,1.658,11.669,1.5,14.475-.459-.689-1.186-1.747-2.334-3.405-1.492-2.117-3.469-4.885-4.578-6.262-1.8-2.627-3.227-6.109-1.824-7.882a3.277,3.277,0,0,1,3.074-1.084,4.273,4.273,0,0,1,1.939.829Z" transform="translate(-75.882 -398.327)" fill="#263238"/>
      <path id="Path_2314" data-name="Path 2314" d="M664.21,476.859a.357.357,0,0,1-.421-.23,44.637,44.637,0,0,1,8.519-42.737.344.344,0,0,1,.523.446,44.012,44.012,0,0,0-8.315,42.086.332.332,0,0,1-.217.434Z" transform="translate(75.132 -388.563)" fill="#263238"/>
      <path id="Path_2315" data-name="Path 2315" d="M667.97,456.151c-4.3-.255-5.841,6.517-5.688,6.606.089.727.179,1.467.293,2.206.191-.982,1.913-2.7,4.885-4S672.128,456.241,667.97,456.151Z" transform="translate(75.313 -382.407)" fill="#263238"/>
      <path id="Path_2316" data-name="Path 2316" d="M657.518,456c-4.221-.1-2.232,5.382,1.071,6.185s5.369,1.964,5.918,2.78c-.166-.727-.319-1.454-.446-2.181C663.894,462.9,661.509,456.281,657.518,456Z" transform="translate(73.344 -382.447)" fill="#263238"/>
      <path id="Path_2317" data-name="Path 2317" d="M668.688,451.192c-4.183-.969-6.849,5.382-6.708,5.484,0,.727-.076,1.454-.089,2.181.357-.906,2.347-2.3,5.484-3.061S672.718,451.97,668.688,451.192Z" transform="translate(75.208 -383.799)" fill="#263238"/>
      <path id="Path_2318" data-name="Path 2318" d="M658.23,449.426c-4.145-.791-3.112,4.884,0,6.211s4.948,2.818,5.357,3.7c0-.727-.064-1.454-.064-2.194C663.383,457.206,662.133,450.345,658.23,449.426Z" transform="translate(73.447 -384.278)" fill="#263238"/>
      <path id="Path_2319" data-name="Path 2319" d="M670.254,446.423c-3.979-1.645-7.652,4.145-7.525,4.26-.166.7-.319,1.416-.459,2.117.51-.829,2.691-1.849,5.918-2.079S674.092,447.865,670.254,446.423Z" transform="translate(75.312 -385.165)" fill="#263238"/>
      <path id="Path_2320" data-name="Path 2320" d="M660.03,443.052c-3.953-1.479-3.826,4.272-1.02,6.1s4.425,3.6,4.668,4.527c.076-.727.179-1.441.293-2.155C663.818,451.6,663.728,444.646,660.03,443.052Z" transform="translate(73.854 -386.078)" fill="#263238"/>
      <path id="Path_2321" data-name="Path 2321" d="M672.547,441.957c-3.635-2.283-8.239,2.819-8.137,2.946-.28.663-.548,1.339-.791,2.015.625-.727,2.959-1.377,6.173-1.058S676.093,444.023,672.547,441.957Z" transform="translate(75.684 -386.475)" fill="#263238"/>
      <path id="Path_2322" data-name="Path 2322" d="M662.9,437.1c-3.647-2.117-4.54,3.584-2.028,5.867s3.749,4.272,3.826,5.229c.2-.7.421-1.39.663-2.079C665.255,446.155,666.275,439.268,662.9,437.1Z" transform="translate(74.534 -387.778)" fill="#263238"/>
      <path id="Path_2323" data-name="Path 2323" d="M675.557,437.891c-3.214-2.857-8.621,1.441-8.545,1.581-.4.612-.765,1.275-1.122,1.875.74-.625,3.15-.88,6.274,0S678.707,440.531,675.557,437.891Z" transform="translate(76.309 -387.702)" fill="#263238"/>
      <path id="Path_2324" data-name="Path 2324" d="M666.782,431.657c-3.239-2.7-5.1,2.819-3.022,5.484s2.971,4.859,2.895,5.816c.319-.65.65-1.275,1.007-1.939C667.483,441.005,669.741,434.361,666.782,431.657Z" transform="translate(75.481 -389.35)" fill="#263238"/>
      <path id="Path_2325" data-name="Path 2325" d="M668.511,438.219c-.1,0,2.028-5.9,4.438-8.366s4.706-1.339,5.1.089-1.275,3.1-2.946,4.17S668.485,438.091,668.511,438.219Z" transform="translate(77.03 -390.045)" fill="#263238"/>
      <path id="Path_2326" data-name="Path 2326" d="M668.618,438.482h0a.242.242,0,0,1-.242-.14h0a.179.179,0,0,1,0-.191,25.123,25.123,0,0,1,4.477-8.417,3.826,3.826,0,0,1,3.7-1.441,2.423,2.423,0,0,1,1.773,1.632c.536,1.939-2.194,3.826-3.048,4.426-1.683.918-6.122,3.711-6.491,4.043a.243.243,0,0,1-.166.089Zm6.555-9.731a4.17,4.17,0,0,0-2.015,1.275,25.072,25.072,0,0,0-4.17,7.576l2.066-1.275c1.275-.829,3.035-1.875,3.966-2.372,1.582-1.033,3.176-2.551,2.819-3.9a1.913,1.913,0,0,0-1.428-1.275A2.55,2.55,0,0,0,675.174,428.752Z" transform="translate(76.986 -390.092)" fill="#263238"/>
      <path id="Path_2327" data-name="Path 2327" d="M662.414,480.192a.421.421,0,0,1-.574,0,53.832,53.832,0,0,1-11.478-51.231.434.434,0,1,1,.816.255,52.953,52.953,0,0,0,11.274,50.414.421.421,0,0,1,0,.6Z" transform="translate(71.419 -389.995)" fill="#263238"/>
      <path id="Path_2328" data-name="Path 2328" d="M657.939,455.1c-4.859,1.811-3.265,10.024-3.048,10.037.446.778.905,1.543,1.39,2.3-.255-1.161.791-3.9,3.431-6.785S662.505,453.161,657.939,455.1Z" transform="translate(73.164 -382.822)" fill="#263238"/>
      <path id="Path_2329" data-name="Path 2329" d="M646.807,459.632c-4.693,1.951.153,7.027,4.183,6.313s6.874-.446,7.882.191c-.536-.714-1.059-1.454-1.556-2.194C657.188,464.109,651.334,457.962,646.807,459.632Z" transform="translate(70.523 -381.526)" fill="#263238"/>
      <path id="Path_2330" data-name="Path 2330" d="M656.348,449.288c-5.1.969-4.936,9.259-4.732,9.3.293.829.625,1.645.969,2.461,0-1.186,1.454-3.686,4.553-6.058S661.169,448.178,656.348,449.288Z" transform="translate(72.358 -384.343)" fill="#263238"/>
      <path id="Path_2331" data-name="Path 2331" d="M644.393,452.019c-4.961,1.135-1.059,6.887,3.035,6.836s6.823.7,7.652,1.479c-.4-.791-.778-1.581-1.135-2.385C653.843,458.051,649.137,451.088,644.393,452.019Z" transform="translate(69.749 -383.567)" fill="#263238"/>
      <path id="Path_2332" data-name="Path 2332" d="M655.756,443.313c-5.178.115-6.377,8.277-6.224,8.353q.23,1.275.536,2.551c.153-1.161,2.053-3.354,5.51-5.178S660.692,443.032,655.756,443.313Z" transform="translate(71.802 -385.944)" fill="#263238"/>
      <path id="Path_2333" data-name="Path 2333" d="M643.288,444.08c-5.1.293-2.193,6.606,1.836,7.231s6.619,1.811,7.333,2.716c-.255-.829-.5-1.671-.714-2.551C651.591,451.63,648.109,443.978,643.288,444.08Z" transform="translate(69.336 -385.729)" fill="#263238"/>
      <path id="Path_2334" data-name="Path 2334" d="M656.148,437.311c-5.1-.752-7.652,7.1-7.537,7.206a20.887,20.887,0,0,0,.1,2.551c.344-1.11,2.551-2.946,6.3-4.17S661.058,437.859,656.148,437.311Z" transform="translate(71.55 -387.607)" fill="#263238"/>
      <path id="Path_2335" data-name="Path 2335" d="M643.514,436.107c-5.1-.561-3.265,6.16.612,7.448s6.211,2.882,6.772,3.9c-.115-.867-.2-1.734-.281-2.551C650.439,444.907,648.284,436.847,643.514,436.107Z" transform="translate(69.288 -387.933)" fill="#263238"/>
      <path id="Path_2336" data-name="Path 2336" d="M657.591,431.389c-4.936-1.594-8.825,5.777-8.66,5.892-.127.867-.242,1.734-.331,2.614.523-1.046,3.048-2.551,6.9-3.086S662.336,432.766,657.591,431.389Z" transform="translate(71.548 -389.286)" fill="#263238"/>
      <path id="Path_2337" data-name="Path 2337" d="M645.1,428.23c-4.9-1.416-4.272,5.586-.676,7.512s5.65,3.9,6.032,5c0-.88.076-1.747.153-2.627C650.419,438.191,649.667,429.774,645.1,428.23Z" transform="translate(69.615 -390.145)" fill="#263238"/>
      <path id="Path_2338" data-name="Path 2338" d="M649.451,435.159c-.115.064-.65-7.486.816-11.376s4.54-3.762,5.65-2.36.089,4.03-1.275,6.02S649.362,435.07,649.451,435.159Z" transform="translate(71.73 -392.214)" fill="#263238"/>
      <path id="Path_2339" data-name="Path 2339" d="M649.675,435.436h0a.293.293,0,0,1-.332,0h0a.179.179,0,0,1-.076-.2c-.344-1.365-.421-8.124.842-11.478a4.63,4.63,0,0,1,3.38-3.392,2.907,2.907,0,0,1,2.742.944c1.531,1.875-.535,5.344-1.2,6.377-1.415,1.824-4.948,7.065-5.2,7.652a.255.255,0,0,1-.153.1Zm2.551-13.914a5.1,5.1,0,0,0-1.581,2.423c-1.148,3.061-1.059,8.379-.918,10.394.319-.51.829-1.275,1.645-2.474,1.046-1.53,2.436-3.533,3.214-4.54,1.275-1.9,2.245-4.413,1.212-5.663a2.309,2.309,0,0,0-2.206-.74,3.048,3.048,0,0,0-1.416.6Z" transform="translate(71.672 -392.274)" fill="#263238"/>
    </g>
    <g id="freepik--Characters--inject-123" transform="translate(284.388 122.197)">
      <path id="Path_2340" data-name="Path 2340" d="M384.115,230.435l-6.032-.4-.612,17.09,6.645-.408Z" transform="translate(-193.001 -62.767)" fill="#fff"/>
      <path id="Path_2341" data-name="Path 2341" d="M377.608,247.9a.574.574,0,0,1-.434-.191.6.6,0,0,1-.2-.472l.612-17.09a.612.612,0,0,1,.2-.446.715.715,0,0,1,.472-.166l6.032.408a.625.625,0,0,1,.6.625v16.286a.638.638,0,0,1-.6.638l-6.645.408Zm1.275-17.051-.6,15.725,5.344-.319V231.172Z" transform="translate(-193.139 -62.905)" fill="#263238"/>
      <path id="Path_2342" data-name="Path 2342" d="M423.274,228.31l-40.594,2.6.064,20.138,42.584,8.175Z" transform="translate(-191.566 -63.243)" fill="#263238"/>
      <path id="Path_2343" data-name="Path 2343" d="M425.474,260h-.153l-42.6-8.188a.625.625,0,0,1-.51-.625l-.064-20.125a.612.612,0,0,1,.587-.638l40.607-2.615a.638.638,0,0,1,.676.587l2.053,30.927a.625.625,0,0,1-.217.523.637.637,0,0,1-.383.153Zm-41.946-9.336,41.257,7.92-1.951-29.46-39.37,2.551Z" transform="translate(-191.712 -63.381)" fill="#263238"/>
      <path id="Path_2344" data-name="Path 2344" d="M384.575,231.52s-16.682-7.04-18.9-7.04-8.838,8.851-10.649,11.861-.6,4.821,1.008,6.632,7.435,4.221,11.478,3.826,16.682-1.811,16.682-1.811Z" transform="translate(-199.43 -64.298)" fill="#fff"/>
      <path id="Path_2345" data-name="Path 2345" d="M366.651,247.652c-4.17,0-9.45-2.321-11.019-4.068s-3.112-3.992-1.071-7.4c1.275-2.053,8.366-12.167,11.2-12.167,2.283,0,17.421,6.377,19.13,7.091a.663.663,0,0,1,.4.612l-.408,13.455a.65.65,0,0,1-.561.625c-.128,0-12.753,1.4-16.694,1.811C367.315,247.639,366.983,247.652,366.651,247.652Zm-.893-22.357c-1.632,0-7.933,7.945-10.1,11.555-1.607,2.665-.574,4.183.931,5.879s7.078,3.992,10.917,3.609c3.494-.344,13.646-1.467,16.133-1.747l.37-12.473c-6.67-2.806-16.745-6.849-18.25-6.849Z" transform="translate(-199.578 -64.424)" fill="#263238"/>
      <path id="Path_2346" data-name="Path 2346" d="M260.935,451.1s-4.043-.255-4.3,1.008,1.008,13.914,2.27,14.922,3.826,1.773,9.871,2.028a96.652,96.652,0,0,0,14.666-1.02l-1.008-14.411Z" transform="translate(-226.281 -1.903)" fill="#828282"/>
      <path id="Path_2347" data-name="Path 2347" d="M270.556,469.859h-1.709c-5.573-.23-8.634-.88-10.2-2.168s-2.729-14.437-2.551-15.546c.319-1.633,3.571-1.607,4.961-1.518h0l22.025,2.551,1.084,15.534-.587.089a108.066,108.066,0,0,1-13.021,1.059Zm-10.369-18.008a4.91,4.91,0,0,0-2.831.523c-.268,1.275,1.1,13.315,2.053,14.309,1.275,1.059,4.349,1.658,9.489,1.875a91.815,91.815,0,0,0,13.965-.931l-.931-13.289-20.967-2.461C260.711,451.852,260.443,451.852,260.188,451.852Z" transform="translate(-226.426 -2.038)" fill="#263238"/>
      <path id="Path_2348" data-name="Path 2348" d="M257.052,351.66s0,20.8-2.806,32.611,1.849,36.832,5.229,50.874a102.627,102.627,0,0,1,2.806,25.864s-6.185,8.43-5.1,12.371,2.079,5.5,6.568,6.619,5.1-1.02,11.478,3.494c7.882,5.6,17.982,7.869,20.8,4.5s-1.135-5.1-3.38-6.747-7.308-9.565-11.236-15.177-1.734-25.3-1.734-42.163,8.277-66.063,8.277-66.063Z" transform="translate(-227.167 -29.279)" fill="#fff"/>
      <path id="Path_2349" data-name="Path 2349" d="M291.551,490.372c-4.77,0-11.478-2.551-16.58-6.185-4.119-2.921-5.637-2.946-7.563-2.984a14.032,14.032,0,0,1-3.647-.421c-4.885-1.212-5.892-3.086-7.027-7.065s4.158-11.478,5.1-12.753a103.53,103.53,0,0,0-2.806-25.507c-1.454-6.083-8.57-37.125-5.229-51.18,2.768-11.593,2.793-32.241,2.793-32.458v-.778l32.292,6.466-.1.6c-.089.5-8.264,49.343-8.264,65.961,0,4.63-.166,9.489-.332,14.182-.421,12.192-.829,23.709,1.913,27.611.88,1.275,1.836,2.653,2.793,4.055,3.112,4.566,6.645,9.731,8.3,10.981.344.255.714.5,1.11.765,1.5,1.02,3.227,2.168,3.469,3.826a3.9,3.9,0,0,1-1.1,3.035,6.376,6.376,0,0,1-5.127,1.849ZM257.818,352.634c0,3.9-.332,21.528-2.818,31.973-3.278,13.774,3.826,44.561,5.216,50.593a104.581,104.581,0,0,1,2.831,26.03v.191l-.115.166c-1.658,2.27-5.8,8.826-4.961,11.81,1.071,3.711,1.824,5.1,6.122,6.173a12.882,12.882,0,0,0,3.354.383c2.053,0,3.826.077,8.277,3.214,7.537,5.356,17.421,7.652,19.934,4.617a2.666,2.666,0,0,0,.816-2.028c-.166-1.148-1.632-2.13-2.921-3-.408-.281-.8-.536-1.161-.8-1.824-1.377-5.267-6.377-8.6-11.274l-2.78-4.056c-2.984-4.247-2.551-15.432-2.143-28.389.166-4.681.332-9.514.332-14.131,0-15.712,7.231-59.839,8.175-65.553Z" transform="translate(-227.296 -29.45)" fill="#263238"/>
      <path id="Path_2350" data-name="Path 2350" d="M274.834,356.333s-6.747,28.67-4.489,41.589,3.533,48.642,2.972,63.257c-.281,7.308-3.38,11.861-4.323,14.858a10.815,10.815,0,0,0,2.359,10.866,7.767,7.767,0,0,0,5.5,2.678c6.186,0,7.155-.293,15.585,3.635s17.421,3.941,21.923,1.683,2.806-3.928-2.257-6.173-9-9.093-16.733-14.717c-4.272-3.1-4.272-15.9-4.272-15.9s10.2-71.98,12.409-85.448A117.962,117.962,0,0,0,305.188,349Z" transform="translate(-223.027 -30.012)" fill="#fff"/>
      <path id="Path_2351" data-name="Path 2351" d="M306.592,497.217a34.292,34.292,0,0,1-14.309-3.252c-7.729-3.609-8.927-3.609-14.105-3.584H276.9a8.341,8.341,0,0,1-5.956-2.87,11.478,11.478,0,0,1-2.551-11.478,29.938,29.938,0,0,1,1.148-2.806,30.875,30.875,0,0,0,3.15-11.886c.548-14.182-.689-50.019-2.972-63.117-2.245-12.907,4.234-40.671,4.515-41.857l.089-.383L305.8,348.41v.765a119.882,119.882,0,0,1-1.684,23.747c-2.232,13.327-12.307,84.734-12.409,85.448,0,0,0,12.422,4,15.3a65.62,65.62,0,0,1,9.042,8.251c2.7,2.818,5.038,5.254,7.588,6.377,3.112,1.39,5.191,2.627,5.229,4.221s-1.671,2.474-2.959,3.112A18.965,18.965,0,0,1,306.592,497.217Zm-27.369-8.124c4.464,0,6.2.23,13.646,3.711,8.4,3.928,17.115,3.826,21.362,1.7,1.977-.995,2.27-1.645,2.257-1.951,0-.727-1.518-1.773-4.477-3.086s-5.191-3.75-8-6.67a65.049,65.049,0,0,0-8.851-8.1c-4.489-3.265-4.54-15.891-4.54-16.427.115-.816,10.2-72.236,12.422-85.576a123.245,123.245,0,0,0,1.709-22.7l-29.218,7.027c-.778,3.443-6.466,29.116-4.4,40.964,2.3,13.162,3.533,49.152,2.984,63.385a31.579,31.579,0,0,1-3.265,12.345c-.459,1.033-.855,1.926-1.1,2.678a10.2,10.2,0,0,0,2.219,10.2,7.117,7.117,0,0,0,5.038,2.551h2.206Z" transform="translate(-223.194 -30.174)" fill="#263238"/>
      <path id="Path_2352" data-name="Path 2352" d="M268.49,453.48l.5,15.674s.51.765,10.126,1.275,8.6-.5,21.745,1.773,16.745-2.755,16.949-3.546a25.871,25.871,0,0,0-.255-4.808s-5.1,2.78-16.694,1.275-15.674-4.3-20.737-7.652A30.848,30.848,0,0,0,268.49,453.48Z" transform="translate(-223.008 -1.244)" fill="#828282"/>
      <path id="Path_2353" data-name="Path 2353" d="M307.286,473.578a37.663,37.663,0,0,1-6.377-.6c-8.991-1.556-11.249-1.569-15-1.594-1.709,0-3.66,0-6.683-.179-9.935-.523-10.445-1.275-10.611-1.543l-.1-.153-.536-16.579.727.089a31.4,31.4,0,0,1,11.912,4.145l.37.242c4.77,3.1,8.927,5.79,20.112,7.244s16.248-1.16,16.3-1.186l.829-.446.115.931a22.3,22.3,0,0,1,.217,5.1S316.545,473.578,307.286,473.578Zm-37.533-4.68c.638.2,2.793.689,9.527,1.046,3,.153,4.923.166,6.632.166,3.673,0,6.109,0,15.2,1.607,13.4,2.308,16.21-3.061,16.222-3.112a18.209,18.209,0,0,0-.179-3.673c-1.887.727-7.053,2.155-16.235.969-11.478-1.5-15.738-4.26-20.648-7.461l-.357-.23a29.83,29.83,0,0,0-10.624-3.826Z" transform="translate(-223.149 -1.395)" fill="#263238"/>
      <path id="Path_2354" data-name="Path 2354" d="M290.437,447l-4.107,17.09s5.318,2.78,9.616,2.78l4.3-10.624S296.3,449.423,290.437,447Z" transform="translate(-218.096 -3.028)" fill="#eceff1"/>
      <path id="Path_2355" data-name="Path 2355" d="M296.537,467.715H296.1c-4.4,0-9.68-2.742-9.909-2.857l-.434-.229,4.387-18.289.689.281c5.994,2.449,9.96,9.233,10.126,9.514l.153.268Zm-9.31-3.826a25,25,0,0,0,8.456,2.474l4.017-9.909c-.752-1.2-4.068-6.2-8.66-8.417Z" transform="translate(-218.253 -3.209)" fill="#263238"/>
      <path id="Path_2356" data-name="Path 2356" d="M314.52,221.223a10.2,10.2,0,0,1,1.275-5.242c1.53-2.831.217-5.458-2.181-3.494s-3.494,6.122-3.494,6.122Z" transform="translate(-211.545 -67.788)" fill="#fff"/>
      <path id="Path_2357" data-name="Path 2357" d="M315.411,222.528l-5.841-3.507.128-.459c0-.179,1.173-4.374,3.7-6.377,1.62-1.275,2.691-.74,3.074-.434,1.046.867,1.084,2.857.077,4.719a9.769,9.769,0,0,0-1.275,4.885Zm-4.349-4.094,3,1.8a11.773,11.773,0,0,1,1.365-4.425c.8-1.5.651-2.78.23-3.125s-.829-.089-1.454.421A12.217,12.217,0,0,0,311.062,218.434Z" transform="translate(-211.697 -67.906)" fill="#263238"/>
      <rect id="Rectangle_627" data-name="Rectangle 627" width="45.836" height="83.382" transform="matrix(0.992, 0.127, -0.127, 0.992, 58.244, 113.978)" fill="#3330e4"/>
      <path id="Path_2358" data-name="Path 2358" d="M316.389,277.637l-46.729-5.969L280.373,187.7l46.729,5.956Zm-45.313-7.065,44.216,5.637,10.381-81.444-44.2-5.65Z" transform="translate(-222.686 -74.425)" fill="#263238"/>
      <path id="Path_2359" data-name="Path 2359" d="M262.007,238.15a248.937,248.937,0,0,0-18.658,42.7c-7.423,23.122-5.344,107.907-5.1,108.8s5.637,3.826,16.9,3.826,19.27-.6,19.27-.6a35.136,35.136,0,0,0,15.419,3.558c8.009-.293,16.9-3.826,16.9-3.826s1.186,1.186,6.823,0a46.42,46.42,0,0,0,10.662-3.826l5.344-2.972s-4.158-38.834-7.652-52.761-6.236-75-6.823-77.669.587,5.331-.6-2.678a70.319,70.319,0,0,0-3.711-14.284Z" transform="translate(-231.459 -60.534)" fill="#eceff1"/>
      <path id="Path_2360" data-name="Path 2360" d="M289.1,397.247a35.789,35.789,0,0,1-14.641-3.558c-1.275.089-8.927.587-19.13.587-10.7,0-16.988-2.755-17.5-4.3-.153-.446-2.551-85.448,5.038-109.2a251.124,251.124,0,0,1,18.722-42.8l.191-.331,49.56.242.153.4a71.518,71.518,0,0,1,3.762,14.437c.1.689.191,1.275.255,1.747a2.052,2.052,0,0,1,.332.88c.166.765.459,5.382.995,14.156,1.275,20.048,3.29,53.565,5.816,63.487,3.533,13.825,7.652,52.468,7.729,52.863v.421l-5.7,3.176a46.826,46.826,0,0,1-10.853,3.915c-4.4.931-6.288.459-7.014.089a58.984,58.984,0,0,1-16.809,3.826Zm-14.373-4.834.153.089a34.55,34.55,0,0,0,15.1,3.482c7.805-.293,16.58-3.826,16.682-3.826l.4-.166.293.306h0s1.275.867,6.236-.179a45.908,45.908,0,0,0,10.509-3.826l4.961-2.755c-.472-4.247-4.349-39.306-7.652-52.289-2.551-10.024-4.617-43.642-5.854-63.767-.344-5.663-.638-10.407-.829-12.651a1.452,1.452,0,0,1-.14-.421h0v-.293a.524.524,0,0,0,0-.14c-.128-.625-.268-1.62-.5-3.163a70.016,70.016,0,0,0-3.533-13.748l-47.94-.23a249.589,249.589,0,0,0-18.441,42.239c-7.257,22.663-5.446,105.65-5.025,108.468.421.625,5.624,3.354,16.273,3.354,11.108,0,19.13-.587,19.232-.6Z" transform="translate(-231.581 -60.672)" fill="#263238"/>
      <path id="Path_2361" data-name="Path 2361" d="M254.074,305.762a50.436,50.436,0,0,1-2.334-4.63l1.161-.523c.74,1.645,1.5,3.163,2.283,4.515Z" transform="translate(-227.62 -43.336)" fill="#263238"/>
      <path id="Path_2362" data-name="Path 2362" d="M252.205,304.144a151.62,151.62,0,0,1-7.065-25.877l1.275-.217a148.688,148.688,0,0,0,6.989,25.634Z" transform="translate(-229.437 -49.548)" fill="#263238"/>
      <path id="Path_2363" data-name="Path 2363" d="M256.472,314.724c-4.706-7.652-8-13.608-8.022-13.672l1.11-.612c0,.064,3.316,6.007,8,13.608Z" transform="translate(-228.526 -43.382)" fill="#263238"/>
      <rect id="Rectangle_628" data-name="Rectangle 628" width="1.275" height="26.259" transform="translate(42.969 292.346)" fill="#263238"/>
      <rect id="Rectangle_629" data-name="Rectangle 629" width="1.275" height="5.165" transform="translate(42.969 324.842)" fill="#263238"/>
      <path id="Path_2364" data-name="Path 2364" d="M274.535,261.371l-1.275-.077c.1-1.76.306-3.826.6-6.275l1.275.153C274.829,257.545,274.637,259.675,274.535,261.371Z" transform="translate(-221.695 -55.889)" fill="#263238"/>
      <path id="Path_2365" data-name="Path 2365" d="M275.405,255.915l-1.275-.179c1.275-8.787,3.023-17.855,3.035-17.957l1.275.255C278.415,238.175,276.642,247.218,275.405,255.915Z" transform="translate(-221.455 -60.636)" fill="#263238"/>
      <rect id="Rectangle_630" data-name="Rectangle 630" width="15.597" height="1.275" transform="matrix(0.247, -0.969, 0.969, 0.247, 38.855, 193.193)" fill="#263238"/>
      <path id="Path_2366" data-name="Path 2366" d="M305.241,356.784l-1.275-.128c.88-8.443-1.161-35.187-1.186-35.455l1.275-.1C304.145,322.248,306.121,348.239,305.241,356.784Z" transform="translate(-213.566 -37.694)" fill="#263238"/>
      <path id="Path_2367" data-name="Path 2367" d="M282.316,164.81s13.111,7.894,13.111,16.822-3.941,12.014-3.278,13.327,6.377-3.061,6.555.217-1.747,10.5-6.989,11.593-12.027-1.977-16.835-15.087S279.472,164.81,282.316,164.81Z" transform="translate(-221.619 -80.728)" fill="#263238"/>
      <path id="Path_2368" data-name="Path 2368" d="M289.94,207.748c-3.992,0-10.611-2.321-15.521-15.7-3.329-9.093-.089-18.646,3.686-24.066.778-1.1,2.742-3.673,4.349-3.673h.166l.153.089c.548.332,13.429,8.162,13.429,17.383a23.418,23.418,0,0,1-2.7,11.4,7.647,7.647,0,0,0-.65,1.543,8.7,8.7,0,0,0,1.785-.523c1.492-.548,3.035-1.122,4.056-.459a1.887,1.887,0,0,1,.791,1.543c.255,3.826-2.04,11.108-7.5,12.256A10.2,10.2,0,0,1,289.94,207.748Zm-7.652-42.086a8.289,8.289,0,0,0-3.15,3.1c-3.609,5.178-6.7,14.271-3.533,22.956,5.548,15.126,13.111,15.3,16.095,14.679,4.681-.982,6.708-7.652,6.491-10.917a.628.628,0,0,0-.217-.561c-.472-.319-1.939.217-2.908.574-1.467.548-2.844,1.046-3.367,0-.37-.752,0-1.556.638-2.78a22.115,22.115,0,0,0,2.551-10.84c.038-8.022-11.006-15.266-12.588-16.261Z" transform="translate(-221.757 -80.865)" fill="#263238"/>
      <path id="Path_2369" data-name="Path 2369" d="M267.082,169.941s-13.136,1.428-19.36,18.646,9.565,54.5,10.764,57.123,1.186,11.478,1.186,11.478l48.769.242s-1.441-29.154-3.584-41.347S298.4,188.6,291.225,179.991,280,167.071,267.082,169.941Z" transform="translate(-229.125 -79.559)" fill="#eceff1"/>
      <path id="Path_2370" data-name="Path 2370" d="M309.241,258.2l-50.07-.242v-.638c0-2.41-.2-9.144-1.135-11.2-.179-.4-17.294-39.536-10.777-57.607,6.109-16.911,19.015-18.952,19.857-19.066,13.085-2.9,17.255,1.275,24.742,10.267,8.1,9.718,12.1,26.974,13.761,36.386,2.13,12.09,3.584,41.143,3.6,41.436Zm-48.795-1.5,47.456.23c-.23-4.438-1.607-29.614-3.546-40.594-1.632-9.3-5.56-26.3-13.48-35.8-7.333-8.813-11.1-12.588-23.517-9.833H267.3c-.128,0-12.843,1.632-18.837,18.237-6.377,17.6,10.573,56.256,10.738,56.638C260.255,247.919,260.421,254.576,260.447,256.693Z" transform="translate(-229.261 -79.702)" fill="#263238"/>
      <path id="Path_2371" data-name="Path 2371" d="M256.41,231.963a77.645,77.645,0,0,1,.472,8.353l48.769.242s-.217-4.3-.6-10.279H256.41Z" transform="translate(-226.334 -62.701)" fill="#263238"/>
      <path id="Path_2372" data-name="Path 2372" d="M306.452,241.335l-50.07-.242v-.638a75.241,75.241,0,0,0-.472-8.277v-2.4h49.853v.6c.383,5.981.6,10.292.6,10.292Zm-48.795-1.5,47.456.23c-.064-1.365-.242-4.706-.523-9h-47.4v.995a73.442,73.442,0,0,1,.472,7.78Z" transform="translate(-226.472 -62.838)" fill="#263238"/>
      <path id="Path_2373" data-name="Path 2373" d="M315.121,226.64s2.41-5.9,1.747-6.555-5.012-4.145-6.109-4.145-9.17.65-9.17,1.747,2.181,1.53,2.181,1.53-1.964,1.275-1.747,2.4,4.043,2.053,4.043,2.053Z" transform="translate(-213.894 -66.649)" fill="#fff"/>
      <path id="Path_2374" data-name="Path 2374" d="M315.615,227.635l-9.552-3.214c-1.275-.306-4.209-1.2-4.476-2.551a2.716,2.716,0,0,1,1.059-2.283,2.117,2.117,0,0,1-1.5-1.773c0-2.092,9.705-2.385,9.807-2.385,1.5,0,6.3,4.068,6.568,4.336s.944.956-1.607,7.231Zm-13.213-9.6a3.251,3.251,0,0,0,1.62.765l1.5.293-1.275.854c-.765.51-1.556,1.352-1.479,1.747a8.2,8.2,0,0,0,3.584,1.569l8.519,2.78a21.363,21.363,0,0,0,1.594-5.369c-.995-.944-4.821-3.826-5.586-3.89-1.492-.064-7.371.536-8.481,1.186ZM316.431,220.582Z" transform="translate(-214.018 -66.79)" fill="#263238"/>
      <path id="Path_2375" data-name="Path 2375" d="M313.946,222.767c-2.27-1.747-4.859-3.66-5.28-3.826a27.193,27.193,0,0,0-4.119,0l-.077-1.275a22.815,22.815,0,0,1,4.6,0,55.442,55.442,0,0,1,5.65,4.03Z" transform="translate(-213.101 -66.206)" fill="#263238"/>
      <path id="Path_2376" data-name="Path 2376" d="M259.915,200.449l35.378,54.47s5.433,2.551,9.042,4.221,14.271.8,24.117,0,48.463-6.823,48.463-6.823a38.691,38.691,0,0,0,4.821,5.828c2.41,2.206,6.836,5.025,8.239,5.216s5.229-1.2,5.229-1.2a7.18,7.18,0,0,0,4.017,1.4c1.811-.2,2.615-.6,2.819-1.4a39.373,39.373,0,0,0-1.275-8.851c-.6-1.811-5.42-6.632-5.42-6.632s-7.04-6.032-8.239-6.224-16.49.6-16.49.6L319.41,236.63s1.607-.8-1.607-2.41a18.735,18.735,0,0,0-6.377-1.811S283.28,175.133,278.663,171.1s-14.029-2.41-20.1,3.227a16.363,16.363,0,0,0-5.433,12.46" transform="translate(-227.238 -79.611)" fill="#eceff1"/>
      <path id="Path_2377" data-name="Path 2377" d="M399.072,264.35A7.8,7.8,0,0,1,395.246,263a16.172,16.172,0,0,1-5.229,1.135c-1.645-.242-6.224-3.239-8.583-5.395a38.259,38.259,0,0,1-4.693-5.6c-4.119.638-38.9,6.02-48.119,6.772-11.249.918-20.839,1.543-24.436,0s-9-4.2-9.068-4.234a.7.7,0,0,1-.255-.217L259.473,200.94a.651.651,0,0,1,.191-.893.638.638,0,0,1,.88.191l35.314,54.381c.931.446,5.65,2.7,8.927,4.145,3.584,1.594,15.3.638,23.8,0,9.718-.8,48.055-6.772,48.463-6.836a.651.651,0,0,1,.638.281,36.978,36.978,0,0,0,4.719,5.714c2.461,2.245,6.734,4.9,7.894,5.1a16.576,16.576,0,0,0,4.923-1.173.638.638,0,0,1,.587.077,6.377,6.377,0,0,0,3.584,1.275c1.837-.2,2.181-.574,2.257-.918a42.555,42.555,0,0,0-1.186-8.494c-.459-1.365-3.966-5.1-5.267-6.377-3.3-2.831-7.193-5.892-7.907-6.058s-10.458.306-16.337.612l-51.384-4.425a.638.638,0,0,1-.23-1.2s0-.485-1.607-1.275a18.277,18.277,0,0,0-6.185-1.747.638.638,0,0,1-.536-.357c-9.718-19.768-29.027-57.99-32.611-61.1-4.285-3.724-13.455-2.194-19.245,3.2A15.916,15.916,0,0,0,253.925,187a.625.625,0,0,1-.574.689.612.612,0,0,1-.689-.574,16.86,16.86,0,0,1,5.535-13.123c6.377-5.918,16.133-7.423,20.954-3.227,4.528,3.941,30.251,56.115,32.751,61.217a19.475,19.475,0,0,1,6.313,1.837c1.607.816,2.359,1.569,2.359,2.385h0l50.312,4.336c1.479-.089,15.3-.8,16.58-.6s6.861,4.936,8.545,6.377c.548.536,4.987,5.025,5.624,6.925a38.822,38.822,0,0,1,1.212,9.2c-.332,1.365-1.811,1.709-3.354,1.887Z" transform="translate(-227.369 -79.745)" fill="#263238"/>
      <path id="Path_2378" data-name="Path 2378" d="M386.244,247.345a39.374,39.374,0,0,0-1.275-8.851c-.6-1.811-5.42-6.632-5.42-6.632s-7.04-6.032-8.239-6.224-16.49.6-16.49.6L314.34,222.59l-3.75,21.9,1.977-.166c9.858-.8,48.463-6.823,48.463-6.823a38.7,38.7,0,0,0,4.821,5.828c2.41,2.206,6.836,5.025,8.239,5.216s5.229-1.2,5.229-1.2a7.18,7.18,0,0,0,4.017,1.4C385.236,248.62,386.039,248.173,386.244,247.345Z" transform="translate(-211.416 -64.818)" fill="#fff"/>
      <path id="Path_2379" data-name="Path 2379" d="M383.248,249.556a7.805,7.805,0,0,1-3.826-1.352,16.171,16.171,0,0,1-5.229,1.135c-1.645-.242-6.224-3.239-8.583-5.395a38.256,38.256,0,0,1-4.693-5.6c-4.119.638-38.9,6.02-48.119,6.772l-1.99.166a.663.663,0,0,1-.523-.2.65.65,0,0,1-.153-.548l3.75-21.9a.625.625,0,0,1,.676-.523l40.518,3.686c1.479-.089,15.3-.8,16.579-.6s6.861,4.936,8.545,6.377c.548.536,4.987,5.025,5.624,6.925a38.824,38.824,0,0,1,1.212,9.2h0c-.332,1.365-1.811,1.709-3.354,1.888Zm-3.711-2.691a.637.637,0,0,1,.37.115,6.378,6.378,0,0,0,3.584,1.275c1.836-.2,2.181-.574,2.257-.918a42.418,42.418,0,0,0-1.186-8.494c-.459-1.365-3.966-5.1-5.267-6.377-3.3-2.831-7.193-5.892-7.907-6.058s-10.458.306-16.337.612l-39.982-3.584-3.507,20.508,1.161-.089c9.718-.8,48.055-6.772,48.463-6.836a.65.65,0,0,1,.638.281,36.985,36.985,0,0,0,4.719,5.714c2.461,2.245,6.734,4.9,7.894,5.1a16.577,16.577,0,0,0,4.923-1.173A.6.6,0,0,1,379.537,246.865Z" transform="translate(-211.545 -64.951)" fill="#263238"/>
      <path id="Path_2380" data-name="Path 2380" d="M292.478,234.452a.611.611,0,0,1-.255,0,.625.625,0,0,1-.332-.829c2.053-4.961,11.886-11.1,12.307-11.351a.625.625,0,0,1,.88.2.65.65,0,0,1-.2.88c-.1.064-9.909,6.173-11.81,10.751a.625.625,0,0,1-.587.344Z" transform="translate(-216.579 -64.934)" fill="#263238"/>
      <path id="Path_2381" data-name="Path 2381" d="M288.538,229.3a.663.663,0,0,1-.421-.153.65.65,0,0,1-.064-.906c2.551-2.908,13.659-6.849,14.144-7.014a.612.612,0,0,1,.8.383.638.638,0,0,1-.383.816c-3.15,1.1-11.708,4.451-13.6,6.645A.625.625,0,0,1,288.538,229.3Z" transform="translate(-217.664 -65.204)" fill="#263238"/>
      <path id="Path_2382" data-name="Path 2382" d="M286.371,162.389l-6.122,13.34L271.5,159.991l2.627-3.061Z" transform="translate(-222.179 -82.897)" fill="#fff"/>
      <path id="Path_2383" data-name="Path 2383" d="M280.465,177.313,270.9,160.1l3.214-3.826,13.264,5.918Zm-8.022-17.064,7.92,14.246,5.318-11.606-11.21-5Z" transform="translate(-222.344 -83.079)" fill="#263238"/>
      <path id="Path_2384" data-name="Path 2384" d="M293.116,123.51s3.928,6.772,4.591,11.363a54.163,54.163,0,0,1,.217,10.062s5.675,7.652,5.675,9.616-4.578,3.928-4.578,3.928-1.275,9.833-1.53,12.026-2.194,4.591-4.374,4.591-15.955-4.374-17.919-5.1-8.1-17.039-3.507-28.632S293.116,123.51,293.116,123.51Z" transform="translate(-222.586 -92.1)" fill="#fff"/>
      <path id="Path_2385" data-name="Path 2385" d="M293.248,175.917c-2.551,0-17.97-5.012-18.123-5.1s-.944-.319-2.13-2.857c-2.551-5.522-5.318-17.625-1.76-26.616,4.642-11.669,21.081-17.982,21.847-18.3l.51-.191.268.472c.166.281,4,6.938,4.668,11.593a53.312,53.312,0,0,1,.242,9.96c1.275,1.658,5.663,7.818,5.663,9.807s-3.367,3.826-4.642,4.362c-.23,1.785-1.275,9.731-1.479,11.657C298.005,173.188,295.811,175.917,293.248,175.917Zm-.28-51.422c-2.819,1.161-16.58,7.282-20.546,17.357-4.438,11.2,1.479,27,3.112,27.79,2.551.842,15.725,5,17.715,5s3.558-2.206,3.737-4.017c.217-2.181,1.479-11.644,1.53-12.039v-.37l.332-.14c1.747-.752,4.2-2.283,4.2-3.341s-3.239-6.134-5.548-9.246l-.14-.191v-.23a54.023,54.023,0,0,0-.217-9.922c-.459-3.724-3.278-9.042-4.17-10.649Z" transform="translate(-222.718 -92.281)" fill="#263238"/>
      <path id="Path_2386" data-name="Path 2386" d="M288.851,140.518c0,1.275-.587,2.41-1.275,2.41s-1.275-1.084-1.275-2.41.587-2.4,1.275-2.4S288.851,139.14,288.851,140.518Z" transform="translate(-218.104 -88.077)" fill="#263238"/>
      <path id="Path_2387" data-name="Path 2387" d="M290.494,137.184c-1.837-1.658-4.719-.153-4.744-.14l-.6-1.122c.153-.077,3.7-1.926,6.2.306Z" transform="translate(-218.421 -88.9)" fill="#263238"/>
      <path id="Path_2388" data-name="Path 2388" d="M291.012,154.682a6.109,6.109,0,0,1-5.012-3.15l1.059-.7c1.913,2.857,4.094,2.551,4.183,2.551l.2,1.275a1.633,1.633,0,0,1-.434.025Z" transform="translate(-218.187 -84.577)" fill="#263238"/>
      <path id="Path_2389" data-name="Path 2389" d="M309.134,120.282s-5.038,6.772-13.123,20.1-8.736,35.416-8.736,35.416,6.772,8.736,8.519,16.58-2.181,11.363-2.181,11.363-3.558-12.052-9.54-16.414-12.1-4.655-13.417-1.11,5.471,11.4,2.41,17.97S258.2,216.851,259.038,224.07s6.377,12.894,4.591,21.681-10.93,12.231-15.521,9.17-2.844-5.675-2.4-6.377a4.476,4.476,0,0,0-.663-6.377c-3.061-3.048-12.014-9.616-9.833-15.508s10.5-7.435,7.869-14.871-13.111-17.919-8.736-26.221,13.544-9.182,11.363-19.9-4.158-11.8-1.747-22.076,13.761-23.377,18.786-27.1,19.9-6.989,23.39-6.772,12.027,3.711,14.858,4.591S310.715,116.38,309.134,120.282Z" transform="translate(-232.699 -95.899)" fill="#263238"/>
      <path id="Path_2390" data-name="Path 2390" d="M252.178,256.846a7.652,7.652,0,0,1-4.272-1.2c-3.29-2.206-4.209-4.77-2.551-7.218a3.826,3.826,0,0,0-.574-5.535c-.5-.5-1.135-1.071-1.862-1.734-4.03-3.635-10.1-9.119-8.124-14.462a15.3,15.3,0,0,1,4.438-5.7c2.627-2.436,4.9-4.553,3.431-8.723a45.632,45.632,0,0,0-3.941-7.461c-3.737-6.2-7.958-13.213-4.77-19.271a26.22,26.22,0,0,1,6.134-7.218c3.622-3.265,6.479-5.854,5.178-12.256-.548-2.665-1.071-4.706-1.53-6.5-1.365-5.318-2.053-7.984-.217-15.84,2.449-10.483,13.863-23.645,19.041-27.471s20.265-7.116,23.8-6.9c2.551.166,7.792,2.041,11.58,3.418,1.428.523,2.653.969,3.431,1.2.4.128.867.255,1.377.383,2.551.676,5.994,1.607,7.065,3.7a3.176,3.176,0,0,1,0,2.665l-.077.153s-5.1,6.9-13.085,20.048c-7.474,12.32-8.545,32.521-8.647,34.881,1.02,1.275,6.861,9.3,8.507,16.669,1.811,8.149-2.219,11.835-2.385,11.988l-.752.663-.281-.969c0-.115-3.571-11.9-9.3-16.069-3.749-2.729-7.831-3.979-10.42-3.2a2.908,2.908,0,0,0-2.028,1.785c-.446,1.275.357,3.392,1.275,5.688,1.377,3.66,3.086,8.213,1.161,12.333-1.275,2.729-3.992,5.369-6.619,7.933-3.826,3.737-7.792,7.588-7.308,11.606a31.094,31.094,0,0,0,2.308,7.652c1.658,4.209,3.392,8.558,2.27,14.144a13.48,13.48,0,0,1-7.971,9.9,11.145,11.145,0,0,1-4.285.931Zm33.733-146.231c-3.826,0-17.855,3.112-22.625,6.67-5.242,3.826-16.273,16.962-18.556,26.782-1.76,7.537-1.148,9.948.217,15.228.459,1.811.982,3.826,1.543,6.568,1.441,7.116-1.964,10.2-5.573,13.468a24.487,24.487,0,0,0-5.854,6.849c-2.857,5.433,1.173,12.116,4.732,18.021a47.187,47.187,0,0,1,4.043,7.652c1.747,4.961-1.046,7.563-3.762,10.075a14.322,14.322,0,0,0-4.107,5.216c-1.684,4.54,4.234,9.884,7.78,13.072.74.676,1.4,1.275,1.913,1.773a5.1,5.1,0,0,1,.778,7.065c-.5.765-1.875,2.831,2.181,5.535a8.009,8.009,0,0,0,7.333.191,12.192,12.192,0,0,0,7.206-8.927c1.046-5.229-.612-9.4-2.206-13.442a32.418,32.418,0,0,1-2.4-8c-.561-4.642,3.635-8.723,7.652-12.664,2.551-2.487,5.178-5.1,6.377-7.576,1.683-3.622.153-7.729-1.212-11.338-.982-2.627-1.836-4.91-1.212-6.581A4.17,4.17,0,0,1,273,183.7c3-.893,7.423.4,11.478,3.392,5.1,3.686,8.379,12.511,9.425,15.636.969-1.377,2.551-4.566,1.275-9.935-1.7-7.652-8.328-16.273-8.4-16.363l-.14-.179v-.23c0-.217.752-22.4,8.838-35.71,7.563-12.473,12.524-19.309,13.085-20.074a1.823,1.823,0,0,0,0-1.556c-.8-1.581-4.068-2.461-6.236-3.035-.536-.14-1.02-.268-1.428-.4-.8-.255-2.053-.7-3.494-1.275-3.711-1.352-8.787-3.188-11.223-3.341Z" transform="translate(-232.828 -96.001)" fill="#263238"/>
      <path id="Path_2391" data-name="Path 2391" d="M351.745,231.817s-4.591,5.305-3.826,6.543a7.4,7.4,0,0,0,3.188,2.13s2.653-4.247,3.01-6.721S353.339,231.116,351.745,231.817Z" transform="translate(-201.161 -62.376)" fill="#fff"/>
      <path id="Path_2392" data-name="Path 2392" d="M351.187,241.212a.653.653,0,0,1-.217,0,7.652,7.652,0,0,1-3.52-2.41c-.816-1.416,2.13-5.165,3.966-7.27a.472.472,0,0,1,.217-.166,2.551,2.551,0,0,1,2.551-.115c.612.459.816,1.352.612,2.729-.37,2.551-2.984,6.785-3.1,6.963A.625.625,0,0,1,351.187,241.212Zm1.1-8.774c-2.13,2.461-3.826,5.1-3.711,5.726a5.752,5.752,0,0,0,2.347,1.62,22.027,22.027,0,0,0,2.64-6.02c.179-1.275-.089-1.5-.115-1.53s-.268-.128-1.16.255Z" transform="translate(-201.305 -62.512)" fill="#263238"/>
      <path id="Path_2393" data-name="Path 2393" d="M356,233.821s-5.65,4.6-5.65,6.02.88,2.653,1.951,2.117,4.591-3.711,4.948-6.007S357.224,233.821,356,233.821Z" transform="translate(-200.468 -61.727)" fill="#fff"/>
      <path id="Path_2394" data-name="Path 2394" d="M351.93,242.865a1.71,1.71,0,0,1-.867-.255,3.087,3.087,0,0,1-1.212-2.627c0-1.556,4.119-5.1,5.879-6.517a.689.689,0,0,1,.408-.14h.281a1.722,1.722,0,0,1,1.454.421c.4.459.37,1.186.179,2.436-.408,2.64-4.17,5.93-5.293,6.492A1.761,1.761,0,0,1,351.93,242.865Zm4.438-8.264c-2.551,2.066-5.178,4.681-5.242,5.382a1.887,1.887,0,0,0,.612,1.543.345.345,0,0,0,.408,0c.957-.472,4.3-3.52,4.6-5.535a3.826,3.826,0,0,0,.1-1.441h-.459Z" transform="translate(-200.607 -61.869)" fill="#263238"/>
      <path id="Path_2395" data-name="Path 2395" d="M356.624,236.791s-4.107,3.826-3.9,4.808a2.691,2.691,0,0,0,2.4,1.709c.8,0,3.52-2.7,4.221-4.719S358.933,235.184,356.624,236.791Z" transform="translate(-199.817 -61.101)" fill="#fff"/>
      <path id="Path_2396" data-name="Path 2396" d="M355.256,244.074a3.316,3.316,0,0,1-3.023-2.219c-.23-1.122,2.1-3.558,4.094-5.407h.077c1.734-1.212,2.742-.816,3.188-.472a2.551,2.551,0,0,1,.485,3.01C359.35,241,356.468,244.074,355.256,244.074Zm1.913-6.657c-1.734,1.607-3.622,3.686-3.686,4.247.128.574,1.2,1.135,1.773,1.135a10.011,10.011,0,0,0,3.622-4.285c.293-.829.179-1.4,0-1.569s-.829-.14-1.709.434Z" transform="translate(-199.954 -61.228)" fill="#263238"/>
      <path id="Path_2397" data-name="Path 2397" d="M358.307,238.871s-2.908,4.617-2.551,5.1,1.8,1.9,2.551.893,3.01-3.711,2.818-5.509S359.417,237.672,358.307,238.871Z" transform="translate(-198.988 -60.579)" fill="#fff"/>
      <path id="Path_2398" data-name="Path 2398" d="M357.691,246.016h0a3.533,3.533,0,0,1-2.347-1.569c-.191-.306-.51-.829,2.614-5.777a.442.442,0,0,1,.064-.1,2.551,2.551,0,0,1,2.551-1.007,1.977,1.977,0,0,1,1.275,1.875c.2,1.785-1.5,4.056-2.551,5.407-.166.217-.306.4-.408.548A1.39,1.39,0,0,1,357.691,246.016Zm-1.275-2.092a2.359,2.359,0,0,0,1.2.816c.064,0,.089,0,.14-.077l.434-.587c.778-1.046,2.411-3.214,2.27-4.5a.848.848,0,0,0-.37-.8,1.593,1.593,0,0,0-1.2.625,29.818,29.818,0,0,0-2.41,4.527Z" transform="translate(-199.124 -60.709)" fill="#263238"/>
      <path id="Path_2399" data-name="Path 2399" d="M440.727,170s-10.534,8.927-11.555,11.81a20.828,20.828,0,0,0-1.033,6.173s-13.889,15.942-14.883,23.39,2.819,20.533,2.819,20.533l31.067-60.63Z" transform="translate(-183.193 -79.299)" fill="#263238"/>
      <path id="Path_2400" data-name="Path 2400" d="M416.212,232.635h-.064a.638.638,0,0,1-.548-.459c-.153-.536-3.826-13.315-2.844-20.8.995-7.206,13.289-21.681,14.9-23.517a20.735,20.735,0,0,1,1.058-6.147c1.059-2.9,10.649-11.146,11.733-12.077a.663.663,0,0,1,.548-.14l6.377,1.275a.65.65,0,0,1,.446.918l-31.067,60.592a.638.638,0,0,1-.536.357Zm24.831-61.829c-3.048,2.627-10.356,9.208-11.134,11.338a20.27,20.27,0,0,0-.995,5.956.6.6,0,0,1-.153.408c-.14.166-13.748,15.865-14.743,23.033-.791,5.726,1.416,15.024,2.372,18.709l29.881-58.334ZM428.29,188.1Z" transform="translate(-183.331 -79.442)" fill="#263238"/>
      <path id="Path_2401" data-name="Path 2401" d="M497.513,460.93l-.1,6.377s-10.84,1.9-19.513,1.084l-.268-4.6Z" transform="translate(-165.422 0.808)" fill="#263238"/>
      <path id="Path_2402" data-name="Path 2402" d="M482.716,469.4a36.415,36.415,0,0,1-4.744-.2.637.637,0,0,1-.574-.6l-.268-4.6a.625.625,0,0,1,.536-.663l19.9-2.895a.612.612,0,0,1,.51.153.663.663,0,0,1,.217.485l-.1,6.377a.638.638,0,0,1-.536.612,97.821,97.821,0,0,1-14.934,1.339Zm-4.081-1.428a87.852,87.852,0,0,0,18.276-1.033l.089-5.1-18.569,2.7Z" transform="translate(-165.56 0.669)" fill="#263238"/>
      <path id="Path_2403" data-name="Path 2403" d="M467.575,440s-.931,6.313-2.347,8.456a18.046,18.046,0,0,1-9.4,7.563c-6.058,2.551-21.426,7.716-20.724,10.573s2.143,4.272,3.558,4.617a134.531,134.531,0,0,0,21.961,2.168c9.246,0,20.839.446,24.4-.982s7.116-2.844,11.032-2.844,11.746-.714,13.174-2.844-.714-12.1-1.785-14.96-2.551-7.231-2.551-7.231Z" transform="translate(-177.138 -4.955)" fill="#263238"/>
      <path id="Path_2404" data-name="Path 2404" d="M471.73,474.192H460.762a135.958,135.958,0,0,1-22.115-2.181c-1.862-.472-3.329-2.321-4.017-5.1-.612-2.449,4.987-5.1,16.975-9.693,1.581-.612,3.01-1.16,4.119-1.62,5.816-2.4,7.652-5.216,9.068-7.282s2.283-8.175,2.283-8.239a.651.651,0,0,1,.714-.536l37.355,4.413a.651.651,0,0,1,.523.434s1.467,4.413,2.551,7.218c.931,2.474,3.392,13.009,1.709,15.521s-10.471,3.137-13.7,3.137c-3.826,0-7.359,1.428-10.8,2.806C483.093,474.026,477.711,474.192,471.73,474.192Zm-3.456-33.363c-.281,1.671-1.122,6.249-2.359,8.086-1.492,2.257-3.494,5.267-9.68,7.805-1.122.472-2.551,1.02-4.145,1.632-4.553,1.76-16.643,6.377-16.2,8.188.574,2.308,1.7,3.826,3.1,4.17a133.306,133.306,0,0,0,21.8,2.155h5.433c7.843.064,15.954.14,18.722-.969,3.558-1.428,7.231-2.895,11.274-2.895,4.578,0,11.478-.893,12.639-2.551s-.689-11.3-1.849-14.373c-.867-2.334-2.015-5.739-2.4-6.874Z" transform="translate(-177.274 -5.083)" fill="#263238"/>
      <path id="Path_2405" data-name="Path 2405" d="M474.655,300.18s1.275,78.37,1.658,85.448,9.144,44.408,15.75,62.581,7.142,38.018,7.142,38.018-12.945,2.627-15.852,3.035-14.475-2.487-14.475-2.487-8.7-70.08-8.7-111.95,2.9-72.567,2.9-72.567Z" transform="translate(-170.227 -43.454)" fill="#263238"/>
      <path id="Path_2406" data-name="Path 2406" d="M482.841,490.108c-3.826,0-13.557-2.436-14.029-2.551a.625.625,0,0,1-.472-.548c-.089-.7-8.711-70.591-8.711-112.026s2.87-72.325,2.9-72.631a.65.65,0,0,1,.523-.561l11.618-2.079a.625.625,0,0,1,.51.14.637.637,0,0,1,.242.472c0,.791,1.275,78.447,1.645,85.448.4,6.645,9.029,44.012,15.725,62.428,6.594,18.135,7.167,38.018,7.18,38.26a.65.65,0,0,1-.51.65c-.536.1-13,2.627-15.891,3.048a6.249,6.249,0,0,1-.727-.051Zm-13.264-3.673c3.482.855,11.657,2.678,13.837,2.372,2.551-.357,12.817-2.436,15.3-2.933-.14-3.278-1.161-20.992-7.078-37.266-6.887-18.939-15.393-55.911-15.789-62.8-.447-6.657-1.543-76.674-1.722-84.734l-10.394,1.849c-.37,4.081-2.857,33.478-2.857,72.032.051,39.65,7.958,105.446,8.7,111.44Z" transform="translate(-170.378 -43.585)" fill="#263238"/>
      <path id="Path_2407" data-name="Path 2407" d="M481.783,464.54l-.1,6.377s-10.828,1.9-19.5,1.084l-.281-4.6Z" transform="translate(-169.753 1.802)" fill="#263238"/>
      <path id="Path_2408" data-name="Path 2408" d="M467,473.018c-1.607,0-3.214-.064-4.744-.2a.625.625,0,0,1-.574-.6l-.268-4.6a.625.625,0,0,1,.536-.663L481.829,464a.663.663,0,0,1,.51.153.625.625,0,0,1,.217.5l-.089,6.377a.65.65,0,0,1-.536.625A100.865,100.865,0,0,1,467,473.018Zm-4.081-1.428a87.035,87.035,0,0,0,18.276-1.033l.089-5.1-18.569,2.691Z" transform="translate(-169.889 1.652)" fill="#263238"/>
      <path id="Path_2409" data-name="Path 2409" d="M451.856,443.6s-.931,6.313-2.359,8.456-3.341,5.1-9.4,7.563-21.426,7.728-20.712,10.573,2.143,4.272,3.558,4.629a134.331,134.331,0,0,0,21.949,2.168c9.259,0,20.839.434,24.4-.995s7.129-2.844,11.044-2.844,11.746-.714,13.162-2.844-.7-12.1-1.773-14.96-2.551-7.231-2.551-7.231Z" transform="translate(-181.466 -3.964)" fill="#263238"/>
      <path id="Path_2410" data-name="Path 2410" d="M456.02,477.815H445.039a134.238,134.238,0,0,1-22.1-2.194c-1.862-.459-3.329-2.321-4.017-5.1-.612-2.436,4.987-5.1,16.975-9.693,1.581-.612,3-1.161,4.107-1.62,5.828-2.4,7.652-5.216,9.081-7.282s2.27-8.175,2.283-8.239a.638.638,0,0,1,.714-.536l37.355,4.515a.612.612,0,0,1,.523.434s1.454,4.4,2.551,7.206c.931,2.474,3.38,13.021,1.709,15.534s-10.471,3.125-13.7,3.125c-3.826,0-7.206,1.365-10.8,2.806C467.357,477.637,461.975,477.815,456.02,477.815Zm-3.482-33.376c-.28,1.671-1.122,6.249-2.359,8.1-1.492,2.245-3.507,5.254-9.693,7.805-1.11.459-2.551,1.008-4.132,1.62-4.553,1.76-16.643,6.377-16.2,8.2.574,2.3,1.7,3.826,3.086,4.158a133.321,133.321,0,0,0,21.8,2.155h5.446c7.843.064,15.955.14,18.722-.969,3.558-1.428,7.231-2.895,11.274-2.895,4.578,0,11.478-.893,12.639-2.551s-.7-11.3-1.849-14.373c-.88-2.334-2.015-5.739-2.4-6.874Z" transform="translate(-181.6 -4.089)" fill="#263238"/>
      <path id="Path_2411" data-name="Path 2411" d="M425.36,298.88s5.8,55.146,8.7,68,11.618,53.909,11.618,53.909,5.382,41.882,5.382,43.54v6.632s-4.413,4.617-4.413,6.7,2.015,11.478,2.015,11.478a124.014,124.014,0,0,0,18.174,3.545,137.862,137.862,0,0,0,22.421.357A428.309,428.309,0,0,0,486.7,443.3c-2.908-24.053-10.356-61.918-10.356-73.97s2.066-36.9,2.487-38.554,1.658-27.79,1.658-27.79Z" transform="translate(-179.814 -43.812)" fill="#263238"/>
      <path id="Path_2412" data-name="Path 2412" d="M479.714,494.159A111.573,111.573,0,0,1,466.9,493.5a125.8,125.8,0,0,1-18.276-3.558.625.625,0,0,1-.446-.472c-.077-.4-2.028-9.565-2.028-11.669s3.494-5.969,4.413-6.951v-6.377c0-1.275-3.826-31.82-5.382-43.464-.076-.357-8.723-41.143-11.593-53.845s-8.672-67.517-8.723-68.078a.612.612,0,0,1,.179-.51.65.65,0,0,1,.5-.191l55.159,4.145a.65.65,0,0,1,.587.676c-.128,2.678-1.275,26.234-1.683,27.9s-2.461,26.349-2.461,38.4c0,7,2.551,22.88,5.254,39.689,1.913,11.9,3.826,24.232,5.1,34.179a432.126,432.126,0,0,1,2.551,49.866.625.625,0,0,1-.587.625C489.381,493.865,485.2,494.159,479.714,494.159Zm-30.366-5.331a129.338,129.338,0,0,0,17.7,3.405,136.82,136.82,0,0,0,21.681.4,432,432,0,0,0-2.551-49.1c-1.2-9.948-3.176-22.242-5.1-34.141-2.7-16.847-5.267-32.776-5.267-39.88,0-12.116,2.079-36.985,2.551-38.707.293-1.148,1.11-16.58,1.62-27.037l-53.769-4.043c.714,6.683,5.93,55.312,8.609,67.16,2.87,12.754,11.478,53.565,11.618,53.922.23,1.76,5.395,41.984,5.395,43.668V471.1a.714.714,0,0,1-.166.446c-1.645,1.709-4.247,4.923-4.247,6.249A106.683,106.683,0,0,0,449.348,488.828ZM451.2,471.1Z" transform="translate(-179.953 -43.95)" fill="#263238"/>
      <path id="Path_2413" data-name="Path 2413" d="M429.16,114.129s-7.27,13.315-7.27,16.248,1.275,4.617.829,5.458-6.912,9.858-7.333,12.167,4.2,5.242,4.821,5.867,1.275,11.746,2.1,14.9,3.558,5.663,5.867,5.663a23.094,23.094,0,0,0,5.242-.842l11.542,7.767,31.667-18.684-.421-6.708s9.769-16.324,10.394-19.462,1.071-17.23-2.079-22.472S466.91,102.179,459.143,99.87s-22.229,3.826-25.367,5.854-7.129,4.617-6.5,6.083A5.791,5.791,0,0,0,429.16,114.129Z" transform="translate(-182.568 -98.749)" fill="#fff"/>
      <path id="Path_2414" data-name="Path 2414" d="M445.093,182.105a.6.6,0,0,1-.357-.115l-11.3-7.652a22.409,22.409,0,0,1-5.1.791c-2.678,0-5.586-2.755-6.492-6.134a74.421,74.421,0,0,1-1.122-8.239,47.8,47.8,0,0,0-.867-6.377l-.612-.459c-1.658-1.275-4.732-3.66-4.323-5.9.306-1.7,3.15-6.02,6.058-10.3.638-.956,1.275-1.849,1.339-2.028a3.457,3.457,0,0,0-.255-1.275,12.916,12.916,0,0,1-.651-3.826c0-2.78,5.663-13.429,7.091-16.082a6.455,6.455,0,0,1-1.658-2.219c-.8-1.862,2.551-4.094,6.122-6.466l.612-.408c2.9-1.926,17.855-8.341,25.9-5.93,7.027,2.092,22.293,8.685,25.749,14.437,3.214,5.356,2.857,19.436,2.155,22.956-.612,3.086-9.272,17.651-10.369,19.5l.408,6.517a.65.65,0,0,1-.319.587l-31.667,18.671a.752.752,0,0,1-.344-.038Zm-11.542-9.042a.6.6,0,0,1,.357.115l11.2,7.525L476.1,162.439l-.4-6.313a.638.638,0,0,1,.089-.37c2.7-4.515,9.82-16.771,10.318-19.258.612-3,1.059-16.924-1.989-22.025-2.921-4.846-16.58-11.338-25.022-13.863-7.729-2.3-22.038,3.9-24.844,5.777l-.6.408c-1.964,1.275-6.045,4-5.662,4.885a5.1,5.1,0,0,0,1.658,2.028.663.663,0,0,1,.2.842c-2,3.66-7.193,13.672-7.193,15.942a11.635,11.635,0,0,0,.6,3.507,3.1,3.1,0,0,1,.166,2.232c-.128.255-.548.88-1.428,2.181-1.8,2.678-5.573,8.251-5.854,9.82s2.627,3.711,3.826,4.655a9.788,9.788,0,0,1,.791.65c.434.421.625,1.824,1.186,7.129a74.621,74.621,0,0,0,1.084,8.047c.74,2.768,3.188,5.191,5.255,5.191a22.193,22.193,0,0,0,5.1-.816Z" transform="translate(-182.7 -98.865)" fill="#263238"/>
      <path id="Path_2415" data-name="Path 2415" d="M481.964,114.037c-3.137-5.242-17.612-11.848-25.379-14.156s-22.229,3.826-25.367,5.854-7.129,4.617-6.5,6.083a5.789,5.789,0,0,0,1.888,2.308,4.158,4.158,0,0,0,3.354-.842c1.467-1.275,1.046-2.729,10.062-4.4s11.185,4.081,8.047,7.231-9.017,7.129-7.971,10.483,10.483,7.55,10.483,7.55-.842,3.826,0,4.617a4.642,4.642,0,0,0,2.308,1.046s6.287-7.129,9.221-5.663,6.721,8.392,6.3,11.746-5.458,9.438-5.458,9.438l-3.558.842a14.233,14.233,0,0,0,14.258-.2s9.769-16.324,10.394-19.462S485.114,119.3,481.964,114.037Z" transform="translate(-180.01 -98.747)" fill="#263238"/>
      <path id="Path_2416" data-name="Path 2416" d="M466.416,158.77a14.219,14.219,0,0,1-7.231-1.926.65.65,0,0,1-.293-.638.676.676,0,0,1,.485-.523l3.354-.778c.791-.982,4.821-6.109,5.178-8.927s-3.239-9.744-5.943-11.1c-1.811-.905-6.16,2.9-8.468,5.522a.663.663,0,0,1-.561.2,5.382,5.382,0,0,1-2.665-1.275c-.867-.867-.561-3.29-.281-4.706-2.092-.956-9.374-4.527-10.369-7.729-.944-3,2.615-6.147,5.752-8.927.867-.765,1.683-1.492,2.372-2.181a3.443,3.443,0,0,0,.816-4.081c-1.084-2.066-4.183-2.844-8.277-2.079-7.155,1.275-8.149,2.474-9.017,3.482a8.583,8.583,0,0,1-.753.778,4.846,4.846,0,0,1-3.915.982.676.676,0,0,1-.217-.1,6.517,6.517,0,0,1-2.117-2.551c-.8-1.862,2.551-4.094,6.122-6.466l.612-.408c2.9-1.926,17.855-8.341,25.9-5.93,7.027,2.092,22.293,8.685,25.749,14.437,3.214,5.356,2.857,19.436,2.155,22.956-.638,3.227-10.075,19-10.471,19.666a.664.664,0,0,1-.23.23,15.419,15.419,0,0,1-7.69,2.066Zm-5.025-2.245a13.684,13.684,0,0,0,11.937-.893c2.768-4.629,9.744-16.656,10.2-19.13.612-3,1.059-16.924-1.99-22.025-2.921-4.846-16.58-11.338-25.022-13.863-7.729-2.3-22.038,3.9-24.844,5.777l-.6.408c-1.964,1.275-6.045,4-5.663,4.885a5.1,5.1,0,0,0,1.556,1.951,3.443,3.443,0,0,0,2.678-.714,4.885,4.885,0,0,0,.625-.638c1.008-1.173,2.155-2.551,9.744-3.9,4.681-.88,8.29.14,9.654,2.729a4.719,4.719,0,0,1-1.046,5.573c-.714.727-1.543,1.467-2.436,2.245-2.844,2.551-6.071,5.395-5.382,7.652.791,2.551,7.588,6.032,10.139,7.167a.625.625,0,0,1,.37.714c-.4,1.8-.485,3.724-.179,4.03a3.737,3.737,0,0,0,1.632.8c1.339-1.479,6.708-7.053,9.744-5.535,3.239,1.62,7.091,8.8,6.632,12.4s-5.382,9.5-5.586,9.756a.587.587,0,0,1-.344.217Zm12.4-.421Z" transform="translate(-180.149 -98.881)" fill="#263238"/>
      <path id="Path_2417" data-name="Path 2417" d="M426.9,130.151c0,1.39-.523,2.551-1.161,2.551s-1.148-1.135-1.148-2.551.51-2.551,1.148-2.551S426.9,128.761,426.9,130.151Z" transform="translate(-180.026 -90.973)" fill="#263238"/>
      <path id="Path_2418" data-name="Path 2418" d="M422.919,126.387a.663.663,0,0,1-.536-.281.651.651,0,0,1,.178-.893c1.671-1.11,5.535-2.551,8.15.089a.636.636,0,0,1-.905.893c-2.551-2.551-6.492,0-6.53.077A.65.65,0,0,1,422.919,126.387Z" transform="translate(-180.663 -92.017)" fill="#263238"/>
      <path id="Path_2419" data-name="Path 2419" d="M423.645,144.668h-.791a.641.641,0,1,1,.127-1.275,10.636,10.636,0,0,0,6.874-1.964.663.663,0,0,1,.906.1.638.638,0,0,1-.1.893A11.478,11.478,0,0,1,423.645,144.668Z" transform="translate(-180.663 -87.202)" fill="#263238"/>
      <path id="Path_2421" data-name="Path 2421" d="M429.52,158.331l7.129-3.571-.421,7.563Z" transform="translate(-178.669 -83.495)" fill="#263238"/>
      <path id="Path_2422" data-name="Path 2422" d="M436.366,163.1a.753.753,0,0,1-.319-.089l-6.708-3.979a.638.638,0,0,1-.319-.574.65.65,0,0,1,.357-.548l7.129-3.558a.638.638,0,0,1,.638,0,.612.612,0,0,1,.281.561L437,162.46a.663.663,0,0,1-.332.536.613.613,0,0,1-.306.1Zm-5.382-4.578,4.808,2.844.306-5.395Z" transform="translate(-178.807 -83.632)" fill="#263238"/>
      <path id="Path_2423" data-name="Path 2423" d="M471.6,147.04l-35.863,22.854-2.1,14.679,42.788-32.088Z" transform="translate(-177.537 -85.621)" fill="#fff"/>
      <path id="Path_2424" data-name="Path 2424" d="M433.767,185.381a.6.6,0,0,1-.319-.089.612.612,0,0,1-.306-.638l2.092-14.679a.663.663,0,0,1,.293-.446l35.863-22.867a.625.625,0,0,1,.816.128l4.821,5.446a.625.625,0,0,1,.166.485.663.663,0,0,1-.255.446l-42.788,32.088a.6.6,0,0,1-.383.128Zm2.691-14.934-1.837,12.868,41-30.749-4-4.527Z" transform="translate(-177.674 -85.752)" fill="#263238"/>
      <path id="Path_2425" data-name="Path 2425" d="M481.986,151.44s-40.48,24.754-47.4,37.75-20.546,30.2-20.967,40.926,0,95.217-.2,101.518,20.546,19.13,42.775,21.184,44.05-7.767,46.142-9.029a61.393,61.393,0,0,0,6.3-5.025s-6.3-38.388-6.3-43.362-1.671-16.363-1.671-16.363l4.617-37.546s-1.836-47.889-4.387-59.01-13.838-30.4-13.838-30.4A4.081,4.081,0,0,0,481.986,151.44Z" transform="translate(-183.105 -84.575)" fill="#263238"/>
      <path id="Path_2426" data-name="Path 2426" d="M462.631,353.845c-2.1,0-4.234-.089-6.377-.293-22.663-2.13-43.591-15.177-43.362-21.834.077-2.551,0-18.7,0-37.329,0-25.8-.077-57.913.166-64.188.293-7.563,6.925-18.1,13.327-28.287,2.882-4.566,5.6-8.927,7.716-12.881,6.925-13.009,45.976-36.985,47.634-37.993h0a4.681,4.681,0,0,1,5.828.752l.077.1c.459.791,11.4,19.513,13.914,30.608s4.336,57.1,4.413,59.049l-4.6,37.559a161.729,161.729,0,0,1,1.671,16.375c0,4.923,6.224,42.928,6.288,43.362a.625.625,0,0,1-.2.574,62.776,62.776,0,0,1-6.377,5.1C500.5,345.836,482.361,353.845,462.631,353.845Zm19.832-201.722c-.752.459-40.441,24.857-47.188,37.508-2.155,4.03-4.885,8.366-7.767,12.958-6.377,10.05-12.855,20.406-13.136,27.662-.242,6.249-.2,38.35-.166,64.137v37.368c-.179,5.433,19.245,18.365,42.214,20.533,21.681,2.041,43.247-7.435,45.759-8.927a60.5,60.5,0,0,0,5.93-4.731c-.663-4.094-6.249-38.35-6.249-43.171s-1.645-16.159-1.671-16.273v-.166l4.617-37.546c0-.37-1.926-47.787-4.4-58.666-2.385-10.573-13.008-28.925-13.723-30.162A3.405,3.405,0,0,0,482.463,152.123Z" transform="translate(-183.25 -84.71)" fill="#263238"/>
      <path id="Path_2427" data-name="Path 2427" d="M414.138,225.772a.585.585,0,0,1-.255,0,.65.65,0,0,1-.37-.727c.191-.778.446-1.62.74-2.474a.625.625,0,0,1,.8-.4.574.574,0,0,1,.242.14l1.275-1.977.089-.1c.179-.166,18.059-17.651,22.79-23.836,4.527-5.9,13.251-13.111,14.628-14.233L455.5,176.3a.612.612,0,0,1,.51-.485.638.638,0,0,1,.65.293l1.633,2.551c2.066-2.4,9.221-10.483,14.679-13.94,6.236-3.941,14.22-8.354,14.3-8.4a.638.638,0,0,1,.867.255.65.65,0,0,1-.255.867c-.077,0-8.022,4.438-14.22,8.366s-14.819,14.233-14.883,14.36a.612.612,0,0,1-.536.217.663.663,0,0,1-.5-.293l-1.275-2.066-1.11,4.6a.7.7,0,0,1-.217.344c-.1.076-9.858,8-14.577,14.156s-21.681,22.727-22.88,23.925l-2.972,4.451A.663.663,0,0,1,414.138,225.772Z" transform="translate(-183.08 -83.088)" fill="#a1a1a1"/>
      <rect id="Rectangle_631" data-name="Rectangle 631" width="81.584" height="59.584" transform="translate(240.288 162.013) rotate(19.88)" fill="#eceff1"/>
      <path id="Path_2428" data-name="Path 2428" d="M482.209,310.451a.6.6,0,0,1-.217,0l-76.725-27.739a.651.651,0,0,1-.357-.332.637.637,0,0,1,0-.485l20.265-56.039a.651.651,0,0,1,.332-.357.638.638,0,0,1,.485,0l76.725,27.752a.625.625,0,0,1,.357.319.74.74,0,0,1,0,.5l-20.24,55.962A.637.637,0,0,1,482.209,310.451Zm-75.9-28.759,75.513,27.356,19.832-54.84L426.132,226.89Z" transform="translate(-185.458 -64.03)" fill="#263238"/>
      <path id="Path_2429" data-name="Path 2429" d="M454.685,261.26s-6.224,3.227-7.206,3.482-14.411-1.492-15.661-.995-4.961,2.729-6.951,3.227-1.275,3.724,1.275,4.476,8.7-.995,8.7-.995l1.734,1.99s-5.216,14.654-3.966,15.891,2.232,2.487,3.469,1.99,3.482-1.275,3.482-1.275l6.963,2.729c1.275.5,5.458.752,6.453.255a9.578,9.578,0,0,0,2.984-3.239c.995-1.492,5.216-13.659,5.216-13.659l1.734-4.476Z" transform="translate(-180.266 -54.171)" fill="#fff"/>
      <path id="Path_2430" data-name="Path 2430" d="M450.815,293.1a15.57,15.57,0,0,1-4.477-.561L439.6,289.9c-.587.2-2.245.765-3.227,1.161-1.492.6-2.653-.587-3.762-1.722l-.408-.408c-1.275-1.275,1.275-9.425,3.7-16.222l-1.275-1.4c-1.441.383-6.377,1.569-8.66.88a3.826,3.826,0,0,1-2.831-3.609,2.092,2.092,0,0,1,1.62-2.092,28.266,28.266,0,0,0,4.8-2.168c.867-.459,1.62-.842,2.079-1.033.727-.293,3.482-.089,9.782.51,2.551.255,5.522.523,5.969.459.65-.166,4.668-2.194,7.04-3.418a.637.637,0,0,1,.778.14l8.2,9.438a.638.638,0,0,1,.115.65l-1.735,4.477c-.434,1.275-4.272,12.269-5.28,13.786a9.743,9.743,0,0,1-3.239,3.443,6.517,6.517,0,0,1-2.449.332Zm-11.2-4.515a.661.661,0,0,1,.23,0l6.963,2.742a14.233,14.233,0,0,0,5.943.268,9.5,9.5,0,0,0,2.729-3.01c.7-1.046,3.456-8.66,5.1-13.531l1.607-4.132-7.652-8.774c-1.53.791-5.994,3.074-6.9,3.3a38.127,38.127,0,0,1-6.377-.421,72.3,72.3,0,0,0-9.208-.6c-.4.166-1.11.536-1.939.969a27.69,27.69,0,0,1-5.1,2.283.842.842,0,0,0-.65.88,2.614,2.614,0,0,0,1.926,2.372c1.888.561,6.657-.536,8.341-.995a.612.612,0,0,1,.651.191l1.734,1.989a.587.587,0,0,1,.115.625c-2.321,6.555-4.553,14.271-4.081,15.3l.383.37c1.033,1.059,1.7,1.683,2.372,1.428,1.275-.5,3.418-1.275,3.507-1.275Z" transform="translate(-180.426 -54.308)" fill="#263238"/>
      <path id="Path_2431" data-name="Path 2431" d="M459.382,174.76s-5.458,1.99-7.206,15.164,2.487,23.594,4.974,27.331,22.956,31.96,22.956,31.96-2.487,2.232-2.232,3.482l.242,1.275L445.2,285.856l12.664,12.919s40.479-19.423,50.07-27.407c7.652-6.377,11.682-19.628,11.478-22.357S492.707,189.21,488.728,182s-8.443-11.669-11.924-12.664" transform="translate(-174.352 -79.48)" fill="#263238"/>
      <path id="Path_2432" data-name="Path 2432" d="M458.022,299.531a.637.637,0,0,1-.446-.179L444.9,286.395a.688.688,0,0,1-.178-.459.6.6,0,0,1,.191-.446l32.674-31.654-.179-.893c-.255-1.275,1.161-2.857,2.015-3.686-2.653-3.66-20.406-28.058-22.676-31.539-2.551-3.826-6.823-14.45-5.1-27.764s7.371-15.585,7.652-15.674a.64.64,0,0,1,.446,1.2c-.089,0-5.1,2.168-6.8,14.641-1.709,12.945,2.436,23.25,4.859,26.9s22.778,31.667,22.956,31.947a.625.625,0,0,1-.089.842c-1.059.944-2.143,2.359-2.041,2.882l.242,1.275a.624.624,0,0,1-.179.587l-32.458,31.437,11.9,12.141c4.285-2.079,40.62-19.717,49.522-27.127,7.652-6.377,11.478-19.424,11.2-21.821-.306-2.755-26.578-59.431-30.608-66.739-3.66-6.645-8.086-11.389-11.542-12.371a.662.662,0,1,1,.357-1.275c3.826,1.1,8.43,5.943,12.307,12.97,3.29,5.969,30.468,64.035,30.761,67.249s-3.9,16.452-11.657,22.956c-9.54,7.958-48.54,26.706-50.2,27.509a.688.688,0,0,1-.255.051Z" transform="translate(-174.484 -79.637)" fill="#263238"/>
      <path id="Path_2433" data-name="Path 2433" d="M472.929,236.341a.638.638,0,0,1-.625-.485.625.625,0,0,1,.459-.765c7.55-1.913,20.342-4.732,21.145-2.053a.664.664,0,1,1-1.275.37c-.931-1.008-10.9.714-19.6,2.921Z" transform="translate(-166.894 -62.244)" fill="#263238"/>
      <path id="Path_2434" data-name="Path 2434" d="M493.991,232.581a.689.689,0,0,1-.268,0s-5.841-2.64-10.547-1.7a.649.649,0,0,1-.242-1.275c5.1-1.02,11.07,1.671,11.325,1.786a.619.619,0,0,1-.268,1.186Z" transform="translate(-164.107 -62.949)" fill="#a1a1a1"/>
      <path id="Path_2435" data-name="Path 2435" d="M472.272,252.677a.638.638,0,0,1-.421-1.122l4.017-3.443a22.766,22.766,0,0,0-.714-4.158,1.722,1.722,0,0,1,.306-1.734,3.112,3.112,0,0,1,2.206-.765c-3.992-5.816-22.089-32.292-24.1-37.5-2.232-5.726-3.341-17.778-3.392-18.288a.64.64,0,1,1,1.275-.115c0,.128,1.135,12.371,3.3,17.944s24.487,37.993,24.716,38.324a.612.612,0,0,1,0,.7.638.638,0,0,1-.638.293c-.778-.128-2.079-.14-2.436.255,0,0-.128.153,0,.523a24.968,24.968,0,0,1,.791,4.757.663.663,0,0,1-.23.523l-4.26,3.648a.625.625,0,0,1-.421.153Z" transform="translate(-172.984 -75.176)" fill="#a1a1a1"/>
      <path id="Path_2436" data-name="Path 2436" d="M379.214,230.973s-9.45-5.216-12.46-7.435a6.951,6.951,0,0,0-7.04-.6,72.687,72.687,0,0,0-5.229,8.035c-.6,1.212,1.275,2.015,2.819,1.811s7.04-3.826,7.04-3.826l6.836,5.42" transform="translate(-199.361 -64.911)" fill="#fff"/>
      <path id="Path_2437" data-name="Path 2437" d="M371.316,235.16a.7.7,0,0,1-.408-.128l-6.466-5.1c-1.352.88-5.42,3.469-6.925,3.66a3.75,3.75,0,0,1-3.354-1.1,1.531,1.531,0,0,1-.1-1.633c.408-.829,4.578-7.716,5.433-8.29a7.512,7.512,0,0,1,7.767.625c2.959,2.155,12.307,7.346,12.4,7.4a.634.634,0,1,1-.612,1.11c-.4-.217-9.514-5.267-12.537-7.474a6.288,6.288,0,0,0-6.3-.587,77.5,77.5,0,0,0-5.012,7.792c-.089.179,0,.255,0,.332a2.551,2.551,0,0,0,2.155.561c1.059-.14,4.706-2.359,6.759-3.724a.638.638,0,0,1,.752,0l6.836,5.42a.638.638,0,0,1,.1.893A.625.625,0,0,1,371.316,235.16Z" transform="translate(-199.498 -65.043)" fill="#263238"/>
    </g>
  </g>
</svg>
