<svg xmlns="http://www.w3.org/2000/svg" width="59" height="59.05" viewBox="278 4631.95 59 59.05"><g data-name="Group 716"><path d="M278 4661.4a29.5 29.5 0 1 1 0 .1z" fill="#f7f7f7" fill-rule="evenodd" data-name="Ellipse 81"/><path d="M307.5 4632c16.292 0 29.5 13.208 29.5 29.5 0 8.048-3.223 15.344-8.64 20.86-5.162 5.258-12.616 8.64-20.86 8.64-16.292 0-29.5-13.208-29.5-29.5s13.208-29.5 29.5-29.5Z" fill="#f7f7f7" fill-rule="evenodd" data-name="Path 626"/><path d="m304.819 4661.496 8.937-8.93c.66-.661.66-1.73 0-2.384a1.702 1.702 0 0 0-2.39 0L301.24 4660.3a1.685 1.685 0 0 0-.05 2.328l10.168 10.188c.33.33.767.492 1.195.492.43 0 .865-.162 1.196-.492.66-.661.66-1.73 0-2.384l-8.93-8.936Z" fill="#06283d" fill-rule="evenodd" data-name="Icon ionic-ios-arrow-forward"/></g></svg>