<svg xmlns="http://www.w3.org/2000/svg" width="25.4" height="25.4" viewBox="0 0 25.4 25.4">
  <path id="Icon_awesome-linkedin-in" data-name="Icon awesome-linkedin-in" d="M5.686,25.4H.42V8.442H5.686ZM3.05,6.129A3.064,3.064,0,1,1,6.1,3.05,3.075,3.075,0,0,1,3.05,6.129ZM25.395,25.4H20.14V17.145c0-1.967-.04-4.49-2.738-4.49-2.738,0-3.157,2.137-3.157,4.349v8.4H8.984V8.442h5.051v2.313h.074a5.533,5.533,0,0,1,4.983-2.738c5.33,0,6.309,3.51,6.309,8.068V25.4Z" transform="translate(0 -0.001)" fill="#fff"/>
</svg>
