<svg xmlns="http://www.w3.org/2000/svg" xmlns:xlink="http://www.w3.org/1999/xlink" width="977.582" height="600.161" viewBox="0 0 977.582 600.161">
  <defs>
    <clipPath id="clip-path">
      <rect id="Rectangle_233" data-name="Rectangle 233" width="977.582" height="600.161" fill="none" stroke="#3330e4" stroke-width="1"/>
    </clipPath>
  </defs>
  <g id="Group_723" data-name="Group 723" transform="translate(-820.418 -7679.917)">
    <g id="Group_722" data-name="Group 722" transform="translate(820.418 7679.917)" opacity="0.2">
      <g id="Group_721" data-name="Group 721" clip-path="url(#clip-path)">
        <path id="Path_1025" data-name="Path 1025" d="M883.4,281.483c-3.792.879-2.876,5.046-4.948,7.257-1,1.069,3.286,3.176,5.614,2.021,1.5-.743,2.7-1.731,4.38-.328,1.862,1.559,1.4,2.628.044,4.4-1.233,1.609.826,1.775,1.753,1.665,1.591-.189,3.117-1.051,4.7-1.147,2.839-.172,4.555.264,4.258,4.281-.478,6.46-3.5,10.3-9.4,11.942-2.57.714-3.179,2.134-3.488,4.432a56.993,56.993,0,0,1-2.961,12.8c-.668,1.755-.883,4.157-3.5,4.025-2.632-.133-2.484-2.6-3.075-4.37-.2-.59-.413-1.174-.847-2.4-4.564,8.105-8.824,15.706-13.118,23.286-9.4,16.6-20.486,32.055-32.39,46.935-.693.868-1.583,2.024-2.524,2.179-8.417,1.387-10.814,8.617-14.308,14.659-6.459,11.168-10.453,22.96-8.358,36.164a23.086,23.086,0,0,0,1.375,6.151c5.674,12.4,11.049,24.911,18.5,36.455,7.269,11.255,13.047,23.329,18.227,35.735,4.031,9.653,6.361,19.669,8.592,29.767,1.621,7.336.144,14.565-1.171,21.768a8.21,8.21,0,0,1-4.087,5.657c-3.782,2.4-8.024,3.487-12.213,4.337-3.466.7-7.162-.285-6.422-5.182,1.015-6.71-4.727-11.109-5.426-17.169-7.616-3.792-10.953-13.022-20.152-15.133-6.346-1.457-8.629-7.809-11.593-12.929-1.008-1.741-.983-3.863-3.989-4.083-2.207-.161-3.138-2.754-3.409-4.844-.73-5.632-2.134-11.394-1.56-16.925.839-8.091-2.309-13.624-8.239-18.267a18.166,18.166,0,0,1-5.938-8.585c-2.134-5.977-9.136-11.041-13.27-8.578-5.043,3-11.229,3.474-15.566,7.563-3.673,3.464-7.118,3.863-11.2.575-12.621-10.171-27.1-8.11-41.539-5.977-.16.023-.32.058-.48.086-9.852,1.783-9.859,1.785-12.7-8.123a2.445,2.445,0,0,0-1.7-2.04c-.242,6.281-4.4,7.708-9.737,8.377a29.662,29.662,0,0,0-19.478,10.242c-.617.724-1.533,1.445-.317,2.354a3.044,3.044,0,0,0,3.658.285,30.39,30.39,0,0,0,3.328-3.514c.92-.947,1.4-2.844,3.413-1.579a4.013,4.013,0,0,1,2.149,4.472c-1.363,7.524-.746,11.535,2.622,17.675a12.853,12.853,0,0,1,1.342,2.581c.274.995,1.877,2.13.554,2.965-1,.63-2.2,1.435-3.941.78a15.133,15.133,0,0,1-5.647-3.46,38.085,38.085,0,0,0-7.345-5.612c-4.351-2.67-5.29-2.2-6.162,2.827-.664,3.823-4.257,5.43-7.093,2.758-2.546-2.4-4.681-2.387-7.8-1.344-2.513.84-5.485.466-8.243.358-1.861-.072-3.543-.768-3.4-3.2.173-3.026-1.959-4.244-4.267-5.2-2.848-1.178-1.822,1.9-2.868,2.722a7,7,0,0,1-5.457,1.3c-11.265-1.312-22.609-1.463-33.765-4.356-6.545-1.7-12.918,1.144-18.453,5.415-4.8,3.7-8.807,8.167-13.174,12.285a53.8,53.8,0,0,1-21.586,12.812c-3.055.92-6.109,2.147-8.086,4.967-3.854,1.129-5.867,4.37-8.249,7.189-1.607,2.583-3.226,5.16-4.819,7.752-2.087,3.4-4.757,6.569-2.179,11.044.984,1.71-.837,2.829-2.124,3.863-3.372,2.708-4.772,5.707-2.382,10.048,1.938,3.521,2.864,7.589,4.668,11.2,2.348,4.7,2.22,8.585-2.466,11.658-3.874,1.193-7.628-.192-11.431-.53l-10.311-4.139-5.288-3.409c-7.1-5.22-13.949-10.71-19.657-17.488a.829.829,0,0,0-.392-.616A256.127,256.127,0,0,0,413.9,541.893q-1.246-4.926-2.49-9.85c-1.3-12-7.178-20.28-19.189-23.564l-4.249-1.99c-6.746-3.988-7.649-3.9-13.128,1.5-.9.886-1.671,1.905-2.5,2.863l-1.978,1.965c-2.4,1.578-3.4,4.266-5.084,6.41-1.754,2.235-2.676,5.318-6.155,5.665l-5.682-2.542c-1.186-1.084-2.368-2.172-3.559-3.25-12.851-11.663-24.2-24.867-31.986-40.183-4.633-9.106-9.857-16.47-18.4-21.672a.893.893,0,0,0-.627-.659q-2.486-4.146-4.97-8.295c.537-2.89-1.737-2.251-3.1-2.243-3.388.019-6.777.306-10.165.485-3.945.168-8.619-1.142-9.087,5.312-.126,1.725-1.965,2.27-3.848,2.05-14.534-1.7-29.126-1.1-43.7-1.016l-3.913.025-10.756-.05c-3.523-.816-7.323-.508-10.532-2.6a7.034,7.034,0,0,0-4.064-3.357c-.17-.717-.716-.92-1.358-.993-2.866-2.07-5.832-4.015-8.579-6.232-12.517-10.1-25.345-19.726-39.934-26.726-2.148-1.03-3.9-2.98-6.549-2.857l-2.18-.928a10.236,10.236,0,0,0-6.021-1.329l-1.8-.491c-4.9-.586-9.651-2.211-14.655-2.006-2.363-.859-4.836-.559-7.269-.689a28.768,28.768,0,0,0-8.556-1.41c-7.76-1.554-8.244-.18-8.855-9.6-.3-4.635-.641-9.323-5.973-11.87-1.9-.907-.861-4.055-.267-5.941,1.4-4.436-.189-7.71-3.445-10.356-7.659-6.223-15.454-12.279-23.141-18.469a18.91,18.91,0,0,0-9.886-3.739c-10.171-1.233-15.472-10.95-14.686-19.709.366-4.085.489-7.407-3.8-9.824-2.51-1.414-3.791-4.415-3.811-7.545-.019-2.89-1.628-4.851-3.66-6.563-5.325-4.482-9.935-9.119-5.047-16.716,1.1-1.7-.743-2.24-1.66-2.926a6.348,6.348,0,0,1-2.846-6.335c.736-4.791.666-9.7,2.464-14.348.9-2.317,1.095-4.985,4.689-3.529.649.262,1.4.128,1.367-.763-.111-3.267,2.989-4.475,4.281-6.832.455-.83,1.158-1.707.363-2.631-.676-.785-1.49-.221-2.206.1-8.1,3.6-7.732.892-9.16-5.664-1.607-7.374-5.433-13.876-9.061-20.4-1.256-2.256-2.307-4.526-1.2-6.9,3.034-6.5.856-12.817-.929-18.869-1.829-6.2-.63-11.174,2.467-16.6,4.4-7.724,10.406-14.63,12.657-23.522.443-1.751,1.016-3.516.388-5.278-3.609-10.126.221-18.685,5.439-27.059,5.058-8.121,10.056-16.286,14.821-24.58,5.353-9.316,6.551-19.981,9.451-30.1,1.19-4.156,2.966-7.422.776-12.2-1.482-3.234.263-7.94.542-11.989.556-8.059-.221-15.856-3.7-23.335-2.268-4.879-.908-9.757,3.143-13.2,2.936-2.5,6.048-1.271,8.551.464,4.732,3.278,9.336,6.233,15.457,6.322,5.612.082,5.509,4.933,6.135,8.833.46,2.861-.513,4.852-3.62,5.727-2.306.65-1.333,3.4-2.562,4.826,1.262,1.448,2.48.557,3.584.057,1.371-.621,2.944-1.493,4.037-.217a3.622,3.622,0,0,1-.336,4.91c-2.441,2.693-.916,4.653,1.144,7.168,1.4-5.725,4.686-10.349,2.89-16.521-1.092-3.75.413-7.97,2.22-11.72a17.445,17.445,0,0,0,1.442-9.941c-.6-4.519.868-6.15,5.464-4.956,7.546,1.96,15.047,4.1,22.527,6.307,29.528,8.7,59.783,14.1,90.038,19.308,22.9,3.943,45.791,8.189,69.017,10.125,25.451,2.123,50.818,5.123,76.341,6.566,23.553,1.333,47.039,3.832,70.587,5.291,19.939,1.235,39.9,3.381,59.91.724,8.842-1.175,17.435-4.113,26.5-3.7,1.867.086,1.624-1.518,2.067-2.707,1.835-4.922,5.777-6.1,9.245-2.245,3.987,4.439,9.672,7.039,12.746,12.459,1.093,1.926,3.754,2.112,5.8,1.789,4.976-.784,9.288.966,13.575,2.964,10.1,4.705,20.33,8.625,31.822,7.882,6.419-.414,12.51,1.831,18.686,3.217,1.057.238,2.425.588,2.55,1.943.107,1.165-1.235,1.249-1.943,1.828-3.844,3.146-7.9,6.127-11.914,8.913-4.574,3.172-9.073,6.5-13.664,9.672a9.109,9.109,0,0,0-1.723,2.3L567.8,98.394a10.079,10.079,0,0,0,6.615-2.472c2.044-.986,4.081-1.991,6.136-2.955,5.366-2.52,7.37-2.037,10.314,3.07,1.869,3.241,4.04,2.688,6.45,1.059a112.47,112.47,0,0,1,11.069-6.908c2.642-1.373,5.459-1.4,8.118-2.348,2.612-.935,5.02,1.256,5.625,3.336.851,2.922,2.522,2.9,4.7,2.825a22.8,22.8,0,0,1,11.73,2.389c3.8,1.97,8.011.382,11.735-1.348a163.165,163.165,0,0,1,21.968-8c2.358-.708,4.477-.834,6.343.942,1.908,1.817,1.728,3.922-.183,6.483,3.193,0,5.59-.032,7.986.011,2,.035,5.442-1.93,5.579.936.129,2.712.306,7.254-4.62,7.82-4.453.512-7.57,4.07-11.86,5.125-7.511,1.847-14.983,3.765-21.854,7.676-3.337,1.9-6.482,3.212-7.227,7.586-.492,2.89-4.3,3.994-4.762,7.134-.2,1.334-1.782,3.035-.119,3.947,2.052,1.125,2.031-1.359,2.741-2.391.889-1.292,1.194-3.256,3.3-3.08,2.452.206,2.176,2.38,2.686,4.021,1.121,3.609.109,7.109-.538,10.584-1.34,7.2-2.361,14.331-1.641,21.765.36,3.715-1.313,7.608-1.938,11.443-2.016,12.37.245,22.813,7.488,34.2,4.535-9.543,12.829-17.987,7.613-29.523-4.1-9.061-3.055-17.885-1.311-27.1,1.117-5.907.575-12.005-.1-18.015a25.393,25.393,0,0,1-.123-5.339c.161-1.587.514-3.478,2.348-3.929a3.89,3.89,0,0,1,3.846,1.619c.82,1,1.683,2.447,3.051,1.95,1.443-.525.7-2.293.992-3.5a28.053,28.053,0,0,1,11.42-16.47c3.224-2.291,7.289-3.065,11.1-.887,10.019,5.732,19.131,12.289,20.586,25.061.2,1.756.805,4.621.012,5.148-5.956,3.952-2.275,10.325-4.22,15.19-.34.851-.875,2,.34,2.538a2.008,2.008,0,0,0,2.447-1.143c1.478-2.509,2.567-5.286,4.285-7.6,2.557-3.449,5.347-6.889,10.378-6.547a4.359,4.359,0,0,1,1.755.438c-.221,6.971,8.425,9.817,7.636,17.335-1.1,10.492-.278,21.28-7.89,30.113-2.328,2.7-.845,5.884.672,8.688,1.56,2.884,3.714.516,5.552.527,6.372.041,11.721-3.5,17.579-5.279a4.007,4.007,0,0,0,2.589-2.064c1.684-3.394,4.913-4.657,8.168-5.688,12.517-3.967,19.866-13.475,26.2-24.118,1.685-2.831-.6-3.25-2.4-3.868-1.619-.557-3.689-.365-3.7-3-.006-2.144,1.549-2.842,2.874-4.083,5.578-5.23,12.466-4.979,19.248-4.924,5.869.048,10.833-1.352,14.67-6.132a26.972,26.972,0,0,1,7.094-5.918c1.335-.818,4.265-.994,3.092-3.406-.91-1.869,1-5.579-3.5-5.58-2.35,0-1.981-2.687-1.211-3.8,5.087-7.336,6.789-16.282,11.881-23.718,3.771-5.507,8.17-8.935,14.489-10.273q11.7-2.478,23.39-4.967c8.226-.346,14.778-3.625,19.06-10.881.292-.282.584-.564.873-.848,3.415-2.314,6.837-4.619,10.246-6.945a2.04,2.04,0,0,0,1-2.5c-.2-5.584,2.194-10.888,1.78-16.5.774-7.024,1.476-14.056,2.344-21.069.61-4.925.9-9.993,4.364-14.051l7.217.354c4.814,1.172,8.684-3.422,13.5-2.208l1.906,1.127c2.59,1.6,5.488,2.972,6.766,5.943,3.547,8.246,8.855,15.7,10.952,24.612.514,2.181.723,4.995,3.96,5.335l6.662,1.49c1.726,1.546,6.365-.283,5.6,3.687-.867,4.488,1.675,6.835,3.947,9.674,1.818,2.271,3.632,4.629,1.4,7.678-2.791-.468-3.88,1.338-4.7,3.512-2.672,3.12-4.684,6.979-9.74,7.049a3.976,3.976,0,0,0-3.695,3.273l-.109.117c-2.414,1.985-5.99,2.418-6.734,6.719-.217,1.259-4.064,2.4-3.7,5.506q-.478,1.109-.959,2.218c-3.615,2.838-5.153,8.021-10.35,9.148-.384.083-.491,1.446-.726,2.213l-2.051,4.853c-2.8,4.759-1.76,10.914-5.592,15.316a1.259,1.259,0,0,0,.35,2.074c4.1,1.509,3.913,5.606,5.364,8.685,2.446,5.189,5.665,6.307,10.766,3.565,1.28-.689,2.75-1.261,2.123-3.218-.473-1.474-1.156-2.82-2.967-2.689-3.824.277-5.637-2.95-6.443-5.265-.839-2.408,3.118-2.554,4.73-3.993,2.96-.06,5.887-1.289,8.878-.257,3.9,2,5.4,5.862,7.294,9.42-.533,3.9.993,7.859-.362,11.731-2.661,3.69-8.076,4.2-10.04,8.693a2.1,2.1,0,0,0-1.69,1.711c-2.713,1.7-4.806,4.671-8.187,4.948-2.947.242-4.38,1.982-5.4,4.193-4.023,8.759-11.113,12.115-20.351,12.028-8.94-.084-13.454,3.391-16.134,12.221l-.447,1.1,1.143-.112a59.676,59.676,0,0,0,6.677-3.833,21,21,0,0,1,19.019-3.665c4.8,1.264,5.39,2.822,2.06,6.738a2.844,2.844,0,0,0-1.957,1.6c-4.572,4.208-10.628,5.78-15.815,8.894l-4.6,1.211c-5.792.722-5.792.722-3.1,4.906q.2,1.467.4,2.934c-.974,2.2-2.59,4.2-2.14,6.846a30.184,30.184,0,0,0-2.169,10.757,33.707,33.707,0,0,0-.666,5.609c.19,4.341-1.468,6.507-6.01,5.861-.4-.072-.811-.146-1.217-.215-2.708-.85-5.414-1.7-8.439-2.659-.32,4.277-.043,8.238,2.336,11.458,2.975,4.027,2.337,7.844.362,11.813-.719,1.445-1.617,2.673-.952,4.488,1.272,3.47,2.325,7.02,3.469,10.537Z" transform="translate(-0.011 -0.011)" fill="none" stroke="#3330e4" stroke-miterlimit="10" stroke-width="1"/>
      </g>
    </g>
  </g>
</svg>
