<svg id="Group_1178" data-name="Group 1178" xmlns="http://www.w3.org/2000/svg" xmlns:xlink="http://www.w3.org/1999/xlink" width="608.043" height="583.272" viewBox="0 0 608.043 583.272">
  <defs>
    <clipPath id="clip-path">
      <rect id="Rectangle_597" data-name="Rectangle 597" width="608.043" height="583.272" fill="none"/>
    </clipPath>
    <clipPath id="clip-path-3">
      <rect id="Rectangle_524" data-name="Rectangle 524" width="51.317" height="68.002" fill="none"/>
    </clipPath>
    <clipPath id="clip-path-4">
      <rect id="Rectangle_526" data-name="Rectangle 526" width="5.437" height="47.748" fill="none"/>
    </clipPath>
    <clipPath id="clip-path-5">
      <rect id="Rectangle_527" data-name="Rectangle 527" width="50.582" height="68.002" fill="none"/>
    </clipPath>
    <clipPath id="clip-path-6">
      <rect id="Rectangle_528" data-name="Rectangle 528" width="60.645" height="48.431" fill="none"/>
    </clipPath>
    <clipPath id="clip-path-8">
      <rect id="Rectangle_530" data-name="Rectangle 530" width="60.645" height="48.444" fill="none"/>
    </clipPath>
  </defs>
  <g id="Group_1177" data-name="Group 1177" clip-path="url(#clip-path)">
    <line id="Line_230" data-name="Line 230" x2="214.195" transform="translate(378.04 580.524)" fill="none" stroke="#263238" stroke-miterlimit="10" stroke-width="1"/>
    <line id="Line_231" data-name="Line 231" x2="328.888" transform="translate(32.777 580.524)" fill="none" stroke="#263238" stroke-miterlimit="10" stroke-width="1"/>
    <g id="Group_1176" data-name="Group 1176">
      <g id="Group_1175" data-name="Group 1175" clip-path="url(#clip-path)">
        <line id="Line_232" data-name="Line 232" x2="23.41" transform="translate(0 580.524)" fill="none" stroke="#263238" stroke-miterlimit="10" stroke-width="1"/>
        <g id="Group_1153" data-name="Group 1153" transform="translate(197.82 405.715)" opacity="0.3">
          <g id="Group_1152" data-name="Group 1152">
            <g id="Group_1151" data-name="Group 1151" clip-path="url(#clip-path-3)">
              <path id="Path_1803" data-name="Path 1803" d="M182.088,382.113H154.04V315.4h43.805l6.223,8.89v5.553" transform="translate(-153.396 -314.756)" fill="none" stroke="#000" stroke-linecap="round" stroke-linejoin="round" stroke-width="1"/>
              <path id="Path_1804" data-name="Path 1804" d="M188.04,315.4v9.676h6.223Z" transform="translate(-143.59 -314.756)" fill="none" stroke="#000" stroke-linecap="round" stroke-linejoin="round" stroke-width="1"/>
              <line id="Line_233" data-name="Line 233" x2="14.713" transform="translate(8.323 19.738)" fill="none" stroke="#000" stroke-linecap="round" stroke-linejoin="round" stroke-width="1"/>
              <line id="Line_234" data-name="Line 234" x2="14.713" transform="translate(8.323 29.169)" fill="none" stroke="#000" stroke-linecap="round" stroke-linejoin="round" stroke-width="1"/>
              <line id="Line_235" data-name="Line 235" x2="14.713" transform="translate(8.323 38.588)" fill="none" stroke="#000" stroke-linecap="round" stroke-linejoin="round" stroke-width="1"/>
              <line id="Line_236" data-name="Line 236" x2="14.713" transform="translate(8.323 48.019)" fill="none" stroke="#000" stroke-linecap="round" stroke-linejoin="round" stroke-width="1"/>
            </g>
          </g>
        </g>
        <g id="Group_1156" data-name="Group 1156" transform="translate(221.075 424.667)" opacity="0.3" style="isolation: isolate">
          <g id="Group_1155" data-name="Group 1155">
            <g id="Group_1154" data-name="Group 1154" clip-path="url(#clip-path-4)">
              <rect id="Rectangle_525" data-name="Rectangle 525" width="5.437" height="47.748" fill="#06283d"/>
            </g>
          </g>
        </g>
        <g id="Group_1159" data-name="Group 1159" transform="translate(226.435 421.033)" opacity="0.3">
          <g id="Group_1158" data-name="Group 1158">
            <g id="Group_1157" data-name="Group 1157" clip-path="url(#clip-path-5)">
              <path id="Path_1805" data-name="Path 1805" d="M225.544,394H176.25V327.29h43.071l6.223,8.877Z" transform="translate(-175.606 -326.646)" fill="none" stroke="#000" stroke-linecap="round" stroke-linejoin="round" stroke-width="1"/>
              <path id="Path_1806" data-name="Path 1806" d="M209.68,327.29v9.663H215.9Z" transform="translate(-165.965 -326.646)" fill="none" stroke="#000" stroke-linecap="round" stroke-linejoin="round" stroke-width="1"/>
              <line id="Line_237" data-name="Line 237" x2="34.954" transform="translate(7.589 19.738)" fill="none" stroke="#000" stroke-linecap="round" stroke-linejoin="round" stroke-width="1"/>
              <line id="Line_238" data-name="Line 238" x2="34.954" transform="translate(7.589 29.157)" fill="none" stroke="#000" stroke-linecap="round" stroke-linejoin="round" stroke-width="1"/>
              <line id="Line_239" data-name="Line 239" x2="34.954" transform="translate(7.589 38.588)" fill="none" stroke="#000" stroke-linecap="round" stroke-linejoin="round" stroke-width="1"/>
              <line id="Line_240" data-name="Line 240" x2="34.954" transform="translate(7.589 48.006)" fill="none" stroke="#000" stroke-linecap="round" stroke-linejoin="round" stroke-width="1"/>
            </g>
          </g>
        </g>
        <g id="Group_1162" data-name="Group 1162" transform="translate(90.368 20.498)" opacity="0.3" style="isolation: isolate">
          <g id="Group_1161" data-name="Group 1161">
            <g id="Group_1160" data-name="Group 1160" clip-path="url(#clip-path-6)">
              <path id="Path_1807" data-name="Path 1807" d="M101.188,23.226,98.817,16.41H70.64V63.552H130V23.226Z" transform="translate(-69.996 -15.766)" fill="none" stroke="#000" stroke-linecap="round" stroke-linejoin="round" stroke-width="1"/>
            </g>
          </g>
        </g>
        <g id="Group_1165" data-name="Group 1165" transform="translate(22.083 20.498)" opacity="0.3" style="isolation: isolate">
          <g id="Group_1164" data-name="Group 1164">
            <g id="Group_1163" data-name="Group 1163" clip-path="url(#clip-path-6)">
              <path id="Path_1808" data-name="Path 1808" d="M48.175,23.226,45.817,16.41H17.64V63.552H77V23.226Z" transform="translate(-16.996 -15.766)" fill="none" stroke="#000" stroke-linecap="round" stroke-linejoin="round" stroke-width="1"/>
            </g>
          </g>
        </g>
        <g id="Group_1168" data-name="Group 1168" transform="translate(464.877 367.024)" opacity="0.3" style="isolation: isolate">
          <g id="Group_1167" data-name="Group 1167">
            <g id="Group_1166" data-name="Group 1166" clip-path="url(#clip-path-8)">
              <path id="Path_1809" data-name="Path 1809" d="M391.855,292.186l-2.371-6.816H361.32v47.155h59.356v-40.34Z" transform="translate(-360.676 -284.726)" fill="none" stroke="#000" stroke-linecap="round" stroke-linejoin="round" stroke-width="1"/>
            </g>
          </g>
        </g>
        <g id="Group_1171" data-name="Group 1171" transform="translate(396.593 367.024)" opacity="0.3" style="isolation: isolate">
          <g id="Group_1170" data-name="Group 1170">
            <g id="Group_1169" data-name="Group 1169" clip-path="url(#clip-path-8)">
              <path id="Path_1810" data-name="Path 1810" d="M338.855,292.186l-2.371-6.816H308.32v47.155h59.356v-40.34Z" transform="translate(-307.676 -284.726)" fill="none" stroke="#000" stroke-linecap="round" stroke-linejoin="round" stroke-width="1"/>
            </g>
          </g>
        </g>
        <g id="Group_1174" data-name="Group 1174" transform="translate(22.083 83.629)" opacity="0.3" style="isolation: isolate">
          <g id="Group_1173" data-name="Group 1173">
            <g id="Group_1172" data-name="Group 1172" clip-path="url(#clip-path-6)">
              <path id="Path_1811" data-name="Path 1811" d="M48.175,72.226,45.817,65.41H17.64v47.142H77V72.226Z" transform="translate(-16.996 -64.766)" fill="none" stroke="#000" stroke-linecap="round" stroke-linejoin="round" stroke-width="1"/>
            </g>
          </g>
        </g>
        <rect id="Rectangle_533" data-name="Rectangle 533" width="68.014" height="13.605" transform="translate(539.385 146.323)" fill="none" stroke="#ababab" stroke-miterlimit="10" stroke-width="1"/>
        <rect id="Rectangle_534" data-name="Rectangle 534" width="68.014" height="13.605" transform="translate(539.385 163.329)" fill="none" stroke="#ababab" stroke-miterlimit="10" stroke-width="1"/>
        <rect id="Rectangle_535" data-name="Rectangle 535" width="68.014" height="13.605" transform="translate(539.385 180.349)" fill="none" stroke="#ababab" stroke-miterlimit="10" stroke-width="1"/>
        <rect id="Rectangle_536" data-name="Rectangle 536" width="68.014" height="13.605" transform="translate(539.385 197.356)" fill="none" stroke="#ababab" stroke-miterlimit="10" stroke-width="1"/>
        <rect id="Rectangle_537" data-name="Rectangle 537" width="68.014" height="13.605" transform="translate(539.385 214.363)" fill="none" stroke="#ababab" stroke-miterlimit="10" stroke-width="1"/>
        <path id="Path_1812" data-name="Path 1812" d="M457,119.712a2.5,2.5,0,1,0-2.512,2.487h.026A2.486,2.486,0,0,0,457,119.712Z" transform="translate(130.353 33.799)" fill="none" stroke="#ababab" stroke-miterlimit="10" stroke-width="1"/>
        <path id="Path_1813" data-name="Path 1813" d="M463.753,119.707a2.474,2.474,0,1,0,0,.026Z" transform="translate(132.308 33.805)" fill="none" stroke="#ababab" stroke-miterlimit="10" stroke-width="1"/>
        <path id="Path_1814" data-name="Path 1814" d="M454.507,130.1a2.487,2.487,0,1,1-2.487,2.487A2.486,2.486,0,0,1,454.507,130.1Z" transform="translate(130.359 37.52)" fill="none" stroke="#ababab" stroke-miterlimit="10" stroke-width="1"/>
        <path id="Path_1815" data-name="Path 1815" d="M461.267,130.1a2.487,2.487,0,1,1-2.487,2.487A2.486,2.486,0,0,1,461.267,130.1Z" transform="translate(132.308 37.52)" fill="none" stroke="#ababab" stroke-miterlimit="10" stroke-width="1"/>
        <path id="Path_1816" data-name="Path 1816" d="M454.507,142.98a2.487,2.487,0,1,1-2.487,2.487A2.486,2.486,0,0,1,454.507,142.98Z" transform="translate(130.359 41.234)" fill="none" stroke="#ababab" stroke-miterlimit="10" stroke-width="1"/>
        <path id="Path_1817" data-name="Path 1817" d="M461.267,142.98a2.487,2.487,0,1,1-2.487,2.487A2.486,2.486,0,0,1,461.267,142.98Z" transform="translate(132.308 41.234)" fill="none" stroke="#ababab" stroke-miterlimit="10" stroke-width="1"/>
        <path id="Path_1818" data-name="Path 1818" d="M457,158.362a2.5,2.5,0,1,0-2.512,2.487h.026A2.5,2.5,0,0,0,457,158.362Z" transform="translate(130.353 44.946)" fill="none" stroke="#ababab" stroke-miterlimit="10" stroke-width="1"/>
        <path id="Path_1819" data-name="Path 1819" d="M463.753,158.357a2.487,2.487,0,1,0-2.487,2.487A2.486,2.486,0,0,0,463.753,158.357Z" transform="translate(132.308 44.952)" fill="none" stroke="#ababab" stroke-miterlimit="10" stroke-width="1"/>
        <path id="Path_1820" data-name="Path 1820" d="M454.507,168.75a2.487,2.487,0,1,1-2.487,2.487A2.487,2.487,0,0,1,454.507,168.75Z" transform="translate(130.359 48.666)" fill="none" stroke="#ababab" stroke-miterlimit="10" stroke-width="1"/>
        <path id="Path_1821" data-name="Path 1821" d="M461.267,168.75a2.487,2.487,0,1,1-2.487,2.487A2.487,2.487,0,0,1,461.267,168.75Z" transform="translate(132.308 48.666)" fill="none" stroke="#ababab" stroke-miterlimit="10" stroke-width="1"/>
        <path id="Path_1822" data-name="Path 1822" d="M489.875,145.779V.5h-212v438H488.754V228.649" transform="translate(80.135 0.144)" fill="none" stroke="#ababab" stroke-miterlimit="10" stroke-width="1"/>
        <rect id="Rectangle_538" data-name="Rectangle 538" width="330.382" height="334.685" transform="translate(201.955 25.394)" fill="#06283d"/>
        <rect id="Rectangle_539" data-name="Rectangle 539" width="330.382" height="334.685" transform="translate(201.955 25.394)" fill="none" stroke="#263238" stroke-linecap="round" stroke-linejoin="round" stroke-width="1"/>
        <rect id="Rectangle_540" data-name="Rectangle 540" width="336.837" height="335.278" transform="translate(190.759 18.282)" fill="#fff"/>
        <rect id="Rectangle_541" data-name="Rectangle 541" width="336.837" height="335.278" transform="translate(190.759 18.282)" fill="none" stroke="#263238" stroke-linecap="round" stroke-linejoin="round" stroke-width="1"/>
        <rect id="Rectangle_542" data-name="Rectangle 542" width="9.044" height="335.278" transform="translate(518.565 18.282)" fill="#dedede"/>
        <rect id="Rectangle_543" data-name="Rectangle 543" width="9.044" height="335.278" transform="translate(518.565 18.282)" fill="none" stroke="#263238" stroke-linecap="round" stroke-linejoin="round" stroke-width="1"/>
        <rect id="Rectangle_544" data-name="Rectangle 544" width="9.044" height="67.641" transform="translate(518.565 64.961)" fill="#b8b8b8"/>
        <rect id="Rectangle_545" data-name="Rectangle 545" width="9.044" height="67.641" transform="translate(518.565 64.961)" fill="none" stroke="#263238" stroke-linecap="round" stroke-linejoin="round" stroke-width="1"/>
        <rect id="Rectangle_546" data-name="Rectangle 546" width="9.045" height="335.278" transform="translate(300.401 18.282)" fill="#dedede"/>
        <rect id="Rectangle_547" data-name="Rectangle 547" width="9.045" height="335.278" transform="translate(300.401 18.282)" fill="none" stroke="#263238" stroke-linecap="round" stroke-linejoin="round" stroke-width="1"/>
        <rect id="Rectangle_548" data-name="Rectangle 548" width="9.045" height="137.214" transform="translate(300.401 64.961)" fill="#b8b8b8"/>
        <rect id="Rectangle_549" data-name="Rectangle 549" width="9.045" height="137.214" transform="translate(300.401 64.961)" fill="none" stroke="#263238" stroke-linecap="round" stroke-linejoin="round" stroke-width="1"/>
        <rect id="Rectangle_550" data-name="Rectangle 550" width="109.938" height="335.278" transform="translate(190.759 18.282)" fill="#fff"/>
        <rect id="Rectangle_551" data-name="Rectangle 551" width="109.938" height="335.278" transform="translate(190.759 18.282)" fill="none" stroke="#263238" stroke-linecap="round" stroke-linejoin="round" stroke-width="1"/>
        <rect id="Rectangle_552" data-name="Rectangle 552" width="336.837" height="29.929" transform="translate(190.759 18.282)" fill="#dedede"/>
        <rect id="Rectangle_553" data-name="Rectangle 553" width="336.837" height="29.929" transform="translate(190.759 18.282)" fill="none" stroke="#263238" stroke-linecap="round" stroke-linejoin="round" stroke-width="1"/>
        <rect id="Rectangle_554" data-name="Rectangle 554" width="105.313" height="56.754" transform="translate(193.542 125.837)" fill="#3330e4"/>
        <rect id="Rectangle_555" data-name="Rectangle 555" width="336.837" height="15.834" transform="translate(190.759 18.282)" fill="#06283d"/>
        <rect id="Rectangle_556" data-name="Rectangle 556" width="336.837" height="15.834" transform="translate(190.759 18.282)" fill="none" stroke="#263238" stroke-linecap="round" stroke-linejoin="round" stroke-width="1"/>
        <path id="Path_1823" data-name="Path 1823" d="M384.221,21.651a3.7,3.7,0,1,0,0,.026v-.026" transform="translate(108.666 5.174)" fill="#fff"/>
        <path id="Path_1824" data-name="Path 1824" d="M384.221,21.651a3.7,3.7,0,1,0,0,.026Z" transform="translate(108.666 5.174)" fill="none" stroke="#263238" stroke-linecap="round" stroke-linejoin="round" stroke-width="1"/>
        <path id="Path_1825" data-name="Path 1825" d="M392.951,21.651a3.7,3.7,0,1,0,0,.026v-.026" transform="translate(111.184 5.174)" fill="#fff"/>
        <path id="Path_1826" data-name="Path 1826" d="M392.951,21.651a3.7,3.7,0,1,0,0,.026Z" transform="translate(111.184 5.174)" fill="none" stroke="#263238" stroke-linecap="round" stroke-linejoin="round" stroke-width="1"/>
        <path id="Path_1827" data-name="Path 1827" d="M401.681,21.651a3.7,3.7,0,1,0,0,.026v-.026" transform="translate(113.701 5.174)" fill="#fff"/>
        <path id="Path_1828" data-name="Path 1828" d="M401.681,21.651a3.7,3.7,0,1,0,0,.026Z" transform="translate(113.701 5.174)" fill="none" stroke="#263238" stroke-linecap="round" stroke-linejoin="round" stroke-width="1"/>
        <path id="Path_1829" data-name="Path 1829" d="M199.274,63.856l-2.139-6.146H171.78v42.465h53.442V63.856Z" transform="translate(49.54 16.643)" fill="#fff"/>
        <path id="Path_1830" data-name="Path 1830" d="M199.274,63.856l-2.139-6.146H171.78v42.465h53.442V63.856Z" transform="translate(49.54 16.643)" fill="none" stroke="#263238" stroke-linecap="round" stroke-linejoin="round" stroke-width="1"/>
        <rect id="Rectangle_557" data-name="Rectangle 557" width="48.74" height="26.811" transform="translate(223.665 84.055)" fill="#fff"/>
        <rect id="Rectangle_558" data-name="Rectangle 558" width="48.74" height="26.811" transform="translate(223.665 84.055)" fill="none" stroke="#263238" stroke-linecap="round" stroke-linejoin="round" stroke-width="1"/>
        <rect id="Rectangle_559" data-name="Rectangle 559" width="53.442" height="26.811" transform="translate(221.32 90.007)" fill="#fff"/>
        <rect id="Rectangle_560" data-name="Rectangle 560" width="53.442" height="26.811" transform="translate(221.32 90.007)" fill="none" stroke="#263238" stroke-linecap="round" stroke-linejoin="round" stroke-width="1"/>
        <path id="Path_1831" data-name="Path 1831" d="M199.274,160.353l-2.139-6.133H171.78v42.452h53.442v-36.32Z" transform="translate(49.54 44.476)" fill="#fff"/>
        <path id="Path_1832" data-name="Path 1832" d="M199.274,160.353l-2.139-6.133H171.78v42.452h53.442v-36.32Z" transform="translate(49.54 44.476)" fill="none" stroke="#263238" stroke-linecap="round" stroke-linejoin="round" stroke-width="1"/>
        <rect id="Rectangle_561" data-name="Rectangle 561" width="48.74" height="26.811" transform="translate(223.665 208.384)" fill="#fff"/>
        <rect id="Rectangle_562" data-name="Rectangle 562" width="48.74" height="26.811" transform="translate(223.665 208.384)" fill="none" stroke="#263238" stroke-linecap="round" stroke-linejoin="round" stroke-width="1"/>
        <rect id="Rectangle_563" data-name="Rectangle 563" width="53.442" height="26.811" transform="translate(221.32 214.337)" fill="#fff"/>
        <rect id="Rectangle_564" data-name="Rectangle 564" width="53.442" height="26.811" transform="translate(221.32 214.337)" fill="none" stroke="#263238" stroke-linecap="round" stroke-linejoin="round" stroke-width="1"/>
        <path id="Path_1833" data-name="Path 1833" d="M199.274,209.6l-2.139-6.133H171.78v42.452h53.442V209.6Z" transform="translate(49.54 58.679)" fill="#fff"/>
        <path id="Path_1834" data-name="Path 1834" d="M199.274,209.6l-2.139-6.133H171.78v42.452h53.442V209.6Z" transform="translate(49.54 58.679)" fill="none" stroke="#263238" stroke-linecap="round" stroke-linejoin="round" stroke-width="1"/>
        <rect id="Rectangle_565" data-name="Rectangle 565" width="48.74" height="26.811" transform="translate(223.665 271.838)" fill="#fff"/>
        <rect id="Rectangle_566" data-name="Rectangle 566" width="48.74" height="26.811" transform="translate(223.665 271.838)" fill="none" stroke="#263238" stroke-linecap="round" stroke-linejoin="round" stroke-width="1"/>
        <rect id="Rectangle_567" data-name="Rectangle 567" width="53.442" height="26.811" transform="translate(221.32 277.79)" fill="#fff"/>
        <rect id="Rectangle_568" data-name="Rectangle 568" width="53.442" height="26.811" transform="translate(221.32 277.79)" fill="none" stroke="#263238" stroke-linecap="round" stroke-linejoin="round" stroke-width="1"/>
        <path id="Path_1835" data-name="Path 1835" d="M199.274,109.856l-2.139-6.146H171.78v42.465h53.442v-36.32Z" transform="translate(49.54 29.909)" fill="#06283d"/>
        <path id="Path_1836" data-name="Path 1836" d="M199.274,109.856l-2.139-6.146H171.78v42.465h53.442v-36.32Z" transform="translate(49.54 29.909)" fill="none" stroke="#263238" stroke-linecap="round" stroke-linejoin="round" stroke-width="1"/>
        <rect id="Rectangle_569" data-name="Rectangle 569" width="48.74" height="26.811" transform="translate(223.665 143.321)" fill="#fff"/>
        <rect id="Rectangle_570" data-name="Rectangle 570" width="48.74" height="26.811" transform="translate(223.665 143.321)" fill="none" stroke="#263238" stroke-linecap="round" stroke-linejoin="round" stroke-width="1"/>
        <rect id="Rectangle_571" data-name="Rectangle 571" width="53.442" height="26.811" transform="translate(221.32 149.273)" fill="#263238"/>
        <rect id="Rectangle_572" data-name="Rectangle 572" width="53.442" height="26.811" transform="translate(221.32 149.273)" fill="none" stroke="#3330e4" stroke-linecap="round" stroke-linejoin="round" stroke-width="1"/>
        <rect id="Rectangle_573" data-name="Rectangle 573" width="49.178" height="63.157" transform="translate(321.222 76.981)" fill="#fff"/>
        <rect id="Rectangle_574" data-name="Rectangle 574" width="49.178" height="63.157" transform="translate(321.222 76.981)" fill="none" stroke="#263238" stroke-linecap="round" stroke-linejoin="round" stroke-width="1"/>
        <line id="Line_241" data-name="Line 241" x2="35.572" transform="translate(327.805 89.647)" fill="none" stroke="#263238" stroke-linecap="round" stroke-linejoin="round" stroke-width="1"/>
        <line id="Line_242" data-name="Line 242" x2="35.572" transform="translate(327.805 100.624)" fill="none" stroke="#263238" stroke-linecap="round" stroke-linejoin="round" stroke-width="1"/>
        <line id="Line_243" data-name="Line 243" x2="35.572" transform="translate(327.805 111.601)" fill="none" stroke="#263238" stroke-linecap="round" stroke-linejoin="round" stroke-width="1"/>
        <line id="Line_244" data-name="Line 244" x2="35.572" transform="translate(327.805 122.578)" fill="none" stroke="#263238" stroke-linecap="round" stroke-linejoin="round" stroke-width="1"/>
        <rect id="Rectangle_575" data-name="Rectangle 575" width="49.178" height="63.157" transform="translate(386.286 76.981)" fill="#fff"/>
        <rect id="Rectangle_576" data-name="Rectangle 576" width="49.178" height="63.157" transform="translate(386.286 76.981)" fill="none" stroke="#263238" stroke-linecap="round" stroke-linejoin="round" stroke-width="1"/>
        <line id="Line_245" data-name="Line 245" x2="35.572" transform="translate(392.869 89.647)" fill="none" stroke="#263238" stroke-linecap="round" stroke-linejoin="round" stroke-width="1"/>
        <line id="Line_246" data-name="Line 246" x2="35.572" transform="translate(392.869 100.624)" fill="none" stroke="#263238" stroke-linecap="round" stroke-linejoin="round" stroke-width="1"/>
        <line id="Line_247" data-name="Line 247" x2="35.572" transform="translate(392.869 111.601)" fill="none" stroke="#263238" stroke-linecap="round" stroke-linejoin="round" stroke-width="1"/>
        <line id="Line_248" data-name="Line 248" x2="35.572" transform="translate(392.869 122.578)" fill="none" stroke="#263238" stroke-linecap="round" stroke-linejoin="round" stroke-width="1"/>
        <rect id="Rectangle_577" data-name="Rectangle 577" width="49.178" height="63.157" transform="translate(451.349 76.981)" fill="#fff"/>
        <rect id="Rectangle_578" data-name="Rectangle 578" width="49.178" height="63.157" transform="translate(451.349 76.981)" fill="none" stroke="#263238" stroke-linecap="round" stroke-linejoin="round" stroke-width="1"/>
        <line id="Line_249" data-name="Line 249" x2="35.572" transform="translate(457.933 89.647)" fill="none" stroke="#263238" stroke-linecap="round" stroke-linejoin="round" stroke-width="1"/>
        <line id="Line_250" data-name="Line 250" x2="35.572" transform="translate(457.933 100.624)" fill="none" stroke="#263238" stroke-linecap="round" stroke-linejoin="round" stroke-width="1"/>
        <line id="Line_251" data-name="Line 251" x2="35.572" transform="translate(457.933 111.601)" fill="none" stroke="#263238" stroke-linecap="round" stroke-linejoin="round" stroke-width="1"/>
        <line id="Line_252" data-name="Line 252" x2="35.572" transform="translate(457.933 122.578)" fill="none" stroke="#263238" stroke-linecap="round" stroke-linejoin="round" stroke-width="1"/>
        <line id="Line_253" data-name="Line 253" x2="45.738" transform="translate(322.729 153.86)" fill="none" stroke="#263238" stroke-linecap="round" stroke-linejoin="round" stroke-width="1"/>
        <line id="Line_254" data-name="Line 254" x2="45.738" transform="translate(388.437 153.86)" fill="none" stroke="#263238" stroke-linecap="round" stroke-linejoin="round" stroke-width="1"/>
        <line id="Line_255" data-name="Line 255" x2="45.738" transform="translate(454.145 153.86)" fill="none" stroke="#263238" stroke-linecap="round" stroke-linejoin="round" stroke-width="1"/>
        <rect id="Rectangle_579" data-name="Rectangle 579" width="49.178" height="63.157" transform="translate(321.222 171.034)" fill="#fff"/>
        <rect id="Rectangle_580" data-name="Rectangle 580" width="49.178" height="63.157" transform="translate(321.222 171.034)" fill="none" stroke="#263238" stroke-linecap="round" stroke-linejoin="round" stroke-width="1"/>
        <line id="Line_256" data-name="Line 256" x2="35.572" transform="translate(327.805 183.699)" fill="none" stroke="#263238" stroke-linecap="round" stroke-linejoin="round" stroke-width="1"/>
        <line id="Line_257" data-name="Line 257" x2="35.572" transform="translate(327.805 194.676)" fill="none" stroke="#263238" stroke-linecap="round" stroke-linejoin="round" stroke-width="1"/>
        <line id="Line_258" data-name="Line 258" x2="35.572" transform="translate(327.805 205.653)" fill="none" stroke="#263238" stroke-linecap="round" stroke-linejoin="round" stroke-width="1"/>
        <line id="Line_259" data-name="Line 259" x2="35.572" transform="translate(327.805 216.63)" fill="none" stroke="#263238" stroke-linecap="round" stroke-linejoin="round" stroke-width="1"/>
        <rect id="Rectangle_581" data-name="Rectangle 581" width="49.178" height="63.157" transform="translate(386.286 171.034)" fill="#fff"/>
        <rect id="Rectangle_582" data-name="Rectangle 582" width="49.178" height="63.157" transform="translate(386.286 171.034)" fill="none" stroke="#263238" stroke-linecap="round" stroke-linejoin="round" stroke-width="1"/>
        <line id="Line_260" data-name="Line 260" x2="35.572" transform="translate(392.869 183.699)" fill="none" stroke="#263238" stroke-linecap="round" stroke-linejoin="round" stroke-width="1"/>
        <line id="Line_261" data-name="Line 261" x2="35.572" transform="translate(392.869 194.676)" fill="none" stroke="#263238" stroke-linecap="round" stroke-linejoin="round" stroke-width="1"/>
        <line id="Line_262" data-name="Line 262" x2="35.572" transform="translate(392.869 205.653)" fill="none" stroke="#263238" stroke-linecap="round" stroke-linejoin="round" stroke-width="1"/>
        <line id="Line_263" data-name="Line 263" x2="35.572" transform="translate(392.869 216.63)" fill="none" stroke="#263238" stroke-linecap="round" stroke-linejoin="round" stroke-width="1"/>
        <rect id="Rectangle_583" data-name="Rectangle 583" width="49.178" height="63.157" transform="translate(451.349 171.034)" fill="#fff"/>
        <rect id="Rectangle_584" data-name="Rectangle 584" width="49.178" height="63.157" transform="translate(451.349 171.034)" fill="none" stroke="#263238" stroke-linecap="round" stroke-linejoin="round" stroke-width="1"/>
        <line id="Line_264" data-name="Line 264" x2="35.572" transform="translate(457.933 183.699)" fill="none" stroke="#263238" stroke-linecap="round" stroke-linejoin="round" stroke-width="1"/>
        <line id="Line_265" data-name="Line 265" x2="35.572" transform="translate(457.933 194.676)" fill="none" stroke="#263238" stroke-linecap="round" stroke-linejoin="round" stroke-width="1"/>
        <line id="Line_266" data-name="Line 266" x2="35.572" transform="translate(457.933 205.653)" fill="none" stroke="#263238" stroke-linecap="round" stroke-linejoin="round" stroke-width="1"/>
        <line id="Line_267" data-name="Line 267" x2="35.572" transform="translate(457.933 216.63)" fill="none" stroke="#263238" stroke-linecap="round" stroke-linejoin="round" stroke-width="1"/>
        <line id="Line_268" data-name="Line 268" x2="45.738" transform="translate(322.729 247.913)" fill="none" stroke="#263238" stroke-linecap="round" stroke-linejoin="round" stroke-width="1"/>
        <line id="Line_269" data-name="Line 269" x2="45.738" transform="translate(388.437 247.913)" fill="none" stroke="#263238" stroke-linecap="round" stroke-linejoin="round" stroke-width="1"/>
        <line id="Line_270" data-name="Line 270" x2="45.738" transform="translate(454.145 247.913)" fill="none" stroke="#263238" stroke-linecap="round" stroke-linejoin="round" stroke-width="1"/>
        <rect id="Rectangle_585" data-name="Rectangle 585" width="49.178" height="63.157" transform="translate(321.222 265.087)" fill="#fff"/>
        <rect id="Rectangle_586" data-name="Rectangle 586" width="49.178" height="63.157" transform="translate(321.222 265.087)" fill="none" stroke="#263238" stroke-linecap="round" stroke-linejoin="round" stroke-width="1"/>
        <line id="Line_271" data-name="Line 271" x2="35.572" transform="translate(327.805 277.752)" fill="none" stroke="#263238" stroke-linecap="round" stroke-linejoin="round" stroke-width="1"/>
        <line id="Line_272" data-name="Line 272" x2="35.572" transform="translate(327.805 288.729)" fill="none" stroke="#263238" stroke-linecap="round" stroke-linejoin="round" stroke-width="1"/>
        <line id="Line_273" data-name="Line 273" x2="35.572" transform="translate(327.805 299.706)" fill="none" stroke="#263238" stroke-linecap="round" stroke-linejoin="round" stroke-width="1"/>
        <line id="Line_274" data-name="Line 274" x2="35.572" transform="translate(327.805 310.683)" fill="none" stroke="#263238" stroke-linecap="round" stroke-linejoin="round" stroke-width="1"/>
        <rect id="Rectangle_587" data-name="Rectangle 587" width="49.178" height="63.157" transform="translate(386.286 265.087)" fill="#fff"/>
        <rect id="Rectangle_588" data-name="Rectangle 588" width="49.178" height="63.157" transform="translate(386.286 265.087)" fill="none" stroke="#263238" stroke-linecap="round" stroke-linejoin="round" stroke-width="1"/>
        <line id="Line_275" data-name="Line 275" x2="35.572" transform="translate(392.869 277.752)" fill="none" stroke="#263238" stroke-linecap="round" stroke-linejoin="round" stroke-width="1"/>
        <line id="Line_276" data-name="Line 276" x2="35.572" transform="translate(392.869 288.729)" fill="none" stroke="#263238" stroke-linecap="round" stroke-linejoin="round" stroke-width="1"/>
        <line id="Line_277" data-name="Line 277" x2="35.572" transform="translate(392.869 299.706)" fill="none" stroke="#263238" stroke-linecap="round" stroke-linejoin="round" stroke-width="1"/>
        <line id="Line_278" data-name="Line 278" x2="35.572" transform="translate(392.869 310.683)" fill="none" stroke="#263238" stroke-linecap="round" stroke-linejoin="round" stroke-width="1"/>
        <rect id="Rectangle_589" data-name="Rectangle 589" width="49.178" height="63.157" transform="translate(451.349 265.087)" fill="#fff"/>
        <rect id="Rectangle_590" data-name="Rectangle 590" width="49.178" height="63.157" transform="translate(451.349 265.087)" fill="none" stroke="#263238" stroke-linecap="round" stroke-linejoin="round" stroke-width="1"/>
        <line id="Line_279" data-name="Line 279" x2="35.572" transform="translate(457.933 277.752)" fill="none" stroke="#263238" stroke-linecap="round" stroke-linejoin="round" stroke-width="1"/>
        <line id="Line_280" data-name="Line 280" x2="35.572" transform="translate(457.933 288.729)" fill="none" stroke="#263238" stroke-linecap="round" stroke-linejoin="round" stroke-width="1"/>
        <line id="Line_281" data-name="Line 281" x2="35.572" transform="translate(457.933 299.706)" fill="none" stroke="#263238" stroke-linecap="round" stroke-linejoin="round" stroke-width="1"/>
        <line id="Line_282" data-name="Line 282" x2="35.572" transform="translate(457.933 310.683)" fill="none" stroke="#263238" stroke-linecap="round" stroke-linejoin="round" stroke-width="1"/>
        <line id="Line_283" data-name="Line 283" x2="45.738" transform="translate(322.729 341.965)" fill="none" stroke="#263238" stroke-linecap="round" stroke-linejoin="round" stroke-width="1"/>
        <line id="Line_284" data-name="Line 284" x2="45.738" transform="translate(388.437 341.965)" fill="none" stroke="#263238" stroke-linecap="round" stroke-linejoin="round" stroke-width="1"/>
        <line id="Line_285" data-name="Line 285" x2="45.738" transform="translate(454.145 341.965)" fill="none" stroke="#263238" stroke-linecap="round" stroke-linejoin="round" stroke-width="1"/>
        <rect id="Rectangle_591" data-name="Rectangle 591" width="141.079" height="6.442" transform="translate(250.579 37.904)" fill="#fff"/>
        <rect id="Rectangle_592" data-name="Rectangle 592" width="141.079" height="6.442" transform="translate(250.579 37.904)" fill="none" stroke="#263238" stroke-linecap="round" stroke-linejoin="round" stroke-width="1"/>
        <rect id="Rectangle_593" data-name="Rectangle 593" width="42.517" height="6.442" transform="translate(401.321 37.904)" fill="#fff"/>
        <rect id="Rectangle_594" data-name="Rectangle 594" width="42.517" height="6.442" transform="translate(401.321 37.904)" fill="none" stroke="#263238" stroke-linecap="round" stroke-linejoin="round" stroke-width="1"/>
        <path id="Path_1837" data-name="Path 1837" d="M254.954,53.843h-1.16L252,45.236v8.606H250.96V43.02h1.688l1.765,8.645,1.726-8.645h1.675V53.843H256.68v-8.7Z" transform="translate(72.375 12.407)" fill="#06283d"/>
        <path id="Path_1838" data-name="Path 1838" d="M259.24,49.975l-2.28-6.944h1.288l1.688,5.321,1.7-5.321h1.16l-2.358,6.944V53.84h-1.2Z" transform="translate(74.105 12.41)" fill="#06283d"/>
        <path id="Path_1839" data-name="Path 1839" d="M267.665,48.058v1.108h-2.487v4.677h-1.2V43.02h4.29v1.108h-3.092v3.93Z" transform="translate(76.13 12.407)" fill="#06283d"/>
        <rect id="Rectangle_595" data-name="Rectangle 595" width="1.198" height="10.822" transform="translate(345.366 55.427)" fill="#06283d"/>
        <path id="Path_1840" data-name="Path 1840" d="M269.95,53.843V43.02h1.211v9.727h3.092v1.1Z" transform="translate(77.851 12.407)" fill="#06283d"/>
        <path id="Path_1841" data-name="Path 1841" d="M277.828,47.813V48.9h-2.641V52.76h3.3v1.082H274.04V43.02h4.445v1.108h-3.247v3.685Z" transform="translate(79.031 12.407)" fill="#06283d"/>
        <path id="Path_1842" data-name="Path 1842" d="M283.057,45.654v.3h-1.147V45.59c0-.966-.361-1.546-1.288-1.546s-1.288.58-1.288,1.533c0,2.422,3.633,2.654,3.633,5.708,0,1.636-.786,2.693-2.435,2.693s-2.422-1.056-2.422-2.693v-.618h1.121V51.3c0,.979.4,1.546,1.288,1.546s1.288-.567,1.288-1.546c0-2.409-3.62-2.577-3.62-5.682,0-1.675.773-2.706,2.4-2.706s2.474,1.108,2.474,2.744" transform="translate(80.205 12.375)" fill="#06283d"/>
        <path id="Path_1843" data-name="Path 1843" d="M150.328,197.25l36.964-43.612s.374-9.985-.361-11.827,1.842-9.611,2.577-12.2-1.469-7.022,1.108-7.022,3.337,7.022,3.337,8.13v1.108s6.274-15.525,7.022-16.994,2.95-2.963,3.7,0-3.7,14.134-3.7,14.134a5.244,5.244,0,0,1,5.154,1.842c1.855,2.577,3.324,1.482,4.071,3.337a29.313,29.313,0,0,1,1.108,3.324s4.806,2.216,5.154,3.7-7.73,1.108-7.73,1.108-7.73,12.562-10.719,14.043a31.68,31.68,0,0,0-5.54,3.7S170.3,209.9,166.227,216.563s-17.007,2.216-17.007,2.216Z" transform="translate(43.034 32.624)" fill="#fff"/>
        <path id="Path_1844" data-name="Path 1844" d="M150.328,197.25l36.964-43.612s.374-9.985-.361-11.827,1.842-9.611,2.577-12.2-1.469-7.022,1.108-7.022,3.337,7.022,3.337,8.13v1.108s6.274-15.525,7.022-16.994,2.95-2.963,3.7,0-3.7,14.134-3.7,14.134a5.244,5.244,0,0,1,5.154,1.842c1.855,2.577,3.324,1.482,4.071,3.337a29.313,29.313,0,0,1,1.108,3.324s4.806,2.216,5.154,3.7-7.73,1.108-7.73,1.108-7.73,12.562-10.719,14.043a31.68,31.68,0,0,0-5.54,3.7S170.3,209.9,166.227,216.563s-17.007,2.216-17.007,2.216Z" transform="translate(43.034 32.624)" fill="none" stroke="#263238" stroke-linecap="round" stroke-linejoin="round" stroke-width="1"/>
        <path id="Path_1845" data-name="Path 1845" d="M46.8,321.02l5.154,32.21s-13.309,30.3-9.611,45.828,15.886,65.051,15.886,65.051-1.842,19.957-.734,21.813,9.611,1.469,11.827.734,5.154-2.216,5.154-8.13S71.141,463,71.141,458.942s-.361-47.67,6.661-75.036a191.44,191.44,0,0,0,5.54-53.223c.052-1.907-36.539-9.663-36.539-9.663" transform="translate(12.025 92.579)" fill="#fff"/>
        <path id="Path_1846" data-name="Path 1846" d="M46.8,321.02l5.154,32.21s-13.309,30.3-9.611,45.828,15.886,65.051,15.886,65.051-1.842,19.957-.734,21.813,9.611,1.469,11.827.734,5.154-2.216,5.154-8.13S71.141,463,71.141,458.942s-.361-47.67,6.661-75.036a191.44,191.44,0,0,0,5.54-53.223C83.393,328.776,46.8,321.02,46.8,321.02Z" transform="translate(12.025 92.579)" fill="none" stroke="#263238" stroke-linecap="round" stroke-linejoin="round" stroke-width="1"/>
        <path id="Path_1847" data-name="Path 1847" d="M54.072,439.631c-.361,5.489-.606,11.6,0,12.575,1.108,1.842,9.611,1.469,11.827.734s5.154-2.216,5.154-8.13a36.826,36.826,0,0,0-.928-7.06,19.713,19.713,0,0,1-16.053,1.881" transform="translate(15.488 126.243)" fill="#06283d"/>
        <path id="Path_1848" data-name="Path 1848" d="M54.072,439.631c-.361,5.489-.606,11.6,0,12.575,1.108,1.842,9.611,1.469,11.827.734s5.154-2.216,5.154-8.13a36.826,36.826,0,0,0-.928-7.06A19.713,19.713,0,0,1,54.072,439.631Z" transform="translate(15.488 126.243)" fill="none" stroke="#263238" stroke-linecap="round" stroke-linejoin="round" stroke-width="1"/>
        <path id="Path_1849" data-name="Path 1849" d="M65.885,450.44a6.609,6.609,0,0,0,4.509-4.02,78.452,78.452,0,0,1-16.672.683,7.046,7.046,0,0,0,.335,2.577c1.108,1.894,9.676,1.495,11.827.76" transform="translate(15.49 128.744)" fill="#fff"/>
        <path id="Path_1850" data-name="Path 1850" d="M65.885,450.44a6.609,6.609,0,0,0,4.509-4.02,78.452,78.452,0,0,1-16.672.683,7.046,7.046,0,0,0,.335,2.577C55.165,451.574,63.733,451.174,65.885,450.44Z" transform="translate(15.49 128.744)" fill="none" stroke="#263238" stroke-linecap="round" stroke-linejoin="round" stroke-width="1"/>
        <path id="Path_1851" data-name="Path 1851" d="M103.32,327.2l11.093,19.584s.734,26.618,9.985,48.044,34,66.533,34.361,68.014,0,7.4,0,12.884.747,10.719,2.963,11.093,9.611,2.216,18.849,3.7,12.562-.747,13.309-2.577-7.73-7.73-11.827-12.575-10.307-12.884-12.884-21.426-9.611-65.064-13.309-76.518-9.238-33.266-9.238-33.266l-3.7-26.605Z" transform="translate(29.797 91.579)" fill="#fff"/>
        <path id="Path_1852" data-name="Path 1852" d="M103.32,327.2l11.093,19.584s.734,26.618,9.985,48.044,34,66.533,34.361,68.014,0,7.4,0,12.884.747,10.719,2.963,11.093,9.611,2.216,18.849,3.7,12.562-.747,13.309-2.577-7.73-7.73-11.827-12.575-10.307-12.884-12.884-21.426-9.611-65.064-13.309-76.518-9.238-33.266-9.238-33.266l-3.7-26.605Z" transform="translate(29.797 91.579)" fill="none" stroke="#263238" stroke-linecap="round" stroke-linejoin="round" stroke-width="1"/>
        <path id="Path_1853" data-name="Path 1853" d="M181.463,453.419c.3-.76-.953-2.2-2.822-3.968-5.553,2.667-14.275-3.5-21.207-9.019a12.46,12.46,0,0,0-11.054-2.706v3.44c0,5.54.747,10.719,2.963,11.093s9.611,2.216,18.849,3.7,12.523-.7,13.27-2.538" transform="translate(42.215 126.138)" fill="#06283d"/>
        <path id="Path_1854" data-name="Path 1854" d="M181.463,453.419c.3-.76-.953-2.2-2.822-3.968-5.553,2.667-14.275-3.5-21.207-9.019a12.46,12.46,0,0,0-11.054-2.706v3.44c0,5.54.747,10.719,2.963,11.093s9.611,2.216,18.849,3.7S180.716,455.261,181.463,453.419Z" transform="translate(42.215 126.138)" fill="none" stroke="#263238" stroke-linecap="round" stroke-linejoin="round" stroke-width="1"/>
        <path id="Path_1855" data-name="Path 1855" d="M180.314,452.665c-5.8,2.306-11.982-1.868-19.249-4.7a52.387,52.387,0,0,0-14.456-3.182c.412,2.976,1.224,5.154,2.577,5.4,2.216.361,9.611,2.216,18.849,3.7,7,1.108,10.629.129,12.278-1.211" transform="translate(42.281 128.271)" fill="#fff"/>
        <path id="Path_1856" data-name="Path 1856" d="M180.314,452.665c-5.8,2.306-11.982-1.868-19.249-4.7a52.387,52.387,0,0,0-14.456-3.182c.412,2.976,1.224,5.154,2.577,5.4,2.216.361,9.611,2.216,18.849,3.7C175.032,454.984,178.665,454,180.314,452.665Z" transform="translate(42.281 128.271)" fill="none" stroke="#263238" stroke-linecap="round" stroke-linejoin="round" stroke-width="1"/>
        <path id="Path_1857" data-name="Path 1857" d="M64.368,220.33s-19.957,27.34-22.547,48.044S43.677,355.6,43.677,355.6s8.5,6.661,44.346,9.238,76.518-14.778,76.518-14.778S153.448,286.85,147.16,268s-20.692-46.562-20.692-46.562Z" transform="translate(11.827 63.541)" fill="#06283d"/>
        <path id="Path_1858" data-name="Path 1858" d="M64.368,220.33s-19.957,27.34-22.547,48.044S43.677,355.6,43.677,355.6s8.5,6.661,44.346,9.238,76.518-14.778,76.518-14.778S153.448,286.85,147.16,268s-20.692-46.562-20.692-46.562Z" transform="translate(11.827 63.541)" fill="none" stroke="#263238" stroke-linecap="round" stroke-linejoin="round" stroke-width="1"/>
        <path id="Path_1859" data-name="Path 1859" d="M73.86,280.97c10.4,9.946,26.618,24.479,39.592,31.939" transform="translate(21.301 81.029)" fill="none" stroke="#878787" stroke-linecap="round" stroke-linejoin="round" stroke-width="1"/>
        <path id="Path_1860" data-name="Path 1860" d="M65.74,272.92s1.765,1.842,4.741,4.793" transform="translate(18.959 78.708)" fill="none" stroke="#878787" stroke-linecap="round" stroke-linejoin="round" stroke-width="1"/>
        <path id="Path_1861" data-name="Path 1861" d="M82.39,293.27s19.661,17.277,27.417,21.452" transform="translate(23.761 84.577)" fill="none" stroke="#878787" stroke-linecap="round" stroke-linejoin="round" stroke-width="1"/>
        <path id="Path_1862" data-name="Path 1862" d="M69.8,142.29S40.17,160.031,41.652,163.368,64.2,242.836,64.2,242.836s7.022,4.432,28.834,4.432,33.266-3.324,33.266-3.324L140.343,198.1l34.787,15.525s2.577-10.719,2.577-14.778-2.577-12.884-2.577-12.884-35.122-27.726-38.806-30.677S113.4,144.57,113.4,144.57Z" transform="translate(11.997 41.035)" fill="#fff"/>
        <path id="Path_1863" data-name="Path 1863" d="M69.8,142.29S40.17,160.031,41.652,163.368,64.2,242.836,64.2,242.836s7.022,4.432,28.834,4.432,33.266-3.324,33.266-3.324L140.343,198.1l34.787,15.525s2.577-10.719,2.577-14.778-2.577-12.884-2.577-12.884-35.122-27.726-38.806-30.677S113.4,144.57,113.4,144.57Z" transform="translate(11.997 41.035)" fill="none" stroke="#263238" stroke-linecap="round" stroke-linejoin="round" stroke-width="1"/>
        <path id="Path_1864" data-name="Path 1864" d="M88.17,194.78a36.442,36.442,0,0,0,4.368,4.819" transform="translate(25.427 56.173)" fill="none" stroke="#263238" stroke-linecap="round" stroke-linejoin="round" stroke-width="1"/>
        <path id="Path_1865" data-name="Path 1865" d="M76.07,170.7s5.282,15.4,12.794,27.056" transform="translate(21.938 49.228)" fill="none" stroke="#263238" stroke-linecap="round" stroke-linejoin="round" stroke-width="1"/>
        <path id="Path_1866" data-name="Path 1866" d="M79.8,189.92s8.5,12.884,15.151,17.741" transform="translate(23.014 54.771)" fill="none" stroke="#263238" stroke-linecap="round" stroke-linejoin="round" stroke-width="1"/>
        <line id="Line_286" data-name="Line 286" x1="12.935" y1="5.166" transform="translate(139.404 233.972)" fill="none" stroke="#263238" stroke-linecap="round" stroke-linejoin="round" stroke-width="1"/>
        <path id="Path_1867" data-name="Path 1867" d="M114.926,93.358a122.5,122.5,0,0,0,3.324,15.9c1.855,5.54,7.022,6.274,7.022,9.238S119,127.359,119,127.359s-2.577,16.272-5.154,18.115S100.96,142.9,100.96,142.9l-2.577,11.467-18.849-.374s1.108-11.827-1.482-18.476-4.806-11.467-4.806-11.467-6.648-21.8,11.467-28.821,30.213-1.868,30.213-1.868" transform="translate(20.78 26.398)" fill="#fff"/>
        <path id="Path_1868" data-name="Path 1868" d="M114.926,93.358a122.5,122.5,0,0,0,3.324,15.9c1.855,5.54,7.022,6.274,7.022,9.238S119,127.359,119,127.359s-2.577,16.272-5.154,18.115S100.96,142.9,100.96,142.9l-2.577,11.467-18.849-.374s1.108-11.827-1.482-18.476-4.806-11.467-4.806-11.467-6.648-21.8,11.467-28.821S114.926,93.358,114.926,93.358Z" transform="translate(20.78 26.398)" fill="none" stroke="#263238" stroke-linecap="round" stroke-linejoin="round" stroke-width="1"/>
        <path id="Path_1869" data-name="Path 1869" d="M104.458,120.648s.361-2.216,4.058-5.54,2.216-7.4,2.577-12.2,4.071-3.685,6.287-3.324,8.13-3.324,0-13.67-34.014-9.985-41.77-4.432S54.546,94.777,64.518,114s15.538,25.51,19.236,27.778,13.309-4.806,15.461-6.661,5.244-14.469,5.244-14.469" transform="translate(17.578 22.389)" fill="#06283d"/>
        <path id="Path_1870" data-name="Path 1870" d="M104.458,120.648s.361-2.216,4.058-5.54,2.216-7.4,2.577-12.2,4.071-3.685,6.287-3.324,8.13-3.324,0-13.67-34.014-9.985-41.77-4.432S54.546,94.777,64.518,114s15.538,25.51,19.236,27.778,13.309-4.806,15.461-6.661S104.458,120.648,104.458,120.648Z" transform="translate(17.578 22.389)" fill="none" stroke="#263238" stroke-linecap="round" stroke-linejoin="round" stroke-width="1"/>
        <path id="Path_1871" data-name="Path 1871" d="M83.715,90.9s-2.963,10.307-9.985,13.683S54.147,110.124,49.7,103.1,45.27,77.6,57.1,72.425s22.547,1.482,25.137,7.73S83.715,90.9,83.715,90.9" transform="translate(13.546 20.352)" fill="#06283d"/>
        <path id="Path_1872" data-name="Path 1872" d="M83.715,90.9s-2.963,10.307-9.985,13.683S54.147,110.124,49.7,103.1,45.27,77.6,57.1,72.425s22.547,1.482,25.137,7.73S83.715,90.9,83.715,90.9Z" transform="translate(13.546 20.352)" fill="none" stroke="#263238" stroke-linecap="round" stroke-linejoin="round" stroke-width="1"/>
        <path id="Path_1873" data-name="Path 1873" d="M98.5,115.217s-6.648-13.67-6.648-6.287,1.108,14.791,2.216,15.9,4.058-1.482,4.058-1.482" transform="translate(26.489 30.783)" fill="#fff"/>
        <path id="Path_1874" data-name="Path 1874" d="M98.5,115.217s-6.648-13.67-6.648-6.287,1.108,14.791,2.216,15.9,4.058-1.482,4.058-1.482" transform="translate(26.489 30.783)" fill="none" stroke="#263238" stroke-linecap="round" stroke-linejoin="round" stroke-width="1"/>
        <path id="Path_1875" data-name="Path 1875" d="M106.935,107.745c0,1.288-.387,2.435-.876,2.435s-.889-1.1-.889-2.435.4-2.435.889-2.435.876,1.082.876,2.435" transform="translate(30.33 30.371)" fill="#06283d"/>
        <path id="Path_1876" data-name="Path 1876" d="M104.49,104.2s.67-2.654,2.654-1.778" transform="translate(30.134 29.486)" fill="none" stroke="#263238" stroke-linecap="round" stroke-linejoin="round" stroke-width="1"/>
        <path id="Path_1877" data-name="Path 1877" d="M111.339,147.363l-49.9-1.482,9.611-9.611,36.217,1.842Z" transform="translate(17.719 39.299)" fill="#fff"/>
        <path id="Path_1878" data-name="Path 1878" d="M111.339,147.363l-49.9-1.482,9.611-9.611,36.217,1.842Z" transform="translate(17.719 39.299)" fill="none" stroke="#263238" stroke-linecap="round" stroke-linejoin="round" stroke-width="1"/>
        <path id="Path_1879" data-name="Path 1879" d="M34.247,213.42s-6.584,7.048-7.382,21.9-4.445,58.764-4.445,63.569,0,21.065,1.108,23.281,8.5,5.553,8.5,5.553l-.361-6.287V312.5s1.842,6.287,3.324,4.806-.374-7.382-.374-9.611.734-8.13,0-12.188a73.445,73.445,0,0,0-2.95-9.934S43.5,251.2,46.075,242.692a193.28,193.28,0,0,0,4.445-18.849Z" transform="translate(6.466 61.548)" fill="#fff"/>
        <path id="Path_1880" data-name="Path 1880" d="M34.247,213.42s-6.584,7.048-7.382,21.9-4.445,58.764-4.445,63.569,0,21.065,1.108,23.281,8.5,5.553,8.5,5.553l-.361-6.287V312.5s1.842,6.287,3.324,4.806-.374-7.382-.374-9.611.734-8.13,0-12.188a73.445,73.445,0,0,0-2.95-9.934S43.5,251.2,46.075,242.692a193.28,193.28,0,0,0,4.445-18.849Z" transform="translate(6.466 61.548)" fill="none" stroke="#263238" stroke-linecap="round" stroke-linejoin="round" stroke-width="1"/>
        <path id="Path_1881" data-name="Path 1881" d="M44.535,158.65,31.6,229.241l18.488,9.611L60.808,215.2Z" transform="translate(9.113 45.753)" fill="#fff"/>
        <path id="Path_1882" data-name="Path 1882" d="M44.535,158.65,31.6,229.241l18.488,9.611L60.808,215.2Z" transform="translate(9.113 45.753)" fill="none" stroke="#263238" stroke-linecap="round" stroke-linejoin="round" stroke-width="1"/>
        <path id="Path_1883" data-name="Path 1883" d="M46.8,188.25l11.067,18.411L41.78,189.822" transform="translate(12.049 54.29)" fill="none" stroke="#263238" stroke-linecap="round" stroke-linejoin="round" stroke-width="1"/>
        <line id="Line_287" data-name="Line 287" x2="3.028" y2="5.038" transform="translate(53.829 234.204)" fill="none" stroke="#263238" stroke-linecap="round" stroke-linejoin="round" stroke-width="1"/>
        <path id="Path_1884" data-name="Path 1884" d="M32.47,202.83l25.871,14.043-8.13,13.3L29.88,219.09Z" transform="translate(8.617 58.494)" fill="#fff"/>
        <path id="Path_1885" data-name="Path 1885" d="M32.47,202.83l25.871,14.043-8.13,13.3L29.88,219.09Z" transform="translate(8.617 58.494)" fill="none" stroke="#263238" stroke-linecap="round" stroke-linejoin="round" stroke-width="1"/>
        <path id="Path_1886" data-name="Path 1886" d="M145.715,173.85l-7.4,32.893h18.488l-1.855-28.087Z" transform="translate(39.89 50.137)" fill="#fff"/>
        <path id="Path_1887" data-name="Path 1887" d="M145.715,173.85l-7.4,32.893h18.488l-1.855-28.087Z" transform="translate(39.89 50.137)" fill="none" stroke="#263238" stroke-linecap="round" stroke-linejoin="round" stroke-width="1"/>
      </g>
    </g>
  </g>
</svg>
