<svg xmlns="http://www.w3.org/2000/svg" xmlns:xlink="http://www.w3.org/1999/xlink" width="78.5" height="78.5" viewBox="0 0 78.5 78.5">
  <defs>
    <filter id="Ellipse_81" x="1.5" y="1.5" width="77" height="77" filterUnits="userSpaceOnUse">
      <feOffset dx="3" dy="3" input="SourceAlpha"/>
      <feGaussianBlur stdDeviation="3" result="blur"/>
      <feFlood flood-color="#1363df" flood-opacity="0.122"/>
      <feComposite operator="in" in2="blur"/>
      <feComposite in="SourceGraphic"/>
    </filter>
    <filter id="Path_626" x="0" y="0" width="68" height="68" filterUnits="userSpaceOnUse">
      <feOffset dx="-3" dy="-3" input="SourceAlpha"/>
      <feGaussianBlur stdDeviation="1.5" result="blur-2"/>
      <feFlood flood-color="#fff"/>
      <feComposite operator="in" in2="blur-2"/>
      <feComposite in="SourceGraphic"/>
    </filter>
  </defs>
  <g id="Group_834" data-name="Group 834" transform="translate(-336.5 -3808.5)">
    <g transform="matrix(1, 0, 0, 1, 336.5, 3808.5)" filter="url(#Ellipse_81)">
      <circle id="Ellipse_81-2" data-name="Ellipse 81" cx="29.5" cy="29.5" r="29.5" transform="translate(7.5 7.5)" fill="#f7f7f7"/>
    </g>
    <g transform="matrix(1, 0, 0, 1, 336.5, 3808.5)" filter="url(#Path_626)">
      <path id="Path_626-2" data-name="Path 626" d="M29.5,0A29.5,29.5,0,1,1,0,29.5,29.5,29.5,0,0,1,29.5,0Z" transform="translate(7.5 7.5)" fill="#f7f7f7"/>
    </g>
    <path id="Icon_ionic-ios-arrow-forward" data-name="Icon ionic-ios-arrow-forward" d="M20.679,18,11.742,9.07a1.681,1.681,0,0,1,0-2.384,1.7,1.7,0,0,1,2.391,0L24.258,16.8a1.685,1.685,0,0,1,.049,2.327L14.14,29.32a1.688,1.688,0,0,1-2.391-2.384Z" transform="translate(355.754 3827.804)" fill="#06283d"/>
  </g>
</svg>
