<svg xmlns="http://www.w3.org/2000/svg" width="21.174" height="28.453" viewBox="0 0 21.174 28.453">
  <g id="noun-resume-637921" transform="translate(-170.8 -39.203)">
    <path id="Path_2191" data-name="Path 2191" d="M170.8,39.2V67.656h21.174V44.5h-4.632a.7.7,0,0,1-.662-.662V39.2H170.8Zm17.2.662v3.308h3.308ZM181.387,44.5a2.316,2.316,0,1,1-2.316,2.316A2.326,2.326,0,0,1,181.387,44.5Zm0,1.323a.993.993,0,1,0,.993.993A.983.983,0,0,0,181.387,45.82Zm0,3.97a6.1,6.1,0,0,1,3.122.879,3.649,3.649,0,0,1,1.84,3.091h0a.662.662,0,0,1-.662.662h-8.6a.662.662,0,0,1-.662-.662,3.648,3.648,0,0,1,1.84-3.091,6.1,6.1,0,0,1,3.122-.879Zm0,1.323a4.989,4.989,0,0,0-2.419.682,2.42,2.42,0,0,0-1.127,1.3h7.093a2.422,2.422,0,0,0-1.127-1.3,4.99,4.99,0,0,0-2.419-.682Zm-6.617,5.294H188a.662.662,0,0,1,0,1.323H174.77a.662.662,0,0,1,0-1.323Zm0,3.308H188a.662.662,0,1,1,0,1.323H174.77a.662.662,0,1,1,0-1.323Zm0,3.308H188a.662.662,0,0,1,0,1.323H174.77a.662.662,0,0,1,0-1.323Z" fill="#06283d"/>
  </g>
</svg>
