<svg xmlns="http://www.w3.org/2000/svg" width="28.515" height="28.453" viewBox="0 0 28.515 28.453">
  <g id="noun-manage-2952750" transform="translate(-83.677 -14.563)">
    <path id="Path_2192" data-name="Path 2192" d="M98.783,190.84h-2.46l-2.01-2.22a3.111,3.111,0,0,0-2.28-1.02h-2.28a3.091,3.091,0,0,0-2.55,1.35l-3.27,4.8a1.314,1.314,0,0,0-.06,1.47,1.271,1.271,0,0,0,2.1.03l1.68-2.46v12.659a1.322,1.322,0,0,0,1.05,1.32,1.272,1.272,0,0,0,1.47-1.26v-7.859H91.4v7.769a1.322,1.322,0,0,0,1.05,1.32,1.272,1.272,0,0,0,1.47-1.26v-13.5l.87.96a1.23,1.23,0,0,0,.93.42h3.03a1.268,1.268,0,0,0,1.26-1.26,1.223,1.223,0,0,0-1.23-1.26Z" transform="translate(0 -163.768)" fill="#06283d"/>
    <path id="Path_2193" data-name="Path 2193" d="M169.718,72.263a2.82,2.82,0,1,1-2.82-2.82,2.82,2.82,0,0,1,2.82,2.82" transform="translate(-76.094 -51.94)" fill="#06283d"/>
    <path id="Path_2194" data-name="Path 2194" d="M337.289,25.272h4.38a2.388,2.388,0,0,0,2.19,1.5,2.37,2.37,0,0,0,0-4.739,2.388,2.388,0,0,0-2.19,1.5h-4.38v-4.47a1.216,1.216,0,0,1,1.23-1.23h3.15a2.385,2.385,0,1,0,0-1.77h-3.15a2.976,2.976,0,0,0-2.97,2.97v4.44h-3.72a.87.87,0,1,0,0,1.74h3.72V37.091a2.976,2.976,0,0,0,2.97,2.97h3.15a2.388,2.388,0,0,0,2.19,1.5,2.37,2.37,0,1,0,0-4.739,2.388,2.388,0,0,0-2.19,1.5h-3.15a1.217,1.217,0,0,1-1.23-1.23v-4.38h4.38a2.385,2.385,0,1,0,0-1.77h-4.38Z" transform="translate(-234.037)" fill="#06283d"/>
  </g>
</svg>
