<svg xmlns="http://www.w3.org/2000/svg" width="26.233" height="28.453" viewBox="0 0 26.233 28.453">
  <g id="noun-owner-2445063" transform="translate(-104.586 -14)">
    <path id="Path_2149" data-name="Path 2149" d="M345.137,282.662l-6.4-6.4a.688.688,0,0,0-.927,0l-6.4,6.4a.645.645,0,0,0,.449,1.107H332.9v6.283a.46.46,0,0,0,.449.449h3.142a.409.409,0,0,0,.419-.419v-2.573a1.382,1.382,0,0,1,1.107-1.376,1.346,1.346,0,0,1,1.2.389,1.384,1.384,0,0,1,.389.958v2.573a.46.46,0,0,0,.449.449h3.142a.46.46,0,0,0,.449-.449V283.8h1.047a.665.665,0,0,0,.449-1.137Z" transform="translate(-214.514 -248.078)" fill="#06283d"/>
    <path id="Path_2150" data-name="Path 2150" d="M122.1,193.063l.688-1.855a.6.6,0,0,0-.569-.808H109.171a4.035,4.035,0,0,0-4.039,3.65l-.538,4.967a.975.975,0,0,0,.748,1.047c.538.12,1.257.21,1.975.3l.449,7.9a1.248,1.248,0,0,0,1.257,1.167h3.8a1.269,1.269,0,0,0,1.257-1.167l.658-13.553a1.232,1.232,0,0,1,1.227-1.227H121.5a.7.7,0,0,0,.6-.419Z" transform="translate(0 -166.976)" fill="#06283d"/>
    <path id="Path_2151" data-name="Path 2151" d="M153.917,18.159A4.159,4.159,0,1,1,149.759,14a4.159,4.159,0,0,1,4.159,4.159" transform="translate(-38.822)" fill="#06283d"/>
  </g>
</svg>
