<svg xmlns="http://www.w3.org/2000/svg" width="30.27" height="28.453" viewBox="0 0 30.27 28.453">
  <g id="noun-interview-1163897" transform="translate(-75.601 -18.48)">
    <path id="Path_2103" data-name="Path 2103" d="M391.405,184.327v9.392h-1.786a1.856,1.856,0,0,0,.585-1.386V185.62a1.94,1.94,0,0,0-3.88,0v5.7l-5.666-.431a1.489,1.489,0,0,0-1.078.369,1.379,1.379,0,0,0-.462,1.047v9.238a1.447,1.447,0,1,0,2.895,0V193.9l1.047.092v8.9h1.293v-7.883h7.052v7.852H392.7V184.327Z" transform="translate(-286.828 -156.116)" fill="#06283d"/>
    <path id="Path_2104" data-name="Path 2104" d="M218.96,259.84h14.565v1.6H218.96Z" transform="translate(-135.476 -228.088)" fill="#06283d"/>
    <path id="Path_2105" data-name="Path 2105" d="M479.185,85.875a2.433,2.433,0,1,1-2.433-2.433,2.433,2.433,0,0,1,2.433,2.433" transform="translate(-376.794 -61.39)" fill="#06283d"/>
    <path id="Path_2106" data-name="Path 2106" d="M87.672,190.384l-5.728.215v-5.543a1.94,1.94,0,0,0-3.88,0V191.8a1.959,1.959,0,0,0,.585,1.386H76.894v-9.392H75.6v18.538h1.293V194.48h7.052v7.852h1.293v-8.961l1.047-.031v7.729a1.447,1.447,0,0,0,2.895,0v-9.238a1.424,1.424,0,0,0-1.509-1.447Z" transform="translate(0 -155.584)" fill="#06283d"/>
    <path id="Path_2107" data-name="Path 2107" d="M143.745,85.875a2.433,2.433,0,1,1-2.433-2.433,2.433,2.433,0,0,1,2.433,2.433" transform="translate(-59.799 -61.39)" fill="#06283d"/>
    <path id="Path_2108" data-name="Path 2108" d="M264.33,18.48a5.05,5.05,0,1,0,5.05,5.05A5.073,5.073,0,0,0,264.33,18.48Zm0,8.776a3.7,3.7,0,1,1,3.7-3.7A3.706,3.706,0,0,1,264.33,27.256Z" transform="translate(-173.579)" fill="#06283d"/>
    <path id="Path_2109" data-name="Path 2109" d="M309.881,82.474a.627.627,0,0,1-.462-.185l-1.232-1.232a.631.631,0,0,1,.893-.893l.8.8,1.817-1.817a.631.631,0,1,1,.893.893l-2.279,2.248a.608.608,0,0,1-.431.185Z" transform="translate(-219.623 -57.158)" fill="#06283d"/>
  </g>
</svg>
