<svg xmlns="http://www.w3.org/2000/svg" width="756.751" height="468.931" viewBox="0.085 0.085 756.751 468.931"><g data-name="Group 922" clip-path="url(&quot;#a&quot;)"><g data-name="Group 921"><g data-name="Group 920" clip-path="url(&quot;#b&quot;)"><path d="m716.556 468.757 40.28.106" stroke-linejoin="round" stroke-linecap="round" stroke="#2e353a" fill="transparent" data-name="Line 150"/><path d="m.085 466.897 702.163 1.825" stroke-linejoin="round" stroke-linecap="round" stroke="#2e353a" fill="transparent" data-name="Line 151"/><g data-name="Group 919"><g data-name="Group 918"><g data-name="Group 917" transform="translate(14.811 38.118)" clip-path="url(&quot;#c&quot;)"><path d="M559.798.085h34.267v14.343h0-34.267 0V.085h0z" stroke-linejoin="round" stroke-linecap="round" stroke="#000" fill="transparent" data-name="Rectangle 427"/><path d="M541.477 18.418h34.267V32.76h0-34.267 0V18.418h0z" stroke-linejoin="round" stroke-linecap="round" stroke="#000" fill="transparent" data-name="Rectangle 428"/><path d="M579.722 18.418h34.267V32.76h0-34.267 0V18.418h0z" stroke-linejoin="round" stroke-linecap="round" stroke="#000" fill="transparent" data-name="Rectangle 429"/><path d="M21.225 263.13h34.267v14.343h0-34.267 0V263.13h0z" stroke-linejoin="round" stroke-linecap="round" stroke="#000" fill="transparent" data-name="Rectangle 430"/><path d="M13.258 295.806H2.893v-14.343H37.16v14.343H22.71" stroke-linejoin="round" stroke-linecap="round" stroke="#000" fill="transparent" data-name="Path 1358"/><path d="M41.137 281.462h34.267v14.344h0-34.267 0v-14.344h0z" stroke-linejoin="round" stroke-linecap="round" stroke="#000" fill="transparent" data-name="Rectangle 431"/><path d="M660.505 159.054h34.267v14.343h0-34.267 0v-14.343h0z" stroke-linejoin="round" stroke-linecap="round" stroke="#000" fill="transparent" data-name="Rectangle 432"/><path d="M658.048 191.73h-15.864v-14.344h34.255v14.344h-11.77" stroke-linejoin="round" stroke-linecap="round" stroke="#000" fill="transparent" data-name="Path 1359"/><path d="M680.429 177.386h34.267v14.344h0-34.267 0v-14.344h0z" stroke-linejoin="round" stroke-linecap="round" stroke="#000" fill="transparent" data-name="Rectangle 433"/><path d="M135.983 159.054h34.267v14.343h0-34.267 0v-14.343h0z" stroke-linejoin="round" stroke-linecap="round" stroke="#000" fill="transparent" data-name="Rectangle 434"/><path d="M130.484 191.73h-12.822v-14.344h34.255v14.344H139.95" stroke-linejoin="round" stroke-linecap="round" stroke="#000" fill="transparent" data-name="Path 1360"/><path d="M155.907 177.386h34.267v14.344h0-34.267 0v-14.344h0z" stroke-linejoin="round" stroke-linecap="round" stroke="#000" fill="transparent" data-name="Rectangle 435"/><path d="M660.716 257.865h34.267v14.343h0-34.267 0v-14.343h0z" stroke-linejoin="round" stroke-linecap="round" stroke="#000" fill="transparent" data-name="Rectangle 436"/><path d="M642.395 276.186h34.267v14.343h0-34.267 0v-14.343h0z" stroke-linejoin="round" stroke-linecap="round" stroke="#000" fill="transparent" data-name="Rectangle 437"/><path d="M706.272 276.186h8.634v14.343H680.64v-14.343h17.116" stroke-linejoin="round" stroke-linecap="round" stroke="#000" fill="transparent" data-name="Path 1361"/><path d="M344.182 257.865h34.267v14.343h0-34.267 0v-14.343h0z" stroke-linejoin="round" stroke-linecap="round" stroke="#000" fill="transparent" data-name="Rectangle 438"/><path d="M336.6 290.53h-10.739v-14.344h34.267v14.343h-15.49" stroke-linejoin="round" stroke-linecap="round" stroke="#000" fill="transparent" data-name="Path 1362"/><path d="M364.106 276.186h34.267v14.343h0-34.267 0v-14.343h0z" stroke-linejoin="round" stroke-linecap="round" stroke="#000" fill="transparent" data-name="Rectangle 439"/><path d="M367.803 348.253h10.646v14.343h-34.267v-14.343h15.104" stroke-linejoin="round" stroke-linecap="round" stroke="#000" fill="transparent" data-name="Path 1363"/><path d="M325.861 366.586h34.267v14.343h0-34.267 0v-14.343h0z" stroke-linejoin="round" stroke-linecap="round" stroke="#000" fill="transparent" data-name="Rectangle 440"/><path d="M364.106 366.586h34.267v14.343h0-34.267 0v-14.343h0z" stroke-linejoin="round" stroke-linecap="round" stroke="#000" fill="transparent" data-name="Rectangle 441"/><path d="M268.02 348.253h34.267v14.343h0-34.267 0v-14.343h0z" stroke-linejoin="round" stroke-linecap="round" stroke="#000" fill="transparent" data-name="Rectangle 442"/><path d="M249.687 366.586h34.267v14.343h0-34.267 0v-14.343h0z" stroke-linejoin="round" stroke-linecap="round" stroke="#000" fill="transparent" data-name="Rectangle 443"/><path d="M302.088 380.93h-14.156v-14.344H322.2v14.343h-10.658" stroke-linejoin="round" stroke-linecap="round" stroke="#000" fill="transparent" data-name="Path 1364"/><path d="M502.04 18.418h34.266V32.76h0-34.267 0V18.418h0z" stroke-linejoin="round" stroke-linecap="round" stroke="#000" fill="transparent" data-name="Rectangle 444"/><path d="M483.707 36.739h34.267v14.343h0-34.267 0V36.739h0z" stroke-linejoin="round" stroke-linecap="round" stroke="#000" fill="transparent" data-name="Rectangle 445"/><path d="M521.951 36.739h34.267v14.343h0-34.267 0V36.739h0z" stroke-linejoin="round" stroke-linecap="round" stroke="#000" fill="transparent" data-name="Rectangle 446"/><path d="M18.406 30.561h34.267v14.344h0-34.267 0V30.56h0z" stroke-linejoin="round" stroke-linecap="round" stroke="#000" fill="transparent" data-name="Rectangle 447"/><path d="M.085 48.894h34.267v14.343h0H.085h0V48.894h0z" stroke-linejoin="round" stroke-linecap="round" stroke="#000" fill="transparent" data-name="Rectangle 448"/><path d="M61.003 48.894h11.582v14.343H38.33V48.894h15.103" stroke-linejoin="round" stroke-linecap="round" stroke="#000" fill="transparent" data-name="Path 1365"/><path d="M502.04 89.642h34.266v14.344h0-34.267 0V89.642h0z" stroke-linejoin="round" stroke-linecap="round" stroke="#000" fill="transparent" data-name="Rectangle 449"/><path d="M483.707 107.975h34.267v14.343h0-34.267 0v-14.343h0z" stroke-linejoin="round" stroke-linecap="round" stroke="#000" fill="transparent" data-name="Rectangle 450"/><path d="M521.951 107.975h34.267v14.343h0-34.267 0v-14.343h0z" stroke-linejoin="round" stroke-linecap="round" stroke="#000" fill="transparent" data-name="Rectangle 451"/><path d="M660.716 294.6h34.267v14.344h0-34.267 0V294.6h0z" stroke-linejoin="round" stroke-linecap="round" stroke="#000" fill="transparent" data-name="Rectangle 452"/><path d="M642.395 312.922h34.267v14.343h0-34.267 0v-14.343h0z" stroke-linejoin="round" stroke-linecap="round" stroke="#000" fill="transparent" data-name="Rectangle 453"/><path d="M697.287 327.265H680.64v-14.343h34.267v14.343h-11.945" stroke-linejoin="round" stroke-linecap="round" stroke="#000" fill="transparent" data-name="Path 1366"/></g></g></g><path d="m194.616 343.994 17.643 121.812c.123.861.86 1.5 1.731 1.498a1.744 1.744 0 0 0 1.732-1.954l-14.52-120.198-6.586-1.158Z" fill="#2e353a" fill-rule="evenodd" data-name="Path 1367"/><path d="m194.116 343.494 17.643 121.812c.123.861.86 1.5 1.731 1.498a1.744 1.744 0 0 0 1.732-1.954l-14.52-120.198-6.586-1.158Z" stroke-linejoin="round" stroke-linecap="round" stroke="#2e353a" fill="transparent" data-name="Path 1368"/><path d="M151.013 329.616s18.965-2.106 36.104-.27c7.207.773 32.63 2.762 31.81 8.74-.819 5.978-6.235 8.412-7.324 8.412-1.088 0-102.613 7.02-104.24 5.428-1.626-1.591-3.252-5.428-2.175-7.604 1.076-2.176 45.825-14.706 45.825-14.706" fill="#b6b6b6" fill-rule="evenodd" data-name="Path 1369"/><path d="M150.513 329.116s18.965-2.106 36.104-.27c7.207.773 32.63 2.762 31.81 8.74-.819 5.978-6.235 8.412-7.324 8.412-1.088 0-102.613 7.02-104.24 5.428-1.626-1.591-3.252-5.428-2.175-7.604 1.076-2.176 45.825-14.706 45.825-14.706Z" stroke-linejoin="round" stroke-linecap="round" stroke="#2e353a" fill="transparent" data-name="Path 1370"/><path d="M78.127 244.422a2.725 2.725 0 0 0-3.053 3.358c4.083 17.15 22.626 94.53 24.568 96.507 2.235 2.222 11.594 6.68 15.607 6.235 4.013-.444 23.62-6.68 37.894-18.719 14.273-12.038 23.62-24.966 22.731-32.991-.889-8.026-5.85-15.15-10.248-16.04-4.4-.889-22.299.445-37.894-4.457-15.595-4.902-28.534-12.928-35.66-22.732-5.322-7.312-9.908-10.447-13.945-11.16" fill="#b6b6b6" fill-rule="evenodd" data-name="Path 1371"/><path d="M77.627 243.922a2.725 2.725 0 0 0-3.053 3.358c4.083 17.15 22.626 94.53 24.568 96.507 2.235 2.222 11.594 6.68 15.607 6.235 4.013-.444 23.62-6.68 37.894-18.719 14.273-12.038 23.62-24.966 22.731-32.991-.889-8.026-5.85-15.15-10.248-16.04-4.4-.889-22.299.445-37.894-4.457-15.595-4.902-28.534-12.928-35.66-22.732-5.322-7.312-9.908-10.447-13.945-11.16Z" stroke-linejoin="round" stroke-linecap="round" stroke="#2e353a" fill="transparent" data-name="Path 1372"/><path d="m96.12 305.597 4.318 45.709-26.171 114.325a1.509 1.509 0 0 0 1.45 1.883 1.499 1.499 0 0 0 1.451-1.111l30.196-114.524 15.209-.573v-3.1l-15.49-1.17-8.67-41.872a1.17 1.17 0 0 0-1.005-.936 1.17 1.17 0 0 0-1.287 1.37" fill="#2e353a" fill-rule="evenodd" data-name="Path 1373"/><path d="m95.62 305.097 4.318 45.709-26.171 114.325a1.509 1.509 0 0 0 1.45 1.883 1.499 1.499 0 0 0 1.451-1.111l30.196-114.524 15.209-.573v-3.1l-15.49-1.17-8.67-41.872a1.17 1.17 0 0 0-1.005-.936 1.17 1.17 0 0 0-1.287 1.37Z" stroke-linejoin="round" stroke-linecap="round" stroke="#2e353a" fill="transparent" data-name="Path 1374"/><path d="M507.418 343.994 489.81 465.806a1.744 1.744 0 0 1-1.72 1.498 1.743 1.743 0 0 1-1.743-1.954l14.483-120.198 6.587-1.158Z" fill="#2e353a" fill-rule="evenodd" data-name="Path 1375"/><path d="M506.918 343.494 489.31 465.306a1.744 1.744 0 0 1-1.72 1.498 1.743 1.743 0 0 1-1.743-1.954l14.483-120.198 6.587-1.158Z" stroke-linejoin="round" stroke-linecap="round" stroke="#2e353a" fill="transparent" data-name="Path 1376"/><path d="M551.02 329.616s-18.964-2.106-36.103-.27c-7.207.773-32.629 2.762-31.81 8.74.819 5.978 6.247 8.412 7.324 8.412 1.076 0 102.613 7.02 104.24 5.428 1.626-1.591 3.264-5.428 2.176-7.604-1.088-2.176-45.826-14.706-45.826-14.706" fill="#b6b6b6" fill-rule="evenodd" data-name="Path 1377"/><path d="M550.52 329.116s-18.964-2.106-36.103-.27c-7.207.773-32.629 2.762-31.81 8.74.819 5.978 6.247 8.412 7.324 8.412 1.076 0 102.613 7.02 104.24 5.428 1.626-1.591 3.264-5.428 2.176-7.604-1.088-2.176-45.826-14.706-45.826-14.706Z" stroke-linejoin="round" stroke-linecap="round" stroke="#2e353a" fill="transparent" data-name="Path 1378"/><path d="M623.907 244.422a2.737 2.737 0 0 1 3.065 3.358c-4.095 17.15-22.638 94.53-24.568 96.507-2.235 2.222-11.594 6.68-15.607 6.235-4.013-.444-23.62-6.68-37.882-18.719-14.261-12.038-23.632-24.966-22.743-32.991.889-8.026 5.85-15.15 10.26-16.04 4.41-.889 22.287.445 37.882-4.457 15.595-4.902 28.534-12.928 35.67-22.732 5.3-7.312 9.898-10.447 13.923-11.16" fill="#b6b6b6" fill-rule="evenodd" data-name="Path 1379"/><path d="M623.407 243.922a2.737 2.737 0 0 1 3.065 3.358c-4.095 17.15-22.638 94.53-24.568 96.507-2.235 2.222-11.594 6.68-15.607 6.235-4.013-.444-23.62-6.68-37.882-18.719-14.261-12.038-23.632-24.966-22.743-32.991.889-8.026 5.85-15.15 10.26-16.04 4.41-.889 22.287.445 37.882-4.457 15.595-4.902 28.534-12.928 35.67-22.732 5.3-7.312 9.898-10.447 13.923-11.16Z" stroke-linejoin="round" stroke-linecap="round" stroke="#2e353a" fill="transparent" data-name="Path 1380"/><path d="m605.925 305.597-4.329 45.71 26.172 114.324a1.51 1.51 0 0 1-1.451 1.883 1.499 1.499 0 0 1-1.45-1.111L594.67 351.926l-15.21-.573v-3.1l15.49-1.17 8.67-41.872a1.17 1.17 0 0 1 2.304.386" fill="#2e353a" fill-rule="evenodd" data-name="Path 1381"/><path d="m605.425 305.097-4.329 45.71 26.172 114.324a1.51 1.51 0 0 1-1.451 1.883 1.499 1.499 0 0 1-1.45-1.111L594.17 351.426l-15.21-.573v-3.1l15.49-1.17 8.67-41.872a1.17 1.17 0 0 1 2.304.386Z" stroke-linejoin="round" stroke-linecap="round" stroke="#2e353a" fill="transparent" data-name="Path 1382"/><path d="M372.865 183.926s4.61 4.188 5.85 4.609c1.24.421 3.627.971 3.627.971l2.655.562-5.85-8.506-6.282 2.364Z" fill="#fff" fill-rule="evenodd" data-name="Path 1383"/><path d="M372.365 183.426s4.61 4.188 5.85 4.609c1.24.421 3.627.971 3.627.971l2.655.562-5.85-8.506-6.282 2.364Z" stroke-linejoin="round" stroke-linecap="round" stroke="#2e353a" fill="transparent" data-name="Path 1384"/><path d="m348.005 152.513 54.319 56.905 17.186-7.57-36.209-51.183-35.296 1.848Z" fill="#b6b6b6" fill-rule="evenodd" data-name="Path 1385"/><path d="m347.505 152.013 54.319 56.905 17.186-7.57-36.209-51.183-35.296 1.848Z" stroke-linejoin="round" stroke-linecap="round" stroke="#2e353a" fill="transparent" data-name="Path 1386"/><path d="m353.632 154.525 34.957 38.222 21.258-2.738-27.774-37.543-28.441 2.06Z" fill="#fff" fill-rule="evenodd" data-name="Path 1387"/><path d="m353.132 154.025 34.957 38.222 21.258-2.738-27.774-37.543-28.441 2.06Z" stroke-linejoin="round" stroke-linecap="round" stroke="#2e353a" fill="transparent" data-name="Path 1388"/><path d="M366.583 176.134a14.43 14.43 0 0 1-1.31-2.2c.11-1.48.333-2.951.666-4.398.2-.597.808-.808 1.334.397.385.884.545 1.848.468 2.808.128.699.307 1.388.538 2.06l-1.333 1.871-.363-.538Z" fill="#fff" fill-rule="evenodd" data-name="Path 1389"/><path d="M366.083 175.634a14.43 14.43 0 0 1-1.31-2.2c.11-1.48.333-2.951.666-4.398.2-.597.808-.808 1.334.397.385.884.545 1.848.468 2.808.128.699.307 1.388.538 2.06l-1.333 1.871-.363-.538Z" stroke-linejoin="round" stroke-linecap="round" stroke="#2e353a" fill="transparent" data-name="Path 1390"/><path d="M369.18 179.69s-2.597-3.018-2.597-3.51a25.44 25.44 0 0 1 1.58-3.626c.07-.21 3.509-.41 4.036-.62.526-.21 1.708-.34 1.427.55a2.924 2.924 0 0 1-1.638 1.918 9.091 9.091 0 0 0-1.708.948l-.21.96.959 1.368" fill="#fff" fill-rule="evenodd" data-name="Path 1391"/><path d="M368.68 179.19s-2.597-3.018-2.597-3.51a25.44 25.44 0 0 1 1.58-3.626c.07-.21 3.509-.41 4.036-.62.526-.21 1.708-.34 1.427.55a2.924 2.924 0 0 1-1.638 1.918 9.091 9.091 0 0 0-1.708.948l-.21.96.959 1.368" stroke-linejoin="round" stroke-linecap="round" stroke="#2e353a" fill="transparent" data-name="Path 1392"/><path d="M371.146 182.007s-2.914-3.37-2.914-3.99a30.68 30.68 0 0 1 1.755-4.06c.082-.233 3.908-.455 4.528-.69.62-.233 1.919-.386 1.614.609a3.286 3.286 0 0 1-1.848 2.153c-.677.287-1.32.648-1.919 1.076l-.222 1.065 1.065 1.532" fill="#fff" fill-rule="evenodd" data-name="Path 1393"/><path d="M370.646 181.507s-2.914-3.37-2.914-3.99a30.68 30.68 0 0 1 1.755-4.06c.082-.233 3.908-.455 4.528-.69.62-.233 1.919-.386 1.614.609a3.286 3.286 0 0 1-1.848 2.153c-.677.287-1.32.648-1.919 1.076l-.222 1.065 1.065 1.532" stroke-linejoin="round" stroke-linecap="round" stroke="#2e353a" fill="transparent" data-name="Path 1394"/><path d="M374.059 185.002a38.24 38.24 0 0 1-3.51-4.071 35.885 35.885 0 0 1 1.837-3.826s7.136-1.17 7.522-1.076c.386.093.609.538-.538 1.602a8.644 8.644 0 0 1-3.51 1.545c-.456.152-.538 2.14-.538 2.14l2.153 2.68" fill="#fff" fill-rule="evenodd" data-name="Path 1395"/><path d="M373.559 184.502a38.24 38.24 0 0 1-3.51-4.071 35.885 35.885 0 0 1 1.837-3.826s7.136-1.17 7.522-1.076c.386.093.609.538-.538 1.602a8.644 8.644 0 0 1-3.51 1.545c-.456.152-.538 2.14-.538 2.14l2.153 2.68" stroke-linejoin="round" stroke-linecap="round" stroke="#2e353a" fill="transparent" data-name="Path 1396"/><path d="M348.8 184.288a32.578 32.578 0 0 0-5.791 2.773c-2.27 1.52-6.049 3.51-6.049 3.51l-3.884 13.278a16.381 16.381 0 0 1 8.424 2.855c3.779 2.773 11.84 2.012 13.863.76 2.024-1.251 4.785-11.09 2.258-13.36-2.527-2.27-8.82-9.816-8.82-9.816" fill="#fff" fill-rule="evenodd" data-name="Path 1397"/><path d="M348.3 183.788a32.578 32.578 0 0 0-5.791 2.773c-2.27 1.52-6.049 3.51-6.049 3.51l-3.884 13.278a16.381 16.381 0 0 1 8.424 2.855c3.779 2.773 11.84 2.012 13.863.76 2.024-1.251 4.785-11.09 2.258-13.36-2.527-2.27-8.82-9.816-8.82-9.816Z" stroke-linejoin="round" stroke-linecap="round" stroke="#2e353a" fill="transparent" data-name="Path 1398"/><path d="m373.509 194.876-7.02-2.27s-5.3-3.51-6.563-4.024a27.965 27.965 0 0 0-5.791-.503s-12.097 17.385-12.6 18.648c-.503 1.264-.76 4.037 1.006 4.54 1.767.503 6.048-1.007 6.048-1.007s4.037 2.013 6.552 1.51c2.515-.503 10.085-5.85 10.085-5.85l8.821-.246-.538-10.798Z" fill="#fff" fill-rule="evenodd" data-name="Path 1399"/><path d="m373.009 194.376-7.02-2.27s-5.3-3.51-6.563-4.024a27.965 27.965 0 0 0-5.791-.503s-12.097 17.385-12.6 18.648c-.503 1.264-.76 4.037 1.006 4.54 1.767.503 6.048-1.007 6.048-1.007s4.037 2.013 6.552 1.51c2.515-.503 10.085-5.85 10.085-5.85l8.821-.246-.538-10.798Z" stroke-linejoin="round" stroke-linecap="round" stroke="#2e353a" fill="transparent" data-name="Path 1400"/><path d="M347.548 189.085s5.546 8.564 7.558 8.821c2.012.257 4.036-1.006 2.515-3.779-1.52-2.772-3.275-7.02-4.282-9.36-1.006-2.339-5.042-2.257-6.809 1.522" fill="#fff" fill-rule="evenodd" data-name="Path 1401"/><path d="M347.048 188.585s5.546 8.564 7.558 8.821c2.012.257 4.036-1.006 2.515-3.779-1.52-2.772-3.275-7.02-4.282-9.36-1.006-2.339-5.042-2.257-6.809 1.522" stroke-linejoin="round" stroke-linecap="round" stroke="#2e353a" fill="transparent" data-name="Path 1402"/><path d="M362.734 202.083a3.813 3.813 0 0 0-.316 4.41c.62 1.042 1.31 2.13 1.568 2.13a2.527 2.527 0 0 0 2.458-2.595l-.002-.026c-.128-1.732-1.708-6.166-3.708-3.92" fill="#fff" fill-rule="evenodd" data-name="Path 1403"/><path d="M362.234 201.583a3.813 3.813 0 0 0-.316 4.41c.62 1.042 1.31 2.13 1.568 2.13a2.527 2.527 0 0 0 2.458-2.595l-.002-.026c-.128-1.732-1.708-6.166-3.708-3.92Z" stroke-linejoin="round" stroke-linecap="round" stroke="#2e353a" fill="transparent" data-name="Path 1404"/><path d="M359.774 205.3a3.836 3.836 0 0 0-.304 4.41c.608 1.042 1.31 2.118 1.567 2.118a2.528 2.528 0 0 0 2.458-2.595v-.025c-.141-1.72-1.709-6.166-3.721-3.908" fill="#fff" fill-rule="evenodd" data-name="Path 1405"/><path d="M359.274 204.8a3.836 3.836 0 0 0-.304 4.41c.608 1.042 1.31 2.118 1.567 2.118a2.528 2.528 0 0 0 2.458-2.595v-.025c-.141-1.72-1.709-6.166-3.721-3.908Z" stroke-linejoin="round" stroke-linecap="round" stroke="#2e353a" fill="transparent" data-name="Path 1406"/><path d="M356.37 208.494a3.112 3.112 0 0 0-.246 3.51c.503.842 1.064 1.72 1.263 1.72a2.047 2.047 0 0 0 1.99-2.104v-.014c-.106-1.31-1.381-4.89-3.008-3.112" fill="#fff" fill-rule="evenodd" data-name="Path 1407"/><path d="M355.87 207.994a3.112 3.112 0 0 0-.246 3.51c.503.842 1.064 1.72 1.263 1.72a2.047 2.047 0 0 0 1.99-2.104v-.014c-.106-1.31-1.381-4.89-3.008-3.112Z" stroke-linejoin="round" stroke-linecap="round" stroke="#2e353a" fill="transparent" data-name="Path 1408"/><path d="M353.374 209.921a2.34 2.34 0 0 0-.187 2.726c.375.644.808 1.31.971 1.31a1.555 1.555 0 0 0 1.51-1.6v-.014c-.082-1.065-1.053-3.85-2.294-2.422" fill="#fff" fill-rule="evenodd" data-name="Path 1409"/><path d="M352.874 209.421a2.34 2.34 0 0 0-.187 2.726c.375.644.808 1.31.971 1.31a1.555 1.555 0 0 0 1.51-1.6v-.014c-.082-1.065-1.053-3.85-2.294-2.422Z" stroke-linejoin="round" stroke-linecap="round" stroke="#2e353a" fill="transparent" data-name="Path 1410"/><path d="m338.142 189.05-3.206 17.221-6.118-.257 3.732-18.567 5.592 1.603Z" fill="#3e4950" fill-rule="evenodd" data-name="Path 1411"/><path d="m337.642 188.55-3.206 17.221-6.118-.257 3.732-18.567 5.592 1.603Z" stroke-linejoin="round" stroke-linecap="round" stroke="#2e353a" fill="transparent" data-name="Path 1412"/><path d="M333.93 185.095s-2.936 21.492-4.539 23.399c-1.603 1.907-23.164-3.99-24.229-4.259-1.065-.269 1.334-30.874 1.334-30.874s24.99 10.623 27.434 11.734" fill="#3e4950" fill-rule="evenodd" data-name="Path 1413"/><path d="M333.43 184.595s-2.936 21.492-4.539 23.399c-1.603 1.907-23.164-3.99-24.229-4.259-1.065-.269 1.334-30.874 1.334-30.874s24.99 10.623 27.434 11.734Z" stroke-linejoin="round" stroke-linecap="round" stroke="#2e353a" fill="transparent" data-name="Path 1414"/><path d="M407.039 38.41s-3.92 9.091-3.92 12.694c0 3.604.316 8.939-.62 11.7-.936 2.76-5.486 4.387-4.387 6.738 1.1 2.352 4.224 3.768 4.224 3.768s2.2 11.29 3.45 14.74c1.253 3.452 3.3 3.92 5.172 3.604 1.872-.316 6.75-1.568 6.75-1.568l3.604 18.649 23.667-13.162-3.919-12.226s6.739-11.757-.468-28.218c-7.207-16.46-22.732-26.276-33.553-16.718" fill="#fff" fill-rule="evenodd" data-name="Path 1415"/><path d="M406.539 37.91s-3.92 9.091-3.92 12.694c0 3.604.316 8.939-.62 11.7-.936 2.76-5.486 4.387-4.387 6.738 1.1 2.352 4.224 3.768 4.224 3.768s2.2 11.29 3.45 14.74c1.253 3.452 3.3 3.92 5.172 3.604 1.872-.316 6.75-1.568 6.75-1.568l3.604 18.649 23.667-13.162-3.919-12.226s6.739-11.757-.468-28.218c-7.207-16.46-22.732-26.276-33.553-16.718Z" stroke-linejoin="round" stroke-linecap="round" stroke="#2e353a" fill="transparent" data-name="Path 1416"/><path d="M404.983 55.974a2.725 2.725 0 0 1 3.72-1.251" stroke-linejoin="round" stroke-linecap="round" stroke="#2e353a" fill="transparent" data-name="Path 1417"/><path d="M407.975 59.107c.601 0 1.088 1.053 1.088 2.351 0 1.299-.487 2.352-1.088 2.352-.602 0-1.088-1.053-1.088-2.352 0-1.298.486-2.351 1.088-2.351" fill="#2e353a" fill-rule="evenodd" data-name="Path 1418"/><path d="M405.755 75.372s6.119-.152 8.938-3.92" stroke-linejoin="round" stroke-linecap="round" stroke="#2e353a" fill="transparent" data-name="Path 1419"/><path d="M445.354 90.741s-26.979 16.38-27.985 17.654c-1.006 1.276-1.766 9.582-1.766 9.582l33.775-22.228-4.024-5.008Z" fill="#fff" fill-rule="evenodd" data-name="Path 1420"/><path d="M444.854 90.241s-26.979 16.38-27.985 17.654c-1.006 1.276-1.766 9.582-1.766 9.582l33.775-22.228-4.024-5.008Z" stroke-linejoin="round" stroke-linecap="round" stroke="#2e353a" fill="transparent" data-name="Path 1421"/><path d="M404.126 314.512s-2.2 15.946-1.37 20.333c.831 4.387 27.47 85.404 27.751 88.189.281 2.784 2.75 15.396 2.75 15.396s-5.499 9.617-6.599 13.466c-1.1 3.849-6.048 7.967-7.967 9.36-1.919 1.391-8.248 3.848-9.067 4.948-.819 1.1 1.942.877 3.72 1.263 2.784.222 5.578.258 8.365.106 0 0 7.699.28 9.898-.55 2.2-.83 5.218-9.067 6.598-10.717a7.586 7.586 0 0 1 3.569-2.199l-2.469 14.039h3.837s2.75-11.266 3.85-15.115c1.1-3.85 2.48-6.037.83-9.886a57.45 57.45 0 0 0-4.949-8.517s-1.1-30.78-.83-32.15c.269-1.368-1.919-28.312-2.738-35.448-.819-7.137-6.879-26.09-7.148-27.739-.27-1.65 1.65-20.333 1.65-20.333l-29.681-4.446Z" fill="#b6b6b6" fill-rule="evenodd" data-name="Path 1422"/><path d="M403.626 314.012s-2.2 15.946-1.37 20.333c.831 4.387 27.47 85.404 27.751 88.189.281 2.784 2.75 15.396 2.75 15.396s-5.499 9.617-6.599 13.466c-1.1 3.849-6.048 7.967-7.967 9.36-1.919 1.391-8.248 3.848-9.067 4.948-.819 1.1 1.942.877 3.72 1.263 2.784.222 5.578.258 8.365.106 0 0 7.699.28 9.898-.55 2.2-.83 5.218-9.067 6.598-10.717a7.586 7.586 0 0 1 3.569-2.199l-2.469 14.039h3.837s2.75-11.266 3.85-15.115c1.1-3.85 2.48-6.037.83-9.886a57.45 57.45 0 0 0-4.949-8.517s-1.1-30.78-.83-32.15c.269-1.368-1.919-28.312-2.738-35.448-.819-7.137-6.879-26.09-7.148-27.739-.27-1.65 1.65-20.333 1.65-20.333l-29.681-4.446Z" stroke-linejoin="round" stroke-linecap="round" stroke="#2e353a" fill="transparent" data-name="Path 1423"/><path d="M424.389 318.572s3.123 23.164 4.902 32.898c1.778 9.734 8.914 74.056 8.458 79.882a70.693 70.693 0 0 1-1.006 8.271s-7.827 16.38-9.617 18.286c-1.79 1.907-4.855 5.908-6.68 6.26-1.825.35-8.704 1.485-7.125 3.275 1.58 1.79 18.391 1.966 22.03.96 3.638-1.007 8.33-8.787 9.839-9.734l1.497-.96 1.17 10.366 3.966-.105s3.112-9.559 2.948-15.677c-.163-6.12-4-12.73-4-12.73s4.047-20.894 6.422-35.015c2.375-14.12 6.692-24.627 3.662-35.554a131.663 131.663 0 0 1-4.177-19.456c0-.912 1.802-32.757 1.802-32.757s-26.042 5.861-34.091 1.79" fill="#fff" fill-rule="evenodd" data-name="Path 1424"/><path d="M423.889 318.072s3.123 23.164 4.902 32.898c1.778 9.734 8.914 74.056 8.458 79.882a70.693 70.693 0 0 1-1.006 8.271s-7.827 16.38-9.617 18.286c-1.79 1.907-4.855 5.908-6.68 6.26-1.825.35-8.704 1.485-7.125 3.275 1.58 1.79 18.391 1.966 22.03.96 3.638-1.007 8.33-8.787 9.839-9.734l1.497-.96 1.17 10.366 3.966-.105s3.112-9.559 2.948-15.677c-.163-6.12-4-12.73-4-12.73s4.047-20.894 6.422-35.015c2.375-14.12 6.692-24.627 3.662-35.554a131.663 131.663 0 0 1-4.177-19.456c0-.912 1.802-32.757 1.802-32.757s-26.042 5.861-34.091 1.79Z" stroke-linejoin="round" stroke-linecap="round" stroke="#2e353a" fill="transparent" data-name="Path 1425"/><path d="M454.795 452.294a26.265 26.265 0 0 0-2.118-8.798c-.397.14-.807.28-1.252.456-4.738 1.884-11.933 11.15-17.852 16.098a15.988 15.988 0 0 1-12.12 3.85l-.153-.094a2.5 2.5 0 0 1-.854.362c-1.825.363-8.704 1.486-7.125 3.276 1.58 1.79 18.391 1.966 22.03.96 3.638-1.007 8.33-8.787 9.839-9.734l1.497-.96 1.17 10.366 3.966-.105s3.136-9.559 2.972-15.677" fill="#2e353a" fill-rule="evenodd" data-name="Path 1426"/><path d="M454.295 451.794a26.265 26.265 0 0 0-2.118-8.798c-.397.14-.807.28-1.252.456-4.738 1.884-11.933 11.15-17.852 16.098a15.988 15.988 0 0 1-12.12 3.85l-.153-.094a2.5 2.5 0 0 1-.854.362c-1.825.363-8.704 1.486-7.125 3.276 1.58 1.79 18.391 1.966 22.03.96 3.638-1.007 8.33-8.787 9.839-9.734l1.497-.96 1.17 10.366 3.966-.105s3.136-9.559 2.972-15.677Z" stroke-linejoin="round" stroke-linecap="round" stroke="#2e353a" fill="transparent" data-name="Path 1427"/><path d="m398.346 225.797 2.445 24.814-6.727 72.757s24.452 10.307 44.621 9.137c20.17-1.17 31.167-7.02 31.167-7.02s-2.75-53.511-2.445-56.565c.304-3.053 3.977-14.975.924-28.417-3.054-13.442-6.119-18.649-6.119-18.649s-42.468 10.974-63.866 3.943" fill="#2e353a" fill-rule="evenodd" data-name="Path 1428"/><path d="m397.846 225.297 2.445 24.814-6.727 72.757s24.452 10.307 44.621 9.137c20.17-1.17 31.167-7.02 31.167-7.02s-2.75-53.511-2.445-56.565c.304-3.053 3.977-14.975.924-28.417-3.054-13.442-6.119-18.649-6.119-18.649s-42.468 10.974-63.866 3.943Z" stroke-linejoin="round" stroke-linecap="round" stroke="#2e353a" fill="transparent" data-name="Path 1429"/><path d="M448.583 93.011s-32.758 21.433-36.806 26.475c-4.048 5.043-13.36 29.494-13.36 33.776 0 4.282 5.545 48.645 5.545 48.645l-7.815 27.739s5.042 7.3 31.26 5.288c26.218-2.012 39.321-8.318 39.321-8.318s-12.05-27.985-12.296-31.763c-.245-3.78 8.318-39.778 8.821-47.64.503-7.861-3.72-29.248-6.294-35.8a201.275 201.275 0 0 0-8.376-18.402" fill="#3e4950" fill-rule="evenodd" data-name="Path 1430"/><path d="M448.083 92.511s-32.758 21.433-36.806 26.475c-4.048 5.043-13.36 29.494-13.36 33.776 0 4.282 5.545 48.645 5.545 48.645l-7.815 27.739s5.042 7.3 31.26 5.288c26.218-2.012 39.321-8.318 39.321-8.318s-12.05-27.985-12.296-31.763c-.245-3.78 8.318-39.778 8.821-47.64.503-7.861-3.72-29.248-6.294-35.8a201.275 201.275 0 0 0-8.376-18.402Z" stroke-linejoin="round" stroke-linecap="round" stroke="#2e353a" fill="transparent" data-name="Path 1431"/><path d="M410.478 22.16s-9.98 3.838-9.722 7.43c.258 3.591 5.628 13.57 9.98 17.665 4.352 4.095 16.379 13.56 17.408 22.018 1.03 8.459-1.275 16.637-4.61 16.894l-3.322.257s1.275 6.142 12.799 7.932 24.568 1.533 30.98-9.476c6.41-11.009 4.855-35.32-1.545-46.586-6.4-11.266-22.228-18.18-30.98-19.456-8.75-1.275-20.988 3.323-20.988 3.323" fill="#2e353a" fill-rule="evenodd" data-name="Path 1432"/><path d="M409.978 21.66s-9.98 3.838-9.722 7.43c.258 3.591 5.628 13.57 9.98 17.665 4.352 4.095 16.379 13.56 17.408 22.018 1.03 8.459-1.275 16.637-4.61 16.894l-3.322.257s1.275 6.142 12.799 7.932 24.568 1.533 30.98-9.476c6.41-11.009 4.855-35.32-1.545-46.586-6.4-11.266-22.228-18.18-30.98-19.456-8.75-1.275-20.988 3.323-20.988 3.323Z" stroke-linejoin="round" stroke-linecap="round" stroke="#2e353a" fill="transparent" data-name="Path 1433"/><path d="M407.978 132.698a64.489 64.489 0 0 1 5.112-6.4 44.863 44.863 0 0 1 10.834-7.815l2.772-4.539 2.527 1.006s7.02-4.54 12.355-8.575a36.98 36.98 0 0 0 7.557-7.3" stroke-linejoin="round" stroke-linecap="round" stroke="#2e353a" fill="transparent" data-name="Path 1434"/><path d="M402.748 140.408s1.404-2.212 3.334-5.02" stroke-linejoin="round" stroke-linecap="round" stroke="#2e353a" fill="transparent" data-name="Path 1435"/><path d="M432.742 121.616s-7.815 9.57-8.564 12.869c-.749 3.299-6.013 41.988-6.013 41.988s-3.79 0-4.294 1.018c-.503 1.018-1.252 7.815-1.252 7.815s-2.024 2.258-3.03 2.515l-38.315 6.049 1.767 15.127s24.451 0 31.26-.76c6.809-.761 15.619 0 19.889-1.767 6.294-1.252 11.594-7.02 11.594-7.02l3.404-8.19s13.232-33.927 13.735-40.677a26.31 26.31 0 0 0-.515-8.857" fill="#3e4950" fill-rule="evenodd" data-name="Path 1436"/><path d="M432.242 121.116s-7.815 9.57-8.564 12.869c-.749 3.299-6.013 41.988-6.013 41.988s-3.79 0-4.294 1.018c-.503 1.018-1.252 7.815-1.252 7.815s-2.024 2.258-3.03 2.515l-38.315 6.049 1.767 15.127s24.451 0 31.26-.76c6.809-.761 15.619 0 19.889-1.767 6.294-1.252 11.594-7.02 11.594-7.02l3.404-8.19s13.232-33.927 13.735-40.677a26.31 26.31 0 0 0-.515-8.857" stroke-linejoin="round" stroke-linecap="round" stroke="#2e353a" fill="transparent" data-name="Path 1437"/><path d="M308.648 25.67s4.551 8.693 4.762 13.244c.21 4.55-1.661 9.722-1.041 13.442.62 3.72 4.55 5.171 3.72 7.652-.83 2.48-4.55 3.31-4.55 3.31s-1.861 8.482-3.3 13.443c-1.44 4.96-6.212 5.58-8.482 5.58a37.606 37.606 0 0 1-7.452-1.65l-2.48 14.32L261.91 74.75l2.27-12.203 4.55-8.482s-5.99-13.442-.62-22.953c5.37-9.512 14.683-12.612 25.025-13.852 10.342-1.24 15.513 8.411 15.513 8.411" fill="#fff" fill-rule="evenodd" data-name="Path 1438"/><path d="M308.148 25.17s4.551 8.693 4.762 13.244c.21 4.55-1.661 9.722-1.041 13.442.62 3.72 4.55 5.171 3.72 7.652-.83 2.48-4.55 3.31-4.55 3.31s-1.861 8.482-3.3 13.443c-1.44 4.96-6.212 5.58-8.482 5.58a37.606 37.606 0 0 1-7.452-1.65l-2.48 14.32L261.41 74.25l2.27-12.203 4.55-8.482s-5.99-13.442-.62-22.953c5.37-9.512 14.683-12.612 25.025-13.852 10.342-1.24 15.513 8.411 15.513 8.411Z" stroke-linejoin="round" stroke-linecap="round" stroke="#2e353a" fill="transparent" data-name="Path 1439"/><path d="M272.372 55.366a4.06 4.06 0 0 0 2.691 3.112c1.7.27 3.442-.021 4.96-.83 0 0-2.07 8.481 1.65 13.231" stroke-linejoin="round" stroke-linecap="round" stroke="#2e353a" fill="transparent" data-name="Path 1440"/><path d="M297.163 60.128s1.65 6.2 7.02 6.2" stroke-linejoin="round" stroke-linecap="round" stroke="#2e353a" fill="transparent" data-name="Path 1441"/><path d="M302.568 37.993s2.679-2.27 6.411 1.04" stroke-linejoin="round" stroke-linecap="round" stroke="#2e353a" fill="transparent" data-name="Path 1442"/><path d="M301.667 48.036a5.616 7.85 0 1 1 0 .1z" stroke-linejoin="round" stroke-linecap="round" stroke="#2e353a" fill="transparent" data-name="Ellipse 95"/><path d="M308.859 50.555c0 1.427-.562 2.585-1.24 2.585-.679 0-1.24-1.17-1.24-2.585 0-1.416.55-2.586 1.24-2.586s1.24 1.1 1.24 2.586" fill="#2e353a" fill-rule="evenodd" data-name="Path 1443"/><path d="m301.328 49.06-21.925-.515" stroke-linejoin="round" stroke-linecap="round" stroke="#2e353a" fill="transparent" data-name="Line 152"/><path d="M292.305 80.692a11.214 11.214 0 0 1-3.51-1.662c-1.24-1.03-3.1-2.27-3.1-2.27l5.17 12.402 1.44-8.47Z" fill="#2e353a" fill-rule="evenodd" data-name="Path 1444"/><path d="M291.805 80.192a11.214 11.214 0 0 1-3.51-1.662c-1.24-1.03-3.1-2.27-3.1-2.27l5.17 12.402 1.44-8.47Z" stroke-linejoin="round" stroke-linecap="round" stroke="#2e353a" fill="transparent" data-name="Path 1445"/><path d="M308.648 25.67s-6.001-5.533-10.985-3.919c-4.984 1.615-6.411 4.13-4.142 9.09 2.27 4.96 1.451 9.722-.819 11.173-2.27 1.45-9.511 2.691-10.342 4.142a14.21 14.21 0 0 1-2.48 2.89s-1.86-5.581-4.972-3.932c-3.112 1.65-3.92 8.073-2.06 10.752l-8.692 6.622s.422-9.921-2.89-17.783c-3.31-7.862-4.948-25.235 1.3-30.418 6.247-5.183 14.038-4.13 16.378-6.2 2.34-2.071 2.07-6.833 9.36-7.453 7.288-.62 10.342 4.762 13.442 6.002 3.1 1.24 4.34-3.1 9.511.41 5.171 3.509 9.36 8.481 7.652 13.652-1.708 5.171-10.26 4.972-10.26 4.972" fill="#2e353a" fill-rule="evenodd" data-name="Path 1446"/><path d="M308.148 25.17s-6.001-5.533-10.985-3.919c-4.984 1.615-6.411 4.13-4.142 9.09 2.27 4.96 1.451 9.722-.819 11.173-2.27 1.45-9.511 2.691-10.342 4.142a14.21 14.21 0 0 1-2.48 2.89s-1.86-5.581-4.972-3.932c-3.112 1.65-3.92 8.073-2.06 10.752l-8.692 6.622s.422-9.921-2.89-17.783c-3.31-7.862-4.948-25.235 1.3-30.418 6.247-5.183 14.038-4.13 16.378-6.2 2.34-2.071 2.07-6.833 9.36-7.453 7.288-.62 10.342 4.762 13.442 6.002 3.1 1.24 4.34-3.1 9.511.41 5.171 3.509 9.36 8.481 7.652 13.652-1.708 5.171-10.26 4.972-10.26 4.972Z" stroke-linejoin="round" stroke-linecap="round" stroke="#2e353a" fill="transparent" data-name="Path 1447"/><path d="M250.948 376.962s-4.177 28.85-4.177 34.946c0 6.095-.631 25.13-.631 25.13s-2.247 6.727-2.247 8.33c0 1.602.316 5.451.316 5.451l1.287 17h15.385s6.095-24.37 5.451-44.575c-.643-20.204-11.863-57.829-11.863-57.829l-3.521 11.547Z" fill="#2e353a" fill-rule="evenodd" data-name="Path 1448"/><path d="M250.448 376.462s-4.177 28.85-4.177 34.946c0 6.095-.631 25.13-.631 25.13s-2.247 6.727-2.247 8.33c0 1.602.316 5.451.316 5.451l1.287 17h15.385s6.095-24.37 5.451-44.575c-.643-20.204-11.863-57.829-11.863-57.829l-3.521 11.547Z" stroke-linejoin="round" stroke-linecap="round" stroke="#2e353a" fill="transparent" data-name="Path 1449"/><path d="M237.506 220.93s.783 37.496 3.158 46.189c2.375 8.692 7.862 19.338 7.862 22.1 0 2.76 3.51 35.097 5.92 43.825 2.41 8.727-6.715 35.53-4.34 50.926s9.078 54.097 9.078 54.097-1.58-.386-1.58 5.136v11.454l.399 13.419h16.975s-1.17-2.761 2.761-2.761 6.318 2.34 8.295 2.76c1.977.422 27.633 0 27.633 0s1.978-3.158 1.17-5.135c-.807-1.977-3.51-1.966-8.68-4.738-5.172-2.773-11.454-7.102-13.431-9.079-1.977-1.977-2.761-7.101-3.943-9.476-1.181-2.375-3.159-5.124-3.159-6.704s2.34-37.917 2.34-59.245c0-21.327 3.159-34.349 6.716-54.085 3.556-19.737 3.158-56.46 3.51-67.118.35-10.658 1.17-29.248 1.17-29.248l-61.854-2.317Z" fill="#2e353a" fill-rule="evenodd" data-name="Path 1450"/><path d="M237.006 220.43s.783 37.496 3.158 46.189c2.375 8.692 7.862 19.338 7.862 22.1 0 2.76 3.51 35.097 5.92 43.825 2.41 8.727-6.715 35.53-4.34 50.926s9.078 54.097 9.078 54.097-1.58-.386-1.58 5.136v11.454l.399 13.419h16.975s-1.17-2.761 2.761-2.761 6.318 2.34 8.295 2.76c1.977.422 27.633 0 27.633 0s1.978-3.158 1.17-5.135c-.807-1.977-3.51-1.966-8.68-4.738-5.172-2.773-11.454-7.102-13.431-9.079-1.977-1.977-2.761-7.101-3.943-9.476-1.181-2.375-3.159-5.124-3.159-6.704s2.34-37.917 2.34-59.245c0-21.327 3.159-34.349 6.716-54.085 3.556-19.737 3.158-56.46 3.51-67.118.35-10.658 1.17-29.248 1.17-29.248l-61.854-2.317Z" stroke-linejoin="round" stroke-linecap="round" stroke="#2e353a" fill="transparent" data-name="Path 1451"/><path d="M293.463 99.902s6.715 7.3 5.557 12.26a33.45 33.45 0 0 0-.877 9.056s7.02 11.699 7.592 33.003c.574 21.305 4.376 51.114 4.376 51.114l-6.716 14.6-8.189-16.062s2.34-38.842 2.632-48.482c.293-9.64.585-17.818-.585-23.656-.71-3.569-1.199-7.18-1.462-10.81l-4.68-16.94 2.352-4.083Z" fill="#2e353a" fill-rule="evenodd" data-name="Path 1452"/><path d="M292.963 99.402s6.715 7.3 5.557 12.26a33.45 33.45 0 0 0-.877 9.056s7.02 11.699 7.592 33.003c.574 21.305 4.376 51.114 4.376 51.114l-6.716 14.6-8.189-16.062s2.34-38.842 2.632-48.482c.293-9.64.585-17.818-.585-23.656-.71-3.569-1.199-7.18-1.462-10.81l-4.68-16.94 2.352-4.083Z" stroke-linejoin="round" stroke-linecap="round" stroke="#2e353a" fill="transparent" data-name="Path 1453"/><path d="m259.956 70.21 35.425 25.527-4.246 16.133-34.373-33.366 3.194-8.295Z" fill="#3e4950" fill-rule="evenodd" data-name="Path 1454"/><path d="m259.456 69.71 35.425 25.527-4.246 16.133-34.373-33.366 3.194-8.295Z" stroke-linejoin="round" stroke-linecap="round" stroke="#2e353a" fill="transparent" data-name="Path 1455"/><path d="M256.716 78.504s-20.837 29.248-23.75 41.263c-2.913 12.015-.877 34.454-.585 37.438.293 2.983 1.463 65.129 2.925 67.761 1.463 2.633 9.921 3.51 9.921 3.51h54.331s4.083-2.047 3.79-8.47c-.292-6.423-1.17-13.43-1.17-13.43s.293-63.083-.292-71.553c-.585-8.47-10.798-26.908-10.798-26.908l-34.372-29.611Z" fill="#3e4950" fill-rule="evenodd" data-name="Path 1456"/><path d="M256.216 78.004s-20.837 29.248-23.75 41.263c-2.913 12.015-.877 34.454-.585 37.438.293 2.983 1.463 65.129 2.925 67.761 1.463 2.633 9.921 3.51 9.921 3.51h54.331s4.083-2.047 3.79-8.47c-.292-6.423-1.17-13.43-1.17-13.43s.293-63.083-.292-71.553c-.585-8.47-10.798-26.908-10.798-26.908l-34.372-29.611Z" stroke-linejoin="round" stroke-linecap="round" stroke="#2e353a" fill="transparent" data-name="Path 1457"/><path d="M250.258 299.63a2.34 2.34 0 0 1-2.34-2.34v-9.487a5.264 5.264 0 0 1 5.276-5.253H260.588a2.34 2.34 0 1 1 0 4.68h-7.382a.573.573 0 0 0-.573.573v9.488a2.34 2.34 0 0 1-2.34 2.34h-.035" fill="#fff" fill-rule="evenodd" data-name="Path 1458"/><path d="M249.758 299.13a2.34 2.34 0 0 1-2.34-2.34v-9.487a5.264 5.264 0 0 1 5.276-5.253H260.088a2.34 2.34 0 1 1 0 4.68h-7.382a.573.573 0 0 0-.573.573v9.488a2.34 2.34 0 0 1-2.34 2.34h-.035Z" stroke-linejoin="round" stroke-linecap="round" stroke="#2e353a" fill="transparent" data-name="Path 1459"/><path d="M269.421 264.276s3.053 4.68 4.48 5.732c1.428 1.053 1.978 3.054 3.592 7.02a23.257 23.257 0 0 1 1.79 6.446 21.044 21.044 0 0 1 1.428 4.68c0 1.252-5.733 3.767-5.733 3.767s.176 2.34-.9 2.866a6.91 6.91 0 0 1-4.68.538 27.536 27.536 0 0 1-4.306-3.404 20.806 20.806 0 0 1-5.194-1.076c-2.34-.901-5.02-1.44-6.458-3.417-1.44-1.977-1.966-3.404-1.427-8.06.538-4.657 3.217-15.42 3.217-15.42l14.191.328Z" fill="#fff" fill-rule="evenodd" data-name="Path 1460"/><path d="M268.921 263.776s3.053 4.68 4.48 5.732c1.428 1.053 1.978 3.054 3.592 7.02a23.257 23.257 0 0 1 1.79 6.446 21.044 21.044 0 0 1 1.428 4.68c0 1.252-5.733 3.767-5.733 3.767s.176 2.34-.9 2.866a6.91 6.91 0 0 1-4.68.538 27.536 27.536 0 0 1-4.306-3.404 20.806 20.806 0 0 1-5.194-1.076c-2.34-.901-5.02-1.44-6.458-3.417-1.44-1.977-1.966-3.404-1.427-8.06.538-4.657 3.217-15.42 3.217-15.42l14.191.328Z" stroke-linejoin="round" stroke-linecap="round" stroke="#2e353a" fill="transparent" data-name="Path 1461"/><path d="M253.826 256.203s.363 8.61 1.252 9.149a20.463 20.463 0 0 0 9.36 1.79 26.181 26.181 0 0 0 7.533-2.153l-.187-8.423s-14.916 1.252-17.958-.363" fill="#3e4950" fill-rule="evenodd" data-name="Path 1462"/><path d="M253.326 255.703s.363 8.61 1.252 9.149a20.463 20.463 0 0 0 9.36 1.79 26.181 26.181 0 0 0 7.533-2.153l-.187-8.423s-14.916 1.252-17.958-.363Z" stroke-linejoin="round" stroke-linecap="round" stroke="#2e353a" fill="transparent" data-name="Path 1463"/><path d="M250.234 104.43s-8.798 17.923-9.125 26.077c-.328 8.154 3.592 54.752 3.592 73.974s4.235 48.563 5.85 51.477c1.614 2.913 5.545 3.58 8.47 3.58 2.924 0 12.389 1.626 14.343-2.61 1.953-4.235 0-47.58 0-54.752 0-7.171 11.079-48.563 6.844-73.003" fill="#3e4950" fill-rule="evenodd" data-name="Path 1464"/><path d="M249.734 103.93s-8.798 17.923-9.125 26.077c-.328 8.154 3.592 54.752 3.592 73.974s4.235 48.563 5.85 51.477c1.614 2.913 5.545 3.58 8.47 3.58 2.924 0 12.389 1.626 14.343-2.61 1.953-4.235 0-47.58 0-54.752 0-7.171 11.079-48.563 6.844-73.003" stroke-linejoin="round" stroke-linecap="round" stroke="#2e353a" fill="transparent" data-name="Path 1465"/><path d="M283.226 282.55h-7.37c-.434.001-.86.123-1.229.35v3.979c.367.232.793.358 1.229.362h7.37c.317 0 .573.256.573.573v9.489a2.34 2.34 0 1 0 4.68 0v-9.489a5.253 5.253 0 0 0-5.241-5.264h-.012Z" fill="#fff" fill-rule="evenodd" data-name="Path 1466"/><path d="M282.726 282.05h-7.37c-.434.001-.86.123-1.229.35v3.979c.367.232.793.358 1.229.362h7.37c.317 0 .573.256.573.573v9.489a2.34 2.34 0 1 0 4.68 0v-9.489a5.253 5.253 0 0 0-5.241-5.264h-.012Z" stroke-linejoin="round" stroke-linecap="round" stroke="#2e353a" fill="transparent" data-name="Path 1467"/><path d="M225.56 297.139h84.761a5.64 5.64 0 0 1 5.64 5.639v58.262a5.64 5.64 0 0 1-5.64 5.639h-84.76a5.639 5.639 0 0 1-5.64-5.64v-58.261a5.64 5.64 0 0 1 5.64-5.64" fill="#3e4950" fill-rule="evenodd" data-name="Path 1468"/><path d="M224.242 296.639h86.398a4.82 4.82 0 0 1 4.82 4.82v59.9a4.82 4.82 0 0 1-4.82 4.82h-86.398a4.82 4.82 0 0 1-4.82-4.82v-59.9a4.82 4.82 0 0 1 4.82-4.82z" stroke-linejoin="round" stroke-linecap="round" stroke="#2e353a" fill="transparent" data-name="Rectangle 455"/><path d="m273.741 280.973.199 7.125" stroke-linejoin="round" stroke-linecap="round" stroke="#2e353a" fill="transparent" data-name="Line 153"/></g></g></g><defs><clipPath id="c"><path d="M0 0h715.991v382.014H0V0z" data-name="Rectangle 454"/></clipPath><clipPath id="b"><path d="M0 0h757.921v469.948H0V0z" data-name="Rectangle 456"/></clipPath><clipPath id="a"><path d="M0 0h757.921v469.948H0V0z" data-name="Rectangle 457"/></clipPath></defs></svg>