<svg xmlns="http://www.w3.org/2000/svg" width="46" height="46" viewBox="0 0 46 46">
  <g id="Group_1191" data-name="Group 1191" transform="translate(-6112 -4201)">
    <circle id="Ellipse_116" data-name="Ellipse 116" cx="23" cy="23" r="23" transform="translate(6112 4201)" fill="#3330e4"/>
    <path id="Icon_ionic-ios-person" data-name="Icon ionic-ios-person" d="M30.488,29.844c-.488-2.153-3.27-3.2-4.232-3.541a31.552,31.552,0,0,0-3.528-.677,3.584,3.584,0,0,1-1.632-.752c-.271-.325-.108-3.338-.108-3.338a10.043,10.043,0,0,0,.772-1.469,18.952,18.952,0,0,0,.569-2.566s.555,0,.752-.975a9.594,9.594,0,0,0,.5-2.268c-.041-.779-.467-.758-.467-.758a11.872,11.872,0,0,0,.46-3.474C23.635,7.242,21.455,4.5,17.507,4.5c-4,0-6.135,2.742-6.074,5.525a12.383,12.383,0,0,0,.454,3.474s-.427-.02-.467.758a9.593,9.593,0,0,0,.5,2.268c.19.975.752.975.752.975a18.953,18.953,0,0,0,.569,2.566,10.043,10.043,0,0,0,.772,1.469s.163,3.013-.108,3.338a3.584,3.584,0,0,1-1.632.752,31.552,31.552,0,0,0-3.528.677c-.962.339-3.744,1.388-4.232,3.541a.541.541,0,0,0,.535.657H29.96A.54.54,0,0,0,30.488,29.844Z" transform="translate(6117.5 4206.5)" fill="#fff"/>
  </g>
</svg>
