<svg xmlns="http://www.w3.org/2000/svg" width="59" height="59.05" viewBox="1546 4631.95 59 59.05"><g data-name="Group 717"><path d="M1546 4661.4a29.5 29.5 0 1 1 0 .1z" fill="#f7f7f7" fill-rule="evenodd" data-name="Ellipse 81"/><path d="M1575.5 4632c16.292 0 29.5 13.208 29.5 29.5 0 8.048-3.223 15.344-8.64 20.86-5.162 5.258-12.616 8.64-20.86 8.64-16.292 0-29.5-13.208-29.5-29.5s13.208-29.5 29.5-29.5Z" fill="#f7f7f7" fill-rule="evenodd" data-name="Path 626"/><path d="m1578.432 4661.804-8.936-8.93a1.68 1.68 0 0 1 0-2.384 1.702 1.702 0 0 1 2.39 0l10.125 10.118c.64.64.654 1.667.05 2.328l-10.168 10.188c-.33.33-.766.492-1.195.492-.429 0-.865-.162-1.195-.492a1.68 1.68 0 0 1 0-2.384l8.93-8.936Z" fill="#06283d" fill-rule="evenodd" data-name="Icon ionic-ios-arrow-forward"/></g></svg>