<svg xmlns="http://www.w3.org/2000/svg" width="29.25" height="29.25" viewBox="357 3454 29.25 29.25"><path d="M371.625 3454c-8.079 0-14.625 6.546-14.625 14.625s6.546 14.625 14.625 14.625 14.625-6.546 14.625-14.625S379.704 3454 371.625 3454Zm7.488 10.582-9.4 9.443h-.008c-.12.12-.442.387-.815.387-.267 0-.57-.148-.823-.401l-3.937-3.938a.28.28 0 0 1 0-.4l1.251-1.252a.278.278 0 0 1 .197-.084c.07 0 .14.028.197.084l3.122 3.122 8.578-8.641a.278.278 0 0 1 .197-.085c.077 0 .148.028.197.085l1.23 1.272c.127.12.127.296.014.408Z" fill="#3330e4" fill-rule="evenodd" data-name="Icon ionic-ios-checkmark-circle"/></svg>