<svg xmlns="http://www.w3.org/2000/svg" xmlns:xlink="http://www.w3.org/1999/xlink" width="1696.246" height="360.376" viewBox="0 0 1696.246 360.376">
  <defs>
    <clipPath id="clip-path">
      <rect id="Rectangle_374" data-name="Rectangle 374" width="112.022" height="360.376" fill="none"/>
    </clipPath>
    <clipPath id="clip-path-3">
      <rect id="Rectangle_365" data-name="Rectangle 365" width="242.493" height="339.241" fill="none"/>
    </clipPath>
    <clipPath id="clip-path-4">
      <rect id="Rectangle_368" data-name="Rectangle 368" width="1423" height="186.558" fill="none"/>
    </clipPath>
    <clipPath id="clip-path-5">
      <rect id="Rectangle_371" data-name="Rectangle 371" width="73.052" height="127.35" fill="none"/>
    </clipPath>
  </defs>
  <g id="Group_1289" data-name="Group 1289" transform="translate(-140 -2669)">
    <g id="Group_847" data-name="Group 847" transform="translate(140 2669)">
      <rect id="Rectangle_372" data-name="Rectangle 372" width="102.991" height="298.8" transform="translate(0.5 61.076)" fill="#fff"/>
      <g id="Group_844" data-name="Group 844">
        <g id="Group_843" data-name="Group 843" clip-path="url(#clip-path)">
          <rect id="Rectangle_373" data-name="Rectangle 373" width="102.991" height="298.801" transform="translate(0.5 61.075)" fill="none" stroke="#263238" stroke-linecap="round" stroke-linejoin="round" stroke-width="1"/>
        </g>
      </g>
      <rect id="Rectangle_375" data-name="Rectangle 375" width="83.918" height="50.86" transform="translate(9.401 86.505)" fill="#fff"/>
      <rect id="Rectangle_376" data-name="Rectangle 376" width="83.918" height="50.86" transform="translate(9.401 86.505)" fill="none" stroke="#263238" stroke-linecap="round" stroke-linejoin="round" stroke-width="1"/>
      <rect id="Rectangle_377" data-name="Rectangle 377" width="20.344" height="17.801" transform="translate(41.188 103.035)" fill="#263238"/>
      <rect id="Rectangle_378" data-name="Rectangle 378" width="20.344" height="17.801" transform="translate(41.188 103.035)" fill="none" stroke="#263238" stroke-linecap="round" stroke-linejoin="round" stroke-width="1"/>
      <rect id="Rectangle_379" data-name="Rectangle 379" width="13.078" height="11.443" transform="translate(44.82 106.214)" fill="#fff"/>
      <rect id="Rectangle_380" data-name="Rectangle 380" width="13.078" height="11.443" transform="translate(44.82 106.214)" fill="none" stroke="#263238" stroke-linecap="round" stroke-linejoin="round" stroke-width="1"/>
      <rect id="Rectangle_381" data-name="Rectangle 381" width="83.918" height="50.86" transform="translate(9.401 146.183)" fill="#fff"/>
      <rect id="Rectangle_382" data-name="Rectangle 382" width="83.918" height="50.86" transform="translate(9.401 146.183)" fill="none" stroke="#263238" stroke-linecap="round" stroke-linejoin="round" stroke-width="1"/>
      <rect id="Rectangle_383" data-name="Rectangle 383" width="20.344" height="17.801" transform="translate(41.188 162.713)" fill="#263238"/>
      <rect id="Rectangle_384" data-name="Rectangle 384" width="20.344" height="17.801" transform="translate(41.188 162.713)" fill="none" stroke="#263238" stroke-linecap="round" stroke-linejoin="round" stroke-width="1"/>
      <rect id="Rectangle_385" data-name="Rectangle 385" width="13.078" height="11.443" transform="translate(44.82 165.892)" fill="#fff"/>
      <rect id="Rectangle_386" data-name="Rectangle 386" width="13.078" height="11.443" transform="translate(44.82 165.892)" fill="none" stroke="#263238" stroke-linecap="round" stroke-linejoin="round" stroke-width="1"/>
      <rect id="Rectangle_387" data-name="Rectangle 387" width="83.918" height="50.86" transform="translate(9.401 205.861)" fill="#fff"/>
      <rect id="Rectangle_388" data-name="Rectangle 388" width="83.918" height="50.86" transform="translate(9.401 205.861)" fill="none" stroke="#263238" stroke-linecap="round" stroke-linejoin="round" stroke-width="1"/>
      <rect id="Rectangle_389" data-name="Rectangle 389" width="20.344" height="17.801" transform="translate(41.188 222.391)" fill="#263238"/>
      <rect id="Rectangle_390" data-name="Rectangle 390" width="20.344" height="17.801" transform="translate(41.188 222.391)" fill="none" stroke="#263238" stroke-linecap="round" stroke-linejoin="round" stroke-width="1"/>
      <rect id="Rectangle_391" data-name="Rectangle 391" width="13.078" height="11.443" transform="translate(44.82 225.57)" fill="#fff"/>
      <rect id="Rectangle_392" data-name="Rectangle 392" width="13.078" height="11.443" transform="translate(44.82 225.57)" fill="none" stroke="#263238" stroke-linecap="round" stroke-linejoin="round" stroke-width="1"/>
      <rect id="Rectangle_393" data-name="Rectangle 393" width="83.918" height="50.86" transform="translate(9.401 265.539)" fill="#fff"/>
      <rect id="Rectangle_394" data-name="Rectangle 394" width="83.918" height="50.86" transform="translate(9.401 265.539)" fill="none" stroke="#263238" stroke-linecap="round" stroke-linejoin="round" stroke-width="1"/>
      <rect id="Rectangle_395" data-name="Rectangle 395" width="20.344" height="17.801" transform="translate(41.188 282.069)" fill="#263238"/>
      <rect id="Rectangle_396" data-name="Rectangle 396" width="20.344" height="17.801" transform="translate(41.188 282.069)" fill="none" stroke="#263238" stroke-linecap="round" stroke-linejoin="round" stroke-width="1"/>
      <rect id="Rectangle_397" data-name="Rectangle 397" width="13.078" height="11.443" transform="translate(44.82 285.248)" fill="#fff"/>
      <rect id="Rectangle_398" data-name="Rectangle 398" width="13.078" height="11.443" transform="translate(44.82 285.248)" fill="none" stroke="#263238" stroke-linecap="round" stroke-linejoin="round" stroke-width="1"/>
      <rect id="Rectangle_399" data-name="Rectangle 399" width="46.577" height="38.994" transform="translate(7.536 21.622)" fill="none" stroke="#263238" stroke-linecap="round" stroke-linejoin="round" stroke-width="1"/>
      <path id="Path_1254" data-name="Path 1254" d="M54.113,44.91h-22.2L22.159,22.164l-.083-.541H7.536V60.617H54.113Z" fill="#263238"/>
      <path id="Path_1255" data-name="Path 1255" d="M54.113,44.91h-22.2L22.159,22.164l-.083-.541H7.536V60.617H54.113Z" fill="none" stroke="#263238" stroke-linecap="round" stroke-linejoin="round" stroke-width="1"/>
      <rect id="Rectangle_400" data-name="Rectangle 400" width="16.248" height="20.039" transform="translate(76.318 41.119)" fill="#263238"/>
      <rect id="Rectangle_401" data-name="Rectangle 401" width="16.248" height="20.039" transform="translate(76.318 41.119)" fill="none" stroke="#263238" stroke-linecap="round" stroke-linejoin="round" stroke-width="1"/>
      <g id="Group_846" data-name="Group 846">
        <g id="Group_845" data-name="Group 845" clip-path="url(#clip-path)">
          <path id="Path_1256" data-name="Path 1256" d="M84.043,29.579s6.9-3.624,8.523-10.124S86.067.5,86.067.5s-8.124,9.207-8.124,15.706,6.1,13.373,6.1,13.373" fill="#7c7c7c"/>
          <path id="Path_1257" data-name="Path 1257" d="M84.043,29.579s6.9-3.624,8.523-10.124S86.067.5,86.067.5s-8.124,9.207-8.124,15.706S84.043,29.579,84.043,29.579Z" fill="none" stroke="#263238" stroke-linecap="round" stroke-linejoin="round" stroke-width="1"/>
          <path id="Path_1258" data-name="Path 1258" d="M79.854,37.538s1.339-8.876-3.536-12.125S60.07,23.788,60.07,23.788s2.167,13,8.124,14.082a31.28,31.28,0,0,0,11.66-.332" fill="#7c7c7c"/>
          <path id="Path_1259" data-name="Path 1259" d="M79.854,37.538s1.339-8.876-3.536-12.125S60.07,23.788,60.07,23.788s2.167,13,8.124,14.082A31.28,31.28,0,0,0,79.854,37.538Z" fill="none" stroke="#263238" stroke-linecap="round" stroke-linejoin="round" stroke-width="1"/>
          <path id="Path_1260" data-name="Path 1260" d="M92.024,34.62a15.587,15.587,0,0,1,4.333-11.374c4.874-4.874,15.164-2.166,15.164-2.166s-2.166,9.207-8.124,12.457A14.257,14.257,0,0,1,92.024,34.62" fill="#7c7c7c"/>
          <path id="Path_1261" data-name="Path 1261" d="M92.024,34.62a15.587,15.587,0,0,1,4.333-11.374c4.874-4.874,15.164-2.166,15.164-2.166s-2.166,9.207-8.124,12.457A14.257,14.257,0,0,1,92.024,34.62Z" fill="none" stroke="#263238" stroke-linecap="round" stroke-linejoin="round" stroke-width="1"/>
          <line id="Line_142" data-name="Line 142" x1="7.582" y1="9.207" transform="translate(75.235 32.454)" fill="none" stroke="#263238" stroke-linecap="round" stroke-linejoin="round" stroke-width="1"/>
          <path id="Path_1262" data-name="Path 1262" d="M84.442,12.957V43.828l13.54-15.706" fill="none" stroke="#263238" stroke-linecap="round" stroke-linejoin="round" stroke-width="1"/>
        </g>
      </g>
    </g>
    <g id="Group_837" data-name="Group 837" transform="translate(1593.754 2690.135)">
      <g id="Group_836" data-name="Group 836" clip-path="url(#clip-path-3)">
        <path id="Path_1191" data-name="Path 1191" d="M154.575,12.875s10,.908,15.451,7.271,7.27,23.176,6.362,30.449a11.344,11.344,0,0,0,4.851,11.079c5.064,3.707,9.923,8.683,10.955,15.345.961,6.2-.87,17.324-6.717,20.833-6.816,4.09-15.906,12.27-11.362,15.451a13.724,13.724,0,0,0,8.634,2.727s.455,9.543-13.178,9.543-16.814-10-13.633-21.812,10.907-25.448,3.636-31.81-10.452-18.177-5.907-25.9,6.362-24.085,2.271-28.174-1.363-5-1.363-5" transform="translate(49.394 4.196)" fill="#263238"/>
        <path id="Path_1192" data-name="Path 1192" d="M154.575,12.875s10,.908,15.451,7.271,7.27,23.176,6.362,30.449a11.344,11.344,0,0,0,4.851,11.079c5.064,3.707,9.923,8.683,10.955,15.345.961,6.2-.87,17.324-6.717,20.833-6.816,4.09-15.906,12.27-11.362,15.451a13.724,13.724,0,0,0,8.634,2.727s.455,9.543-13.178,9.543-16.814-10-13.633-21.812,10.907-25.448,3.636-31.81-10.452-18.177-5.907-25.9,6.362-24.085,2.271-28.174S154.575,12.875,154.575,12.875Z" transform="translate(49.394 4.196)" fill="none" stroke="#263238" stroke-linecap="round" stroke-linejoin="round" stroke-width="1"/>
        <path id="Path_1193" data-name="Path 1193" d="M49.223,151.108,61.946,261.382l13.667-.943,3.3-84.356,8.482-.941,53.252,3.3a77.53,77.53,0,0,1,8.483-1.413c1.884,0,4.242-5.183-7.07-9.9s-89.539-19.792-91.424-19.792-1.413,3.77-1.413,3.77" transform="translate(16.025 48.019)" fill="#263238"/>
        <path id="Path_1194" data-name="Path 1194" d="M49.223,151.108,61.946,261.382l13.667-.943,3.3-84.356,8.482-.941,53.252,3.3a77.53,77.53,0,0,1,8.483-1.413c1.884,0,4.242-5.183-7.07-9.9s-89.539-19.792-91.424-19.792S49.223,151.108,49.223,151.108Z" transform="translate(16.025 48.019)" fill="none" stroke="#263238" stroke-linecap="round" stroke-linejoin="round" stroke-width="1"/>
        <path id="Path_1195" data-name="Path 1195" d="M131.769,140.719s-48.939-16.2-96.608-5.655c-3.9.863-12.251,100.378-12.251,100.378l12.725,3.77,19.79-78.7s82.942,24.033,99.907,21.677-23.563-41.47-23.563-41.47" transform="translate(7.466 42.856)" fill="#263238"/>
        <path id="Path_1196" data-name="Path 1196" d="M131.769,140.719s-48.939-16.2-96.608-5.655c-3.9.863-12.251,100.378-12.251,100.378l12.725,3.77,19.79-78.7s82.942,24.033,99.907,21.677S131.769,140.719,131.769,140.719Z" transform="translate(7.466 42.856)" fill="none" stroke="#263238" stroke-linecap="round" stroke-linejoin="round" stroke-width="1"/>
        <path id="Path_1197" data-name="Path 1197" d="M117.3,17.057s-3.77,9.9-3.77,14.609A62.729,62.729,0,0,0,114,39.677s-6.6,7.07-4.242,9.426l2.356,2.356s3.3,18.378,6.127,19.321,14.609-1.413,14.609-1.413l.176,25.984,23.386-19.858-1.885-15.08s5.656-8.011,12.254-17.437,2.827-24.505-.943-31.574S133.32-10.277,114,13.758Z" transform="translate(35.605 0.163)" fill="#fff"/>
        <path id="Path_1198" data-name="Path 1198" d="M117.3,17.057s-3.77,9.9-3.77,14.609A62.729,62.729,0,0,0,114,39.677s-6.6,7.07-4.242,9.426l2.356,2.356s3.3,18.378,6.127,19.321,14.609-1.413,14.609-1.413l.176,25.984,23.386-19.858-1.885-15.08s5.656-8.011,12.254-17.437,2.827-24.505-.943-31.574S133.32-10.277,114,13.758Z" transform="translate(35.605 0.163)" fill="none" stroke="#263238" stroke-linecap="round" stroke-linejoin="round" stroke-width="1"/>
        <path id="Path_1199" data-name="Path 1199" d="M127.048,52.86l6.569-1.712-6.087,12.173Z" transform="translate(41.406 16.67)" fill="#263238"/>
        <path id="Path_1200" data-name="Path 1200" d="M127.048,52.86l6.569-1.712-6.087,12.173Z" transform="translate(41.406 16.67)" fill="none" stroke="#263238" stroke-linecap="round" stroke-linejoin="round" stroke-width="1"/>
        <path id="Path_1201" data-name="Path 1201" d="M164.669,11.4c-3.77-7.068-32.517-21.679-51.839,2.356l3.3,3.3,23.564,25.919s2.417-7.689,7.539-3.3c3.3,2.828,1.885,8.954.472,9.426s-4.712,5.183-4.712,5.183l10.367,6.127s5.655-8.011,12.253-17.437,2.827-24.505-.943-31.574" transform="translate(36.772 0.163)" fill="#263238"/>
        <path id="Path_1202" data-name="Path 1202" d="M164.669,11.4c-3.77-7.068-32.517-21.679-51.839,2.356l3.3,3.3,23.564,25.919s2.417-7.689,7.539-3.3c3.3,2.828,1.885,8.954.472,9.426s-4.712,5.183-4.712,5.183l10.367,6.127s5.655-8.011,12.253-17.437S168.439,18.47,164.669,11.4Z" transform="translate(36.772 0.163)" fill="none" stroke="#263238" stroke-linecap="round" stroke-linejoin="round" stroke-width="1"/>
        <path id="Path_1203" data-name="Path 1203" d="M117.454,30.919c0,1.6-.569,2.9-1.27,2.9s-1.269-1.3-1.269-2.9.569-2.9,1.269-2.9,1.27,1.3,1.27,2.9" transform="translate(37.452 9.131)" fill="#263238"/>
        <path id="Path_1204" data-name="Path 1204" d="M114.642,24.791s2.538-1.089,5.44,1.451" transform="translate(37.363 8.004)" fill="none" stroke="#263238" stroke-linecap="round" stroke-linejoin="round" stroke-width="1"/>
        <path id="Path_1205" data-name="Path 1205" d="M114.094,41.508s3.991.725,6.893-1.451" transform="translate(37.184 13.055)" fill="none" stroke="#263238" stroke-linecap="round" stroke-linejoin="round" stroke-width="1"/>
        <path id="Path_1206" data-name="Path 1206" d="M137.191,103.445l-50.72,4.1-16.3-1.512s-22.448,7.624-18.072,9.1,9.474-.106,9.474-.106a37.5,37.5,0,0,0,13.258,2.637,44.666,44.666,0,0,0,10.928-1.466l56.567,8.511Z" transform="translate(16.794 33.713)" fill="#263238"/>
        <path id="Path_1207" data-name="Path 1207" d="M137.191,103.445l-50.72,4.1-16.3-1.512s-22.448,7.624-18.072,9.1,9.474-.106,9.474-.106a37.5,37.5,0,0,0,13.258,2.637,44.666,44.666,0,0,0,10.928-1.466l56.567,8.511Z" transform="translate(16.794 33.713)" fill="none" stroke="#263238" stroke-linecap="round" stroke-linejoin="round" stroke-width="1"/>
        <path id="Path_1208" data-name="Path 1208" d="M158.472,55.247S129.254,83.522,124.54,90.592s-6.6,13.2-6.6,19.321,4.24,19.793,4.24,19.793l-5.655,20.264-16.494,15.081,25.92,41.47s11.781,2.356,19.793-2.356,13.194-24.977,13.194-34.874-1.884-31.1-1.884-31.1S167.9,104.258,171.2,91.535s3.771-24.035.472-30.162-8.483-9.425-13.2-6.126" transform="translate(32.602 17.581)" fill="#fff"/>
        <path id="Path_1209" data-name="Path 1209" d="M158.472,55.247S129.254,83.522,124.54,90.592s-6.6,13.2-6.6,19.321,4.24,19.793,4.24,19.793l-5.655,20.264-16.494,15.081,25.92,41.47s11.781,2.356,19.793-2.356,13.194-24.977,13.194-34.874-1.884-31.1-1.884-31.1S167.9,104.258,171.2,91.535s3.771-24.035.472-30.162S163.184,51.949,158.472,55.247Z" transform="translate(32.602 17.581)" fill="none" stroke="#263238" stroke-linecap="round" stroke-linejoin="round" stroke-width="1"/>
        <path id="Path_1210" data-name="Path 1210" d="M66.341,233.582,50.319,251.489s-12.253,3.77-14.138,5.655,1.885,2.828,6.6,4.712,22.149-.941,27.8-1.413,10.839,0,12.723-4.712,0-9.9-.471-11.782-2.828-11.31-2.828-11.31Z" transform="translate(11.63 75.819)" fill="#fff"/>
        <path id="Path_1211" data-name="Path 1211" d="M66.341,233.582,50.319,251.489s-12.253,3.77-14.138,5.655,1.885,2.828,6.6,4.712,22.149-.941,27.8-1.413,10.839,0,12.723-4.712,0-9.9-.471-11.782-2.828-11.31-2.828-11.31Z" transform="translate(11.63 75.819)" fill="none" stroke="#263238" stroke-linecap="round" stroke-linejoin="round" stroke-width="1"/>
        <path id="Path_1212" data-name="Path 1212" d="M49.519,249.185c-2.722.863-11.74,3.807-13.337,5.4-1.885,1.884,1.884,2.827,6.6,4.712s22.149-.943,27.8-1.415,10.838,0,12.723-4.712,0-9.9-.471-11.781c-.054-.213-.134-.534-.229-.915-8.227,5.159-22.224,10.811-25.219,10.811-2.033,0-5.292-1.1-7.869-2.106" transform="translate(11.63 78.374)" fill="#fff"/>
        <path id="Path_1213" data-name="Path 1213" d="M49.519,249.185c-2.722.863-11.74,3.807-13.337,5.4-1.885,1.884,1.884,2.827,6.6,4.712s22.149-.943,27.8-1.415,10.838,0,12.723-4.712,0-9.9-.471-11.781c-.054-.213-.134-.534-.229-.915-8.227,5.159-22.224,10.811-25.219,10.811C55.356,251.29,52.1,250.2,49.519,249.185Z" transform="translate(11.63 78.374)" fill="none" stroke="#263238" stroke-linecap="round" stroke-linejoin="round" stroke-width="1"/>
        <path id="Path_1214" data-name="Path 1214" d="M30.212,209.892S11.834,230.156,9.476,232.984s-9.425,3.77-8.954,7.068,8.012,2.356,11.311,1.885,24.033-5.655,26.862-6.6,6.6-2.356,7.068-6.6-2.828-15.081-2.828-15.081Z" transform="translate(0.163 68.405)" fill="#fff"/>
        <path id="Path_1215" data-name="Path 1215" d="M30.212,209.892S11.834,230.156,9.476,232.984s-9.425,3.77-8.954,7.068,8.012,2.356,11.311,1.885,24.033-5.655,26.862-6.6,6.6-2.356,7.068-6.6-2.828-15.081-2.828-15.081Z" transform="translate(0.163 68.405)" fill="none" stroke="#263238" stroke-linecap="round" stroke-linejoin="round" stroke-width="1"/>
        <path id="Path_1216" data-name="Path 1216" d="M45.764,226.914c.294-2.647-.88-7.863-1.8-11.411-4.626,2.262-9.1,8.378-11.391,9.525-2.827,1.413-24.505,8.483-24.505,8.483l-.988-.556c-2.967,1.63-6.908,2.778-6.553,5.268.472,3.3,8.012,2.356,11.311,1.885s24.033-5.655,26.862-6.6,6.6-2.356,7.068-6.6" transform="translate(0.163 70.234)" fill="#fff"/>
        <path id="Path_1217" data-name="Path 1217" d="M45.764,226.914c.294-2.647-.88-7.863-1.8-11.411-4.626,2.262-9.1,8.378-11.391,9.525-2.827,1.413-24.505,8.483-24.505,8.483l-.988-.556c-2.967,1.63-6.908,2.778-6.553,5.268.472,3.3,8.012,2.356,11.311,1.885s24.033-5.655,26.862-6.6S45.293,231.155,45.764,226.914Z" transform="translate(0.163 70.234)" fill="none" stroke="#263238" stroke-linecap="round" stroke-linejoin="round" stroke-width="1"/>
        <path id="Path_1218" data-name="Path 1218" d="M157.4,78.612l-13.178,44.08-66.167-.329-.716,8.653S143.771,144.5,148.315,144.5s9.544-1.363,11.362-4.544,20.9-50.441,21.813-60.894-1.364-18.177-5.453-20.449-12.27,1.818-15,6.362" transform="translate(25.207 18.893)" fill="#fff"/>
        <path id="Path_1219" data-name="Path 1219" d="M157.4,78.612l-13.178,44.08-66.167-.329-.716,8.653S143.771,144.5,148.315,144.5s9.544-1.363,11.362-4.544,20.9-50.441,21.813-60.894-1.364-18.177-5.453-20.449-12.27,1.818-15,6.362" transform="translate(25.207 18.893)" fill="none" stroke="#263238" stroke-linecap="round" stroke-linejoin="round" stroke-width="1"/>
        <path id="Path_1220" data-name="Path 1220" d="M87.233,107.534s-18.728-4.126-21.455-4.065-16.616,9.008-16.586,10.371,3.665,1.281,3.665,1.281l6.35-.6,6.785-1.516s5.947,1.685,8.673,1.624a40.027,40.027,0,0,0,6.794-1.061l5.058,2.615Z" transform="translate(16.032 33.721)" fill="#fff"/>
        <path id="Path_1221" data-name="Path 1221" d="M87.233,107.534s-18.728-4.126-21.455-4.065-16.616,9.008-16.586,10.371,3.665,1.281,3.665,1.281l6.35-.6,6.785-1.516s5.947,1.685,8.673,1.624a40.027,40.027,0,0,0,6.794-1.061l5.058,2.615Z" transform="translate(16.032 33.721)" fill="none" stroke="#263238" stroke-linecap="round" stroke-linejoin="round" stroke-width="1"/>
        <path id="Path_1222" data-name="Path 1222" d="M174.824,63.749l-7.587-.42s-19.387,56.054-21.916,77.129-1.687,38.773-.422,44.674,8.008,17.282,8.008,17.282l8.429,2.107s-8.85-22.761-9.272-29.082.666-31.405,1.264-34.558c4.637-24.446,21.5-77.131,21.5-77.131" transform="translate(46.828 20.639)" fill="#fff"/>
        <path id="Path_1223" data-name="Path 1223" d="M174.824,63.749l-7.587-.42s-19.387,56.054-21.916,77.129-1.687,38.773-.422,44.674,8.008,17.282,8.008,17.282l8.429,2.107s-8.85-22.761-9.272-29.082.666-31.405,1.264-34.558C157.965,116.434,174.824,63.749,174.824,63.749Z" transform="translate(46.828 20.639)" fill="none" stroke="#263238" stroke-linecap="round" stroke-linejoin="round" stroke-width="1"/>
        <path id="Path_1224" data-name="Path 1224" d="M126.547,225.762s-41.725,21.074-42.568,25.709a39.3,39.3,0,0,0,0,10.537l1.474-1.474,4-9.484,37.511-17.7Z" transform="translate(27.247 73.578)" fill="#fff"/>
        <path id="Path_1225" data-name="Path 1225" d="M126.547,225.762s-41.725,21.074-42.568,25.709a39.3,39.3,0,0,0,0,10.537l1.474-1.474,4-9.484,37.511-17.7Z" transform="translate(27.247 73.578)" fill="none" stroke="#263238" stroke-linecap="round" stroke-linejoin="round" stroke-width="1"/>
        <path id="Path_1226" data-name="Path 1226" d="M91.888,252.967a4.636,4.636,0,1,1-4.637-4.637,4.636,4.636,0,0,1,4.637,4.637" transform="translate(26.925 80.933)" fill="#263238"/>
        <path id="Path_1227" data-name="Path 1227" d="M91.888,252.967a4.636,4.636,0,1,1-4.637-4.637A4.636,4.636,0,0,1,91.888,252.967Z" transform="translate(26.925 80.933)" fill="none" stroke="#263238" stroke-linecap="round" stroke-linejoin="round" stroke-width="1"/>
        <path id="Path_1228" data-name="Path 1228" d="M125.314,225.762s41.725,21.074,42.568,25.709a39.3,39.3,0,0,1,0,10.537l-1.474-1.474-4-9.484-37.511-17.7Z" transform="translate(40.703 73.578)" fill="#fff"/>
        <path id="Path_1229" data-name="Path 1229" d="M125.314,225.762s41.725,21.074,42.568,25.709a39.3,39.3,0,0,1,0,10.537l-1.474-1.474-4-9.484-37.511-17.7Z" transform="translate(40.703 73.578)" fill="none" stroke="#263238" stroke-linecap="round" stroke-linejoin="round" stroke-width="1"/>
        <path id="Path_1230" data-name="Path 1230" d="M151.594,252.967a4.636,4.636,0,1,0,4.637-4.637,4.636,4.636,0,0,0-4.637,4.637" transform="translate(49.406 80.933)" fill="#263238"/>
        <path id="Path_1231" data-name="Path 1231" d="M151.594,252.967a4.636,4.636,0,1,0,4.637-4.637A4.636,4.636,0,0,0,151.594,252.967Z" transform="translate(49.406 80.933)" fill="none" stroke="#263238" stroke-linecap="round" stroke-linejoin="round" stroke-width="1"/>
        <rect id="Rectangle_355" data-name="Rectangle 355" width="6.744" height="73.336" transform="translate(155.902 230.639)" fill="#fff"/>
        <rect id="Rectangle_356" data-name="Rectangle 356" width="6.744" height="73.336" transform="translate(155.902 230.639)" fill="none" stroke="#263238" stroke-linecap="round" stroke-linejoin="round" stroke-width="1"/>
        <rect id="Rectangle_357" data-name="Rectangle 357" width="19.809" height="13.487" transform="translate(149.58 237.804)" fill="#263238"/>
        <rect id="Rectangle_358" data-name="Rectangle 358" width="19.809" height="13.487" transform="translate(149.58 237.804)" fill="none" stroke="#263238" stroke-linecap="round" stroke-linejoin="round" stroke-width="1"/>
        <path id="Path_1232" data-name="Path 1232" d="M181.691,169.815c-14.593-1.529-61.616-5.609-103.767.04a1.922,1.922,0,0,0-1.043,3.307c4.479,4.228,16.912,11.919,49.106,14.025,33.266,2.176,50.249-8.032,56.871-13.538a2.173,2.173,0,0,0-1.167-3.835" transform="translate(24.858 54.412)" fill="#fff"/>
        <path id="Path_1233" data-name="Path 1233" d="M181.691,169.815c-14.593-1.529-61.616-5.609-103.767.04a1.922,1.922,0,0,0-1.043,3.307c4.479,4.228,16.912,11.919,49.106,14.025,33.266,2.176,50.249-8.032,56.871-13.538A2.173,2.173,0,0,0,181.691,169.815Z" transform="translate(24.858 54.412)" fill="none" stroke="#263238" stroke-linecap="round" stroke-linejoin="round" stroke-width="1"/>
        <path id="Path_1234" data-name="Path 1234" d="M76.845,173.122l.082.077a1.886,1.886,0,0,0,1.291.5H182.794l.072-.058a2.175,2.175,0,0,0-1.181-3.827c-14.6-1.529-61.619-5.607-103.76.041a1.916,1.916,0,0,0-1.079,3.267" transform="translate(24.855 54.412)" fill="#06283d"/>
        <path id="Path_1235" data-name="Path 1235" d="M76.845,173.122l.082.077a1.886,1.886,0,0,0,1.291.5H182.794l.072-.058a2.175,2.175,0,0,0-1.181-3.827c-14.6-1.529-61.619-5.607-103.76.041A1.916,1.916,0,0,0,76.845,173.122Z" transform="translate(24.855 54.412)" fill="none" stroke="#263238" stroke-linecap="round" stroke-linejoin="round" stroke-width="1"/>
        <rect id="Rectangle_359" data-name="Rectangle 359" width="15.594" height="16.437" transform="translate(151.688 292.596)" fill="#263238"/>
        <rect id="Rectangle_360" data-name="Rectangle 360" width="15.594" height="16.437" transform="translate(151.688 292.596)" fill="none" stroke="#263238" stroke-linecap="round" stroke-linejoin="round" stroke-width="1"/>
        <rect id="Rectangle_361" data-name="Rectangle 361" width="2.318" height="37.722" transform="translate(157.799 300.814)" fill="#fff"/>
        <rect id="Rectangle_362" data-name="Rectangle 362" width="2.318" height="37.722" transform="translate(157.799 300.814)" fill="none" stroke="#263238" stroke-linecap="round" stroke-linejoin="round" stroke-width="1"/>
        <rect id="Rectangle_363" data-name="Rectangle 363" width="4.084" height="9.879" transform="translate(156.9 328.699)" fill="#263238"/>
        <rect id="Rectangle_364" data-name="Rectangle 364" width="4.084" height="9.879" transform="translate(156.9 328.699)" fill="none" stroke="#263238" stroke-linecap="round" stroke-linejoin="round" stroke-width="1"/>
        <path id="Path_1236" data-name="Path 1236" d="M135.933,185.923h-9.272l-5.9-56.477h6.322Z" transform="translate(39.357 42.187)" fill="#fff"/>
        <path id="Path_1237" data-name="Path 1237" d="M135.933,185.923h-9.272l-5.9-56.477h6.322Z" transform="translate(39.357 42.187)" fill="none" stroke="#263238" stroke-linecap="round" stroke-linejoin="round" stroke-width="1"/>
        <path id="Path_1238" data-name="Path 1238" d="M159.926,134.678H96.284s4.637-8.429,7.587-9.272,51,0,51,0,5.057,1.685,5.057,9.272" transform="translate(31.38 40.749)" fill="#06283d"/>
        <path id="Path_1239" data-name="Path 1239" d="M159.926,134.678H96.284s4.637-8.429,7.587-9.272,51,0,51,0S159.926,127.091,159.926,134.678Z" transform="translate(31.38 40.749)" fill="none" stroke="#263238" stroke-linecap="round" stroke-linejoin="round" stroke-width="1"/>
        <path id="Path_1240" data-name="Path 1240" d="M96.284,132.825h63.642a14.7,14.7,0,0,0-.156-2.107H97.529c-.756,1.221-1.245,2.107-1.245,2.107" transform="translate(31.38 42.602)" fill="#fff"/>
        <path id="Path_1241" data-name="Path 1241" d="M96.284,132.825h63.642a14.7,14.7,0,0,0-.156-2.107H97.529C96.773,131.939,96.284,132.825,96.284,132.825Z" transform="translate(31.38 42.602)" fill="none" stroke="#263238" stroke-linecap="round" stroke-linejoin="round" stroke-width="1"/>
      </g>
    </g>
    <g id="Group_839" data-name="Group 839" transform="translate(284 2842.817)">
      <g id="Group_838" data-name="Group 838" clip-path="url(#clip-path-4)">
        <path id="Path_1242" data-name="Path 1242" d="M22.754,7.654l18.84,18.588c6.685,5.271,9.29,14.235,7.512,20.057L4.912,180.528c-.508,1.545,2.636,2.911,6.7,2.911,3.248,0,6.034-.886,6.636-2.108l84.4-171.885H71.713l-5.433,9.886c-.922,1.679-7.06,1.8-8.42.163L47.409,6.905Z" transform="translate(12.039 2.298)" fill="#fff"/>
        <path id="Path_1243" data-name="Path 1243" d="M22.754,7.654l18.84,18.588c6.685,5.271,9.29,14.235,7.512,20.057L4.912,180.528c-.508,1.545,2.636,2.911,6.7,2.911,3.248,0,6.034-.886,6.636-2.108l84.4-171.885H71.713l-5.433,9.886c-.922,1.679-7.06,1.8-8.42.163L47.409,6.905Z" transform="translate(12.039 2.298)" fill="none" stroke="#263238" stroke-linecap="round" stroke-linejoin="round" stroke-width="1"/>
        <path id="Path_1244" data-name="Path 1244" d="M455.387,7.654l-18.84,18.588c-6.685,5.271-9.29,14.235-7.512,20.057l44.194,134.229c.508,1.545-2.636,2.911-6.7,2.911-3.248,0-6.034-.886-6.636-2.108L375.5,9.445h30.929l5.433,9.886c.922,1.679,7.06,1.8,8.417.163L430.731,6.905Z" transform="translate(930.465 2.298)" fill="#fff"/>
        <path id="Path_1245" data-name="Path 1245" d="M455.387,7.654l-18.84,18.588c-6.685,5.271-9.29,14.235-7.512,20.057l44.194,134.229c.508,1.545-2.636,2.911-6.7,2.911-3.248,0-6.034-.886-6.636-2.108L375.5,9.445h30.929l5.433,9.886c.922,1.679,7.06,1.8,8.417.163L430.731,6.905Z" transform="translate(930.465 2.298)" fill="none" stroke="#263238" stroke-linecap="round" stroke-linejoin="round" stroke-width="1"/>
        <path id="Path_1246" data-name="Path 1246" d="M216.234,184.217h0c-5.992,0-10.882-1.838-10.994-4.134L196.6,5.035H235.87l-8.643,175.047c-.111,2.3-5,4.134-10.994,4.134" transform="translate(487.158 1.675)" fill="#fff"/>
        <path id="Path_1247" data-name="Path 1247" d="M216.234,184.217h0c-5.992,0-10.882-1.838-10.994-4.134L196.6,5.035H235.87l-8.643,175.047C227.116,182.379,222.226,184.217,216.234,184.217Z" transform="translate(487.158 1.675)" fill="none" stroke="#263238" stroke-linecap="round" stroke-linejoin="round" stroke-width="1"/>
        <rect id="Rectangle_366" data-name="Rectangle 366" width="1419.522" height="11.015" transform="translate(1.739 0.666)" fill="#fff"/>
        <rect id="Rectangle_367" data-name="Rectangle 367" width="1419.522" height="11.015" transform="translate(1.739 0.666)" fill="none" stroke="#263238" stroke-linecap="round" stroke-linejoin="round" stroke-width="1"/>
      </g>
    </g>
    <g id="Group_842" data-name="Group 842" transform="translate(1620.115 2715.468)">
      <rect id="Rectangle_369" data-name="Rectangle 369" width="61.091" height="3.641" transform="translate(73.052 122.945)" fill="#fff"/>
      <g id="Group_841" data-name="Group 841" transform="translate(0 0)">
        <g id="Group_840" data-name="Group 840" clip-path="url(#clip-path-5)">
          <rect id="Rectangle_370" data-name="Rectangle 370" width="33.08" height="3.641" transform="translate(39.557 122.945)" fill="none" stroke="#263238" stroke-linecap="round" stroke-linejoin="round" stroke-width="1"/>
          <path id="Path_1248" data-name="Path 1248" d="M19.708,103.248H5.282c-2.543,0-4.64-3.674-4.775-8.365A16,16,0,0,1,.69,91.958L9.733,43.947c.191-1.016.795-1.553,1.339-1.2a2.593,2.593,0,0,1,.648,2.473L2.695,93.136a9.007,9.007,0,0,0-.086,1.544c.075,2.624,1.25,4.681,2.673,4.681H19.708c.582,0,1.052.87,1.052,1.944s-.47,1.943-1.052,1.943" transform="translate(-0.086 22.53)" fill="#263238"/>
          <path id="Path_1249" data-name="Path 1249" d="M19.708,103.248H5.282c-2.543,0-4.64-3.674-4.775-8.365A16,16,0,0,1,.69,91.958L9.733,43.947c.191-1.016.795-1.553,1.339-1.2a2.593,2.593,0,0,1,.648,2.473L2.695,93.136a9.007,9.007,0,0,0-.086,1.544c.075,2.624,1.25,4.681,2.673,4.681H19.708c.582,0,1.052.87,1.052,1.944S20.29,103.248,19.708,103.248Z" transform="translate(-0.086 22.53)" fill="none" stroke="#263238" stroke-linecap="round" stroke-linejoin="round" stroke-width="1"/>
          <path id="Path_1250" data-name="Path 1250" d="M17.988.5,33.922,113.172l-1.744,2.415S12.124,86.6,12.124,62.45,15.612,1.261,15.612,1.261Z" transform="translate(-2.09 0.264)" fill="#fff"/>
          <path id="Path_1251" data-name="Path 1251" d="M17.988.5,33.922,113.172l-1.744,2.415S12.124,86.6,12.124,62.45,15.612,1.261,15.612,1.261Z" transform="translate(-2.09 0.264)" fill="none" stroke="#263238" stroke-linecap="round" stroke-linejoin="round" stroke-width="1"/>
          <path id="Path_1252" data-name="Path 1252" d="M18.714.5l-2.376.761L32.905,115.587l1.744-2.415Z" transform="translate(-2.817 0.264)" fill="#263238"/>
          <path id="Path_1253" data-name="Path 1253" d="M18.714.5l-2.376.761L32.905,115.587l1.744-2.415Z" transform="translate(-2.817 0.264)" fill="none" stroke="#263238" stroke-linecap="round" stroke-linejoin="round" stroke-width="1"/>
        </g>
      </g>
    </g>
  </g>
</svg>
