<svg xmlns="http://www.w3.org/2000/svg" width="616.79" height="210.353" viewBox="0.255 0.255 616.79 210.353"><g data-name="Group 860" clip-path="url(&quot;#a&quot;)"><path d="m15.106 11.275 8.18 21.06c2.901 5.971 4.032 16.127 3.26 22.723L7.36 207.134a2.932 2.932 0 0 0 5.789.909l36.64-194.739H36.362l-2.358 11.201c-.4 1.903-3.065 2.037-3.656.184L25.81 10.426l-10.704.849Z" fill="#fff" fill-rule="evenodd" data-name="Path 1340"/><path d="m14.606 10.775 8.18 21.06c2.901 5.971 4.032 16.127 3.26 22.723L6.86 206.634a2.932 2.932 0 0 0 5.789.909l36.64-194.739H35.862l-2.358 11.201c-.4 1.903-3.065 2.037-3.656.184L25.31 9.926l-10.704.849Z" stroke-linejoin="round" stroke-linecap="round" stroke="#263238" fill="transparent" data-name="Path 1341"/><path d="m601.672 11.275-8.18 21.06c-2.902 5.971-4.033 16.127-3.261 22.723l19.187 152.076a2.932 2.932 0 0 1-5.79.909l-36.64-194.739h13.428l2.359 11.201c.4 1.903 3.065 2.037 3.654.184l4.539-14.263 10.704.849Z" fill="#fff" fill-rule="evenodd" data-name="Path 1342"/><path d="m601.172 10.775-8.18 21.06c-2.902 5.971-4.033 16.127-3.261 22.723l19.187 152.076a2.932 2.932 0 0 1-5.79.909l-36.64-194.739h13.428l2.359 11.201c.4 1.903 3.065 2.037 3.654.184l4.539-14.263 10.704.849Z" stroke-linejoin="round" stroke-linecap="round" stroke="#263238" fill="transparent" data-name="Path 1343"/><path d="M305.38 210.608a4.773 4.773 0 0 1-4.774-4.684L296.854 7.603h17.05l-3.752 198.321a4.773 4.773 0 0 1-4.773 4.684" fill="#fff" fill-rule="evenodd" data-name="Path 1344"/><path d="M304.88 210.108h0a4.773 4.773 0 0 1-4.774-4.684L296.354 7.103h17.05l-3.752 198.321a4.773 4.773 0 0 1-4.773 4.684Z" stroke-linejoin="round" stroke-linecap="round" stroke="#263238" fill="transparent" data-name="Path 1345"/><path d="M.755.755h616.29v12.48H.755V.755z" fill="#fff" fill-rule="evenodd" data-name="Rectangle 421"/><path d="M.255.255h616.29v12.48h0H.255h0V.255h0z" stroke-linejoin="round" stroke-linecap="round" stroke="#263238" fill="transparent" data-name="Rectangle 422"/></g><defs><clipPath id="a"><path d="M0 0h617.8v211.363H0V0z" data-name="Rectangle 423"/></clipPath></defs></svg>