<svg xmlns="http://www.w3.org/2000/svg" width="34" height="27.642" viewBox="0 0 34 27.642">
  <path id="Icon_zocial-twitter" data-name="Icon zocial-twitter" d="M-4.738,24.159q.83.081,1.659.082A13.712,13.712,0,0,0,5.6,21.257a6.721,6.721,0,0,1-4.063-1.383A6.8,6.8,0,0,1-.923,16.418a6.573,6.573,0,0,0,1.3.111,6.832,6.832,0,0,0,1.852-.249,6.725,6.725,0,0,1-4.022-2.39A6.759,6.759,0,0,1-3.383,9.453V9.369a6.544,6.544,0,0,0,3.178.857,6.848,6.848,0,0,1-2.28-2.474,6.8,6.8,0,0,1-.843-3.33A6.776,6.776,0,0,1-2.361.911,19.393,19.393,0,0,0,3.984,6.067a19.635,19.635,0,0,0,8.03,2.142,7.843,7.843,0,0,1-.194-1.6,6.708,6.708,0,0,1,2.046-4.92A6.741,6.741,0,0,1,18.814-.359,6.7,6.7,0,0,1,23.9,1.853,14.035,14.035,0,0,0,28.322.139a6.648,6.648,0,0,1-3.041,3.87A14.242,14.242,0,0,0,29.262,2.9a13.383,13.383,0,0,1-3.456,3.62v.914a20,20,0,0,1-.815,5.6A19.917,19.917,0,0,1,22.5,18.4a21.355,21.355,0,0,1-3.994,4.546,17.7,17.7,0,0,1-5.57,3.166,20.355,20.355,0,0,1-6.98,1.173A19.583,19.583,0,0,1-4.738,24.159Z" transform="translate(4.738 0.359)" fill="#fff"/>
</svg>
