<svg xmlns="http://www.w3.org/2000/svg" width="16.095" height="21.46" viewBox="0 0 16.095 21.46">
  <path id="Icon_awesome-file-upload" data-name="Icon awesome-file-upload" d="M9.389,5.7V0H1.006A1,1,0,0,0,0,1.006V20.454A1,1,0,0,0,1.006,21.46H15.089a1,1,0,0,0,1.006-1.006V6.706h-5.7A1.009,1.009,0,0,1,9.389,5.7Zm2.732,9.054H9.389v3.353a.67.67,0,0,1-.671.671H7.377a.67.67,0,0,1-.671-.671V14.754H3.974A.671.671,0,0,1,3.5,13.607L7.543,9.6a.715.715,0,0,1,1.008,0l4.041,4.011A.67.67,0,0,1,12.121,14.754ZM15.8,4.4,11.7.293A1,1,0,0,0,10.986,0H10.73V5.365h5.365V5.109A1,1,0,0,0,15.8,4.4Z" fill="#fff"/>
</svg>
