<svg xmlns="http://www.w3.org/2000/svg" width="45" height="31.5" viewBox="337.675 3451.5 45 31.5"><path d="M375.475 3465.183c.288-.753.45-1.575.45-2.433a6.752 6.752 0 0 0-6.75-6.75 6.716 6.716 0 0 0-3.748 1.14c-1.947-3.376-5.582-5.64-9.752-5.64-6.216 0-11.25 5.034-11.25 11.25 0 .19.007.38.014.57-3.937 1.385-6.764 5.14-6.764 9.555 0 5.59 4.535 10.125 10.125 10.125h25.875a9 9 0 0 0 1.8-17.817Zm-10.14 4.317h-4.598v7.875c0 .619-.506 1.125-1.125 1.125h-3.375a1.128 1.128 0 0 1-1.125-1.125v-7.875h-4.598c-1.005 0-1.505-1.21-.794-1.92l7.41-7.41a1.129 1.129 0 0 1 1.59 0l7.41 7.41c.71.71.204 1.92-.794 1.92Z" fill="#3330e4" fill-rule="evenodd" data-name="Icon awesome-cloud-upload-alt"/></svg>