<svg xmlns="http://www.w3.org/2000/svg" width="209.086" height="409.844" viewBox="0.261 0.259 209.086 409.844"><g data-name="Group 858" clip-path="url(&quot;#a&quot;)"><path d="M162.854 115.448H64.261c-6.648 0-11.986 5.491-11.797 12.138l3.52 124.215-3.864 27.438h123.05l-5.796-27.438 5.273-124.05c.284-6.708-5.077-12.303-11.793-12.303" fill="#fff" fill-rule="evenodd" data-name="Path 1263"/><path d="M162.354 114.948H63.761c-6.648 0-11.986 5.491-11.797 12.138l3.52 124.215-3.864 27.438h123.05l-5.796-27.438 5.273-124.05c.284-6.708-5.077-12.303-11.793-12.303Z" stroke-linejoin="round" stroke-linecap="round" stroke="#263238" fill="transparent" data-name="Path 1264"/><path d="M158.359 122.931H68.773c-6.04 0-10.89 5.211-10.718 11.521l3.198 117.91-3.511 26.044h111.806l-5.266-26.044 4.79-117.752c.26-6.367-4.612-11.679-10.713-11.679" fill="#fff" fill-rule="evenodd" data-name="Path 1265"/><path d="M157.859 122.431H68.273c-6.04 0-10.89 5.211-10.718 11.521l3.198 117.91-3.511 26.044h111.806l-5.266-26.044 4.79-117.752c.26-6.367-4.612-11.679-10.713-11.679Z" stroke-linejoin="round" stroke-linecap="round" stroke="#263238" fill="transparent" data-name="Path 1266"/><path d="m51.566 220.128-6.278 56.988H50.6l6.279-56.988h-5.313Z" fill="#fff" fill-rule="evenodd" data-name="Path 1267"/><path d="m51.066 219.628-6.278 56.988H50.1l6.279-56.988h-5.313Z" stroke-linejoin="round" stroke-linecap="round" stroke="#263238" fill="transparent" data-name="Path 1268"/><path d="m175.201 220.128 6.278 56.988h-5.312l-6.279-56.988h5.313Z" fill="#fff" fill-rule="evenodd" data-name="Path 1269"/><path d="m174.701 219.628 6.278 56.988h-5.312l-6.279-56.988h5.313Z" stroke-linejoin="round" stroke-linecap="round" stroke="#263238" fill="transparent" data-name="Path 1270"/><path d="M61.05 221.038H47.876a1.725 1.725 0 0 1-1.726-1.724v-8.188c0-.953.774-1.726 1.726-1.726h13.176c.954 0 1.726.773 1.726 1.726v8.188c0 .952-.772 1.724-1.726 1.724" fill="#fff" fill-rule="evenodd" data-name="Path 1271"/><path d="M46.786 208.9H61.14a1.136 1.136 0 0 1 1.136 1.135v9.368a1.136 1.136 0 0 1-1.136 1.136H46.786a1.136 1.136 0 0 1-1.136-1.136v-9.368a1.136 1.136 0 0 1 1.136-1.136z" stroke-linejoin="round" stroke-linecap="round" stroke="#263238" fill="transparent" data-name="Rectangle 403"/><path d="M60.583 209.398H48.345a2.196 2.196 0 0 0-2.196 2.196v6.606h16.63v-6.606a2.196 2.196 0 0 0-2.196-2.196" fill="#fff" fill-rule="evenodd" data-name="Path 1272"/><path d="M60.083 208.898H47.845a2.196 2.196 0 0 0-2.196 2.196v6.606h16.63v-6.606a2.196 2.196 0 0 0-2.196-2.196Z" stroke-linejoin="round" stroke-linecap="round" stroke="#263238" fill="transparent" data-name="Path 1273"/><path d="M179.228 221.038h-13.176a1.725 1.725 0 0 1-1.726-1.724v-5.587c0-.953.774-1.727 1.726-1.727h13.176c.954 0 1.726.774 1.726 1.727v5.587c0 .952-.772 1.724-1.726 1.724" fill="#fff" fill-rule="evenodd" data-name="Path 1274"/><path d="M164.962 211.5h14.356a1.136 1.136 0 0 1 1.136 1.136v6.767a1.136 1.136 0 0 1-1.136 1.136h-14.356a1.136 1.136 0 0 1-1.136-1.136v-6.767a1.136 1.136 0 0 1 1.136-1.136z" stroke-linejoin="round" stroke-linecap="round" stroke="#263238" fill="transparent" data-name="Rectangle 404"/><path d="M178.758 212H166.52c-1.212 0-2.195.762-2.195 1.704v5.131h16.629v-5.13c0-.943-.983-1.705-2.196-1.705" fill="#fff" fill-rule="evenodd" data-name="Path 1275"/><path d="M178.258 211.5H166.02c-1.212 0-2.195.762-2.195 1.704v5.131h16.629v-5.13c0-.943-.983-1.705-2.196-1.705Z" stroke-linejoin="round" stroke-linecap="round" stroke="#263238" fill="transparent" data-name="Path 1276"/><path d="M111.544 362.599s-47.812 24.148-48.778 29.46c-.966 5.312 0 12.073 0 12.073l1.69-1.689 4.588-10.868 42.983-20.283-.483-8.693Z" fill="#fff" fill-rule="evenodd" data-name="Path 1277"/><path d="M111.044 362.099s-47.812 24.148-48.778 29.46c-.966 5.312 0 12.073 0 12.073l1.69-1.689 4.588-10.868 42.983-20.283-.483-8.693Z" stroke-linejoin="round" stroke-linecap="round" stroke="#263238" fill="transparent" data-name="Path 1278"/><path d="M71.46 402.2a5.312 5.312 0 1 1-10.625 0 5.312 5.312 0 1 1 10.625 0" fill="#263238" fill-rule="evenodd" data-name="Path 1279"/><path d="M70.96 401.7a5.312 5.312 0 1 1-10.625 0 5.312 5.312 0 1 1 10.625 0Z" stroke-linejoin="round" stroke-linecap="round" stroke="#263238" fill="transparent" data-name="Path 1280"/><path d="M125.55 362.599s47.812 24.148 48.778 29.46c.966 5.312 0 12.073 0 12.073l-1.69-1.689-4.588-10.868-42.983-20.283.483-8.693Z" fill="#fff" fill-rule="evenodd" data-name="Path 1281"/><path d="M125.05 362.099s47.812 24.148 48.778 29.46c.966 5.312 0 12.073 0 12.073l-1.69-1.689-4.588-10.868-42.983-20.283.483-8.693Z" stroke-linejoin="round" stroke-linecap="round" stroke="#263238" fill="transparent" data-name="Path 1282"/><path d="M165.635 402.2a5.313 5.313 0 1 0 10.625 0 5.313 5.313 0 0 0-10.625 0" fill="#263238" fill-rule="evenodd" data-name="Path 1283"/><path d="M165.135 401.7a5.313 5.313 0 1 0 10.625 0 5.313 5.313 0 0 0-10.625 0Z" stroke-linejoin="round" stroke-linecap="round" stroke="#263238" fill="transparent" data-name="Path 1284"/><path d="M113.96 283.877h7.727v84.033h-7.728v-84.033z" fill="#fff" fill-rule="evenodd" data-name="Rectangle 405"/><path d="M113.46 283.377h7.727v84.033h0-7.728 0v-84.033h0z" stroke-linejoin="round" stroke-linecap="round" stroke="#263238" fill="transparent" data-name="Rectangle 406"/><path d="M106.715 292.087h22.699v15.455h-22.699v-15.455z" fill="#263238" fill-rule="evenodd" data-name="Rectangle 407"/><path d="M106.215 291.587h22.699v15.455h0-22.699 0v-15.455h0z" stroke-linejoin="round" stroke-linecap="round" stroke="#263238" fill="transparent" data-name="Rectangle 408"/><path d="M181.092 276.558c-18.779-1.723-80.83-6.47-136.547-.033-2.167.25-2.894 3.013-1.167 4.344 6.402 4.928 23.072 13.233 64.03 15.565 43.8 2.493 66.163-9.2 74.886-15.51 1.812-1.31 1.025-4.162-1.202-4.366" fill="#fff" fill-rule="evenodd" data-name="Path 1285"/><path d="M180.592 276.058c-18.779-1.723-80.83-6.47-136.547-.033-2.167.25-2.894 3.013-1.167 4.344 6.402 4.928 23.072 13.233 64.03 15.565 43.8 2.493 66.163-9.2 74.886-15.51 1.812-1.31 1.025-4.162-1.202-4.366Z" stroke-linejoin="round" stroke-linecap="round" stroke="#263238" fill="transparent" data-name="Path 1286"/><path d="M43.33 280.83c.063.05.129.1.195.15H182.21l.094-.069c1.799-1.303.997-4.149-1.216-4.353-18.783-1.723-80.826-6.47-136.538-.033-2.137.246-2.921 2.987-1.22 4.304" fill="#fff" fill-rule="evenodd" data-name="Path 1287"/><path d="M42.83 280.33c.063.05.129.1.195.15H181.71l.094-.069c1.799-1.303.997-4.149-1.216-4.353-18.783-1.723-80.826-6.47-136.538-.033-2.137.246-2.921 2.987-1.22 4.304Z" stroke-linejoin="round" stroke-linecap="round" stroke="#263238" fill="transparent" data-name="Path 1288"/><path d="M109.13 354.872h17.868v18.835H109.13v-18.835z" fill="#263238" fill-rule="evenodd" data-name="Rectangle 409"/><path d="M108.63 354.372h17.868v18.835h0-17.868 0v-18.835h0z" stroke-linejoin="round" stroke-linecap="round" stroke="#263238" fill="transparent" data-name="Rectangle 410"/><path d="M116.134 364.288h2.655v43.225h-2.655v-43.225z" fill="#fff" fill-rule="evenodd" data-name="Rectangle 411"/><path d="M115.634 363.788h2.655v43.225h0-2.655 0v-43.225h0z" stroke-linejoin="round" stroke-linecap="round" stroke="#263238" fill="transparent" data-name="Rectangle 412"/><path d="M115.102 396.241h4.68v11.32h-4.68v-11.32z" fill="#263238" fill-rule="evenodd" data-name="Rectangle 413"/><path d="M114.602 395.741h4.68v11.32h0-4.68 0v-11.32h0z" stroke-linejoin="round" stroke-linecap="round" stroke="#263238" fill="transparent" data-name="Rectangle 414"/><path d="m77.73 194.401-10.895 43.45s-18.009 18.453-19.616 28.905c-1.608 10.451 41.798 107.282 41.798 107.282l18.491-2.411-10.45-96.741 32.962-.804-.339 97.545 18.492 2.41 30.64-95.456s3.432-11.444.763-17.928c-5.132-12.462-20.297-22.75-20.297-22.75L144.317 194.4H77.73Z" fill="#263238" fill-rule="evenodd" data-name="Path 1289"/><path d="m77.23 193.901-10.895 43.45s-18.009 18.453-19.616 28.905c-1.608 10.451 41.798 107.282 41.798 107.282l18.491-2.411-10.45-96.741 32.962-.804-.339 97.545 18.492 2.41 30.64-95.456s3.432-11.444.763-17.928c-5.132-12.462-20.297-22.75-20.297-22.75L143.817 193.9H77.23Z" stroke-linejoin="round" stroke-linecap="round" stroke="#263238" fill="transparent" data-name="Path 1290"/><path d="M89.017 374.04s-.12 9.305-2.088 17.178c-1.969 7.872-7.38 13.776-4.92 16.728 2.459 2.952 16.236 2.46 21.156.984 4.92-1.476 7.873-5.904 7.873-13.284 0-7.38-3.53-24.018-3.53-24.018l-18.491 2.411Z" fill="#fff" fill-rule="evenodd" data-name="Path 1291"/><path d="M88.517 373.54s-.12 9.305-2.088 17.178c-1.969 7.872-7.38 13.776-4.92 16.728 2.459 2.952 16.236 2.46 21.156.984 4.92-1.476 7.873-5.904 7.873-13.284 0-7.38-3.53-24.018-3.53-24.018l-18.491 2.411Z" stroke-linejoin="round" stroke-linecap="round" stroke="#263238" fill="transparent" data-name="Path 1292"/><path d="M82.01 407.946c2.46 2.952 16.237 2.46 21.156.984 4.92-1.476 7.872-5.904 7.872-13.284 0-2.032-.27-4.77-.658-7.664-1.193 3.53-3.77 6.831-9.181 7.664-9.28 1.428-13.885.527-15.722-.076-2.32 5.699-5.45 9.997-3.467 12.376" fill="#fff" fill-rule="evenodd" data-name="Path 1293"/><path d="M81.51 407.446c2.46 2.952 16.237 2.46 21.156.984 4.92-1.476 7.872-5.904 7.872-13.284 0-2.032-.27-4.77-.658-7.664-1.193 3.53-3.77 6.831-9.181 7.664-9.28 1.428-13.885.527-15.722-.076-2.32 5.699-5.45 9.997-3.467 12.376Z" stroke-linejoin="round" stroke-linecap="round" stroke="#263238" fill="transparent" data-name="Path 1294"/><path d="M148.175 374.04s.12 9.305 2.087 17.178c1.97 7.872 7.38 13.776 4.921 16.728-2.461 2.952-16.237 2.46-21.156.984-4.921-1.476-7.873-5.904-7.873-13.284 0-7.38 3.529-24.018 3.529-24.018l18.492 2.411Z" fill="#fff" fill-rule="evenodd" data-name="Path 1295"/><path d="M147.675 373.54s.12 9.305 2.087 17.178c1.97 7.872 7.38 13.776 4.921 16.728-2.461 2.952-16.237 2.46-21.156.984-4.921-1.476-7.873-5.904-7.873-13.284 0-7.38 3.529-24.018 3.529-24.018l18.492 2.411Z" stroke-linejoin="round" stroke-linecap="round" stroke="#263238" fill="transparent" data-name="Path 1296"/><path d="M155.182 407.946c-2.46 2.952-16.237 2.46-21.157.984-4.921-1.476-7.873-5.904-7.873-13.284 0-2.032.272-4.77.66-7.664 1.192 3.53 3.769 6.831 9.18 7.664 9.28 1.428 13.886.527 15.723-.076 2.32 5.699 5.45 9.997 3.467 12.376" fill="#fff" fill-rule="evenodd" data-name="Path 1297"/><path d="M154.682 407.446c-2.46 2.952-16.237 2.46-21.157.984-4.921-1.476-7.873-5.904-7.873-13.284 0-2.032.272-4.77.66-7.664 1.192 3.53 3.769 6.831 9.18 7.664 9.28 1.428 13.886.527 15.723-.076 2.32 5.699 5.45 9.997 3.467 12.376Z" stroke-linejoin="round" stroke-linecap="round" stroke="#263238" fill="transparent" data-name="Path 1298"/><path d="M90.723 92.852s-30.452 9.339-33.294 12.993c-2.841 3.654-41.414 58.053-47.098 64.144-5.685 6.09-6.902 12.992-6.496 15.834.405 2.843 4.467 9.745 4.467 9.745h16.645l11.775-17.866 29.083-30.656 11.925 47.357h66.587l9.929-49.08s20.93 35.628 21.335 36.846c.406 1.217 6.497 11.775 17.865 10.962 11.369-.811 9.745-15.834 4.466-28.42-5.278-12.588-25.984-55.212-32.075-60.898-6.09-5.683-38.979-12.991-38.979-12.991l-36.135 2.03Z" fill="#fff" fill-rule="evenodd" data-name="Path 1299"/><path d="M90.223 92.352s-30.452 9.339-33.294 12.993c-2.841 3.654-41.414 58.053-47.098 64.144-5.685 6.09-6.902 12.992-6.496 15.834.405 2.843 4.467 9.745 4.467 9.745h16.645l11.775-17.866 29.083-30.656 11.925 47.357h66.587l9.929-49.08s20.93 35.628 21.335 36.846c.406 1.217 6.497 11.775 17.865 10.962 11.369-.811 9.745-15.834 4.466-28.42-5.278-12.588-25.984-55.212-32.075-60.898-6.09-5.683-38.979-12.991-38.979-12.991l-36.135 2.03Z" stroke-linejoin="round" stroke-linecap="round" stroke="#263238" fill="transparent" data-name="Path 1300"/><path d="M172.566 180.348s-5.298-.684 3.588-6.154c8.888-5.47 21.195-5.298 25.127-4.444 3.93.856 4.614 3.419 6.837 9.06 2.22 5.64 1.195 10.767-1.198 13.16-2.392 2.393-2.05 3.419-10.083 1.368-8.034-2.051-16.409-6.667-19.999-8.888-3.589-2.223-4.272-4.102-4.272-4.102" fill="#fff" fill-rule="evenodd" data-name="Path 1301"/><path d="M172.066 179.848s-5.298-.684 3.588-6.154c8.888-5.47 21.195-5.298 25.127-4.444 3.93.856 4.614 3.419 6.837 9.06 2.22 5.64 1.195 10.767-1.198 13.16-2.392 2.393-2.05 3.419-10.083 1.368-8.034-2.051-16.409-6.667-19.999-8.888-3.589-2.223-4.272-4.102-4.272-4.102Z" stroke-linejoin="round" stroke-linecap="round" stroke="#263238" fill="transparent" data-name="Path 1302"/><path d="M173.401 181.441s14.546-4.854 20.016-6.221c5.47-1.367 11.28 2.735 12.648 9.228 1.367 6.495-.684 12.649-7.69 14.188-7.008 1.537-14.016-.514-17.945-2.907-3.934-2.393-10.6-5.981-10.6-5.981l3.571-8.307Z" fill="#fff" fill-rule="evenodd" data-name="Path 1303"/><path d="M172.901 180.941s14.546-4.854 20.016-6.221c5.47-1.367 11.28 2.735 12.648 9.228 1.367 6.495-.684 12.649-7.69 14.188-7.008 1.537-14.016-.514-17.945-2.907-3.934-2.393-10.6-5.981-10.6-5.981l3.571-8.307Z" stroke-linejoin="round" stroke-linecap="round" stroke="#263238" fill="transparent" data-name="Path 1304"/><path d="M158.38 180.688s-4.273 1.71-5.128 2.221c-.854.514-4.956 4.958-7.52 5.983-2.564 1.027-6.324 1.027-3.419 3.932 2.906 2.905 6.495.684 8.204-.513 1.71-1.196 4.274-2.565 4.958-2.565.684 0 3.93.514 4.614.684.684.171 11.28 2.908 14.016 3.59 2.734.684 4.272 1.197 6.153-2.221 1.88-3.419-1.026-8.206-3.248-9.744-2.222-1.537-18.63-1.367-18.63-1.367" fill="#fff" fill-rule="evenodd" data-name="Path 1305"/><path d="M157.88 180.188s-4.273 1.71-5.128 2.221c-.854.514-4.956 4.958-7.52 5.983-2.564 1.027-6.324 1.027-3.419 3.932 2.906 2.905 6.495.684 8.204-.513 1.71-1.196 4.274-2.565 4.958-2.565.684 0 3.93.514 4.614.684.684.171 11.28 2.908 14.016 3.59 2.734.684 4.272 1.197 6.153-2.221 1.88-3.419-1.026-8.206-3.248-9.744-2.222-1.537-18.63-1.367-18.63-1.367Z" stroke-linejoin="round" stroke-linecap="round" stroke="#263238" fill="transparent" data-name="Path 1306"/><path d="M163.401 178.108s-5.684-1.624-5.684.406c0 2.03-1.624 15.428 2.03 14.211 3.654-1.218 3.654-14.617 3.654-14.617" fill="#fff" fill-rule="evenodd" data-name="Path 1307"/><path d="M162.901 177.608s-5.684-1.624-5.684.406c0 2.03-1.624 15.428 2.03 14.211 3.654-1.218 3.654-14.617 3.654-14.617Z" stroke-linejoin="round" stroke-linecap="round" stroke="#263238" fill="transparent" data-name="Path 1308"/><path d="M163.401 178.108s-3.248 14.21-.811 14.617c2.435.406 5.278-9.744 5.684-12.993.405-3.248-3.654-3.248-4.873-1.624" fill="#fff" fill-rule="evenodd" data-name="Path 1309"/><path d="M162.901 177.608s-3.248 14.21-.811 14.617c2.435.406 5.278-9.744 5.684-12.993.405-3.248-3.654-3.248-4.873-1.624Z" stroke-linejoin="round" stroke-linecap="round" stroke="#263238" fill="transparent" data-name="Path 1310"/><path d="M168.529 179.817s-3.25 14.21-.813 14.618c2.435.405 5.278-9.745 5.684-12.994.405-3.248-3.654-3.248-4.871-1.624" fill="#fff" fill-rule="evenodd" data-name="Path 1311"/><path d="M168.029 179.317s-3.25 14.21-.813 14.618c2.435.405 5.278-9.745 5.684-12.994.405-3.248-3.654-3.248-4.871-1.624Z" stroke-linejoin="round" stroke-linecap="round" stroke="#263238" fill="transparent" data-name="Path 1312"/><path d="M174.04 183.169s-3.328 11.04-.833 11.355c2.496.316 5.409-7.57 5.825-10.094.416-2.522-3.744-2.522-4.993-1.261" fill="#fff" fill-rule="evenodd" data-name="Path 1313"/><path d="M173.54 182.669s-3.328 11.04-.833 11.355c2.496.316 5.409-7.57 5.825-10.094.416-2.522-3.744-2.522-4.993-1.261Z" stroke-linejoin="round" stroke-linecap="round" stroke="#263238" fill="transparent" data-name="Path 1314"/><path d="M5.047 177.953s1.112-6.95 3.059-10.286c1.946-3.336 7.505-4.448 10.841-5.838 3.337-1.39 13.067 2.502 16.403 6.116 3.335 3.613 4.169 8.618 3.057 12.232-1.11 3.615-6.95 6.95-7.784 6.95-.834 0-6.115-8.618-11.12-9.174-5.004-.556-14.456 0-14.456 0" fill="#fff" fill-rule="evenodd" data-name="Path 1315"/><path d="M4.547 177.453s1.112-6.95 3.059-10.286c1.946-3.336 7.505-4.448 10.841-5.838 3.337-1.39 13.067 2.502 16.403 6.116 3.335 3.613 4.169 8.618 3.057 12.232-1.11 3.615-6.95 6.95-7.784 6.95-.834 0-6.115-8.618-11.12-9.174-5.004-.556-14.456 0-14.456 0Z" stroke-linejoin="round" stroke-linecap="round" stroke="#263238" fill="transparent" data-name="Path 1316"/><path d="M5.047 177.953s2.78-9.73 14.456-9.73 13.623 11.398 13.623 13.9c0 2.501-3.337 12.51-5.84 13.345-2.501.834-16.566 1.589-18.986.099-2.419-1.49-5.755-12.331-3.253-17.614" fill="#fff" fill-rule="evenodd" data-name="Path 1317"/><path d="M4.547 177.453s2.78-9.73 14.456-9.73 13.623 11.398 13.623 13.9c0 2.501-3.337 12.51-5.84 13.345-2.501.834-16.566 1.589-18.986.099-2.419-1.49-5.755-12.331-3.253-17.614Z" stroke-linejoin="round" stroke-linecap="round" stroke="#263238" fill="transparent" data-name="Path 1318"/><path d="M32.292 190.185s2.502 2.224 8.34 3.337c5.838 1.112 9.452 2.502 5.56 3.89-3.893 1.39-7.784.835-9.73.557-1.946-.278-4.726-1.389-4.726-1.389l.556-6.395Z" fill="#fff" fill-rule="evenodd" data-name="Path 1319"/><path d="M31.792 189.685s2.502 2.224 8.34 3.337c5.838 1.112 9.452 2.502 5.56 3.89-3.893 1.39-7.784.835-9.73.557-1.946-.278-4.726-1.389-4.726-1.389l.556-6.395Z" stroke-linejoin="round" stroke-linecap="round" stroke="#263238" fill="transparent" data-name="Path 1320"/><path d="M23.674 182.958s6.395 3.058 8.618 7.227c2.224 4.17 2.224 8.341 2.224 8.341H22.84l.834-15.568Z" fill="#fff" fill-rule="evenodd" data-name="Path 1321"/><path d="M23.174 182.458s6.395 3.058 8.618 7.227c2.224 4.17 2.224 8.341 2.224 8.341H22.34l.834-15.568Z" stroke-linejoin="round" stroke-linecap="round" stroke="#263238" fill="transparent" data-name="Path 1322"/><path d="M21.45 180.177s-3.615-1.112-4.727.835c-1.112 1.946-15.567 8.34-15.845 11.12-.278 2.78-.278 6.67 2.501 7.228 2.78.555 21.685.278 22.52-.278.833-.556-2.225-15.012-2.225-16.124 0-1.112-.556-2.78-2.224-2.78" fill="#fff" fill-rule="evenodd" data-name="Path 1323"/><path d="M20.95 179.677s-3.615-1.112-4.727.835c-1.112 1.946-15.567 8.34-15.845 11.12-.278 2.78-.278 6.67 2.501 7.228 2.78.555 21.685.278 22.52-.278.833-.556-2.225-15.012-2.225-16.124 0-1.112-.556-2.78-2.224-2.78Z" stroke-linejoin="round" stroke-linecap="round" stroke="#263238" fill="transparent" data-name="Path 1324"/><path d="m16.723 182.401 2.503 16.125" fill="#fff" fill-rule="evenodd" data-name="Line 144"/><path d="m16.223 181.901 2.503 16.125" stroke-linejoin="round" stroke-linecap="round" stroke="#263238" fill="transparent" data-name="Line 145"/><path d="m9.495 186.015 3.059 13.067" fill="#fff" fill-rule="evenodd" data-name="Line 146"/><path d="m8.995 185.515 3.059 13.067" stroke-linejoin="round" stroke-linecap="round" stroke="#263238" fill="transparent" data-name="Line 147"/><path d="m4.491 188.795 2.503 9.174" fill="#fff" fill-rule="evenodd" data-name="Line 148"/><path d="m3.991 188.295 2.503 9.174" stroke-linejoin="round" stroke-linecap="round" stroke="#263238" fill="transparent" data-name="Line 149"/><path d="M78.647 34.748s-8.935 31.573-8.339 41.104c.596 9.53 27.402 21.445 44.081 23.827 16.68 2.384 39.913-17.274 41.7-23.827 1.786-6.553 1.19-25.616-4.766-38.721-5.956-13.106-17.87-35.742-32.167-36.338-14.297-.595-34.551 6.553-40.509 33.955" fill="#263238" fill-rule="evenodd" data-name="Path 1325"/><path d="M78.147 34.248s-8.935 31.573-8.339 41.104c.596 9.53 27.402 21.445 44.081 23.827 16.68 2.384 39.913-17.274 41.7-23.827 1.786-6.553 1.19-25.616-4.766-38.721C144.867 23.525 132.953.889 118.656.293c-14.297-.595-34.551 6.553-40.509 33.955Z" stroke-linejoin="round" stroke-linecap="round" stroke="#263238" fill="transparent" data-name="Path 1326"/><path d="M105.746 84.73s-12.18 1.625-12.18 3.25c0 1.623-4.873 5.277-4.873 5.277l4.06 31.263 23.955-13.804 20.708 14.617.812-30.452-12.18-10.15h-20.302Z" fill="#fff" fill-rule="evenodd" data-name="Path 1327"/><path d="M105.246 84.23s-12.18 1.625-12.18 3.25c0 1.623-4.873 5.277-4.873 5.277l4.06 31.263 23.955-13.804 20.708 14.617.812-30.452-12.18-10.15h-20.302Z" stroke-linejoin="round" stroke-linecap="round" stroke="#263238" fill="transparent" data-name="Path 1328"/><path d="M98.437 76.61 97.22 97.724l17.46 25.578 15.428-25.578-1.624-20.3-30.046-.814Z" fill="#fff" fill-rule="evenodd" data-name="Path 1329"/><path d="M97.937 76.11 96.72 97.224l17.46 25.578 15.428-25.578-1.624-20.3-30.046-.814Z" stroke-linejoin="round" stroke-linecap="round" stroke="#263238" fill="transparent" data-name="Path 1330"/><path d="M91.129 53.466s12.993-10.556 20.3-14.614c7.309-4.063 10.963-15.43 10.963-15.43s1.218 11.367 5.28 15.836c4.059 4.465 6.902 10.962 6.902 10.962l1.624 3.653s.405 20.709-.407 21.926c-.812 1.217-10.962 13.399-15.43 14.21-4.464.813-9.743.406-12.18-1.624-2.435-2.03-13.398-10.556-14.21-13.4-.813-2.84-2.842-21.519-2.842-21.519" fill="#fff" fill-rule="evenodd" data-name="Path 1331"/><path d="M90.629 52.966s12.993-10.556 20.3-14.614c7.309-4.063 10.963-15.43 10.963-15.43s1.218 11.367 5.28 15.836c4.059 4.465 6.902 10.962 6.902 10.962l1.624 3.653s.405 20.709-.407 21.926c-.812 1.217-10.962 13.399-15.43 14.21-4.464.813-9.743.406-12.18-1.624-2.435-2.03-13.398-10.556-14.21-13.4-.813-2.84-2.842-21.519-2.842-21.519Z" stroke-linejoin="round" stroke-linecap="round" stroke="#263238" fill="transparent" data-name="Path 1332"/><path d="M105.737 57.366c0 1.482-.7 2.682-1.563 2.682-.865 0-1.565-1.2-1.565-2.682 0-1.48.7-2.681 1.565-2.681.863 0 1.563 1.2 1.563 2.681" fill="#263238" fill-rule="evenodd" data-name="Path 1333"/><path d="M125.175 57.366c0 1.482-.7 2.682-1.563 2.682-.865 0-1.565-1.2-1.565-2.682 0-1.48.7-2.681 1.565-2.681.863 0 1.563 1.2 1.563 2.681" fill="#263238" fill-rule="evenodd" data-name="Path 1334"/><path d="M110.152 71.165s5.362 2.681 8.937 0" stroke-linejoin="round" stroke-linecap="round" stroke="#263238" fill="transparent" data-name="Path 1335"/><path d="M108.365 76.526s7.597 2.682 12.512-.446" stroke-linejoin="round" stroke-linecap="round" stroke="#263238" fill="transparent" data-name="Path 1336"/><path d="M98.089 52.398s2.233-4.022 8.043-3.128" stroke-linejoin="round" stroke-linecap="round" stroke="#263238" fill="transparent" data-name="Path 1337"/><path d="M120.877 49.716s3.128-2.233 7.15 2.235" stroke-linejoin="round" stroke-linecap="round" stroke="#263238" fill="transparent" data-name="Path 1338"/><path d="M64.796 195.904h108.639v3.807H64.795v-3.807z" fill="#fff" fill-rule="evenodd" data-name="Rectangle 415"/><path d="M64.296 195.404h108.639v3.807h0-108.64 0v-3.807h0z" stroke-linejoin="round" stroke-linecap="round" stroke="#263238" fill="transparent" data-name="Rectangle 416"/><path d="M173.7 186.518H55.913a5.701 5.701 0 0 1-5.702-5.702V80.446a5.703 5.703 0 0 1 5.702-5.703h117.789a5.703 5.703 0 0 1 5.702 5.703v100.37a5.701 5.701 0 0 1-5.702 5.702" fill="#fff" fill-rule="evenodd" data-name="Path 1339"/><path d="M53.463 74.243H175.15a3.753 3.753 0 0 1 3.753 3.753v104.268a3.754 3.754 0 0 1-3.754 3.754H53.463a3.753 3.753 0 0 1-3.753-3.753V77.996a3.753 3.753 0 0 1 3.753-3.753z" stroke-linejoin="round" stroke-linecap="round" stroke="#263238" fill="transparent" data-name="Rectangle 417"/><path d="M104.385 135.79h20.845v63.84h-20.845v-63.84Z" fill="#263238" fill-rule="evenodd" data-name="Path 1352"/><path d="M103.885 135.29h20.845v63.84h0-20.845 0v-63.84h0z" stroke-linejoin="round" stroke-linecap="round" stroke="#263238" fill="transparent" data-name="Rectangle 419"/></g><defs><clipPath id="a"><path d="M0 0h210.106v410.863H0V0z" data-name="Rectangle 420"/></clipPath></defs></svg>