<svg xmlns="http://www.w3.org/2000/svg" width="26" height="26" viewBox="0 0 26 26">
  <g id="Group_2924" data-name="Group 2924" transform="translate(0.173 0.451)">
    <g id="Group_2766" data-name="Group 2766" transform="translate(-0.173 -0.451)">
      <rect id="Rectangle_3491" data-name="Rectangle 3491" width="26" height="26" rx="2" transform="translate(0 0)" fill="#f9faff"/>
    </g>
    <g id="file-_2_" transform="translate(-17.773 495.189)">
      <path id="Path_4092" data-name="Path 4092" d="M29.133-490.631l-.355.054a3.779,3.779,0,0,0-1.644.713,3.832,3.832,0,0,0-1.393,2.049,4.636,4.636,0,0,0-.107,1.454l-.018,1.121-.2.129a6.175,6.175,0,0,0-2.528,3.234,4.825,4.825,0,0,0-.287,1.934,4.826,4.826,0,0,0,.287,1.934,6.116,6.116,0,0,0,4.455,4.026c.727.161,1.078.172,5.032.154,3.99-.014,3.793,0,4.394-.208a3.938,3.938,0,0,0,1.827-1.322,4.71,4.71,0,0,0,.637-1.307c.136-.53.147-.852.136-4.14l-.011-3.173-.107-.172a.682.682,0,0,0-.3-.276l-.19-.1H36.693c-2.206,0-2.278,0-2.625-.183a1.8,1.8,0,0,1-.62-.609c-.193-.362-.2-.38-.2-2.632v-2.084l-.1-.19a.682.682,0,0,0-.276-.3l-.172-.107-1.741,0C30.006-490.641,29.183-490.638,29.133-490.631Zm.5,6.207a4.649,4.649,0,0,1,2.854,1.955,4.749,4.749,0,0,1,.763,2.525,4.984,4.984,0,0,1-.233,1.422,4.414,4.414,0,0,1-1.085,1.773,4.554,4.554,0,0,1-6.275.254,4.661,4.661,0,0,1-1.49-2.554,5.775,5.775,0,0,1,0-1.791,4.623,4.623,0,0,1,3.782-3.632A5.625,5.625,0,0,1,29.634-484.424Z" transform="translate(0 0)" fill="#3330e4"/>
      <path id="Path_4093" data-name="Path 4093" d="M126.5-255.809a9.88,9.88,0,0,0-1.275,1.182c-.609.609-1.125,1.107-1.146,1.107a4.145,4.145,0,0,1-.444-.415,3.618,3.618,0,0,0-.555-.483.751.751,0,0,0-.609,0,.985.985,0,0,0-.415.423,1,1,0,0,0,.036.6,11.406,11.406,0,0,0,1.683,1.64.806.806,0,0,0,.655-.032c.208-.111,2.99-2.836,3.073-3.008A.759.759,0,0,0,126.5-255.809Z" transform="translate(-95.867 -226.351)" fill="#3330e4"/>
      <path id="Path_4094" data-name="Path 4094" d="M363-474.959v2.041h4.1l-2.041-2.041c-1.121-1.125-2.045-2.041-2.049-2.041S363-476.083,363-474.959Z" transform="translate(-328.209 -13.151)" fill="#3330e4"/>
    </g>
  </g>
</svg>
