<svg xmlns="http://www.w3.org/2000/svg" width="15.981" height="16" viewBox="0 0 15.981 16">
  <path id="edit_square_FILL1_wght400_GRAD0_opsz48" d="M7.158,21.95A1.187,1.187,0,0,1,6,20.792V9.212A1.187,1.187,0,0,1,7.158,8.054h7.817l-5.5,5.52v4.9h4.9l5.52-5.559v7.875a1.187,1.187,0,0,1-1.158,1.158Zm3.474-4.632V14.037l5.829-5.829,3.3,3.242-5.848,5.867Zm9.959-6.7-3.3-3.242,1.1-1.1a1.113,1.113,0,0,1,.82-.328,1.081,1.081,0,0,1,.82.347l1.621,1.641a1.155,1.155,0,0,1,.328.82,1.06,1.06,0,0,1-.347.8Z" transform="translate(-6 -5.95)" fill="#3330e4"/>
</svg>
