<svg xmlns="http://www.w3.org/2000/svg" width="12.797" height="16" viewBox="0 0 12.797 16">
  <g id="pause-_1_" transform="translate(-51 512)">
    <path id="Path_4084" data-name="Path 4084" d="M53.916-511.925l-.088.075-.009.472-.009.472H52.544c-1.344,0-1.435.009-1.51.15-.025.047-.034,1.916-.034,6.38v6.314l.075.087.075.088,3.373.009,3.373.006.038.1a3.488,3.488,0,0,0,.575.822,3.062,3.062,0,0,0,2.382.941,3.11,3.11,0,0,0,2.823-2.354,2.483,2.483,0,0,0,.084-.794,2.717,2.717,0,0,0-.241-1.272,3.262,3.262,0,0,0-1.282-1.463l-.269-.156,0-4.32v-4.323l-.091-.1-.091-.1L60.49-510.9l-1.332-.009v-.46c0-.478-.012-.525-.147-.594-.05-.028-.719-.038-2.538-.038H54Zm-.1,2.069.009.488.088.075.088.075h4.961l.1-.081.094-.078.009-.475.009-.475h2.251l.009,4.042.006,4.042-.147-.025c-.084-.012-.369-.025-.635-.025a2.375,2.375,0,0,0-1.3.3,3.131,3.131,0,0,0-1.732,2.526,3.846,3.846,0,0,0,.044.944l.022.094H51.563v-11.909H53.81Zm7.48,8.168a2.475,2.475,0,0,1,1.5,1.05,2.627,2.627,0,0,1-.275,3.285,2.5,2.5,0,0,1-4.085-.66,2.666,2.666,0,0,1-.016-2.263,2.572,2.572,0,0,1,1.688-1.41A2.978,2.978,0,0,1,61.3-501.688Z" fill="#fff"/>
    <path id="Path_4085" data-name="Path 4085" d="M105.726-399.862a.336.336,0,0,0-.147.087l-.079.078v8.269l.092.072.092.072H110.2l.013-.069a3.811,3.811,0,0,1,.452-1.254A3.75,3.75,0,0,1,113.2-394.3l.226-.039.01-2.673c.007-2.968.023-2.779-.213-2.839C113.1-399.88,105.89-399.892,105.726-399.862Zm6.133,2.183a.25.25,0,0,1,0,.367l-.079.075h-4.616l-.085-.093a.209.209,0,0,1-.046-.286c.082-.162.052-.162,2.493-.153l2.257.006Zm-.007,1.281a.252.252,0,0,1,0,.379l-.079.075h-4.6l-.1-.087a.21.21,0,0,1-.062-.286c.069-.171.01-.168,2.48-.159l2.264.006Zm-.016,1.284a.243.243,0,0,1,.02.388l-.079.075h-4.6l-.1-.087a.219.219,0,0,1-.052-.3c.082-.15.046-.15,2.454-.15h2.247Zm-1.192,1.29a.285.285,0,0,1,.013.388l-.066.078h-1.72c-1.664,0-1.72,0-1.782-.06A.294.294,0,0,1,107-393.7a.357.357,0,0,1,.085-.135c.062-.057.118-.06,1.769-.06h1.707Z" transform="translate(-52.715 -108.448)" fill="#fff"/>
    <path id="Path_4086" data-name="Path 4086" d="M313.524-159.634a.709.709,0,0,0-.475.4A6.5,6.5,0,0,0,313-157.8c0,1.468,0,1.448.242,1.661a.7.7,0,0,0,1.058-.18l.092-.154.01-1.245a12.486,12.486,0,0,0-.026-1.386.731.731,0,0,0-.328-.462A.81.81,0,0,0,313.524-159.634Z" transform="translate(-253.856 -341.574)" fill="#fff"/>
    <path id="Path_4087" data-name="Path 4087" d="M373.465-159.767a.784.784,0,0,0-.4.364c-.056.124-.062.236-.062,1.461v1.327l.1.17a.693.693,0,0,0,1.2-.026c.075-.138.075-.151.075-1.477,0-1.268,0-1.346-.066-1.464A.706.706,0,0,0,373.465-159.767Z" transform="translate(-312.066 -341.428)" fill="#fff"/>
  </g>
</svg>
