<svg xmlns="http://www.w3.org/2000/svg" width="26" height="26" viewBox="0 0 26 26">
  <g id="Group_2924" data-name="Group 2924" transform="translate(0.173 0.451)">
    <g id="Group_2766" data-name="Group 2766" transform="translate(-0.173 -0.451)">
      <rect id="Rectangle_3491" data-name="Rectangle 3491" width="26" height="26" rx="2" transform="translate(0 0)" fill="#f9faff"/>
    </g>
    <g id="folder" transform="translate(-29.098 482.466)">
      <path id="Path_4095" data-name="Path 4095" d="M224.679-479.865a1.353,1.353,0,0,0-.628.649c-.038.132-.051,1.006-.051,3.467v3.293l1.074.013c1.057.013,1.073.013,1.311.127a2.043,2.043,0,0,1,.776.692c.216.373.233.539.233,2.3,0,1.536,0,1.629.076,1.6a9.133,9.133,0,0,1,1.141-.255c.136-.013.3-.038.365-.047l.115-.026v-.4c0-.369.008-.412.106-.5.216-.221.255-.2,1.549.912l1.188,1.018h1.031c1.222,0,1.328-.021,1.612-.339a1.16,1.16,0,0,0,.233-.373c.072-.238.072-7.162,0-7.4a1.158,1.158,0,0,0-.233-.373c-.314-.348-.216-.339-3.1-.339h-2.52l-.1-.106-.106-.1v-1.494a12.29,12.29,0,0,0-.051-1.659,1.16,1.16,0,0,0-.233-.373c-.3-.335-.335-.339-2.109-.335A15.151,15.151,0,0,0,224.679-479.865Z" transform="translate(-183.925)" fill="#3330e4"/>
      <path id="Path_4096" data-name="Path 4096" d="M352-431.321v.675l2.41.013,2.41.013.306.153.306.148v-.4a1.144,1.144,0,0,0-.284-.942c-.31-.348-.246-.339-2.864-.339H352Z" transform="translate(-306.494 -45.883)" fill="#3330e4"/>
      <path id="Path_4097" data-name="Path 4097" d="M32.607-335.865a1.353,1.353,0,0,0-.628.649c-.072.255-.072,11.236,0,11.49a1.26,1.26,0,0,0,.653.653c.132.038,1.277.051,4.735.051,5.168,0,4.812.025,5.138-.339a1.159,1.159,0,0,0,.233-.373,13.9,13.9,0,0,0,.051-1.786v-1.617l-.093.021c-.7.153-1.082.238-1.341.3-.28.068-.322.072-.424.013-.165-.089-.2-.242-.149-.577a2.352,2.352,0,0,1,.666-1.222,5.077,5.077,0,0,1,1.184-.853l.157-.076v-.717a5,5,0,0,0-.051-.887,1.159,1.159,0,0,0-.233-.373c-.314-.348-.216-.339-3.1-.339h-2.52l-.1-.106-.106-.1v-1.494a12.287,12.287,0,0,0-.051-1.659,1.16,1.16,0,0,0-.233-.373c-.3-.335-.335-.339-2.109-.335A15.133,15.133,0,0,0,32.607-335.865Z" transform="translate(0 -137.89)" fill="#3330e4"/>
      <path id="Path_4098" data-name="Path 4098" d="M160-287.325v.679l2.41.013,2.41.013.31.153.31.153-.013-.5c-.017-.463-.025-.509-.144-.7a1.147,1.147,0,0,0-.335-.335l-.208-.127-2.372-.013L160-288Z" transform="translate(-122.641 -183.773)" fill="#3330e4"/>
      <path id="Path_4099" data-name="Path 4099" d="M263.3-197.3c0,.28-.132.4-.429.4a5.782,5.782,0,0,0-.662.068,5.137,5.137,0,0,0-2.762,1.222c-.208.2-.467.56-.429.6a1.815,1.815,0,0,0,.339-.064,19.439,19.439,0,0,1,3.123-.45c.547-.025.594-.021.692.055a.407.407,0,0,1,.127.31l.021.221.734-.624c.4-.344.73-.641.73-.658s-1.315-1.171-1.43-1.243C263.309-197.49,263.3-197.452,263.3-197.3Z" transform="translate(-217.45 -270.46)" fill="#3330e4"/>
    </g>
  </g>
</svg>
