<svg xmlns="http://www.w3.org/2000/svg" width="26" height="26" viewBox="0 0 26 26">
  <g id="Group_2924" data-name="Group 2924" transform="translate(0.173 0.451)">
    <g id="Group_2766" data-name="Group 2766" transform="translate(-0.173 -0.451)">
      <rect id="Rectangle_3491" data-name="Rectangle 3491" width="26" height="26" rx="2" transform="translate(0 0)" fill="#f9faff"/>
    </g>
    <g id="reviews" transform="translate(-20.188 514.492)">
      <path id="Path_4100" data-name="Path 4100" d="M153.877-511.884a1.655,1.655,0,0,0-1.245,1.633,2.061,2.061,0,0,0,.414,1.2c.143.248.263.463.263.474s-2.235.026-4.963.03l-4.966.011-.105.079a.882.882,0,0,0-.181.207c-.072.12-.075.207-.087,1.441-.008.722,0,1.332,0,1.358s.105.015.342-.064a4.593,4.593,0,0,1,2.261-.124,4.525,4.525,0,0,1,3.375,2.991,4.194,4.194,0,0,1,.218,1.43,4.194,4.194,0,0,1-.218,1.43,4.5,4.5,0,0,1-2.837,2.841,4.454,4.454,0,0,1-2.8.026,1.227,1.227,0,0,0-.335-.086c-.011.008-.019.986-.019,2.175v2.156h13.018l-.008-8.928c-.011-8.917-.011-8.924-.09-9.15A1.7,1.7,0,0,0,153.877-511.884Zm.109,5.651a.578.578,0,0,1,.248.753c-.03.056-.6.647-1.272,1.309-1.294,1.291-1.3,1.294-1.6,1.238-.117-.019-.252-.135-.79-.67a9.329,9.329,0,0,1-.707-.749.571.571,0,0,1,.388-.805c.245-.045.38.03.8.455a3.114,3.114,0,0,0,.433.4c.023,0,.463-.425.978-.944s.993-.967,1.053-1A.531.531,0,0,1,153.986-506.233Zm0,3.386a.578.578,0,0,1,.248.752c-.03.056-.6.647-1.272,1.309-1.294,1.291-1.3,1.294-1.6,1.238-.117-.019-.252-.135-.79-.67a9.325,9.325,0,0,1-.707-.749.571.571,0,0,1,.388-.805c.245-.045.38.03.8.455a3.118,3.118,0,0,0,.433.4c.023,0,.463-.425.978-.944s.993-.967,1.053-1A.531.531,0,0,1,153.986-502.847Zm0,3.386a.578.578,0,0,1,.248.752c-.03.056-.6.647-1.272,1.309-1.294,1.29-1.3,1.294-1.6,1.238-.117-.019-.252-.135-.79-.67a9.318,9.318,0,0,1-.707-.749.571.571,0,0,1,.388-.805c.245-.045.38.03.8.455a3.116,3.116,0,0,0,.433.4c.023,0,.463-.425.978-.944s.993-.967,1.053-1A.531.531,0,0,1,153.986-499.461Z" transform="translate(-114.508 0)" fill="#3330e4"/>
      <path id="Path_4101" data-name="Path 4101" d="M254.259-491.176c-1.219.4-2.246.734-2.276.745s.952.026,2.182.026l2.239,0-.011-.478a2.449,2.449,0,0,1,.06-.756.957.957,0,0,0,.049-.267C256.49-491.9,255.482-491.575,254.259-491.176Z" transform="translate(-219.39 -19.286)" fill="#3330e4"/>
      <path id="Path_4102" data-name="Path 4102" d="M29.752-316.7a3.51,3.51,0,0,0-2.017,1.061,3.2,3.2,0,0,0-.9,2.3,3.193,3.193,0,0,0,.459,1.712l.15.26-1.674,1.678c-.922.922-1.693,1.716-1.716,1.761a.679.679,0,0,0,.015.5.555.555,0,0,0,.651.271,15.284,15.284,0,0,0,1.825-1.731l1.689-1.689.286.165a3.029,3.029,0,0,0,1.682.44,2.822,2.822,0,0,0,.771-.068,3.406,3.406,0,0,0,2.54-2.6,4.479,4.479,0,0,0,0-1.4,3.336,3.336,0,0,0-.831-1.584,3.453,3.453,0,0,0-1.667-1A5.5,5.5,0,0,0,29.752-316.7Z" transform="translate(0 -187.889)" fill="#3330e4"/>
    </g>
  </g>
</svg>
