<svg xmlns="http://www.w3.org/2000/svg" width="20" height="20" viewBox="0 0 20 20">
  <path id="whatshot_FILL1_wght400_GRAD0_opsz48" d="M14,24a9.536,9.536,0,0,1-4.8-1.237A10.275,10.275,0,0,1,5.675,19.5l4.1-4.1,3.175,2.775,5.525-5.525v3.3h1.5V10.2h-5.75v1.5h3.3L12.9,16.325,9.725,13.55,4.975,18.3a9.606,9.606,0,0,1-.725-2.062A9.955,9.955,0,0,1,4,14a9.738,9.738,0,0,1,.787-3.9,9.994,9.994,0,0,1,2.15-3.175,10.251,10.251,0,0,1,3.188-2.138,9.989,9.989,0,0,1,7.775,0A9.984,9.984,0,0,1,23.212,10.1a9.989,9.989,0,0,1,0,7.775,10.251,10.251,0,0,1-2.138,3.188,9.994,9.994,0,0,1-3.175,2.15A9.738,9.738,0,0,1,14,24Z" transform="translate(-4 -4)" fill="#3330e4"/>
</svg>
